<svg width="375" height="200" viewBox="0 0 375 200" fill="none" xmlns="http://www.w3.org/2000/svg">
<path fill-rule="evenodd" clip-rule="evenodd" d="M197.305 19.1189V38.2384L194.84 38.884C181.278 42.4368 171.295 45.9391 158.478 51.6392L148.944 55.8799L146.655 53.3167C145.396 51.9072 139.946 45.5336 134.543 39.1531C129.14 32.7726 124.492 27.5522 124.212 27.5522C123.933 27.5522 120.362 30.4391 116.276 33.9675C112.191 37.4959 105.194 43.4745 100.727 47.2529C96.2608 51.0313 91.3014 55.2367 89.7063 56.598C68.672 74.5482 59.6941 82.2175 54.538 86.6415L48.3716 91.9321L49.6077 93.46C50.2869 94.3005 55.5415 100.524 61.284 107.289C67.0264 114.055 71.9731 119.941 72.2764 120.37C72.6691 120.925 72.1285 122.121 70.4006 124.524C64.6749 132.487 58.7492 142.615 53.2503 153.837C48.2834 163.973 47.1639 165.856 46.0914 165.873C44.9162 165.892 20.6645 162.032 13.4783 160.683C11.7503 160.358 10.2579 160.172 10.1616 160.268C10.0653 160.364 8.28224 170.74 6.19929 183.325C4.11634 195.91 2.01948 208.425 1.5392 211.137C1.0595 213.849 0.667389 216.395 0.667969 216.796C0.669129 217.376 9.64361 217.494 44.5862 217.376L88.5027 217.227L89.0143 214.907C90.2399 209.348 94.1268 196.444 96.0966 191.397C111.015 153.17 139.117 122.368 175.705 104.142C208.783 87.663 247.064 83.1009 283.118 91.3416C342.235 104.853 389.253 150.84 404.114 209.687L406.018 217.227L449.864 217.376C480.081 217.479 493.709 217.336 493.709 216.918C493.709 215.948 484.413 160.465 484.218 160.269C484.12 160.172 482.627 160.358 480.899 160.683C473.776 162.02 449.457 165.893 448.181 165.893C447.257 165.893 446.672 165.463 446.404 164.588C445.623 162.038 438.06 146.944 434.415 140.661C430.608 134.099 426.093 127.097 422.533 122.233C421.419 120.712 420.638 119.146 420.797 118.753C420.957 118.361 423.528 115.136 426.51 111.588C442.538 92.5209 444.59 89.8416 443.758 89.0684C441.307 86.79 368.687 26.5261 368.138 26.3155C367.776 26.1769 362.085 32.5713 355.489 40.5255L343.498 54.9884L336.092 51.6212C325.124 46.6351 312.773 42.3306 299.538 38.8811L297.073 38.2384V19.1189V0H247.189H197.305V19.1189ZM236.896 134.586C193.155 138.82 155.754 166.997 139.909 207.653C138.629 210.94 137.415 214.512 137.213 215.589L136.845 217.548L145.675 217.388L154.504 217.227L155.813 213.747C161.128 199.614 172.413 183.846 183.964 174.414C203.005 158.866 223.518 151.399 247.189 151.399C280.582 151.399 310.128 167.255 329.084 195.347C332.149 199.888 338.172 211.58 339.385 215.342L340.086 217.517H349.032C353.952 217.517 357.974 217.452 357.97 217.372C357.933 216.642 355.342 209.266 353.73 205.3C344.429 182.418 325.804 161.363 304.033 149.118C295.44 144.285 287.445 141.028 276.191 137.776C266.666 135.024 248.016 133.51 236.896 134.586ZM0.669129 283.283C0.669129 284.651 9.87388 340.024 10.1471 340.298C10.288 340.439 18.4058 339.218 28.1865 337.584C37.9667 335.95 46.3832 334.694 46.889 334.795C47.4122 334.898 48.9638 337.477 50.4887 340.777C56.2886 353.33 62.4824 364.093 70.3466 375.281L74.2132 380.783L71.8089 383.768C70.4864 385.41 65.8756 391.026 61.563 396.248C51.447 408.496 50.3803 409.923 50.8147 410.627C51.4284 411.62 126.001 473.601 126.727 473.721C127.319 473.819 134.111 465.818 147.286 449.498L150.922 444.994L157.79 448.077C169.362 453.271 182.596 457.93 194.84 461.119L197.305 461.762V480.881V500H247.189H297.073V480.881V461.762L299.248 461.194C300.445 460.882 303.049 460.214 305.036 459.709C311.902 457.965 325.818 452.88 334.776 448.842C339.721 446.613 344.289 444.667 344.927 444.517C345.778 444.318 346.627 444.932 348.117 446.825C349.234 448.245 354.454 454.443 359.718 460.599C364.982 466.754 369.46 472.045 369.669 472.356C370.063 472.94 371.402 471.881 384.659 460.508C388.966 456.813 400.713 446.794 410.762 438.245C449.055 405.668 446.197 408.282 445.09 406.839C444.554 406.139 439.547 400.133 433.964 393.491C428.381 386.85 423.351 380.838 422.786 380.132C421.779 378.872 421.823 378.757 425.133 374.024C432.112 364.042 439.648 350.693 444.406 339.88L446.844 334.343L465.43 337.427C475.652 339.124 484.122 340.406 484.252 340.277C484.511 340.017 493.709 284.584 493.709 283.283C493.709 282.599 486.992 282.498 449.829 282.624L405.949 282.773L404.865 287.413C397.736 317.918 382.437 344.744 359.345 367.226C316.696 408.751 254.724 423.143 197.503 404.813C146.856 388.59 106.179 346.456 91.7393 295.262C90.5218 290.945 89.2956 286.369 89.0143 285.093L88.5027 282.773L44.5862 282.624C7.39129 282.498 0.669129 282.599 0.669129 283.283ZM137.216 284.426C137.72 287.111 141.669 297.117 144.241 302.225C151.348 316.338 162.356 329.935 175.263 340.546C203.557 363.805 244.424 371.807 280.02 361.057C310.664 351.802 335.848 330.737 350.207 302.35C352.575 297.667 357.978 284.031 357.978 282.735C357.978 282.596 353.952 282.483 349.032 282.483H340.086L339.385 284.658C338.172 288.42 332.149 300.112 329.084 304.653C320.001 318.114 310.149 327.346 295.84 335.806C274.593 348.368 246.549 352.007 221.783 345.415C196.824 338.772 174.278 321.263 161.891 298.903C159.297 294.222 155.913 286.91 154.761 283.498C154.455 282.59 153.482 282.483 145.634 282.483H136.851L137.216 284.426Z" fill="#0E2243" fill-opacity="0.25"/>
</svg>
