<svg width="277" height="200" viewBox="0 0 477 300" fill="none" xmlns="http://www.w3.org/2000/svg">
<path opacity="0.1" fill-rule="evenodd" clip-rule="evenodd" d="M402.237 540.206L396.351 524.036L398.267 522.72C408.804 515.482 416.288 509.404 425.526 500.582L432.398 494.02L435.15 495.473C436.664 496.272 443.3 499.961 449.898 503.67C456.496 507.38 462.09 510.344 462.33 510.257C462.569 510.169 464.743 506.613 467.161 502.354C469.579 498.094 473.74 490.854 476.407 486.264C479.075 481.674 482.034 476.57 482.983 474.92C495.498 453.173 500.837 443.885 503.897 438.534L507.558 432.134L506.027 431.228C505.186 430.729 498.764 427.106 491.756 423.177C484.748 419.248 478.694 415.814 478.302 415.546C477.794 415.2 477.889 414.019 478.632 411.447C481.091 402.926 483.056 392.51 484.318 381.303C485.458 371.18 485.838 369.239 486.753 368.889C487.755 368.507 509.743 364.2 516.322 363.098C517.903 362.833 519.241 362.525 519.294 362.413C519.347 362.302 517.682 352.97 515.595 341.677C513.507 330.383 511.453 319.144 511.031 316.701C510.607 314.258 510.16 311.982 510.036 311.643C509.856 311.153 502.123 313.854 472.19 324.862L434.571 338.697L434.846 340.819C435.506 345.903 436.144 358.029 436.009 362.912C434.98 399.899 420.36 434.721 394.591 461.557C371.293 485.819 339.866 501.627 306.407 505.913C251.546 512.94 197.064 488.725 166.204 443.596L162.25 437.813L124.6 451.375C98.6519 460.721 87.0078 465.095 87.1365 465.448C87.435 466.269 112.487 510.291 112.714 510.395C112.827 510.447 114.051 509.823 115.433 509.01C121.131 505.655 140.795 494.788 141.89 494.389C142.682 494.101 143.317 494.282 143.816 494.938C145.271 496.851 156.403 507.256 161.463 511.432C166.749 515.793 172.777 520.305 177.327 523.307C178.751 524.246 179.903 525.327 179.887 525.709C179.871 526.09 178.658 529.62 177.192 533.552C169.315 554.681 168.38 557.587 169.332 557.981C172.135 559.143 252.969 587.44 253.505 587.447C253.857 587.451 256.771 580.267 259.979 571.481L265.811 555.506L273.2 556.042C284.141 556.835 296.059 556.62 308.472 555.406L310.784 555.18L316.67 571.35L322.555 587.519L365.338 571.947L408.122 556.375L402.237 540.206ZM332.738 454.911C368.95 437.676 392.354 402.171 393.428 362.841C393.515 359.661 393.456 356.262 393.298 355.287L393.011 353.516L385.487 356.408L377.963 359.3L377.912 362.652C377.704 376.263 372.879 393.122 365.876 404.704C354.331 423.798 339.037 436.516 318.735 443.905C290.095 454.329 259.874 450.143 234.968 432.302C230.942 429.418 222.177 421.41 219.979 418.607L218.708 416.986L211.035 419.779C206.816 421.315 203.386 422.625 203.414 422.692C203.672 423.298 208.164 428.727 210.767 431.578C225.788 448.026 248.242 460.019 270.684 463.579C279.542 464.984 287.401 465.243 298.054 464.48C307.07 463.834 323.532 459.292 332.738 454.911ZM489.569 255.414C489.148 254.256 464.208 210.299 463.89 210.154C463.725 210.078 457.139 213.645 449.254 218.08C441.369 222.515 434.536 226.204 434.072 226.277C433.591 226.353 431.467 224.656 429.143 222.341C420.304 213.535 411.679 206.367 401.49 199.359L396.481 195.914L397.624 192.638C398.253 190.837 400.479 184.648 402.57 178.885C407.476 165.369 407.951 163.829 407.362 163.369C406.53 162.721 323.493 133.581 322.834 133.706C322.295 133.808 318.934 142.695 312.657 160.61L310.925 165.554L304.086 165.091C292.562 164.31 279.778 164.501 268.295 165.626L265.983 165.852L260.098 149.683L254.213 133.513L211.429 149.085L168.646 164.657L174.531 180.826L180.416 196.996L178.725 198.155C177.795 198.793 175.767 200.171 174.218 201.218C168.866 204.836 158.497 213.481 152.056 219.692C148.502 223.121 145.183 226.193 144.682 226.518C144.013 226.953 143.095 226.698 141.235 225.562C139.841 224.71 133.455 221.098 127.046 217.535C120.636 213.973 115.167 210.896 114.892 210.699C114.374 210.328 113.552 211.641 105.683 225.397C103.126 229.867 96.1355 242.007 90.1482 252.375C67.3338 291.879 68.9801 288.776 70.3741 289.651C71.049 290.075 77.1922 293.592 84.0249 297.466C90.8575 301.34 97.0222 304.854 97.7237 305.276C98.9756 306.027 98.9731 306.138 97.5915 311.174C94.6779 321.795 92.3241 335.436 91.5711 346.066L91.1852 351.51L74.2949 354.703C65.0055 356.46 57.3466 358.019 57.275 358.169C57.1329 358.469 66.3077 408.222 66.7084 409.323C66.9189 409.901 72.7101 407.889 104.545 396.182L142.134 382.358L141.635 378.096C138.359 350.072 143.223 322.609 156.107 296.386C179.904 247.954 228.624 216.437 283.343 214.077C331.775 211.987 379.631 234.923 407.774 273.712C410.147 276.982 412.608 280.47 413.242 281.461L414.395 283.264L452.106 269.68C484.045 258.176 489.78 255.992 489.569 255.414ZM372.106 297.071C370.848 294.958 364.381 287.729 360.602 284.212C350.162 274.495 336.536 266.431 322.2 261.487C290.774 250.648 253.26 256.638 226.041 276.841C202.607 294.235 187.492 319.911 183.915 348.401C183.325 353.101 182.889 366.32 183.288 367.416C183.331 367.533 186.818 366.372 191.038 364.837L198.711 362.044L198.642 359.985C198.525 356.425 200.091 344.657 201.322 339.859C204.969 325.639 210.576 314.757 220.245 303.135C234.601 285.879 257.533 274.047 280.803 271.89C304.254 269.717 328.981 277.487 346.487 292.531C350.153 295.68 355.306 300.808 357.344 303.334C357.886 304.005 358.753 303.793 365.484 301.343L373.018 298.601L372.106 297.071Z" fill="white" fill-opacity="0.3"/>
<mask id="path-2-inside-1_380_8454" fill="white">
<path fill-rule="evenodd" clip-rule="evenodd" d="M342.807 171.165L339.537 162.182L340.601 161.451C346.456 157.43 350.613 154.053 355.746 149.152L359.563 145.507L361.092 146.314C361.933 146.758 365.62 148.807 369.285 150.868C372.951 152.929 376.059 154.576 376.192 154.527C376.325 154.479 377.533 152.503 378.876 150.137C380.219 147.77 382.531 143.748 384.013 141.198C385.495 138.648 387.139 135.812 387.666 134.896C394.619 122.814 397.585 117.654 399.285 114.681L401.318 111.126L400.468 110.622C400.001 110.345 396.433 108.333 392.54 106.15C388.647 103.967 385.283 102.059 385.065 101.91C384.783 101.718 384.836 101.062 385.249 99.6329C386.615 94.8988 387.706 89.1122 388.407 82.8862C389.041 77.2623 389.252 76.1838 389.76 75.9896C390.317 75.7771 402.532 73.3844 406.187 72.7723C407.066 72.625 407.809 72.4539 407.839 72.392C407.868 72.33 406.943 67.1457 405.784 60.8716C404.624 54.5975 403.483 48.3535 403.248 46.9961C403.013 45.6388 402.764 44.3744 402.695 44.1862C402.596 43.9138 398.299 45.4146 381.67 51.5301L360.77 59.216L360.923 60.3949C361.29 63.2194 361.644 69.9562 361.569 72.6692C360.998 93.2174 352.875 112.563 338.559 127.472C325.616 140.951 308.156 149.733 289.568 152.114C259.09 156.018 228.822 142.565 211.678 117.494L209.481 114.281L188.564 121.815C174.149 127.007 167.68 129.437 167.751 129.634C167.917 130.089 181.835 154.546 181.961 154.604C182.024 154.633 182.703 154.286 183.471 153.834C186.637 151.97 197.562 145.933 198.17 145.712C198.61 145.552 198.963 145.652 199.24 146.017C200.048 147.08 206.233 152.86 209.044 155.18C211.98 157.603 215.329 160.11 217.857 161.778C218.648 162.299 219.288 162.9 219.279 163.112C219.27 163.324 218.597 165.284 217.782 167.469C213.406 179.207 212.887 180.822 213.415 181.041C214.973 181.686 259.88 197.407 260.178 197.411C260.374 197.413 261.992 193.422 263.775 188.541L267.015 179.666L271.12 179.963C277.198 180.404 283.819 180.284 290.715 179.61L292 179.484L295.27 188.468L298.539 197.451L322.308 188.799L346.076 180.148L342.807 171.165ZM304.196 123.78C324.314 114.205 337.316 94.4798 337.913 72.6296C337.961 70.863 337.929 68.9746 337.841 68.4331L337.681 67.449L333.501 69.0556L329.322 70.6623L329.293 72.5244C329.178 80.0864 326.497 89.4524 322.606 95.8869C316.193 106.494 307.696 113.56 296.417 117.665C280.506 123.456 263.716 121.131 249.88 111.219C247.643 109.617 242.774 105.168 241.553 103.611L240.846 102.71L236.584 104.262C234.24 105.115 232.334 105.843 232.35 105.88C232.493 106.217 234.989 109.233 236.435 110.817C244.78 119.955 257.254 126.617 269.722 128.595C274.643 129.376 279.009 129.519 284.928 129.096C289.937 128.737 299.082 126.214 304.196 123.78ZM391.325 12.9478C391.091 12.3047 377.236 -12.1158 377.059 -12.1968C376.967 -12.2388 373.308 -10.2571 368.927 -7.79314C364.547 -5.32929 360.751 -3.2799 360.493 -3.23933C360.226 -3.19737 359.046 -4.1397 357.755 -5.42596C352.844 -10.318 348.053 -14.3007 342.392 -18.1937L339.609 -20.1079L340.244 -21.9276C340.594 -22.9282 341.83 -26.3665 342.992 -29.568C345.718 -37.0771 345.982 -37.9328 345.654 -38.1881C345.192 -38.5482 299.061 -54.7371 298.694 -54.6676C298.395 -54.6109 296.527 -49.6738 293.04 -39.7208L292.078 -36.9744L288.279 -37.2318C281.877 -37.6652 274.774 -37.5591 268.395 -36.9344L267.11 -36.8086L263.841 -45.7918L260.571 -54.7747L236.803 -46.1237L213.034 -37.4726L216.304 -28.4896L219.573 -19.5064L218.634 -18.8627C218.117 -18.5085 216.99 -17.7429 216.13 -17.1612C213.157 -15.151 207.396 -10.3484 203.818 -6.8977C201.843 -4.99279 199.999 -3.28627 199.721 -3.1053C199.349 -2.86398 198.839 -3.00522 197.806 -3.63644C197.031 -4.10969 193.484 -6.11635 189.923 -8.09585C186.362 -10.0751 183.324 -11.7845 183.171 -11.894C182.883 -12.1002 182.426 -11.3703 178.055 -3.728C176.634 -1.24469 172.751 5.49964 169.424 11.2593C156.75 33.2065 157.664 31.4825 158.439 31.9685C158.814 32.2043 162.227 34.158 166.022 36.3103C169.818 38.4626 173.243 40.4148 173.633 40.6488C174.328 41.066 174.327 41.1276 173.559 43.9255C171.941 49.826 170.633 57.4046 170.215 63.3101L170 66.3347L160.617 68.1087C155.456 69.0843 151.201 69.9509 151.161 70.0342C151.083 70.2009 156.18 97.8411 156.402 98.4527C156.519 98.774 159.737 97.6564 177.423 91.1522L198.305 83.4726L198.028 81.1043C196.208 65.5356 198.91 50.2783 206.068 35.7102C219.289 8.80371 246.355 -8.706 276.755 -10.0173C303.661 -11.1782 330.248 1.56398 345.883 23.1133C347.202 24.9303 348.568 26.8677 348.921 27.4184L349.561 28.4198L370.512 20.8734C388.256 14.4821 391.442 13.2692 391.325 12.9478ZM326.068 36.0908C325.368 34.9167 321.776 30.9006 319.677 28.9466C313.877 23.5484 306.307 19.0687 298.342 16.3216C280.883 10.3001 260.042 13.628 244.92 24.8519C231.902 34.5149 223.504 48.7798 221.517 64.6071C221.189 67.2182 220.947 74.5621 221.169 75.171C221.192 75.2361 223.13 74.5914 225.474 73.7382L229.737 72.1867L229.699 71.0431C229.633 69.0651 230.504 62.5271 231.187 59.862C233.214 51.962 236.329 45.9162 241.7 39.4594C249.676 29.8727 262.416 23.2993 275.344 22.1014C288.372 20.8942 302.109 25.2108 311.835 33.5682C313.871 35.3181 316.734 38.1668 317.867 39.5699C318.168 39.943 318.649 39.8251 322.389 38.4641L326.574 36.9408L326.068 36.0908Z"/>
</mask>
<path fill-rule="evenodd" clip-rule="evenodd" d="M342.807 171.165L339.537 162.182L340.601 161.451C346.456 157.43 350.613 154.053 355.746 149.152L359.563 145.507L361.092 146.314C361.933 146.758 365.62 148.807 369.285 150.868C372.951 152.929 376.059 154.576 376.192 154.527C376.325 154.479 377.533 152.503 378.876 150.137C380.219 147.77 382.531 143.748 384.013 141.198C385.495 138.648 387.139 135.812 387.666 134.896C394.619 122.814 397.585 117.654 399.285 114.681L401.318 111.126L400.468 110.622C400.001 110.345 396.433 108.333 392.54 106.15C388.647 103.967 385.283 102.059 385.065 101.91C384.783 101.718 384.836 101.062 385.249 99.6329C386.615 94.8988 387.706 89.1122 388.407 82.8862C389.041 77.2623 389.252 76.1838 389.76 75.9896C390.317 75.7771 402.532 73.3844 406.187 72.7723C407.066 72.625 407.809 72.4539 407.839 72.392C407.868 72.33 406.943 67.1457 405.784 60.8716C404.624 54.5975 403.483 48.3535 403.248 46.9961C403.013 45.6388 402.764 44.3744 402.695 44.1862C402.596 43.9138 398.299 45.4146 381.67 51.5301L360.77 59.216L360.923 60.3949C361.29 63.2194 361.644 69.9562 361.569 72.6692C360.998 93.2174 352.875 112.563 338.559 127.472C325.616 140.951 308.156 149.733 289.568 152.114C259.09 156.018 228.822 142.565 211.678 117.494L209.481 114.281L188.564 121.815C174.149 127.007 167.68 129.437 167.751 129.634C167.917 130.089 181.835 154.546 181.961 154.604C182.024 154.633 182.703 154.286 183.471 153.834C186.637 151.97 197.562 145.933 198.17 145.712C198.61 145.552 198.963 145.652 199.24 146.017C200.048 147.08 206.233 152.86 209.044 155.18C211.98 157.603 215.329 160.11 217.857 161.778C218.648 162.299 219.288 162.9 219.279 163.112C219.27 163.324 218.597 165.284 217.782 167.469C213.406 179.207 212.887 180.822 213.415 181.041C214.973 181.686 259.88 197.407 260.178 197.411C260.374 197.413 261.992 193.422 263.775 188.541L267.015 179.666L271.12 179.963C277.198 180.404 283.819 180.284 290.715 179.61L292 179.484L295.27 188.468L298.539 197.451L322.308 188.799L346.076 180.148L342.807 171.165ZM304.196 123.78C324.314 114.205 337.316 94.4798 337.913 72.6296C337.961 70.863 337.929 68.9746 337.841 68.4331L337.681 67.449L333.501 69.0556L329.322 70.6623L329.293 72.5244C329.178 80.0864 326.497 89.4524 322.606 95.8869C316.193 106.494 307.696 113.56 296.417 117.665C280.506 123.456 263.716 121.131 249.88 111.219C247.643 109.617 242.774 105.168 241.553 103.611L240.846 102.71L236.584 104.262C234.24 105.115 232.334 105.843 232.35 105.88C232.493 106.217 234.989 109.233 236.435 110.817C244.78 119.955 257.254 126.617 269.722 128.595C274.643 129.376 279.009 129.519 284.928 129.096C289.937 128.737 299.082 126.214 304.196 123.78ZM391.325 12.9478C391.091 12.3047 377.236 -12.1158 377.059 -12.1968C376.967 -12.2388 373.308 -10.2571 368.927 -7.79314C364.547 -5.32929 360.751 -3.2799 360.493 -3.23933C360.226 -3.19737 359.046 -4.1397 357.755 -5.42596C352.844 -10.318 348.053 -14.3007 342.392 -18.1937L339.609 -20.1079L340.244 -21.9276C340.594 -22.9282 341.83 -26.3665 342.992 -29.568C345.718 -37.0771 345.982 -37.9328 345.654 -38.1881C345.192 -38.5482 299.061 -54.7371 298.694 -54.6676C298.395 -54.6109 296.527 -49.6738 293.04 -39.7208L292.078 -36.9744L288.279 -37.2318C281.877 -37.6652 274.774 -37.5591 268.395 -36.9344L267.11 -36.8086L263.841 -45.7918L260.571 -54.7747L236.803 -46.1237L213.034 -37.4726L216.304 -28.4896L219.573 -19.5064L218.634 -18.8627C218.117 -18.5085 216.99 -17.7429 216.13 -17.1612C213.157 -15.151 207.396 -10.3484 203.818 -6.8977C201.843 -4.99279 199.999 -3.28627 199.721 -3.1053C199.349 -2.86398 198.839 -3.00522 197.806 -3.63644C197.031 -4.10969 193.484 -6.11635 189.923 -8.09585C186.362 -10.0751 183.324 -11.7845 183.171 -11.894C182.883 -12.1002 182.426 -11.3703 178.055 -3.728C176.634 -1.24469 172.751 5.49964 169.424 11.2593C156.75 33.2065 157.664 31.4825 158.439 31.9685C158.814 32.2043 162.227 34.158 166.022 36.3103C169.818 38.4626 173.243 40.4148 173.633 40.6488C174.328 41.066 174.327 41.1276 173.559 43.9255C171.941 49.826 170.633 57.4046 170.215 63.3101L170 66.3347L160.617 68.1087C155.456 69.0843 151.201 69.9509 151.161 70.0342C151.083 70.2009 156.18 97.8411 156.402 98.4527C156.519 98.774 159.737 97.6564 177.423 91.1522L198.305 83.4726L198.028 81.1043C196.208 65.5356 198.91 50.2783 206.068 35.7102C219.289 8.80371 246.355 -8.706 276.755 -10.0173C303.661 -11.1782 330.248 1.56398 345.883 23.1133C347.202 24.9303 348.568 26.8677 348.921 27.4184L349.561 28.4198L370.512 20.8734C388.256 14.4821 391.442 13.2692 391.325 12.9478ZM326.068 36.0908C325.368 34.9167 321.776 30.9006 319.677 28.9466C313.877 23.5484 306.307 19.0687 298.342 16.3216C280.883 10.3001 260.042 13.628 244.92 24.8519C231.902 34.5149 223.504 48.7798 221.517 64.6071C221.189 67.2182 220.947 74.5621 221.169 75.171C221.192 75.2361 223.13 74.5914 225.474 73.7382L229.737 72.1867L229.699 71.0431C229.633 69.0651 230.504 62.5271 231.187 59.862C233.214 51.962 236.329 45.9162 241.7 39.4594C249.676 29.8727 262.416 23.2993 275.344 22.1014C288.372 20.8942 302.109 25.2108 311.835 33.5682C313.871 35.3181 316.734 38.1668 317.867 39.5699C318.168 39.943 318.649 39.8251 322.389 38.4641L326.574 36.9408L326.068 36.0908Z" stroke="#1C3761" stroke-width="4" mask="url(#path-2-inside-1_380_8454)"/>
</svg>
