<svg width="218" height="282" viewBox="0 0 318 282" fill="none" xmlns="http://www.w3.org/2000/svg">
<path fill-rule="evenodd" clip-rule="evenodd" d="M138.76 -27.9444L129.201 -11.3864L126.743 -12.0599C113.222 -15.7639 102.825 -17.7224 88.8755 -19.1943L78.4982 -20.2888L77.7976 -23.6531C77.4118 -25.5034 75.8787 -33.7481 74.3902 -41.9751C72.9012 -50.2023 71.4857 -57.0476 71.2436 -57.1874C71.0019 -57.3269 66.4656 -56.6124 61.163 -55.5996C55.8608 -54.5866 46.8119 -52.9075 41.0547 -51.8685C35.2975 -50.8295 28.8998 -49.6673 26.8377 -49.2858C-0.353485 -44.2577 -11.9633 -42.1048 -18.6406 -40.8515L-26.6262 -39.3529L-26.3196 -37.4118C-26.1517 -36.3443 -24.7127 -28.3274 -23.1224 -19.5969C-21.5321 -10.8665 -20.1913 -3.29546 -20.1429 -2.77255C-20.0801 -2.09597 -21.1466 -1.32995 -23.8446 -0.112755C-32.7843 3.91998 -42.9806 9.72887 -53.3535 16.6976C-62.7231 22.9925 -64.6338 24.0628 -65.5713 23.5416C-66.5983 22.9701 -85.6714 7.5022 -91.2199 2.74016C-92.5543 1.59539 -93.7534 0.687404 -93.8849 0.722644C-94.0165 0.757896 -100.749 8.85212 -108.845 18.7093C-116.941 28.5665 -125.015 38.3569 -126.787 40.4652C-128.558 42.5738 -130.171 44.583 -130.371 44.9304C-130.66 45.4333 -122.947 50.023 -92.6263 67.3918L-54.5193 89.2215L-52.9161 87.4679C-49.0751 83.2664 -39.2571 74.0349 -35.0277 70.649C-2.99394 45.0025 36.7435 32.3782 77.5427 34.8872C114.429 37.1555 149.862 52.345 176.965 77.5086C221.406 118.768 239.131 182.104 222.579 240.497L220.457 247.979L258.354 270.03C284.472 285.228 296.345 291.919 296.554 291.557C297.039 290.717 316.73 238.018 316.659 237.752C316.623 237.619 315.237 237.034 313.579 236.451C306.741 234.047 283.744 225.242 282.638 224.604C281.838 224.142 281.546 223.476 281.752 222.585C282.35 219.986 283.348 203.133 283.333 195.869C283.317 188.282 282.907 179.961 282.256 173.969C282.052 172.094 282.159 170.348 282.494 170.087C282.828 169.828 286.666 168.32 291.023 166.739C314.438 158.24 317.554 156.946 317.22 155.86C316.237 152.662 283.478 64.1612 283.108 63.7045C282.864 63.4038 274.738 66.0955 265.049 69.6865L247.433 76.216L242.702 69.597C235.697 59.7949 227.153 49.8916 217.416 40.2867L215.602 38.4975L225.162 21.9396L234.721 5.38211L191.521 -19.5599L148.32 -44.5019L138.76 -27.9444ZM115.314 91.8489C75.3156 73.6448 28.8374 79.3458 -5.21274 106.633C-7.96545 108.84 -10.802 111.326 -11.5162 112.158L-12.8141 113.67L-5.08697 117.947L2.63992 122.222L5.51332 119.863C17.1826 110.281 34.8403 102.267 49.5591 99.8747C73.8233 95.9302 95.3214 99.72 115.821 111.556C144.74 128.252 162.4 156.756 164.771 190.563C165.154 196.028 164.524 209.165 163.694 213.03L163.213 215.264L170.961 219.737C175.222 222.197 178.737 224.152 178.774 224.081C179.107 223.429 180.551 215.746 181.138 211.506C184.524 187.039 178.922 159.492 166.191 138.002C161.165 129.52 155.869 122.702 147.749 114.259C140.876 107.113 125.482 96.4772 115.314 91.8489ZM-163.613 102.51C-164.297 103.696 -184.012 156.252 -183.912 156.626C-183.861 156.819 -176.22 159.82 -166.933 163.295C-157.646 166.77 -149.729 169.891 -149.341 170.231C-148.94 170.582 -148.886 173.591 -149.215 177.212C-150.469 190.983 -150.486 203.4 -149.27 217.022L-148.672 223.72L-152.247 225.103C-154.213 225.863 -161.014 228.422 -167.36 230.788C-182.245 236.337 -183.882 237.04 -183.858 237.867C-183.823 239.033 -150.232 329.997 -149.663 330.463C-149.199 330.845 -139.317 327.311 -119.746 319.765L-114.346 317.683L-109.94 323.787C-102.515 334.071 -93.3832 344.723 -84.3748 353.607L-82.5609 355.395L-92.1206 371.953L-101.68 388.511L-58.4793 413.453L-15.2785 438.395L-5.71905 421.837L3.84069 405.279L6.00808 405.876C7.20045 406.204 9.79006 406.927 11.7629 407.484C18.5811 409.406 33.1753 411.96 42.9522 412.942C48.3491 413.484 53.2781 414.083 53.9054 414.272C54.7421 414.525 55.1709 415.482 55.5143 417.866C55.7716 419.654 57.1937 427.631 58.6744 435.595C60.1553 443.557 61.3878 450.379 61.414 450.752C61.463 451.455 63.1524 451.207 80.319 447.987C85.8971 446.94 101.079 444.137 114.057 441.758C163.508 432.692 159.726 433.527 159.488 431.723C159.374 430.849 158.041 423.144 156.527 414.601C155.013 406.058 153.662 398.337 153.527 397.443C153.284 395.848 153.38 395.77 158.613 393.326C169.648 388.171 182.848 380.379 192.376 373.394L197.256 369.817L211.809 381.782C219.814 388.362 226.508 393.707 226.685 393.66C227.039 393.565 262.721 350.157 263.372 349.03C263.714 348.438 257.947 344.992 225.7 326.52L187.624 304.708L184.365 308.185C162.94 331.039 136.277 346.621 105.038 354.546C47.3402 369.182 -13.5251 350.661 -53.9154 306.176C-89.6651 266.802 -103.825 209.975 -90.7333 158.419C-89.6294 154.072 -88.4033 149.496 -88.0089 148.25L-87.2919 145.985L-125.25 123.898C-157.399 105.192 -163.271 101.918 -163.613 102.51ZM-45.9322 171.774C-46.8381 174.351 -48.4209 184.99 -48.7472 190.701C-49.6484 206.476 -46.9143 223.756 -41.0417 239.399C-28.1685 273.688 3.22316 301.052 39.4244 309.54C70.5909 316.847 102.934 311.196 129.562 293.792C133.954 290.921 145.451 281.812 146.099 280.69C146.169 280.57 142.739 278.459 138.478 275.999L130.731 271.526L129.036 273.059C126.104 275.711 115.042 282.825 110.118 285.225C95.5206 292.341 82.3733 295.41 65.7504 295.582C41.0696 295.838 14.9627 284.967 -3.18921 266.876C-21.4826 248.643 -32.2537 222.206 -31.8012 196.649C-31.7064 191.298 -30.981 183.273 -30.2732 179.742C-30.0848 178.804 -30.8728 178.224 -37.6694 174.3L-45.2763 169.908L-45.9322 171.774Z" fill="#0E2243" fill-opacity="0.25"/>
</svg>
