<svg width="60" height="60" viewBox="0 0 70 70" fill="none" xmlns="http://www.w3.org/2000/svg">
<path fill-rule="evenodd" clip-rule="evenodd" d="M42.6553 1.27195C41.9842 1.48346 40.8398 2.66854 40.634 3.36498C40.5425 3.67451 40.4678 4.51342 40.4678 5.22928V6.53098L39.8226 6.62777C39.0982 6.73633 38.1128 7.19584 37.5022 7.70949C37.2785 7.89776 36.8863 8.43957 36.6307 8.91344C36.2054 9.70231 36.1664 9.87279 36.1692 10.937C36.1718 11.9245 36.2267 12.204 36.535 12.7973C36.7346 13.1815 37.052 13.6788 37.2402 13.9026C37.6939 14.4415 39.0092 15.1276 39.8183 15.2471L40.4678 15.343V18.062V20.7808H44.8307H49.1936L49.2399 19.2864C49.2898 17.6716 49.4086 17.3673 50.2274 16.756C50.7568 16.3608 52.0537 16.3608 52.5831 16.756C53.4019 17.3673 53.5207 17.6716 53.5706 19.2864L53.617 20.7808H56.5626C58.4758 20.7808 59.7056 20.7225 60.071 20.6145C60.822 20.3926 61.9546 19.26 62.1765 18.509C62.4129 17.7087 62.4129 4.16533 62.1765 3.36498C61.9546 2.61399 60.822 1.48141 60.071 1.25951C59.3147 1.03611 43.3676 1.04746 42.6553 1.27195ZM42.9909 3.61641C42.6602 3.94699 42.6553 3.98692 42.6553 6.33861V8.72531L41.1609 8.77166C39.9103 8.81035 39.6049 8.86381 39.2895 9.09979C38.5723 9.63586 38.3486 10.0727 38.3486 10.937C38.3486 11.8013 38.5723 12.2382 39.2895 12.7742C39.6049 13.0102 39.9103 13.0637 41.1609 13.1024L42.6553 13.1487V15.8709V18.5933H44.8272H46.9992L47.0952 17.9438C47.2147 17.1347 47.9007 15.8194 48.4397 15.3657C48.6635 15.1775 49.1607 14.8602 49.5449 14.6605C50.1403 14.3512 50.4142 14.2977 51.4053 14.2977C52.3963 14.2977 52.6702 14.3512 53.2656 14.6605C53.6498 14.8602 54.147 15.1775 54.3708 15.3657C54.9098 15.8194 55.5958 17.1347 55.7153 17.9438L55.8113 18.5933H57.6477C59.4152 18.5933 59.4967 18.5807 59.8196 18.2576L60.1553 17.9221V10.937V3.95192L59.8196 3.61641L59.4841 3.28076H51.4053H43.3264L42.9909 3.61641ZM26.223 7.81203C22.8325 8.20045 19.1694 9.67811 16.1039 11.894C15.0089 12.6856 12.6851 15.0095 11.8935 16.1044C7.13791 22.6833 6.34494 30.861 9.77617 37.939C11.5087 41.5127 12.9907 43.2017 17.8137 47.0991L19.6747 48.603L19.6806 50.1246L19.6865 51.646L19.2717 51.8178C18.3527 52.1985 17.499 53.5803 17.499 54.687C17.499 55.8499 18.3319 57.1389 19.3924 57.6172C19.8901 57.8415 19.9289 57.8953 19.8136 58.1986C19.3387 59.4478 20.1505 61.2554 21.498 61.9484C21.8677 62.1386 22.0107 62.3007 22.0107 62.5298C22.0107 62.9698 22.4925 64.3276 22.8867 64.9983C24.4028 67.5779 27.1282 69.0553 30.0125 68.8606C32.4884 68.6937 34.5934 67.4429 35.9619 65.3252C36.4784 64.5263 37.0498 63.0256 37.0498 62.4684C37.0498 62.3103 37.2461 62.1111 37.5625 61.9484C38.91 61.2554 39.7218 59.4478 39.2469 58.1986C39.1316 57.8953 39.1704 57.8415 39.6681 57.6172C40.7625 57.1236 41.5633 55.8478 41.5601 54.6028C41.5575 53.5615 40.5349 52.0292 39.6565 51.7504C39.3926 51.6666 39.3744 51.56 39.381 50.132L39.3879 48.603L41.9919 46.4839C43.424 45.3184 45.0142 43.9252 45.5254 43.388C49.3115 39.4102 51.3992 34.1613 51.4042 28.6079L51.4053 27.3433H48.1396H44.8738L44.7778 26.6938C44.6583 25.8847 43.9723 24.5694 43.4333 24.1157C43.2095 23.9275 42.7123 23.6102 42.3281 23.4105C41.7327 23.1012 41.4588 23.0477 40.4678 23.0477C39.4767 23.0477 39.2028 23.1012 38.6074 23.4105C38.2232 23.6102 37.726 23.9275 37.5022 24.1157C36.9632 24.5694 36.2772 25.8847 36.1577 26.6938L36.0617 27.3433H33.8897H31.7177V24.6209V21.8987L30.2234 21.8524C28.6086 21.8025 28.3043 21.6837 27.693 20.8648C27.2978 20.3355 27.2978 19.0386 27.693 18.5092C28.3043 17.6904 28.6086 17.5716 30.2234 17.5217L31.7177 17.4753V12.5656V7.65576L29.4961 7.67367C28.2742 7.68352 26.8012 7.74572 26.223 7.81203ZM26.3358 9.99844C25.182 10.1465 23.5659 10.5528 22.2502 11.0253C15.7356 13.3654 10.8255 19.537 10.002 26.4204L9.8917 27.3433H13.1329H16.3742L16.471 26.6981C16.5796 25.9738 17.0391 24.9883 17.5527 24.3777C17.741 24.154 18.2828 23.7618 18.7567 23.5063C19.5455 23.0809 19.716 23.042 20.7802 23.0447C21.7678 23.0473 22.0472 23.1022 22.6406 23.4105C23.0248 23.6102 23.522 23.9275 23.7458 24.1157C24.2848 24.5694 24.9708 25.8847 25.0903 26.6938L25.1863 27.3433H27.3583H29.5302V25.7182V24.093L28.8808 23.9971C28.0717 23.8776 26.7564 23.1915 26.3027 22.6526C26.1145 22.4288 25.7971 21.9315 25.5975 21.5473C25.2881 20.9519 25.2347 20.6781 25.2347 19.687C25.2347 18.6959 25.2881 18.4221 25.5975 17.8267C25.7971 17.4425 26.1145 16.9453 26.3027 16.7214C26.7564 16.1825 28.0717 15.4964 28.8808 15.377L29.5302 15.281V12.5621V9.84326L28.4023 9.86049C27.782 9.87006 26.8521 9.93213 26.3358 9.99844ZM19.8916 25.3412C18.8982 25.8011 18.5927 26.483 18.5927 28.2408V29.5308H14.2044H9.81595L9.9055 30.3853C10.266 33.8214 11.2363 36.5513 13.1005 39.3745C14.2039 41.0458 15.8074 42.6424 19.0371 45.2861L21.874 47.6084V49.507V51.4058H25.7021H29.5302V47.0464V42.6868L28.8851 42.59C28.1607 42.4814 27.1753 42.0219 26.5647 41.5083C26.341 41.32 25.9488 40.7782 25.6932 40.3043C25.269 39.5177 25.2287 39.3421 25.2287 38.2808C25.2287 37.2194 25.269 37.0439 25.6932 36.2572C25.9488 35.7833 26.341 35.2415 26.5647 35.0532C27.1753 34.5396 28.1607 34.0801 28.8851 33.9715L29.5302 33.8747V31.7027V29.5308H26.261H22.9919L22.9456 28.0364C22.896 26.43 22.7752 26.1161 21.9783 25.5211C21.5252 25.1828 20.4364 25.0889 19.8916 25.3412ZM39.5791 25.3412C38.5857 25.8011 38.2802 26.483 38.2802 28.2408V29.5308H34.999H31.7177V32.8V36.0691L30.2234 36.1154C28.6086 36.1653 28.3043 36.2841 27.693 37.1029C27.2978 37.6323 27.2978 38.9292 27.693 39.4586C28.3043 40.2774 28.6086 40.3962 30.2234 40.4461L31.7177 40.4925V45.949V51.4058H34.4521H37.1865V49.507V47.6084L40.0257 45.286C41.5873 44.0086 43.3963 42.4052 44.0457 41.7228C46.9581 38.6623 48.7195 34.7719 49.148 30.4536L49.2395 29.5308H45.9595H42.6795L42.6331 28.0364C42.5835 26.43 42.4627 26.1161 41.6658 25.5211C41.2127 25.1828 40.1239 25.0889 39.5791 25.3412ZM20.0221 53.9289C19.8105 54.1404 19.6865 54.4207 19.6865 54.687C19.6865 54.9533 19.8105 55.2336 20.0221 55.4451L20.3577 55.7808H29.5302H38.7028L39.0384 55.4451C39.4824 55.0012 39.4824 54.3728 39.0384 53.9289L38.7028 53.5933H29.5302H20.3577L20.0221 53.9289ZM22.2096 58.3039C21.998 58.5154 21.874 58.7957 21.874 59.062C21.874 59.3283 21.998 59.6086 22.2096 59.8201L22.5452 60.1558H29.5302H36.5153L36.8509 59.8201C37.0625 59.6086 37.1865 59.3283 37.1865 59.062C37.1865 58.7957 37.0625 58.5154 36.8509 58.3039L36.5153 57.9683H29.5302H22.5452L22.2096 58.3039ZM24.1982 62.53C24.1982 62.6327 24.4142 63.1484 24.6781 63.676C25.2613 64.8417 26.0818 65.6315 27.3181 66.2172C28.1441 66.6085 28.3557 66.6499 29.5302 66.6499C30.7048 66.6499 30.9164 66.6085 31.7424 66.2172C32.9787 65.6315 33.7992 64.8417 34.3824 63.676C34.6463 63.1484 34.8623 62.6327 34.8623 62.53C34.8623 62.3754 33.9456 62.3433 29.5302 62.3433C25.1149 62.3433 24.1982 62.3754 24.1982 62.53Z" fill="#0F8BFF"/>
</svg>
