<svg width="349" height="490" viewBox="0 0 349 590" fill="none" xmlns="http://www.w3.org/2000/svg">
<mask id="path-1-inside-1_425_6968" fill="white">
<path fill-rule="evenodd" clip-rule="evenodd" d="M238.542 28.9821L240.112 33.2941L239.601 33.6449C236.791 35.575 234.795 37.1959 232.332 39.5484L230.499 41.2984L229.765 40.9109C229.361 40.6978 227.592 39.7141 225.832 38.7249C224.073 37.7357 222.581 36.9453 222.517 36.9686C222.454 36.9918 221.874 37.9402 221.229 39.076C220.584 40.2118 219.475 42.1426 218.763 43.3666C218.052 44.5905 217.263 45.9517 217.01 46.3915C213.672 52.1907 212.249 54.6677 211.433 56.0947L210.457 57.8012L210.865 58.0428C211.089 58.1758 212.802 59.1419 214.67 60.1898C216.539 61.2376 218.154 62.1533 218.258 62.2247C218.393 62.3171 218.368 62.632 218.17 63.3178C217.514 65.5901 216.99 68.3677 216.654 71.3562C216.35 74.0557 216.248 74.5734 216.004 74.6666C215.737 74.7686 209.874 75.9171 208.119 76.2109C207.698 76.2816 207.341 76.3637 207.327 76.3934C207.313 76.4231 207.757 78.9116 208.313 81.9232C208.87 84.9347 209.418 87.9319 209.53 88.5834C209.643 89.2349 209.763 89.8419 209.796 89.9322C209.844 90.0629 211.906 89.3425 219.888 86.4071L229.92 82.7179L229.846 82.152C229.67 80.7963 229.5 77.5626 229.536 76.2604C229.81 66.3972 233.709 57.1114 240.581 49.9551C246.794 43.4852 255.174 39.2697 264.097 38.1269C278.726 36.2529 293.255 42.7104 301.484 54.7447L302.539 56.2868L312.579 52.6704C319.498 50.1782 322.603 49.0117 322.569 48.9174C322.489 48.6987 315.809 36.9594 315.748 36.9316C315.718 36.9178 315.392 37.0841 315.023 37.3011C313.504 38.1957 308.26 41.0935 307.968 41.1998C307.757 41.2767 307.587 41.2284 307.454 41.0534C307.066 40.5434 304.098 37.7687 302.748 36.6552C301.339 35.4921 299.731 34.2889 298.518 33.4883C298.138 33.238 297.831 32.9498 297.835 32.8479C297.84 32.7462 298.163 31.805 298.554 30.7565C300.654 25.1221 300.904 24.3471 300.65 24.242C299.903 23.9321 278.347 16.3862 278.204 16.3844C278.11 16.3833 277.333 18.2992 276.478 20.6421L274.922 24.902L272.952 24.7591C270.034 24.5477 266.856 24.605 263.546 24.9288L262.929 24.9891L261.36 20.6771L259.791 16.3653L248.382 20.5178L236.973 24.6703L238.542 28.9821ZM257.075 51.7274C247.419 56.3234 241.178 65.7913 240.891 76.2794C240.868 77.1273 240.884 78.0338 240.926 78.2937L241.002 78.766L243.009 77.9949L245.015 77.2237L245.029 76.3298C245.084 72.7001 246.371 68.2044 248.238 65.1158C251.317 60.0243 255.395 56.6327 260.809 54.6623C268.446 51.8825 276.506 52.9988 283.147 57.7564C284.221 58.5254 286.558 60.6609 287.144 61.4084L287.483 61.8406L289.529 61.0959C290.654 60.6863 291.569 60.3369 291.561 60.3192C291.493 60.1575 290.295 58.7097 289.601 57.9495C285.595 53.5633 279.607 50.3652 273.623 49.4158C271.261 49.0412 269.165 48.9722 266.324 49.1757C263.92 49.348 259.53 50.5591 257.075 51.7274ZM215.253 104.927C215.366 105.235 222.016 116.957 222.101 116.996C222.145 117.016 223.901 116.065 226.004 114.882C228.107 113.7 229.929 112.716 230.053 112.696C230.181 112.676 230.747 113.129 231.367 113.746C233.724 116.094 236.024 118.006 238.741 119.875L240.077 120.793L239.772 121.667C239.604 122.147 239.011 123.797 238.453 125.334C237.145 128.939 237.018 129.349 237.175 129.472C237.397 129.645 259.54 137.415 259.716 137.382C259.86 137.355 260.756 134.985 262.43 130.208L262.892 128.889L264.716 129.013C267.789 129.221 271.198 129.17 274.26 128.87L274.876 128.81L276.446 133.122L278.015 137.433L289.424 133.281L300.833 129.128L299.264 124.817L297.694 120.505L298.145 120.196C298.393 120.026 298.934 119.658 299.347 119.379C300.774 118.414 303.539 116.109 305.257 114.452C306.205 113.538 307.09 112.719 307.223 112.632C307.402 112.516 307.646 112.584 308.143 112.887C308.514 113.114 310.217 114.077 311.926 115.028C313.635 115.978 315.094 116.798 315.167 116.851C315.305 116.95 315.525 116.599 317.623 112.931C318.305 111.739 320.169 108.502 321.766 105.737C327.85 95.2025 327.411 96.03 327.039 95.7967C326.859 95.6835 325.221 94.7457 323.399 93.7126C321.577 92.6795 319.933 91.7425 319.746 91.6301C319.412 91.4299 319.412 91.4003 319.781 90.0573C320.558 87.2251 321.185 83.5874 321.386 80.7527L321.489 79.3009L325.993 78.4494C328.47 77.9811 330.513 77.5651 330.532 77.5252C330.57 77.4451 328.123 64.1778 328.016 63.8843C327.96 63.73 326.416 64.2665 317.927 67.3885L307.903 71.0747L308.036 72.2115C308.91 79.6845 307.612 87.008 304.177 94.0006C297.831 106.916 284.839 115.32 270.247 115.95C257.332 116.507 244.57 110.391 237.065 100.047C236.433 99.175 235.777 98.2451 235.607 97.9807L235.3 97.5L225.244 101.122C216.727 104.19 215.197 104.772 215.253 104.927ZM246.577 93.818C246.913 94.3816 248.637 96.3093 249.645 97.2472C252.429 99.8383 256.062 101.989 259.885 103.307C268.265 106.197 278.269 104.6 285.528 99.2126C291.777 94.5744 295.807 87.7273 296.761 80.1302C296.919 78.8768 297.035 75.3517 296.928 75.0595C296.917 75.0282 295.987 75.3377 294.862 75.7472L292.816 76.4919L292.834 77.0409C292.865 77.9903 292.447 81.1286 292.119 82.4078C291.147 86.1998 289.651 89.1018 287.073 92.2011C283.245 96.8026 277.13 99.9579 270.924 100.533C264.671 101.112 258.077 99.0404 253.409 95.0288C252.431 94.1889 251.057 92.8215 250.513 92.148C250.369 91.9689 250.138 92.0255 248.343 92.6788L246.334 93.41L246.577 93.818Z"/>
</mask>
<path fill-rule="evenodd" clip-rule="evenodd" d="M238.542 28.9821L240.112 33.2941L239.601 33.6449C236.791 35.575 234.795 37.1959 232.332 39.5484L230.499 41.2984L229.765 40.9109C229.361 40.6978 227.592 39.7141 225.832 38.7249C224.073 37.7357 222.581 36.9453 222.517 36.9686C222.454 36.9918 221.874 37.9402 221.229 39.076C220.584 40.2118 219.475 42.1426 218.763 43.3666C218.052 44.5905 217.263 45.9517 217.01 46.3915C213.672 52.1907 212.249 54.6677 211.433 56.0947L210.457 57.8012L210.865 58.0428C211.089 58.1758 212.802 59.1419 214.67 60.1898C216.539 61.2376 218.154 62.1533 218.258 62.2247C218.393 62.3171 218.368 62.632 218.17 63.3178C217.514 65.5901 216.99 68.3677 216.654 71.3562C216.35 74.0557 216.248 74.5734 216.004 74.6666C215.737 74.7686 209.874 75.9171 208.119 76.2109C207.698 76.2816 207.341 76.3637 207.327 76.3934C207.313 76.4231 207.757 78.9116 208.313 81.9232C208.87 84.9347 209.418 87.9319 209.53 88.5834C209.643 89.2349 209.763 89.8419 209.796 89.9322C209.844 90.0629 211.906 89.3425 219.888 86.4071L229.92 82.7179L229.846 82.152C229.67 80.7963 229.5 77.5626 229.536 76.2604C229.81 66.3972 233.709 57.1114 240.581 49.9551C246.794 43.4852 255.174 39.2697 264.097 38.1269C278.726 36.2529 293.255 42.7104 301.484 54.7447L302.539 56.2868L312.579 52.6704C319.498 50.1782 322.603 49.0117 322.569 48.9174C322.489 48.6987 315.809 36.9594 315.748 36.9316C315.718 36.9178 315.392 37.0841 315.023 37.3011C313.504 38.1957 308.26 41.0935 307.968 41.1998C307.757 41.2767 307.587 41.2284 307.454 41.0534C307.066 40.5434 304.098 37.7687 302.748 36.6552C301.339 35.4921 299.731 34.2889 298.518 33.4883C298.138 33.238 297.831 32.9498 297.835 32.8479C297.84 32.7462 298.163 31.805 298.554 30.7565C300.654 25.1221 300.904 24.3471 300.65 24.242C299.903 23.9321 278.347 16.3862 278.204 16.3844C278.11 16.3833 277.333 18.2992 276.478 20.6421L274.922 24.902L272.952 24.7591C270.034 24.5477 266.856 24.605 263.546 24.9288L262.929 24.9891L261.36 20.6771L259.791 16.3653L248.382 20.5178L236.973 24.6703L238.542 28.9821ZM257.075 51.7274C247.419 56.3234 241.178 65.7913 240.891 76.2794C240.868 77.1273 240.884 78.0338 240.926 78.2937L241.002 78.766L243.009 77.9949L245.015 77.2237L245.029 76.3298C245.084 72.7001 246.371 68.2044 248.238 65.1158C251.317 60.0243 255.395 56.6327 260.809 54.6623C268.446 51.8825 276.506 52.9988 283.147 57.7564C284.221 58.5254 286.558 60.6609 287.144 61.4084L287.483 61.8406L289.529 61.0959C290.654 60.6863 291.569 60.3369 291.561 60.3192C291.493 60.1575 290.295 58.7097 289.601 57.9495C285.595 53.5633 279.607 50.3652 273.623 49.4158C271.261 49.0412 269.165 48.9722 266.324 49.1757C263.92 49.348 259.53 50.5591 257.075 51.7274ZM215.253 104.927C215.366 105.235 222.016 116.957 222.101 116.996C222.145 117.016 223.901 116.065 226.004 114.882C228.107 113.7 229.929 112.716 230.053 112.696C230.181 112.676 230.747 113.129 231.367 113.746C233.724 116.094 236.024 118.006 238.741 119.875L240.077 120.793L239.772 121.667C239.604 122.147 239.011 123.797 238.453 125.334C237.145 128.939 237.018 129.349 237.175 129.472C237.397 129.645 259.54 137.415 259.716 137.382C259.86 137.355 260.756 134.985 262.43 130.208L262.892 128.889L264.716 129.013C267.789 129.221 271.198 129.17 274.26 128.87L274.876 128.81L276.446 133.122L278.015 137.433L289.424 133.281L300.833 129.128L299.264 124.817L297.694 120.505L298.145 120.196C298.393 120.026 298.934 119.658 299.347 119.379C300.774 118.414 303.539 116.109 305.257 114.452C306.205 113.538 307.09 112.719 307.223 112.632C307.402 112.516 307.646 112.584 308.143 112.887C308.514 113.114 310.217 114.077 311.926 115.028C313.635 115.978 315.094 116.798 315.167 116.851C315.305 116.95 315.525 116.599 317.623 112.931C318.305 111.739 320.169 108.502 321.766 105.737C327.85 95.2025 327.411 96.03 327.039 95.7967C326.859 95.6835 325.221 94.7457 323.399 93.7126C321.577 92.6795 319.933 91.7425 319.746 91.6301C319.412 91.4299 319.412 91.4003 319.781 90.0573C320.558 87.2251 321.185 83.5874 321.386 80.7527L321.489 79.3009L325.993 78.4494C328.47 77.9811 330.513 77.5651 330.532 77.5252C330.57 77.4451 328.123 64.1778 328.016 63.8843C327.96 63.73 326.416 64.2665 317.927 67.3885L307.903 71.0747L308.036 72.2115C308.91 79.6845 307.612 87.008 304.177 94.0006C297.831 106.916 284.839 115.32 270.247 115.95C257.332 116.507 244.57 110.391 237.065 100.047C236.433 99.175 235.777 98.2451 235.607 97.9807L235.3 97.5L225.244 101.122C216.727 104.19 215.197 104.772 215.253 104.927ZM246.577 93.818C246.913 94.3816 248.637 96.3093 249.645 97.2472C252.429 99.8383 256.062 101.989 259.885 103.307C268.265 106.197 278.269 104.6 285.528 99.2126C291.777 94.5744 295.807 87.7273 296.761 80.1302C296.919 78.8768 297.035 75.3517 296.928 75.0595C296.917 75.0282 295.987 75.3377 294.862 75.7472L292.816 76.4919L292.834 77.0409C292.865 77.9903 292.447 81.1286 292.119 82.4078C291.147 86.1998 289.651 89.1018 287.073 92.2011C283.245 96.8026 277.13 99.9579 270.924 100.533C264.671 101.112 258.077 99.0404 253.409 95.0288C252.431 94.1889 251.057 92.8215 250.513 92.148C250.369 91.9689 250.138 92.0255 248.343 92.6788L246.334 93.41L246.577 93.818Z" stroke="white" opacity="0.1" stroke-width="4" mask="url(#path-1-inside-1_425_6968)"/>
<path opacity="0.1" fill-rule="evenodd" clip-rule="evenodd" d="M122.393 128.078L123.046 129.874L122.834 130.021C121.663 130.825 120.831 131.5 119.805 132.48L119.041 133.21L118.735 133.048C118.567 132.959 117.83 132.55 117.097 132.137C116.364 131.725 115.742 131.396 115.716 131.406C115.689 131.415 115.447 131.81 115.179 132.284C114.91 132.757 114.448 133.561 114.151 134.071C113.855 134.581 113.526 135.149 113.421 135.332C112.03 137.748 111.437 138.78 111.097 139.375L110.69 140.086L110.86 140.186C110.954 140.242 111.667 140.644 112.446 141.081C113.225 141.518 113.897 141.899 113.941 141.929C113.997 141.967 113.987 142.099 113.904 142.384C113.631 143.331 113.413 144.488 113.272 145.734C113.146 146.858 113.103 147.074 113.002 147.113C112.89 147.156 110.447 147.634 109.716 147.756C109.541 147.786 109.392 147.82 109.386 147.833C109.38 147.845 109.565 148.882 109.797 150.137C110.029 151.391 110.257 152.64 110.304 152.912C110.351 153.183 110.401 153.436 110.415 153.474C110.435 153.528 111.294 153.228 114.62 152.005L118.8 150.468L118.769 150.232C118.696 149.667 118.625 148.32 118.64 147.777C118.754 143.667 120.379 139.798 123.242 136.817C125.831 134.121 129.323 132.364 133.04 131.888C139.136 131.107 145.189 133.798 148.618 138.812L149.058 139.455L153.241 137.948C156.124 136.91 157.418 136.423 157.404 136.384C157.371 136.293 154.587 131.402 154.562 131.39C154.549 131.384 154.413 131.454 154.26 131.544C153.627 131.917 151.442 133.124 151.32 133.169C151.232 133.201 151.161 133.18 151.106 133.108C150.944 132.895 149.707 131.739 149.145 131.275C148.558 130.79 147.888 130.289 147.383 129.955C147.224 129.851 147.096 129.731 147.098 129.689C147.1 129.646 147.235 129.254 147.397 128.817C148.273 126.47 148.377 126.147 148.271 126.103C147.959 125.974 138.978 122.83 138.918 122.829C138.879 122.828 138.555 123.627 138.199 124.603L137.551 126.378L136.73 126.318C135.514 126.23 134.19 126.254 132.811 126.389L132.554 126.414L131.9 124.617L131.246 122.821L126.492 124.551L121.739 126.281L122.393 128.078ZM130.115 137.555C126.091 139.47 123.491 143.415 123.371 147.785C123.362 148.138 123.368 148.516 123.386 148.624L123.418 148.821L124.254 148.5L125.09 148.178L125.095 147.806C125.118 146.294 125.654 144.42 126.433 143.134C127.715 141.012 129.415 139.599 131.671 138.778C134.853 137.62 138.211 138.085 140.978 140.067C141.425 140.388 142.399 141.277 142.643 141.589L142.785 141.769L143.637 141.459C144.106 141.288 144.487 141.142 144.484 141.135C144.455 141.068 143.956 140.464 143.667 140.148C141.998 138.32 139.503 136.987 137.01 136.592C136.025 136.436 135.152 136.407 133.968 136.492C132.967 136.564 131.138 137.068 130.115 137.555ZM112.689 159.721C112.736 159.85 115.507 164.734 115.542 164.75C115.56 164.759 116.292 164.362 117.168 163.87C118.045 163.377 118.804 162.967 118.855 162.959C118.909 162.95 119.145 163.139 119.403 163.396C120.385 164.375 121.343 165.171 122.475 165.95L123.032 166.333L122.905 166.696C122.835 166.897 122.588 167.584 122.355 168.225C121.81 169.726 121.758 169.898 121.823 169.949C121.915 170.021 131.142 173.258 131.215 173.244C131.275 173.233 131.648 172.246 132.346 170.255L132.538 169.706L133.298 169.757C134.579 169.844 135.999 169.823 137.275 169.698L137.532 169.673L138.186 171.469L138.84 173.266L143.593 171.536L148.347 169.805L147.693 168.009L147.039 166.212L147.227 166.083C147.331 166.013 147.556 165.86 147.728 165.743C148.323 165.341 149.475 164.381 150.19 163.69C150.585 163.309 150.954 162.968 151.01 162.932C151.084 162.884 151.186 162.912 151.393 163.038C151.548 163.133 152.257 163.534 152.969 163.93C153.681 164.326 154.289 164.668 154.32 164.69C154.377 164.731 154.469 164.585 155.343 163.057C155.627 162.56 156.404 161.211 157.069 160.059C159.604 155.67 159.421 156.014 159.266 155.917C159.191 155.87 158.509 155.479 157.749 155.049C156.99 154.618 156.305 154.228 156.227 154.181C156.088 154.098 156.088 154.085 156.242 153.526C156.566 152.346 156.827 150.83 156.911 149.649L156.954 149.044L158.831 148.689C159.863 148.494 160.714 148.321 160.722 148.304C160.737 148.271 159.718 142.743 159.673 142.62C159.65 142.556 159.007 142.78 155.469 144.081L151.293 145.616L151.348 146.09C151.712 149.204 151.172 152.255 149.74 155.169C147.096 160.55 141.683 164.052 135.603 164.314C130.222 164.547 124.904 161.998 121.777 157.688C121.514 157.325 121.24 156.937 121.17 156.827L121.042 156.627L116.852 158.136C113.303 159.415 112.666 159.657 112.689 159.721ZM125.74 155.093C125.88 155.328 126.599 156.131 127.019 156.522C128.179 157.601 129.693 158.497 131.286 159.047C134.777 160.251 138.945 159.585 141.97 157.341C144.574 155.408 146.253 152.555 146.651 149.39C146.716 148.867 146.764 147.399 146.72 147.277C146.715 147.264 146.328 147.393 145.859 147.563L145.007 147.874L145.014 148.102C145.027 148.498 144.853 149.806 144.716 150.339C144.311 151.919 143.688 153.128 142.614 154.419C141.019 156.336 138.471 157.651 135.885 157.891C133.28 158.132 130.532 157.269 128.587 155.597C128.18 155.247 127.607 154.678 127.381 154.397C127.32 154.322 127.224 154.346 126.476 154.618L125.639 154.923L125.74 155.093Z" fill="white" fill-opacity="0.2"/>
<path opacity="0.1" fill-rule="evenodd" clip-rule="evenodd" d="M252.711 251.926L260.558 273.486L258.004 275.24C243.954 284.891 233.975 292.995 221.658 304.758L212.495 313.508L208.826 311.57C206.807 310.505 197.959 305.586 189.162 300.64C180.365 295.694 172.906 291.742 172.587 291.858C172.268 291.975 169.368 296.716 166.144 302.396C162.921 308.075 157.373 317.729 153.816 323.848C150.259 329.968 146.314 336.774 145.049 338.973C128.362 367.969 121.243 380.354 117.163 387.489L112.283 396.021L114.323 397.23C115.445 397.895 124.008 402.725 133.351 407.964C142.695 413.203 150.768 417.782 151.29 418.139C151.967 418.601 151.84 420.176 150.85 423.605C147.571 434.966 144.951 448.854 143.269 463.797C141.749 477.294 141.241 479.882 140.022 480.348C138.686 480.858 109.369 486.601 100.597 488.07C98.4882 488.423 96.7049 488.834 96.6343 488.983C96.5637 489.131 98.7832 501.574 101.566 516.632C104.349 531.689 107.088 546.675 107.652 549.933C108.216 553.19 108.813 556.225 108.978 556.677C109.218 557.33 119.529 553.728 159.439 539.051L209.599 520.605L209.231 517.776C208.351 510.997 207.5 494.828 207.681 488.317C209.052 439.002 228.546 392.572 262.905 356.791C293.968 324.441 335.872 303.364 380.483 297.65C453.632 288.28 526.274 320.568 567.42 380.739L572.693 388.449L622.893 370.368C657.49 357.906 673.016 352.074 672.844 351.603C672.446 350.509 639.044 291.813 638.741 291.674C638.59 291.605 636.959 292.436 635.116 293.521C627.519 297.994 601.299 312.483 599.839 313.015C598.783 313.399 597.936 313.158 597.271 312.283C595.332 309.732 580.488 295.859 573.741 290.292C566.694 284.476 558.657 278.46 552.59 274.457C550.692 273.206 549.156 271.764 549.177 271.255C549.199 270.747 550.815 266.041 552.77 260.798C563.272 232.626 564.519 228.751 563.25 228.226C559.513 226.676 451.734 188.947 451.02 188.938C450.55 188.932 446.665 198.512 442.388 210.226L434.611 231.526L424.76 230.811C410.171 229.754 394.281 230.041 377.73 231.66L374.647 231.961L366.8 210.401L358.953 188.842L301.908 209.605L244.864 230.367L252.711 251.926ZM345.376 365.653C297.093 388.633 265.888 435.972 264.455 488.412C264.339 492.652 264.418 497.184 264.628 498.484L265.012 500.846L275.044 496.99L285.075 493.134L285.143 488.665C285.42 470.516 291.854 448.038 301.191 432.595C316.585 407.137 336.977 390.179 364.046 380.327C402.232 366.428 442.528 372.01 475.735 395.798C481.103 399.643 492.79 410.32 495.721 414.058L497.415 416.219L507.646 412.495C513.272 410.447 517.845 408.7 517.807 408.611C517.464 407.803 511.474 400.564 508.003 396.763C487.976 374.832 458.036 358.842 428.114 354.095C416.304 352.222 405.824 351.877 391.621 352.894C379.599 353.756 357.65 359.811 345.376 365.653ZM136.267 631.649C136.829 633.192 170.082 691.801 170.506 691.996C170.725 692.097 179.507 687.34 190.021 681.427C200.535 675.514 209.644 670.595 210.264 670.498C210.905 670.397 213.737 672.659 216.836 675.746C228.62 687.487 240.12 697.045 253.705 706.388L260.385 710.982L258.861 715.35C258.022 717.751 255.054 726.003 252.266 733.687C245.725 751.709 245.091 753.762 245.876 754.375C246.986 755.239 357.702 794.092 358.581 793.926C359.299 793.79 363.781 781.941 372.15 758.053L374.459 751.462L383.578 752.08C398.943 753.12 415.989 752.865 431.299 751.366L434.382 751.064L442.229 772.624L450.076 794.183L507.121 773.42L564.165 752.658L556.318 731.099L548.471 709.539L550.726 707.994C551.966 707.144 554.67 705.306 556.735 703.91C563.871 699.086 577.697 687.56 586.284 679.278C591.024 674.706 595.449 670.61 596.117 670.176C597.008 669.597 598.232 669.936 600.713 671.451C602.572 672.587 611.085 677.403 619.632 682.154C628.177 686.904 635.47 691.006 635.837 691.269C636.527 691.764 637.624 690.012 648.115 671.671C651.525 665.711 660.845 649.524 668.828 635.701C699.248 583.028 697.053 587.165 695.194 585.999C694.294 585.433 686.103 580.744 676.993 575.579C667.883 570.413 659.663 565.728 658.728 565.166C657.059 564.165 657.062 564.017 658.904 557.302C662.789 543.141 665.927 524.952 666.931 510.779L667.446 503.52L689.966 499.263C702.352 496.921 712.564 494.841 712.659 494.641C712.849 494.241 700.616 427.905 700.082 426.437C699.801 425.666 692.079 428.348 649.633 443.958L599.515 462.389L600.179 468.073C604.548 505.438 598.062 542.056 580.883 577.019C549.154 641.595 484.194 683.618 411.235 686.765C346.66 689.551 282.851 658.97 245.327 607.252C242.163 602.891 238.883 598.241 238.037 596.919L236.5 594.516L186.218 612.627C143.633 627.966 135.987 630.877 136.267 631.649ZM292.884 576.105C294.563 578.923 303.185 588.562 308.223 593.252C322.143 606.207 340.311 616.959 359.426 623.552C401.327 638.003 451.346 630.016 487.638 603.079C518.883 579.888 539.037 545.652 543.806 507.666C544.593 501.4 545.174 483.774 544.642 482.313C544.585 482.157 539.935 483.704 534.309 485.752L524.079 489.475L524.169 492.22C524.327 496.967 522.237 512.658 520.597 519.055C515.734 538.015 508.257 552.525 495.366 568.021C476.225 591.029 445.648 606.805 414.622 609.68C383.354 612.577 350.385 602.217 327.043 582.16C322.156 577.96 315.285 571.123 312.567 567.756C311.844 566.86 310.688 567.143 301.714 570.41L291.669 574.065L292.884 576.105Z" fill="white" fill-opacity="0.2"/>
<mask id="path-4-inside-2_425_6968" fill="white">
<path fill-rule="evenodd" clip-rule="evenodd" d="M232.711 243.926L240.558 265.486L238.004 267.24C223.954 276.891 213.975 284.995 201.658 296.758L192.495 305.508L188.826 303.57C186.807 302.505 177.959 297.586 169.162 292.64C160.365 287.694 152.906 283.742 152.587 283.858C152.268 283.975 149.368 288.716 146.144 294.396C142.921 300.075 137.373 309.729 133.816 315.848C130.259 321.968 126.314 328.774 125.049 330.973C108.362 359.969 101.243 372.354 97.1628 379.489L92.2825 388.021L94.3231 389.23C95.4448 389.895 104.008 394.725 113.351 399.964C122.695 405.203 130.768 409.782 131.29 410.139C131.967 410.601 131.84 412.176 130.85 415.605C127.571 426.966 124.951 440.854 123.269 455.797C121.749 469.294 121.241 471.882 120.022 472.348C118.686 472.858 89.369 478.601 80.5973 480.07C78.4882 480.423 76.7049 480.834 76.6343 480.983C76.5637 481.131 78.7832 493.574 81.5663 508.632C84.3494 523.689 87.0883 538.675 87.652 541.933C88.2164 545.19 88.8131 548.225 88.9783 548.677C89.2176 549.33 99.5289 545.728 139.439 531.051L189.599 512.605L189.231 509.776C188.351 502.997 187.5 486.828 187.681 480.317C189.052 431.002 208.546 384.572 242.905 348.791C273.968 316.441 315.872 295.364 360.483 289.65C433.632 280.28 506.274 312.568 547.42 372.739L552.693 380.449L602.893 362.368C637.49 349.906 653.016 344.074 652.844 343.603C652.446 342.509 619.044 283.813 618.741 283.674C618.59 283.605 616.959 284.436 615.116 285.521C607.519 289.994 581.299 304.483 579.839 305.015C578.783 305.399 577.936 305.158 577.271 304.283C575.332 301.732 560.488 287.859 553.741 282.292C546.694 276.476 538.657 270.46 532.59 266.457C530.692 265.206 529.156 263.764 529.177 263.255C529.199 262.747 530.815 258.041 532.77 252.798C543.272 224.626 544.519 220.751 543.25 220.226C539.513 218.676 431.734 180.947 431.02 180.938C430.55 180.932 426.665 190.512 422.388 202.226L414.611 223.526L404.76 222.811C390.171 221.754 374.281 222.041 357.73 223.66L354.647 223.961L346.8 202.401L338.953 180.842L281.908 201.605L224.864 222.367L232.711 243.926ZM325.376 357.653C277.093 380.633 245.888 427.972 244.455 480.412C244.339 484.652 244.418 489.184 244.628 490.484L245.012 492.846L255.044 488.99L265.075 485.134L265.143 480.665C265.42 462.516 271.854 440.038 281.191 424.595C296.585 399.137 316.977 382.179 344.046 372.327C382.232 358.428 422.528 364.01 455.735 387.798C461.103 391.643 472.79 402.32 475.721 406.058L477.415 408.219L487.646 404.495C493.272 402.447 497.845 400.7 497.807 400.611C497.464 399.803 491.474 392.564 488.003 388.763C467.976 366.832 438.036 350.842 408.114 346.095C396.304 344.222 385.824 343.877 371.621 344.894C359.599 345.756 337.65 351.811 325.376 357.653ZM116.267 623.649C116.829 625.192 150.082 683.801 150.506 683.996C150.725 684.097 159.507 679.34 170.021 673.427C180.535 667.514 189.644 662.595 190.264 662.498C190.905 662.397 193.737 664.659 196.836 667.746C208.62 679.487 220.12 689.045 233.705 698.388L240.385 702.982L238.861 707.35C238.022 709.751 235.054 718.003 232.266 725.687C225.725 743.709 225.091 745.762 225.876 746.375C226.986 747.239 337.702 786.092 338.581 785.926C339.299 785.79 343.781 773.941 352.15 750.053L354.459 743.462L363.578 744.08C378.943 745.12 395.989 744.865 411.299 743.366L414.382 743.064L422.229 764.624L430.076 786.183L487.121 765.42L544.165 744.658L536.318 723.099L528.471 701.539L530.726 699.994C531.966 699.144 534.67 697.306 536.735 695.91C543.871 691.086 557.697 679.56 566.284 671.278C571.024 666.706 575.449 662.61 576.117 662.176C577.008 661.597 578.232 661.936 580.713 663.451C582.572 664.587 591.085 669.403 599.632 674.154C608.177 678.904 615.47 683.006 615.837 683.269C616.527 683.764 617.624 682.012 628.115 663.671C631.525 657.711 640.845 641.524 648.828 627.701C679.248 575.028 677.053 579.165 675.194 577.999C674.294 577.433 666.103 572.744 656.993 567.579C647.883 562.413 639.663 557.728 638.728 557.166C637.059 556.165 637.062 556.017 638.904 549.302C642.789 535.141 645.927 516.952 646.931 502.779L647.446 495.52L669.966 491.263C682.352 488.921 692.564 486.841 692.659 486.641C692.849 486.241 680.616 419.905 680.082 418.437C679.801 417.666 672.079 420.348 629.633 435.958L579.515 454.389L580.179 460.073C584.548 497.438 578.062 534.056 560.883 569.019C529.154 633.595 464.194 675.618 391.235 678.765C326.66 681.551 262.851 650.97 225.327 599.252C222.163 594.891 218.883 590.241 218.037 588.919L216.5 586.516L166.218 604.627C123.633 619.966 115.987 622.877 116.267 623.649ZM272.884 568.105C274.563 570.923 283.185 580.562 288.223 585.252C302.143 598.207 320.311 608.959 339.426 615.552C381.327 630.003 431.346 622.016 467.638 595.079C498.883 571.888 519.037 537.652 523.806 499.666C524.593 493.4 525.174 475.774 524.642 474.313C524.585 474.157 519.935 475.704 514.309 477.752L504.079 481.475L504.169 484.22C504.327 488.967 502.237 504.658 500.597 511.055C495.734 530.015 488.257 544.525 475.366 560.021C456.225 583.029 425.648 598.805 394.622 601.68C363.354 604.577 330.385 594.217 307.043 574.16C302.156 569.96 295.285 563.123 292.567 559.756C291.844 558.86 290.688 559.143 281.714 562.41L271.669 566.065L272.884 568.105Z"/>
</mask>
<path fill-rule="evenodd" clip-rule="evenodd" d="M232.711 243.926L240.558 265.486L238.004 267.24C223.954 276.891 213.975 284.995 201.658 296.758L192.495 305.508L188.826 303.57C186.807 302.505 177.959 297.586 169.162 292.64C160.365 287.694 152.906 283.742 152.587 283.858C152.268 283.975 149.368 288.716 146.144 294.396C142.921 300.075 137.373 309.729 133.816 315.848C130.259 321.968 126.314 328.774 125.049 330.973C108.362 359.969 101.243 372.354 97.1628 379.489L92.2825 388.021L94.3231 389.23C95.4448 389.895 104.008 394.725 113.351 399.964C122.695 405.203 130.768 409.782 131.29 410.139C131.967 410.601 131.84 412.176 130.85 415.605C127.571 426.966 124.951 440.854 123.269 455.797C121.749 469.294 121.241 471.882 120.022 472.348C118.686 472.858 89.369 478.601 80.5973 480.07C78.4882 480.423 76.7049 480.834 76.6343 480.983C76.5637 481.131 78.7832 493.574 81.5663 508.632C84.3494 523.689 87.0883 538.675 87.652 541.933C88.2164 545.19 88.8131 548.225 88.9783 548.677C89.2176 549.33 99.5289 545.728 139.439 531.051L189.599 512.605L189.231 509.776C188.351 502.997 187.5 486.828 187.681 480.317C189.052 431.002 208.546 384.572 242.905 348.791C273.968 316.441 315.872 295.364 360.483 289.65C433.632 280.28 506.274 312.568 547.42 372.739L552.693 380.449L602.893 362.368C637.49 349.906 653.016 344.074 652.844 343.603C652.446 342.509 619.044 283.813 618.741 283.674C618.59 283.605 616.959 284.436 615.116 285.521C607.519 289.994 581.299 304.483 579.839 305.015C578.783 305.399 577.936 305.158 577.271 304.283C575.332 301.732 560.488 287.859 553.741 282.292C546.694 276.476 538.657 270.46 532.59 266.457C530.692 265.206 529.156 263.764 529.177 263.255C529.199 262.747 530.815 258.041 532.77 252.798C543.272 224.626 544.519 220.751 543.25 220.226C539.513 218.676 431.734 180.947 431.02 180.938C430.55 180.932 426.665 190.512 422.388 202.226L414.611 223.526L404.76 222.811C390.171 221.754 374.281 222.041 357.73 223.66L354.647 223.961L346.8 202.401L338.953 180.842L281.908 201.605L224.864 222.367L232.711 243.926ZM325.376 357.653C277.093 380.633 245.888 427.972 244.455 480.412C244.339 484.652 244.418 489.184 244.628 490.484L245.012 492.846L255.044 488.99L265.075 485.134L265.143 480.665C265.42 462.516 271.854 440.038 281.191 424.595C296.585 399.137 316.977 382.179 344.046 372.327C382.232 358.428 422.528 364.01 455.735 387.798C461.103 391.643 472.79 402.32 475.721 406.058L477.415 408.219L487.646 404.495C493.272 402.447 497.845 400.7 497.807 400.611C497.464 399.803 491.474 392.564 488.003 388.763C467.976 366.832 438.036 350.842 408.114 346.095C396.304 344.222 385.824 343.877 371.621 344.894C359.599 345.756 337.65 351.811 325.376 357.653ZM116.267 623.649C116.829 625.192 150.082 683.801 150.506 683.996C150.725 684.097 159.507 679.34 170.021 673.427C180.535 667.514 189.644 662.595 190.264 662.498C190.905 662.397 193.737 664.659 196.836 667.746C208.62 679.487 220.12 689.045 233.705 698.388L240.385 702.982L238.861 707.35C238.022 709.751 235.054 718.003 232.266 725.687C225.725 743.709 225.091 745.762 225.876 746.375C226.986 747.239 337.702 786.092 338.581 785.926C339.299 785.79 343.781 773.941 352.15 750.053L354.459 743.462L363.578 744.08C378.943 745.12 395.989 744.865 411.299 743.366L414.382 743.064L422.229 764.624L430.076 786.183L487.121 765.42L544.165 744.658L536.318 723.099L528.471 701.539L530.726 699.994C531.966 699.144 534.67 697.306 536.735 695.91C543.871 691.086 557.697 679.56 566.284 671.278C571.024 666.706 575.449 662.61 576.117 662.176C577.008 661.597 578.232 661.936 580.713 663.451C582.572 664.587 591.085 669.403 599.632 674.154C608.177 678.904 615.47 683.006 615.837 683.269C616.527 683.764 617.624 682.012 628.115 663.671C631.525 657.711 640.845 641.524 648.828 627.701C679.248 575.028 677.053 579.165 675.194 577.999C674.294 577.433 666.103 572.744 656.993 567.579C647.883 562.413 639.663 557.728 638.728 557.166C637.059 556.165 637.062 556.017 638.904 549.302C642.789 535.141 645.927 516.952 646.931 502.779L647.446 495.52L669.966 491.263C682.352 488.921 692.564 486.841 692.659 486.641C692.849 486.241 680.616 419.905 680.082 418.437C679.801 417.666 672.079 420.348 629.633 435.958L579.515 454.389L580.179 460.073C584.548 497.438 578.062 534.056 560.883 569.019C529.154 633.595 464.194 675.618 391.235 678.765C326.66 681.551 262.851 650.97 225.327 599.252C222.163 594.891 218.883 590.241 218.037 588.919L216.5 586.516L166.218 604.627C123.633 619.966 115.987 622.877 116.267 623.649ZM272.884 568.105C274.563 570.923 283.185 580.562 288.223 585.252C302.143 598.207 320.311 608.959 339.426 615.552C381.327 630.003 431.346 622.016 467.638 595.079C498.883 571.888 519.037 537.652 523.806 499.666C524.593 493.4 525.174 475.774 524.642 474.313C524.585 474.157 519.935 475.704 514.309 477.752L504.079 481.475L504.169 484.22C504.327 488.967 502.237 504.658 500.597 511.055C495.734 530.015 488.257 544.525 475.366 560.021C456.225 583.029 425.648 598.805 394.622 601.68C363.354 604.577 330.385 594.217 307.043 574.16C302.156 569.96 295.285 563.123 292.567 559.756C291.844 558.86 290.688 559.143 281.714 562.41L271.669 566.065L272.884 568.105Z" stroke="#1C3761" stroke-width="4" mask="url(#path-4-inside-2_425_6968)"/>
</svg>
