<svg width="60" height="63" viewBox="0 0 70 63" fill="none" xmlns="http://www.w3.org/2000/svg">
<path fill-rule="evenodd" clip-rule="evenodd" d="M54.5758 9.68192C50.8738 10.2217 46.2191 11.583 43.068 13.0476C39.6494 14.6366 36.7417 16.6956 34.1747 19.3445C32.7218 20.8438 32.6962 20.86 32.1484 20.6353C30.4172 19.9251 30.0231 19.8328 28.7073 19.831C27.4809 19.829 27.1331 19.9084 26.0674 20.433C24.5696 21.1704 23.1304 22.5689 22.1305 24.2589C20.6444 26.7706 19.6304 31.0231 20.3468 31.7395C20.8076 32.2004 21.2148 32.1258 22.1299 31.4129C22.5812 31.0612 23.3098 30.6467 23.7491 30.4918C24.5014 30.2264 26.5394 30.0987 26.7448 30.3041C26.7965 30.3559 26.4747 31.4543 26.0297 32.7449C25.416 34.5242 25.2425 35.2701 25.3118 35.8299C25.3978 36.5242 25.3628 36.5918 24.7221 36.9644C22.239 38.4094 20.9622 40.8527 20.2344 45.5523C20.0216 46.9265 20.0288 47.0035 20.4079 47.3824C20.7868 47.7616 20.8638 47.7687 22.238 47.556C26.9376 46.8282 29.381 45.5514 30.8259 43.0682C31.1986 42.4276 31.2662 42.3926 31.9605 42.4786C32.5203 42.5478 33.2662 42.3743 35.0455 41.7607C36.336 41.3157 37.4345 40.9938 37.4863 41.0456C37.6916 41.251 37.564 43.2889 37.2985 44.0412C37.1436 44.4806 36.7291 45.2091 36.3775 45.6604C35.6646 46.5756 35.59 46.9827 36.0509 47.4436C36.7673 48.16 41.0198 47.1459 43.5315 45.6599C45.2214 44.66 46.62 43.2208 47.3574 41.7229C47.882 40.6573 47.9614 40.3095 47.9594 39.083C47.9575 37.7672 47.8652 37.3732 47.1551 35.642C46.9304 35.0941 46.9466 35.0685 48.4459 33.6157C52.7866 29.4094 55.586 24.2318 57.2996 17.2412C57.8222 15.1091 58.3962 11.5837 58.3962 10.5063C58.3962 9.35605 57.757 9.21808 54.5758 9.68192ZM54.5278 11.5452C53.2681 11.7493 51.153 12.2069 49.8577 12.5554L48.411 12.9447L51.6051 16.1427L54.7993 19.3406L55.0235 18.6931C55.3974 17.6126 56.1628 13.9856 56.2958 12.6639L56.4207 11.4205L55.7045 11.4456C55.3106 11.4594 54.781 11.5043 54.5278 11.5452ZM45.3172 14.0683C42.7902 15.12 40.5554 16.3778 38.5935 17.8524C35.2947 20.3319 32.0218 24.3182 29.8365 28.518L29.0396 30.0497L33.3802 34.3904L37.7209 38.731L39.2624 37.9461C44.1515 35.4563 48.5066 31.6013 51.2475 27.3367C51.865 26.376 53.3208 23.4815 53.8073 22.2473L54.1805 21.3003L50.3493 17.4657C48.2419 15.3565 46.4757 13.6345 46.4241 13.6388C46.3726 13.6432 45.8745 13.8364 45.3172 14.0683ZM42.7464 19.0794C40.5143 20.0478 39.4063 22.3453 40.0702 24.6291C40.6794 26.7247 42.9639 28.24 45.0017 27.9002C47.9498 27.4083 49.6095 24.7627 48.7997 21.8459C48.5319 20.8814 46.909 19.2585 45.9445 18.9906C44.9411 18.7121 43.5011 18.7521 42.7464 19.0794ZM42.8969 21.082C41.4681 22.0529 41.2963 24.0218 42.5323 25.258C44.267 26.9926 47.1608 25.8132 47.1586 23.3725C47.1568 21.1807 44.6972 19.8588 42.8969 21.082ZM27.5138 21.8067C25.8569 22.3446 24.3741 23.8267 23.254 26.0652C22.5471 27.4774 22.0284 29.1694 22.3429 29.0369C23.5743 28.5184 24.6932 28.3319 26.1564 28.4019L27.7553 28.4784L28.385 27.2919C28.7313 26.6394 29.5713 25.2674 30.2518 24.2432L31.4889 22.381L30.8022 22.0708C29.817 21.6258 28.4174 21.5134 27.5138 21.8067ZM37.9225 28.5257C36.9896 29.4586 36.8268 29.9827 37.3172 30.4732C37.8077 30.9636 38.3318 30.8007 39.2646 29.8679C40.1975 28.9351 40.3603 28.411 39.8699 27.9204C39.3794 27.4301 38.8553 27.5929 37.9225 28.5257ZM34.7537 31.8364C33.9102 32.7685 35.1131 33.9404 36.0015 33.0522C36.3895 32.664 36.3661 32.3115 35.9225 31.8679C35.4651 31.4105 35.1468 31.4018 34.7537 31.8364ZM27.9235 32.835C27.5197 33.9154 27.0848 35.4071 27.0824 35.7199C27.08 36.0393 31.4438 40.4827 31.9034 40.6286C32.2337 40.7334 35.0311 39.9538 35.5541 39.611C35.776 39.4654 35.1064 38.7047 32.1478 35.7409C30.1226 33.712 28.4093 32.0521 28.3408 32.0521C28.2722 32.0521 28.0845 32.4043 27.9235 32.835ZM17.8461 35.6775C16.2238 37.2651 15.9406 37.786 16.433 38.2784C16.9818 38.8272 17.5937 38.5267 19.1267 36.9561C20.0281 36.0327 20.633 35.2601 20.633 35.0324C20.633 34.6751 20.0165 34.0784 19.6473 34.0784C19.5554 34.0784 18.7449 34.7979 17.8461 35.6775ZM43.5471 37.5386C42.5229 38.2191 41.1509 39.0591 40.4985 39.4054L39.312 40.035L39.3884 41.634C39.4584 43.0972 39.272 44.2161 38.7534 45.4475C38.604 45.8023 40.4058 45.206 42.0386 44.3603C43.6958 43.5021 45.0954 42.2015 45.707 40.9517C46.253 39.8363 46.276 38.2097 45.7621 37.0781L45.4093 36.3014L43.5471 37.5386ZM25.0928 38.946C23.7978 39.8993 23.0755 41.1764 22.4797 43.5652C22.0253 45.3882 22.0183 45.6838 22.4291 45.6831C23.1226 45.6822 26.2656 44.7278 27.1425 44.252C28.0259 43.7723 29.6593 41.9062 29.6593 41.3764C29.6593 41.1027 26.6805 38.131 26.406 38.131C26.2927 38.131 25.7016 38.4978 25.0928 38.946ZM14.5983 44.0737C12.2629 46.4117 11.2383 47.5619 11.2383 47.8457C11.2383 48.3938 12.0156 48.9066 12.4694 48.6577C13.0933 48.3157 19.3435 41.8862 19.3435 41.5864C19.3435 41.1635 18.8353 40.71 18.3613 40.71C18.0841 40.71 16.9098 41.7596 14.5983 44.0737ZM30.8342 48.6636C29.2637 50.1966 28.9632 50.8086 29.512 51.3573C30.0044 51.8497 30.5253 51.5666 32.1128 49.9443C32.9924 49.0455 33.712 48.235 33.712 48.1431C33.712 47.7739 33.1153 47.1573 32.7579 47.1573C32.5303 47.1573 31.7577 47.7623 30.8342 48.6636ZM15.2428 51.7166C13.4306 53.5148 11.8651 55.137 11.7642 55.321C11.5142 55.7766 12.0282 56.5521 12.5799 56.5521C13.1485 56.5521 19.712 49.9935 19.712 49.4253C19.712 48.9545 19.2571 48.4468 18.8355 48.4468C18.6717 48.4468 17.0551 49.9183 15.2428 51.7166ZM22.6113 51.7166C20.799 53.5148 19.2336 55.137 19.1326 55.321C18.8827 55.7766 19.3966 56.5521 19.9483 56.5521C20.517 56.5521 27.0804 49.9935 27.0804 49.4253C27.0804 48.9545 26.6256 48.4468 26.2039 48.4468C26.0402 48.4468 24.4235 49.9183 22.6113 51.7166Z" fill="#0F8BFF"/>
</svg>
