<svg width="274" height="307" viewBox="0 0 274 407" fill="none" xmlns="http://www.w3.org/2000/svg">
<path opacity="0.2" fill-rule="evenodd" clip-rule="evenodd" d="M-23.3631 -73.8811V-54.7616L-25.8283 -54.116C-39.3898 -50.5632 -49.373 -47.0609 -62.1897 -41.3608L-71.7239 -37.1201L-74.0128 -39.6833C-75.272 -41.0928 -80.7222 -47.4664 -86.1247 -53.8469C-91.5278 -60.2274 -96.1763 -65.4478 -96.4559 -65.4478C-96.7349 -65.4478 -100.306 -62.5609 -104.392 -59.0325C-108.477 -55.5041 -115.474 -49.5255 -119.941 -45.7471C-124.407 -41.9687 -129.367 -37.7633 -130.962 -36.402C-151.996 -18.4519 -160.974 -10.7825 -166.13 -6.35847L-172.296 -1.06786L-171.06 0.459976C-170.381 1.30047 -165.126 7.52379 -159.384 14.2895C-153.642 21.0551 -148.695 26.9414 -148.392 27.3701C-147.999 27.9246 -148.539 29.1212 -150.267 31.5244C-155.993 39.4867 -161.919 49.6154 -167.418 60.837C-172.385 70.9733 -173.504 72.8556 -174.577 72.873C-175.752 72.8915 -200.003 69.0325 -207.19 67.6827C-208.918 67.3585 -210.41 67.1717 -210.506 67.268C-210.603 67.3643 -212.386 77.7401 -214.469 90.3248C-216.552 102.91 -218.648 115.425 -219.129 118.137C-219.608 120.849 -220.001 123.395 -220 123.796C-219.999 124.376 -211.024 124.494 -176.082 124.376L-132.165 124.227L-131.654 121.907C-130.428 116.348 -126.541 103.444 -124.571 98.3973C-109.653 60.17 -81.551 29.3683 -44.9635 11.1415C-11.8851 -5.337 26.3956 -9.89908 62.4495 -1.65836C121.567 11.8527 168.585 57.8405 183.446 116.687L185.35 124.227L229.195 124.376C259.413 124.479 273.041 124.336 273.041 123.918C273.041 122.948 263.745 67.4646 263.55 67.2691C263.452 67.1723 261.959 67.3585 260.231 67.6827C253.108 69.0203 228.789 72.8933 227.513 72.8933C226.589 72.8933 226.003 72.4629 225.736 71.5882C224.955 69.0383 217.392 53.9437 213.747 47.6613C209.94 41.0986 205.425 34.0969 201.865 29.2332C200.751 27.7117 199.97 26.1456 200.129 25.7529C200.289 25.3608 202.86 22.1363 205.842 18.5882C221.87 -0.479126 223.922 -3.15836 223.09 -3.93156C220.639 -6.20998 148.019 -66.4739 147.47 -66.6845C147.108 -66.8231 141.417 -60.4287 134.821 -52.4745L122.83 -38.0116L115.424 -41.3788C104.456 -46.3648 92.105 -50.6694 78.8701 -54.1189L76.4049 -54.7616V-73.8811V-93H26.5209H-23.3631V-73.8811ZM10.8596 7.57309C7.19084 7.92808 4.25407 8.41357 4.33412 8.65314C4.41417 8.89269 4.47913 9.9072 4.47913 10.9089V12.7297L7.95941 12.4142C11.2227 12.1183 11.4432 12.1763 11.4942 13.3486C11.5238 14.036 11.8504 18.6444 12.2193 23.5893L12.8898 32.58H15.5C17.931 32.58 18.1015 32.4803 17.9855 31.1299C16.7233 16.4339 16.5847 12.3927 17.3277 11.9217C17.7581 11.6491 19.3504 11.4223 20.8654 11.4171C23.7929 11.4078 24.0516 11.0458 23.2552 8.07309C22.848 6.55337 21.8306 6.51218 10.8596 7.57309ZM29.2193 12.949C28.6589 22.1102 28.7576 27.4124 29.5209 29.087C30.5615 31.3712 33.4994 32.8654 37.6381 33.2152C42.1967 33.6009 44.8904 32.4054 46.3939 29.3312C47.3457 27.3857 48.2193 20.6323 48.6752 11.6984L48.8527 8.2181L46.3875 7.88922C45.0319 7.70824 43.9124 7.70824 43.8997 7.88922C43.1091 19.4629 42.1758 26.7442 41.3811 27.5389C40.0215 28.8985 36.609 28.7152 35.0951 27.2007C33.7233 25.8289 33.6236 23.1984 34.5464 12.7639C34.7767 10.1601 34.8707 7.74536 34.7552 7.3985C34.6392 7.05163 33.4315 6.76798 32.0713 6.76798H29.5975L29.2193 12.949ZM-5.09163 10.1932C-6.51334 10.5104 -6.80334 10.8428 -6.67516 12.0099C-6.51796 13.4414 -2.06439 33.7274 -1.62877 34.993C-1.36717 35.7552 3.31903 34.826 3.31903 34.0122C3.31903 33.761 2.14442 28.3765 0.709396 22.047C-0.726212 15.7169 -1.90082 10.3428 -1.90082 10.1032C-1.9014 9.61311 -2.57423 9.63226 -5.09163 10.1932ZM-21.8672 14.9211C-26.308 16.5012 -30.0203 17.8724 -30.1172 17.9687C-30.2135 18.065 -30.0307 19.0917 -29.7111 20.2494L-29.1293 22.355L-25.8654 21.232C-24.0702 20.6143 -22.5336 20.1091 -22.4507 20.1091C-22.3672 20.1091 -20.8173 24.5563 -19.0058 29.9913C-15.4118 40.7744 -15.946 40.1178 -11.9733 38.6328C-10.7552 38.1775 -10.79 38.0087 -14.1073 28.3016L-17.4803 18.4333L-14.7662 17.4669C-13.2732 16.9356 -11.7454 16.4147 -11.3707 16.3098C-10.3109 16.0128 -11.7239 11.9809 -12.8747 12.0186C-13.3793 12.0354 -17.4258 13.3411 -21.8672 14.9211ZM60.9884 12.8109C54.9641 15.4345 51.6044 26.7883 55.0302 32.9478C58.3423 38.9037 67.6815 39.9588 71.7135 34.8335C73.3329 32.7744 73.2408 32.2146 71.0464 30.7923L69.1833 29.5841L67.3602 31.5174C65.0789 33.9356 62.5244 34.1236 60.4275 32.0261C59.0522 30.6514 58.7477 29.2877 58.9994 25.6323C59.29 21.4153 62.7233 16.6288 65.4571 16.6288C67.6491 16.6288 69.9768 18.3126 70.4786 20.2616C70.9159 21.9594 71.1949 22.156 73.3933 22.3173C75.808 22.4948 75.8248 22.4826 75.8248 20.518C75.8248 14.5737 67.2135 10.1003 60.9884 12.8109ZM83.409 21.4142C82.8173 22.7697 80.7158 27.5336 78.739 32C74.0766 42.5325 74.2181 41.8898 76.3202 42.9768C77.2918 43.4797 78.3242 43.891 78.6131 43.891C79.156 43.891 89.4797 21.3695 89.0928 21.0284C88.6781 20.6618 85.1613 18.949 84.8237 18.949C84.6369 18.949 84.0006 20.0586 83.409 21.4142ZM-44.54 24.6711C-45.8184 25.2523 -47.7111 26.6908 -48.7453 27.8689C-50.2546 29.5876 -50.6253 30.5122 -50.6253 32.5557C-50.6253 35.674 -48.6061 38.373 -45.6665 39.1844C-43.8654 39.6815 -38.837 39.0296 -34.9437 37.7941C-33.7993 37.431 -32.0638 38.8805 -32.0638 40.2001C-32.0638 42.9565 -35.9832 45.5168 -38.6502 44.5029C-39.4321 44.2059 -40.243 43.6856 -40.4524 43.3469C-41.0447 42.3886 -42.0632 42.6154 -43.9518 44.1264L-45.6885 45.5163L-44.5331 46.7929C-40.5916 51.1485 -33.7807 50.511 -29.2622 45.3648C-28.2599 44.2233 -27.2715 42.6183 -27.0655 41.7976C-26.2233 38.4402 -29.2529 33.3063 -32.5678 32.4745C-33.3834 32.2697 -35.4959 32.4258 -37.2628 32.8208C-43.4704 34.2088 -45.3445 34.2825 -45.7767 33.1555C-46.3115 31.7622 -45.4049 30.4524 -43.0882 29.2697C-41.2976 28.3561 -41.0272 28.3515 -39.5707 29.2117C-38.0847 30.0899 -37.873 30.0696 -35.9281 28.8678C-33.5307 27.3863 -33.6351 26.4669 -36.395 24.761C-38.7337 23.3161 -41.4895 23.2854 -44.54 24.6711ZM94.3631 28.9855C91.3556 30.5754 87.826 35.4182 86.7547 39.4223C84.3051 48.5818 94.6039 56.9194 103.048 52.6114C110.324 48.8997 113.584 38.0122 109.084 32.4519C105.315 27.7952 99.2947 26.3776 94.3631 28.9855ZM98.0836 32.9205C96.1125 33.4919 92.4304 38.2616 91.7425 41.1357C90.5795 45.993 95.3742 50.1682 99.9293 48.2651C100.988 47.8225 102.652 46.3602 103.626 45.0157C107.466 39.714 107.03 35.4989 102.392 33.1009C100.635 32.192 100.6 32.1908 98.0836 32.9205ZM-61.6769 36.2088L-63.5273 37.8619L-58.8318 43.8886C-56.2488 47.203 -54.2123 49.9919 -54.3063 50.0853C-54.3996 50.1792 -58.0446 48.8237 -62.406 47.0731C-66.7674 45.3231 -70.6844 43.891 -71.1102 43.891C-71.5365 43.891 -72.5081 44.5545 -73.2703 45.3654C-74.4176 46.587 -74.5394 47.0267 -73.9785 47.9246C-72.2245 50.7326 -59.7366 66.2419 -59.1119 66.3875C-58.7233 66.478 -57.7842 65.8915 -57.0261 65.0847L-55.6479 63.6172L-57.3596 61.4397C-58.301 60.2419 -60.4559 57.5 -62.1485 55.3469C-63.8416 53.1937 -65.1386 51.4327 -65.0313 51.4339C-64.924 51.435 -61.1902 52.8701 -56.7337 54.623C-52.2767 56.3753 -48.2071 57.6752 -47.6897 57.511C-47.1717 57.3463 -46.1966 56.6247 -45.5226 55.9072L-44.297 54.6027L-50.7964 46.1758C-54.3712 41.5406 -57.8654 37.0302 -58.5609 36.152L-59.826 34.5551L-61.6769 36.2088ZM16.228 41.5864C-27.5133 45.8202 -64.9142 73.9965 -80.7587 114.653C-82.0394 117.94 -83.2529 121.512 -83.4553 122.589L-83.8231 124.548L-74.993 124.388L-66.1636 124.227L-64.855 120.747C-59.54 106.614 -48.2546 90.8457 -36.7042 81.4142C-17.663 65.866 2.84978 58.3991 26.5209 58.3991C59.9136 58.3991 89.46 74.2547 108.416 102.347C111.481 106.888 117.504 118.58 118.717 122.342L119.418 124.517H128.364C133.284 124.517 137.306 124.452 137.302 124.372C137.265 123.642 134.674 116.266 133.062 112.3C123.761 89.4182 105.136 68.3631 83.3654 56.1178C74.7721 51.2848 66.7767 48.0278 55.5232 44.7761C45.9983 42.0244 27.348 40.5105 16.228 41.5864ZM116.718 47.2111C113.847 50.2651 109.963 54.4333 108.086 56.4745L104.675 60.1856L106.012 61.609C106.748 62.3921 107.668 63.0325 108.058 63.0325C108.448 63.0325 110.941 60.6642 113.599 57.7697C116.256 54.8753 118.497 52.7216 118.579 52.9843C118.661 53.2471 117.853 57.116 116.785 61.5824L114.842 69.703L116.825 71.7332C118.595 73.5435 118.886 73.6613 119.516 72.8196C119.904 72.3005 123.61 68.2929 127.751 63.9136C131.892 59.5348 135.354 55.6409 135.444 55.261C135.535 54.8817 134.918 53.9298 134.074 53.1462L132.54 51.7216L127.095 57.4693C124.099 60.6305 121.648 62.9408 121.648 62.6033C121.648 62.2657 122.549 58.2436 123.65 53.6653L125.651 45.3411L123.795 43.5L121.939 41.6589L116.718 47.2111ZM-81.9002 54.4182L-83.761 56.362L-74.6004 65.2077L-65.4391 74.054L-63.6943 72.3092L-61.9495 70.5644L-70.9948 61.5191L-80.0394 52.4745L-81.9002 54.4182ZM-111.82 131.987C-116.521 133.684 -118.535 134.927 -121.683 138.075C-128.32 144.713 -130.985 155.027 -128.637 164.987C-127.407 170.202 -125.21 174.157 -121.469 177.887C-113.737 185.597 -102.387 187.422 -92.1021 182.608L-88.4252 180.888L-87.7262 182.575C-87.3416 183.503 -86.7981 184.277 -86.518 184.296C-86.2372 184.315 -84.4049 184.346 -82.4455 184.364L-78.8828 184.398L-78.8202 174.789C-78.7778 168.268 -78.5383 164.961 -78.0742 164.497C-77.6989 164.12 -76.4594 163.781 -75.3202 163.741L-73.2488 163.671L-73.2477 159.755L-73.2471 155.84H-86.0081H-98.7691V159.535V163.23L-96.1595 163.524C-94.7239 163.686 -93.1578 164.143 -92.6792 164.541C-91.6694 165.378 -91.4948 170.02 -92.3846 172.36C-93.1595 174.399 -97.0615 176.113 -100.968 176.129C-109.22 176.163 -114.43 168.781 -114.43 157.055C-114.43 146.032 -109.663 139.578 -101.548 139.611C-96.0888 139.634 -91.8886 142.619 -87.9617 149.267L-86.5336 151.685L-83.0806 150.519C-80.8254 149.758 -79.6276 149.037 -79.6276 148.443C-79.6276 147.942 -80.5986 143.92 -81.7854 139.505L-83.9426 131.478H-86.5249C-88.0429 131.478 -89.5162 131.849 -90.1003 132.377C-91 133.191 -91.4258 133.164 -94.623 132.087C-99.2639 130.524 -107.632 130.475 -111.82 131.987ZM-216.519 135.248V139.019H-214.231C-210.266 139.019 -210.212 139.266 -210.156 157.583C-210.127 167.05 -210.346 174.293 -210.689 175.193C-211.198 176.534 -211.592 176.722 -213.894 176.722H-216.519V180.637V184.552H-203.758H-190.997V180.669V176.785L-193.729 176.608C-196.079 176.457 -196.516 176.229 -196.861 174.981C-197.081 174.184 -197.284 166.484 -197.311 157.87C-197.368 139.796 -197.288 139.41 -193.448 139.131L-190.997 138.952V135.215V131.478H-203.758H-216.519V135.248ZM-185.776 135.248V139.019H-183.497C-179.334 139.019 -179.396 138.733 -179.396 158.085C-179.396 170.724 -179.581 175.515 -180.092 176.026C-180.474 176.408 -181.922 176.722 -183.309 176.722H-185.829L-185.658 180.522L-185.486 184.323L-174.755 184.321L-164.024 184.319V180.665V177.012L-166.444 176.835C-167.776 176.738 -169.15 176.314 -169.5 175.893C-169.932 175.372 -170.086 170.63 -169.98 161.082L-169.825 147.037L-160.56 165.65L-151.295 184.262H-145.624H-139.952V162.241C-139.952 141.063 -139.91 140.197 -138.831 139.619C-138.213 139.289 -136.908 139.019 -135.93 139.019H-134.152V135.248V131.478H-144.883H-155.614V135.248V139.019L-153.439 139.027C-149.53 139.044 -149.543 139.006 -149.342 150.452C-149.223 157.248 -149.357 160.573 -149.734 160.19C-150.05 159.871 -153.455 153.28 -157.302 145.544L-164.297 131.478H-175.037H-185.776V135.248ZM-69.7668 135.248V139.019H-67.4878C-63.3295 139.019 -63.3863 138.756 -63.3863 157.87C-63.3863 177.002 -63.3248 176.722 -67.5145 176.722H-69.8196L-69.6485 180.521L-69.4768 184.32L-47.1607 184.278C-34.8869 184.255 -24.6723 184.046 -24.4611 183.814C-24.1705 183.494 -19.9315 171.619 -17.8509 165.296C-17.6595 164.715 -22.9861 162.215 -24.4002 162.223C-24.627 162.224 -25.3213 163.463 -25.942 164.978C-26.5626 166.492 -28.4165 169.079 -30.0615 170.728C-33.8132 174.488 -37.0545 175.561 -44.6572 175.561H-50.08L-49.9176 168.166L-49.7552 160.77L-46.877 160.875C-43.4837 160.998 -42.7598 161.736 -42.2262 165.616L-41.8515 168.342L-38.5528 168.258L-35.254 168.173V156.931V145.689L-38.5116 145.517C-41.7535 145.347 -41.7709 145.354 -42.1369 147.185C-42.3393 148.197 -42.5046 149.635 -42.5046 150.382C-42.5046 152.122 -44.0679 152.94 -47.3967 152.94H-50.0452V146.486V140.032L-43.4704 140.284C-37.7053 140.505 -36.5806 140.721 -34.3341 142.037C-31.2546 143.842 -30.2639 144.9 -28.5522 148.209C-27.116 150.987 -26.5238 151.079 -22.0974 149.216L-19.9623 148.317L-21.2546 144.973C-21.9652 143.133 -23.3144 139.345 -24.2523 136.553L-25.9576 131.478H-47.8625H-69.7668V135.248ZM-14.6624 135.248V139.019H-12.3556C-8.26102 139.019 -8.2059 139.293 -8.40138 158.699C-8.59047 177.434 -8.42284 176.696 -12.4872 176.713L-14.6624 176.722V180.492C-14.6624 183.45 -14.4751 184.266 -13.7923 184.277C-13.3138 184.285 -8.41936 184.299 -2.91646 184.307L7.08934 184.322V180.667V177.012L4.77669 176.823C3.50465 176.72 2.134 176.361 1.73145 176.027C1.17577 175.566 1.00755 171.966 1.03366 161.135L1.06902 146.849L10.4913 165.649L19.9136 184.449L25.272 184.426L30.6305 184.403L30.7506 162.669C30.8852 138.466 30.7924 139.019 34.7123 139.019H36.9617V135.248V131.478H26.2309H15.5V135.248V139.019H17.7042C18.9165 139.019 20.2216 139.332 20.6044 139.715C21.0969 140.207 21.2866 143.391 21.2535 150.59L21.2065 160.77L13.9745 146.124L6.74246 131.478H-3.95998H-14.6624V135.248ZM41.6021 135.248V139.019H43.8515C47.7187 139.019 47.6926 138.889 47.6926 158.202C47.6926 167.697 47.4861 175.672 47.2332 175.925C46.9803 176.177 45.554 176.525 44.0627 176.698L41.3521 177.012L41.4194 180.202C41.4559 181.957 41.5122 183.653 41.5441 183.972C41.5807 184.344 46.1346 184.505 54.2176 184.42L66.8341 184.288L67.0058 180.505L67.1769 176.722H64.8718C60.5911 176.722 60.6584 177.044 60.8573 157.485C61.0528 138.26 60.8788 139.044 64.949 139.027L67.1241 139.019V135.248V131.478H54.3631H41.6021V135.248ZM72.3446 135.241V139.019H74.6514C78.7291 139.019 78.7813 139.278 78.5963 158.685C78.4177 177.436 78.5847 176.696 74.5197 176.713L72.3446 176.722V180.637V184.552L94.7599 184.42C107.089 184.347 117.3 184.164 117.452 184.012C117.911 183.552 123.969 166.209 123.969 165.353C123.969 164.915 123.005 164.154 121.827 163.661C117.502 161.854 117.452 161.871 115.618 165.712C113.537 170.073 109.776 173.513 105.797 174.694C101.673 175.919 92.3144 175.885 91.8382 174.644C91.6444 174.139 91.4861 170.894 91.4861 167.433C91.4861 160.307 91.6868 160.02 96.1479 160.774C98.8846 161.236 99.2054 161.661 99.5963 165.331L99.8968 168.151L103.259 168.203L106.621 168.256V156.973V145.689H103.259H99.8968L99.5876 148.767C99.221 152.416 98.6108 152.919 94.5313 152.931L91.4861 152.94V146.559V140.179L96.5615 140.204C106.213 140.252 109.98 141.968 113.189 147.781L114.984 151.034L118.316 149.844C120.494 149.067 121.633 148.342 121.604 147.752C121.58 147.255 120.337 143.456 118.842 139.309L116.124 131.768L94.2338 131.616L72.3446 131.464V135.241ZM126.987 135.358L127.159 139.239L129.588 139.362C130.923 139.429 132.294 139.657 132.633 139.866C133.59 140.458 133.479 175.229 132.517 176.027C132.114 176.361 130.744 176.72 129.472 176.823L127.159 177.012V180.637C127.159 182.631 127.354 184.262 127.594 184.262C127.834 184.262 133.653 184.262 140.528 184.262H153.026L152.854 180.637L152.681 177.012L150.368 176.823C146.729 176.527 146.591 176.224 146.591 168.53V161.64L148.476 161.643C150.245 161.646 150.824 162.274 157.901 171.865C162.049 177.486 165.834 182.588 166.312 183.203C167.1 184.215 167.983 184.323 175.593 184.332L184.004 184.343V180.677C184.004 177.026 183.997 177.011 182.263 176.853C178.567 176.515 177.831 175.947 171.52 168.56C165.478 161.49 165.135 160.956 166.403 160.626C167.15 160.431 169.328 159.45 171.242 158.446C181.316 153.163 181.755 140.225 172.064 134.234C168.226 131.861 164.484 131.485 144.679 131.481L126.816 131.478L126.987 135.358ZM186.614 135.248V139.019H188.863C192.731 139.019 192.704 138.882 192.704 158.27C192.704 177.506 192.876 176.696 188.789 176.713L186.614 176.722L186.613 180.637L186.613 184.552L199.374 184.386L212.136 184.219V180.47V176.722L209.961 176.713C205.896 176.696 206.064 177.434 205.875 158.699C205.679 139.293 205.734 139.019 209.829 139.019H212.136V135.248V131.478H199.375H186.614V135.248ZM235.65 132.474C235.426 133.043 232.901 139.642 230.038 147.139C218.669 176.914 218.762 176.722 215.654 176.722C214.566 176.722 214.456 177.068 214.456 180.492V184.262L222.577 184.31C227.043 184.337 231.658 184.381 232.833 184.407C234.865 184.453 234.966 184.367 234.916 182.619C234.887 181.608 234.839 179.868 234.81 178.752C234.76 176.843 234.641 176.722 232.798 176.722C229.683 176.722 229.31 175.715 230.838 171.43L232.158 167.731L239.806 167.631L247.454 167.531L248.7 171.277C250.126 175.561 249.784 176.539 246.751 176.833L244.908 177.012V180.661V184.31L257.234 184.431L269.56 184.552V180.637C269.56 176.926 269.49 176.722 268.211 176.722C267.469 176.722 266.325 176.134 265.669 175.416C265.013 174.699 260.813 164.584 256.336 152.94L248.195 131.768L242.126 131.604C236.752 131.459 236.01 131.559 235.65 132.474ZM147.026 140.495C146.786 140.747 146.591 143.78 146.591 147.236V153.52H152.669C156.771 153.52 159.469 153.231 160.965 152.633C165.887 150.663 166.621 144.302 162.224 141.705C160.417 140.637 147.843 139.637 147.026 140.495ZM237.476 153.085C236.286 156.355 235.318 159.226 235.325 159.465C235.332 159.705 237.454 159.9 240.04 159.9C243.554 159.9 244.677 159.717 244.482 159.175C244.339 158.777 243.332 155.905 242.245 152.796C241.158 149.686 240.126 147.141 239.954 147.14C239.781 147.14 238.666 149.814 237.476 153.085ZM-219.999 190.283C-219.999 191.651 -210.794 247.024 -210.521 247.298C-210.38 247.439 -202.262 246.218 -192.481 244.584C-182.701 242.95 -174.285 241.694 -173.779 241.795C-173.256 241.898 -171.704 244.477 -170.179 247.777C-164.379 260.33 -158.186 271.093 -150.321 282.281L-146.455 287.783L-148.859 290.768C-150.182 292.41 -154.792 298.026 -159.105 303.248C-169.221 315.496 -170.288 316.923 -169.853 317.627C-169.24 318.62 -94.6671 380.601 -93.9414 380.721C-93.3486 380.819 -86.5574 372.818 -73.3817 356.498L-69.7459 351.994L-62.8782 355.077C-51.3062 360.271 -38.0719 364.93 -25.8283 368.119L-23.3631 368.762V387.881V407H26.5209H76.4049V387.881V368.762L78.58 368.194C79.7767 367.882 82.3811 367.214 84.3678 366.709C91.2338 364.965 105.15 359.88 114.108 355.842C119.053 353.613 123.621 351.667 124.259 351.517C125.11 351.318 125.959 351.932 127.449 353.825C128.566 355.245 133.786 361.443 139.05 367.599C144.314 373.754 148.792 379.045 149.001 379.356C149.395 379.94 150.734 378.881 163.991 367.508C168.298 363.813 180.045 353.794 190.094 345.245C228.387 312.668 225.529 315.282 224.422 313.839C223.886 313.139 218.879 307.133 213.296 300.491C207.713 293.85 202.683 287.838 202.118 287.132C201.111 285.872 201.155 285.757 204.465 281.024C211.444 271.042 218.98 257.693 223.738 246.88L226.176 241.343L244.762 244.427C254.984 246.124 263.454 247.406 263.584 247.277C263.843 247.017 273.041 191.584 273.041 190.283C273.041 189.599 266.324 189.498 229.161 189.624L185.281 189.773L184.197 194.413C177.068 224.918 161.769 251.744 138.677 274.226C96.0278 315.751 34.0563 330.143 -23.1653 311.813C-73.8121 295.59 -114.489 253.456 -128.929 202.262C-130.146 197.945 -131.372 193.369 -131.654 192.093L-132.165 189.773L-176.082 189.624C-213.277 189.498 -219.999 189.599 -219.999 190.283ZM-83.4524 191.426C-82.9484 194.111 -78.9994 204.117 -76.4269 209.225C-69.3196 223.338 -58.3121 236.935 -45.4049 247.546C-17.1114 270.805 23.7564 278.807 59.3515 268.057C89.9959 258.802 115.18 237.737 129.539 209.35C131.907 204.667 137.31 191.031 137.31 189.735C137.31 189.596 133.284 189.483 128.364 189.483H119.418L118.717 191.658C117.504 195.42 111.481 207.112 108.416 211.653C99.3329 225.114 89.4815 234.346 75.1717 242.806C53.9252 255.368 25.8805 259.007 1.11487 252.415C-23.8439 245.772 -46.3904 228.263 -58.7772 205.903C-61.3706 201.222 -64.7546 193.91 -65.9072 190.498C-66.2135 189.59 -67.1856 189.483 -75.0336 189.483H-83.8173L-83.4524 191.426ZM-91.2285 198.957C-92.0261 199.303 -95.2889 200.795 -98.4791 202.271C-101.669 203.749 -105.976 205.697 -108.05 206.602C-110.124 207.506 -112.018 208.412 -112.26 208.614C-112.502 208.817 -111.237 212.23 -109.448 216.199C-107.66 220.168 -105.963 224.011 -105.68 224.739C-105.176 226.032 -105.119 226.04 -103.272 225.1C-102.231 224.571 -101.301 224.071 -101.205 223.99C-101.11 223.908 -102.215 221.152 -103.661 217.866C-105.107 214.58 -106.229 211.841 -106.155 211.779C-105.049 210.861 -100.836 209.233 -100.498 209.592C-100.249 209.857 -99.221 212.032 -98.214 214.425C-97.2065 216.817 -96.1508 219.008 -95.8677 219.293C-95.5655 219.599 -94.6038 219.502 -93.5365 219.06C-91.449 218.195 -91.4333 218.345 -94.2947 211.75L-96.3358 207.045L-94.3428 206.095C-93.2465 205.571 -92.221 205.144 -92.0644 205.144C-91.8028 205.144 -88.3376 212.375 -87.1328 215.434C-86.6717 216.605 -86.46 216.667 -85.0093 216.049C-82.4698 214.97 -82.2993 214.629 -83.2651 212.573C-83.7616 211.518 -85.3724 207.927 -86.8451 204.595C-88.3179 201.262 -89.5806 198.488 -89.6508 198.432C-89.721 198.374 -90.431 198.611 -91.2285 198.957ZM139.926 204.758L138.971 207.258L143.506 211.621C152.499 220.275 158.327 225.43 158.792 225.143C159.053 224.981 159.575 223.914 159.952 222.771C160.611 220.777 160.554 220.607 158.524 218.529L156.411 216.364L158.014 212.229L159.617 208.094L162.798 207.924C165.89 207.759 166.002 207.693 166.809 205.566C167.266 204.363 167.537 203.288 167.411 203.178C167.285 203.068 161.265 202.816 154.031 202.618L140.881 202.258L139.926 204.758ZM149.45 210.444L152.599 213.381L153.592 210.857C154.138 209.47 154.467 208.139 154.324 207.899C154.18 207.66 152.316 207.474 150.182 207.486L146.3 207.508L149.45 210.444ZM-92.2227 223.753L-102.765 230.727L-100.458 234.322C-96.6241 240.298 -94.4785 242.559 -91.9124 243.327C-84.8034 245.457 -74.4072 237.922 -74.4072 230.641C-74.4072 228.371 -74.92 227.124 -77.6398 222.779C-79.4176 219.939 -81.0545 217.427 -81.2767 217.197C-81.4988 216.968 -86.4246 219.918 -92.2227 223.753ZM134.671 219.271C133.698 219.711 132.26 220.834 131.476 221.766C129.697 223.881 124.893 231.784 125.2 232.09C125.822 232.713 145.633 245.167 146 245.167C146.976 245.167 152.126 236.51 153.035 233.342C155.146 225.984 142.037 215.94 134.671 219.271ZM-89.3289 228.174L-95.8399 232.566L-94.8393 234.284C-92.728 237.91 -91.3277 238.955 -89.0702 238.588C-86.1085 238.107 -80.9414 234.508 -79.8109 232.137C-78.8985 230.224 -78.92 230.065 -80.5035 226.934C-81.4026 225.158 -82.2906 223.723 -82.478 223.744C-82.6647 223.764 -85.7477 225.758 -89.3289 228.174ZM135.179 225.096C134.277 225.861 133.092 227.257 132.544 228.198L131.548 229.909L138.334 234.303L145.118 238.697L146.715 235.987C147.593 234.496 148.316 232.592 148.321 231.755C148.338 229.064 141.376 223.705 137.864 223.705C137.289 223.705 136.081 224.331 135.179 225.096ZM-76.0296 240.613C-83.779 248.22 -84.9118 249.738 -84.9507 252.564C-84.9884 255.285 -83.8544 257.633 -81.2645 260.195C-77.7297 263.692 -73.5719 264.202 -70.232 261.548C-66.6665 258.714 -57.0058 249.443 -57.0058 248.854C-57.0058 248.541 -57.7309 247.59 -58.6166 246.741L-60.2274 245.198L-67.0684 251.563C-71.9501 256.106 -74.3202 257.928 -75.3445 257.928C-77.3637 257.928 -79.6276 255.486 -79.6276 253.308C-79.6276 251.81 -78.5864 250.52 -72.9014 244.981L-66.1752 238.427L-67.7326 236.577C-68.5893 235.559 -69.4623 234.731 -69.6734 234.738C-69.8846 234.744 -72.7448 237.388 -76.0296 240.613ZM117.309 240.516C115.898 241.988 115.745 242.441 116.281 243.561C124.082 259.889 126.703 265.314 127.097 265.951C127.468 266.549 127.956 266.36 129.253 265.118C131.231 263.222 131.291 262.651 129.814 259.756L128.699 257.57L131.733 254.205L134.766 250.84L137.776 251.91L140.787 252.979L142.644 251.122C143.665 250.1 144.384 249.177 144.241 249.07C143.523 248.535 120.112 238.756 119.582 238.77C119.242 238.779 118.22 239.565 117.309 240.516ZM122.809 245.506C122.809 245.657 123.611 247.371 124.593 249.315L126.377 252.85L128.364 250.923C129.457 249.864 130.155 248.824 129.915 248.611C129.231 248.006 122.809 245.199 122.809 245.506ZM109.907 248.343L108.317 249.744L111.502 257.94C113.255 262.449 114.688 266.373 114.688 266.661C114.688 266.949 111.286 264.941 107.128 262.2L99.569 257.216L97.2674 258.811C96.0017 259.689 94.9664 260.472 94.9664 260.552C94.9664 260.826 116.944 274.749 117.376 274.749C118.117 274.749 121.64 272.165 121.644 271.62C121.647 271.231 115.689 254.511 113.097 247.632C112.69 246.554 111.687 246.778 109.907 248.343ZM-55.9687 254.56C-58.8637 255.33 -62.7726 258.88 -64.7738 262.556C-66.2204 265.214 -66.3857 266.034 -66.1862 269.564C-65.9809 273.194 -65.7749 273.755 -63.9484 275.655C-61.3057 278.404 -59.3237 279.39 -56.4362 279.39C-53.9484 279.39 -50.4576 278.207 -49.7981 277.139C-49.5841 276.793 -50.0278 275.6 -50.7836 274.487C-52.029 272.655 -52.2645 272.539 -53.2912 273.259C-55.9205 275.1 -59.4588 274.396 -60.8219 271.76C-62.0104 269.462 -61.5986 267.322 -59.3335 264.03C-55.9356 259.091 -52.192 257.796 -49.0708 260.481C-47.7546 261.613 -47.4634 262.323 -47.5145 264.274C-47.5696 266.378 -47.3648 266.785 -45.859 267.564C-43.6404 268.711 -42.7575 268.329 -42.2958 266.02C-41.384 261.461 -44.9681 256.037 -49.8625 254.571C-52.5348 253.77 -52.9953 253.77 -55.9687 254.56ZM92.3562 261.756C91.7181 262.247 90.8498 262.847 90.4269 263.091C89.8562 263.42 91.4055 266.252 96.4333 274.072C100.16 279.868 103.508 284.609 103.873 284.607C104.238 284.606 105.271 284.017 106.168 283.299L107.8 281.994L100.948 271.43C97.1798 265.62 93.9658 260.866 93.8063 260.866C93.6468 260.865 92.9942 261.266 92.3562 261.756ZM-41.6346 275.444C-46.739 280.276 -50.9971 284.43 -51.0974 284.676C-51.1978 284.923 -50.2842 285.641 -49.0673 286.273L-46.855 287.421L-44.6839 285.322L-42.5122 283.222L-38.402 285.211L-34.2923 287.199L-34.4832 290.389L-34.674 293.58L-32.4362 294.64C-31.2053 295.222 -30.0928 295.593 -29.9634 295.464C-29.703 295.204 -27.4263 272.434 -27.4246 270.071C-27.4234 268.939 -27.913 268.35 -29.4733 267.606C-30.6009 267.068 -31.71 266.636 -31.9385 266.644C-32.167 266.654 -36.5302 270.613 -41.6346 275.444ZM77.2918 270.067C73.7912 271.631 70.8486 273.147 70.7518 273.437C70.5667 273.992 79.6746 294.986 80.4687 295.835C81.029 296.434 85.1056 295.046 85.1056 294.256C85.1056 293.947 84.2895 291.923 83.2924 289.76C82.2953 287.597 81.6346 285.422 81.8243 284.929C82.5157 283.126 85.6955 283.89 90.4229 286.994L94.9374 289.958L97.5598 288.879C99.0023 288.286 100.183 287.613 100.184 287.383C100.187 286.803 92.0783 281.392 90.4211 280.868L89.0667 280.44L90.2993 279.128C94.0522 275.133 90.5923 267.199 85.1056 267.218C84.308 267.221 80.7918 268.503 77.2918 270.067ZM-22.6409 273.911C-23.3242 276.137 -23.0504 276.398 -18.9402 277.43C-18.1311 277.633 -17.3509 278.107 -17.2065 278.483C-17.062 278.86 -18.388 283.372 -20.1531 288.511C-21.9188 293.65 -23.3631 297.965 -23.3631 298.101C-23.3631 298.414 -18.6636 299.836 -18.4553 299.586C-18.3706 299.485 -16.9252 295.225 -15.2436 290.121C-13.5621 285.016 -12.0853 280.66 -11.9617 280.44C-11.8382 280.22 -10.2645 280.548 -8.4646 281.167C-6.66414 281.787 -5.14211 282.227 -5.08235 282.147C-4.49651 281.357 -3.819 278.189 -4.18733 277.961C-4.97968 277.471 -20.8672 271.849 -21.4582 271.849C-21.761 271.849 -22.2929 272.777 -22.6409 273.911ZM80.0122 273.888L76.9484 275.28L77.8672 277.48C78.3724 278.69 79.0017 279.897 79.2662 280.162C79.5308 280.427 81.279 279.89 83.1514 278.969C85.8306 277.65 86.5934 276.977 86.7321 275.805C86.9293 274.143 85.5389 272.411 84.0493 272.463C83.5134 272.481 81.6967 273.122 80.0122 273.888ZM-35.9919 276.696L-38.9692 279.787L-36.6386 281.097C-35.3567 281.818 -34.1473 282.247 -33.9513 282.05C-33.5679 281.667 -32.5464 274.073 -32.8387 273.781C-32.9356 273.684 -34.3544 274.996 -35.9919 276.696ZM58.1682 277.086C54.7558 277.972 51.8208 278.838 51.6468 279.013C51.362 279.298 57.5064 303.028 57.9901 303.512C58.1015 303.623 59.1578 303.418 60.3382 303.056C62.7645 302.311 62.844 301.955 61.6137 297.371C61.1427 295.617 60.7541 293.893 60.7506 293.542C60.7466 293.191 62.4159 292.451 64.4594 291.897C68.3579 290.842 70.1073 289.488 71.1589 286.714C72.2871 283.735 70.7141 278.603 68.1688 276.961C65.7993 275.433 64.4814 275.449 58.1682 277.086ZM-2.19894 279.016C-2.35846 279.7 -3.64674 285.219 -5.06264 291.281C-6.47853 297.342 -7.45589 302.477 -7.23431 302.691C-7.01273 302.906 -5.87877 303.256 -4.71346 303.47L-2.59511 303.86L-1.03188 296.99C-0.172241 293.212 1.02785 288.062 1.63515 285.546C3.16589 279.201 3.14095 279.053 0.414734 278.361C-1.72563 277.818 -1.93271 277.869 -2.19894 279.016ZM3.90315 280.064C3.91301 281.787 9.03018 305.052 9.49248 305.472C9.76567 305.722 11.0337 306.055 12.3098 306.214L14.6299 306.502L19.9675 295.121C22.9032 288.861 25.4762 283.283 25.6851 282.725C26.0145 281.845 25.6908 281.712 23.2477 281.721L20.4304 281.732L17.0012 289.575C15.1154 293.889 13.3846 297.535 13.1549 297.677C12.9246 297.819 11.9977 294.144 11.0946 289.512C10.1915 284.879 9.31207 280.868 9.14096 280.6C8.96985 280.332 7.71985 279.926 6.36429 279.7C4.4861 279.386 3.90025 279.473 3.90315 280.064ZM59.8736 281.338C58.5975 281.723 57.5772 282.16 57.6056 282.309C57.6346 282.458 57.989 283.959 58.3933 285.644C59.2048 289.027 59.3312 289.06 63.6439 287.02C66.2506 285.788 66.797 282.939 64.7077 281.476C63.1815 280.407 62.9826 280.401 59.8736 281.338ZM26.0934 294.022C23.8144 301.113 22.0522 307.017 22.1781 307.143C22.304 307.269 23.5824 307.195 25.0192 306.98C27.5395 306.602 27.6584 306.492 28.3991 303.865L29.1665 301.142L33.8469 300.974L38.5273 300.807L39.5325 303.44C40.5366 306.068 40.5424 306.072 43.3817 306.072H46.2256L45.1288 303.317C43.8614 300.133 37.4513 285.088 36.355 282.725C35.7042 281.321 35.2941 281.13 32.9264 281.13H30.2378L26.0934 294.022ZM31.9594 292.081L30.743 296.211H33.6015C36.8405 296.211 36.8254 296.314 34.4084 290.776L33.1758 287.951L31.9594 292.081Z" fill="white" fill-opacity="0.3"/>
</svg>
