<svg width="91" height="90" viewBox="0 0 91 90" fill="none" xmlns="http://www.w3.org/2000/svg">
<rect x="0.5" width="90" height="90" rx="45" fill="#F4F6F9"/>
<path fill-rule="evenodd" clip-rule="evenodd" d="M32.3845 25.1266C31.1132 25.4684 30.1075 26.5476 29.8752 27.8192C29.8229 28.1057 29.8031 34.0245 29.8167 45.2801L29.8372 62.3076L30.0183 62.7561C30.3849 63.6637 31.1374 64.4162 32.045 64.7828L32.4934 64.9639L41.041 64.9851C46.6164 64.9989 49.7403 64.9785 50.0253 64.9264C51.069 64.7357 51.9992 64.002 52.4777 62.9919L52.7278 62.4639L52.7669 58.6777L52.806 54.8915L53.1185 54.8232C57.1353 53.9442 60.1411 50.9651 60.9775 47.0342C61.2042 45.9688 61.2252 44.2053 61.0233 43.1896C60.2395 39.2469 57.3824 36.2396 53.5091 35.2807L52.806 35.1066L52.7669 31.3243L52.7278 27.542L52.4777 27.0139C52.0025 26.0108 51.0738 25.2742 50.0414 25.0814C49.7748 25.0317 46.5391 25.0048 41.2133 25.0081C34.1241 25.0124 32.7399 25.031 32.3845 25.1266ZM32.4565 26.3881C32.2477 26.4621 31.9466 26.6724 31.7085 26.9104C30.982 27.637 31.0481 25.826 31.0481 45.0029C31.0481 64.1768 30.9823 62.3692 31.7071 63.0939C32.4147 63.8015 31.7031 63.7529 41.355 63.7528L49.8372 63.7528L50.3093 63.5295C50.8273 63.2844 51.1423 62.9632 51.3925 62.4248C51.5495 62.087 51.5569 61.9348 51.5792 58.5381L51.6024 55.0029H51.2111H50.8199L50.7973 58.5049L50.7747 62.0068L50.5547 62.3391C50.4163 62.5481 50.2134 62.7265 50.0078 62.8199C49.6933 62.9626 49.3642 62.9683 41.2825 62.9698C31.8678 62.9716 32.6034 63.0175 32.1084 62.398L31.8684 62.0978L31.8462 45.2105C31.8339 35.9225 31.8445 28.2082 31.8695 28.0677C31.9263 27.7503 32.3296 27.28 32.6655 27.1397C32.8586 27.059 33.4659 27.0343 35.2449 27.035C37.5298 27.0357 37.5788 27.039 37.9703 27.2214C38.2572 27.355 38.4703 27.5386 38.7299 27.8759C38.9283 28.1337 39.1998 28.4365 39.3331 28.5488L39.5757 28.7529H41.3911H43.2064L43.4049 28.5381C43.514 28.42 43.7102 28.165 43.8409 27.9717C44.4648 27.0484 44.5184 27.0342 47.3769 27.0342C49.5281 27.0342 49.7507 27.0467 50.0161 27.1821C50.1755 27.2635 50.3708 27.4018 50.4501 27.4894C50.7881 27.8632 50.8067 28.0765 50.8103 31.624L50.8138 35.0029H51.2074H51.601L51.5785 31.4678C51.5568 28.0633 51.5499 27.9195 51.3914 27.5771C51.1629 27.0832 50.8167 26.7125 50.3718 26.4853L49.9935 26.292L41.3997 26.2781C33.7309 26.2657 32.7684 26.2775 32.4565 26.3881ZM33.0794 45.0033V61.7224L41.302 61.7025L49.5247 61.6826L49.545 58.2836L49.5654 54.8846L48.92 54.7418C48.0556 54.5504 46.7971 54.0444 46.07 53.5958L45.4766 53.2296L43.6596 54.1163C42.6602 54.6039 41.7741 55.0029 41.6903 55.0029C41.4221 55.0029 41.1263 54.7048 41.1263 54.4346C41.1263 54.3001 41.4467 53.2649 41.8383 52.1341L42.5503 50.0781L42.2695 49.5436C41.9011 48.8427 41.4761 47.5591 41.3252 46.6919C41.1704 45.8028 41.1704 44.2031 41.3252 43.3139C41.4675 42.496 41.8769 41.2314 42.2244 40.5364C43.2493 38.4861 45.1426 36.7058 47.2402 35.8199C48.0049 35.4969 49.1207 35.1592 49.4231 35.1592C49.5589 35.1592 49.5645 35.0033 49.5451 31.7412L49.5247 28.3232L47.4544 28.3013C46.3157 28.2893 45.3088 28.2977 45.2169 28.3202C45.1249 28.3426 44.9397 28.5323 44.8054 28.7417C44.4633 29.2747 44.0455 29.6849 43.6717 29.8547C43.3893 29.9829 43.1331 29.9997 41.4331 30.0012C39.8817 30.0026 39.4437 29.9792 39.1496 29.8789C38.7701 29.7496 38.2725 29.3167 37.7434 28.6553L37.4466 28.2842H35.263H33.0794V45.0033ZM49.7918 36.3318C49.0731 36.4535 48.1798 36.7391 47.4752 37.0724C44.3386 38.5563 42.4276 41.561 42.4314 45.0029C42.4331 46.5372 42.6998 47.6153 43.4491 49.1166L43.884 49.9881L43.3536 51.5211C43.062 52.3643 42.8388 53.0696 42.8576 53.0885C42.8765 53.1073 43.4702 52.8414 44.177 52.4976C45.1072 52.0452 45.5136 51.8852 45.6483 51.9184C45.7506 51.9436 46.0451 52.1073 46.3027 52.2823C46.9941 52.7518 48.1285 53.2643 48.9952 53.4987C49.6861 53.6856 49.8934 53.7055 51.1653 53.7075C52.3735 53.7093 52.6637 53.6852 53.2254 53.5363C56.5297 52.6605 58.9296 50.2488 59.7274 47.0021C59.9538 46.0811 60.007 44.5342 59.8444 43.6044C59.1924 39.8758 56.3617 37.006 52.7075 36.3688C52.012 36.2475 50.4102 36.2272 49.7918 36.3318ZM48.0515 39.8998C47.8227 39.9624 47.0022 40.4619 46.7174 40.7119C46.1117 41.2438 45.8985 42.4272 46.1975 43.5981C46.4197 44.4678 47.0953 45.8435 47.6842 46.625C49.1763 48.605 51.6647 50.0843 53.5481 50.1108C54.3945 50.1227 54.8642 49.9849 55.3076 49.5945C55.8074 49.1546 56.2825 48.315 56.2825 47.8719C56.2825 47.2592 56.0884 47.0792 54.6228 46.3329L53.3202 45.6696L52.9875 45.7855C52.685 45.8908 52.4899 46.088 52.2241 46.5568C52.1752 46.6429 52.0841 46.612 51.7811 46.4064C51.2881 46.0716 50.1343 44.9171 49.7985 44.4225L49.5369 44.0373L49.7261 43.9162C49.8302 43.8496 50.0295 43.6836 50.1692 43.5475C50.5909 43.1362 50.5397 42.8474 49.7948 41.4327C49.405 40.6926 49.0882 40.1875 48.9538 40.0918C48.723 39.9274 48.2885 39.835 48.0515 39.8998ZM47.845 41.4079C47.416 41.6915 47.3063 41.9258 47.3017 42.5673C47.2922 43.8914 48.466 45.9873 49.8866 47.1832C50.9867 48.1092 52.4403 48.7999 53.4695 48.8857C54.1567 48.943 54.4877 48.8003 54.7963 48.3135L55.0311 47.9432L54.2701 47.53C53.8516 47.3028 53.4698 47.1158 53.4218 47.1146C53.3738 47.1133 53.2421 47.2519 53.1292 47.4226C52.6929 48.0818 52.1666 48.1218 51.3092 47.5605C49.8087 46.5783 48.2356 44.7254 48.2356 43.9403C48.2356 43.4778 48.3822 43.2882 49.0838 42.8426C49.1212 42.8188 48.2852 41.1755 48.2356 41.1755C48.2142 41.1755 48.0384 41.28 47.845 41.4079ZM38.9743 59.6478C38.7196 59.9025 38.7234 60.2326 38.9839 60.4776C39.1805 60.6625 39.2215 60.6676 40.6831 60.6915C42.3436 60.7187 42.6274 60.6893 42.8494 60.4673C43.0523 60.2644 43.05 59.8173 42.845 59.6123C42.698 59.4653 42.5846 59.4561 40.9274 59.4561H39.166L38.9743 59.6478Z" fill="#858DA2"/>
</svg>
