<svg width="90" height="90" viewBox="0 0 90 90" fill="none" xmlns="http://www.w3.org/2000/svg">
<rect width="90" height="90" rx="45" fill="#F4F6F9"/>
<g clip-path="url(#clip0_639_2774)">
<path fill-rule="evenodd" clip-rule="evenodd" d="M43.6079 25.0859C40.6798 25.426 37.8421 27.0831 36.0106 29.5223C35.0165 30.8462 34.3407 32.3435 33.9679 34.0474C33.7446 35.0688 33.7251 37.2794 33.9306 38.3015C34.3877 40.5754 35.4286 42.5393 37.0286 44.1464C38.5278 45.6522 40.1266 46.5789 42.1455 47.1122L42.815 47.289L43.7318 48.2951C44.6397 49.2913 44.835 49.4334 45.176 49.3462C45.2727 49.3214 45.7656 48.8456 46.2714 48.2888C46.9777 47.5113 47.2495 47.2641 47.4432 47.223C48.0364 47.0972 49.2318 46.677 49.8914 46.3622C52.1189 45.2996 54.1147 43.2958 55.1533 41.0793C55.9061 39.4732 56.2129 38.0556 56.2075 36.2101C56.2018 34.3085 55.8483 32.7989 55.0327 31.1937C52.8743 26.9457 48.3625 24.5337 43.6079 25.0859ZM43.9064 26.2979C42.2834 26.5045 40.7293 27.0851 39.3752 27.9908C38.6224 28.4944 37.2454 29.8714 36.7418 30.6242C35.999 31.7347 35.4735 32.9756 35.1867 34.2961C34.9867 35.2169 34.9847 37.273 35.183 38.1842C35.7695 40.8794 37.2139 43.0362 39.4466 44.5503C40.4675 45.2427 41.4756 45.6595 43.1643 46.0875C43.4173 46.1516 43.6173 46.3194 44.2157 46.9697C44.6222 47.4113 44.9752 47.7726 45.0002 47.7726C45.0252 47.7726 45.3782 47.4113 45.7846 46.9697C46.3831 46.3194 46.5831 46.1516 46.8361 46.0875C48.4785 45.6712 49.5304 45.2431 50.4786 44.6051C51.1628 44.1447 51.3479 43.9901 52.0945 43.2552C53.4392 41.9315 54.3896 40.1648 54.8126 38.2023C55.0128 37.2738 55.0128 35.2246 54.8126 34.2961C54.3758 32.2698 53.5091 30.6808 52.0389 29.2105C50.5947 27.7664 49.0758 26.9236 47.1096 26.4753C46.4574 26.3266 44.5226 26.2194 43.9064 26.2979ZM42.067 33.316C41.9461 33.4369 41.8752 33.597 41.8752 33.7492C41.8752 33.9014 41.9461 34.0615 42.067 34.1824L42.2587 34.3742H46.2502H50.2417L50.4334 34.1824C50.5543 34.0615 50.6252 33.9014 50.6252 33.7492C50.6252 33.597 50.5543 33.4369 50.4334 33.316L50.2417 33.1242H46.2502H42.2587L42.067 33.316ZM39.567 35.816C39.4461 35.9369 39.3752 36.097 39.3752 36.2492C39.3752 36.4014 39.4461 36.5615 39.567 36.6824L39.7587 36.8742H45.0002H50.2417L50.4334 36.6824C50.6872 36.4287 50.6872 36.0697 50.4334 35.816L50.2417 35.6242H45.0002H39.7587L39.567 35.816ZM39.567 38.316C39.4461 38.4369 39.3752 38.597 39.3752 38.7492C39.3752 38.9014 39.4461 39.0615 39.567 39.1824L39.7587 39.3742H43.7502H47.7417L47.9334 39.1824C48.0543 39.0615 48.1252 38.9014 48.1252 38.7492C48.1252 38.597 48.0543 38.4369 47.9334 38.316L47.7417 38.1242H43.7502H39.7587L39.567 38.316ZM30.0002 43.8513C29.6168 43.9722 28.9628 44.6494 28.8452 45.0473C28.7079 45.5122 28.7079 63.2362 28.8452 63.7011C28.972 64.1302 29.6192 64.7774 30.0483 64.9042C30.5155 65.0422 59.4849 65.0422 59.9521 64.9042C60.3812 64.7774 61.0284 64.1302 61.1552 63.7011C61.2925 63.2362 61.2925 45.5122 61.1552 45.0473C61.0284 44.6182 60.3812 43.971 59.9521 43.8442C59.7318 43.7791 58.9123 43.7492 57.3509 43.7492H55.0712L54.8795 43.941C54.6257 44.1947 54.6257 44.5537 54.8795 44.8074L55.0712 44.9992H56.9593H58.8475L51.9632 50.507C48.177 53.5363 45.0436 56.0148 45.0002 56.0148C44.9568 56.0148 41.8234 53.5363 38.0371 50.507L31.1529 44.9992H33.0411H34.9292L35.1209 44.8074C35.2418 44.6865 35.3127 44.5264 35.3127 44.3742C35.3127 44.222 35.2418 44.0619 35.1209 43.941L34.9292 43.7492L32.6014 43.7572C31.1444 43.7622 30.1714 43.7974 30.0002 43.8513ZM30.0002 54.3742C30.0002 61.3157 30.0199 63.0498 30.0979 62.9887C30.1516 62.9467 32.314 61.2197 34.9033 59.1511C39.0905 55.8058 39.6412 55.3898 39.8838 55.3898C40.2343 55.3898 40.4693 55.6179 40.4678 55.9562C40.4671 56.0959 40.4407 56.2506 40.4092 56.3001C40.3776 56.3495 38.2819 58.0458 35.7522 60.0696L31.1526 63.7492H45.0002H58.8478L54.2482 60.0696C51.7185 58.0458 49.6228 56.3495 49.5912 56.3001C49.5597 56.2506 49.5333 56.0958 49.5326 55.9562C49.5311 55.618 49.7661 55.3898 50.1163 55.3898C50.3585 55.3898 50.9182 55.8133 55.1749 59.2175L59.9611 63.0451L59.9813 58.7097C59.9925 56.3251 59.9925 52.423 59.9813 50.0383L59.9611 45.7024L52.5881 51.6008C46.8409 56.1985 45.1675 57.4992 45 57.4992C44.8325 57.4992 43.174 56.2114 37.4902 51.6676C33.4782 48.4601 30.1516 45.8015 30.0979 45.7595C30.0199 45.6986 30.0002 47.4328 30.0002 54.3742Z" fill="#858DA2"/>
</g>
<defs>
<clipPath id="clip0_639_2774">
<rect width="40" height="40" fill="white" transform="translate(25 25)"/>
</clipPath>
</defs>
</svg>
