<svg width="91" height="90" viewBox="0 0 91 90" fill="none" xmlns="http://www.w3.org/2000/svg">
<rect x="0.5" width="90" height="90" rx="45" fill="#F4F6F9"/>
<path fill-rule="evenodd" clip-rule="evenodd" d="M43.459 27.1131C42.5966 27.2698 41.9244 27.4763 41.2183 27.8018C38.4723 29.0674 36.5523 31.4624 35.9511 34.3719C35.5779 36.1779 35.8554 38.5684 36.5944 39.9132C36.7532 40.2021 37.3318 41.1482 37.8803 42.0156L38.8775 43.5928L35.6353 43.6357C32.8599 43.6724 32.0928 43.7188 32.0928 43.8497C32.0928 43.8629 30.7219 47.8198 29.0464 52.6426C27.3709 57.4655 26 61.48 26 61.5637C26 61.6475 26.0706 61.7799 26.157 61.858C26.302 61.9892 27.7383 62 45.079 62C63.7298 62 63.8452 61.999 64.0158 61.8284C64.1102 61.734 64.1874 61.6209 64.1874 61.577C64.1874 61.5332 62.8159 57.546 61.1396 52.7167C58.9692 46.4644 58.0399 43.8928 57.912 43.7859C57.7479 43.6487 57.4539 43.6357 54.5238 43.6357C52.7591 43.6357 51.3153 43.6116 51.3153 43.5821C51.3153 43.5526 51.6971 42.9251 52.1639 42.1876C53.7969 39.6072 53.9233 39.3482 54.2416 37.9287C54.4049 37.2008 54.3892 35.0891 54.215 34.3209C53.6263 31.7254 52.045 29.5741 49.7149 28.1987C48.9433 27.7432 47.6648 27.2828 46.7085 27.1161C45.8279 26.9625 44.2956 26.9611 43.459 27.1131ZM43.8923 27.9932C42.7754 28.1486 41.3349 28.713 40.3208 29.3926C39.526 29.9252 38.3875 31.125 37.8956 31.9484C37.4323 32.724 36.9542 34.0247 36.8172 34.8826C36.6919 35.6671 36.7054 36.901 36.8474 37.6426C37.078 38.8473 37.2972 39.3089 38.6727 41.4846C40.9868 45.1449 45.0786 51.5316 45.0954 51.5093C45.1631 51.4186 51.0671 42.1519 51.8183 40.9573C52.344 40.1213 52.8501 39.2331 52.9429 38.9835C54.5117 34.7663 52.2696 30.0112 47.9732 28.4432C46.7953 28.0133 45.0953 27.8258 43.8923 27.9932ZM43.6272 29.6895C41.5557 30.1402 39.6872 31.6897 38.8853 33.6219C37.3123 37.4118 39.4602 41.593 43.5055 42.616C44.5424 42.8782 46.1631 42.8198 47.1533 42.4844C49.3502 41.7404 51.002 40.0038 51.5854 37.8249C51.8335 36.8983 51.8335 35.4414 51.5854 34.5147C50.9601 32.1791 49.0311 30.3002 46.6813 29.7379C45.8276 29.5336 44.4443 29.5117 43.6272 29.6895ZM43.6105 30.6738C40.9595 31.3918 39.1603 33.8492 39.335 36.5131C39.4143 37.7213 39.8434 38.8164 40.597 39.7333C41.9705 41.4044 44.3107 42.1945 46.4238 41.7007C47.266 41.5039 48.3034 40.9531 48.9528 40.3581C50.2049 39.2108 50.8176 37.8346 50.8176 36.1698C50.8176 34.62 50.2781 33.3261 49.1715 32.2224C47.9998 31.0536 46.9338 30.5941 45.2654 30.5387C44.431 30.511 44.117 30.5366 43.6105 30.6738ZM32.8208 44.6869C32.7993 44.746 32.5174 45.5546 32.1944 46.4839L31.607 48.1736L35.949 50.2383C38.337 51.3739 40.3326 52.303 40.3837 52.303C40.4349 52.303 40.8537 51.5075 41.3147 50.5351C42.0978 48.8836 42.1452 48.753 42.0365 48.5498C41.9725 48.4302 41.8423 48.2814 41.7471 48.219C41.652 48.1567 39.905 47.3123 37.865 46.3426L34.1558 44.5797H33.5078C33.0674 44.5797 32.8473 44.614 32.8208 44.6869ZM36.6024 44.6568C36.7259 44.7737 40.6969 46.6451 40.7368 46.6053C40.7559 46.5862 40.5276 46.1816 40.2295 45.7061C39.5356 44.5995 39.4925 44.5797 37.7806 44.5797C37.0316 44.5797 36.5539 44.611 36.6024 44.6568ZM49.6058 46.2168C49.0332 47.1174 48.5561 47.8882 48.5455 47.93C48.5248 48.012 50.0027 48.7527 50.0642 48.6912C50.1095 48.6459 52.0018 44.6652 52.0018 44.6152C52.0018 44.5956 51.697 44.5797 51.3244 44.5797H50.6469L49.6058 46.2168ZM52.2136 46.4461C50.6552 49.7016 50.6184 49.7677 50.345 49.7991C50.1847 49.8174 49.7456 49.6534 49.0331 49.309L47.9622 48.7913L47.6567 49.2687C47.4886 49.5313 47.3839 49.7762 47.4238 49.8128C47.4638 49.8494 49.2191 50.6971 51.3245 51.6967C53.4298 52.6963 55.1965 53.5583 55.2505 53.6122C55.3044 53.6662 55.3486 53.8045 55.3486 53.9196C55.3486 54.0348 54.6296 55.6393 53.7509 57.4852C52.8721 59.3312 52.1342 60.8898 52.1112 60.9488C52.0799 61.0288 52.2316 61.056 52.7069 61.056H53.3446L54.84 57.9089C55.6625 56.1779 56.4058 54.6719 56.4919 54.5621C56.5778 54.4524 56.7147 54.3625 56.796 54.3625C56.8772 54.3625 57.946 54.8406 59.1711 55.4249C60.3962 56.0092 61.4061 56.4811 61.4155 56.4734C61.4249 56.4657 61.3091 56.1188 61.158 55.7023L60.8836 54.9451L56.3788 52.8015C53.9013 51.6225 51.8455 50.6129 51.8106 50.5579C51.7756 50.5029 51.7469 50.3807 51.7468 50.2863C51.7468 50.1919 52.3255 48.9009 53.0328 47.4174C53.74 45.9338 54.3188 44.6885 54.3188 44.6499C54.3188 44.6112 54.0461 44.5797 53.7129 44.5797H53.107L52.2136 46.4461ZM55.1386 45.2018C54.9814 45.544 54.4037 46.7663 53.855 47.9179C53.3063 49.0696 52.879 50.0351 52.9054 50.0633C53.0112 50.1762 60.3703 53.6444 60.3922 53.5917C60.4051 53.5606 59.7197 51.5352 58.869 49.0908C58.0183 46.6463 57.3223 44.6314 57.3223 44.613C57.3223 44.5947 56.8953 44.5797 56.3734 44.5797H55.4246L55.1386 45.2018ZM31.0964 49.6449C30.9766 49.9866 30.9457 50.1809 31.005 50.2176C31.0543 50.2481 33.1053 51.229 35.5627 52.3973C38.8801 53.9745 40.0621 54.575 40.1526 54.7294C40.2674 54.9254 40.2052 55.0832 39.0749 57.4599C38.1886 59.3237 37.8206 60.0126 37.6658 60.0983C37.4696 60.2067 37.1823 60.0838 33.1807 58.1784C30.8149 57.052 28.8744 56.1764 28.8362 56.2181C28.7506 56.3114 28.4599 57.1945 28.5013 57.2351C28.518 57.2514 30.3264 58.1177 32.5203 59.1603L36.509 61.056H37.5835H38.6581L41.0841 55.9512L43.5102 50.8463L43.1465 50.2704L42.7827 49.6945L41.9366 51.4493C41.0923 53.2002 40.9116 53.5044 40.7155 53.5044C40.6583 53.5044 38.5371 52.5196 36.0016 51.3161C33.466 50.1125 31.3659 49.1278 31.3346 49.1278C31.3032 49.1278 31.196 49.3606 31.0964 49.6449ZM46.0952 51.7051C45.7041 52.3125 45.3107 52.8328 45.2207 52.8613C44.9744 52.9395 44.7584 52.7834 44.4518 52.3056C44.2994 52.0682 44.1498 51.8748 44.1194 51.876C44.0784 51.8777 39.92 60.5345 39.7444 60.9836C39.7285 61.0243 42.242 61.0474 45.3638 61.0352L51.0119 61.0131L52.6164 57.6664C53.4989 55.8256 54.2236 54.2778 54.227 54.2268C54.2302 54.1758 52.5821 53.3487 50.5644 52.389C48.5467 51.4292 46.8757 50.6342 46.851 50.6223C46.8263 50.6104 46.4862 51.0977 46.0952 51.7051ZM29.8827 53.1358C29.4939 54.2546 29.2047 55.1965 29.2399 55.2291C29.345 55.3262 37.102 58.9965 37.2022 58.9965C37.2743 58.9965 39.0078 55.4744 39.0716 55.1983C39.0826 55.1506 30.716 51.1016 30.6065 51.1016C30.5971 51.1016 30.2713 52.0169 29.8827 53.1358ZM56.5311 56.5722C56.2442 57.174 55.6532 58.4194 55.2177 59.3398L54.4259 61.0131L58.6765 61.0354C61.0145 61.0476 62.9442 61.0407 62.965 61.0199C63.0011 60.9838 61.9799 57.9694 61.877 57.8082C61.8336 57.7403 60.674 57.177 57.8525 55.8533L57.0526 55.478L56.5311 56.5722ZM28.1011 58.2486C28.081 58.3059 27.8536 58.9611 27.5957 59.7045L27.127 61.056H30.654C32.5938 61.056 34.1591 61.0342 34.1323 61.0074C34.0816 60.9567 29.3874 58.703 28.592 58.3475C28.266 58.2018 28.1273 58.1738 28.1011 58.2486Z" fill="#858DA2"/>
</svg>
