<svg width="50" height="40" viewBox="0 0 50 40" fill="none" xmlns="http://www.w3.org/2000/svg">
<g clip-path="url(#clip0_543_7256)">
<path d="M0 5.4375H20C25.5228 5.4375 30 9.91465 30 15.4375V35.4375H10C4.47715 35.4375 0 30.9603 0 25.4375V5.4375Z" fill="#1C3761" fill-opacity="0.2"/>
<path fill-rule="evenodd" clip-rule="evenodd" d="M17.5588 0.129025C15.3889 0.654276 13.8447 2.80161 14.0335 5.03126C14.1129 5.96961 14.4839 6.90505 15.0411 7.57203C15.2049 7.76791 15.3387 7.95455 15.3387 7.9868C15.3387 8.01896 15.1045 8.08636 14.818 8.13661C13.6578 8.33999 12.4941 8.99589 11.6207 9.93874C11.0029 10.6054 10.6406 11.2137 10.3091 12.1401L10.0479 12.87L10.0239 19.8904L10 26.9108L10.2076 27.1185L10.4153 27.3261H13.0109C15.4475 27.3261 15.6031 27.335 15.5506 27.4718C15.2358 28.2923 15.2956 29.2846 15.7107 30.1264C16.0651 30.8451 16.5621 31.3261 17.3234 31.6867C17.8268 31.9251 17.9558 31.9504 18.6716 31.9504C19.3874 31.9504 19.5163 31.9251 20.0197 31.6867C20.781 31.3261 21.278 30.8451 21.6324 30.1264C22.0475 29.2846 22.1074 28.2923 21.7925 27.4718C21.74 27.335 21.8956 27.3261 24.3322 27.3261H26.9279L27.1323 27.1216L27.3369 26.9171V24.3214C27.3369 21.8849 27.3458 21.7292 27.4825 21.7817C28.256 22.0785 29.2722 22.0341 30.0515 21.6694C30.791 21.3234 31.2788 20.8415 31.65 20.0906C31.9437 19.4963 31.9612 19.4163 31.9612 18.6651C31.9612 17.9444 31.9362 17.8167 31.6974 17.3127C31.3368 16.5514 30.8559 16.0544 30.1372 15.6999C29.2954 15.2848 28.3031 15.225 27.4825 15.5399C27.3486 15.5913 27.3369 15.5114 27.3369 14.5527C27.3369 12.8245 27.0096 11.6456 26.2287 10.5606C25.2908 9.25726 23.7999 8.29583 22.4364 8.11494C22.1988 8.08345 22.0044 8.02987 22.0044 7.99596C22.0044 7.96205 22.1492 7.75125 22.3262 7.52762C23.451 6.10651 23.6368 4.27504 22.8268 2.59322C21.8962 0.660692 19.668 -0.381562 17.5588 0.129025ZM41.5012 0.115027C39.2823 0.581288 37.443 2.30718 36.8762 4.45468C36.5685 5.62067 36.6459 7.01953 37.0824 8.17968C37.4609 9.18569 38.489 10.4507 39.3903 11.0194C39.5811 11.1398 39.7968 11.3233 39.8694 11.427C40.0405 11.6712 40.0424 11.9952 39.8728 11.9952C39.802 11.9952 39.652 12.0872 39.5396 12.1997C39.3367 12.4025 39.335 12.4171 39.335 13.9949C39.335 15.5726 39.3367 15.5872 39.5396 15.79C39.7074 15.958 39.8266 15.9945 40.2061 15.9945H40.6681V16.464C40.6681 16.7222 40.7122 17.0805 40.7661 17.2604C40.8858 17.6598 41.4052 18.2674 41.7485 18.4097L42.0012 18.5144V19.6291C42.0012 20.5157 41.9779 20.7438 41.8874 20.7438C41.6144 20.7438 40.5807 21.3545 40.2543 21.7087C39.4077 22.6271 39.1161 24.0582 39.5469 25.1808C39.5991 25.3168 39.4757 25.3264 37.6738 25.3264H35.7446L35.5402 25.531L35.3356 25.7354V27.6646C35.3356 29.4665 35.326 29.5899 35.19 29.5377C34.4165 29.2409 33.4003 29.2853 32.621 29.65C31.8815 29.996 31.3937 30.4779 31.0225 31.2288C30.7285 31.8237 30.7113 31.9025 30.7113 32.6586C30.7113 33.4147 30.7285 33.4935 31.0225 34.0884C31.3937 34.8393 31.8815 35.3212 32.621 35.6672C33.4003 36.0319 34.4165 36.0763 35.19 35.7795C35.326 35.7273 35.3356 35.8507 35.3356 37.6527V39.5818L35.5402 39.7862L35.7446 39.9908H38.4564C41.0453 39.9908 41.1755 39.9834 41.3326 39.8262C41.66 39.4989 41.6026 38.983 41.202 38.6516C40.976 38.4647 40.6699 37.7319 40.669 37.3759C40.6662 36.2936 41.6104 35.3249 42.6678 35.3249C43.4718 35.3249 44.3655 35.9975 44.5791 36.7633C44.7567 37.4002 44.5379 38.3157 44.1265 38.6572C43.7328 38.984 43.6782 39.5014 44.003 39.8262C44.1602 39.9834 44.2903 39.9908 46.8792 39.9908H49.591L49.7954 39.7862L50 39.5818V32.6586V25.7354L49.7954 25.531L49.591 25.3264H47.6619C45.8599 25.3264 45.7365 25.3168 45.7887 25.1808C46.2195 24.0582 45.928 22.6271 45.0814 21.7087C44.7549 21.3545 43.7212 20.7438 43.4482 20.7438C43.3576 20.7438 43.3344 20.5149 43.3344 19.6246C43.3344 18.5667 43.3438 18.5024 43.5065 18.4507C43.8151 18.3528 44.2731 17.8794 44.4716 17.4532C44.6093 17.1574 44.6661 16.8846 44.6667 16.5153L44.6675 15.9945H45.1295C45.509 15.9945 45.6282 15.958 45.7961 15.79C45.999 15.5872 46.0006 15.5726 46.0006 13.9949C46.0006 12.4171 45.999 12.4025 45.7961 12.1997C45.6836 12.0872 45.5336 11.9952 45.4628 11.9952C45.2932 11.9952 45.2952 11.6712 45.4662 11.427C45.5389 11.3233 45.7545 11.1398 45.9453 11.0194C46.8467 10.4507 47.8747 9.18569 48.2533 8.17968C48.5486 7.39447 48.6928 6.4547 48.6392 5.66283C48.5338 4.10332 47.9996 2.90967 46.92 1.82168C46.1242 1.01972 45.4375 0.591869 44.4315 0.271336C43.634 0.0172923 42.304 -0.0536966 41.5012 0.115027ZM17.8898 1.41749C17.3626 1.54997 16.6122 1.99407 16.2479 2.38925C16.0609 2.59222 15.7891 3.00882 15.6441 3.31486C15.4053 3.81886 15.3804 3.94659 15.3804 4.66732C15.3804 5.41845 15.3979 5.49852 15.6916 6.09276C16.0664 6.85114 16.5488 7.32348 17.3234 7.69043C17.8268 7.92889 17.9558 7.95414 18.6716 7.95414C19.3874 7.95414 19.5163 7.92889 20.0197 7.69043C20.7943 7.32348 21.2767 6.85114 21.6515 6.09276C21.9455 5.49785 21.9627 5.41911 21.9627 4.66298C21.9627 3.90685 21.9455 3.82811 21.6515 3.23321C21.0885 2.09397 20.0883 1.42549 18.8589 1.367C18.5038 1.35008 18.0677 1.37283 17.8898 1.41749ZM41.7929 1.40932C40.3213 1.72719 39.1242 2.65046 38.507 3.94351C38.3292 4.31629 38.1427 4.82004 38.0927 5.06284C37.7385 6.78465 38.4657 8.6856 39.8669 9.70078C40.9965 10.5192 41.2172 10.8074 41.3093 11.5842L41.3579 11.9952H41.6796H42.0012V9.53347V7.07169L42.2058 6.86722C42.3347 6.73824 42.5055 6.66267 42.6678 6.66267C42.8301 6.66267 43.0009 6.73824 43.1298 6.86722L43.3344 7.07169V9.53347V11.9952H43.6561H43.9777L44.0263 11.5842C44.1136 10.8477 44.3845 10.4619 45.2011 9.91183C46.0641 9.33042 46.7563 8.42431 47.0983 7.42838C47.3506 6.69392 47.3682 5.35404 47.1349 4.66298C46.4649 2.67921 44.8773 1.45098 42.8761 1.36833C42.4637 1.35125 41.9763 1.36975 41.7929 1.40932ZM24.0041 3.99642V4.66298H24.6706H25.3372V3.99642V3.32986H24.6706H24.0041V3.99642ZM26.6703 3.99642V4.66298H27.3369H28.0034V3.99642V3.32986H27.3369H26.6703V3.99642ZM29.3366 3.99642V4.66298H30.0031H30.6697V3.99642V3.32986H30.0031H29.3366V3.99642ZM32.0028 3.99642V4.66298H32.6694H33.3359V3.99642V3.32986H32.6694H32.0028V3.99642ZM34.6691 3.99642V4.66298H35.3356H36.0022V3.99642V3.32986H35.3356H34.6691V3.99642ZM42.2058 3.53441C42.0271 3.71305 42.0012 3.81353 42.0012 4.3297C42.0012 4.84587 42.0271 4.94636 42.2058 5.12499C42.3347 5.25397 42.5055 5.32955 42.6678 5.32955C42.8301 5.32955 43.0009 5.25397 43.1298 5.12499C43.3085 4.94636 43.3344 4.84587 43.3344 4.3297C43.3344 3.81353 43.3085 3.71305 43.1298 3.53441C43.0009 3.40543 42.8301 3.32986 42.6678 3.32986C42.5055 3.32986 42.3347 3.40543 42.2058 3.53441ZM15.0471 9.42524C14.3173 9.5613 13.3247 10.1147 12.7127 10.7268C12.0813 11.3582 11.5753 12.2989 11.4284 13.1145C11.3705 13.4362 11.3394 15.7709 11.3394 19.801V25.993H14.2556C17.0481 25.993 17.1788 26 17.3364 26.1575C17.6637 26.4849 17.6063 27.0007 17.2057 27.3322C16.9797 27.5191 16.6736 28.2519 16.6727 28.6079C16.67 29.6902 17.6141 30.6589 18.6716 30.6589C19.4755 30.6589 20.3693 29.9863 20.5828 29.2205C20.7605 28.5836 20.5417 27.6681 20.1303 27.3266C19.7366 26.9998 19.6819 26.4824 20.0068 26.1575C20.1643 26 20.295 25.993 23.0875 25.993H26.0037V23.1253C26.0037 21.548 26.0271 20.1968 26.0555 20.1227C26.1299 19.9288 26.5723 19.7222 26.794 19.7779C26.8979 19.8039 27.1587 19.9705 27.3735 20.148C28.2541 20.8757 29.2512 20.8348 30.0476 20.0384C30.8906 19.1955 30.8906 18.1261 30.0476 17.2832C29.2512 16.4868 28.2541 16.4459 27.3735 17.1736C27.1587 17.3511 26.8979 17.5176 26.794 17.5437C26.5392 17.6077 26.0991 17.3684 26.0489 17.1387C26.0267 17.0364 25.9957 16.0716 25.9803 14.9947C25.9536 13.1399 25.941 13.0076 25.7422 12.4851C25.4425 11.6972 25.163 11.2558 24.6199 10.7128C23.8622 9.95499 22.892 9.48323 21.8488 9.36516C21.3944 9.31376 21.3378 9.32367 21.3378 9.45432C21.3378 9.97249 20.7575 10.8533 20.2312 11.1341C20.0912 11.2087 20.1183 11.4967 20.7103 16.2237C21.0554 18.9795 21.3378 21.3049 21.3378 21.3911C21.3378 21.4774 20.827 22.2299 20.2026 23.0633C19.0469 24.6059 18.9031 24.736 18.4737 24.6283C18.2397 24.5695 16.0053 21.6392 16.0053 21.3911C16.0053 21.3049 16.2883 18.9774 16.6341 16.2189C17.23 11.4661 17.2551 11.1993 17.1132 11.1203C16.5685 10.8172 16.0053 9.97582 16.0053 9.46507C16.0053 9.30951 15.7294 9.29801 15.0471 9.42524ZM17.3384 9.45765C17.3384 9.52847 17.4305 9.67845 17.543 9.79093C17.7355 9.98348 17.8015 9.99548 18.6716 9.99548C19.5416 9.99548 19.6076 9.98348 19.8001 9.79093C19.9126 9.67845 20.0047 9.52847 20.0047 9.45765C20.0047 9.34692 19.8185 9.32892 18.6716 9.32892C17.5247 9.32892 17.3384 9.34692 17.3384 9.45765ZM18.5845 11.4328C18.5824 11.4901 18.3085 13.6993 17.9759 16.3423L17.3711 21.1477L17.9846 21.9664C18.322 22.4167 18.6312 22.7852 18.6716 22.7852C18.712 22.7852 19.0211 22.4167 19.3585 21.9664L19.972 21.1477L19.3672 16.3423C19.0346 13.6993 18.7607 11.4901 18.7586 11.4328C18.7565 11.3755 18.7174 11.3286 18.6716 11.3286C18.6257 11.3286 18.5866 11.3755 18.5845 11.4328ZM40.6681 13.9949V14.6614H42.6678H44.6675V13.9949V13.3283H42.6678H40.6681V13.9949ZM42.0012 16.4566C42.0012 17.0126 42.2424 17.3277 42.6678 17.3277C43.0932 17.3277 43.3344 17.0126 43.3344 16.4566V15.9945H42.6678H42.0012V16.4566ZM42.0012 22.1025C41.8409 22.1531 41.5209 22.3836 41.2902 22.6148C40.846 23.0599 40.6675 23.4708 40.669 24.0446C40.6699 24.4006 40.976 25.1335 41.202 25.3203C41.6026 25.6518 41.66 26.1676 41.3326 26.495C41.1769 26.6507 41.0473 26.6595 38.9184 26.6595H36.6687V28.9092C36.6687 31.0381 36.6599 31.1677 36.5042 31.3234C36.1768 31.6508 35.661 31.5934 35.3295 31.1928C35.1427 30.9668 34.4099 30.6607 34.0538 30.6598C32.9716 30.657 32.0028 31.6012 32.0028 32.6586C32.0028 33.4626 32.6755 34.3563 33.4413 34.5699C34.0782 34.7475 34.9937 34.5287 35.3351 34.1173C35.6619 33.7236 36.1793 33.6689 36.5042 33.9938C36.6599 34.1495 36.6687 34.2791 36.6687 36.408V38.6577H38.1358C39.498 38.6577 39.5988 38.6473 39.5469 38.512C39.2501 37.7386 39.2945 36.7224 39.6592 35.943C40.0052 35.2035 40.4872 34.7157 41.238 34.3446C41.8329 34.0506 41.9117 34.0334 42.6678 34.0334C43.4239 34.0334 43.5027 34.0506 44.0976 34.3446C44.8485 34.7157 45.3304 35.2035 45.6764 35.943C46.0411 36.7224 46.0855 37.7386 45.7887 38.512C45.7368 38.6473 45.8377 38.6577 47.1999 38.6577H48.6669V32.6586V26.6595H46.4172C44.2883 26.6595 44.1587 26.6507 44.003 26.495C43.6782 26.1701 43.7328 25.6527 44.1265 25.3259C44.3383 25.1502 44.582 24.6157 44.6386 24.203C44.7209 23.6021 44.534 23.1004 44.0472 22.6157C43.4584 22.0294 42.7762 21.8583 42.0012 22.1025ZM18.005 33.9917V34.6583H18.6716H19.3381V33.9917V33.3252H18.6716H18.005V33.9917ZM18.005 36.658V37.3245H18.6716H19.3381V36.658V35.9914H18.6716H18.005V36.658ZM18.005 39.3242V39.9908H18.6716H19.3381V39.3242V38.6577H18.6716H18.005V39.3242ZM20.6712 39.3242V39.9908H21.3378H22.0044V39.3242V38.6577H21.3378H20.6712V39.3242ZM23.3375 39.3242V39.9908H24.0041H24.6706V39.3242V38.6577H24.0041H23.3375V39.3242ZM26.0037 39.3242V39.9908H26.6703H27.3369V39.3242V38.6577H26.6703H26.0037V39.3242ZM28.67 39.3242V39.9908H29.3366H30.0031V39.3242V38.6577H29.3366H28.67V39.3242ZM31.3362 39.3242V39.9908H32.0028H32.6694V39.3242V38.6577H32.0028H31.3362V39.3242Z" fill="white"/>
</g>
<defs>
<clipPath id="clip0_543_7256">
<rect width="50" height="40" fill="white"/>
</clipPath>
</defs>
</svg>
