<svg width="74" height="74" viewBox="0 0 74 74" fill="none" xmlns="http://www.w3.org/2000/svg">
<rect width="74" height="74" rx="5" fill="#E32721"/>
<path d="M12 16H32C37.5228 16 42 20.4772 42 26V46H22C16.4772 46 12 41.5228 12 36V16Z" fill="white" fill-opacity="0.2"/>
<path fill-rule="evenodd" clip-rule="evenodd" d="M49.1269 20.1744C48.9836 20.2703 48.5587 20.7544 48.1826 21.2502C47.5567 22.0753 47.4963 22.1855 47.4689 22.5514C47.4303 23.0665 47.6097 23.4072 48.0862 23.7238L48.4417 23.9599L48.2096 24.2756L47.9774 24.5913L47.2724 24.1638C46.8847 23.9286 46.4419 23.7194 46.2886 23.6989C45.9233 23.6498 45.529 23.7854 45.2815 24.0451C45.1719 24.1601 43.8399 26.2851 42.3215 28.7674L39.5607 33.2806L38.773 33.266C38.3398 33.2579 37.9791 33.2448 37.9717 33.2369C37.9642 33.2289 38.1273 32.8769 38.334 32.4544C39.4392 30.1966 39.4294 27.6613 38.3068 25.4039C37.9222 24.6305 37.5923 24.1712 36.9117 23.4617C34.4614 20.9074 30.7707 20.2797 27.5956 21.8772C26.8096 22.2726 26.4374 22.5394 25.7351 23.2103C24.9915 23.9208 24.5269 24.5323 24.1267 25.3273C22.9489 27.6672 22.9336 30.1952 24.0834 32.4942C24.2626 32.8526 24.422 33.1717 24.4374 33.2032C24.4529 33.2348 24.2684 33.2607 24.0274 33.2607C23.3555 33.2607 23.0078 33.3975 22.5723 33.833C22.0448 34.3605 22 34.5557 22 36.3268C22 38.0059 22.049 38.2564 22.4714 38.7362C22.842 39.1572 23.2131 39.3338 23.8419 39.388L24.3424 39.4312L23.1745 46.7131C22.5321 50.7182 22.0051 54.1399 22.0033 54.317C21.987 55.911 23.2215 57.4079 24.8009 57.709C25.1319 57.7722 28.1628 57.79 35.8109 57.7736C46.3324 57.751 46.3647 57.7505 46.5757 57.5929C47.0342 57.2506 47.1014 57.0791 47.1293 56.1789L47.1551 55.3458L47.5892 55.303C49.291 55.1353 50.4214 54.8722 51.8064 54.3215C55.7517 52.7526 58.841 49.0657 59.7143 44.884C60.5614 40.8273 59.5093 37.0574 56.7635 34.3103C56.3852 33.9317 56.0161 33.4891 55.9434 33.3267C55.7456 32.885 55.3962 32.4063 54.9595 31.9787L54.5692 31.5964L54.9937 30.9203C55.796 29.6424 55.6762 29.2035 54.3009 28.3829C53.9047 28.1464 53.5805 27.9408 53.5805 27.9261C53.5805 27.8369 53.9281 27.2053 53.9772 27.2053C54.0099 27.2053 54.1496 27.2741 54.2877 27.3583C54.644 27.5755 55.2409 27.5656 55.5812 27.3368C55.8652 27.1459 56.8652 25.8924 57.1187 25.4096C57.3155 25.0347 57.2821 24.4935 57.0412 24.1552C56.9254 23.9926 55.8535 23.3256 53.5144 21.9608C50.3371 20.1069 50.1332 20 49.7707 20C49.4993 20 49.3112 20.051 49.1269 20.1744ZM49.2497 21.854C48.9967 22.1963 48.7644 22.519 48.7333 22.571C48.6941 22.6366 49.6271 23.2198 51.7797 24.4755C53.4863 25.4709 54.9086 26.2843 54.9405 26.2829C54.9903 26.2808 55.8102 25.2167 55.9755 24.9397C56.0155 24.8727 55.1046 24.3034 52.9281 23.0353C51.2207 22.0404 49.798 21.2276 49.7667 21.229C49.7353 21.2303 49.5026 21.5116 49.2497 21.854ZM29.8185 22.3721C28.5215 22.6478 27.3921 23.2636 26.4429 24.2129C24.828 25.8277 24.14 28.1015 24.598 30.3096C24.8736 31.6384 25.4802 32.761 26.4429 33.7236C29.0854 36.3661 33.311 36.3661 35.9535 33.7236C38.5975 31.0797 38.5975 26.8568 35.9535 24.2129C34.3353 22.5947 32.0285 21.9025 29.8185 22.3721ZM49.2606 24.9115C49.1401 25.0819 49.0539 25.2312 49.069 25.2431C49.0974 25.2657 52.3505 27.206 52.4471 27.2581C52.4772 27.2743 52.588 27.1176 52.6932 26.91L52.8846 26.5323L51.2971 25.6088C50.424 25.1009 49.6578 24.6664 49.5946 24.6434C49.5202 24.6163 49.4023 24.711 49.2606 24.9115ZM43.2708 29.5551C41.711 32.111 40.3603 34.3267 40.2692 34.4789L40.1038 34.7557L43.913 37.2237C46.0081 38.5811 47.773 39.7112 47.8351 39.735C47.915 39.7657 48.0987 39.539 48.4646 38.9582C48.9489 38.1894 48.974 38.1282 48.8641 37.9798C48.0196 36.8386 47.7954 36.2344 47.7955 35.1004C47.7956 34.1999 47.9063 33.7665 48.3364 32.9837C49.2036 31.4057 51.1924 30.5088 52.9211 30.9163C53.2118 30.9848 53.4657 31.0249 53.4852 31.0053C53.5047 30.9859 53.6865 30.7023 53.8892 30.3753L54.2576 29.7807L50.1953 27.3432C47.9611 26.0026 46.1272 24.9062 46.12 24.9069C46.1129 24.9075 44.8307 26.9993 43.2708 29.5551ZM32.5189 28.2825C31.1584 29.798 30.0201 31.0361 29.9894 31.034C29.9586 31.0319 29.4971 30.4797 28.9637 29.8071L27.9939 28.5841L27.5456 28.9433C27.2991 29.1407 27.0845 29.3119 27.0687 29.3236C27.0529 29.3353 27.6895 30.1579 28.4833 31.1515L29.9266 32.958L30.1373 32.7453C30.2531 32.6283 31.6074 31.1356 33.147 29.4282L35.946 26.3238L35.5076 25.9232C35.2664 25.7029 35.0519 25.5237 35.0308 25.525C35.0097 25.5262 33.8793 26.7671 32.5189 28.2825ZM51.3283 32.1146C50.8433 32.2365 50.1529 32.6451 49.8178 33.0086C49.6457 33.1954 49.3957 33.5786 49.2623 33.8602C49.0426 34.3238 49.0197 34.4413 49.0197 35.1044C49.0197 35.7954 49.0358 35.869 49.306 36.4157C49.6508 37.1134 50.0946 37.5479 50.8072 37.8855C51.2703 38.1049 51.3889 38.1281 52.0475 38.1281C52.706 38.1281 52.8246 38.1049 53.2877 37.8855C54.0003 37.5479 54.4441 37.1134 54.7889 36.4157C55.0594 35.8684 55.0752 35.796 55.0752 35.1004C55.0752 34.4048 55.0594 34.3323 54.7889 33.785C54.271 32.737 53.3508 32.122 52.2198 32.0682C51.8932 32.0526 51.492 32.0736 51.3283 32.1146ZM51.4342 33.3609C51.058 33.4795 50.4164 34.1439 50.301 34.5344C50.0887 35.2531 50.2384 35.826 50.7801 36.3677C51.3218 36.9094 51.8948 37.0591 52.6135 36.8468C53.0345 36.7224 53.6695 36.0874 53.7939 35.6664C54.0062 34.9477 53.8565 34.3747 53.3148 33.833C52.7754 33.2937 52.1476 33.1361 51.4342 33.3609ZM23.4146 34.6753C23.228 34.8619 23.2264 34.8753 23.2264 36.3268C23.2264 37.7791 23.2279 37.7915 23.415 37.9787L23.6036 38.1672L30.6694 38.1477L37.7353 38.1281L37.9165 37.8417L38.0977 37.5554L37.678 37.2768C37.3844 37.0818 37.2088 36.8956 37.0933 36.6572C36.8586 36.1724 36.9248 35.8265 37.3815 35.1504C37.5853 34.8489 37.7634 34.5762 37.7774 34.5447C37.7915 34.5131 37.6001 34.4872 37.3523 34.4872C36.9265 34.4872 36.8848 34.5043 36.5986 34.7974C36.2098 35.1956 35.3698 35.7741 34.6859 36.1147C32.5053 37.2007 29.8911 37.2007 27.7105 36.1147C27.0266 35.7741 26.1866 35.1956 25.7978 34.7974L25.4949 34.4872H24.5488C23.6466 34.4872 23.594 34.4959 23.4146 34.6753ZM51.6224 34.6753C51.2422 35.0555 51.5116 35.7136 52.0475 35.7136C52.3626 35.7136 52.6607 35.4155 52.6607 35.1004C52.6607 34.7853 52.3626 34.4872 52.0475 34.4872C51.8981 34.4872 51.741 34.5567 51.6224 34.6753ZM38.4574 35.7436L38.1852 36.1536L42.7899 39.1338C45.3224 40.7729 47.4368 42.1391 47.4884 42.1698C47.5491 42.206 47.6781 42.0812 47.8543 41.8158L48.1264 41.406L43.5225 38.4257C40.9903 36.7865 38.876 35.4202 38.824 35.3895C38.7626 35.3532 38.6344 35.477 38.4574 35.7436ZM56.2015 36.0785C56.0843 36.6387 55.8308 37.1758 55.4397 37.6927L55.1312 38.1005L55.3908 38.5318C56.4882 40.3541 56.63 42.9683 55.7619 45.3717C55.1933 46.946 54.0905 48.47 52.6874 49.6204C51.5783 50.5297 49.6192 51.3656 48.1957 51.5367C47.076 51.6714 47.1619 51.6405 47.1082 51.9266C47.0462 52.2574 46.726 52.643 46.4004 52.779C46.2168 52.8557 45.7336 52.8836 44.5852 52.8836H43.0201L43.1759 53.5038L43.3317 54.1241L45.7924 54.0916C47.9475 54.0632 48.3557 54.0381 49.0784 53.8899C53.9306 52.8951 57.6098 49.2017 58.5773 44.3544C58.8063 43.2071 58.8245 41.215 58.6149 40.236C58.4364 39.4028 58.173 38.6163 57.8302 37.8939C57.5278 37.2567 56.7603 36.0746 56.4773 35.8103L56.2936 35.6387L56.2015 36.0785ZM38.6387 39.0132C38.3828 39.4367 38.1747 39.8076 38.176 39.8372C38.1783 39.8843 39.2562 40.7112 39.5213 40.8692C39.64 40.9399 40.6812 39.2607 40.5777 39.1655C40.4895 39.0843 39.1731 38.2431 39.1343 38.2431C39.1175 38.2431 38.8946 38.5896 38.6387 39.0132ZM49.7705 39.1895C49.6606 39.3646 49.4372 39.7199 49.274 39.9792L48.9775 40.4505L49.1772 40.8223C49.4717 41.3703 49.413 41.6924 48.8706 42.5075C48.5091 43.0508 48.3757 43.188 48.0838 43.3171C47.609 43.5272 47.2628 43.4689 46.6372 43.0739C46.3588 42.8981 46.1084 42.7766 46.0807 42.8039C46.053 42.8312 45.7544 43.3069 45.4171 43.8612C44.6756 45.0797 44.4779 45.2467 43.8313 45.2015C43.4187 45.1726 43.3466 45.1341 42.4918 44.4857C41.3787 43.6413 41.2139 43.4218 41.2583 42.8422C41.2859 42.4801 41.3734 42.2839 41.8782 41.4517C42.2015 40.9187 42.466 40.4633 42.466 40.4397C42.466 40.3647 41.7741 39.9173 41.6978 39.9431C41.6577 39.9566 41.3743 40.3808 41.0681 40.8855C40.3854 42.0108 40.1773 42.1801 39.5311 42.1349C39.0897 42.104 39.0875 42.1049 39.126 42.3005C39.1473 42.4087 39.3905 43.9287 39.6665 45.6783C39.9425 47.4279 40.1858 48.9369 40.2071 49.0318L40.246 49.2043H43.2032C45.7858 49.2043 46.194 49.2202 46.4254 49.3301C46.747 49.4826 47.0463 49.8579 47.1132 50.1922L47.1626 50.4391L47.5929 50.3884C48.7174 50.2558 49.4587 50.0399 50.4884 49.545C52.6155 48.5227 54.2323 46.5322 54.8616 44.1611C55.0305 43.5246 55.0602 43.2454 55.0671 42.229C55.0762 40.8964 54.9691 40.3999 54.4507 39.3704C54.238 38.9481 54.1594 38.8542 54.0553 38.8989C52.6774 39.4891 51.6155 39.5356 50.432 39.0576L49.9704 38.8711L49.7705 39.1895ZM25.575 39.527C25.5543 39.6008 25.5149 39.8164 25.4877 40.0061C25.4604 40.1958 25.421 40.4114 25.4003 40.4852C25.3652 40.6093 25.465 40.6193 26.7473 40.6193H28.1321V41.2308V41.8424L26.6584 41.8632L25.1846 41.8841L25.0162 42.9188C24.9236 43.488 24.8452 44.0312 24.8419 44.1261L24.8361 44.2986H27.7105H30.585V44.9118V45.525H27.6016H24.6183L24.576 45.7358C24.5295 45.9664 24.2229 47.882 24.2229 47.9412C24.2229 47.9614 25.2404 47.9779 26.4841 47.9779H28.7453V48.5911V49.2043H26.3691C24.7503 49.2043 23.9929 49.2301 23.9929 49.2853C23.9929 49.3299 23.8205 50.4385 23.6097 51.749C23.3989 53.0593 23.2264 54.2411 23.2264 54.3751C23.2264 54.9238 23.4529 55.4218 23.9102 55.8791C24.5926 56.5615 24.6009 56.5628 28.1776 56.5628H31.1846L31.2106 55.7326C31.2345 54.9696 31.2532 54.8804 31.443 54.6319C31.8051 54.1577 32.002 54.11 33.5956 54.11H35.0119L35.1648 53.5008L35.3178 52.8917L33.6466 52.8685C32.0985 52.8469 31.96 52.8336 31.764 52.6872C31.2926 52.3349 31.2387 52.1856 31.2112 51.159C31.1822 50.0714 31.2638 49.7974 31.7204 49.4491L31.9909 49.2426L35.4879 49.2043L38.9847 49.166L38.3372 45.1115L37.6897 41.0572L37.404 40.7991C37.0456 40.4753 36.9235 40.1851 36.9588 39.741L36.9865 39.3929H31.2998C25.9493 39.3929 25.6108 39.4008 25.575 39.527ZM43.4328 41.2518C43.0771 41.8102 42.4664 42.8558 42.4685 42.9024C42.4707 42.95 43.5459 43.7756 43.8138 43.9353C43.8822 43.976 44.0842 43.7068 44.4888 43.0354L45.0662 42.0774L44.6284 41.7816C44.3877 41.6188 44.0448 41.3943 43.8666 41.2826L43.5425 41.0794L43.4328 41.2518ZM32.4246 51.0439V51.6571H39.17H45.9153V51.0439V50.4307H39.17H32.4246V51.0439ZM36.4288 53.4968L36.2748 54.11H39.17H42.0652L41.9112 53.4968L41.7572 52.8836H39.17H36.5827L36.4288 53.4968ZM32.4246 55.9496V56.5628H39.17H45.9153V55.9496V55.3364H39.17H32.4246V55.9496Z" fill="white"/>
</svg>
