<svg width="50" height="41" viewBox="0 0 50 41" fill="none" xmlns="http://www.w3.org/2000/svg">
<path d="M0 6.9375H20C25.5228 6.9375 30 11.4147 30 16.9375V36.9375H10C4.47715 36.9375 0 32.4603 0 26.9375V6.9375Z" fill="#1C3761" fill-opacity="0.2"/>
<path fill-rule="evenodd" clip-rule="evenodd" d="M29.3689 0.792859C29.0667 0.914633 29.0482 1.15122 29.0046 5.46012L28.9616 9.71206L28.7468 9.77367C28.6286 9.80762 28.1839 9.89785 27.7585 9.97425C23.4355 10.7509 19.9117 14.3718 19.2049 18.7633C19.0366 19.8087 19.1868 19.7278 17.4154 19.7278C16.1612 19.7278 15.8577 19.7043 15.7715 19.6005C15.624 19.4226 15.7966 17.9955 16.1153 16.7586C17.3336 12.03 20.8905 8.21614 25.4767 6.72091C26.6844 6.32723 26.966 6.00402 26.6439 5.38132C26.4054 4.92009 26.1029 4.90308 24.9565 5.28636C22.6368 6.06195 20.5892 7.33709 18.8164 9.10989C16.2221 11.7041 14.6308 15.0272 14.2319 18.6837C14.1837 19.1256 14.0993 19.5413 14.0443 19.6075C13.9649 19.7032 13.5965 19.7278 12.2428 19.7278H10.5412L10.2768 19.9503C9.85618 20.3043 9.92493 20.9137 10.4149 21.1747C10.5502 21.2468 11.7655 21.2747 14.7658 21.2747C17.9935 21.2747 18.948 21.2988 19.0141 21.3821C19.061 21.4412 19.1606 21.8569 19.2355 22.3059C19.7957 25.6667 21.9611 28.5839 25.0368 30.1214C25.7969 30.5015 27.2083 30.9595 27.9734 31.0744C29.099 31.2435 29.0046 31.0717 29.0046 32.9498C29.0046 34.2664 28.9809 34.5936 28.8796 34.6778C28.7814 34.7592 28.5501 34.7516 27.8041 34.6422C22.8466 33.9152 18.5036 30.4893 16.6864 25.8723C16.5189 25.447 16.2825 24.7509 16.1609 24.3255C16.0243 23.8471 15.8711 23.4946 15.7596 23.4016C15.4883 23.1753 15.032 23.2082 14.7669 23.4733C14.5699 23.6704 14.5505 23.7429 14.5949 24.1176C14.6664 24.7219 15.262 26.4492 15.7316 27.4145C18.0915 32.2656 22.6903 35.5538 28.0493 36.222C28.4456 36.2714 28.8227 36.3557 28.8872 36.4092C28.9787 36.4852 29.0046 36.8567 29.0046 38.0916C29.0046 39.6911 29.0432 39.9282 29.3409 40.1567C29.506 40.2835 29.9884 40.2983 30.2033 40.1833C30.2891 40.1374 30.3929 40.0311 30.4339 39.947C30.475 39.863 30.5278 37.8809 30.5515 35.5424L30.5944 31.2904L30.8093 31.2288C30.9275 31.1949 31.3558 31.1077 31.7611 31.0352C36.1454 30.25 39.6543 26.6317 40.3513 22.177C40.4104 21.7989 40.4974 21.4404 40.5445 21.3802C40.6097 21.2973 41.0151 21.2766 42.2295 21.2943L43.8288 21.3177L43.8195 21.9622C43.8009 23.26 43.2144 25.3455 42.4263 26.9157C40.6697 30.4164 37.7055 32.9355 33.8963 34.1654C33.2277 34.3813 32.7726 34.5776 32.6784 34.6909C32.4758 34.9347 32.4886 35.3811 32.7062 35.6576C32.9597 35.98 33.3872 35.9539 34.6137 35.5412C35.9611 35.0879 37.2471 34.4508 38.5007 33.616C39.9709 32.6369 41.7661 30.8387 42.7446 29.3647C43.1325 28.7803 43.641 27.9061 43.8745 27.4218C44.6366 25.842 45.2378 23.7441 45.3862 22.1473C45.4194 21.7911 45.4975 21.466 45.5667 21.3967C45.664 21.2994 46.0368 21.2747 47.4053 21.2747C49.1132 21.2747 49.1228 21.2737 49.3327 21.0637C49.6293 20.7671 49.6243 20.2632 49.3219 19.9791L49.1001 19.7708H44.254H39.4079L39.2221 19.9566C39.0688 20.1098 39.0227 20.298 38.9588 21.0308C38.7436 23.5012 37.7982 25.5017 36.0806 27.122C32.7823 30.2334 27.8307 30.5584 24.2967 27.8955C19.8448 24.5409 19.3336 18.3029 23.167 14.1085C24.6151 12.5241 26.8873 11.4725 29.1635 11.3332C29.9206 11.2869 30.0928 11.2487 30.2834 11.0848L30.5085 10.8912L30.5339 6.26459C30.5478 3.71998 30.5359 1.51009 30.5076 1.35386C30.4337 0.946859 30.1874 0.73425 29.7995 0.742414C29.6223 0.746109 29.4284 0.768883 29.3689 0.792859ZM41.7118 3.8121C41.6344 3.84527 40.2713 5.14972 38.6825 6.71086L35.7937 9.54937V11.5799V13.6105L32.4636 16.9788C30.3584 19.1083 29.1051 20.4395 29.0561 20.5979C28.8999 21.1037 29.3609 21.5976 29.8954 21.4974C30.1348 21.4525 30.7622 20.861 33.4838 18.1147L36.7819 14.7864L38.8657 14.7434L40.9494 14.7005L43.8212 11.8295C45.4692 10.1819 46.7087 8.8758 46.73 8.76442C46.7796 8.5048 46.5909 8.0758 46.3766 7.96116C46.2702 7.90419 45.5764 7.86844 44.5783 7.86844C43.113 7.86844 42.9391 7.85297 42.8109 7.71126C42.689 7.57659 42.6687 7.31938 42.6687 5.91138C42.6687 4.32919 42.6615 4.2607 42.4753 4.05221C42.2668 3.81898 41.9374 3.71534 41.7118 3.8121ZM38.8957 8.61051L37.2546 10.298V11.6552C37.2546 12.7744 37.2783 13.0361 37.3896 13.1475C37.5007 13.2585 37.7595 13.2825 38.8473 13.2825H40.1699L41.892 11.5458C42.8391 10.5906 43.614 9.7619 43.614 9.70423C43.614 9.41617 43.3523 9.32938 42.4841 9.32938C41.6482 9.32938 41.6171 9.32233 41.373 9.07818C41.1293 8.83446 41.1218 8.80172 41.1218 7.97818C41.1218 7.43256 41.0849 7.09251 41.0187 7.02625C40.7531 6.7607 40.5401 6.9196 38.8957 8.61051ZM28.6443 14.2725C24.6777 15.0163 22.3799 19.2044 23.894 22.9306C24.3544 24.0634 25.4722 25.3565 26.539 25.9896C28.5973 27.2116 31.2779 27.1317 33.2986 25.7883C34.8533 24.7547 35.9077 22.9753 36.1047 21.0525C36.1349 20.7573 36.1348 20.4169 36.1045 20.296C36.0199 19.9586 35.7193 19.7274 35.3692 19.7306C34.8258 19.7354 34.6428 19.991 34.5569 20.8648C34.3498 22.9739 32.9504 24.6795 31.0129 25.1842C30.4284 25.3364 29.3732 25.3527 28.7295 25.2195C27.3989 24.944 26.042 23.8757 25.4566 22.6425C24.5512 20.7352 24.8877 18.6115 26.3259 17.156C27.2299 16.2412 28.0587 15.8431 29.3626 15.6972C29.9734 15.6289 30.1029 15.5851 30.2703 15.3905C30.5196 15.1007 30.5193 14.7295 30.2693 14.439C30.0206 14.1498 29.554 14.1019 28.6443 14.2725Z" fill="white"/>
</svg>
