<svg width="74" height="74" viewBox="0 0 74 74" fill="none" xmlns="http://www.w3.org/2000/svg">
<rect width="74" height="74" rx="5" fill="#E32721"/>
<path d="M10 21H30C35.5228 21 40 25.4772 40 31V51H20C14.4772 51 10 46.5228 10 41V21Z" fill="white" fill-opacity="0.2"/>
<path fill-rule="evenodd" clip-rule="evenodd" d="M29.0996 15.0857C25.3468 15.6264 22.1781 18.4626 21.1718 22.1815C20.9628 22.9541 20.943 23.1643 20.943 24.6172C20.943 26.0652 20.9632 26.2819 21.169 27.0416C22.237 30.9856 25.5495 33.7647 29.6738 34.1771L30.6897 34.2787V34.9095C30.6897 35.6077 30.8737 36.0967 31.222 36.3244C31.408 36.446 38.7369 39.9731 39.6719 40.391C39.9083 40.4966 40.4493 40.6701 40.8741 40.7764C41.5388 40.9427 41.7968 40.9636 42.7222 40.9257C43.4886 40.8943 43.9706 40.8274 44.3994 40.693C44.7303 40.5893 46.5482 39.7674 48.4392 38.8666C54.0464 36.1954 53.9788 36.2339 54.1572 35.6121C54.204 35.4491 54.2411 34.0976 54.2411 32.5602V29.8008L55.2411 29.3363C55.791 29.0808 56.2745 28.859 56.3155 28.8433C56.3566 28.8275 56.3899 30.118 56.3899 31.7227V34.6308L55.3139 35.6623L54.2377 36.6937L54.2394 38.9539L54.2411 41.2141L54.4521 41.425L54.663 41.636H57.0793C58.4911 41.636 59.5609 41.6011 59.6528 41.5519C59.9453 41.3954 60 40.9864 60 38.9559C60 37.4621 59.9711 36.9225 59.88 36.7124C59.814 36.5603 59.3134 36.0297 58.7675 35.5333L57.775 34.6308L57.7701 31.3872L57.7652 28.1434L58.3635 27.8422C58.6926 27.6764 59.0021 27.4658 59.0512 27.374C59.2106 27.0761 59.157 26.634 58.9346 26.4124C58.8214 26.2996 55.1534 24.4958 50.7836 22.4039C43.91 19.1134 42.7857 18.6004 42.4477 18.6004C42.1342 18.6004 41.7553 18.7452 40.5279 19.3339C39.6869 19.7373 38.9727 20.0371 38.941 20.0001C38.9092 19.963 38.6956 19.6426 38.4664 19.288C37.6193 17.9778 35.9049 16.5119 34.4503 15.8541C32.8565 15.1333 30.8092 14.8392 29.0996 15.0857ZM28.8031 16.5428C25.6654 17.2222 23.3428 19.4601 22.4596 22.6551C22.3424 23.0789 22.3103 23.5213 22.3143 24.6602C22.319 25.995 22.3395 26.1867 22.5513 26.8767C23.4438 29.7848 25.6724 31.9026 28.6033 32.6278C30.1249 33.0043 32.0953 32.8472 33.62 32.2276C35.3424 31.5278 36.9909 29.9806 37.8563 28.252C38.7738 26.4192 38.9505 23.9598 38.3016 22.0538C37.3773 19.3384 35.1912 17.2952 32.4856 16.6181C31.408 16.3484 29.8483 16.3165 28.8031 16.5428ZM29.5889 17.7429C27.2932 18.0586 25.2751 19.5129 24.2837 21.5658C23.817 22.532 23.6535 23.1466 23.5853 24.1912C23.376 27.3955 25.3872 30.2577 28.5446 31.2492C29.0975 31.4228 29.3626 31.4505 30.4748 31.4505C31.5871 31.4505 31.8522 31.4228 32.4051 31.2492C35.5592 30.2588 37.5734 27.392 37.3644 24.1912C37.2961 23.1466 37.1327 22.532 36.666 21.5658C35.812 19.7971 34.1141 18.4034 32.2264 17.9214C31.4422 17.7211 30.3065 17.6443 29.5889 17.7429ZM29.6915 19.1114C28.4772 19.302 27.5198 19.7955 26.5977 20.7059C26.044 21.2526 25.8274 21.544 25.5432 22.1245C24.1546 24.9613 25.257 28.1932 28.0934 29.6005C28.8056 29.9538 29.5538 30.1156 30.4748 30.1156C31.7442 30.1156 32.7852 29.7771 33.7954 29.0355C35.1378 28.0501 36.0159 26.3029 36.0159 24.6172C36.0159 22.2253 34.3616 20.0043 32.0575 19.3027C31.3945 19.1009 30.3148 19.0136 29.6915 19.1114ZM40.9612 20.6394C40.2048 21.0026 39.5768 21.3044 39.5655 21.31C39.5542 21.3156 39.6459 21.7042 39.7693 22.1736C40.0718 23.3255 40.145 25.1608 39.9335 26.2933C39.6029 28.0632 38.8925 29.5442 37.7145 30.9193C37.4787 31.1945 37.3199 31.4495 37.3615 31.486C37.4831 31.5928 42.3486 33.9002 42.4522 33.9002C42.5039 33.9002 44.143 33.1348 46.0945 32.1992C48.0459 31.2636 50.6921 29.9969 51.9748 29.3842C53.2576 28.7715 54.3014 28.2633 54.2945 28.2547C54.2797 28.2368 50.8065 28.0488 45.7746 27.7935C43.0803 27.6569 42.2053 27.5855 42.0585 27.4902C41.6904 27.2512 41.6976 26.621 42.0711 26.3762C42.2579 26.2538 42.8805 26.2724 49.1824 26.5878C52.9811 26.7779 56.2922 26.951 56.5404 26.9725C56.7885 26.9939 56.9914 26.9853 56.9911 26.9532C56.9904 26.8821 42.689 20.0267 42.4829 19.9988C42.4023 19.9878 41.7176 20.2761 40.9612 20.6394ZM30.0171 20.4324C29.8869 20.571 29.8302 20.7401 29.8302 20.9894C29.8302 21.3163 29.8022 21.3618 29.5079 21.5136C28.7975 21.8796 28.369 22.5624 28.369 23.3279C28.369 24.427 29.1149 25.162 30.3661 25.2958C31.0307 25.3668 31.2055 25.4973 31.2055 25.9229C31.2055 26.5413 30.3121 26.7358 29.7013 26.2503C29.1824 25.8379 28.6181 25.9612 28.4967 26.5135C28.4098 26.9093 28.7572 27.3786 29.3531 27.6702C29.822 27.8996 29.8302 27.9099 29.8302 28.2741C29.8302 28.9034 30.41 29.2026 30.893 28.8226C31.0739 28.6805 31.1195 28.5713 31.1195 28.2814C31.1195 27.9387 31.1448 27.9016 31.569 27.6215C32.2124 27.1967 32.5175 26.723 32.5643 26.0759C32.6148 25.3762 32.4226 24.8915 31.9186 24.4479C31.4974 24.0771 31.1109 23.9308 30.5509 23.9301C30.09 23.9294 29.7442 23.6686 29.7442 23.3216C29.7442 22.9282 30.0101 22.7262 30.528 22.7262C30.8942 22.7262 31.017 22.7694 31.2616 22.9841C31.4231 23.1259 31.6295 23.2419 31.7201 23.2419C32.2413 23.2419 32.5995 22.757 32.4123 22.3049C32.2725 21.9673 32.0127 21.738 31.5267 21.523C31.1326 21.3487 31.1195 21.3311 31.1195 20.9751C31.1195 20.3129 30.4425 19.9796 30.0171 20.4324ZM47.8375 32.8805C42.8924 35.2653 42.8484 35.2845 42.3795 35.2492C41.9832 35.2194 41.4375 34.9882 39.0061 33.8199L36.1055 32.4261L35.6109 32.7238C34.547 33.3643 33.3463 33.8509 32.3853 34.0312L32.065 34.0913V34.6677V35.2442L36.2335 37.2364C38.5993 38.367 40.6709 39.3031 41.0237 39.4009C41.7822 39.6111 42.9204 39.6282 43.7378 39.4419C44.3101 39.3114 44.9878 39.0038 50.1791 36.5183L52.8645 35.2325L52.8651 32.8473C52.8655 31.5354 52.8561 30.4652 52.8443 30.4692C52.8326 30.4731 50.5795 31.5582 47.8375 32.8805ZM56.3654 36.5357L55.633 37.2094L55.6247 38.7351L55.6164 40.2608H57.1205H58.6247V38.7748V37.2889L58.2165 36.9046C57.9919 36.6933 57.6484 36.3722 57.453 36.1912L57.0979 35.862L56.3654 36.5357ZM28.4549 41.5092C27.6188 41.7387 26.9591 42.1286 25.3946 43.3177L23.8629 44.4821L23.6721 44.0499C23.4375 43.5181 23.0709 43.2693 22.5241 43.2709C22.0575 43.2721 19.7999 43.8793 19.4782 44.09C19.171 44.2913 19 44.6455 19 45.0801C19 45.4949 22.3017 57.8965 22.5031 58.2386C22.665 58.5133 23.1946 58.8268 23.4969 58.8268C23.8175 58.8268 26.3154 58.1494 26.5466 57.9998C26.6551 57.9295 26.8222 57.7484 26.9177 57.5973C27.0644 57.3655 27.0842 57.228 27.0451 56.7161L26.9987 56.1096L27.4475 55.8387C28.4306 55.2455 29.4444 54.9795 30.3029 55.0899C30.5393 55.1203 32.083 55.453 33.7334 55.8293C37.3084 56.6445 37.8191 56.7237 38.7036 56.6006C39.6487 56.4692 40.1016 56.2714 42.1381 55.1012C52.2157 49.31 54.7373 47.8291 55.1379 47.4669C55.9391 46.7423 56.3378 45.5691 56.1342 44.5345C55.8813 43.249 55.1347 42.3979 53.8901 41.9765C53.1259 41.7178 52.3217 41.7694 51.567 42.1258C51.2649 42.2684 49.1698 43.4543 46.9112 44.7611C44.6526 46.0679 42.7908 47.1371 42.7742 47.1371C42.7574 47.1371 42.6987 46.9583 42.6436 46.7397C42.4026 45.7824 41.6889 44.8625 40.865 44.4473C40.6342 44.331 38.1441 43.6069 35.3312 42.8382C29.8042 41.3276 29.4005 41.2496 28.4549 41.5092ZM28.6549 42.8771C28.4575 42.9388 28.1228 43.0862 27.911 43.2045C27.5064 43.4307 24.3762 45.788 24.2854 45.9349C24.236 46.015 26.4394 54.4136 26.5618 54.6116C26.5982 54.6706 26.7846 54.611 27.0854 54.4443C27.9617 53.9583 28.8225 53.7348 29.8302 53.7316C30.7832 53.7286 31.0301 53.7764 35.5461 54.8381C37.5659 55.3129 38.4722 55.3698 39.2851 55.0723C39.7035 54.9192 53.1789 47.2029 54.0101 46.6403C54.6441 46.2114 54.9408 45.4117 54.7544 44.6345C54.6124 44.0425 54.0224 43.416 53.4675 43.2679C52.6277 43.0438 52.6387 43.0387 47.4226 46.0512C42.7044 48.7761 42.5888 48.8492 42.3507 49.2562C41.6266 50.4946 40.1327 51.3059 38.8983 51.1311C38.3312 51.0508 33.0687 49.6205 32.8614 49.4903C32.4565 49.236 32.548 48.532 33.0109 48.3403C33.2253 48.2515 33.588 48.3305 36.0335 48.9984C39.2066 49.8651 39.4855 49.8981 40.228 49.4939C40.9781 49.0857 41.348 48.4493 41.348 47.5669C41.348 47.2802 41.2948 46.9183 41.2298 46.7628C41.0645 46.3671 40.6055 45.8672 40.2334 45.6773C39.7166 45.4136 29.8377 42.7527 29.3999 42.7592C29.1874 42.7624 28.8522 42.8154 28.6549 42.8771ZM21.3222 44.9148C20.8266 45.0561 20.4082 45.1846 20.3923 45.2004C20.3692 45.2236 23.05 55.3432 23.515 56.9878L23.6391 57.4267L24.6503 57.1518C25.558 56.905 25.6594 56.8581 25.6414 56.6938C25.6246 56.5402 22.9547 46.488 22.561 45.0957C22.4908 44.8475 22.3861 44.6475 22.3283 44.6513C22.2705 44.655 21.8178 44.7736 21.3222 44.9148Z" fill="white"/>
</svg>
