<svg width="74" height="74" viewBox="0 0 74 74" fill="none" xmlns="http://www.w3.org/2000/svg">
<rect width="74" height="74" rx="5" fill="#E32721"/>
<g clip-path="url(#clip0_504_7323)">
<path d="M11 15H31C36.5228 15 41 19.4772 41 25V45H21C15.4772 45 11 40.5228 11 35V15Z" fill="white" fill-opacity="0.2"/>
<path fill-rule="evenodd" clip-rule="evenodd" d="M28.5202 19.0646C26.3563 19.4535 24.4658 21.2724 23.9936 23.4197C23.534 25.5096 24.3264 27.7925 25.9591 29.0831C26.1933 29.2682 26.378 29.4401 26.3696 29.465C26.3612 29.4899 26.1283 29.5952 25.852 29.6991C22.1768 31.0806 19.4387 34.5253 19.0243 38.2883C18.9763 38.7235 18.9911 38.8072 19.1444 38.9696C19.2404 39.0714 19.4018 39.1747 19.5029 39.1993C19.604 39.2239 24.2019 39.2336 29.7206 39.221L39.7546 39.198L39.9126 39.0027C40.1132 38.755 40.1112 38.5129 39.8996 37.4744C39.1997 34.0385 36.7608 31.1357 33.4552 29.8042C33.0231 29.6301 32.6784 29.467 32.6891 29.4417C32.6997 29.4164 32.9044 29.2361 33.1439 29.041C34.4391 27.9857 35.1934 26.3681 35.1906 24.6513C35.1891 23.7025 35.0275 23.0128 34.5982 22.1217C34.3232 21.5507 34.1259 21.2857 33.5473 20.7097C32.752 19.9181 32.2371 19.5924 31.2638 19.2653C30.525 19.0171 29.2885 18.9266 28.5202 19.0646ZM49.1671 19.0167C49.0989 19.0335 48.7639 19.0922 48.4228 19.1475C45.4402 19.6302 42.7247 21.6733 41.3133 24.4965C40.5665 25.9903 40.2749 27.4095 40.3412 29.2282C40.4353 31.8037 41.3114 33.8335 43.1304 35.69C44.4743 37.0615 45.9323 37.9137 47.737 38.3823C49.2124 38.7655 51.3206 38.7433 52.7634 38.3295C55.9124 37.4264 58.447 35.0365 59.4617 32.0135C60.9644 27.5375 59.1608 22.7245 55.0797 20.3195C53.6634 19.4849 52.1958 19.0734 50.4488 19.0211C49.8121 19.0021 49.2353 19.0001 49.1671 19.0167ZM28.6176 20.3986C27.9312 20.5277 27.0198 21.0299 26.4676 21.5832C24.4854 23.5692 24.8392 26.8068 27.2059 28.3394C28.4883 29.17 30.1607 29.2356 31.591 28.5115C32.1126 28.2475 33.0962 27.2608 33.3919 26.705C33.7088 26.1094 33.8687 25.4173 33.8687 24.6414C33.8687 23.4654 33.4331 22.4314 32.5752 21.5709C31.5531 20.5457 30.1093 20.1181 28.6176 20.3986ZM48.6985 20.4249C45.2224 21.0556 42.5113 23.7007 41.789 27.166C41.5557 28.2858 41.6151 30.0307 41.9229 31.094C42.7616 33.9913 44.988 36.2177 47.8853 37.0564C48.9486 37.3642 50.6934 37.4236 51.8133 37.1902C55.9852 36.3207 58.8946 32.5655 58.6507 28.3651C58.5633 26.8593 58.0208 25.2513 57.1827 24.0138C56.7323 23.3486 55.6453 22.2568 54.997 21.8183C53.1495 20.5687 50.7866 20.046 48.6985 20.4249ZM49.6693 21.0991C49.5309 21.275 49.4979 21.4351 49.4979 21.9298C49.4979 22.4702 49.5218 22.5666 49.7009 22.7456C49.9472 22.992 50.3126 23.0106 50.5844 22.7905C50.7624 22.6464 50.7796 22.5692 50.7796 21.9149C50.7796 21.2606 50.7624 21.1835 50.5844 21.0394C50.2955 20.8054 49.8789 20.8326 49.6693 21.0991ZM44.5289 23.186C44.3909 23.2977 44.3378 23.4267 44.3378 23.6497C44.3378 23.9168 44.4006 24.019 44.8018 24.4046C45.1836 24.7715 45.3174 24.8506 45.5566 24.8506C45.7722 24.8506 45.8917 24.7942 46.0187 24.6327C46.2967 24.2793 46.239 24.0626 45.7227 23.5213C45.3402 23.1203 45.2067 23.0313 44.9876 23.0313C44.8404 23.0313 44.634 23.1009 44.5289 23.186ZM54.571 23.4735C54.206 23.8385 54.1287 23.966 54.1287 24.2034C54.1287 24.5757 54.4085 24.8506 54.7875 24.8506C55.0109 24.8506 55.1479 24.7662 55.5057 24.4083C55.8789 24.0353 55.948 23.9188 55.948 23.6641C55.948 23.2652 55.7141 23.0313 55.3152 23.0313C55.0604 23.0313 54.944 23.1004 54.571 23.4735ZM49.8547 24.7684C49.5335 24.8979 49.4979 25.1015 49.4978 26.8091L49.4977 28.4478L48.4858 29.0266C47.9293 29.345 47.4083 29.6705 47.3282 29.7502C46.9703 30.1054 47.2894 30.8045 47.8095 30.8045C48.1285 30.8045 50.5577 29.4082 50.707 29.1389C50.7869 28.9948 50.8158 28.4513 50.8181 27.0563L50.821 25.1686L50.5792 24.9269C50.3303 24.678 50.1676 24.6423 49.8547 24.7684ZM42.4479 28.3224C42.0824 28.6099 42.0887 29.089 42.4617 29.3754C42.5377 29.4337 42.859 29.4773 43.2246 29.4788C43.9487 29.4818 44.172 29.3622 44.2562 28.9265C44.2991 28.7044 44.2665 28.6201 44.0561 28.4097C43.8243 28.1779 43.7599 28.1583 43.2306 28.1583C42.7833 28.1583 42.6105 28.1945 42.4479 28.3224ZM56.3875 28.2374C55.995 28.4048 55.9133 28.9581 56.2337 29.2784C56.4126 29.4574 56.5091 29.4814 57.0495 29.4814C57.5442 29.4814 57.7042 29.4484 57.8801 29.31C58.146 29.101 58.174 28.684 57.9417 28.397C57.8071 28.2308 57.7001 28.2007 57.1767 28.1821C56.842 28.1701 56.4869 28.195 56.3875 28.2374ZM27.6666 30.5489C25.9026 30.9392 24.481 31.6731 23.1911 32.8596C21.9315 34.0182 20.9035 35.776 20.5172 37.4317L20.4042 37.9162H29.5362H38.6681L38.6141 37.6888C37.785 34.1966 35.2565 31.5506 31.9011 30.6637C30.7935 30.371 28.7248 30.3149 27.6666 30.5489ZM44.8722 33.1645C44.2089 33.7849 44.1399 34.2338 44.6559 34.5718C44.9623 34.7727 45.249 34.6652 45.7542 34.1599C46.2649 33.6493 46.3279 33.333 45.9871 32.9922C45.6659 32.6709 45.3472 32.7201 44.8722 33.1645ZM54.3466 32.9606C54.185 33.0876 54.1287 33.2071 54.1287 33.4227C54.1287 33.6619 54.2078 33.7957 54.5747 34.1775C54.9603 34.5787 55.0625 34.6415 55.3296 34.6415C55.7055 34.6415 55.948 34.3868 55.948 33.9916C55.948 33.7726 55.859 33.6391 55.4579 33.2566C54.9167 32.7403 54.7 32.6826 54.3466 32.9606ZM49.7009 34.8942C49.5194 35.0755 49.4981 35.1657 49.5005 35.7418C49.502 36.1175 49.5452 36.4411 49.6039 36.5176C49.8902 36.8906 50.3694 36.8969 50.6569 36.5313C50.7847 36.3688 50.821 36.196 50.821 35.7486C50.821 35.2244 50.8 35.1536 50.5792 34.9329C50.281 34.6346 49.9739 34.621 49.7009 34.8942ZM50.9864 40.6297C49.8538 40.9258 48.9441 41.6829 48.3985 42.7834L48.0507 43.4851V45.3522C48.0507 46.3791 48.082 47.2827 48.1201 47.3602C48.1845 47.491 48.0257 47.5029 45.922 47.5256L43.6545 47.5501L43.2499 47.8003C42.4653 48.2857 42.1085 49.2897 42.4255 50.1199L42.5706 50.4996L42.3222 50.7614C41.6348 51.4861 41.5549 52.4638 42.1139 53.3085C42.2304 53.4844 42.4492 53.7047 42.6002 53.798C42.8432 53.9482 42.8658 53.9917 42.7959 54.1754C42.5376 54.8549 42.8497 55.9578 43.4244 56.3962C43.6793 56.5907 43.6996 56.6338 43.6118 56.7957C43.5576 56.8955 43.5121 57.2191 43.5106 57.5147C43.5075 58.1293 43.6859 58.5467 44.1361 58.9783C44.6296 59.4513 44.8568 59.4994 46.5994 59.4994C47.8889 59.4994 48.3989 59.5367 49.4343 59.7073C52.5231 60.2158 54.1175 59.9941 55.6405 58.8443L56.0871 58.507H57.8721H59.6572L59.8286 58.2891C59.9975 58.0745 60 58.0019 60 53.29C60 49.9621 59.9721 48.4476 59.9082 48.3073C59.7507 47.9616 59.5224 47.9222 57.6811 47.9222H55.9488L55.0605 47.2824C53.8743 46.428 53.2672 45.8092 52.9421 45.1231L52.6816 44.5731L52.653 42.6916L52.6245 40.8102L52.4145 40.645C52.156 40.4416 51.7238 40.437 50.9864 40.6297ZM50.8427 42.0895C50.262 42.359 49.7153 42.9358 49.5029 43.5036C49.3543 43.9007 49.3325 44.1471 49.3325 45.425C49.3325 47.0323 49.3718 47.1928 49.9207 47.8203C50.2784 48.2294 50.2905 48.41 49.9987 48.988C49.8577 49.2671 49.7196 49.6625 49.6916 49.8666C49.5895 50.6117 50.1121 51.4119 51.2153 52.1996C51.5005 52.4032 51.7728 52.6427 51.8204 52.7317C51.9393 52.954 51.8371 53.354 51.6229 53.504C51.3465 53.6976 51.0711 53.6529 50.5467 53.3292C50.2804 53.1648 50.0377 53.0625 50.0073 53.1018C49.9771 53.1411 49.8289 53.3078 49.6781 53.4723L49.4041 53.7714L49.5432 54.2498C49.7136 54.836 49.6599 55.3389 49.3747 55.8253L49.1696 56.1753L49.3912 56.5717C49.6251 56.9903 49.6908 57.6185 49.5556 58.1451L49.4893 58.4034L50.6141 58.5499C52.5044 58.7961 53.5881 58.6381 54.5835 57.9712L55.0797 57.6387L55.1011 53.2946L55.1225 48.9504L54.1872 48.269C52.6353 47.1384 51.8193 46.1765 51.5091 45.1122C51.4249 44.8233 51.3586 44.1564 51.3264 43.2737L51.2758 41.8886L50.8427 42.0895ZM23.1374 42.437C23.0796 42.4603 22.9772 42.5858 22.91 42.7159C22.8056 42.9178 22.7877 43.7798 22.7877 48.621V54.2896H22.1224C21.5263 54.2896 21.436 54.3107 21.2541 54.4926C20.9855 54.7612 20.9855 55.1412 21.2541 55.4097C21.436 55.5917 21.5263 55.6127 22.1224 55.6127H22.7877V57.5624V59.5121L23.0294 59.7538C23.3277 60.0521 23.6347 60.0657 23.9078 59.7925L24.1108 59.5896V57.6011V55.6127H24.7787C25.4067 55.6127 25.4611 55.5983 25.6883 55.371C25.9514 55.108 25.9784 54.9824 25.8383 54.6747C25.7066 54.386 25.4288 54.2896 24.7271 54.2896H24.1108V48.5154V42.7413L23.9194 42.5615C23.7389 42.392 23.3882 42.3361 23.1374 42.437ZM28.5952 42.437C28.5374 42.4603 28.435 42.5858 28.3678 42.7159C28.2651 42.9144 28.2455 43.5564 28.2455 46.719V50.4857H27.6612C27.0708 50.4857 26.7988 50.5698 26.6149 50.8093C26.4614 51.0093 26.4897 51.3486 26.6803 51.5909C26.8412 51.7954 26.8944 51.8088 27.5462 51.8088H28.2408L28.2638 55.7026L28.2868 59.5964L28.5189 59.796C28.7985 60.0365 29.0692 60.0503 29.332 59.8375L29.5273 59.6795L29.5686 55.7648L29.6099 51.8502L30.331 51.8088C31.1221 51.7634 31.2678 51.6856 31.3523 51.263C31.392 51.0647 31.3576 50.9559 31.1959 50.7679C31.0019 50.5424 30.9437 50.5252 30.2787 50.4979L29.5686 50.4688V46.605V42.7413L29.3772 42.5615C29.1967 42.392 28.846 42.3361 28.5952 42.437ZM34.0122 42.4851C33.7488 42.6852 33.7033 43.0418 33.7033 44.9092V46.7645H33.0064C32.352 46.7645 32.2991 46.7778 32.1381 46.9824C31.9042 47.2797 31.9198 47.6012 32.1797 47.8455C32.3604 48.0151 32.4923 48.0501 33.0464 48.0753L33.7 48.1049L33.7223 53.8507L33.7446 59.5964L33.9767 59.796C34.2612 60.0408 34.522 60.0495 34.8085 59.8241L35.0264 59.6528V53.8786V48.1045L35.7365 48.0754C36.4015 48.0481 36.4597 48.0309 36.6537 47.8054C36.8154 47.6174 36.8498 47.5086 36.8101 47.3103C36.7256 46.8877 36.5799 46.8099 35.7888 46.7645L35.0678 46.7231L35.0455 44.7422C35.0243 42.843 35.016 42.7534 34.8451 42.5715C34.6463 42.3598 34.2336 42.317 34.0122 42.4851ZM43.798 49.0497C43.566 49.3446 43.5785 49.7009 43.8296 49.9519L44.0325 50.1549H45.893C47.8685 50.1549 48.0893 50.1189 48.2484 49.7698C48.3897 49.4596 48.3589 49.2565 48.1371 49.0348L47.9342 48.8318H45.9518H43.9693L43.798 49.0497ZM56.4442 53.2146V57.1839H57.5605H58.6769V53.2146V49.2453H57.5605H56.4442V53.2146ZM43.4086 51.5748C43.0269 51.7596 42.9448 52.2922 43.2507 52.5981L43.4537 52.8011H45.9315C47.2943 52.8011 48.4696 52.778 48.5432 52.7498C48.6939 52.6919 48.919 52.3004 48.919 52.096C48.919 52.022 48.8103 51.8527 48.6773 51.7198L48.4356 51.478L46.0104 51.4837C44.521 51.4871 43.5171 51.5222 43.4086 51.5748ZM44.4039 54.2391C44.116 54.368 44.0401 54.5083 44.0401 54.9106C44.0401 55.111 44.1001 55.2345 44.258 55.3586C44.4622 55.5194 44.5813 55.53 46.1663 55.53H47.8567L48.0984 55.2883C48.3941 54.9927 48.4075 54.7081 48.1407 54.3976L47.9413 54.1656L46.3007 54.1449C45.0432 54.1291 44.6004 54.1511 44.4039 54.2391ZM45.1079 56.9592C44.8855 57.1298 44.7702 57.4275 44.8267 57.6848C44.9242 58.1289 45.0937 58.1763 46.5844 58.1763C47.9072 58.1763 47.9382 58.1722 48.1371 57.9732C48.359 57.7515 48.3927 57.5199 48.244 57.2405C48.0537 56.8833 47.9443 56.8584 46.5622 56.8584C45.6491 56.8584 45.1984 56.8896 45.1079 56.9592Z" fill="white" stroke="#E32721" stroke-width="0.3"/>
</g>
<defs>
<clipPath id="clip0_504_7323">
<rect width="46" height="46" fill="white" transform="translate(14 14)"/>
</clipPath>
</defs>
</svg>
