<svg width="74" height="74" viewBox="0 0 74 74" fill="none" xmlns="http://www.w3.org/2000/svg">
<rect width="74" height="74" rx="5" fill="#E32721"/>
<path d="M14 18H34C39.5228 18 44 22.4772 44 28V48H24C18.4772 48 14 43.5228 14 38V18Z" fill="white" fill-opacity="0.2"/>
<path fill-rule="evenodd" clip-rule="evenodd" d="M36.4502 27.023C36.2777 27.0534 32.7511 27.4766 28.6132 27.9634C23.5627 28.5576 20.969 28.925 20.7223 29.0808C20.047 29.5078 19.6897 30.6034 19.684 32.2647C19.6799 33.4761 19.7411 33.8778 20.0121 34.4199L20.345 35.086L20.024 35.7347C19.5436 36.7057 19.4801 38.5117 19.8845 39.7042L20.2016 40.6388L19.8182 41.2929C18.3704 43.7634 18.9451 49.0855 20.7483 49.905C21.0464 50.0405 25.5776 50.6365 32.0307 51.3891L42.8149 52.6468L44.8834 52.4032C46.021 52.2692 47.1458 52.1211 47.3828 52.0742L47.8138 51.989V53.3808C47.8138 54.2542 47.8839 54.8426 48.0019 54.9606C48.4003 55.359 48.761 55.1507 49.3713 54.1691C50.4699 52.4025 50.3169 52.4548 51.1641 53.5559C52.3393 55.0832 52.8295 54.8579 52.8295 52.7902V51.4351L55.7665 51.0857C57.3818 50.8937 58.7959 50.6597 58.9088 50.5659C59.2307 50.2988 59.0635 49.7645 58.5867 49.5368C58.0158 49.2641 57.7558 48.842 57.4613 47.7098C57.0312 46.0572 57.2583 43.5263 57.9285 42.5018C58.0519 42.3134 58.3481 42.0656 58.5867 41.9512C59.1376 41.6871 59.1865 41.0365 58.6724 40.8109C58.1619 40.5869 57.9235 39.8622 57.9235 38.5343C57.9235 37.2064 58.1619 36.4816 58.6724 36.2576C58.8986 36.1584 59.0207 35.9675 59.0207 35.713C59.0207 35.4584 58.8986 35.2675 58.6724 35.1683C58.1619 34.9443 57.9235 34.2195 57.9235 32.8916C57.9235 31.5637 58.1619 30.839 58.6724 30.615C59.0746 30.4385 59.2086 29.8862 58.9096 29.638C58.797 29.5446 54.1914 28.939 48.6748 28.2923C38.1163 27.0543 36.9555 26.9338 36.4502 27.023ZM32.4533 28.7382C26.9561 29.4188 27.3122 29.3644 27.5944 29.4804C27.7237 29.5335 31.1992 29.9688 35.3179 30.4478L42.8063 31.3184L47.6611 30.7401C50.3313 30.422 52.516 30.1231 52.516 30.0761C52.516 30.0051 39.4406 28.4336 37.3906 28.2581C37.0458 28.2286 34.824 28.4446 32.4533 28.7382ZM21.1759 30.4996C20.7461 31.4257 20.8133 33.5191 21.2969 34.2664C21.3677 34.376 21.894 34.5094 22.4663 34.5628L23.5071 34.66L23.4124 33.32C23.3533 32.4825 23.3881 31.7017 23.505 31.2371C23.6078 30.8285 23.6356 30.4429 23.5665 30.3802C23.4973 30.3177 22.9763 30.2216 22.4086 30.1667C21.3945 30.0686 21.3732 30.0744 21.1759 30.4996ZM24.7917 31.2369C24.569 32.1209 24.5676 33.3427 24.7879 34.2183C24.9538 34.8769 24.9824 34.9018 25.6326 34.9539L26.3055 35.0076L26.2235 33.8122C26.0895 31.8579 26.352 31.1576 27.1263 31.4032C27.356 31.4761 27.4086 31.7545 27.4686 33.2134C27.5078 34.1615 27.605 34.999 27.6846 35.0746C27.7643 35.1499 30.6508 35.5368 34.0991 35.9341C37.5473 36.3315 40.5701 36.6909 40.8161 36.7327C41.1934 36.797 41.2467 36.7659 41.1549 36.5352C40.9135 35.9291 40.8934 33.9078 41.1215 33.1766L41.3503 32.4427L40.7812 32.3531C39.9033 32.215 25.5444 30.5405 25.2378 30.5405C25.0481 30.5405 24.9144 30.7493 24.7917 31.2369ZM49.7014 31.7379C45.219 32.2836 42.689 32.6548 42.6094 32.7782C42.0136 33.702 42.0665 36.268 42.6918 36.7869C42.8371 36.9076 44.7125 36.7373 49.3898 36.1783C52.9627 35.7515 56.142 35.3615 56.4552 35.3119L57.0243 35.2214L56.7955 34.4876C56.5672 33.7561 56.5875 31.7351 56.829 31.1283C56.889 30.9775 56.8777 30.8619 56.8039 30.8716C56.7301 30.8813 53.5339 31.2711 49.7014 31.7379ZM21.1751 36.144C20.7486 37.063 20.8136 39.1633 21.2914 39.9001C21.3986 40.0656 32.6279 41.5123 33.8045 41.5123C34.171 41.5123 34.1734 41.5014 34.0881 40.1409C34.0409 39.3866 34.063 38.5631 34.1371 38.3112C34.3092 37.7258 34.7085 37.4565 35.0676 37.6832C35.2851 37.8203 35.3334 38.1336 35.3448 39.4849C35.3614 41.4159 35.5216 41.8258 36.2597 41.8258H36.7636L36.7898 40.0625C36.8041 39.0927 36.8393 38.1267 36.8682 37.9159L36.9204 37.5329L29.3185 36.6313C25.1375 36.1355 21.6398 35.7261 21.5459 35.7214C21.4519 35.7167 21.2851 35.9068 21.1751 36.144ZM49.7006 37.3804C45.2522 37.9238 42.6871 38.3006 42.6086 38.4222C42.0136 39.3445 42.0669 41.9109 42.6918 42.4296C42.8371 42.5503 44.7125 42.3799 49.3898 41.8209C52.9627 41.3941 56.139 41.0048 56.4483 40.9556L57.0107 40.8664L56.7901 40.0531C56.5732 39.2526 56.5964 37.3659 56.8304 36.7709C56.8897 36.62 56.8777 36.5039 56.8039 36.5128C56.7301 36.5216 53.5335 36.912 49.7006 37.3804ZM38.2406 38.0847C37.9665 38.5946 37.8668 40.6667 38.0787 41.4507L38.2527 42.0945L39.7025 42.2485C40.5 42.3332 41.1661 42.3943 41.1829 42.3841C41.1997 42.3739 41.1484 42.0854 41.0691 41.743C40.8594 40.8387 40.8857 39.6294 41.1329 38.8081L41.3484 38.0916L40.8586 38.0057C40.5892 37.9586 39.9348 37.8735 39.4044 37.8167C38.5 37.72 38.4279 37.7366 38.2406 38.0847ZM21.118 41.6377C20.0472 42.8209 19.9676 47.0128 20.9893 48.4048C21.2329 48.7365 22.3484 49.1615 22.5215 48.9885C22.5502 48.9598 22.4621 48.412 22.3255 47.7713C22.0111 46.2952 22.1116 43.8702 22.5434 42.5089L22.8487 41.5463L22.2826 41.4526C21.4621 41.3169 21.3994 41.3269 21.118 41.6377ZM23.9367 42.3352C23.2826 44.065 23.1998 46.6083 23.7411 48.352C23.9644 49.0717 24.045 49.1655 24.4995 49.2347C24.7793 49.2774 25.0246 49.2981 25.0448 49.281C25.065 49.2637 24.9699 48.7255 24.8334 48.0847C24.5188 46.6078 24.6194 44.1836 25.0517 42.8208L25.3575 41.8565L24.889 41.7628C24.1956 41.6241 24.2086 41.6162 23.9367 42.3352ZM26.452 42.633C26.0426 43.7214 25.8782 44.6429 25.874 45.8702C25.8705 46.9373 26.2049 48.8825 26.4629 49.2957C26.5757 49.4763 34.9165 50.5434 35.0638 50.396C35.1042 50.3556 35.0271 49.7891 34.8925 49.1373C34.5052 47.2619 34.6075 45.3213 35.2003 43.3065C35.2915 42.9963 35.16 42.9692 31.5622 42.5534C29.5092 42.3161 27.5773 42.0836 27.269 42.0366C26.7265 41.954 26.7002 41.9731 26.452 42.633ZM48.9955 43.1045C44.3296 43.6782 42.6621 43.9379 42.458 44.1227C41.3215 45.1512 41.3293 50.1062 42.4691 51.1377C42.7317 51.3753 42.9132 51.3769 44.7746 51.1564C45.8857 51.0247 47.0243 50.8785 47.3044 50.8314L47.8138 50.7457V48.9092C47.8138 47.1548 47.798 47.0656 47.4611 46.9178C46.9625 46.699 46.9097 46.1021 47.3721 45.9089C47.5719 45.8253 48.9923 45.6086 50.5285 45.4272C52.6978 45.1709 53.3718 45.1388 53.5458 45.2832C53.9904 45.6523 53.7036 46.3713 53.1116 46.3713C52.8556 46.3713 52.8295 46.5454 52.8295 48.2521C52.8295 50.0998 52.8357 50.1329 53.1821 50.1274C53.7766 50.1178 56.582 49.7242 56.6679 49.6383C56.7124 49.5938 56.5937 49.1404 56.4044 48.6305C55.9553 47.4216 55.9116 44.1948 56.3296 43.0992C56.4735 42.722 56.5912 42.3869 56.5912 42.3546C56.5912 42.2125 54.8567 42.3836 48.9955 43.1045ZM36.519 43.4112C35.9268 44.5175 35.7296 47.5255 36.1447 49.1205C36.4716 50.3771 36.7415 50.76 37.3005 50.76H37.7517L37.506 50.0155C37.1439 48.9191 37.1466 45.3249 37.5102 44.1876C37.6599 43.7194 37.7824 43.3216 37.7824 43.3036C37.7824 43.2855 37.5307 43.2413 37.2232 43.2054C36.8078 43.157 36.6266 43.2098 36.519 43.4112ZM39.0497 43.6818C38.6893 44.3551 38.4094 45.8724 38.4094 47.1521C38.4094 48.4901 38.8187 50.4482 39.1723 50.8018C39.3669 50.9965 40.9172 51.2304 40.9172 51.065C40.9172 51.0051 40.7995 50.6474 40.6556 50.2703C40.237 49.1731 40.2813 45.9479 40.7315 44.7357C41.1172 43.6971 41.0524 43.5565 40.1856 43.5523C39.9124 43.551 39.5828 43.5092 39.453 43.4594C39.3119 43.4053 39.1498 43.4945 39.0497 43.6818ZM50.2041 46.7206L49.0677 46.8713V49.5517V52.2321L49.5345 51.496C50.1071 50.593 50.4422 50.5611 51.0848 51.3478L51.565 51.9355L51.5702 49.2318C51.5732 47.7446 51.5226 46.5374 51.458 46.549C51.3934 46.5606 50.8292 46.6377 50.2041 46.7206Z" fill="white"/>
</svg>
