<svg width="50" height="40" viewBox="0 0 50 40" fill="none" xmlns="http://www.w3.org/2000/svg">
<g clip-path="url(#clip0_543_7260)">
<path d="M0 5.4375H20C25.5228 5.4375 30 9.91465 30 15.4375V35.4375H10C4.47715 35.4375 0 30.9603 0 25.4375V5.4375Z" fill="#1C3761" fill-opacity="0.2"/>
<path fill-rule="evenodd" clip-rule="evenodd" d="M21.4651 0.0957017C21.0085 0.218742 20.3698 0.625353 20.1221 0.950798C19.6491 1.57203 19.5569 1.85552 19.5569 2.68799C19.5569 3.35853 19.5831 3.51985 19.7401 3.81398C19.9557 4.21825 19.9585 4.21535 19.1665 4.4021C18.4836 4.5631 18.1614 4.75972 17.8465 5.20781C17.4846 5.72267 17.4886 6.0802 17.8741 7.70767C18.1018 8.66866 18.2557 9.16121 18.3665 9.28222C18.639 9.58019 19.1418 9.47735 19.2877 9.09375C19.3456 8.94151 19.29 8.58773 19.0491 7.57437C18.8763 6.84787 18.7351 6.18203 18.7351 6.09484C18.7351 5.77934 19.0007 5.64784 20.2302 5.35488C20.89 5.19771 21.4927 5.01214 21.5696 4.94263C21.6526 4.86749 21.7093 4.70587 21.7093 4.54455C21.7093 4.31687 21.6444 4.21441 21.3073 3.91096C20.8461 3.49558 20.6918 3.19096 20.6918 2.69559C20.6918 2.05542 20.9971 1.58549 21.5919 1.31013C21.9554 1.14185 22.2823 1.12448 22.6565 1.25347C23.5676 1.56772 23.9389 2.51471 23.5101 3.43038C23.2923 3.89523 23.3437 4.17622 23.6806 4.36539C23.8726 4.47317 23.9878 4.459 25.1571 4.18389C26.4221 3.88623 26.4259 3.88583 26.6272 4.03611C26.7733 4.14522 26.8672 4.33635 26.9676 4.7288C27.044 5.02693 27.1072 5.2925 27.1081 5.31887C27.1091 5.34525 26.8891 5.38462 26.6193 5.40622C25.7314 5.47753 24.9203 6.03872 24.4714 6.89233C24.2779 7.26012 24.2538 7.38817 24.2535 8.04947C24.2532 8.70396 24.2791 8.84594 24.4699 9.23463C24.7353 9.775 25.2535 10.2664 25.8424 10.5359C26.4223 10.8015 27.2612 10.8169 27.8778 10.5733C28.1725 10.4568 28.3024 10.4358 28.3244 10.5011C28.6395 11.4324 28.6075 11.8805 28.2151 12.0311C27.9617 12.1283 21.0579 13.7632 20.9009 13.7632C20.5886 13.7632 20.4543 13.4957 20.174 12.3152C20.0206 11.6694 19.84 11.0795 19.7726 11.0042C19.6069 10.8189 19.1127 10.8226 18.9429 11.0103C18.7546 11.2184 18.7802 11.5238 19.0961 12.8393C19.3723 13.9894 19.3872 14.0254 19.7418 14.3909C20.2978 14.964 20.7432 15.0473 21.8032 14.7767C22.149 14.6884 22.4465 14.6308 22.4643 14.6485C22.4822 14.6664 22.3795 15.2054 22.2363 15.8462C22.0004 16.9018 21.9616 17.0078 21.823 16.9732C21.586 16.9141 20.8333 16.9264 20.594 16.9933C20.3966 17.0485 20.3787 17.0355 20.378 16.8367C20.3761 16.3021 19.8667 15.5913 19.2609 15.278C18.9041 15.0934 18.211 15.0563 17.8001 15.1995L17.452 15.3208L17.1932 15.0185C16.5016 14.2105 15.2143 14.1207 14.4336 14.8261C14.2668 14.9768 14.1117 15.07 14.0889 15.0331C14.0661 14.9962 13.9709 14.7613 13.8772 14.5109C13.534 13.5938 12.8725 13.106 11.9647 13.1009C11.1377 13.0963 10.515 13.4765 10.1627 14.2012C9.83643 14.872 9.87987 15.0822 11.4461 20.4161C12.2362 23.1066 12.9702 25.4714 13.0772 25.6711C13.1842 25.8709 13.4179 26.1935 13.5966 26.3881C13.8256 26.6374 19.3212 31.4678 20.8461 32.7599C20.8664 32.7771 21.0678 34.1717 21.2938 35.859C21.6908 38.8236 21.7115 38.9328 21.907 39.103C22.2257 39.3803 22.5814 39.3086 22.7851 38.926C22.8485 38.8067 22.7662 38.0008 22.4453 35.6015C22.2124 33.8595 22.0029 32.375 21.9798 32.3024C21.9568 32.2297 20.4336 30.8562 18.595 29.2501C14.7144 25.8601 14.3075 25.4837 14.1143 25.106C13.9305 24.7466 11.1429 15.2342 11.1429 14.9665C11.1429 14.6519 11.6073 14.2328 11.9557 14.2328C12.4824 14.2328 12.6048 14.4389 13.5672 16.9491L14.4437 19.2348L14.2429 19.4981C13.7812 20.1033 13.6756 21.0042 13.9726 21.8024C14.1262 22.215 14.3412 22.4578 16.3863 24.5252C17.8322 25.9871 18.7895 27.0221 19.0755 27.4327C19.5186 28.0691 19.6289 28.1648 19.9191 28.1648C20.1342 28.1648 20.457 27.8186 20.457 27.5879C20.457 27.147 19.6659 26.1904 17.4388 23.9382C16.2256 22.7113 15.1756 21.5948 15.1055 21.4571C14.5703 20.4047 15.748 19.2266 16.8018 19.7603C16.9396 19.83 17.88 20.7065 18.8916 21.7081C19.9032 22.7096 20.9247 23.6514 21.1614 23.801C21.3982 23.9507 22.486 24.522 23.5788 25.0708C25.0862 25.8278 25.6434 26.1477 25.8877 26.3964C26.0764 26.5884 26.4954 27.2488 26.8991 27.9902C27.7922 29.6309 27.8338 29.8277 27.5563 31.1062C27.2928 32.3199 27.247 32.7593 27.3134 33.4329C27.3555 33.8608 27.4091 34.0282 27.5485 34.1676C27.7681 34.3872 28.0475 34.3988 28.2949 34.1984C28.4703 34.0565 28.48 33.9999 28.486 33.0831C28.491 32.3251 28.5319 31.9743 28.6762 31.4521C28.8061 30.982 28.8601 30.5802 28.8602 30.0824C28.8604 29.229 28.7586 28.9515 27.8075 27.2129C26.8664 25.4927 26.6528 25.2971 24.6199 24.292L23.0399 23.5109V22.8636C23.0399 22.5075 23.0562 22.2163 23.076 22.2163C23.0959 22.2163 23.4149 22.2869 23.785 22.3731C24.533 22.5476 24.7423 22.5262 25.0029 22.2488C25.1917 22.0479 25.2074 21.8842 25.1118 21.1125C25.0399 20.5322 25.2429 20.0525 25.7008 19.7209C26.1365 19.4052 26.6123 19.3367 27.0937 19.5204C27.5605 19.6985 27.8275 19.9655 28.0056 20.4324C28.2052 20.9554 28.1237 21.397 27.7316 21.9189C27.5293 22.188 27.423 22.4118 27.423 22.5686C27.423 22.8299 27.5864 23.1118 27.8061 23.2293C28.0625 23.3666 29.7076 23.7034 30.1215 23.7034C31.0109 23.7034 31.5943 23.1208 31.8391 21.9881C31.9563 21.4455 31.9984 21.3534 32.1074 21.401C32.7472 21.681 33.1277 21.7612 33.6455 21.7255C34.3301 21.6782 34.8277 21.4637 35.3188 21.0044C35.8808 20.4787 36.1484 19.8478 36.1492 19.0464C36.1498 18.5325 36.113 18.3413 35.9438 17.9803C35.5059 17.0463 34.6839 16.4679 33.6579 16.3721C33.1339 16.3231 33.1232 16.3177 33.1589 16.1188C33.179 16.0071 33.2416 15.6636 33.2981 15.3556C33.4138 14.7248 33.3512 14.38 33.0364 13.9126C32.7583 13.4996 32.3335 13.3198 30.8191 12.9741C30.049 12.7983 29.4112 12.6466 29.4017 12.6371C29.392 12.6275 29.4578 12.4712 29.5476 12.2895C29.7702 11.8395 29.7587 11.3894 29.4965 10.2899C29.229 9.16841 29.0586 8.91044 28.5854 8.91044C28.3507 8.91044 28.1867 8.97751 27.9158 9.18438C27.4339 9.55233 27.0194 9.66183 26.5635 9.54168C25.2528 9.1962 24.9644 7.55121 26.0811 6.79011C26.3365 6.61604 26.4226 6.60289 27.1974 6.62011L28.0369 6.63874L28.2387 6.39884C28.3497 6.26696 28.4405 6.08936 28.4405 6.0042C28.4405 5.67594 27.962 3.86744 27.7978 3.57534C27.5849 3.19659 27.0465 2.82896 26.6085 2.76329C26.3916 2.73073 26.0461 2.76947 25.5928 2.87709C25.2151 2.96679 24.8984 3.04021 24.8892 3.04021C24.8799 3.04021 24.8677 2.8461 24.8622 2.60879C24.8215 0.869867 23.1583 -0.360533 21.4651 0.0957017ZM35.0934 1.99077C34.6498 2.18261 34.3313 2.55603 34.0694 3.19103C33.935 3.51703 33.7981 3.81265 33.765 3.84803C33.7319 3.88333 33.5506 3.80475 33.362 3.67333C32.911 3.359 32.1433 3.16591 31.6094 3.2326C30.644 3.35321 29.7193 4.07165 29.3837 4.96181C29.2393 5.34455 29.2141 5.53889 29.2422 6.05359C29.2807 6.76037 29.4572 7.21136 29.8963 7.72418C30.2059 8.08594 30.9961 8.50931 31.4838 8.57474C31.6611 8.59853 31.8061 8.62608 31.8061 8.63602C31.8061 8.64596 31.6999 8.91177 31.57 9.22665C31.4401 9.5416 31.3136 9.92653 31.2887 10.0821C31.2004 10.6339 31.5349 11.3903 32.0028 11.6968C32.271 11.8726 34.3894 12.7457 34.5477 12.7457C34.8051 12.7457 35.0934 12.4388 35.0934 12.165C35.0934 11.8002 34.9176 11.6756 33.6977 11.1754C32.2277 10.5727 32.2615 10.6577 32.8844 9.12936C33.1528 8.4708 33.3722 7.87516 33.372 7.80566C33.3717 7.73616 33.2954 7.58251 33.2024 7.46425C33.046 7.26536 33.0063 7.2537 32.674 7.30904C32.4765 7.34191 32.1009 7.37228 31.8394 7.37651C31.23 7.38637 30.8118 7.13434 30.5542 6.60226C29.9788 5.41374 31.0261 4.11258 32.2851 4.45157C32.6524 4.5505 33.1544 5.00337 33.3858 5.44465C33.5452 5.7485 33.861 5.85244 34.1434 5.69386C34.29 5.61153 34.4614 5.29054 34.8269 4.41384C35.3066 3.26328 35.4539 3.04021 35.7338 3.04021C35.9211 3.04021 36.9066 3.43711 36.8774 3.5009C36.8648 3.52838 36.7488 3.76178 36.6197 4.01952C36.2959 4.66579 36.2521 5.52692 36.5082 6.20958C36.7467 6.84506 37.3872 7.48969 38.0125 7.72363C38.6102 7.94725 39.3946 7.95069 39.9786 7.73216C40.7739 7.43466 41.5112 6.57244 41.6356 5.79475C41.6645 5.61426 41.7196 5.46657 41.7581 5.46657C41.893 5.46657 42.8759 5.94237 42.9358 6.03661C42.969 6.08897 42.997 6.21992 42.9977 6.32754C42.9998 6.58864 40.2787 13.2056 40.077 13.4305C39.99 13.5274 39.8435 13.6066 39.7513 13.6066C39.6591 13.6066 39.0314 13.3777 38.3565 13.0979C37.6815 12.8181 37.0234 12.5891 36.894 12.5891C36.4263 12.5891 36.1619 13.188 36.4863 13.5124C36.7223 13.7484 39.1547 14.7212 39.6127 14.7627C40.1477 14.8113 40.8031 14.5104 41.0824 14.0881C41.1863 13.9309 41.9122 12.2526 42.6955 10.3584C44.2926 6.49613 44.3527 6.27909 44.017 5.58577C43.7843 5.10489 43.5103 4.91367 42.3908 4.45032C41.2788 3.99009 41.0426 3.96677 40.7237 4.28571C40.5167 4.49266 40.4964 4.56021 40.5033 5.01934C40.5123 5.61865 40.4618 5.81143 40.2065 6.15213C39.7031 6.824 38.6178 6.9137 37.9616 6.33763C37.528 5.95716 37.3874 5.08814 37.6713 4.54377C37.7545 4.3841 37.9659 4.12088 38.1409 3.95894C38.4117 3.70832 38.459 3.61745 38.459 3.34875C38.459 2.89995 38.2697 2.7485 37.1147 2.27387C36.0367 1.83086 35.6034 1.7702 35.0934 1.99077ZM47.5379 13.1278C46.8814 13.3412 46.3917 13.8239 46.1346 14.5109C46.041 14.7613 45.9457 14.9962 45.9229 15.0331C45.9001 15.07 45.745 14.9768 45.5782 14.8261C44.7975 14.1207 43.5103 14.2105 42.8186 15.0185L42.5598 15.3208L42.2118 15.1995C41.8008 15.0563 41.1078 15.0934 40.7509 15.278C40.1433 15.5922 39.6357 16.3022 39.6339 16.8405C39.6332 17.0359 39.613 17.0538 39.457 16.997C39.3601 16.9619 39.0508 16.9331 38.7697 16.9331C38.1288 16.9331 37.5931 17.1875 37.2291 17.6647C36.8027 18.2238 36.7867 18.3865 36.8951 21.0645C36.9487 22.3897 36.9792 23.4859 36.9628 23.5006C36.9462 23.5153 36.2107 23.89 35.3283 24.3334C33.308 25.3483 33.1434 25.5002 32.2051 27.2129C31.2537 28.9499 31.1514 29.2286 31.1516 30.0824C31.1517 30.5806 31.2056 30.9816 31.3358 31.4521C31.654 32.6023 31.6062 33.254 30.9949 36.1026C30.7092 37.4335 30.4755 38.6197 30.4755 38.7386C30.4755 39.1204 30.9771 39.3932 31.3309 39.2038C31.5438 39.0899 31.6013 38.8866 32.1631 36.2657C32.7997 33.2961 32.8351 32.7147 32.4757 31.1453C32.2773 30.2792 32.2623 30.1232 32.3383 29.7147C32.449 29.1195 33.6631 26.8656 34.1277 26.3928C34.3789 26.1371 34.9192 25.8291 36.4914 25.0453C37.6124 24.4866 38.6985 23.9154 38.9052 23.776C39.1118 23.6367 40.1086 22.7046 41.1202 21.7049C42.1318 20.7051 43.0723 19.83 43.21 19.7603C44.2638 19.2266 45.4416 20.4047 44.9063 21.4571C44.8362 21.5948 43.7862 22.7113 42.573 23.9382C40.3459 26.1904 39.5548 27.147 39.5548 27.5879C39.5548 27.8186 39.8776 28.1648 40.0928 28.1648C40.3829 28.1648 40.4932 28.0691 40.9364 27.4327C41.2224 27.0221 42.1796 25.9871 43.6255 24.5252C45.6706 22.4578 45.8857 22.215 46.0392 21.8024C46.3286 21.0247 46.222 20.0921 45.7771 19.5089L45.5681 19.2348L46.4446 16.9491C47.4071 14.4389 47.5294 14.2328 48.0562 14.2328C48.4045 14.2328 48.8689 14.6519 48.8689 14.9665C48.8689 15.2342 46.0813 24.7466 45.8976 25.106C45.8187 25.2601 45.6714 25.4746 45.5701 25.5826C45.4688 25.6907 43.7408 27.2169 41.7299 28.9745C39.7192 30.732 38.0551 32.2294 38.032 32.3021C38.0089 32.3748 37.7995 33.8593 37.5666 35.6009C37.1929 38.3954 37.1557 38.7917 37.2503 38.9746C37.4323 39.3265 37.7867 39.3798 38.1048 39.103C38.3003 38.9328 38.321 38.8236 38.7192 35.8498C38.946 34.1574 39.1679 32.7485 39.2123 32.719C39.2568 32.6895 40.9107 31.2502 42.8875 29.5205C45.2137 27.4852 46.5711 26.2425 46.7353 25.998C47.0707 25.4981 47.0774 25.4776 48.6452 20.1421C49.7995 16.214 50.0019 15.4482 50 15.0155C49.9965 14.2211 49.6036 13.5919 48.9005 13.2544C48.5661 13.0939 47.8474 13.0271 47.5379 13.1278ZM25.5549 13.8824C24.592 14.114 23.7956 14.3139 23.785 14.3268C23.7744 14.3396 23.4584 15.7376 23.0827 17.4333L22.3997 20.5165L22.5494 20.717C22.6894 20.9045 22.9467 21.0051 23.6361 21.1422L23.8801 21.1907L23.9207 20.6856C23.9977 19.7257 24.5919 18.9095 25.5308 18.4741C25.8919 18.3066 26.0925 18.2677 26.6028 18.2659C27.157 18.2639 27.292 18.2939 27.754 18.5213C28.354 18.8167 28.7564 19.2342 29.0522 19.8682C29.3225 20.4474 29.3387 21.3695 29.0883 21.9213C28.9958 22.1249 28.9464 22.3077 28.9783 22.3275C29.1216 22.416 30.0806 22.5472 30.2583 22.5026C30.5039 22.441 30.5777 22.2624 30.8303 21.1205C31.158 19.6388 31.2052 19.5551 31.7133 19.5551C31.8924 19.5551 32.0099 19.6357 32.2404 19.9171C32.7461 20.5343 33.4559 20.7264 34.1183 20.4255C35.5159 19.7907 35.1594 17.7286 33.6206 17.5463C33.3046 17.5089 33.1499 17.5384 32.784 17.7059C32.243 17.9536 32.1968 17.9559 31.9341 17.7492C31.6637 17.5366 31.668 17.3556 31.9754 15.974C32.2605 14.6928 32.2349 14.5248 31.7339 14.3922C31.1022 14.2251 27.5398 13.4505 27.4272 13.4558C27.3603 13.4589 26.5178 13.6509 25.5549 13.8824ZM15.3998 15.5618C14.8185 15.7967 14.7219 16.7131 15.1607 17.8332L15.4212 18.4985L16.0411 18.4702C16.382 18.4547 16.6655 18.4371 16.6711 18.4311C16.725 18.3735 16.4707 16.0273 16.3956 15.8894C16.2997 15.7133 15.8728 15.4798 15.6655 15.49C15.6103 15.4928 15.4908 15.5251 15.3998 15.5618ZM43.9637 15.5962C43.8272 15.6572 43.6707 15.7893 43.6161 15.8897C43.541 16.0274 43.2869 18.3735 43.3407 18.4311C43.3463 18.4371 43.6299 18.4547 43.9707 18.4702L44.5906 18.4985L44.8512 17.8332C45.061 17.2974 45.1117 17.0577 45.1118 16.6017C45.112 16.0933 45.09 16.0113 44.8967 15.7992C44.64 15.5174 44.3034 15.4442 43.9637 15.5962ZM17.9624 16.4293C17.7011 16.5886 17.6989 16.5946 17.7455 17.0356C17.7713 17.2805 17.8157 17.8387 17.844 18.2759L17.8955 19.0707L18.6176 19.7899L19.3396 20.5089L19.3134 20.1299C19.299 19.9213 19.2723 19.0948 19.2542 18.2931C19.2185 16.7176 19.1748 16.5428 18.7694 16.3581C18.4824 16.2273 18.2617 16.2468 17.9624 16.4293ZM41.1809 16.3898C41.0635 16.4534 40.9277 16.58 40.8791 16.671C40.8262 16.7697 40.7772 17.424 40.7576 18.2936C40.7394 19.0951 40.7128 19.9213 40.6984 20.1299L40.6722 20.5089L41.3942 19.7899L42.1163 19.0707L42.1679 18.2759C42.1961 17.8387 42.2405 17.2805 42.2663 17.0356C42.313 16.5946 42.3108 16.5886 42.0494 16.4293C41.7404 16.2409 41.4773 16.229 41.1809 16.3898ZM20.8725 18.147C20.7781 18.185 20.6411 18.3074 20.568 18.419C20.4492 18.6004 20.441 18.7856 20.4909 20.1647L20.5468 21.7075L20.7954 21.9715C20.9322 22.1167 21.2201 22.3767 21.4354 22.5494L21.8267 22.8635L21.8659 22.3638C21.9026 21.8943 21.8898 21.8438 21.6538 21.5296C21.4067 21.2005 21.239 20.763 21.2422 20.4552C21.2431 20.3691 21.3473 19.8408 21.4739 19.2812C21.6862 18.3424 21.6939 18.2561 21.5742 18.1658C21.4261 18.0541 21.1235 18.0459 20.8725 18.147ZM38.372 18.1811C37.9812 18.4017 37.9591 18.5861 38.0595 20.7869C38.1098 21.8915 38.1628 22.8071 38.1773 22.8216C38.2157 22.8601 38.9279 22.2777 39.2168 21.9715L39.4658 21.7075L39.5211 20.1394L39.5763 18.5713L39.3894 18.354C39.1612 18.0887 38.6805 18.007 38.372 18.1811ZM28.0628 35.9381C27.8439 36.1711 27.8468 36.2393 28.1315 37.573C28.4066 38.8621 28.4868 39.0999 28.6809 39.2038C29.053 39.4029 29.538 39.1197 29.5336 38.7059C29.5288 38.2422 29.0109 36.0682 28.8677 35.9099C28.6745 35.6964 28.2768 35.7103 28.0628 35.9381Z" fill="white"/>
</g>
<defs>
<clipPath id="clip0_543_7260">
<rect width="50" height="40" fill="white"/>
</clipPath>
</defs>
</svg>
