<svg width="50" height="40" viewBox="0 0 50 40" fill="none" xmlns="http://www.w3.org/2000/svg">
<g clip-path="url(#clip0_543_7252)">
<path d="M0 5.4375H20C25.5228 5.4375 30 9.91465 30 15.4375V35.4375H10C4.47715 35.4375 0 30.9603 0 25.4375V5.4375Z" fill="#1C3761" fill-opacity="0.2"/>
<path fill-rule="evenodd" clip-rule="evenodd" d="M29.7201 0.128245C29.6087 0.239673 29.5918 0.609796 29.5918 2.94457V5.63265H27.6082C26.1741 5.63265 25.5973 5.65983 25.5265 5.73061C25.4598 5.7973 25.4286 6.18775 25.4286 6.9551V8.08163H24.0127C22.7446 8.08163 22.5826 8.09722 22.4616 8.23094C22.3493 8.35502 22.3265 8.57518 22.3265 9.53706V10.6939H18.0816C13.9456 10.6939 13.8326 10.698 13.6735 10.8571C13.5117 11.0189 13.5102 11.1292 13.5102 23.3877V35.7551H12.8109C11.8043 35.7551 11.7959 35.7628 11.7959 36.6967V37.4694H11.0262C9.98825 37.4694 10 37.4548 10 38.7347C10 39.5428 10.0255 39.769 10.1283 39.8717C10.2442 39.9876 12.1603 40 30 40C47.8398 40 49.7558 39.9876 49.8717 39.8717C49.9745 39.769 50 39.5428 50 38.7347C50 37.4548 50.0117 37.4694 48.9738 37.4694H48.2041V36.6967C48.2041 35.7628 48.1957 35.7551 47.1891 35.7551H46.4898V23.3877C46.4898 11.1292 46.4883 11.0189 46.3265 10.8571C46.1674 10.698 46.0544 10.6939 41.9184 10.6939H37.6735V9.52285C37.6735 8.49208 37.6556 8.33567 37.5242 8.21673C37.3975 8.10204 37.1629 8.08163 35.9731 8.08163H34.5714V6.9551C34.5714 6.18775 34.5402 5.7973 34.4735 5.73061C34.4027 5.65983 33.8259 5.63265 32.3918 5.63265H30.4082V4.61224V3.59184H32.3237C34.1339 3.59184 34.2438 3.58318 34.3237 3.43396C34.451 3.19592 34.4426 3.17437 33.9538 2.49314C33.7039 2.1449 33.5183 1.81102 33.5412 1.7511C33.5642 1.69126 33.7687 1.38702 33.9956 1.07502C34.4482 0.452816 34.4809 0.336 34.2589 0.135102C34.128 0.016653 33.847 0 31.979 0C30.1509 0 29.8302 0.0182041 29.7201 0.128245ZM30.4082 1.79592V2.77551H31.7599C32.8198 2.77551 33.0984 2.75347 33.0501 2.67347C33.0162 2.61739 32.8855 2.42816 32.7596 2.25306C32.6336 2.07796 32.5306 1.872 32.5306 1.79543C32.5306 1.71877 32.6592 1.48775 32.8163 1.28196C32.9735 1.07616 33.102 0.887183 33.102 0.86204C33.102 0.836898 32.4959 0.816326 31.7551 0.816326H30.4082V1.79592ZM26.2449 7.2653V8.08163H30H33.7551V7.2653V6.44898H30H26.2449V7.2653ZM23.1429 22.3265V35.7551H23.8367H24.5306V31.7677C24.5306 28.0086 24.5392 27.7726 24.6799 27.6453C24.8155 27.5226 25.3041 27.5102 30.0142 27.5102C34.9336 27.5102 35.2061 27.5179 35.3343 27.6595C35.4561 27.7941 35.4694 28.1994 35.4694 31.7819V35.7551H36.1633H36.8571V22.3265V8.89796H30H23.1429V22.3265ZM14.4082 23.6326V35.7551H18.3674H22.3265V23.6326V11.5102H18.3674H14.4082V23.6326ZM37.6735 23.6326V35.7551H41.6326H45.5918V23.6326V11.5102H41.6326H37.6735V23.6326ZM16.1837 13.8024C16.0532 13.8784 16.0408 14.0764 16.0408 16.0829C16.0408 18.1715 16.0486 18.2842 16.1987 18.3645C16.2955 18.4162 17.1466 18.449 18.397 18.449C20.143 18.449 20.4558 18.4304 20.5656 18.3207C20.7581 18.1282 20.7581 14.0351 20.5656 13.8425C20.4557 13.7326 20.1438 13.7146 18.382 13.7167C17.1384 13.7183 16.2701 13.7521 16.1837 13.8024ZM24.6589 13.8425C24.4664 14.0351 24.4664 18.1282 24.6589 18.3207C24.7687 18.4305 25.0833 18.449 26.8473 18.449C28.4978 18.449 28.9391 18.426 29.066 18.3331C29.2159 18.2235 29.2245 18.1015 29.2245 16.0816C29.2245 14.0618 29.2159 13.9398 29.066 13.8301C28.9391 13.7373 28.4978 13.7143 26.8473 13.7143C25.0833 13.7143 24.7687 13.7327 24.6589 13.8425ZM30.934 13.8301C30.7841 13.9398 30.7755 14.0618 30.7755 16.0816C30.7755 18.1015 30.7841 18.2235 30.934 18.3331C31.0609 18.426 31.5022 18.449 33.1527 18.449C34.9167 18.449 35.2313 18.4305 35.3411 18.3207C35.5336 18.1282 35.5336 14.0351 35.3411 13.8425C35.2313 13.7327 34.9167 13.7143 33.1527 13.7143C31.5022 13.7143 31.0609 13.7373 30.934 13.8301ZM39.4344 13.8425C39.3244 13.9526 39.3061 14.2716 39.3061 16.0816C39.3061 17.8917 39.3244 18.2107 39.4344 18.3207C39.5442 18.4305 39.8589 18.449 41.6229 18.449C43.2733 18.449 43.7146 18.426 43.8415 18.3331C43.9914 18.2235 44 18.1015 44 16.0816C44 14.0618 43.9914 13.9398 43.8415 13.8301C43.7146 13.7373 43.2733 13.7143 41.6229 13.7143C39.8589 13.7143 39.5442 13.7327 39.4344 13.8425ZM16.8571 16.0816V17.6326H18.3674H19.8776V16.0816V14.5306H18.3674H16.8571V16.0816ZM25.3469 16.0816V17.6326H26.8571H28.3673V16.0816V14.5306H26.8571H25.3469V16.0816ZM31.6327 16.0816V17.6326H33.1429H34.6531V16.0816V14.5306H33.1429H31.6327V16.0816ZM40.1224 16.0816V17.6326H41.6326H43.1429V16.0816V14.5306H41.6326H40.1224V16.0816ZM16.1388 20.751C15.9993 20.8905 15.9993 25.0686 16.1388 25.2082C16.2783 25.3477 20.4564 25.3477 20.5959 25.2082C20.7354 25.0686 20.7354 20.8905 20.5959 20.751C20.4564 20.6115 16.2783 20.6115 16.1388 20.751ZM24.6286 20.751C24.4891 20.8905 24.4891 25.0686 24.6286 25.2082C24.6998 25.2793 25.3121 25.3061 26.8716 25.3061H29.0167L29.1451 25.1101C29.2549 24.9425 29.27 24.6245 29.249 22.9184C29.23 21.3752 29.1991 20.8921 29.1125 20.7878C29.0136 20.6688 28.7504 20.6531 26.8635 20.6531C25.3103 20.6531 24.6998 20.6798 24.6286 20.751ZM30.8875 20.7878C30.8009 20.8921 30.77 21.3752 30.751 22.9184C30.73 24.6245 30.7451 24.9425 30.8549 25.1101L30.9833 25.3061H33.1284C34.6879 25.3061 35.3002 25.2793 35.3714 25.2082C35.5109 25.0686 35.5109 20.8905 35.3714 20.751C35.3002 20.6798 34.6897 20.6531 33.1365 20.6531C31.2495 20.6531 30.9864 20.6688 30.8875 20.7878ZM39.4041 20.751C39.2646 20.8905 39.2646 25.0686 39.4041 25.2082C39.4753 25.2793 40.0869 25.3061 41.6443 25.3061C43.7656 25.3061 43.7879 25.3043 43.9137 25.1246C44.0202 24.9726 44.0408 24.6247 44.0408 22.9796C44.0408 21.3344 44.0202 20.9865 43.9137 20.8345C43.7879 20.6548 43.7656 20.6531 41.6443 20.6531C40.0869 20.6531 39.4753 20.6798 39.4041 20.751ZM16.8571 22.9796V24.4898H18.3674H19.8776V22.9796V21.4694H18.3674H16.8571V22.9796ZM25.3469 22.9796V24.4898H26.8571H28.3673V22.9796V21.4694H26.8571H25.3469V22.9796ZM31.6327 22.9796V24.4898H33.1429H34.6531V22.9796V21.4694H33.1429H31.6327V22.9796ZM40.1224 22.9796V24.4898H41.6326H43.1429V22.9796V21.4694H41.6326H40.1224V22.9796ZM16.1837 27.5984C16.0532 27.6744 16.0408 27.8717 16.0408 29.8653C16.0408 31.4548 16.0674 32.0756 16.1388 32.1469C16.266 32.2741 20.3004 32.2864 20.536 32.1604C20.686 32.0802 20.6939 31.968 20.6939 29.9282C20.6939 27.9511 20.682 27.7696 20.5446 27.6453C20.414 27.527 20.1416 27.5105 18.3609 27.5126C17.1316 27.5142 16.27 27.5481 16.1837 27.5984ZM39.4876 27.6373C39.308 27.763 39.3061 27.7864 39.3061 29.8763C39.3061 31.6875 39.3244 32.0066 39.4344 32.1166C39.5444 32.2266 39.863 32.2449 41.6693 32.2449C43.5293 32.2449 43.7891 32.229 43.888 32.1099C43.9766 32.0031 44 31.5323 44 29.8584C44 27.8575 43.9913 27.7356 43.8415 27.626C43.5971 27.4473 39.7446 27.4572 39.4876 27.6373ZM16.8571 29.8775V31.4286H18.3674H19.8776V29.8775V28.3265H18.3674H16.8571V29.8775ZM25.3469 32.0408V35.7551H27.4694H29.5918V32.0408V28.3265H27.4694H25.3469V32.0408ZM30.4082 32.0408V35.7551H32.5306H34.6531V32.0408V28.3265H32.5306H30.4082V32.0408ZM40.1224 29.8775V31.4286H41.6326H43.1429V29.8775V28.3265H41.6326H40.1224V29.8775ZM12.6123 37.0204V37.4694H30H47.3877V37.0204V36.5714H30H12.6123V37.0204ZM10.8163 38.7347V39.1837H30H49.1837V38.7347V38.2857H30H10.8163V38.7347Z" fill="white"/>
</g>
<defs>
<clipPath id="clip0_543_7252">
<rect width="50" height="40" fill="white"/>
</clipPath>
</defs>
</svg>
