<svg width="24" height="24" viewBox="0 0 24 24" fill="none" xmlns="http://www.w3.org/2000/svg">
<path fill-rule="evenodd" clip-rule="evenodd" d="M4.98281 4.11285C4.58552 4.25008 4.33136 4.48196 4.1441 4.87809L4.00062 5.18168L4.00002 7.67527C3.99935 10.4428 4.01811 10.6078 4.38109 11.0212C4.48795 11.1428 4.71218 11.3061 4.8794 11.384C5.1822 11.525 5.19313 11.5256 7.67701 11.5262C10.4446 11.5268 10.6095 11.5081 11.0229 11.1451C11.1446 11.0382 11.3079 10.814 11.3858 10.6468C11.5267 10.344 11.5274 10.333 11.5279 7.84917C11.5286 5.08162 11.5098 4.91664 11.1468 4.50327C11.04 4.38159 10.8157 4.21832 10.6485 4.14042C10.3453 3.99925 10.338 3.99888 7.82467 4.00022C5.54178 4.00149 5.27456 4.01212 4.98281 4.11285ZM14.4549 4.11285C14.0576 4.25008 13.8034 4.48196 13.6162 4.87809L13.4727 5.18168L13.4721 7.67527C13.4714 10.4428 13.4902 10.6078 13.8532 11.0212C13.96 11.1428 14.1843 11.3061 14.3515 11.384C14.6543 11.525 14.6652 11.5256 17.1491 11.5262C19.9166 11.5268 20.0816 11.5081 20.495 11.1451C20.6167 11.0382 20.7799 10.814 20.8578 10.6468C20.9988 10.344 20.9994 10.333 21 7.84917C21.0007 5.08162 20.9819 4.91664 20.6189 4.50327C20.5121 4.38159 20.2878 4.21832 20.1206 4.14042C19.8174 3.99925 19.8101 3.99888 17.2968 4.00022C15.0139 4.00149 14.7466 4.01212 14.4549 4.11285ZM5.38082 5.25387C5.3224 5.26917 5.2598 5.34113 5.24171 5.41381C5.22368 5.48649 5.21682 6.59211 5.22653 7.87072C5.24159 9.85731 5.25737 10.204 5.33522 10.2542C5.39096 10.2901 6.35213 10.3069 7.81174 10.2975C9.85401 10.2842 10.2056 10.2689 10.2559 10.191C10.2918 10.1352 10.3086 9.1741 10.2992 7.71443C10.286 5.67156 10.2707 5.32072 10.1927 5.27142C10.1025 5.21447 5.59448 5.19801 5.38082 5.25387ZM14.8529 5.25387C14.7945 5.26917 14.7319 5.34113 14.7138 5.41381C14.6958 5.48649 14.6889 6.59211 14.6986 7.87072C14.7137 9.85731 14.7295 10.204 14.8073 10.2542C14.863 10.2901 15.8242 10.3069 17.2838 10.2975C19.3261 10.2842 19.6777 10.2689 19.728 10.191C19.7639 10.1352 19.7807 9.1741 19.7713 7.71443C19.758 5.67156 19.7428 5.32072 19.6648 5.27142C19.5746 5.21447 15.0666 5.19801 14.8529 5.25387ZM4.98281 13.0992C4.58552 13.2364 4.33136 13.4683 4.1441 13.8644L4.00062 14.168L4.00002 16.6616C3.99935 19.4292 4.01811 19.5941 4.38109 20.0075C4.48795 20.1292 4.71218 20.2925 4.8794 20.3704C5.1822 20.5113 5.19313 20.512 7.67701 20.5125C10.4446 20.5132 10.6095 20.4944 11.0229 20.1314C11.1446 20.0246 11.3079 19.8003 11.3858 19.6331C11.5267 19.3303 11.5274 19.3194 11.5279 16.8355C11.5286 14.068 11.5098 13.903 11.1468 13.4896C11.04 13.3679 10.8157 13.2047 10.6485 13.1268C10.3453 12.9856 10.338 12.9852 7.82467 12.9866C5.54178 12.9878 5.27456 12.9985 4.98281 13.0992ZM18.9758 13.6951C18.7369 13.9193 18.1173 14.5207 17.5988 15.0317L16.6562 15.9609L15.9707 15.2163C15.5937 14.8067 15.2119 14.4239 15.1222 14.3657C14.5928 14.0218 13.9492 14.6548 14.3029 15.1715C14.4234 15.3477 16.1253 17.1705 16.2677 17.2759C16.368 17.3502 16.5554 17.3816 16.7994 17.3652C16.9748 17.3534 20.1033 14.3375 20.2117 14.0757C20.3702 13.6933 20.087 13.2876 19.6616 13.2876C19.4348 13.2876 19.3674 13.3277 18.9758 13.6951ZM5.38082 14.2402C5.3224 14.2555 5.2598 14.3275 5.24171 14.4001C5.22368 14.4728 5.21682 15.5785 5.22653 16.8571C5.24159 18.8436 5.25737 19.1904 5.33522 19.2405C5.39096 19.2764 6.35213 19.2932 7.81174 19.2838C9.85401 19.2706 10.2056 19.2553 10.2559 19.1773C10.2918 19.1216 10.3086 18.1604 10.2992 16.7008C10.286 14.6579 10.2707 14.3071 10.1927 14.2578C10.1025 14.2008 5.59448 14.1844 5.38082 14.2402ZM18.9758 16.6096C18.7369 16.8337 18.1173 17.4352 17.5988 17.9462L16.6562 18.8754L15.9707 18.1308C15.5937 17.7212 15.2119 17.3384 15.1222 17.2801C14.5928 16.9363 13.9492 17.5693 14.3029 18.086C14.4234 18.2622 16.1253 20.085 16.2677 20.1904C16.368 20.2646 16.5554 20.2961 16.7994 20.2797C16.9748 20.2679 20.1033 17.252 20.2117 16.9902C20.3702 16.6078 20.087 16.2021 19.6616 16.2021C19.4348 16.2021 19.3674 16.2422 18.9758 16.6096Z" fill="#9BAFBE"/>
</svg>
