<svg width="20" height="20" viewBox="0 0 20 20" fill="none" xmlns="http://www.w3.org/2000/svg">
<g id="basil:key-outline">
<path id="Vector" d="M4.69026 8.85701C4.99344 8.55382 5.40465 8.3835 5.83341 8.3835C6.26218 8.3835 6.67339 8.55382 6.97657 8.85701C7.27975 9.16019 7.45008 9.5714 7.45008 10.0002C7.45008 10.4289 7.27975 10.8401 6.97657 11.1433C6.67339 11.4465 6.26218 11.6168 5.83341 11.6168C5.40465 11.6168 4.99344 11.4465 4.69026 11.1433C4.38707 10.8401 4.21675 10.4289 4.21675 10.0002C4.21675 9.5714 4.38707 9.16019 4.69026 8.85701Z" fill="#556EE6" stroke="white" stroke-width="0.1"/>
<path id="Vector_2" d="M17.7585 11.0918H17.7085H16.2501C16.0976 11.0918 15.9514 11.1524 15.8435 11.2602C15.7357 11.3681 15.6751 11.5143 15.6751 11.6668V13.5418V13.5918H15.6251H13.9585H13.9085V13.5418V11.6668C13.9085 11.5143 13.8479 11.3681 13.74 11.2602C13.6322 11.1524 13.486 11.0918 13.3335 11.0918H9.65348C9.54165 11.0919 9.43226 11.1246 9.33871 11.1858C9.24516 11.2471 9.17151 11.3343 9.12678 11.4368L9.08095 11.4168L9.12678 11.4368C8.79662 12.1932 8.21612 12.8128 7.48287 13.1915C6.74962 13.5702 5.90834 13.685 5.10046 13.5164C4.29258 13.3478 3.56738 12.9062 3.04678 12.2659C2.52618 11.6255 2.24192 10.8255 2.24179 10.0002C2.24179 10.0002 2.24179 10.0002 2.24179 10.0002L2.29179 10.0002C2.29099 9.18588 2.57081 8.39619 3.08412 7.76408C3.59744 7.13196 4.31289 6.69604 5.11001 6.5297C5.90713 6.36337 6.73721 6.4768 7.46048 6.85088C8.18376 7.22496 8.75604 7.83684 9.08095 8.5835L17.7585 11.0918ZM17.7585 11.0918V11.0418V9.16683C17.7585 9.09831 17.7312 9.03261 17.6828 8.98416C17.6343 8.93571 17.5686 8.9085 17.5001 8.9085H9.65348L17.7585 11.0918ZM10.0418 12.2418H10.0121L9.99788 12.2679C9.59741 13.0033 9.00935 13.6195 8.2935 14.0539C7.57765 14.4883 6.75954 14.7253 5.92235 14.741C5.08516 14.7567 4.25875 14.5503 3.52715 14.143C2.79555 13.7357 2.18486 13.1419 1.75717 12.4221C1.32948 11.7022 1.10005 10.8819 1.0922 10.0446C1.08435 9.20731 1.29837 8.38286 1.71249 7.6551C2.1266 6.92733 2.72606 6.32221 3.44989 5.90126C4.17372 5.4803 4.99612 5.25853 5.83346 5.2585C6.6859 5.25837 7.52259 5.48809 8.25547 5.92346C8.98834 6.35882 9.59026 6.98374 9.99787 7.7324L10.0121 7.7585H10.0418H17.5001C17.8736 7.7585 18.2318 7.90687 18.496 8.17099C18.7601 8.4351 18.9085 8.79332 18.9085 9.16683V11.6668C18.9085 11.8193 18.8479 11.9656 18.74 12.0734C18.6322 12.1812 18.486 12.2418 18.3335 12.2418H16.8751H16.8251V12.2918V14.1668C16.8251 14.3193 16.7645 14.4656 16.6567 14.5734C16.5489 14.6812 16.4026 14.7418 16.2501 14.7418H13.3335C13.0161 14.7418 12.7585 14.4842 12.7585 14.1668V12.2918V12.2418H12.7085H10.0418Z" fill="#556EE6" stroke="white" stroke-width="0.1"/>
</g>
</svg>
