<svg width="30" height="30" viewBox="0 0 30 30" fill="none" xmlns="http://www.w3.org/2000/svg">
<circle cx="15" cy="15" r="15" fill="#EAF0F4"/>
<path d="M9.25176 9.25176C9.33137 9.17196 9.42593 9.10864 9.53004 9.06544C9.63416 9.02224 9.74577 9 9.85849 9C9.97121 9 10.0828 9.02224 10.1869 9.06544C10.291 9.10864 10.3856 9.17196 10.4652 9.25176L15.0002 13.7885L19.5352 9.25176C19.6149 9.17209 19.7095 9.10888 19.8136 9.06576C19.9177 9.02264 20.0293 9.00045 20.142 9.00045C20.2546 9.00045 20.3662 9.02264 20.4703 9.06576C20.5744 9.10888 20.669 9.17209 20.7487 9.25176C20.8284 9.33144 20.8916 9.42603 20.9347 9.53013C20.9778 9.63423 21 9.74581 21 9.85849C21 9.97117 20.9778 10.0827 20.9347 10.1868C20.8916 10.2909 20.8284 10.3855 20.7487 10.4652L16.212 15.0002L20.7487 19.5352C20.8284 19.6149 20.8916 19.7095 20.9347 19.8136C20.9778 19.9177 21 20.0293 21 20.142C21 20.2546 20.9778 20.3662 20.9347 20.4703C20.8916 20.5744 20.8284 20.669 20.7487 20.7487C20.669 20.8284 20.5744 20.8916 20.4703 20.9347C20.3662 20.9778 20.2546 21 20.142 21C20.0293 21 19.9177 20.9778 19.8136 20.9347C19.7095 20.8916 19.6149 20.8284 19.5352 20.7487L15.0002 16.212L10.4652 20.7487C10.3855 20.8284 10.2909 20.8916 10.1868 20.9347C10.0827 20.9778 9.97117 21 9.85849 21C9.74581 21 9.63423 20.9778 9.53013 20.9347C9.42603 20.8916 9.33144 20.8284 9.25176 20.7487C9.17209 20.669 9.10888 20.5744 9.06576 20.4703C9.02264 20.3662 9.00045 20.2546 9.00045 20.142C9.00045 20.0293 9.02264 19.9177 9.06576 19.8136C9.10888 19.7095 9.17209 19.6149 9.25176 19.5352L13.7885 15.0002L9.25176 10.4652C9.17196 10.3856 9.10864 10.291 9.06544 10.1869C9.02224 10.0828 9 9.97121 9 9.85849C9 9.74577 9.02224 9.63416 9.06544 9.53004C9.10864 9.42593 9.17196 9.33137 9.25176 9.25176Z" fill="#B7BFC5"/>
</svg>
