<svg width="24" height="24" viewBox="0 0 24 24" fill="none" xmlns="http://www.w3.org/2000/svg">
<path d="M12 14.5C12.8629 14.5 13.5625 13.8004 13.5625 12.9375C13.5625 12.0746 12.8629 11.375 12 11.375C11.1371 11.375 10.4375 12.0746 10.4375 12.9375C10.4375 13.8004 11.1371 14.5 12 14.5Z" stroke="#6B7280" stroke-width="1.2" stroke-linecap="round" stroke-linejoin="round"/>
<path d="M12 14.5V16.375" stroke="#6B7280" stroke-width="1.2" stroke-linecap="round" stroke-linejoin="round"/>
<path d="M18.25 8.875H5.75C5.40482 8.875 5.125 9.15482 5.125 9.5V18.25C5.125 18.5952 5.40482 18.875 5.75 18.875H18.25C18.5952 18.875 18.875 18.5952 18.875 18.25V9.5C18.875 9.15482 18.5952 8.875 18.25 8.875Z" stroke="#6B7280" stroke-width="1.2" stroke-linecap="round" stroke-linejoin="round"/>
<path d="M9.1875 8.875V6.0625C9.1875 5.31658 9.48382 4.60121 10.0113 4.07376C10.5387 3.54632 11.2541 3.25 12 3.25C12.7459 3.25 13.4613 3.54632 13.9887 4.07376C14.5162 4.60121 14.8125 5.31658 14.8125 6.0625V8.875" stroke="#6B7280" stroke-width="1.2" stroke-linecap="round" stroke-linejoin="round"/>
</svg>
