<svg width="18" height="18" viewBox="0 0 18 18" fill="none" xmlns="http://www.w3.org/2000/svg">
<g clip-path="url(#clip0_1_19476)">
<path d="M9.08795 11.8929V13.4149C7.87698 13.4149 6.71561 13.896 5.85933 14.7522C5.00304 15.6085 4.52199 16.7699 4.52199 17.9809H3C3 16.3662 3.64141 14.8177 4.78312 13.676C5.92483 12.5343 7.47332 11.8929 9.08795 11.8929ZM9.08795 11.1319C6.56526 11.1319 4.52199 9.08866 4.52199 6.56596C4.52199 4.04327 6.56526 2 9.08795 2C11.6106 2 13.6539 4.04327 13.6539 6.56596C13.6539 9.08866 11.6106 11.1319 9.08795 11.1319ZM9.08795 9.60994C10.7697 9.60994 12.1319 8.24776 12.1319 6.56596C12.1319 4.88417 10.7697 3.52199 9.08795 3.52199C7.40615 3.52199 6.04397 4.88417 6.04397 6.56596C6.04397 8.24776 7.40615 9.60994 9.08795 9.60994ZM11.0627 15.5548C10.9662 15.1488 10.9662 14.7258 11.0627 14.3197L10.3078 13.8837L11.0688 12.5656L11.8237 13.0017C12.1267 12.7147 12.493 12.503 12.8929 12.3838V11.5124H14.4149V12.3838C14.8198 12.504 15.185 12.7186 15.4841 13.0017L16.239 12.5656L17 13.8837L16.2451 14.3197C16.3415 14.7255 16.3415 15.1483 16.2451 15.5541L17 15.9901L16.239 17.3081L15.4841 16.8721C15.1811 17.1591 14.8148 17.3708 14.4149 17.49V18.3614H12.8929V17.49C12.493 17.3708 12.1267 17.1591 11.8237 16.8721L11.0688 17.3081L10.3078 15.9901L11.0627 15.5548ZM13.6539 16.0784C13.9567 16.0784 14.247 15.9581 14.4611 15.744C14.6751 15.53 14.7954 15.2396 14.7954 14.9369C14.7954 14.6342 14.6751 14.3438 14.4611 14.1297C14.247 13.9157 13.9567 13.7954 13.6539 13.7954C13.3512 13.7954 13.0608 13.9157 12.8468 14.1297C12.6327 14.3438 12.5124 14.6342 12.5124 14.9369C12.5124 15.2396 12.6327 15.53 12.8468 15.744C13.0608 15.9581 13.3512 16.0784 13.6539 16.0784Z" fill="#1F69AF"/>
</g>
<defs>
<clipPath id="clip0_1_19476">
<rect width="18" height="18" fill="white"/>
</clipPath>
</defs>
</svg>
