<svg width="152" height="302" viewBox="0 0 152 302" fill="none" xmlns="http://www.w3.org/2000/svg">
<path d="M151.877 74.3387C151.877 54.6228 143.882 35.7145 129.653 21.7733C115.423 7.83209 96.1229 0 75.9989 0C55.8748 0 36.575 7.83209 22.3452 21.7733C8.11534 35.7145 0.121094 54.6228 0.121094 74.3387C0.121094 108.057 35.9388 140.006 54.4366 169.225C57.0235 173.319 54.4366 184.494 54.4366 184.494H97.5611C97.5611 184.494 94.9743 173.319 97.5611 169.225C116.059 140.006 151.877 108.057 151.877 74.3387Z" fill="#0F8BFF"/>
<path opacity="0.5" d="M151.877 74.3387C151.877 54.6228 143.882 35.7145 129.653 21.7733C115.423 7.83209 96.1229 0 75.9989 0C55.8748 0 36.575 7.83209 22.3452 21.7733C8.11534 35.7145 0.121094 54.6228 0.121094 74.3387C0.121094 108.057 35.9388 140.006 54.4366 169.225C57.0235 173.319 54.4366 184.494 54.4366 184.494H97.5611C97.5611 184.494 94.9743 173.319 97.5611 169.225C116.059 140.006 151.877 108.057 151.877 74.3387Z" fill="white"/>
<path opacity="0.3" d="M75.997 184.494H63.0549C63.0549 184.494 64.6468 173.319 63.0549 169.225C51.9753 140.006 30.4688 108.057 30.4688 74.3387C30.4688 33.2898 50.853 0 75.997 0C101.141 0 121.525 33.2898 121.525 74.3387C121.525 108.057 100.035 140.006 88.8914 169.225C87.3393 173.319 88.8914 184.494 88.8914 184.494H75.997Z" fill="white"/>
<path opacity="0.5" d="M75.9951 184.494H71.6811C71.6811 184.494 72.1985 173.319 71.6811 169.225C67.9879 140.006 60.8164 108.057 60.8164 74.3387C60.8164 33.2898 67.6138 0 75.9951 0C84.3765 0 91.1739 33.2898 91.1739 74.3387C91.1739 108.057 84.0103 140.006 80.3092 169.225C79.7918 173.319 80.3092 184.494 80.3092 184.494H75.9951Z" fill="white"/>
<path d="M97.4868 182.092H54.5135C53.5245 182.092 52.7227 182.877 52.7227 183.846V185.679C52.7227 186.648 53.5245 187.433 54.5135 187.433H97.4868C98.4759 187.433 99.2777 186.648 99.2777 185.679V183.846C99.2777 182.877 98.4759 182.092 97.4868 182.092Z" fill="#0F8BFF"/>
<path opacity="0.2" d="M97.4868 182.092H54.5135C53.5245 182.092 52.7227 182.877 52.7227 183.846V185.679C52.7227 186.648 53.5245 187.433 54.5135 187.433H97.4868C98.4759 187.433 99.2777 186.648 99.2777 185.679V183.846C99.2777 182.877 98.4759 182.092 97.4868 182.092Z" fill="black"/>
<path d="M145.6 99.4482H6.40417C5.41509 99.4482 4.61328 100.234 4.61328 101.203V103.035C4.61328 104.004 5.41509 104.79 6.40417 104.79H145.6C146.589 104.79 147.391 104.004 147.391 103.035V101.203C147.391 100.234 146.589 99.4482 145.6 99.4482Z" fill="#0F8BFF"/>
<path opacity="0.2" d="M145.6 99.4482H6.40417C5.41509 99.4482 4.61328 100.234 4.61328 101.203V103.035C4.61328 104.004 5.41509 104.79 6.40417 104.79H145.6C146.589 104.79 147.391 104.004 147.391 103.035V101.203C147.391 100.234 146.589 99.4482 145.6 99.4482Z" fill="black"/>
<path d="M75.9998 93.6542C92.9328 93.6542 106.66 80.2057 106.66 63.6162C106.66 47.0266 92.9328 33.5781 75.9998 33.5781C59.0668 33.5781 45.3398 47.0266 45.3398 63.6162C45.3398 80.2057 59.0668 93.6542 75.9998 93.6542Z" fill="#0F8BFF"/>
<path opacity="0.2" d="M75.9998 93.6542C92.9328 93.6542 106.66 80.2057 106.66 63.6162C106.66 47.0266 92.9328 33.5781 75.9998 33.5781C59.0668 33.5781 45.3398 47.0266 45.3398 63.6162C45.3398 80.2057 59.0668 93.6542 75.9998 93.6542Z" fill="white"/>
<g opacity="0.8">
<path d="M76.0023 91.2997C70.4137 91.2997 64.9507 89.6761 60.304 86.6342C55.6573 83.5924 52.0356 79.2689 49.897 74.2105C47.7583 69.1521 47.1988 63.5859 48.289 58.2159C49.3793 52.846 52.0704 47.9133 56.0221 44.0418C59.9738 40.1702 65.0086 37.5337 70.4898 36.4655C75.9709 35.3974 81.6523 35.9456 86.8154 38.0408C91.9786 40.1361 96.3916 43.6843 99.4964 48.2368C102.601 52.7892 104.258 58.1414 104.258 63.6166C104.25 70.9561 101.27 77.9926 95.9731 83.1824C90.6759 88.3721 83.4937 91.2914 76.0023 91.2997ZM76.0023 39.2712C71.0875 39.2712 66.2831 40.699 62.1966 43.3741C58.1101 46.0492 54.9251 49.8515 53.0443 54.3C51.1635 58.7486 50.6714 63.6436 51.6302 68.3662C52.5891 73.0887 54.9558 77.4267 58.431 80.8315C61.9063 84.2362 66.334 86.5549 71.1544 87.4943C75.9747 88.4337 80.9711 87.9516 85.5118 86.1089C90.0524 84.2663 93.9334 81.1458 96.6639 77.1422C99.3944 73.1386 100.852 68.4317 100.852 63.6166C100.843 57.1623 98.2226 50.9748 93.5642 46.4109C88.9059 41.847 82.5902 39.2794 76.0023 39.2712Z" fill="white"/>
</g>
<path opacity="0.2" d="M89.4011 57.1114L76.8555 56.242L76.6917 56.321L77.1515 54.2663L77.6868 51.8832C77.693 51.8307 77.693 51.7777 77.6868 51.7252C77.6868 51.1172 77.7246 47.4697 76.8366 46.6065C76.3769 46.1627 74.8024 46.0654 73.8262 46.0472C73.6126 46.0416 73.4048 46.1144 73.2447 46.2509C73.0845 46.3874 72.984 46.5775 72.9633 46.7828C72.8059 48.3998 72.3965 52.2115 71.9557 53.6401C71.0919 55.8011 70.0864 57.9067 68.9452 59.9443L67.2196 60.7467C67.2003 60.4371 67.0591 60.1462 66.825 59.9338C66.5908 59.7213 66.2813 59.6033 65.96 59.6038H61.1294C60.7853 59.6038 60.4553 59.7358 60.212 59.9706C59.9687 60.2055 59.832 60.524 59.832 60.8561V76.1393C59.832 76.472 59.9685 76.7912 60.2116 77.027C60.4548 77.2628 60.7847 77.3961 61.1294 77.3977H65.96C66.2447 77.4011 66.5226 77.3135 66.7504 77.1485C66.9783 76.9836 67.1432 76.7506 67.2196 76.4858H86.2521C86.8554 76.487 87.4403 76.2857 87.9068 75.9164C88.3733 75.5471 88.6922 75.0327 88.8091 74.4614L91.7817 60.1206C91.8542 59.7693 91.8483 59.4071 91.7645 59.0582C91.6807 58.7093 91.5208 58.3816 91.2956 58.0969C91.0704 57.8122 90.785 57.5771 90.4583 57.4072C90.1317 57.2372 89.7713 57.1364 89.4011 57.1114Z" fill="black"/>
<path d="M68.832 59.7629C68.832 59.7629 71.8106 53.9586 72.4063 51.8723C72.8234 50.4026 73.2106 46.4978 73.3595 44.8475C73.3776 44.6361 73.4721 44.4398 73.6237 44.2987C73.7753 44.1575 73.9727 44.0821 74.1756 44.0877C75.099 44.0877 76.5585 44.2122 77.0232 44.6669C77.8631 45.5388 77.8334 49.3003 77.8274 49.9044C77.8336 49.9582 77.8336 50.0125 77.8274 50.0663L76.3738 57.0663L68.832 59.7629Z" fill="#0F8BFF"/>
<path opacity="0.9" d="M68.832 59.7629C68.832 59.7629 71.8106 53.9586 72.4063 51.8723C72.8234 50.4026 73.2106 46.4978 73.3595 44.8475C73.3776 44.6361 73.4721 44.4398 73.6237 44.2987C73.7753 44.1575 73.9727 44.0821 74.1756 44.0877C75.099 44.0877 76.5585 44.2122 77.0232 44.6669C77.8631 45.5388 77.8334 49.3003 77.8274 49.9044C77.8336 49.9582 77.8336 50.0125 77.8274 50.0663L76.3738 57.0663L68.832 59.7629Z" fill="white"/>
<path opacity="0.2" d="M76.832 51.9248L69.832 58.6289L71.5477 58.7828L75.8816 57.0403L76.832 51.9248Z" fill="black"/>
<path d="M66.3782 58.7728L76.7363 53.8843L89.387 54.768C89.7594 54.7935 90.122 54.8958 90.4506 55.0683C90.7793 55.2407 91.0664 55.4793 91.2929 55.7681C91.5194 56.057 91.6801 56.3894 91.7643 56.7434C91.8485 57.0974 91.8543 57.4648 91.7812 57.8211L88.7709 72.4003C88.6531 72.9811 88.3315 73.504 87.8611 73.8794C87.3907 74.2548 86.8009 74.4595 86.1925 74.4583H65.832L66.3782 58.7728Z" fill="#0F8BFF"/>
<path opacity="0.9" d="M66.3782 58.7728L76.7363 53.8843L89.387 54.768C89.7594 54.7935 90.122 54.8958 90.4506 55.0683C90.7793 55.2407 91.0664 55.4793 91.2929 55.7681C91.5194 56.057 91.6801 56.3894 91.7643 56.7434C91.8485 57.0974 91.8543 57.4648 91.7812 57.8211L88.7709 72.4003C88.6531 72.9811 88.3315 73.504 87.8611 73.8794C87.3907 74.2548 86.8009 74.4595 86.1925 74.4583H65.832L66.3782 58.7728Z" fill="white"/>
<path d="M66.1981 57.8032H61.4659C60.5635 57.8032 59.832 58.4533 59.832 59.2552V73.9861C59.832 74.788 60.5635 75.4381 61.4659 75.4381H66.1981C67.1005 75.4381 67.832 74.788 67.832 73.9861V59.2552C67.832 58.4533 67.1005 57.8032 66.1981 57.8032Z" fill="#0F8BFF"/>
<path opacity="0.2" d="M66.1981 57.8032H61.4659C60.5635 57.8032 59.832 58.4533 59.832 59.2552V73.9861C59.832 74.788 60.5635 75.4381 61.4659 75.4381H66.1981C67.1005 75.4381 67.832 74.788 67.832 73.9861V59.2552C67.832 58.4533 67.1005 57.8032 66.1981 57.8032Z" fill="black"/>
<path d="M143.344 104.79L96.7812 236.148H97.8478L144.411 104.79H143.344Z" fill="black"/>
<path d="M7.58984 104.79L54.1528 236.148H55.2114L8.65641 104.79H7.58984Z" fill="black"/>
<path d="M102.816 186.63C103.143 188.447 103.509 190.366 103.907 192.198C104.285 194.001 104.766 195.782 105.347 197.532C105.594 198.273 105.908 198.991 106.287 199.676L106.398 199.856C106.435 199.896 106.467 199.941 106.493 199.988C106.514 200.01 106.533 200.033 106.549 200.059C106.549 200.059 106.509 200.059 106.486 200.059H106.43C106.43 200.059 106.486 200.137 106.613 200.199C106.763 200.28 106.92 200.348 107.082 200.402C107.93 200.684 108.794 200.918 109.669 201.104C110.601 201.322 111.58 201.517 112.527 201.751L112.59 204.542C111.545 204.796 110.48 204.968 109.407 205.057C108.282 205.178 107.148 205.178 106.024 205.057C105.694 205.016 105.367 204.956 105.045 204.878C104.628 204.78 104.224 204.634 103.843 204.441C103.713 204.377 103.588 204.304 103.469 204.223C103.342 204.137 103.174 204.02 103.111 203.965L102.633 203.521L102.235 203.084L101.909 202.671C101.222 201.697 100.648 200.651 100.198 199.552C99.4041 197.603 98.7628 195.599 98.2793 193.555C98.0325 192.565 97.8097 191.567 97.6186 190.568C97.4276 189.57 97.2605 188.588 97.1172 187.535L102.816 186.63Z" fill="#FAC4C3"/>
<path d="M96.5905 186.264C95.0384 189.484 98.6997 196.924 98.6997 196.924L105.028 193.945C104.997 191.271 104.265 188.651 102.902 186.334C101.215 183.402 98.5326 182.357 96.5347 183.301C95.7229 183.675 97.076 185.266 96.5905 186.264Z" fill="#4CCEA0"/>
<path opacity="0.2" d="M98.4711 190.654C96.6961 189.524 96.0116 190.194 95.3828 190.912C96.3151 193.003 97.4254 195.015 98.7019 196.924L101.384 195.661C100.939 193.618 99.7685 191.481 98.4711 190.654Z" fill="black"/>
<path d="M111.555 201.954L114.97 200.184L115.153 204.379C115.153 204.379 111.969 205.783 111.332 204.161L111.555 201.954Z" fill="#FFBBB8"/>
<path d="M118.789 200.402L117.691 204.059L115.144 204.379L114.969 200.184L118.789 200.402Z" fill="#FFBBB8"/>
<path d="M97.457 196.69L105.639 192.853L105.982 194.701L98.4679 197.945L97.457 196.69Z" fill="#0F8BFF"/>
<path opacity="0.7" d="M97.457 196.69L105.639 192.853L105.982 194.701L98.4679 197.945L97.457 196.69Z" fill="white"/>
<path d="M86.4297 295.429L90.2184 295.14L90.6323 286.5L86.8436 286.789L86.4297 295.429Z" fill="#FFBBB8"/>
<path d="M58.0117 292.496L61.6651 293.495L65.0559 285.494L61.4025 284.496L58.0117 292.496Z" fill="#FFBBB8"/>
<path d="M62.2611 293.214L57.8038 291.997C57.7315 291.979 57.655 291.984 57.586 292.012C57.517 292.04 57.4593 292.09 57.4218 292.153L55.7662 295.132C55.726 295.204 55.7033 295.284 55.6997 295.367C55.6962 295.449 55.7119 295.531 55.7457 295.606C55.7796 295.681 55.8306 295.748 55.8948 295.801C55.9591 295.854 56.0349 295.892 56.1164 295.912C57.5491 296.278 58.6237 296.481 60.4305 296.972C61.5368 297.276 64.8559 298.306 66.3842 298.727C67.9124 299.148 68.5571 297.713 67.9761 297.409C65.3415 296.036 63.463 294.633 62.7944 293.596C62.6709 293.408 62.4809 293.272 62.2611 293.214Z" fill="#263238"/>
<path d="M90.5387 294.493L86.3998 294.244C86.3244 294.24 86.25 294.261 86.1881 294.303C86.1262 294.346 86.0803 294.407 86.0576 294.477L85.0786 297.714C85.0543 297.792 85.0484 297.874 85.0614 297.954C85.0743 298.035 85.1057 298.111 85.1533 298.178C85.2008 298.245 85.2632 298.3 85.3357 298.34C85.4082 298.38 85.489 298.403 85.572 298.408C87.0684 298.47 89.2334 298.509 91.1437 298.626C93.3405 298.751 94.7414 298.688 97.3202 298.844C98.9121 298.938 99.4215 297.425 98.7768 297.285C95.8557 296.505 93.9215 296.56 91.47 294.867C91.2044 294.655 90.8802 294.524 90.5387 294.493Z" fill="#263238"/>
<path opacity="0.2" d="M90.6247 286.508L90.4098 290.96L86.6211 291.241L86.836 286.789L90.6247 286.508Z" fill="black"/>
<path opacity="0.2" d="M61.4034 284.496L65.0568 285.494L63.3057 289.619L59.6523 288.621L61.4034 284.496Z" fill="black"/>
<path d="M78.0747 181.468C78.5583 185.588 78.7259 189.738 78.5761 193.883C78.4885 196.776 78.2816 199.521 78.0269 202C77.4459 207.818 76.626 212.2 76.5703 213.697C79.5392 213.908 90.7143 214.703 96.8113 215.124C102.797 194.616 99.2628 183.152 99.2628 183.152C97.7224 182.642 96.1514 182.226 94.5587 181.905C94.2244 181.835 93.8742 181.772 93.532 181.718C90.6752 181.356 87.7999 181.153 84.9198 181.109H83.2802C80.5341 181.156 78.0747 181.468 78.0747 181.468Z" fill="#0F8BFF"/>
<path opacity="0.7" d="M78.0747 181.468C78.5583 185.588 78.7259 189.738 78.5761 193.883C78.4885 196.776 78.2816 199.521 78.0269 202C77.4459 207.818 76.626 212.2 76.5703 213.697C79.5392 213.908 90.7143 214.703 96.8113 215.124C97.464 193.851 99.2628 183.152 99.2628 183.152C97.7224 182.642 96.1514 182.226 94.5587 181.905C94.2244 181.835 93.8742 181.772 93.532 181.718C90.6752 181.356 87.7999 181.153 84.9198 181.109H83.2802C80.5341 181.156 78.0747 181.468 78.0747 181.468Z" fill="white"/>
<path d="M92.0175 185.422C92.7937 187.587 93.2676 189.846 93.4263 192.136C93.1159 192.916 92.7657 193.695 92.3677 194.475C91.9697 193.649 91.5718 192.814 91.0703 191.988C91.1181 188.26 91.5718 187.309 91.2056 185.375L92.0175 185.422Z" fill="#263238"/>
<path d="M91.8723 186.646L92.7239 184.837L91.4027 184.158L90.3281 184.696L91.8723 186.646Z" fill="#263238"/>
<path d="M83.2802 181.102C87.1246 185.601 87.1803 188.346 92.2027 188.377C96.9227 188.377 95.3865 186.194 95.0124 181.991C96.45 182.298 97.8689 182.683 99.2628 183.145C99.2628 183.145 102.797 194.631 96.8113 215.117C90.7143 214.695 79.5392 213.9 76.5703 213.69C76.626 212.177 77.4459 207.794 78.0269 201.993C78.2816 199.513 78.4885 196.768 78.5761 193.875C78.7259 189.73 78.5583 185.58 78.0747 181.46C78.0747 181.46 80.5341 181.156 83.2802 181.102Z" fill="#4CCEA0"/>
<path d="M86.5617 171.689C86.8801 174.434 87.0074 179.433 84.9141 181.102C85.6983 182.032 86.678 182.786 87.7864 183.312C88.8948 183.838 90.106 184.124 91.3374 184.151C93.7252 184.268 93.9799 182.646 93.5262 181.71C90.4937 180.774 90.7643 178.536 91.4727 176.47L86.5617 171.689Z" fill="#FFBBB8"/>
<path d="M91.3835 184.151C91.3835 184.151 90.3966 185.219 89.2583 186.264C87.746 185.351 84.22 182.942 84.4827 180.93C84.7203 180.525 85.0946 180.213 85.5413 180.049C87.2508 181.715 89.2236 183.1 91.3835 184.151Z" fill="white"/>
<path d="M91.3867 184.15C92.1228 184.841 92.7576 185.628 93.2731 186.49C94.4591 185.788 94.0691 181.99 93.6552 181.546C93.2306 181.202 92.708 180.995 92.1588 180.953C92.1588 180.953 93.2254 183.862 91.3867 184.15Z" fill="white"/>
<path opacity="0.2" d="M88.5643 173.639L91.4695 176.469C91.2997 176.95 91.1693 177.443 91.0795 177.943C89.9174 177.694 88.3972 176.313 88.3733 175.097C88.3459 174.603 88.4107 174.109 88.5643 173.639Z" fill="black"/>
<path d="M85.6992 168.165C86.0971 171.83 86.1369 173.998 88.087 175.784C91.0639 178.466 95.6167 176.563 96.3489 172.828C97.0096 169.483 96.2534 164.055 92.5204 162.792C91.694 162.518 90.8105 162.453 89.9515 162.602C89.0925 162.751 88.2858 163.11 87.6059 163.646C86.926 164.181 86.3948 164.876 86.0616 165.666C85.7283 166.456 85.6037 167.315 85.6992 168.165Z" fill="#FFBBB8"/>
<path d="M91.7777 289.993L85.3624 290.477C85.3624 290.477 86.3891 269.594 87.0657 258.052C87.219 253.449 87.1021 248.84 86.7155 244.25C86.2379 237.536 85.4658 230.213 84.7972 224.513C84.0889 218.485 83.5078 214.204 83.5078 214.204L96.8161 215.148C96.8161 215.148 98.7263 244.866 97.8349 256.173C96.9593 267.925 91.7777 289.993 91.7777 289.993Z" fill="#263238"/>
<path opacity="0.6" d="M86.719 244.25C86.2415 237.536 85.4694 230.213 84.8008 224.513L86.6155 221.823C89.2899 226.08 88.3428 237.957 86.719 244.25Z" fill="black"/>
<path d="M89.6368 214.641C89.6368 214.641 83.102 246.153 80.2446 256.696C77.1245 268.23 65.233 289.253 65.233 289.253L58.5391 287.428C58.5391 287.428 66.992 267.84 69.3401 256.236C71.9667 243.221 76.5593 213.752 76.5593 213.752L89.6368 214.641Z" fill="#263238"/>
<path d="M65.9969 289.619L58.125 287.466L58.8015 285.166L67.159 286.944L65.9969 289.619Z" fill="#263238"/>
<path d="M92.5852 290.133L84.9281 290.601L84.8008 288.192L93.206 287.552L92.5852 290.133Z" fill="#263238"/>
<path d="M91.43 168.898C91.43 169.194 91.621 169.428 91.82 169.42C92.019 169.412 92.1702 169.155 92.1543 168.859C92.1384 168.562 91.9712 168.328 91.7723 168.336C91.5733 168.344 91.422 168.593 91.43 168.898Z" fill="#263238"/>
<path d="M94.8831 168.718C94.8831 169.015 95.0741 169.249 95.2731 169.241C95.4721 169.233 95.6233 168.976 95.6074 168.679C95.5915 168.383 95.4244 168.141 95.2254 168.157C95.0264 168.173 94.8752 168.414 94.8831 168.718Z" fill="#263238"/>
<path d="M93.7695 168.921C94.1852 169.787 94.7209 170.592 95.3614 171.315C95.1553 171.463 94.9201 171.567 94.6706 171.62C94.4212 171.674 94.1631 171.676 93.9128 171.627L93.7695 168.921Z" fill="#D39595"/>
<path d="M92.3606 172.859C92.4931 172.866 92.626 172.866 92.7585 172.859C92.7818 172.855 92.8032 172.844 92.8191 172.827C92.8351 172.81 92.8446 172.788 92.8461 172.765C92.8462 172.753 92.8437 172.741 92.8388 172.73C92.8339 172.719 92.8267 172.71 92.8177 172.701C92.8087 172.693 92.7981 172.687 92.7865 172.683C92.775 172.68 92.7627 172.678 92.7506 172.679C92.376 172.714 91.9983 172.661 91.6483 172.526C91.2984 172.39 90.986 172.176 90.7368 171.899C90.7287 171.891 90.7188 171.884 90.7078 171.88C90.6969 171.875 90.6851 171.873 90.6732 171.873C90.6612 171.873 90.6494 171.875 90.6385 171.88C90.6275 171.884 90.6177 171.891 90.6095 171.899C90.6008 171.907 90.5939 171.917 90.5892 171.928C90.5845 171.939 90.582 171.95 90.582 171.962C90.582 171.974 90.5845 171.985 90.5892 171.996C90.5939 172.007 90.6008 172.016 90.6095 172.024C90.8292 172.271 91.0975 172.473 91.3984 172.616C91.6992 172.759 92.0265 172.842 92.3606 172.859Z" fill="#263238"/>
<path d="M90.319 167.861C90.3514 167.863 90.384 167.857 90.4134 167.844C90.4428 167.83 90.4679 167.809 90.4862 167.783C90.6091 167.597 90.7746 167.442 90.9694 167.329C91.1642 167.217 91.3829 167.15 91.6084 167.135C91.6321 167.136 91.6557 167.133 91.6779 167.125C91.7001 167.116 91.7203 167.104 91.7374 167.088C91.7546 167.072 91.7682 167.053 91.7775 167.031C91.7868 167.01 91.7915 166.987 91.7915 166.964C91.7938 166.94 91.791 166.917 91.7831 166.894C91.7752 166.872 91.7626 166.852 91.7459 166.835C91.7293 166.818 91.7091 166.804 91.6868 166.796C91.6644 166.787 91.6404 166.783 91.6164 166.784C91.3328 166.795 91.0558 166.87 90.8081 167.006C90.5604 167.142 90.3491 167.333 90.1917 167.564C90.1782 167.583 90.1688 167.604 90.164 167.627C90.1591 167.649 90.1589 167.672 90.1633 167.695C90.1678 167.718 90.1768 167.739 90.1899 167.758C90.203 167.777 90.2198 167.793 90.2394 167.806C90.2598 167.831 90.2875 167.85 90.319 167.861Z" fill="#263238"/>
<path d="M96.3267 167.486C96.3602 167.497 96.3967 167.497 96.4302 167.486C96.4721 167.463 96.5032 167.425 96.5166 167.38C96.53 167.334 96.5247 167.286 96.5018 167.244C96.3699 166.998 96.1798 166.785 95.9472 166.625C95.7145 166.465 95.4462 166.362 95.1646 166.324C95.1236 166.333 95.0868 166.355 95.0604 166.387C95.0339 166.419 95.0195 166.459 95.0195 166.5C95.0195 166.541 95.0339 166.581 95.0604 166.613C95.0868 166.645 95.1236 166.667 95.1646 166.675C95.3926 166.708 95.6084 166.797 95.7921 166.933C95.9757 167.069 96.1213 167.249 96.2153 167.455C96.2474 167.478 96.287 167.489 96.3267 167.486Z" fill="#263238"/>
<path d="M62.3636 293.815C62.3483 293.808 62.3354 293.797 62.3264 293.783C62.3173 293.769 62.3125 293.753 62.3125 293.737C62.3125 293.72 62.3173 293.704 62.3264 293.69C62.3354 293.677 62.3483 293.666 62.3636 293.659C62.5148 293.612 63.9077 293.222 64.25 293.542C64.2883 293.575 64.3161 293.619 64.3302 293.667C64.3443 293.715 64.3441 293.767 64.3296 293.815C64.314 293.9 64.2776 293.981 64.2236 294.051C64.1696 294.12 64.0995 294.175 64.0191 294.212C63.7627 294.308 63.4796 294.308 63.2232 294.212C62.9227 294.111 62.6344 293.978 62.3636 293.815ZM62.6501 293.768C63.0377 294.024 63.5096 294.127 63.9714 294.056C64.0254 294.03 64.0723 293.992 64.1083 293.944C64.1443 293.897 64.1683 293.842 64.1783 293.784C64.1783 293.713 64.1783 293.682 64.1783 293.667C64.1487 293.641 64.1132 293.622 64.0749 293.612C63.5967 293.561 63.1129 293.601 62.6501 293.729V293.768Z" fill="#0F8BFF"/>
<path d="M62.341 293.76C62.3351 293.746 62.332 293.732 62.332 293.717C62.332 293.702 62.3351 293.688 62.341 293.674C62.341 293.627 62.7469 292.621 63.2722 292.403C63.3364 292.376 63.4055 292.362 63.4752 292.362C63.545 292.362 63.614 292.376 63.6782 292.403C63.7432 292.422 63.7994 292.463 63.8371 292.519C63.8748 292.574 63.8918 292.641 63.8851 292.707C63.8453 293.12 62.8822 293.705 62.4445 293.799H62.4047L62.341 293.76ZM63.328 292.559C62.9937 292.699 62.6992 293.269 62.5718 293.557C63.0255 293.386 63.6702 292.918 63.6941 292.676C63.6941 292.676 63.6941 292.598 63.5906 292.551H63.5269C63.4615 292.532 63.3916 292.535 63.328 292.559Z" fill="#0F8BFF"/>
<path d="M90.8233 294.953C90.8215 294.934 90.8259 294.914 90.8359 294.898C90.8459 294.881 90.8609 294.867 90.879 294.859C91.0541 294.789 92.6301 294.119 93.0758 294.399C93.1167 294.426 93.1503 294.462 93.1739 294.504C93.1975 294.546 93.2102 294.593 93.2111 294.641C93.2133 294.722 93.1965 294.801 93.162 294.874C93.1274 294.948 93.0762 295.012 93.0121 295.062C92.5664 295.39 91.4919 295.187 90.8869 295.062C90.8745 295.061 90.8626 295.057 90.8522 295.05C90.8418 295.043 90.8331 295.034 90.8269 295.023C90.8207 295.013 90.8171 295.001 90.8165 294.989C90.8159 294.976 90.8182 294.964 90.8233 294.953ZM91.1974 294.953C91.7468 295.153 92.3513 295.153 92.9007 294.953C92.9426 294.921 92.976 294.879 92.9982 294.832C93.0203 294.784 93.0306 294.732 93.0281 294.68C93.0293 294.661 93.0257 294.641 93.0173 294.623C93.009 294.606 92.9963 294.59 92.9803 294.579C92.3666 294.553 91.7554 294.67 91.1974 294.922V294.953Z" fill="#0F8BFF"/>
<path d="M90.8466 295.015C90.8396 295.002 90.8359 294.987 90.8359 294.972C90.8359 294.957 90.8396 294.943 90.8466 294.929C90.9253 294.408 91.1673 293.923 91.539 293.541C91.6114 293.489 91.6936 293.451 91.781 293.429C91.8685 293.408 91.9593 293.403 92.0484 293.417C92.2872 293.456 92.3509 293.588 92.3589 293.682C92.3987 294.103 91.4356 294.851 90.966 295.023H90.8784L90.8466 295.015ZM91.9848 293.596C91.9197 293.585 91.853 293.586 91.7887 293.601C91.7244 293.616 91.6638 293.643 91.6107 293.682C91.3045 293.983 91.1015 294.37 91.0296 294.789C91.5152 294.547 92.1758 293.955 92.1519 293.697C92.1519 293.697 92.1519 293.643 92.0723 293.619C92.0465 293.602 92.0158 293.594 91.9848 293.596Z" fill="#0F8BFF"/>
<path opacity="0.2" d="M78.5078 186.677C78.6192 188.821 78.6352 190.935 78.5954 192.978C82.1134 190.638 82.6786 185.741 82.6786 185.741L81.3255 185.219L78.5078 186.677Z" fill="black"/>
<path d="M80.1217 187.192C79.063 187.769 77.9169 188.393 76.8344 189.032C75.7519 189.672 74.6614 190.319 73.6506 190.997C72.6397 191.676 71.5891 192.37 70.6578 193.095C69.8022 193.733 69.0226 194.462 68.3336 195.271C68.071 195.59 67.9516 195.902 67.9516 195.84V195.785V195.723C67.9818 195.868 68.0299 196.01 68.0949 196.144C68.3197 196.583 68.5862 197.001 68.8908 197.392C69.2331 197.836 69.6151 198.289 70.029 198.733C71.6766 200.503 73.6108 202.258 75.5051 203.95L73.9132 206.289C71.4257 205.097 69.0795 203.64 66.9169 201.946C65.6927 201.009 64.6194 199.897 63.7331 198.647C63.4501 198.228 63.2177 197.778 63.0406 197.306C62.9328 197.01 62.8529 196.704 62.8018 196.394C62.7707 196.213 62.752 196.031 62.7461 195.848V195.559V195.302C62.8058 194.71 62.9588 194.132 63.1998 193.586C63.3931 193.149 63.6248 192.729 63.8923 192.331C64.3465 191.659 64.8605 191.027 65.4284 190.444C65.9538 189.89 66.495 189.399 67.0203 188.923C68.0889 188.011 69.2075 187.157 70.3713 186.365C71.5095 185.586 72.6557 184.845 73.8416 184.166C75.0276 183.488 76.1817 182.825 77.4552 182.193L80.1217 187.192Z" fill="#FAC4C3"/>
<path d="M79.7255 181.273C76.1437 180.688 68.9961 186.911 68.9961 186.911L73.6922 192.814C76.5323 191.942 79.1357 190.455 81.3094 188.463C85.0185 184.969 84.0714 181.983 79.7255 181.273Z" fill="#4CCEA0"/>
<path d="M74.617 203.357L78.4615 203.31L76.4557 207.654C76.4557 207.654 73.1764 206.983 73.3674 205.236L74.617 203.357Z" fill="#FFBBB8"/>
<path d="M80.9662 205.166L79.1355 208.683L76.4531 207.638L78.4589 203.295L80.9662 205.166Z" fill="#FFBBB8"/>
<path d="M69.3241 185.772L74.84 192.837L73.0571 193.547L68.2734 187.005L69.3241 185.772Z" fill="#0F8BFF"/>
<path opacity="0.7" d="M69.3241 185.772L74.84 192.837L73.0571 193.547L68.2734 187.005L69.3241 185.772Z" fill="white"/>
<path d="M86.5564 171.689C86.5564 171.689 87.9334 171.689 87.5912 169.42C87.2489 167.151 91.1252 165.521 91.1252 165.521C91.1252 165.521 97.1107 165.591 96.8242 162.511C96.7296 161.74 96.4745 160.996 96.0748 160.325C95.675 159.655 95.139 159.071 94.5 158.612C94.4389 158.56 94.3635 158.528 94.2836 158.519C94.2036 158.51 94.1226 158.524 94.0509 158.56C93.9793 158.596 93.9201 158.652 93.881 158.721C93.8419 158.79 93.8247 158.869 93.8314 158.947C93.8792 159.407 93.6802 159.852 92.725 159.782C91.1331 159.672 90.4407 158.659 88.9045 158.175C88.7847 158.139 88.6571 158.135 88.5353 158.165C88.4135 158.194 88.3022 158.255 88.2131 158.342C88.124 158.428 88.0606 158.537 88.0296 158.656C87.9985 158.775 88.0011 158.9 88.0369 159.017C88.1237 159.201 88.1719 159.399 88.1787 159.601C88.1854 159.803 88.1507 160.004 88.0764 160.193C88.0021 160.381 87.8899 160.553 87.7463 160.698C87.6028 160.843 87.4309 160.958 87.241 161.037C86.2893 161.447 85.255 161.639 84.2164 161.598C84.1472 161.597 84.0794 161.618 84.0229 161.657C83.9663 161.696 83.9239 161.752 83.9018 161.816C83.8796 161.88 83.8789 161.949 83.8997 162.014C83.9205 162.079 83.9617 162.135 84.0174 162.176C84.6302 162.643 85.1954 163.306 84.8929 164.086C84.3119 165.646 82.0752 167.829 83.4443 169.428C84.2963 170.4 85.3597 171.172 86.5564 171.689Z" fill="#263238"/>
<path d="M88.8464 164.749L89.4593 166.309C89.4593 166.309 86.371 167.603 86.0128 170.746L85.7422 169.334C85.84 168.38 86.1739 167.464 86.7148 166.665C87.2557 165.866 87.9874 165.208 88.8464 164.749Z" fill="#0F8BFF"/>
<path d="M88.8464 164.749L89.4593 166.309C89.4593 166.309 86.371 167.603 86.0128 170.746L85.7422 169.334C85.84 168.38 86.1739 167.464 86.7148 166.665C87.2557 165.866 87.9874 165.208 88.8464 164.749Z" fill="#CDF1E4"/>
<path d="M88.9934 164.585L90.0997 163.969L91.1743 163.852L92.2329 164.219L92.3921 164.453L92.3284 165.201L91.8826 166.449L90.9753 166.924L89.7575 166.769L89.1048 165.56L88.9297 164.983L88.9934 164.585Z" fill="#263238"/>
<path d="M93.1887 164.109L94.303 163.501L95.3775 163.376L96.4282 163.751L96.5874 163.985L96.5317 164.733L96.0859 165.981L95.1706 166.457L93.9607 166.293L93.3081 165.092L93.125 164.507L93.1887 164.109Z" fill="#263238"/>
<path opacity="0.5" d="M89.8203 166.777L90.9744 166.925L91.8818 166.449L92.3275 165.202L92.3912 164.453L92.232 164.219L91.8341 164.079L89.8203 166.777Z" fill="white"/>
<path opacity="0.5" d="M94.0234 166.301L95.1696 166.457L96.0849 165.981L96.5307 164.734L96.5864 163.985L96.4272 163.751L96.0372 163.611L94.0234 166.301Z" fill="white"/>
<path d="M96.658 163.525C96.2044 163.185 95.6326 163.034 95.0661 163.104C94.3659 163.216 93.6935 163.457 93.0842 163.813C92.833 163.917 92.5564 163.947 92.2882 163.899C91.8138 163.73 91.3187 163.622 90.8157 163.579C90.0389 163.564 89.2862 163.844 88.7144 164.359C88.6478 164.502 88.6133 164.658 88.6133 164.815C88.6133 164.973 88.6478 165.128 88.7144 165.272C88.8577 165.7 89.2318 166.73 89.7332 166.995C90.0965 167.148 90.4977 167.194 90.8874 167.127C91.2804 167.103 91.6584 166.971 91.9778 166.745C92.3727 166.175 92.5784 165.5 92.5668 164.811C92.5628 164.783 92.5628 164.754 92.5668 164.726C92.615 164.693 92.6707 164.672 92.729 164.665C92.7873 164.658 92.8464 164.666 92.9011 164.687C92.9011 164.687 92.9011 164.765 92.9011 164.796C93.0444 165.225 93.4185 166.254 93.9199 166.527C94.2852 166.673 94.6842 166.719 95.0741 166.66C95.4654 166.633 95.8409 166.498 96.1565 166.27C96.5565 165.705 96.7653 165.031 96.7535 164.344V164.258C96.8117 164.01 96.7778 163.75 96.658 163.525ZM92.0176 164.726V164.827C92.0284 165.341 91.8963 165.847 91.6356 166.293C91.3962 166.426 91.1318 166.511 90.8583 166.542C90.5847 166.573 90.3077 166.549 90.0437 166.472C89.686 166.083 89.4365 165.611 89.3194 165.1C89.2477 164.874 89.2318 164.772 89.2079 164.772C89.6838 164.391 90.2805 164.184 90.8953 164.188C91.2845 164.137 91.6799 164.208 92.0256 164.39C92.036 164.502 92.0334 164.615 92.0176 164.726ZM96.2361 164.258V164.367C96.2459 164.878 96.1138 165.382 95.8541 165.825C95.3696 166.091 94.7972 166.159 94.2622 166.012C93.9146 165.618 93.6689 165.147 93.5458 164.64C93.4662 164.406 93.4583 164.312 93.4344 164.312C93.9058 163.929 94.501 163.721 95.1139 163.727C95.5048 163.672 95.9035 163.74 96.2521 163.922C96.2591 164.034 96.2538 164.147 96.2361 164.258Z" fill="#4CCEA0"/>
<path d="M84.3893 171.291C84.5511 171.719 84.7975 172.112 85.1144 172.446C85.4313 172.781 85.8124 173.051 86.2359 173.241C87.3821 173.732 88.1462 172.773 87.987 171.619C87.8278 170.465 87.0796 169.077 85.8538 169.069C85.5838 169.065 85.3172 169.129 85.0791 169.253C84.841 169.378 84.6393 169.56 84.4928 169.783C84.3463 170.005 84.26 170.26 84.2419 170.524C84.2238 170.788 84.2745 171.052 84.3893 171.291Z" fill="#FFBBB8"/>
<path d="M111.032 283.17L105.261 230.229H46.7433L40.9727 283.17C39.9538 292.528 44.4509 301.036 50.3808 301.036H101.624C107.554 301.036 112.083 292.497 111.032 283.17Z" fill="#263238"/>
<path opacity="0.5" d="M111.032 283.17L105.261 230.229H46.7433L40.9727 283.17C39.9538 292.528 44.4509 301.036 50.3808 301.036H101.624C107.554 301.036 112.083 292.497 111.032 283.17Z" fill="#1A7BC2"/>
<path opacity="0.2" d="M111.03 283.17L105.26 230.229H104.575L109.582 276.105C110.593 285.463 106.095 293.971 100.166 293.971H48.9225C45.484 293.971 42.5549 291.101 40.8516 286.867C41.1859 294.665 45.2452 301.036 50.4029 301.036H101.646C107.552 301.036 112.081 292.497 111.03 283.17Z" fill="black"/>
<path d="M107.919 227.25H44.0604C43.0713 227.25 42.2695 228.036 42.2695 229.005V231.446C42.2695 232.415 43.0713 233.2 44.0604 233.2H107.919C108.908 233.2 109.71 232.415 109.71 231.446V229.005C109.71 228.036 108.908 227.25 107.919 227.25Z" fill="#0F8BFF"/>
<path opacity="0.2" d="M107.919 227.25H44.0604C43.0713 227.25 42.2695 228.036 42.2695 229.005V231.446C42.2695 232.415 43.0713 233.2 44.0604 233.2H107.919C108.908 233.2 109.71 232.415 109.71 231.446V229.005C109.71 228.036 108.908 227.25 107.919 227.25Z" fill="black"/>
<path d="M47.1283 239.712L48.9112 237.076C49.029 236.916 49.1024 236.73 49.1239 236.534C49.1455 236.338 49.1145 236.14 49.0341 235.96C48.9537 235.78 48.8267 235.623 48.6655 235.505C48.5044 235.388 48.3147 235.314 48.1153 235.29H44.4221C44.2226 235.314 44.0329 235.388 43.8718 235.505C43.7106 235.623 43.5835 235.78 43.5032 235.96C43.4228 236.14 43.3918 236.338 43.4134 236.534C43.4349 236.73 43.5083 236.916 43.6261 237.076L45.409 239.712C42.8063 240.983 40.8164 247.681 40.8164 250.629C40.8164 253.912 43.26 256.579 46.2687 256.579C49.2773 256.579 51.7209 253.912 51.7209 250.629C51.7209 247.681 49.731 240.983 47.1283 239.712Z" fill="#0F8BFF"/>
<path opacity="0.7" d="M47.1283 239.712L48.9112 237.076C49.029 236.916 49.1024 236.73 49.1239 236.534C49.1455 236.338 49.1145 236.14 49.0341 235.96C48.9537 235.78 48.8267 235.623 48.6655 235.505C48.5044 235.388 48.3147 235.314 48.1153 235.29H44.4221C44.2226 235.314 44.0329 235.388 43.8718 235.505C43.7106 235.623 43.5835 235.78 43.5032 235.96C43.4228 236.14 43.3918 236.338 43.4134 236.534C43.4349 236.73 43.5083 236.916 43.6261 237.076L45.409 239.712C42.8063 240.983 40.8164 247.681 40.8164 250.629C40.8164 253.912 43.26 256.579 46.2687 256.579C49.2773 256.579 51.7209 253.912 51.7209 250.629C51.7209 247.681 49.731 240.983 47.1283 239.712Z" fill="white"/>
<path d="M48.063 238.752H44.4892C44.1112 238.752 43.8047 239.053 43.8047 239.423V240.351C43.8047 240.721 44.1112 241.022 44.4892 241.022H48.063C48.4411 241.022 48.7475 240.721 48.7475 240.351V239.423C48.7475 239.053 48.4411 238.752 48.063 238.752Z" fill="#0F8BFF"/>
<path d="M109.631 239.641L111.143 236.826C111.249 236.656 111.305 236.46 111.308 236.261C111.31 236.061 111.257 235.865 111.156 235.692C111.054 235.519 110.907 235.377 110.73 235.278C110.553 235.18 110.352 235.13 110.148 235.134L106.543 235.555C106.344 235.597 106.16 235.689 106.008 235.821C105.856 235.953 105.742 236.122 105.676 236.31C105.611 236.498 105.596 236.7 105.633 236.896C105.671 237.092 105.759 237.274 105.89 237.427L107.912 239.844C105.452 241.404 104.115 248.297 104.402 251.245C104.712 254.512 107.394 256.883 110.387 256.54C113.38 256.196 115.553 253.272 115.242 249.997C114.956 247.026 112.337 240.616 109.631 239.641Z" fill="#0F8BFF"/>
<path opacity="0.7" d="M109.631 239.641L111.143 236.826C111.249 236.656 111.305 236.46 111.308 236.261C111.31 236.061 111.257 235.865 111.156 235.692C111.054 235.519 110.907 235.377 110.73 235.278C110.553 235.18 110.352 235.13 110.148 235.134L106.543 235.555C106.344 235.597 106.16 235.689 106.008 235.821C105.856 235.953 105.742 236.122 105.676 236.31C105.611 236.498 105.596 236.7 105.633 236.896C105.671 237.092 105.759 237.274 105.89 237.427L107.912 239.844C105.452 241.404 104.115 248.297 104.402 251.245C104.712 254.512 107.394 256.883 110.387 256.54C113.38 256.196 115.553 253.272 115.242 249.997C114.956 247.026 112.337 240.616 109.631 239.641Z" fill="white" fill-opacity="0.58"/>
<path d="M110.675 240.843L107.125 241.248C107.028 241.26 106.929 241.252 106.835 241.225C106.74 241.197 106.653 241.151 106.578 241.088C106.503 241.026 106.443 240.949 106.4 240.862C106.357 240.776 106.333 240.681 106.329 240.585L106.258 239.805C106.23 239.618 106.279 239.427 106.393 239.273C106.508 239.12 106.679 239.017 106.87 238.987L110.42 238.581C110.514 238.575 110.609 238.587 110.698 238.617C110.787 238.648 110.868 238.695 110.938 238.757C111.008 238.819 111.064 238.894 111.104 238.977C111.144 239.061 111.166 239.152 111.169 239.244L111.24 240.024C111.269 240.205 111.227 240.39 111.122 240.542C111.017 240.694 110.857 240.801 110.675 240.843Z" fill="#0F8BFF"/>
<path d="M101.639 239.712L103.414 237.076C103.532 236.916 103.605 236.73 103.627 236.534C103.648 236.338 103.617 236.14 103.537 235.96C103.456 235.78 103.329 235.623 103.168 235.505C103.007 235.388 102.817 235.314 102.618 235.29H98.9963C98.7968 235.314 98.6072 235.388 98.446 235.505C98.2848 235.623 98.1578 235.78 98.0774 235.96C97.997 236.14 97.966 236.338 97.9876 236.534C98.0092 236.73 98.0825 236.916 98.2003 237.076L99.9753 239.712C97.3725 240.983 95.3906 247.681 95.3906 250.629C95.3906 253.912 97.8262 256.579 100.835 256.579C103.844 256.579 106.287 253.912 106.287 250.629C106.223 247.681 104.234 240.983 101.639 239.712Z" fill="#0F8BFF"/>
<path opacity="0.7" d="M101.639 239.712L103.414 237.076C103.532 236.916 103.605 236.73 103.627 236.534C103.648 236.338 103.617 236.14 103.537 235.96C103.456 235.78 103.329 235.623 103.168 235.505C103.007 235.388 102.817 235.314 102.618 235.29H98.9963C98.7968 235.314 98.6072 235.388 98.446 235.505C98.2848 235.623 98.1578 235.78 98.0774 235.96C97.997 236.14 97.966 236.338 97.9876 236.534C98.0092 236.73 98.0825 236.916 98.2003 237.076L99.9753 239.712C97.3725 240.983 95.3906 247.681 95.3906 250.629C95.3906 253.912 97.8262 256.579 100.835 256.579C103.844 256.579 106.287 253.912 106.287 250.629C106.223 247.681 104.234 240.983 101.639 239.712Z" fill="white"/>
<path d="M102.563 238.752H98.9892C98.6112 238.752 98.3047 239.053 98.3047 239.423V240.351C98.3047 240.721 98.6112 241.022 98.9892 241.022H102.563C102.941 241.022 103.248 240.721 103.248 240.351V239.423C103.248 239.053 102.941 238.752 102.563 238.752Z" fill="#0F8BFF"/>
</svg>
