<svg width="28" height="28" viewBox="0 0 26 26" fill="none" xmlns="http://www.w3.org/2000/svg">
<path d="M7.25176 7.25176C7.33137 7.17196 7.42593 7.10864 7.53004 7.06544C7.63416 7.02224 7.74577 7 7.85849 7C7.97121 7 8.08282 7.02224 8.18693 7.06544C8.29104 7.10864 8.38561 7.17196 8.46521 7.25176L13.0002 11.7885L17.5352 7.25176C17.6149 7.17209 17.7095 7.10888 17.8136 7.06576C17.9177 7.02264 18.0293 7.00045 18.142 7.00045C18.2546 7.00045 18.3662 7.02264 18.4703 7.06576C18.5744 7.10888 18.669 7.17209 18.7487 7.25176C18.8284 7.33144 18.8916 7.42603 18.9347 7.53013C18.9778 7.63423 19 7.74581 19 7.85849C19 7.97117 18.9778 8.08274 18.9347 8.18685C18.8916 8.29095 18.8284 8.38554 18.7487 8.46521L14.212 13.0002L18.7487 17.5352C18.8284 17.6149 18.8916 17.7095 18.9347 17.8136C18.9778 17.9177 19 18.0293 19 18.142C19 18.2546 18.9778 18.3662 18.9347 18.4703C18.8916 18.5744 18.8284 18.669 18.7487 18.7487C18.669 18.8284 18.5744 18.8916 18.4703 18.9347C18.3662 18.9778 18.2546 19 18.142 19C18.0293 19 17.9177 18.9778 17.8136 18.9347C17.7095 18.8916 17.6149 18.8284 17.5352 18.7487L13.0002 14.212L8.46521 18.7487C8.38554 18.8284 8.29095 18.8916 8.18685 18.9347C8.08274 18.9778 7.97117 19 7.85849 19C7.74581 19 7.63423 18.9778 7.53013 18.9347C7.42603 18.8916 7.33144 18.8284 7.25176 18.7487C7.17209 18.669 7.10888 18.5744 7.06576 18.4703C7.02264 18.3662 7.00045 18.2546 7.00045 18.142C7.00045 18.0293 7.02264 17.9177 7.06576 17.8136C7.10888 17.7095 7.17209 17.6149 7.25176 17.5352L11.7885 13.0002L7.25176 8.46521C7.17196 8.38561 7.10864 8.29104 7.06544 8.18693C7.02224 8.08282 7 7.97121 7 7.85849C7 7.74577 7.02224 7.63416 7.06544 7.53004C7.10864 7.42593 7.17196 7.33137 7.25176 7.25176Z" fill="#434343"/>
<circle cx="13" cy="13" r="12.5" stroke="#E0E4E8"/>
</svg>
