<svg width="24" height="24" viewBox="0 0 24 24" fill="none" xmlns="http://www.w3.org/2000/svg">
<path d="M11.8 7V7.2H12H20C20.9895 7.2 21.8 8.01046 21.8 9V19C21.8 19.9895 20.9895 20.8 20 20.8H4C3.01046 20.8 2.2 19.9895 2.2 19V5C2.2 4.01046 3.01046 3.2 4 3.2H10C10.9895 3.2 11.8 4.01046 11.8 5V7ZM6 19.2H6.2V19V17V16.8H6H4H3.8V17V19V19.2H4H6ZM6 15.2H6.2V15V13V12.8H6H4H3.8V13V15V15.2H4H6ZM6 11.2H6.2V11V9V8.8H6H4H3.8V9V11V11.2H4H6ZM6 7.2H6.2V7V5V4.8H6H4H3.8V5V7V7.2H4H6ZM10 19.2H10.2V19V17V16.8H10H8H7.8V17V19V19.2H8H10ZM10 15.2H10.2V15V13V12.8H10H8H7.8V13V15V15.2H8H10ZM10 11.2H10.2V11V9V8.8H10H8H7.8V9V11V11.2H8H10ZM10 7.2H10.2V7V5V4.8H10H8H7.8V5V7V7.2H8H10ZM11.8 19V19.2H12H19C19.6605 19.2 20.2 18.6605 20.2 18V10C20.2 9.33954 19.6605 8.8 19 8.8H12H11.8V9V11V11.2H12H14.8V12.8H12H11.8V13V15V15.2H12H14.8V16.8H12H11.8V17V19ZM16.2 12.8V11.2H18.8V12.8H16.2ZM16.2 16.8V15.2H18.8V16.8H16.2Z" fill="#9BAFBE" stroke="white" stroke-width="0.4"/>
</svg>
