<svg width="32" height="32" viewBox="0 0 32 32" fill="none" xmlns="http://www.w3.org/2000/svg">
<rect width="32" height="32" rx="6" fill="#F3F4F6"/>
<path d="M19.2097 8.29199H14.0706C12.9351 8.29243 11.8462 8.74382 11.0435 9.5469C10.2407 10.35 9.78974 11.439 9.78974 12.5745V19.4262C9.78974 21.7912 11.7064 23.7087 14.0714 23.7087H19.2106C21.5756 23.7087 23.4931 21.792 23.4931 19.4262V12.5753C23.4931 10.2103 21.5764 8.29283 19.2106 8.29283M8.50391 13.0028H11.0731M8.50391 18.9978H11.0731" stroke="#219AF2" stroke-width="1.5" stroke-linecap="round" stroke-linejoin="round"/>
<path d="M19.8914 19.9547C19.8914 18.5772 18.3556 17.458 16.9789 17.458C15.6014 17.458 14.0664 18.5772 14.0664 19.9539M16.9789 15.4739C17.2359 15.4739 17.4903 15.4233 17.7277 15.3249C17.9651 15.2266 18.1808 15.0825 18.3625 14.9008C18.5442 14.7191 18.6883 14.5034 18.7866 14.266C18.885 14.0286 18.9356 13.7742 18.9356 13.5172C18.9356 13.2603 18.885 13.0058 18.7866 12.7684C18.6883 12.531 18.5442 12.3153 18.3625 12.1336C18.1808 11.9519 17.9651 11.8078 17.7277 11.7095C17.4903 11.6112 17.2359 11.5605 16.9789 11.5605C16.46 11.5605 15.9623 11.7667 15.5953 12.1336C15.2284 12.5006 15.0222 12.9983 15.0222 13.5172C15.0222 14.0362 15.2284 14.5338 15.5953 14.9008C15.9623 15.2677 16.46 15.4739 16.9789 15.4739Z" stroke="#219AF2" stroke-width="1.5" stroke-linecap="round" stroke-linejoin="round"/>
</svg>
