<svg width="208" height="200" viewBox="0 0 208 200" fill="none" xmlns="http://www.w3.org/2000/svg">
<path d="M179.597 171.221H197.076V165.658H179.597V171.221Z" fill="#EBEBEB"/>
<path d="M137.053 116.342H154.532V110.779H137.053V116.342Z" fill="#EBEBEB"/>
<path d="M189.347 178.232L198.146 178.088L202.496 178.028H206.826L206.598 178.252V172.689L206.846 172.937L198.107 172.908L193.737 172.863L189.367 172.808L189.486 172.689L189.347 178.232ZM189.347 178.232L189.233 172.669V172.555H189.352L193.722 172.5L198.092 172.455L206.831 172.42H207.08V172.669V178.232V178.461H206.856H202.447L198.057 178.401L189.347 178.232Z" fill="#EBEBEB"/>
<path d="M78.3917 42.6151L87.1909 42.4709L91.5408 42.4113L95.8708 42.3864L95.6471 42.6151V37.0522L95.8956 37.3008L87.1561 37.266L82.7863 37.2262L78.4165 37.1715L78.5359 37.0522L78.3917 42.6151ZM78.3917 42.6151L78.2773 37.0522V36.9378H78.3967L82.7664 36.8832L87.1362 36.8434L95.8758 36.8086H96.1243V37.0572V42.62V42.8487H95.8956L91.4861 42.8239L87.0964 42.7642L78.3917 42.6151Z" fill="#EBEBEB"/>
<path d="M88.1457 49.6385L96.9449 49.4943L101.29 49.4347H105.62L105.396 49.6634L105.371 44.1005L105.62 44.349L96.8852 44.3142L92.5155 44.2745L88.1457 44.2198L88.26 44.1005L88.1457 49.6385ZM88.1457 49.6385L88.0264 44.0756V43.9613H88.1506L92.5204 43.9066L96.8902 43.8668L105.625 43.832H105.878V44.0806V49.6435V49.8722H105.65L101.245 49.8473L96.8504 49.7877L88.1457 49.6385Z" fill="#EBEBEB"/>
<path d="M97.8573 42.6133H115.336V37.0504H97.8573V42.6133Z" fill="#EBEBEB"/>
<path d="M1.17324 178.237H18.6523V172.674H1.17324V178.237Z" fill="#EBEBEB"/>
<path d="M10.9203 6.45313L28.3994 6.45312V0.890236L10.9203 0.890236V6.45313Z" fill="#EBEBEB"/>
<path d="M1.17351 13.4638L9.97272 13.3196L14.3226 13.26H18.6526L18.4239 13.4837V7.92079L18.6725 8.16936L9.93295 8.13456L5.56814 8.0749L1.19837 8.02022L1.29282 7.88102L1.17351 13.4638ZM1.17351 13.4638L1.0542 7.88102V7.76668H1.17351L5.56814 7.73188L9.93792 7.68714L18.6775 7.65234H18.926V7.88102V13.4439V13.6726H18.7023H14.2928L9.90312 13.6129L1.17351 13.4638Z" fill="#EBEBEB"/>
<path d="M179.596 6.44768L188.395 6.30352L192.745 6.24386H197.075L196.846 6.46757V0.904681L197.095 1.15325L188.355 1.11845L183.986 1.07868L179.616 1.02399L179.735 0.904681L179.596 6.44768ZM179.596 6.44768L179.477 0.884796V0.770456H179.596L183.966 0.715771L188.335 0.671029L197.075 0.63623H197.324V0.884796L197.299 6.44768V6.67637H197.075H192.665L188.276 6.61671L179.596 6.44768Z" fill="#EBEBEB"/>
<path d="M135.702 0V96.9404H198.703V0H135.702ZM196.377 94.6089H138.024V2.32657H196.377V94.6089Z" fill="#EBEBEB"/>
<path d="M196.377 2.32568H138.024V94.608H196.377V2.32568Z" fill="white"/>
<path d="M138.023 49.6294L196.376 49.6294V47.3028L138.023 47.3028V49.6294Z" fill="#EBEBEB"/>
<path d="M131.421 103.602L202.983 103.602V96.9306L131.421 96.9306V103.602Z" fill="#DBDBDB"/>
<path d="M138.024 2.32568H196.377V62.0261H138.024V2.32568ZM194.225 4.47826H140.176V59.8735H194.225V4.47826Z" fill="#DBDBDB"/>
<path d="M177.753 2.32568H176.589V59.8785H177.753V2.32568Z" fill="#DBDBDB"/>
<path d="M157.809 2.32568H156.646V59.8785H157.809V2.32568Z" fill="#DBDBDB"/>
<path d="M9.30078 0V96.9404H72.3021V0H9.30078ZM69.9805 94.6089H11.6274V2.32657H69.9805V94.6089Z" fill="#EBEBEB"/>
<path d="M69.9796 2.32568H11.6265V94.608H69.9796V2.32568Z" fill="white"/>
<path d="M11.6259 49.6294L69.979 49.6294V47.3028L11.6259 47.3028V49.6294Z" fill="#EBEBEB"/>
<path d="M5.0162 103.602L76.5781 103.602V96.9306L5.0162 96.9306V103.602Z" fill="#DBDBDB"/>
<path d="M11.6245 2.32568H69.9777V62.0261H11.6245V2.32568ZM67.8002 4.47826H13.7771V59.8735H67.8251L67.8002 4.47826Z" fill="#DBDBDB"/>
<path d="M51.3571 2.32568H50.1938V59.8785H51.3571V2.32568Z" fill="#DBDBDB"/>
<path d="M31.4138 2.32568H30.2505V59.8785H31.4138V2.32568Z" fill="#DBDBDB"/>
<path d="M0.320801 199.751L26.241 199.632L52.1612 199.587L103.997 199.502L155.832 199.587L181.752 199.627L207.673 199.751L181.752 199.87L155.832 199.915L103.997 200L52.1612 199.915L26.241 199.87L0.320801 199.751Z" fill="black"/>
<path d="M207.368 126.735H144.287V135.689H207.368V126.735Z" fill="#212B30"/>
<path d="M205.861 135.688H145.788V138.596H205.861V135.688Z" fill="#212B30"/>
<path d="M205.861 135.688H145.788V136.652H205.861V135.688Z" fill="black"/>
<path d="M146.382 199.998H143.98L150.97 138.592H157.1L146.382 199.998Z" fill="#212B30"/>
<path d="M157.1 138.596L156.384 142.702H150.503L150.97 138.596H157.1Z" fill="black"/>
<path d="M205.269 199.998H207.67L200.68 138.592H194.545L205.269 199.998Z" fill="#212B30"/>
<path d="M194.545 138.596L195.266 142.702H201.142L200.675 138.596H194.545Z" fill="black"/>
<path d="M191.293 163.019C190.808 164.792 190.486 166.606 190.333 168.438C190.383 168.527 190.373 168.86 190.333 168.771C190.333 169.069 189.871 169.014 189.871 168.721C189.871 168.527 189.871 168.338 189.871 168.149C188.812 166.837 187.276 166.007 186.033 164.863C185.033 163.967 184.304 162.808 183.93 161.518C182.901 157.963 183.865 154.2 182.628 150.66C181.559 147.608 179.645 144.953 178.019 142.209C176.309 139.281 175.036 136.209 174.917 132.764C174.818 130.139 175.131 126.639 177.129 124.675C179.247 122.587 181.877 124.153 183.498 126.013C188.2 131.411 190.378 138.232 191.258 145.207C191.755 149.065 192.252 152.952 192.128 156.85C192.056 158.929 191.776 160.996 191.293 163.019Z" fill="#84AAD7"/>
<path d="M190.359 169.855C190.614 166.212 190.571 162.554 190.23 158.918C190.23 158.918 190.23 158.893 190.23 158.879C190.289 155.921 190.523 152.978 190.408 150.015C190.266 146.815 189.83 143.635 189.106 140.515C189.108 140.51 189.109 140.505 189.108 140.5C189.108 140.495 189.106 140.49 189.104 140.486C189.101 140.482 189.097 140.479 189.093 140.476C189.088 140.474 189.084 140.473 189.079 140.473C189.074 140.473 189.069 140.474 189.064 140.476C189.06 140.479 189.056 140.482 189.054 140.486C189.051 140.49 189.049 140.495 189.049 140.5C189.049 140.505 189.049 140.51 189.051 140.515C189.625 143.582 189.969 146.688 190.08 149.806C190.14 151.463 190.127 153.133 190.041 154.817C190.011 155.359 189.961 155.906 189.921 156.453C188.693 148.153 185.693 140.215 181.127 133.177C181.067 133.082 180.893 133.177 180.953 133.286C184.222 138.638 186.644 144.464 188.132 150.557C185.87 146.366 182.449 142.921 179.914 138.894C179.914 138.894 179.864 138.894 179.879 138.919C182.156 143.393 185.914 146.938 188.33 151.347C188.743 153.147 189.086 154.966 189.325 156.791C189.663 159.299 189.846 161.826 189.872 164.357C188.495 161.782 187.063 159.321 185.934 156.597C185.904 156.522 185.8 156.572 185.825 156.646C186.784 159.475 188.072 162.523 189.877 164.934C189.877 166.723 189.832 168.518 189.727 170.303C189.449 175.08 188.634 179.788 188.236 184.55C188.233 184.579 188.241 184.609 188.259 184.631C188.277 184.654 188.304 184.669 188.333 184.672C188.362 184.675 188.391 184.667 188.414 184.649C188.437 184.631 188.451 184.604 188.455 184.575C189.42 179.717 190.056 174.799 190.359 169.855Z" fill="black"/>
<path d="M185.285 133.033C185.285 132.998 185.216 133.033 185.231 133.058C186.101 135.469 186.598 137.91 187.219 140.381C187.223 140.405 187.236 140.426 187.256 140.44C187.275 140.454 187.3 140.459 187.324 140.455C187.347 140.451 187.368 140.438 187.382 140.419C187.396 140.399 187.402 140.375 187.398 140.351C187.15 137.845 186.255 135.345 185.285 133.033Z" fill="black"/>
<path d="M207.428 143.14C206.855 144.555 206.191 145.932 205.44 147.261C203.869 150.11 202.233 152.729 201.96 156.045C201.91 157.53 201.698 159.006 201.329 160.445C200.916 161.673 200.325 162.834 199.574 163.89C197.873 166.376 195.746 168.508 194.165 171.079C192.526 173.763 191.315 176.686 190.576 179.743C190.536 179.908 190.272 179.863 190.312 179.699C190.312 179.699 190.312 179.674 190.312 179.659C190.31 179.653 190.309 179.648 190.309 179.642C190.309 179.636 190.31 179.63 190.312 179.624C190.064 172.505 190.63 165.327 192.798 158.506C193.756 155.506 194.909 152.572 196.248 149.722C197.411 147.236 198.858 144.87 200.901 143.025C202.228 141.832 205.102 139.546 206.991 140.763C207.856 141.34 207.786 142.25 207.428 143.14Z" fill="#84AAD7"/>
<path d="M200.276 159.282C199.023 161.354 197.641 163.346 196.14 165.247C195.449 166.147 194.748 167.042 194.062 167.942C193.734 168.369 193.371 168.792 193.068 169.249L193.635 166.962C194.554 163.368 195.439 159.739 196.806 156.279C198.209 152.929 199.86 149.688 201.748 146.585C201.798 146.505 201.663 146.446 201.619 146.525C200.127 149.011 198.586 151.467 197.318 154.077C196.622 155.531 196.013 157.025 195.494 158.551C196.074 155.304 196.886 152.102 197.925 148.971C197.925 148.946 197.895 148.926 197.88 148.971C196.524 152.133 195.673 155.488 195.36 158.914C195.052 159.838 194.767 160.771 194.505 161.713C193.381 165.69 192.397 169.721 191.487 173.763C191.47 171.108 191.699 168.457 192.173 165.844C192.17 165.834 192.164 165.825 192.155 165.819C192.147 165.813 192.136 165.81 192.126 165.81C192.115 165.81 192.105 165.813 192.097 165.819C192.088 165.825 192.082 165.834 192.079 165.844C191.384 168.568 191.153 171.39 191.393 174.191C191.045 175.727 190.712 177.263 190.398 178.804C189.697 182.085 188.837 185.426 188.41 188.747C188.408 188.755 188.408 188.764 188.41 188.772C188.412 188.781 188.415 188.789 188.42 188.796C188.425 188.803 188.431 188.809 188.438 188.814C188.446 188.819 188.454 188.822 188.462 188.824C188.471 188.825 188.479 188.825 188.488 188.824C188.496 188.822 188.504 188.818 188.511 188.814C188.519 188.809 188.525 188.802 188.529 188.795C188.534 188.788 188.537 188.78 188.539 188.771C189.036 186.972 189.325 185.113 189.722 183.303C190.12 181.493 190.538 179.659 190.96 177.835C191.577 175.185 192.228 172.54 192.884 169.881C193.326 168.916 194.182 168.056 194.818 167.246C195.519 166.356 196.22 165.461 196.901 164.556C198.181 162.882 199.328 161.111 200.331 159.257C200.361 159.272 200.296 159.242 200.276 159.282Z" fill="black"/>
<path d="M200.577 156.234C199.009 158.235 197.652 160.393 196.526 162.672C196.526 162.697 196.561 162.732 196.576 162.702C197.938 160.564 199.28 158.412 200.642 156.274C200.662 156.239 200.602 156.205 200.577 156.234Z" fill="black"/>
<path d="M170.268 149.89C171.193 151.481 172.257 153.37 171.849 155.294C171.596 156.502 170.711 157.482 170.552 158.714C170.194 161.434 172.908 163.233 174.867 164.516C179.758 167.727 186.46 170.586 187.35 177.138C187.384 177.367 187.787 177.312 187.757 177.083C187.76 177.069 187.76 177.054 187.757 177.039C187.757 177.039 187.782 177.039 187.782 177.004C188.422 173.696 188.39 170.292 187.688 166.997C186.962 163.621 185.485 160.584 183.745 157.621C180.802 152.6 177.69 147.459 173.241 143.612C172.008 142.553 169.488 140.629 168.503 143.04C167.519 145.451 169.125 147.952 170.268 149.89Z" fill="#84AAD7"/>
<path d="M174.743 160.534C177.984 164.044 183.14 166.003 185.929 169.94C184.371 163.957 181.426 158.426 177.333 153.793C177.321 153.781 177.312 153.767 177.306 153.752C177.299 153.737 177.296 153.72 177.296 153.704C177.296 153.687 177.299 153.671 177.306 153.655C177.312 153.64 177.321 153.626 177.333 153.614C177.345 153.602 177.359 153.593 177.374 153.587C177.39 153.58 177.406 153.577 177.423 153.577C177.439 153.577 177.456 153.58 177.471 153.587C177.486 153.593 177.5 153.602 177.512 153.614C180.495 156.514 182.882 159.969 184.537 163.785C183.766 161.12 182.752 158.531 181.509 156.05C181.502 156.031 181.501 156.011 181.508 155.991C181.514 155.972 181.527 155.956 181.545 155.946C181.562 155.936 181.583 155.932 181.603 155.936C181.623 155.939 181.64 155.95 181.653 155.966C183.192 158.675 184.293 161.612 184.914 164.665C188.593 173.564 188.931 184.004 188.161 193.385C188.161 193.519 187.947 193.524 187.952 193.385C188.161 185.992 188.041 178.471 186.272 171.247L186.152 170.8C183.12 166.569 177.989 164.606 174.688 160.589C174.654 160.549 174.708 160.499 174.743 160.534Z" fill="black"/>
<path d="M173.993 157.517C175.693 159.078 177.369 160.678 179.074 162.234C179.074 162.234 179.074 162.284 179.049 162.269C177.121 160.969 175.386 159.404 173.894 157.621C173.885 157.607 173.881 157.59 173.883 157.574C173.885 157.558 173.892 157.542 173.903 157.53C173.915 157.519 173.93 157.511 173.946 157.508C173.962 157.506 173.979 157.509 173.993 157.517Z" fill="black"/>
<path d="M173.722 150.754C175.228 153.22 176.93 155.561 178.813 157.753C178.838 157.783 178.813 157.828 178.768 157.798C176.656 155.788 174.915 153.42 173.628 150.803C173.625 150.791 173.626 150.779 173.631 150.767C173.635 150.756 173.644 150.746 173.655 150.741C173.666 150.735 173.679 150.733 173.691 150.735C173.703 150.738 173.714 150.744 173.722 150.754Z" fill="black"/>
<path d="M181.385 199.999H196.289L194.28 179.944H183.682L181.385 199.999Z" fill="#212B30"/>
<path d="M183.304 183.206H194.608L194.28 179.944H183.677L183.304 183.206Z" fill="black"/>
<path d="M181.85 180.924H195.82V177.722H181.85V180.924Z" fill="#212B30"/>
<path d="M19.6855 63.2642H17.001V197.315H19.6855V63.2642Z" fill="black"/>
<path d="M64.1189 15.8625L0.320801 79.6606L2.21903 81.5589L66.0172 17.7607L64.1189 15.8625Z" fill="black"/>
<path d="M3.78662 197.315V199.999H32.8936V197.315H3.78662Z" fill="black"/>
<path d="M66.2874 25.7573L75.2854 17.3061L66.8143 10.4258L60.0732 16.7592L66.2874 25.7573Z" fill="#84AAD7"/>
<path opacity="0.1" d="M75.2891 17.3072L66.2911 25.7584L63.8203 22.1791L71.5308 14.2598L75.2891 17.3072Z" fill="black"/>
<path d="M65.3608 39.8699L89.6407 17.0516L78.0426 10.8076L59.8477 27.9089L65.3608 39.8699Z" fill="#84AAD7"/>
<path opacity="0.6" d="M160.073 112.058C160.073 112.058 151.448 108.081 151.448 102.756C151.448 97.4322 162.633 94.002 162.633 89.8311C162.633 85.6601 157.756 83.2192 157.756 83.2192C157.756 83.2192 165.462 85.854 165.462 91.1186C165.462 96.3833 158.084 99.9576 157.383 103.328C156.399 107.961 160.073 112.058 160.073 112.058Z" fill="#DBDBDB"/>
<path opacity="0.6" d="M159.67 112.059C159.67 112.059 168.3 108.937 168.3 104.746C168.3 100.555 157.085 97.8609 157.085 94.5898C157.085 91.3186 161.966 89.4097 161.966 89.4097C161.966 89.4097 154.256 91.4777 154.256 95.6188C154.256 99.7599 162.707 102.608 163.333 105.969C163.96 109.33 159.67 112.059 159.67 112.059Z" fill="#DBDBDB"/>
<path d="M164.081 125.455H155.874V126.737H164.081V125.455Z" fill="#84AAD7"/>
<path opacity="0.1" d="M164.081 125.455H155.874V126.3H164.081V125.455Z" fill="black"/>
<path d="M173.825 122.01C173.326 122.75 172.625 123.332 171.806 123.684C170.986 124.037 170.082 124.146 169.201 123.999C168.918 123.946 168.64 123.866 168.371 123.76C167.962 123.6 167.572 123.395 167.208 123.149L168.252 121.603C168.446 121.739 168.652 121.857 168.868 121.955C169.465 122.231 170.141 122.282 170.772 122.099C171.403 121.917 171.947 121.513 172.304 120.961C173.427 119.38 173.83 115.771 172.691 114.379C172.617 114.28 172.284 114.116 170.961 114.379C170.718 114.434 170.464 114.494 170.131 114.578C169.888 114.66 169.636 114.715 169.38 114.742L169.346 113.812L169.256 112.888C169.341 112.888 169.475 112.833 169.649 112.783C170.259 112.606 170.883 112.476 171.513 112.396C172.507 112.296 173.502 112.396 174.133 113.181C175.982 115.443 175.232 120.032 173.825 122.01Z" fill="#84AAD7"/>
<path opacity="0.1" d="M168.252 121.594C168.446 121.73 168.652 121.849 168.868 121.947L168.371 123.751C167.962 123.591 167.572 123.386 167.208 123.14L168.252 121.594Z" fill="black"/>
<path opacity="0.1" d="M171.515 112.391L170.963 114.379C170.719 114.434 170.466 114.493 170.133 114.578C169.889 114.66 169.638 114.715 169.382 114.742L169.347 113.812L169.258 112.888C169.342 112.888 169.477 112.833 169.651 112.783C170.261 112.604 170.884 112.473 171.515 112.391Z" fill="black"/>
<path d="M149.064 109.976C149.064 109.976 149.134 110.588 149.273 111.552C149.298 111.696 149.318 111.86 149.342 112.019C149.442 112.68 149.571 113.466 149.715 114.306C149.718 114.356 149.718 114.406 149.715 114.455C149.934 115.663 150.212 116.976 150.506 118.219C150.506 118.273 150.54 118.328 150.55 118.378C150.635 118.711 150.724 119.039 150.814 119.372C150.903 119.705 151.003 119.998 151.097 120.292C151.273 120.832 151.483 121.362 151.724 121.877C153.424 125.397 155.8 125.79 157.272 125.79H162.651C164.142 125.79 166.498 125.397 168.194 121.877L168.348 121.534C168.387 121.45 168.422 121.36 168.457 121.271C168.492 121.181 168.532 121.087 168.566 120.992L168.641 120.794C168.994 119.794 169.288 118.775 169.521 117.741C169.535 117.699 169.546 117.656 169.556 117.612C169.556 117.612 169.556 117.582 169.556 117.562C169.66 117.125 169.755 116.682 169.844 116.245C169.998 115.529 170.137 114.818 170.252 114.147C170.301 113.839 170.356 113.536 170.406 113.247C170.406 113.163 170.431 113.088 170.446 113.009C170.475 112.815 170.51 112.626 170.535 112.442C170.56 112.258 170.585 112.089 170.61 111.945C170.634 111.801 170.654 111.617 170.679 111.448C170.808 110.558 170.873 109.996 170.873 109.996L149.064 109.976Z" fill="#84AAD7"/>
<path opacity="0.1" d="M149.726 114.452C149.944 115.66 150.223 116.973 150.516 118.215C150.655 118.215 150.789 118.26 150.924 118.29C151.581 118.443 152.205 118.713 152.768 119.085C153.32 119.467 153.836 119.898 154.309 120.373C154.767 120.841 155.266 121.267 155.801 121.646C156.334 122.001 156.955 122.202 157.595 122.227C157.907 122.218 158.214 122.145 158.497 122.011C158.779 121.878 159.031 121.687 159.236 121.452C159.689 120.978 160.1 120.466 160.464 119.921C160.837 119.364 161.241 118.828 161.672 118.315C161.897 118.057 162.15 117.825 162.427 117.624C162.586 117.529 162.752 117.447 162.924 117.38C163.096 117.322 163.275 117.291 163.456 117.291C163.814 117.284 164.167 117.371 164.48 117.544C164.78 117.712 165.058 117.918 165.306 118.156C165.803 118.613 166.23 119.15 166.673 119.622C167.063 120.134 167.591 120.525 168.194 120.751C168.346 120.783 168.504 120.783 168.656 120.751C169.01 119.752 169.304 118.732 169.536 117.698C169.362 117.654 169.183 117.609 169.009 117.554C168.366 117.334 167.77 116.997 167.249 116.56C166.739 116.128 166.266 115.652 165.838 115.138C165.425 114.628 164.969 114.154 164.475 113.721C163.977 113.316 163.377 113.055 162.74 112.966C162.429 112.947 162.117 112.991 161.824 113.097C161.531 113.203 161.262 113.368 161.035 113.582C160.538 114.006 160.082 114.475 159.673 114.984C159.236 115.481 158.803 115.978 158.311 116.476C158.063 116.712 157.787 116.919 157.491 117.092C157.332 117.174 157.165 117.24 156.994 117.291C156.814 117.331 156.63 117.345 156.447 117.331C156.091 117.297 155.749 117.174 155.453 116.973C155.17 116.777 154.914 116.545 154.692 116.282C154.235 115.784 153.867 115.223 153.469 114.696C153.13 114.147 152.645 113.705 152.067 113.418C151.466 113.204 150.824 113.542 150.322 113.94C150.128 114.124 149.934 114.263 149.726 114.452Z" fill="black"/>
<path d="M149.726 114.306C149.729 114.355 149.729 114.405 149.726 114.455C149.919 114.286 150.113 114.127 150.312 113.958C150.809 113.56 151.456 113.222 152.057 113.436C152.635 113.722 153.12 114.165 153.459 114.713C153.857 115.24 154.225 115.802 154.682 116.299C154.904 116.562 155.16 116.794 155.443 116.99C155.739 117.191 156.081 117.314 156.437 117.348C156.62 117.362 156.804 117.349 156.984 117.308C157.155 117.258 157.322 117.191 157.481 117.109C157.778 116.937 158.053 116.73 158.301 116.493C158.798 116.026 159.226 115.499 159.663 115.002C160.072 114.493 160.528 114.023 161.025 113.6C161.252 113.386 161.521 113.221 161.814 113.115C162.107 113.009 162.419 112.964 162.731 112.983C163.367 113.072 163.967 113.333 164.465 113.739C164.959 114.171 165.415 114.645 165.828 115.156C166.256 115.67 166.729 116.145 167.239 116.577C167.76 117.015 168.356 117.352 168.999 117.572C169.173 117.626 169.352 117.671 169.526 117.716C169.54 117.673 169.552 117.63 169.561 117.587C169.392 117.537 169.218 117.487 169.064 117.423C167.84 116.931 166.787 116.093 166.031 115.012C165.619 114.479 165.157 113.988 164.649 113.545C164.115 113.104 163.471 112.817 162.785 112.715C162.434 112.687 162.08 112.732 161.747 112.847C161.413 112.962 161.107 113.143 160.846 113.381C160.331 113.814 159.857 114.293 159.43 114.813C158.992 115.31 158.574 115.807 158.107 116.279C157.64 116.751 157.083 117.134 156.472 117.06C156.161 117.016 155.862 116.91 155.593 116.75C155.323 116.589 155.088 116.377 154.901 116.125C154.463 115.628 154.085 115.096 153.673 114.569C153.294 113.993 152.759 113.537 152.132 113.252C151.791 113.147 151.424 113.169 151.098 113.311C150.784 113.444 150.492 113.623 150.233 113.843C150.049 113.997 149.885 114.147 149.726 114.306Z" fill="white"/>
<path d="M150.53 118.241C150.53 118.296 150.565 118.35 150.575 118.4L150.898 118.47C152.162 118.845 153.292 119.575 154.154 120.573C154.605 121.064 155.105 121.509 155.645 121.9C156.221 122.287 156.891 122.509 157.584 122.541C157.936 122.537 158.282 122.46 158.603 122.314C158.923 122.169 159.209 121.958 159.443 121.696C159.916 121.214 160.345 120.692 160.726 120.135C161.085 119.583 161.476 119.054 161.899 118.549C162.317 118.052 162.829 117.6 163.44 117.605C164.073 117.639 164.667 117.919 165.096 118.385C165.593 118.823 166.01 119.33 166.473 119.812C166.903 120.349 167.477 120.752 168.128 120.975C168.271 121.002 168.418 121.002 168.561 120.975L168.635 120.776C168.483 120.809 168.325 120.809 168.173 120.776C167.57 120.551 167.042 120.16 166.652 119.648C166.209 119.151 165.787 118.654 165.285 118.181C165.037 117.943 164.759 117.738 164.459 117.57C164.146 117.397 163.793 117.309 163.435 117.316C163.254 117.317 163.075 117.347 162.903 117.406C162.731 117.473 162.565 117.554 162.406 117.649C162.129 117.851 161.876 118.082 161.651 118.34C161.22 118.854 160.816 119.39 160.443 119.946C160.079 120.491 159.668 121.004 159.215 121.477C159.01 121.713 158.758 121.903 158.476 122.037C158.193 122.17 157.886 122.244 157.574 122.253C156.934 122.228 156.313 122.027 155.779 121.671C155.245 121.293 154.746 120.867 154.288 120.399C153.815 119.923 153.299 119.492 152.747 119.111C152.184 118.738 151.56 118.469 150.903 118.316C150.803 118.241 150.669 118.241 150.53 118.241Z" fill="white"/>
<path d="M63.6747 169.142L25.7139 199.75H27.8515L71.6935 169.142H63.6747Z" fill="#C7C7C7"/>
<path d="M67.2391 169.142L48.4824 199.75H50.6201L73.6124 169.142H67.2391Z" fill="#C7C7C7"/>
<path d="M76.4362 169.142L95.1929 199.75H93.0553L70.063 169.142H76.4362Z" fill="#C7C7C7"/>
<path d="M79.7135 169.142L117.669 199.75H115.532L71.6948 169.142H79.7135Z" fill="#C7C7C7"/>
<path d="M143.067 157.915V148.961L90.9377 146.819L63.4066 73.3081H0.320801L22.642 157.915L75.9691 172.883H79.3098L143.067 157.915Z" fill="#212B30"/>
<path d="M0.320801 73.3081H7.53913L30.7949 150.428L77.9775 163.796L143.067 148.961V157.915L79.3098 172.883H75.9691L22.642 157.915L0.320801 73.3081Z" fill="#35393A"/>
<path d="M181.402 199.441C179.716 199.481 136.098 186.019 134.761 184.433C134.617 184.259 135.298 177.801 136.426 172.676C136.476 172.427 120.931 152.065 120.931 152.065L149.033 141.128L162.481 168.967L165.961 176.21C165.961 176.21 180.512 190.841 181.804 192.715C183.097 194.589 183.082 199.402 181.402 199.441Z" fill="#EBEBEB"/>
<path d="M182.626 199.689C180.872 199.734 135.334 185.834 133.933 184.203C133.396 183.592 134.211 180.773 136.418 172.675L166.246 176.269C166.246 176.269 181.657 190.736 182.999 192.674C184.342 194.613 184.376 199.639 182.626 199.689Z" fill="#84AAD7"/>
<path d="M182.543 197.665C174.966 195.149 144.169 185.734 136.488 183.795C136.429 183.795 136.414 183.82 136.488 183.845C143.945 186.504 174.817 195.691 182.523 197.764C182.652 197.834 182.687 197.72 182.543 197.665Z" fill="black"/>
<path d="M180.604 190.153C179.762 189.872 178.871 189.769 177.987 189.851C177.103 189.932 176.245 190.196 175.469 190.626C174.064 191.387 173.006 192.66 172.516 194.18C172.516 194.225 172.59 194.255 172.61 194.21C173.957 191.352 177.477 189.557 180.564 190.233C180.573 190.233 180.582 190.23 180.59 190.226C180.598 190.221 180.605 190.214 180.609 190.206C180.613 190.197 180.615 190.188 180.614 190.179C180.613 190.17 180.609 190.161 180.604 190.153Z" fill="black"/>
<path d="M169.361 179.283C166.318 178.289 162.45 178.289 159.786 180.223C159.681 180.298 159.786 180.442 159.895 180.422C162.995 179.839 166.148 179.587 169.301 179.671C169.348 179.671 169.393 179.653 169.429 179.623C169.464 179.592 169.488 179.549 169.495 179.503C169.502 179.456 169.493 179.409 169.468 179.368C169.443 179.328 169.405 179.298 169.361 179.283Z" fill="black"/>
<path d="M171.44 180.918C168.397 179.924 164.53 179.924 161.865 181.863C161.76 181.938 161.865 182.082 161.974 182.062C165.074 181.476 168.227 181.225 171.38 181.311C171.431 181.316 171.482 181.302 171.522 181.271C171.562 181.239 171.589 181.194 171.597 181.143C171.605 181.093 171.592 181.041 171.563 180.999C171.534 180.957 171.49 180.928 171.44 180.918Z" fill="black"/>
<path d="M173.515 182.558C170.472 181.564 166.605 181.564 163.94 183.503C163.836 183.577 163.94 183.721 164.049 183.701C167.149 183.116 170.302 182.864 173.455 182.951C173.506 182.956 173.557 182.941 173.597 182.91C173.638 182.879 173.664 182.833 173.672 182.783C173.68 182.732 173.668 182.681 173.638 182.639C173.609 182.597 173.565 182.568 173.515 182.558Z" fill="black"/>
<path d="M175.582 184.198C172.54 183.203 168.672 183.203 166.007 185.137C165.903 185.212 166.007 185.361 166.117 185.341C169.216 184.755 172.37 184.504 175.523 184.59C175.573 184.595 175.624 184.581 175.665 184.55C175.705 184.518 175.732 184.473 175.739 184.422C175.747 184.372 175.735 184.32 175.706 184.278C175.677 184.237 175.632 184.208 175.582 184.198Z" fill="black"/>
<path d="M175.15 172.134C173.997 170.38 171.67 171.041 170.303 172.08C168.003 173.908 166.223 176.308 165.143 179.04C165.118 179.104 165.143 179.144 165.212 179.159C165.212 179.398 165.411 179.656 165.685 179.572C168.319 178.731 171.242 178.16 173.539 176.534C174.881 175.59 176.244 173.795 175.15 172.134ZM169.418 177.484C168.135 177.931 166.833 178.309 165.565 178.801C166.531 177.416 167.567 176.08 168.667 174.799C169.21 174.188 169.793 173.613 170.412 173.079C171.407 172.274 175.165 170.633 174.454 174.073C174.061 175.937 170.954 176.957 169.418 177.484Z" fill="black"/>
<path d="M157.19 177.861C159.725 179.084 162.698 179.164 165.437 179.557C165.721 179.596 165.875 179.303 165.835 179.059C165.848 179.056 165.86 179.05 165.871 179.041C165.881 179.032 165.889 179.02 165.893 179.008C165.898 178.995 165.9 178.981 165.899 178.968C165.897 178.954 165.892 178.941 165.885 178.93C164.375 176.421 162.234 174.35 159.676 172.925C158.159 172.124 155.753 171.861 154.903 173.78C154.088 175.604 155.728 177.15 157.19 177.861ZM155.872 175.56C154.605 172.308 158.607 173.298 159.695 173.929C160.389 174.354 161.054 174.826 161.684 175.341C162.982 176.421 164.224 177.566 165.407 178.771C164.075 178.498 162.728 178.339 161.386 178.11C159.83 177.841 156.593 177.354 155.892 175.56H155.872Z" fill="black"/>
<path d="M163.903 170.284L132.922 174.862C132.922 174.862 116.019 144.165 109.189 136.529C108.806 136.088 108.389 135.679 107.941 135.306C107.235 134.986 106.477 134.798 105.704 134.749C96.5418 133.635 65.7147 136.633 44.4077 135.246L54.3503 121.948L58.7599 116.047C82.7613 113.313 112.216 103.499 125.505 110.166C139.906 117.399 163.903 170.284 163.903 170.284Z" fill="black"/>
<path d="M160.02 165.024C154.755 165.705 156.257 165.436 150.997 166.172C148.422 166.53 135.487 168.305 133.14 169.04C133.127 169.04 133.114 169.046 133.105 169.055C133.096 169.064 133.09 169.077 133.09 169.09C133.09 169.103 133.096 169.116 133.105 169.125C133.114 169.135 133.127 169.14 133.14 169.14C135.596 169.14 148.496 167.107 151.062 166.699C156.306 165.869 154.79 166.053 160.01 165.168C160.021 165.171 160.032 165.172 160.043 165.171C160.055 165.169 160.065 165.165 160.075 165.159C160.084 165.153 160.092 165.144 160.098 165.134C160.104 165.125 160.107 165.114 160.108 165.102C160.108 165.091 160.107 165.079 160.102 165.069C160.098 165.058 160.091 165.049 160.083 165.041C160.075 165.034 160.064 165.028 160.053 165.025C160.043 165.022 160.031 165.022 160.02 165.024Z" fill="#35393A"/>
<path d="M133.08 168.608C129.575 162.746 113.612 133.809 110.436 132.675C107.542 131.636 49.6815 132.839 48.8264 132.844C48.7668 132.844 48.7618 132.939 48.8264 132.939C55.6769 132.854 108.562 132.665 110.073 133.262C113.21 134.5 132.295 168.061 132.767 168.762C132.886 168.946 133.199 168.807 133.08 168.608Z" fill="#35393A"/>
<path d="M28.1847 123.138C28.1847 123.138 26.3553 140.612 35.2092 149.262C45.803 159.648 115.744 157.028 126.557 153.523C137.369 150.018 137.727 132.539 125.886 128.487C114.621 124.635 64.6592 122.417 63.476 121.945C62.2929 121.473 58.8279 115.945 58.8279 115.945L28.1847 123.138Z" fill="black"/>
<path d="M42.9787 122.645C42.9787 122.56 42.8345 122.59 42.8345 122.67C42.8359 124.934 42.0384 127.126 40.5825 128.859C38.9221 130.778 36.4762 131.842 34.259 132.97C34.0452 133.08 34.2093 133.413 34.428 133.348C35.7909 132.928 37.1043 132.361 38.3454 131.658C39.483 131.052 40.4846 130.22 41.2884 129.212C42.0105 128.295 42.5336 127.237 42.8246 126.106C43.1156 124.976 43.1681 123.797 42.9787 122.645Z" fill="#35393A"/>
<path d="M62.9985 120.854C62.5014 120.223 61.9645 119.621 61.4475 119.01C60.2295 117.553 59.0016 116.097 57.724 114.695C57.5997 114.561 57.366 114.749 57.4754 114.894C58.3354 116.022 59.2501 117.111 60.145 118.21L61.532 119.895C62.0163 120.397 62.4493 120.947 62.8245 121.535C63.1626 122.162 62.7201 122.694 62.0738 122.763C61.5 122.777 60.9423 122.572 60.5129 122.192C59.5186 121.416 58.7083 120.307 57.8731 119.363C57.376 118.786 56.844 118.205 56.322 117.638C55.8001 117.071 55.1737 116.45 54.6219 115.848C54.5871 115.808 54.5175 115.848 54.5473 115.903C55.0444 116.569 55.4769 117.26 55.9641 117.926C56.4513 118.592 56.9584 119.249 57.4555 119.915C57.9526 120.581 58.415 121.138 58.9469 121.729C59.3677 122.252 59.8715 122.702 60.4383 123.062C61.3679 123.608 62.9736 123.723 63.4708 122.525C63.5505 122.23 63.5486 121.918 63.4654 121.624C63.3823 121.33 63.2209 121.064 62.9985 120.854Z" fill="#35393A"/>
<path d="M125.075 153.586C121.342 153.656 117.619 153.875 113.885 153.954C110.152 154.034 106.483 154.054 102.779 154.019C95.3454 153.949 87.9183 153.661 80.4978 153.154C73.0011 152.657 64.9177 151.886 57.4757 150.857C53.9112 150.36 50.3021 149.952 46.7774 149.197C43.6067 148.596 40.6741 147.101 38.3262 144.887C33.504 140.209 31.6299 133.333 30.8693 126.766C30.7649 125.881 30.6803 125.001 30.6107 124.117C30.6107 124.057 30.5113 124.057 30.5163 124.117C30.9538 130.853 32.0077 137.877 36.2383 143.291C38.0257 145.654 40.4062 147.503 43.1384 148.65C46.4742 149.987 50.1728 150.3 53.6925 150.778C61.1495 151.772 69.2825 152.572 76.7991 153.159C84.3157 153.745 91.9517 154.108 99.5379 154.223C107.124 154.337 114.715 154.223 122.292 153.855C123.221 153.81 124.141 153.755 125.066 153.671C125.125 153.671 125.125 153.586 125.075 153.586Z" fill="#35393A"/>
<path d="M135.033 137.285C134.322 134.361 132.539 131.809 130.037 130.137C127.353 128.302 124.141 127.467 120.96 127.005C117.365 126.483 113.721 126.214 110.102 125.866C102.682 125.144 95.2546 124.481 87.8208 123.878C80.3937 123.266 64.396 122.024 63.4962 121.989C63.4216 121.989 63.4018 122.118 63.4962 122.128C70.6648 122.923 77.1922 123.619 84.3757 124.261C91.5592 124.902 98.7925 125.603 106.026 126.319C109.618 126.67 113.213 127.031 116.808 127.403C120.134 127.746 123.56 128.084 126.681 129.391C129.361 130.495 131.772 132.269 133.144 134.859C134.413 137.429 134.789 140.349 134.213 143.157C133.712 145.767 132.509 148.193 130.733 150.171C129.029 152.122 126.757 153.492 124.236 154.088C123.579 154.233 122.789 154.332 122.182 154.456C122.138 154.456 122.088 154.561 122.138 154.561C127.507 154.7 132.473 150.778 134.412 145.871C135.492 143.14 135.709 140.144 135.033 137.285Z" fill="#35393A"/>
<path d="M49.0594 80.1984C52.6139 94.1181 59.6781 110.762 62.5813 113.417C66.2601 116.777 88.7552 121.187 89.9235 121.301C91.8722 121.495 95.889 101.416 94.0745 101.486C89.2623 101.59 74.4379 100.084 73.374 99.0446C72.3102 98.0056 64.7389 88.9131 56.9687 78.6623C51.6345 71.608 46.8571 71.5583 49.0594 80.1984Z" fill="#F5B3A5"/>
<path d="M88.1187 120.472C88.4419 120.626 93.09 122.813 95.9187 123.564C98.0414 124.126 104.201 125.577 105.051 123.3C105.628 121.749 102.108 120.467 99.6422 119.507C98.3397 119.01 96.7191 117.693 97.082 116.858C97.7084 115.366 101.059 116.768 103.271 117.981C107.547 120.333 113.269 124.603 115.794 122.406C116.743 121.57 115.58 120.129 113.89 118.722C116.614 120.343 119.512 121.655 120.606 120.77C121.233 120.273 121.247 119.597 120.875 118.841C121.71 119.095 122.441 119.02 122.938 118.468C123.788 117.539 123.33 116.201 122.341 114.839C122.505 114.818 122.661 114.759 122.797 114.665C122.932 114.572 123.044 114.448 123.122 114.302C124.901 111.439 115.461 103.574 112.244 102.898C102.799 100.91 92.8812 101.541 92.8812 101.541C89.2571 104.583 88.0889 120.462 88.1187 120.472Z" fill="#F5B3A5"/>
<path d="M101.742 111.478C103.992 111.782 106.151 112.562 108.076 113.765C110.502 115.281 112.127 117.086 114.171 118.895C114.225 118.945 114.171 119.03 114.101 118.98C113.107 118.12 109.095 114.899 108.056 114.173C106.178 112.826 104.016 111.927 101.737 111.543C101.737 111.543 101.722 111.473 101.742 111.478Z" fill="black"/>
<path d="M103.403 107.444C105.888 108.06 108.438 108.687 110.765 109.8C113.305 111.018 115.319 113.056 117.302 115.02C118.489 116.2 119.649 117.403 120.782 118.629C120.832 118.684 120.782 118.768 120.713 118.714C118.698 116.692 116.626 114.727 114.498 112.818C112.533 111.048 110.239 109.682 107.747 108.796C106.321 108.299 104.854 107.896 103.393 107.504L103.403 107.444Z" fill="black"/>
<path d="M105.96 103.887C108.376 104.325 110.479 104.698 112.641 105.93C115.495 107.571 118.284 110.375 119.263 111.369C120.342 112.468 121.386 113.606 122.41 114.754C122.455 114.799 122.37 114.874 122.33 114.829C119.985 112.309 117.479 109.943 114.829 107.745C113.58 106.681 112.175 105.816 110.663 105.18C109.135 104.621 107.561 104.196 105.96 103.907C105.96 103.907 105.95 103.887 105.96 103.887Z" fill="black"/>
<path d="M92.5196 100.142L85.7586 123.507C85.7586 123.507 65.8187 118.332 62.1051 114.514C58.3916 110.696 51.2279 90.7011 49.0256 80.9772C46.8234 71.2533 51.7748 71.3826 56.4826 77.4326C61.1904 83.4827 72.8282 98.1381 73.4695 98.4463C74.1108 98.7546 92.5196 100.142 92.5196 100.142Z" fill="#84AAD7"/>
<path d="M83.6117 113.238C84.432 110.489 85.2771 107.739 85.993 104.955C86.4006 103.375 86.8182 101.794 87.211 100.208C87.211 100.148 87.1265 100.113 87.1066 100.173C86.172 102.902 85.2423 105.641 84.437 108.415C83.6316 111.189 82.8064 113.929 82.0358 116.703C81.5984 118.274 81.2106 119.859 80.8726 121.46C80.8726 121.49 80.9173 121.51 80.9272 121.46C81.9464 118.776 82.7815 116.012 83.6117 113.238Z" fill="black"/>
<path opacity="0.1" d="M82.8844 122.714C77.2221 121.118 64.933 117.409 62.0994 114.501C58.3908 110.683 51.2272 90.6887 49.0249 80.9698C47.9759 76.3018 48.5625 73.8957 49.9843 73.3389C50.1397 73.4132 50.2907 73.4961 50.4367 73.5874C57.7644 83.6444 72.9468 107.661 82.8844 122.714Z" fill="black"/>
<path d="M26.1703 126.158C26.2797 126.272 68.4264 117.036 68.8241 116.548C69.371 115.857 61.8345 84.1603 53.9102 74.7C51.9217 72.3336 45.5932 72.4977 42.7596 74.8839C28.7057 86.7156 25.7726 125.75 26.1703 126.158Z" fill="#84AAD7"/>
<path d="M39.4622 77.1544C31.0557 83.6171 8.90357 109.766 13.5318 115.965C18.1601 122.165 49.9069 120.106 59.1684 117.457C61.9225 116.661 54.8533 99.1326 51.9103 98.2676C49.4644 97.5417 35.7237 101.275 35.4752 100.475C35.1918 99.575 38.2392 93.7834 43.1459 83.1896C48.8132 70.9602 43.1757 74.3009 39.4622 77.1544Z" fill="#F5B3A5"/>
<path d="M64.833 96.2026C70.9577 96.3567 72.5087 97.341 77.7584 94.7112C81.1936 92.9961 83.7637 94.4577 81.4272 97.694C77.6093 102.993 69.6601 104.455 66.7619 104.157L64.833 96.2026Z" fill="#F5B3A5"/>
<path d="M47.979 99.3494C47.979 99.3494 55.3266 96.7245 61.8688 96.2473C66.3927 95.9192 76.3204 96.292 84.0359 107.428C85.8653 110.068 86.5961 115.123 82.0473 111.902C78.816 109.61 77.4539 107.179 75.3311 106.19C75.3311 106.19 75.5001 112.737 72.7858 114.467C70.4097 115.978 67.9295 117.319 65.3637 118.479C65.0451 118.058 64.7529 117.618 64.4887 117.162C64.4887 117.162 61.7992 118.534 57.3549 117.36L47.979 99.3494Z" fill="#F5B3A5"/>
<path d="M66.2155 96.605C68.1146 98.0367 72.0966 101.134 74.4679 104.798C77.1027 108.864 81.0847 117.42 78.0572 119.334C75.84 120.736 74.0354 117.604 74.0354 117.604C74.0354 117.604 74.9352 121.486 72.6533 122.317C70.5753 123.072 69.3226 120.567 69.3226 120.567C69.3226 120.567 69.4618 123.018 67.3341 123.361C64.7589 123.773 64.8882 118.573 61.9153 116.734C61.2442 116.321 66.2155 96.605 66.2155 96.605Z" fill="#F5B3A5"/>
<path d="M69.7179 106.865C71.2888 108.501 73.8938 113.129 74.0976 117.519C74.0976 117.613 74.033 117.673 74.0081 117.583C73.0047 113.857 71.5524 110.266 69.6831 106.89L69.7179 106.865Z" fill="black"/>
<path d="M65.6882 109.644C66.8962 111.195 69.3719 116.106 69.4266 120.536C69.4266 120.64 69.3521 120.69 69.3322 120.601C68.5238 116.827 67.2879 113.157 65.6484 109.664C65.6484 109.664 65.6733 109.624 65.6882 109.644Z" fill="black"/>
<path d="M75.3289 106.131C77.1882 107.031 78.3117 108.194 79.7534 109.611C80.4665 110.315 81.2183 110.979 82.0054 111.6C82.7262 112.161 83.795 113.006 84.7495 112.47C85.2815 112.176 85.3908 111.475 85.3759 110.938C85.2675 110.106 85.0293 109.296 84.67 108.537C84.67 108.537 84.7048 108.488 84.7197 108.537C85.0739 109.231 85.357 109.959 85.5648 110.71C85.6948 111.223 85.6688 111.763 85.4903 112.261C85.0229 113.29 83.7304 113.22 82.8803 112.758C82.378 112.474 81.9051 112.141 81.4685 111.764C81.0409 111.416 80.6283 111.048 80.2306 110.665C79.4054 109.885 78.6249 109.059 77.8146 108.269C77.0174 107.521 76.1739 106.823 75.2891 106.181C75.2593 106.166 75.2941 106.116 75.3289 106.131Z" fill="black"/>
<path d="M78.2815 113.672C77.4498 111.11 76.4535 108.604 75.2987 106.17C75.2968 106.167 75.2954 106.164 75.2947 106.161C75.294 106.157 75.294 106.153 75.2947 106.15C75.2954 106.147 75.2968 106.143 75.2987 106.14C75.3007 106.137 75.3032 106.135 75.3062 106.133C75.3091 106.131 75.3124 106.13 75.3159 106.129C75.3193 106.128 75.3229 106.128 75.3264 106.129C75.3298 106.13 75.3331 106.131 75.336 106.133C75.339 106.135 75.3415 106.137 75.3435 106.14C76.626 107.831 78.4356 112.066 78.8234 113.389C79.2111 114.711 79.579 116.346 79.3553 117.699C79.0172 119.737 77.6004 119.901 77.0834 119.916C76.4732 119.926 75.8781 119.726 75.3981 119.349C74.8406 118.867 74.3887 118.274 74.0708 117.609C74.0708 117.579 74.0957 117.545 74.1155 117.579C74.6872 118.499 75.7312 119.483 76.8647 119.523C77.1132 119.538 77.3623 119.505 77.5977 119.424C77.8332 119.343 78.0503 119.216 78.2367 119.051C78.6201 118.609 78.8318 118.045 78.8333 117.46C78.8666 116.175 78.68 114.894 78.2815 113.672Z" fill="black"/>
<path d="M47.9727 98.4501L54.3509 120.647C54.3509 120.647 14.665 122.914 12.4676 115.705C10.2703 108.497 29.4397 84.8834 37.3938 78.4207C46.6106 70.9091 47.1027 74.0609 44.105 81.5775C40.9632 89.4471 35.5544 100.682 35.5544 100.682L47.9727 98.4501Z" fill="#84AAD7"/>
<path d="M23.0235 104.223C25.0049 103.289 27.0519 102.502 29.1481 101.867C31.2206 101.247 33.3358 100.78 35.4766 100.47C36.6945 100.276 37.9225 100.147 39.1454 100.007C39.1533 100.007 39.1609 100.01 39.1665 100.016C39.1721 100.022 39.1752 100.029 39.1752 100.037C39.1752 100.045 39.1721 100.053 39.1665 100.058C39.1609 100.064 39.1533 100.067 39.1454 100.067C36.9951 100.388 34.8655 100.835 32.7672 101.404C30.6743 101.951 28.6013 102.533 26.5282 103.154C25.36 103.507 24.2066 103.915 23.0483 104.303C23.0426 104.307 23.0359 104.31 23.0288 104.312C23.0216 104.313 23.0142 104.313 23.0073 104.31C23.0003 104.308 22.994 104.304 22.9888 104.299C22.9836 104.294 22.9798 104.288 22.9776 104.281C22.9755 104.274 22.975 104.267 22.9763 104.259C22.9777 104.252 22.9807 104.246 22.9852 104.24C22.9897 104.234 22.9956 104.23 23.0023 104.227C23.0089 104.224 23.0162 104.222 23.0235 104.223Z" fill="black"/>
<path d="M47.8821 98.354C47.6782 98.354 36.6419 100.094 36.2741 100.198C36.3437 100.049 39.1425 94.7946 39.5601 94.029C39.5999 93.9495 39.6347 93.8749 39.6794 93.7954C39.928 93.4623 40.1765 93.1342 40.4201 92.8011L41.3249 91.4837L40.3605 92.7514C40.2113 92.9502 40.0721 93.1541 39.9329 93.3529C40.2113 92.8127 40.4848 92.2659 40.7532 91.7124C41.1907 90.8325 41.5983 89.9476 42.001 89.0527H41.9563C41.131 90.5839 40.2611 92.0902 39.4308 93.6164C38.6006 95.1426 35.4538 100.76 35.4787 100.76C35.5035 100.76 47.6782 98.5976 47.9069 98.543C47.932 98.5397 47.9547 98.5265 47.9701 98.5065C47.9854 98.4865 47.9922 98.4611 47.9889 98.4361C47.9857 98.411 47.9725 98.3883 47.9525 98.3729C47.9324 98.3575 47.9071 98.3508 47.8821 98.354Z" fill="black"/>
<path d="M46.3694 111.916C45.6734 109.431 44.9923 106.945 44.2068 104.509C43.7594 103.117 43.317 101.725 42.8546 100.338C42.8546 100.283 42.7453 100.303 42.7602 100.338C43.3617 102.854 43.9682 105.369 44.6841 107.855C45.3999 110.34 46.086 112.826 46.8317 115.267C47.2542 116.664 47.7216 118.046 48.2286 119.423C48.2286 119.43 48.2312 119.436 48.2359 119.441C48.2406 119.445 48.2469 119.448 48.2535 119.448C48.2601 119.448 48.2664 119.445 48.271 119.441C48.2757 119.436 48.2783 119.43 48.2783 119.423C47.7613 116.893 47.0703 114.407 46.3694 111.916Z" fill="black"/>
<path d="M54.7824 121.054C54.504 120.358 54.1709 119.363 53.8627 118.677C53.7832 118.498 53.6489 118.508 53.7086 118.677C53.9025 119.299 54.0367 119.985 54.2057 120.621C53.6489 120.621 53.0971 120.646 52.5403 120.671L50.6164 120.755C49.357 120.805 48.0993 120.841 46.8432 120.865C44.2913 120.911 41.7443 120.911 39.2023 120.865C34.1064 120.77 29.0188 120.41 23.9603 119.786C22.5435 119.607 21.1267 119.398 19.7248 119.145C18.3314 118.914 16.9508 118.612 15.5886 118.24C15.5538 118.24 15.534 118.294 15.5886 118.304C16.7399 118.754 17.9252 119.112 19.1332 119.373C20.3959 119.647 21.6735 119.87 22.9511 120.084C25.5014 120.477 28.0666 120.73 30.6368 120.919C35.7373 121.287 40.8462 121.441 45.9633 121.382C47.395 121.382 48.8268 121.332 50.2585 121.287C50.9794 121.262 51.7052 121.237 52.426 121.198C53.1468 121.158 54.8421 121.173 54.7824 121.054Z" fill="black"/>
<path d="M108.322 123.971H57.5449V126.019H108.322V123.971Z" fill="#212B30"/>
<path d="M85.6427 123.971H57.5449V126.019H85.6427V123.971Z" fill="#A6A6A6"/>
<path d="M84.7896 126.02H129.293L135.581 95.7949H91.0782L84.7896 126.02Z" fill="#A6A6A6"/>
<path d="M86.8047 126.02H131.308L137.596 95.7949H93.0934L86.8047 126.02Z" fill="#C7C7C7"/>
<path d="M109.236 111.584C109.184 111.96 109.213 112.343 109.323 112.707C109.433 113.07 109.621 113.406 109.874 113.689C110.126 113.973 110.438 114.199 110.786 114.35C111.134 114.502 111.511 114.576 111.891 114.567C112.705 114.549 113.486 114.238 114.088 113.689C114.69 113.141 115.074 112.393 115.167 111.584C115.22 111.208 115.19 110.825 115.08 110.461C114.97 110.098 114.782 109.762 114.53 109.479C114.277 109.195 113.966 108.97 113.618 108.818C113.269 108.667 112.892 108.593 112.512 108.601C111.698 108.62 110.919 108.932 110.316 109.48C109.714 110.028 109.331 110.775 109.236 111.584Z" fill="#EBEBEB"/>
<path d="M50.7004 84.8381C50.7004 84.8381 43.2782 77.4756 38.4263 77.585L34.2852 81.2041C34.2852 81.2041 32.928 81.6366 32.5203 80.7766C31.5261 78.6489 31.3372 73.5284 35.7716 70.2424C39.8282 67.2298 46.43 67.5131 51.9283 69.0095C57.2078 70.4462 61.7665 73.9808 60.116 77.4309C58.4656 80.881 50.7004 84.8381 50.7004 84.8381Z" fill="#84AAD7"/>
<path opacity="0.1" d="M51.2409 83.2214C51.2409 83.2214 57.3456 78.9411 57.9919 76.3709C58.6382 73.8008 53.5177 71.3101 50.2019 70.3208C45.0765 68.7897 41.5717 69.0929 38.6684 71.8122C35.7652 74.5315 51.2409 83.2214 51.2409 83.2214Z" fill="black"/>
<path d="M51.2424 83.2245C51.2424 83.2245 45.3365 73.0035 37.8447 71.9546L38.4264 77.5871C38.4264 77.5871 42.9005 77.6368 50.7005 84.8402L51.2424 83.2245Z" fill="#84AAD7"/>
<path d="M36.3867 77.6682C37.7515 77.5693 39.1216 77.766 40.4035 78.2449C41.6893 78.684 42.9203 79.2695 44.0724 79.9898C45.233 80.6978 46.3457 81.4817 47.4031 82.3362L48.9591 83.6636L50.4505 85.0605L50.6196 85.2196L50.8085 85.1202C52.2142 84.4139 53.5696 83.6116 54.8651 82.719C55.5181 82.2819 56.144 81.8054 56.7392 81.2923C57.3405 80.7863 57.8915 80.2236 58.3847 79.612C57.2436 80.6682 55.988 81.5936 54.6413 82.371C53.9802 82.7737 53.2991 83.1515 52.6131 83.5095C51.927 83.8674 51.236 84.2303 50.54 84.5534L50.893 84.6181L49.4016 83.1714C48.9045 82.7091 48.3526 82.2617 47.8257 81.8142C47.2987 81.3668 46.7171 80.9691 46.1454 80.5714C45.5737 80.1737 44.9871 79.8009 44.3657 79.4777C43.1555 78.7809 41.8606 78.2429 40.5129 77.877C40.1798 77.7775 39.8318 77.7179 39.5186 77.6433C39.2054 77.5688 38.8276 77.5439 38.4796 77.524C37.7789 77.4543 37.0713 77.503 36.3867 77.6682Z" fill="black"/>
<path d="M34.2847 81.205C35.8097 80.1749 37.2007 78.9592 38.4258 77.5859C36.9038 78.62 35.5132 79.8353 34.2847 81.205Z" fill="black"/>
<path d="M48.2097 81.3877C47.7702 83.7261 47.5324 86.0978 47.4988 88.4768C47.459 90.1372 48.1003 96.0929 49.9447 95.8741C51.789 95.6554 48.7864 91.8175 48.2594 88.6806C47.7324 85.5437 48.5726 83.2371 48.682 81.3579L48.2097 81.3877Z" fill="#84AAD7"/>
<g opacity="0.1">
<path d="M48.2063 81.3863C47.7668 83.7246 47.529 86.0963 47.4954 88.4754C47.4556 90.1358 48.0969 96.0914 49.9413 95.8726C51.7856 95.6539 48.7829 91.8161 48.256 88.6792C47.729 85.5423 48.5692 83.2356 48.6785 81.3564L48.2063 81.3863Z" fill="black"/>
</g>
<path d="M54.7777 81.7168C55.3707 83.9895 55.8289 86.2952 56.1497 88.6219C56.3486 90.1133 56.3884 95.542 54.7031 95.537C53.0178 95.5321 55.3295 91.7638 55.4836 88.8804C55.6377 85.9971 54.6434 83.412 54.3501 81.7417L54.7777 81.7168Z" fill="#84AAD7"/>
<g opacity="0.1">
<path d="M54.7821 81.7188C55.3751 83.9914 55.8333 86.2971 56.1541 88.6239C56.353 90.1153 56.3928 95.5439 54.7075 95.539C53.0222 95.534 55.3339 91.7658 55.488 88.8824C55.6421 85.999 54.6478 83.414 54.3545 81.7436L54.7821 81.7188Z" fill="black"/>
</g>
<path d="M51.8626 82.078C49.9387 81.9488 46.3494 77.932 45.1265 74.7404C45.047 74.5216 45.6236 72.4188 46.2649 69.8287C46.6278 68.2528 47.0007 66.493 47.2194 64.8574L57.1123 68.735C56.2511 70.6937 55.6333 72.7506 55.2729 74.8597C55.2509 75.0862 55.2509 75.3143 55.2729 75.5408C55.2729 75.5706 55.2729 75.6104 55.2729 75.6551C55.2779 76.9775 54.8802 82.2719 51.8626 82.078Z" fill="#F5B3A5"/>
<path d="M55.2489 75.5462C55.2519 75.5843 55.2519 75.6225 55.2489 75.6606C54.8925 75.6582 54.5368 75.6282 54.1851 75.5711C48.3885 74.6464 47.9312 67.3684 47.9312 65.1313L57.1132 68.7256C56.2557 70.6921 55.6397 72.7554 55.2787 74.8701C55.2516 75.0944 55.2417 75.3204 55.2489 75.5462Z" fill="black"/>
<path d="M49.2354 52.1211C47.1624 55.3425 46.1433 66.0408 48.0025 69.0236C50.7019 73.3436 56.5581 75.3421 60.5899 71.7677C64.4973 68.2878 65.5612 54.3334 63.3688 51.4798C60.1076 47.2542 52.2977 47.3537 49.2354 52.1211Z" fill="#F5B3A5"/>
<path d="M55.909 59.9074C56.2257 59.8588 56.5393 59.7924 56.8485 59.7085C57.1889 59.682 57.5116 59.546 57.7682 59.3208C57.8351 59.2339 57.8714 59.1272 57.8714 59.0175C57.8714 58.9078 57.8351 58.8012 57.7682 58.7143C57.6091 58.5658 57.4137 58.4618 57.2016 58.413C56.9895 58.3641 56.7683 58.372 56.5602 58.4359C56.114 58.4996 55.7088 58.7306 55.4268 59.0822C55.3672 59.1642 55.3328 59.2617 55.3278 59.363C55.3228 59.4642 55.3473 59.5647 55.3985 59.6522C55.4496 59.7397 55.5251 59.8104 55.6157 59.8557C55.7064 59.9011 55.8083 59.919 55.909 59.9074Z" fill="black"/>
<path d="M63.1616 60.9005C62.859 60.7967 62.5619 60.6772 62.2717 60.5426C61.9401 60.4613 61.6446 60.2725 61.4316 60.0057C61.3808 59.9086 61.3636 59.7975 61.3824 59.6897C61.4013 59.5818 61.4553 59.4832 61.536 59.4091C61.7173 59.2884 61.9274 59.218 62.1448 59.2049C62.3623 59.1918 62.5793 59.2365 62.7738 59.3345C63.1953 59.4783 63.5492 59.772 63.7681 60.1598C63.8122 60.2504 63.8294 60.3517 63.8177 60.4518C63.806 60.5518 63.7659 60.6464 63.7021 60.7244C63.6382 60.8023 63.5534 60.8604 63.4576 60.8916C63.3618 60.9228 63.2591 60.9259 63.1616 60.9005Z" fill="black"/>
<path d="M55.3594 68.3227C55.5085 68.5116 55.6527 68.7652 55.9112 68.8198C56.179 68.8502 56.4501 68.8231 56.7066 68.7403C56.7066 68.7403 56.7464 68.7403 56.7066 68.7801C56.5849 68.9061 56.4321 68.9978 56.2636 69.0458C56.0951 69.0938 55.917 69.0965 55.7471 69.0535C55.6036 68.9984 55.4798 68.9018 55.3912 68.7761C55.3027 68.6504 55.2536 68.5013 55.25 68.3476C55.2798 68.3028 55.3345 68.2929 55.3594 68.3227Z" fill="black"/>
<path d="M56.3863 66.2722C56.5335 66.5781 56.7418 66.8506 56.9983 67.0729C57.2547 67.2951 57.554 67.4626 57.8777 67.5648C58.1603 67.6585 58.4551 67.7104 58.7527 67.7189H59.0857C59.1247 67.7148 59.1613 67.6987 59.1907 67.6729C59.2201 67.6471 59.2408 67.6128 59.2498 67.5747C59.2523 67.5499 59.2523 67.5249 59.2498 67.5001V67.4355C59.3343 66.8837 59.389 66.0386 59.389 66.0386C59.5779 66.1629 60.5473 66.7594 60.5672 66.4661C60.7312 64.06 60.9102 61.3805 60.5672 58.9445C60.5672 58.865 60.4379 58.87 60.433 58.9445C60.1894 61.2512 60.3485 63.5877 60.1397 65.9044C59.7948 65.6851 59.4196 65.5176 59.0261 65.4072C58.9465 65.4072 58.9515 67.0477 58.8968 67.2913C57.9523 67.2913 57.2861 66.9235 56.4659 66.1827C56.4112 66.1678 56.3515 66.2076 56.3863 66.2722Z" fill="black"/>
<path d="M58.4632 67.3929C58.1091 67.75 57.6691 68.0102 57.1856 68.1486C56.9195 68.212 56.6403 68.193 56.3852 68.0939C55.8334 67.8702 55.8881 67.3432 56.0472 66.9057C56.1368 66.6749 56.2519 66.4548 56.3902 66.2495C56.942 66.8415 57.6682 67.242 58.4632 67.3929Z" fill="black"/>
<path d="M57.1856 68.1481C56.9195 68.2116 56.6403 68.1925 56.3852 68.0934C55.8334 67.8697 55.8881 67.3427 56.0472 66.9053C56.3493 66.9538 56.6261 67.103 56.8327 67.3286C57.0394 67.5541 57.1637 67.8429 57.1856 68.1481Z" fill="#FF9ABB"/>
<path d="M57.3211 61.8682C57.3211 61.8682 57.2614 61.893 57.2565 61.9228C57.167 62.6387 56.9433 63.4142 56.2622 63.5733V63.6131C57.0626 63.628 57.3509 62.5641 57.3211 61.8682Z" fill="black"/>
<path d="M56.8024 61.026C55.674 60.7576 55.2216 63.0146 56.2655 63.283C57.3095 63.5515 57.7619 61.2497 56.8024 61.026Z" fill="black"/>
<path d="M61.4776 62.4121C61.4776 62.4121 61.5273 62.4569 61.5224 62.4867C61.3533 63.1827 61.2788 64.0129 61.8654 64.3807V64.4205C61.0948 64.1471 61.2092 63.0584 61.4776 62.4121Z" fill="black"/>
<path d="M62.2641 61.8071C63.4125 61.9563 63.0297 64.248 61.9658 64.1088C60.902 63.9697 61.2997 61.6828 62.2641 61.8071Z" fill="black"/>
<path d="M50.2525 58.9975C51.7438 57.1581 51.7936 53.2159 53.1806 52.6541C56.1633 51.4411 59.4046 57.0239 62.5813 58.1971C65.6585 59.3355 67.4084 57.7298 67.7564 55.0254C68.1044 52.321 66.5931 49.8652 63.317 48.0954C59.9316 46.261 56.1434 46.5195 53.9561 47.0117C53.9561 47.0117 55.189 46.0472 55.0398 45.5501C54.8907 45.053 52.9419 45.7141 52.2957 46.0472C51.7948 46.3698 51.3568 46.7809 51.0031 47.2602C50.5848 46.977 50.1277 46.756 49.646 46.604C48.9422 46.4047 48.1908 46.4593 47.5232 46.7581C47.3989 46.9222 48.4678 47.474 49.2433 47.7971C49.2433 47.7971 47.0659 49.2139 46.4942 50.8942C45.9225 52.5745 45.6441 61.4334 46.2356 61.7466C46.9963 62.1543 49.6559 59.7432 50.2525 58.9975Z" fill="#212B30"/>
<path d="M49.6209 47.7163C49.6508 47.7163 49.6756 47.761 49.6209 47.776C48.6343 48.1134 47.7614 48.7194 47.1005 49.5259C46.3752 50.5328 45.9324 51.7154 45.8179 52.9511C45.5146 55.3174 45.8626 57.6937 46.0615 60.0501C46.0615 60.1197 45.9471 60.1346 45.9372 60.0501C45.5693 57.5645 45.2462 54.8949 45.6737 52.3993C46.0565 50.2865 47.354 48.1438 49.6209 47.7163Z" fill="#212B30"/>
<path d="M53.3551 51.8047C54.3327 52.0271 55.259 52.4337 56.0844 53.0028C56.8312 53.6005 57.4994 54.2903 58.0729 55.0559C59.4798 56.6467 61.1352 58.0785 63.2033 58.6899C63.2033 58.6899 63.2033 58.7397 63.2033 58.7297C61.2645 58.2922 59.6588 57.0842 58.3115 55.6724C57.6932 54.8946 57.0292 54.1542 56.323 53.4552C55.4154 52.8009 54.4082 52.2973 53.3402 51.9638C53.3262 51.955 53.3149 51.9424 53.3076 51.9276C53.3002 51.9127 53.2972 51.8961 53.2987 51.8796C53.3003 51.8632 53.3064 51.8474 53.3163 51.8342C53.3263 51.8209 53.3397 51.8107 53.3551 51.8047Z" fill="#212B30"/>
<path d="M56.1777 46.8296C57.6527 46.6621 59.1439 46.704 60.6072 46.9539C62.0202 47.154 63.3878 47.5981 64.6488 48.2663C66.7964 49.4644 68.3723 51.6816 68.0542 54.2318C67.9116 55.5435 67.2839 56.7545 66.2943 57.6272C66.2812 57.6391 66.2638 57.6453 66.2461 57.6443C66.2284 57.6434 66.2117 57.6355 66.1999 57.6223C66.188 57.6091 66.1819 57.5917 66.1828 57.574C66.1837 57.5563 66.1917 57.5397 66.2049 57.5278C67.0495 56.705 67.6056 55.6312 67.7902 54.4665C67.9747 53.3019 67.7779 52.1088 67.2289 51.0651C65.9463 48.7584 63.3613 47.6797 60.8856 47.2074C59.332 46.9342 57.7542 46.8242 56.1777 46.8793V46.8296Z" fill="#212B30"/>
<path d="M54.7789 65.4061C54.1787 65.2385 53.6374 64.9059 53.2168 64.446C52.7962 63.9861 52.513 63.4175 52.3995 62.8047C52.286 62.1919 52.3466 61.5595 52.5746 60.9795C52.8026 60.3995 53.1888 59.895 53.6892 59.5236C54.1896 59.1521 54.7842 58.9284 55.4054 58.8781C56.0266 58.8277 56.6494 58.9527 57.2031 59.2387C57.7568 59.5247 58.2192 59.9603 58.5377 60.496C58.8561 61.0318 59.0179 61.6461 59.0045 62.2692C58.9949 62.7066 58.8991 63.1379 58.7227 63.5383C58.5463 63.9387 58.2927 64.3004 57.9765 64.6028C57.6603 64.9052 57.2875 65.1423 56.8796 65.3006C56.4717 65.4589 56.0366 65.5353 55.5992 65.5254C55.3218 65.5213 55.046 65.4812 54.7789 65.4061ZM56.4443 59.4107C56.2129 59.345 55.9739 59.3099 55.7334 59.3063C54.9987 59.2908 54.2857 59.5559 53.7396 60.0477C53.1936 60.5394 52.8555 61.2209 52.7942 61.9532C52.7329 62.6855 52.9531 63.4136 53.4099 63.9893C53.8667 64.565 54.5257 64.9449 55.2528 65.0516C55.9799 65.1584 56.7203 64.984 57.3233 64.564C57.9263 64.144 58.3466 63.5099 58.4984 62.7909C58.6503 62.0719 58.5224 61.322 58.1408 60.694C57.7591 60.066 57.1525 59.6071 56.4443 59.4107Z" fill="#35393A"/>
<path d="M62.3479 66.5392C61.12 66.1961 60.3594 64.6252 60.6229 62.9101C60.7356 62.0854 61.1042 61.3169 61.6768 60.7128C61.9069 60.4399 62.2033 60.2308 62.5376 60.1058C62.872 59.9808 63.2328 59.9439 63.5855 59.9989C63.9382 60.0538 64.2708 60.1987 64.5512 60.4195C64.8316 60.6403 65.0504 60.9297 65.1865 61.2596C65.5485 62.0082 65.6667 62.8514 65.5246 63.6707C65.2412 65.4902 63.9139 66.7927 62.5418 66.5839C62.4763 66.5733 62.4115 66.5584 62.3479 66.5392ZM63.6852 60.4742L63.5162 60.4344C63.2331 60.4045 62.9469 60.4426 62.6815 60.5455C62.4161 60.6484 62.179 60.8131 61.99 61.026C61.4875 61.5648 61.1629 62.2451 61.0604 62.9747C60.8168 64.5506 61.5177 65.9575 62.6313 66.1414C63.7449 66.3254 64.8386 65.177 65.0871 63.6011C65.2129 62.8754 65.1104 62.1285 64.7938 61.4634C64.6872 61.2316 64.5336 61.0244 64.3428 60.855C64.1519 60.6856 63.928 60.5576 63.6852 60.4791V60.4742Z" fill="#35393A"/>
<path d="M58.8361 62.6318L58.6074 62.249C59.1692 61.9059 60.412 61.5232 61.0931 62.5075L60.7252 62.761C60.1137 61.8761 58.8858 62.6019 58.8361 62.6318Z" fill="#35393A"/>
<path d="M44.0269 61.1966L43.6689 60.9331C43.7883 60.7641 44.8969 59.2926 45.9011 59.2876C46.9053 59.2826 52.662 60.779 52.9106 60.8188L52.8012 61.2513C51.1309 60.8287 46.6318 59.7301 45.906 59.735C45.1802 59.74 44.3401 60.7889 44.0269 61.1966Z" fill="#35393A"/>
<path d="M49.0626 61.0113C49.0626 61.0113 47.6159 57.0989 45.9008 57.5314C44.1857 57.9639 44.6679 63.2136 46.2587 64.3322C46.4528 64.4891 46.6766 64.6052 46.9167 64.6733C47.1568 64.7415 47.4082 64.7603 47.6558 64.7287C47.9033 64.6972 48.1419 64.6158 48.3572 64.4895C48.5725 64.3633 48.76 64.1948 48.9084 63.9941L49.0626 61.0113Z" fill="#F5B3A5"/>
<path d="M46.0698 59.0332V59.078C47.1735 59.9032 47.5214 61.2156 47.6656 62.5231C47.6304 62.3782 47.563 62.2432 47.4686 62.1279C47.3741 62.0126 47.2549 61.92 47.1198 61.857C46.9847 61.794 46.8372 61.7622 46.6881 61.7639C46.5391 61.7656 46.3923 61.8008 46.2587 61.8669C46.219 61.8669 46.2587 61.9414 46.2587 61.9414C46.4941 61.9286 46.7276 61.9892 46.9271 62.1147C47.1265 62.2403 47.2821 62.4246 47.3723 62.6424C47.522 63.0069 47.6304 63.3871 47.6954 63.7758C47.7253 63.9051 47.939 63.8951 47.9291 63.7758V63.746C48.3666 62.1602 47.7203 59.6347 46.0698 59.0332Z" fill="black"/>
</svg>
