<svg width="24" height="24" viewBox="0 0 24 24" fill="none" xmlns="http://www.w3.org/2000/svg">
<path fill-rule="evenodd" clip-rule="evenodd" d="M4.90438 2.02726C4.63867 2.09129 3.79042 2.58423 3.37188 2.91784C2.65437 3.48971 2.05513 4.24046 1.63275 5.09663C1.19372 5.98655 0.998504 6.87718 1.00001 7.98348C1.0019 9.38415 1.3265 10.6604 2.04323 12.0854C2.41891 12.8322 4.87908 16.9341 5.31559 17.5413C6.30225 18.9139 7.53773 19.9905 8.87293 20.6413C10.8913 21.625 13.2954 21.5867 15.1881 20.5408C15.9781 20.1042 16.1313 19.8667 16.0916 19.1401C16.0538 18.4476 15.8043 17.8645 15.0426 16.6883C14.0712 15.1883 13.3545 14.6022 12.4344 14.5553C11.9056 14.5284 11.6598 14.6049 10.861 15.0446C10.0888 15.4697 9.89698 15.5098 9.43688 15.3427C8.87502 15.1385 8.72791 14.9488 7.36854 12.675C6.69924 11.5555 6.12995 10.5641 6.1034 10.4718C6.0214 10.1868 6.04548 9.62499 6.14913 9.40454C6.2674 9.15305 6.39061 9.05096 6.96645 8.72762L7.43655 8.46362L7.51467 8.58699C7.64177 8.78785 12.7241 12.6225 13.1143 12.8119C13.4193 12.96 13.4903 12.9758 13.8437 12.9735C14.1268 12.9717 14.309 12.9428 14.5022 12.869C14.7012 12.793 15.6824 12.0747 18.3569 10.0473C20.33 8.55141 21.9522 7.32755 21.9616 7.32755C21.971 7.32755 21.9787 9.29748 21.9787 11.7052C21.9787 15.9447 21.9758 16.0863 21.8859 16.1934L21.7932 16.3041L19.1529 16.3276C16.7925 16.3485 16.4994 16.3593 16.3887 16.4294C16.1203 16.5993 16.0889 17.0061 16.3274 17.2224L16.452 17.3354H19.1789C21.8712 17.3354 21.9088 17.3341 22.1329 17.2341C22.4525 17.0915 22.775 16.7878 22.8965 16.5151L23 16.2828L22.987 11.3247L22.974 6.36662L22.8411 6.14841C22.6796 5.88315 22.3977 5.66007 22.0739 5.54129C21.8408 5.45574 21.586 5.45255 15.0217 5.45255H8.21145L7.78397 4.64396C7.25993 3.65279 6.91854 3.14907 6.44945 2.67498C5.93124 2.1512 5.36865 1.91537 4.90438 2.02726ZM4.79053 3.1928C4.33456 3.44255 4.18367 3.55276 3.75376 3.95002C2.67054 4.95113 2.11732 6.14073 2.03857 7.63838C1.96861 8.96982 2.35366 10.4866 3.12899 11.9334C3.47946 12.5874 5.78603 16.4128 6.10553 16.87C7.08399 18.27 8.36763 19.3472 9.74036 19.9202C11.2625 20.5556 13.1425 20.4871 14.5341 19.7453C15.1167 19.4348 15.1155 19.4364 15.0534 19.0866C14.9779 18.661 14.7415 18.1456 14.2965 17.4365C13.636 16.3838 13.1703 15.8532 12.7059 15.6245C12.35 15.4492 12.1151 15.5005 11.3707 15.9165C11.0236 16.1104 10.6351 16.3034 10.5073 16.3452C10.2447 16.4312 9.68652 16.4437 9.35594 16.3709C8.81355 16.2516 8.10838 15.7973 7.80854 15.3742C7.58269 15.0555 5.37152 11.3624 5.22271 11.0553C4.90166 10.3929 4.91244 9.52435 5.24966 8.88183C5.45493 8.49071 5.73831 8.24907 6.46727 7.84346C6.8411 7.63548 7.19536 7.41291 7.25454 7.34883C7.60327 6.97107 7.47758 6.27943 6.84197 5.07934C6.44771 4.33496 6.14758 3.86377 5.84327 3.5117C5.61931 3.25257 5.30219 3.01407 5.18557 3.01702C5.14285 3.01815 4.96506 3.09723 4.79053 3.1928ZM8.48206 6.73309C8.48206 7.0606 8.38045 7.45154 8.23033 7.70148L8.13246 7.86451L8.23082 7.92755C8.2849 7.96219 9.46605 8.85296 10.8557 9.90704C12.2452 10.9611 13.4521 11.8584 13.5375 11.9011C13.7974 12.0308 14.1072 11.9727 14.4367 11.7325C14.7644 11.4937 21.3018 6.53907 21.3694 6.47837C21.3961 6.45437 18.6947 6.43693 14.9488 6.43693H8.48206V6.73309Z" fill="#9BAFBE"/>
</svg>
