<svg xmlns="http://www.w3.org/2000/svg" width="22" height="22" viewBox="0 0 22 22" fill="none">
  <path d="M15.125 11H19.25C19.4323 11 19.6072 11.0724 19.7361 11.2014C19.8651 11.3303 19.9375 11.5052 19.9375 11.6875V17.1875C19.9375 17.3698 19.8651 17.5447 19.7361 17.6736C19.6072 17.8026 19.4323 17.875 19.25 17.875H2.75C2.56766 17.875 2.3928 17.8026 2.26386 17.6736C2.13493 17.5447 2.0625 17.3698 2.0625 17.1875V11.6875C2.0625 11.5052 2.13493 11.3303 2.26386 11.2014C2.3928 11.0724 2.56766 11 2.75 11H6.875" stroke="#1f69af" stroke-width="1.2" stroke-linecap="round" stroke-linejoin="round"/>
  <path d="M11 2.0625V11" stroke="#1f69af" stroke-width="1.2" stroke-linecap="round" stroke-linejoin="round"/>
  <path d="M6.875 6.875L11 11L15.125 6.875" stroke="#1f69af" stroke-width="1.2" stroke-linecap="round" stroke-linejoin="round"/>
  <path d="M16.1562 15.4688C16.7258 15.4688 17.1875 15.007 17.1875 14.4375C17.1875 13.868 16.7258 13.4062 16.1562 13.4062C15.5867 13.4062 15.125 13.868 15.125 14.4375C15.125 15.007 15.5867 15.4688 16.1562 15.4688Z" fill="#1f69af"/>
</svg>