<svg width="16" height="16" viewBox="0 0 16 16" fill="none" xmlns="http://www.w3.org/2000/svg">
<g clip-path="url(#clip0_73_20941)">
<path d="M15.9999 10.4251L15.7749 9.8001C15.5999 9.8751 15.3999 9.7751 15.3499 9.6001C15.2749 9.4251 15.3749 9.2251 15.5499 9.1751L15.2999 8.5001C15.1249 8.5751 14.9249 8.4751 14.8749 8.3001C14.7999 8.1251 14.8999 7.9251 15.0749 7.8751L14.8499 7.2501C14.6749 7.3251 14.4749 7.2251 14.4249 7.0501C14.3499 6.8751 14.4499 6.6751 14.6249 6.6251L14.3999 6.0001C14.2249 6.0501 14.0499 5.9751 13.9749 5.8251C13.2999 5.9001 12.6249 5.5251 12.3999 4.8501L3.0499 8.2001C3.3249 8.9751 2.9249 9.8251 2.1499 10.1251L3.9749 15.1001C4.7499 14.8251 5.5999 15.2251 5.8999 16.0001L15.2249 12.6001C14.9749 11.9251 15.2499 11.2001 15.8249 10.8251C15.7499 10.6751 15.8249 10.4751 15.9999 10.4251Z" fill="#FBBF67"/>
<path d="M14.1502 11.6749L6.10022 14.5999C5.67522 14.7499 5.20022 14.5249 5.02522 14.0999L3.60022 10.1749C3.45022 9.74993 3.67522 9.27493 4.10022 9.09993L12.1502 6.17493C12.5752 6.02493 13.0502 6.24993 13.2252 6.67493L14.6502 10.5999C14.8002 11.0499 14.5752 11.5249 14.1502 11.6749ZM4.25022 9.52493C4.02522 9.59993 3.92522 9.84993 4.00022 10.0499L5.42522 13.9749C5.50022 14.1999 5.75022 14.2999 5.95022 14.2249L14.0002 11.2999C14.2252 11.2249 14.3252 10.9749 14.2502 10.7749L12.8252 6.84993C12.7502 6.62493 12.5002 6.52493 12.3002 6.59993L4.25022 9.52493Z" fill="#FF5555"/>
<path d="M7.7249 10.7748L7.4999 10.8498C7.4749 10.8498 7.4499 10.8498 7.4499 10.8248L7.3249 10.5748L7.1749 10.6248L7.2499 10.8998C7.2499 10.9248 7.2499 10.9498 7.2249 10.9498L6.9999 11.0248C6.9749 11.0248 6.9749 11.0248 6.9499 10.9998L6.5249 9.2748C6.5249 9.2498 6.5249 9.2248 6.5499 9.2248L6.8749 9.0998C6.8999 9.0998 6.9249 9.0998 6.9249 9.1248L7.7249 10.7248C7.7499 10.7498 7.7499 10.7748 7.7249 10.7748ZM7.1999 10.2998L6.8999 9.6498H6.8749L7.0749 10.3248L7.1999 10.2998ZM8.1999 9.2748L8.4999 10.1248C8.5499 10.2998 8.4749 10.4748 8.2999 10.5498L7.9249 10.6748C7.8999 10.6748 7.8749 10.6748 7.8749 10.6498L7.3749 9.2498C7.3749 9.2248 7.3749 9.1998 7.3999 9.1998L7.7749 9.0748C7.9499 9.0248 8.1499 9.0998 8.1999 9.2748ZM7.9249 9.3998C7.9249 9.3748 7.8749 9.3498 7.8499 9.3498L7.7499 9.3748L8.0999 10.3248L8.1749 10.2998C8.1999 10.2998 8.2249 10.2498 8.1999 10.2248L7.9249 9.3998ZM9.2499 8.5748L9.7749 9.9748C9.7749 9.9998 9.7749 10.0248 9.7499 10.0248L9.5249 10.0998C9.4999 10.0998 9.4749 10.0998 9.4749 10.0748L9.2249 9.4248L9.2749 10.0748C9.2749 10.0998 9.2499 10.0998 9.2499 10.0748L8.8749 9.5498L9.1249 10.1998C9.1249 10.2248 9.1249 10.2498 9.0999 10.2498L8.8749 10.3248C8.8499 10.3248 8.8249 10.3248 8.8249 10.2998L8.2999 8.8998C8.2999 8.8748 8.2999 8.8498 8.3249 8.8498L8.5249 8.7748C8.5499 8.7748 8.5749 8.7748 8.5749 8.7998L9.0499 9.4998L8.9749 8.6748C8.9749 8.6498 8.9749 8.6248 8.9999 8.6248L9.1999 8.5498C9.2249 8.5498 9.2499 8.5498 9.2499 8.5748ZM10.2749 9.7998C10.2749 9.8248 10.2749 9.8498 10.2499 9.8498L10.0249 9.9248C9.9999 9.9248 9.9749 9.9248 9.9749 9.8998L9.4749 8.4998C9.4749 8.4748 9.4749 8.4498 9.4999 8.4498L9.7249 8.3748C9.7499 8.3748 9.7749 8.3748 9.7749 8.3998L10.2749 9.7998ZM10.6499 8.0748L10.7249 8.2998C10.7249 8.3248 10.7249 8.3498 10.6999 8.3498L10.5249 8.4248L10.9499 9.5748C10.9499 9.5998 10.9499 9.6248 10.9249 9.6248L10.6999 9.6998C10.6749 9.6998 10.6499 9.6998 10.6499 9.6748L10.2499 8.4998L10.0749 8.5748C10.0499 8.5748 10.0249 8.5748 10.0249 8.5498L9.9499 8.3248C9.9499 8.2998 9.9499 8.2748 9.9749 8.2748L10.5999 8.0498C10.6249 8.0498 10.6499 8.0498 10.6499 8.0748ZM8.9249 12.5748L8.8249 12.5998C8.6499 12.6498 8.4749 12.5748 8.3999 12.3998L7.9999 11.2498C7.9499 11.0748 8.0249 10.8998 8.1999 10.8248L8.2999 10.7998C8.4749 10.7498 8.6499 10.8248 8.7249 10.9998L9.1499 12.1498C9.1999 12.2998 9.0999 12.4998 8.9249 12.5748ZM8.3499 11.0748C8.2999 11.0998 8.2749 11.1248 8.2999 11.1748L8.6999 12.2998C8.6999 12.3248 8.7499 12.3498 8.7749 12.3248H8.7999C8.8249 12.3248 8.8499 12.2748 8.8499 12.2498L8.4499 11.1248C8.4249 11.0748 8.3749 11.0748 8.3499 11.0748ZM9.6999 10.6248L10.2249 12.0248C10.2249 12.0498 10.2249 12.0748 10.1999 12.0748L10.0499 12.1248C10.0249 12.1248 9.9999 12.1248 9.9999 12.0998L9.4999 11.5498L9.7249 12.1998C9.7249 12.2248 9.7249 12.2498 9.6999 12.2498L9.4749 12.3248C9.4499 12.3248 9.4249 12.3248 9.4249 12.2998L8.8999 10.8998C8.8999 10.8748 8.8999 10.8498 8.9249 10.8498L9.0999 10.7998C9.1249 10.7998 9.1499 10.7998 9.1499 10.8248L9.6749 11.4498L9.4249 10.7248C9.4249 10.6998 9.4249 10.6748 9.4499 10.6748L9.6749 10.5998C9.6749 10.5998 9.6999 10.5998 9.6999 10.6248ZM10.9499 11.5248L11.0249 11.7498C11.0249 11.7748 11.0249 11.7998 10.9999 11.7998L10.4749 11.9998C10.4499 11.9998 10.4249 11.9998 10.4249 11.9748L9.8999 10.5748C9.8999 10.5498 9.8999 10.5248 9.9249 10.5248L10.4499 10.3248C10.4749 10.3248 10.4999 10.3248 10.4999 10.3498L10.5749 10.5748C10.5749 10.5998 10.5749 10.6248 10.5499 10.6248L10.2749 10.7248L10.3749 10.9998L10.6249 10.8998C10.6499 10.8998 10.6749 10.8998 10.6749 10.9248L10.7499 11.1498C10.7499 11.1748 10.7499 11.1998 10.7249 11.1998L10.4749 11.2998L10.5999 11.6248L10.8749 11.5248C10.9249 11.4998 10.9499 11.4998 10.9499 11.5248Z" fill="#89664C"/>
<g opacity="0.5">
<path d="M6.3499 13.7002L13.9499 7.3252C13.5749 6.8752 13.5249 6.3002 13.7249 5.8002C13.1249 5.7752 12.5999 5.4002 12.3749 4.8252L3.0499 8.2002C3.3249 8.9752 2.9249 9.8252 2.1499 10.1252L2.7249 11.7252L4.2249 13.5252C4.8749 12.9752 5.7999 13.0752 6.3499 13.7002Z" fill="#947151"/>
<path opacity="0.5" d="M6.3499 13.7002L13.9499 7.3252C13.5749 6.8752 13.5249 6.3002 13.7249 5.8002C13.1249 5.7752 12.5999 5.4002 12.3749 4.8252L3.0499 8.2002C3.3249 8.9752 2.9249 9.8252 2.1499 10.1252L2.7249 11.7252L4.2249 13.5252C4.8749 12.9752 5.7999 13.0752 6.3499 13.7002Z" fill="#947151"/>
</g>
<path d="M13.125 4.025L12.7 3.5C12.55 3.625 12.35 3.6 12.225 3.45C12.1 3.3 12.125 3.1 12.275 2.975L11.85 2.45C11.7 2.575 11.5 2.55 11.375 2.4C11.25 2.25 11.275 2.05 11.425 1.925L11 1.4C10.85 1.525 10.65 1.5 10.525 1.35C10.35 1.25 10.375 1.05 10.5 0.925L10.075 0.4C9.925 0.525 9.725 0.5 9.6 0.375C9 0.675 8.25 0.55 7.775 0L0.175 6.375C0.725 7.025 0.625 7.975 0 8.5L3.4 12.575C4.025 12.05 4.975 12.125 5.5 12.75L13.1 6.375C12.65 5.825 12.65 5.05 13.05 4.5C12.975 4.35 13 4.15 13.125 4.025Z" fill="#FBBF67"/>
<path d="M11.8001 5.85021L5.25011 11.3502C4.90011 11.6502 4.37511 11.6002 4.07511 11.2502L1.40011 8.05021C1.10011 7.70021 1.15011 7.17521 1.50011 6.87521L8.05011 1.37521C8.40011 1.07521 8.92511 1.12521 9.22511 1.47521L11.9001 4.67521C12.2001 5.02521 12.1501 5.55021 11.8001 5.85021ZM1.77511 7.20021C1.60011 7.35021 1.57511 7.60021 1.72511 7.77521L4.40011 11.0002C4.55011 11.1752 4.80011 11.2002 4.97511 11.0502L11.5251 5.55021C11.7001 5.40021 11.7251 5.15021 11.5751 4.97521L8.90011 1.75021C8.75011 1.57521 8.50011 1.55021 8.32511 1.70021L1.77511 7.20021Z" fill="#FF5555"/>
<path d="M5.475 7.1999L5.3 7.3499C5.275 7.3749 5.25 7.3499 5.25 7.3499L5.05 7.1499L4.9 7.2499L5.075 7.4749V7.5249L4.9 7.6749C4.875 7.6999 4.875 7.6749 4.85 7.6749L3.875 6.1999V6.1499L4.15 5.9249C4.175 5.8999 4.2 5.8999 4.2 5.9249L5.475 7.1499V7.1999ZM4.825 6.9249L4.325 6.3999L4.3 6.4249L4.725 6.9999L4.825 6.9249ZM5.4 5.6249L5.975 6.3249C6.1 6.4749 6.075 6.6749 5.925 6.7999L5.625 7.0499C5.6 7.0749 5.575 7.0499 5.575 7.0499L4.6 5.8999C4.575 5.8749 4.6 5.8499 4.6 5.8499L4.9 5.5999C5.075 5.4749 5.275 5.4749 5.4 5.6249ZM5.175 5.8249C5.15 5.7999 5.1 5.7999 5.075 5.8249L5 5.8749L5.65 6.6499L5.725 6.5999C5.75 6.5749 5.75 6.5499 5.725 6.4999L5.175 5.8249ZM6.15 4.5999L7.125 5.7499C7.15 5.7749 7.125 5.7999 7.125 5.7999L6.925 5.9499C6.9 5.9749 6.875 5.9499 6.875 5.9499L6.425 5.4249L6.7 6.0249C6.7 6.0499 6.7 6.0499 6.675 6.0499L6.15 5.6749L6.6 6.1999C6.625 6.2249 6.6 6.2499 6.6 6.2499L6.4 6.3999C6.375 6.4249 6.35 6.3999 6.35 6.3999L5.375 5.2499C5.35 5.2249 5.375 5.1999 5.375 5.1999L5.55 5.0499C5.575 5.0249 5.6 5.0499 5.6 5.0499L6.275 5.5249L5.925 4.7749V4.7249L6.1 4.5749C6.125 4.5999 6.15 4.5999 6.15 4.5999ZM7.55 5.3999C7.575 5.4249 7.55 5.4499 7.55 5.4499L7.375 5.5999C7.35 5.6249 7.325 5.5999 7.325 5.5999L6.35 4.4499C6.325 4.4249 6.35 4.3999 6.35 4.3999L6.525 4.2499C6.55 4.2249 6.575 4.2499 6.575 4.2499L7.55 5.3999ZM7.3 3.6499L7.45 3.8249C7.475 3.8499 7.45 3.8749 7.45 3.8749L7.3 3.9999L8.1 4.9499C8.125 4.9749 8.1 4.9999 8.1 4.9999L7.925 5.1499H7.875L7.075 4.1999L6.925 4.3249C6.9 4.3499 6.875 4.3249 6.875 4.3249L6.725 4.1499C6.7 4.1249 6.725 4.0999 6.725 4.0999L7.25 3.6749C7.25 3.6499 7.275 3.6499 7.3 3.6499ZM7.225 8.4749L7.15 8.5499C7 8.6749 6.8 8.6499 6.675 8.4999L5.9 7.5749C5.775 7.4249 5.8 7.2249 5.95 7.0999L6.025 7.0249C6.175 6.8999 6.375 6.9249 6.5 7.0749L7.25 7.9999C7.375 8.1499 7.35 8.3499 7.225 8.4749ZM6.15 7.2749C6.1 7.2999 6.1 7.3499 6.125 7.3749L6.9 8.2749C6.925 8.2999 6.95 8.2999 7 8.2749L7.025 8.2499C7.05 8.2249 7.05 8.1749 7.025 8.1499L6.25 7.2749C6.225 7.2499 6.175 7.2499 6.15 7.2749ZM7.275 6.3749L8.25 7.5249C8.275 7.5499 8.25 7.5749 8.25 7.5749L8.125 7.6749C8.1 7.6999 8.075 7.6999 8.075 7.6749L7.425 7.3249L7.875 7.8499C7.9 7.8749 7.875 7.8999 7.875 7.8999L7.7 8.0499C7.675 8.0749 7.65 8.0499 7.65 8.0499L6.675 6.8999C6.65 6.8749 6.675 6.8499 6.675 6.8499L6.8 6.7499C6.825 6.7249 6.85 6.7249 6.85 6.7499L7.55 7.1499L7.05 6.5749C7.025 6.5499 7.05 6.5249 7.05 6.5249L7.225 6.3749H7.275ZM8.75 6.7999L8.9 6.9749C8.925 6.9999 8.9 7.0249 8.9 7.0249L8.475 7.3999C8.45 7.4249 8.425 7.3999 8.425 7.3999L7.45 6.2499C7.425 6.2249 7.45 6.1999 7.45 6.1999L7.875 5.8249C7.9 5.7999 7.925 5.8249 7.925 5.8249L8.075 5.9999C8.1 6.0249 8.075 6.0499 8.075 6.0499L7.85 6.2499L8.05 6.4749L8.25 6.2999C8.275 6.2749 8.3 6.2999 8.3 6.2999L8.45 6.4749C8.475 6.4999 8.45 6.5249 8.45 6.5249L8.25 6.6999L8.475 6.9749L8.7 6.7749C8.725 6.7749 8.75 6.7749 8.75 6.7999Z" fill="#89664C"/>
</g>
<defs>
<clipPath id="clip0_73_20941">
<rect width="16" height="16" fill="white"/>
</clipPath>
</defs>
</svg>
