<svg width="20" height="20" viewBox="0 0 20 20" fill="none" xmlns="http://www.w3.org/2000/svg">
<path d="M4.8 4.8V0H17.6C18.9255 0 20 1.07452 20 2.4V17.6C20 18.9255 18.9255 20 17.6 20H2.4C1.07452 20 0 18.9255 0 17.6V4.8H4.8Z" fill="white"/>
<path d="M9.42411 6V7.77021H6.22411V9.17731H8.5844V10.8681H6.22411V14H4V6H9.42411Z" fill="#0D5294"/>
<path d="M16.3863 6V7.77021H14.253V14H12.0289V7.77021H9.91826V6H16.3863Z" fill="#0D5294"/>
<path d="M0 2.4C0 1.07452 1.07452 0 2.4 0H4V4H0V2.4Z" fill="white"/>
</svg>
