<svg width="18" height="18" viewBox="0 0 18 18" fill="none" xmlns="http://www.w3.org/2000/svg">
<path d="M4.32 4.32V0H15.84C17.0329 0 18 0.967065 18 2.16V15.84C18 17.0329 17.0329 18 15.84 18H2.16C0.967065 18 0 17.0329 0 15.84V4.32H4.32Z" fill="#F2133B"/>
<path d="M0 2.16C0 0.967065 0.967065 0 2.16 0H3.6V3.6H0V2.16Z" fill="#212B40"/>
<path d="M8.47152 5.52384V6.9048H5.58864V8.39664H7.74576V9.73728H5.58864V12.6H3.86496V5.52384H8.47152Z" fill="white"/>
<path d="M11.9378 12.6706C11.4203 12.6706 10.9567 12.5866 10.5467 12.4186C10.1368 12.2506 9.80754 12.0019 9.5589 11.6726C9.31698 11.3434 9.1893 10.9469 9.17586 10.4832H11.0104C11.0373 10.7453 11.128 10.9469 11.2826 11.088C11.4371 11.2224 11.6387 11.2896 11.8874 11.2896C12.1427 11.2896 12.3443 11.2325 12.4922 11.1182C12.64 10.9973 12.7139 10.8326 12.7139 10.6243C12.7139 10.4496 12.6535 10.3051 12.5325 10.1909C12.4183 10.0766 12.2738 9.98256 12.0991 9.90864C11.9311 9.83472 11.6891 9.75072 11.3733 9.65664C10.9163 9.51552 10.5434 9.3744 10.2544 9.23328C9.96546 9.09216 9.71682 8.88384 9.5085 8.60832C9.30018 8.3328 9.19602 7.97328 9.19602 7.52976C9.19602 6.8712 9.43458 6.35712 9.9117 5.98752C10.3888 5.6112 11.0104 5.42304 11.7765 5.42304C12.556 5.42304 13.1843 5.6112 13.6615 5.98752C14.1386 6.35712 14.3939 6.87456 14.4275 7.53984H12.5627C12.5493 7.31136 12.4653 7.13328 12.3107 7.0056C12.1562 6.8712 11.9579 6.804 11.716 6.804C11.5077 6.804 11.3397 6.86112 11.212 6.97536C11.0843 7.08288 11.0205 7.2408 11.0205 7.44912C11.0205 7.6776 11.128 7.85568 11.3431 7.98336C11.5581 8.11104 11.8941 8.2488 12.3511 8.39664C12.808 8.5512 13.1776 8.69904 13.4599 8.84016C13.7488 8.98128 13.9975 9.18624 14.2058 9.45504C14.4141 9.72384 14.5183 10.0699 14.5183 10.4933C14.5183 10.8965 14.4141 11.2627 14.2058 11.592C14.0042 11.9213 13.7085 12.1834 13.3187 12.3782C12.929 12.5731 12.4687 12.6706 11.9378 12.6706Z" fill="white"/>
</svg>
