<svg width="16" height="16" viewBox="0 0 16 16" fill="none" xmlns="http://www.w3.org/2000/svg">
<path d="M8.46818 1.6539C8.31239 1.6424 8.15622 1.63664 8 1.63663V0.727539C8.17867 0.727626 8.35728 0.734297 8.53545 0.747539L8.46818 1.6539ZM10.29 2.06299C9.99859 1.95054 9.69929 1.85969 9.39455 1.79118L9.59364 0.903903C9.94182 0.982085 10.2845 1.08572 10.6173 1.21481L10.29 2.06299ZM11.5355 2.70845C11.4055 2.62177 11.2724 2.53989 11.1364 2.46299L11.5845 1.67208C11.8954 1.84821 12.1928 2.04692 12.4745 2.26663L11.9155 2.9839C11.7922 2.88775 11.6655 2.79617 11.5355 2.70936V2.70845ZM13.2027 4.33572C13.0229 4.08024 12.8245 3.83838 12.6091 3.61208L13.2673 2.98481C13.5127 3.2439 13.74 3.52118 13.9464 3.81208L13.2027 4.33572ZM13.8791 5.56481C13.8194 5.42068 13.7545 5.27877 13.6845 5.13936L14.4964 4.73027C14.6569 5.04943 14.7936 5.38003 14.9055 5.71936L14.0418 6.0039C13.993 5.8556 13.9387 5.70914 13.8791 5.56481ZM14.3609 7.8439C14.3536 7.53148 14.3232 7.22003 14.27 6.91208L15.1655 6.75754C15.2264 7.10845 15.2618 7.46481 15.2709 7.82118L14.3618 7.8439H14.3609ZM14.2418 9.24208C14.2718 9.08754 14.2964 8.9339 14.3155 8.77845L15.2182 8.89027C15.1745 9.24495 15.1046 9.59591 15.0091 9.94027L14.1327 9.69754C14.1745 9.54754 14.2109 9.39572 14.2418 9.24208ZM13.3764 11.4048C13.5436 11.1412 13.6909 10.8648 13.8182 10.5794L14.6491 10.9475C14.5036 11.2748 14.3355 11.5894 14.1445 11.8912L13.3764 11.4048ZM12.5 12.5003C12.6109 12.3894 12.7173 12.2748 12.8182 12.1566L13.5073 12.7503C13.3906 12.8856 13.269 13.0166 13.1427 13.143L12.5 12.5003Z" fill="#6B7280" stroke="#6B7280" stroke-width="0.4"/>
<path d="M8.00213 1.63663C6.95566 1.63671 5.92535 1.89485 5.00247 2.38821C4.07959 2.88157 3.29263 3.5949 2.71127 4.46504C2.12992 5.33517 1.77212 6.33525 1.66958 7.37669C1.56703 8.41812 1.7229 9.46878 2.12338 10.4356C2.52386 11.4024 3.15659 12.2555 3.96552 12.9194C4.77445 13.5833 5.73462 14.0374 6.76098 14.2416C7.78734 14.4458 8.84822 14.3937 9.84964 14.09C10.8511 13.7862 11.7621 13.2402 12.5021 12.5003L13.1449 13.143C12.2992 13.9892 11.2578 14.6137 10.1131 14.9612C8.96834 15.3087 7.75556 15.3685 6.58219 15.1353C5.40882 14.902 4.31109 14.383 3.38627 13.6241C2.46144 12.8652 1.73807 11.89 1.28025 10.7847C0.822433 9.67945 0.644299 8.47834 0.761633 7.28778C0.878968 6.09723 1.28815 4.95399 1.95292 3.95937C2.61769 2.96475 3.51753 2.14946 4.5727 1.58572C5.62787 1.02199 6.80581 0.727222 8.00213 0.727539V1.63663Z" fill="#6B7280" stroke="#6B7280" stroke-width="0.4"/>
<path d="M7.5483 3.45508C7.66885 3.45508 7.78446 3.50297 7.86971 3.58821C7.95495 3.67346 8.00284 3.78907 8.00284 3.90962V8.64599L10.9556 10.3333C11.0572 10.3946 11.1308 10.4932 11.1607 10.6081C11.1906 10.7229 11.1743 10.8449 11.1154 10.948C11.0565 11.051 10.9597 11.127 10.8456 11.1596C10.7314 11.1921 10.6091 11.1788 10.5047 11.1224L7.32284 9.30417C7.25327 9.26443 7.19544 9.20701 7.15521 9.13772C7.11498 9.06843 7.09378 8.98974 7.09375 8.90962V3.90962C7.09375 3.78907 7.14164 3.67346 7.22688 3.58821C7.31213 3.50297 7.42774 3.45508 7.5483 3.45508Z" fill="#6B7280" stroke="#6B7280" stroke-width="0.4"/>
</svg>
