<svg width="16" height="16" viewBox="0 0 16 16" fill="none" xmlns="http://www.w3.org/2000/svg">
<g clip-path="url(#clip0_73_20918)">
<mask id="mask0_73_20918" style="mask-type:luminance" maskUnits="userSpaceOnUse" x="0" y="0" width="16" height="16">
<path d="M8.00017 14.6668C8.87581 14.668 9.74305 14.496 10.552 14.1609C11.361 13.8258 12.0958 13.3342 12.7142 12.7142C13.3342 12.0958 13.8258 11.361 14.1609 10.552C14.496 9.74305 14.668 8.87581 14.6668 8.00017C14.668 7.12453 14.496 6.2573 14.1609 5.44831C13.8258 4.63933 13.3341 3.90454 12.7142 3.28617C12.0958 2.66618 11.361 2.1745 10.552 1.8394C9.74305 1.50429 8.87581 1.33237 8.00017 1.3335C7.12453 1.33239 6.2573 1.50432 5.44831 1.83942C4.63933 2.17453 3.90454 2.66619 3.28617 3.28617C2.66619 3.90454 2.17453 4.63933 1.83942 5.44831C1.50432 6.2573 1.33239 7.12453 1.3335 8.00017C1.33237 8.87581 1.50429 9.74305 1.8394 10.552C2.1745 11.361 2.66618 12.0958 3.28617 12.7142C3.90454 13.3341 4.63933 13.8258 5.44831 14.1609C6.2573 14.496 7.12453 14.668 8.00017 14.6668Z" fill="white" stroke="white" stroke-width="2" stroke-linejoin="round"/>
<path d="M5.3335 8L7.3335 10L11.3335 6" stroke="black" stroke-width="2" stroke-linecap="round" stroke-linejoin="round"/>
</mask>
<g mask="url(#mask0_73_20918)">
<path d="M0 0H16V16H0V0Z" fill="#05B476"/>
</g>
</g>
<defs>
<clipPath id="clip0_73_20918">
<rect width="16" height="16" fill="white"/>
</clipPath>
</defs>
</svg>
