<svg width="28" height="16" viewBox="0 0 28 16" fill="none" xmlns="http://www.w3.org/2000/svg">
<path fill-rule="evenodd" clip-rule="evenodd" d="M7.46714 1.90006C2.76881 3.29434 1.0469 3.82847 0.949441 3.92204C0.789544 4.07547 0.776302 4.34424 0.920015 4.51779C0.998228 4.61218 1.7308 4.85159 3.96553 5.51289L6.90806 6.38364L6.93748 9.70588C6.97032 13.4134 6.94396 13.1901 7.39717 13.5995C7.71878 13.8901 8.07636 14.0896 8.65186 14.2996C11.416 15.3084 16.5929 15.3049 19.3674 14.2923C19.9235 14.0894 20.2831 13.8875 20.6019 13.5995C21.0551 13.1901 21.0288 13.4132 21.0616 9.70764L21.091 6.38723L22.2386 6.04543C22.8698 5.8574 23.3929 5.70304 23.4009 5.70239C23.409 5.70168 23.4156 7.16806 23.4156 8.961V12.2208L23.2693 12.2575C23.1888 12.2778 23.0854 12.3534 23.0396 12.4258C22.9646 12.5441 22.474 15.2867 22.474 15.5875C22.474 15.6555 22.5391 15.7761 22.6185 15.8555C22.7618 15.9988 22.7721 16 23.8864 16C25.0008 16 25.0111 15.9988 25.1544 15.8555C25.2338 15.7761 25.2989 15.6555 25.2989 15.5875C25.2989 15.2867 24.8083 12.5441 24.7333 12.4258C24.6875 12.3534 24.5841 12.2778 24.5036 12.2575L24.3572 12.2208V8.81611V5.41143L24.5779 5.35141C24.6993 5.31839 25.2886 5.14602 25.8874 4.96829C27.0415 4.62572 27.1821 4.54556 27.1821 4.22989C27.1821 3.86543 27.373 3.93217 20.532 1.90465C16.9877 0.854223 14.0349 -0.00287642 13.9701 7.25526e-06C13.9054 0.00289093 10.979 0.85793 7.46714 1.90006ZM8.51174 2.5736C5.50965 3.46701 3.05335 4.21241 3.05335 4.23007C3.05335 4.24766 5.51919 4.99248 8.53292 5.88512L14.0125 7.50804L14.4621 7.37227C14.7094 7.29759 16.3021 6.82479 18.0014 6.32167C19.7007 5.81856 21.1391 5.3866 21.1979 5.3617C21.2578 5.33628 19.6686 5.17903 17.5785 5.00348C14.8998 4.7785 13.8155 4.66697 13.721 4.60659C13.4667 4.44428 13.4741 4.01273 13.7341 3.84236C13.8688 3.75408 14.217 3.77633 18.85 4.16963L23.8214 4.59159L24.3836 4.42916C24.6928 4.33988 24.9458 4.25072 24.9458 4.23113C24.9458 4.20547 14.49 1.07597 14.029 0.963626C13.9966 0.95574 11.5139 1.68025 8.51174 2.5736ZM7.87909 9.75884V12.8161L8.07442 12.9651C8.95382 13.6358 11.3924 14.1115 13.9701 14.1153C16.5699 14.1191 19.0363 13.6426 19.9247 12.9651L20.12 12.8161V9.75884C20.12 8.07736 20.1003 6.70161 20.0762 6.70161C20.052 6.70161 18.6765 7.10315 17.0193 7.59391L14.0063 8.4862L10.9868 7.59302C9.32611 7.10174 7.94748 6.7002 7.92323 6.70073C7.89898 6.7012 7.87909 8.07736 7.87909 9.75884ZM23.7999 13.3076C23.7449 13.5515 23.5333 14.8643 23.5333 14.9619C23.5333 15.0406 23.5985 15.0584 23.8864 15.0584C24.3028 15.0584 24.2837 15.1317 24.1212 14.1527C23.9691 13.2367 23.9543 13.1752 23.8864 13.1752C23.8553 13.1752 23.8164 13.2347 23.7999 13.3076Z" fill="#2F57EF"/>
</svg>
