<svg width="24" height="24" viewBox="0 0 24 24" fill="none" xmlns="http://www.w3.org/2000/svg">
<path d="M12 14.5C13.7259 14.5 15.125 13.1009 15.125 11.375C15.125 9.64911 13.7259 8.25 12 8.25C10.2741 8.25 8.875 9.64911 8.875 11.375C8.875 13.1009 10.2741 14.5 12 14.5Z" stroke="#6B7280" stroke-width="1.2" stroke-miterlimit="10"/>
<path d="M6.98535 17.5761C7.45614 16.6505 8.17388 15.8732 9.05912 15.3303C9.94437 14.7874 10.9626 14.5 12.001 14.5C13.0395 14.5 14.0577 14.7874 14.943 15.3303C15.8282 15.8732 16.5459 16.6505 17.0167 17.5761" stroke="#6B7280" stroke-width="1.2" stroke-linecap="round" stroke-linejoin="round"/>
<path d="M17.625 7.625C18.3154 7.625 18.875 7.06536 18.875 6.375C18.875 5.68464 18.3154 5.125 17.625 5.125C16.9346 5.125 16.375 5.68464 16.375 6.375C16.375 7.06536 16.9346 7.625 17.625 7.625Z" stroke="#6B7280" stroke-width="1.2" stroke-linecap="round" stroke-linejoin="round"/>
<path d="M17.625 5.125V4.1875" stroke="#6B7280" stroke-width="1.2" stroke-linecap="round" stroke-linejoin="round"/>
<path d="M16.5424 5.75L15.7305 5.28125" stroke="#6B7280" stroke-width="1.2" stroke-linecap="round" stroke-linejoin="round"/>
<path d="M16.5424 7L15.7305 7.46875" stroke="#6B7280" stroke-width="1.2" stroke-linecap="round" stroke-linejoin="round"/>
<path d="M17.625 7.625V8.5625" stroke="#6B7280" stroke-width="1.2" stroke-linecap="round" stroke-linejoin="round"/>
<path d="M18.709 7L19.5209 7.46875" stroke="#6B7280" stroke-width="1.2" stroke-linecap="round" stroke-linejoin="round"/>
<path d="M18.709 5.75L19.5209 5.28125" stroke="#6B7280" stroke-width="1.2" stroke-linecap="round" stroke-linejoin="round"/>
<path d="M19.4467 11.1016C19.4823 11.3997 19.5001 11.6997 19.5 12C19.5 13.4834 19.0601 14.9334 18.236 16.1668C17.4119 17.4001 16.2406 18.3614 14.8701 18.9291C13.4997 19.4968 11.9917 19.6453 10.5368 19.3559C9.08197 19.0665 7.7456 18.3522 6.6967 17.3033C5.64781 16.2544 4.9335 14.918 4.64411 13.4632C4.35472 12.0083 4.50325 10.5003 5.07091 9.12987C5.63856 7.75943 6.59986 6.58809 7.83323 5.76398C9.0666 4.93987 10.5166 4.5 12 4.5C12.2347 4.5 12.4667 4.51062 12.696 4.53186" stroke="#6B7280" stroke-width="1.2" stroke-linecap="round" stroke-linejoin="round"/>
</svg>
