<svg width="236" height="101" viewBox="0 0 236 101" fill="none" xmlns="http://www.w3.org/2000/svg">
<path d="M113.793 16.4286H109.427V31.7857L119.106 48.2394C119.748 49.3302 120.919 50 122.184 50H126.57V35L116.887 18.2153C116.249 17.1097 115.07 16.4286 113.793 16.4286Z" fill="#0F8BFF"/>
<path d="M96.5703 3.57143C96.5703 1.59898 98.1693 0 100.142 0H109.427V12.8571H96.5703V3.57143Z" fill="#25374A"/>
<path d="M96.5703 16.4286H109.427V50H100.142C98.1693 50 96.5703 48.401 96.5703 46.4286V16.4286Z" fill="#0F8BFF"/>
<path d="M126.57 0H135.856C137.828 0 139.427 1.59898 139.427 3.57143V46.4286C139.427 48.401 137.828 50 135.856 50H126.57V0Z" fill="#0F8BFF"/>
<path d="M68.5679 64.2223V81H65.63V64.2223H68.5679ZM81.9288 72.7768V81H79.1925V73.072C79.1925 72.7024 79.1781 72.3927 79.1493 72.1431C79.0869 71.5383 78.9309 71.1062 78.6812 70.847C78.4604 70.6118 78.1556 70.4389 77.7668 70.3285C77.3779 70.2181 76.8571 70.1629 76.2042 70.1629C75.7578 70.1629 75.3257 70.2013 74.9081 70.2781C74.4856 70.3501 74.1376 70.4557 73.864 70.595C73.8112 71.0942 73.7848 71.6679 73.7848 72.3159V81H71.0557V71.4806C71.0557 70.6886 71.0917 69.9037 71.1637 69.126C72.6902 68.3771 74.62 68.0027 76.9531 68.0027C78.8013 68.0219 80.0854 68.3699 80.8055 69.0468C81.0551 69.282 81.2495 69.5245 81.3887 69.7741C81.5327 70.0237 81.6455 70.3237 81.7272 70.6742C81.8184 71.0342 81.8736 71.3654 81.8928 71.6679C81.9168 72.0183 81.9288 72.3879 81.9288 72.7768ZM95.2022 72.7768V81H92.4659V73.072C92.4659 72.7024 92.4515 72.3927 92.4227 72.1431C92.3603 71.5383 92.2043 71.1062 91.9547 70.847C91.7339 70.6118 91.429 70.4389 91.0402 70.3285C90.6514 70.2181 90.1305 70.1629 89.4776 70.1629C89.0312 70.1629 88.5992 70.2013 88.1815 70.2781C87.7591 70.3501 87.411 70.4557 87.1374 70.595C87.0846 71.0942 87.0582 71.6679 87.0582 72.3159V81H84.3291V71.4806C84.3291 70.6886 84.3651 69.9037 84.4371 69.126C85.9637 68.3771 87.8935 68.0027 90.2265 68.0027C92.0747 68.0219 93.3588 68.3699 94.0789 69.0468C94.3285 69.282 94.5229 69.5245 94.6622 69.7741C94.8062 70.0237 94.919 70.3237 95.0006 70.6742C95.0918 71.0342 95.147 71.3654 95.1662 71.6679C95.1902 72.0183 95.2022 72.3879 95.2022 72.7768ZM108.274 71.5599C108.476 72.3711 108.576 73.3792 108.576 74.5842C108.576 75.7843 108.476 76.7948 108.274 77.6157C107.876 79.267 106.961 80.3327 105.531 80.8128C104.81 81.0528 103.922 81.1728 102.866 81.1728C101.801 81.1728 100.912 81.0576 100.202 80.8272C98.7763 80.3615 97.8594 79.3006 97.4513 77.6445C97.2545 76.814 97.1561 75.7939 97.1561 74.5842C97.1561 73.3744 97.2545 72.3567 97.4513 71.5311C97.8594 69.8749 98.7763 68.8164 100.202 68.3555C100.908 68.1203 101.796 68.0027 102.866 68.0027C103.922 68.0027 104.81 68.1227 105.531 68.3627C106.961 68.8428 107.876 69.9085 108.274 71.5599ZM99.914 74.5842C99.914 75.9811 100.036 77.0084 100.281 77.6661C100.492 78.1701 100.792 78.5158 101.181 78.703C101.57 78.8902 102.132 78.9886 102.866 78.9982C103.476 78.9982 103.963 78.9286 104.328 78.7894C104.693 78.6454 104.988 78.4029 105.214 78.0621C105.449 77.7165 105.61 77.2676 105.696 76.7156C105.787 76.1827 105.833 75.4722 105.833 74.5842C105.833 73.6961 105.787 72.988 105.696 72.4599C105.61 71.9127 105.449 71.4638 105.214 71.1134C104.988 70.7726 104.69 70.5326 104.321 70.3933C103.956 70.2493 103.471 70.1773 102.866 70.1773C102.271 70.1725 101.786 70.2397 101.412 70.3789C101.037 70.5134 100.74 70.739 100.519 71.0558C100.375 71.2766 100.257 71.5503 100.166 71.8767C99.998 72.4575 99.914 73.36 99.914 74.5842ZM109.147 68.1755H112.042L115.419 78.4077L118.81 68.1755H121.583L117.565 79.4086C117.147 80.5848 116.41 81.1728 115.354 81.1728C114.303 81.1728 113.568 80.5848 113.151 79.4086L109.147 68.1755ZM127.246 81.1728C125.551 81.1728 124.32 80.844 123.552 80.1863C122.793 79.5287 122.414 78.5254 122.414 77.1764C122.414 76.0051 122.69 75.0882 123.242 74.4257C123.799 73.7633 124.673 73.3408 125.863 73.1584C126.795 73.0192 128.309 72.9064 130.407 72.82C130.407 71.9031 130.189 71.2286 129.752 70.7966C129.32 70.3645 128.628 70.1485 127.678 70.1485C126.411 70.1485 124.925 70.2565 123.221 70.4725L122.997 68.4707C124.884 68.1587 126.531 68.0027 127.937 68.0027C129.166 68.0027 130.174 68.1635 130.961 68.4851C131.403 68.658 131.78 68.898 132.092 69.2052C132.754 69.8581 133.086 70.8038 133.086 72.0423V77.6949C133.086 78.4869 133.05 79.2718 132.978 80.0495C131.643 80.7984 129.733 81.1728 127.246 81.1728ZM130.407 76.9676V74.6058C130.393 74.6058 130.364 74.6082 130.321 74.613C130.282 74.613 130.225 74.6154 130.148 74.6202C130.071 74.6202 129.997 74.6202 129.925 74.6202L129.392 74.6418L128.902 74.6706C128.7 74.6754 128.52 74.6874 128.362 74.7066C128.324 74.7066 128.163 74.7234 127.88 74.757C127.582 74.7858 127.263 74.8386 126.922 74.9154C126.235 75.0738 125.76 75.3018 125.496 75.5995C125.242 75.8971 125.114 76.4083 125.114 77.1332C125.114 77.9205 125.333 78.4557 125.77 78.739C126.178 78.9982 126.804 79.1278 127.649 79.1278C128.816 79.1278 129.709 78.9814 130.328 78.6886C130.381 78.1893 130.407 77.6157 130.407 76.9676Z" fill="#212B40"/>
<path d="M132.658 66.5482V64.2223H144.122V66.5482H139.852V81H136.914V66.5482H132.658ZM155.742 64.2943V66.5194H151.241C150.127 66.505 149.379 66.6706 148.995 67.0162C148.879 67.1266 148.781 67.2874 148.699 67.4987C148.57 67.8491 148.505 68.3891 148.505 69.1188V71.3222H155.418V73.6049H148.505V76.1035C148.505 76.4491 148.517 76.7612 148.541 77.0396C148.603 77.5869 148.755 77.9757 148.995 78.2061C149.379 78.5518 150.127 78.7174 151.241 78.703H155.742V80.928C154.157 81.0048 152.681 81.0432 151.313 81.0432C149.959 81.0432 148.961 80.9688 148.318 80.82C147.175 80.5704 146.398 80.0183 145.985 79.1638C145.716 78.6022 145.581 77.9085 145.581 77.0828V68.1395C145.581 66.541 146.09 65.4464 147.108 64.856C147.766 64.4719 148.762 64.2535 150.096 64.2007C150.413 64.1863 150.819 64.1791 151.313 64.1791C152.681 64.1791 154.157 64.2175 155.742 64.2943ZM158.065 80.7336V64.4887C159.664 64.1959 161.449 64.0495 163.422 64.0495C164.963 64.0447 166.219 64.2199 167.188 64.5752C168.163 64.9304 168.917 65.468 169.449 66.1881C169.843 66.6922 170.153 67.3786 170.378 68.2475C170.474 68.6172 170.556 69.0468 170.623 69.5365C170.734 70.3957 170.789 71.4206 170.789 72.6112C170.789 73.8017 170.734 74.829 170.623 75.6931C170.556 76.1923 170.474 76.622 170.378 76.982C170.148 77.8509 169.838 78.535 169.449 79.0342C168.917 79.7543 168.163 80.2919 167.188 80.6472C166.219 81.0024 164.963 81.1776 163.422 81.1728C161.449 81.1728 159.664 81.0264 158.065 80.7336ZM160.996 66.5482V78.6742C161.711 78.7702 162.361 78.8182 162.947 78.8182C164.8 78.8182 166.096 78.4053 166.836 77.5797C167.349 77.0084 167.664 76.1443 167.779 74.9874C167.827 74.5122 167.851 73.7201 167.851 72.6112C167.851 71.2574 167.805 70.2973 167.714 69.7309C167.541 68.6364 167.138 67.8347 166.504 67.3258C165.746 66.7114 164.56 66.4041 162.947 66.4041C162.361 66.4041 161.711 66.4521 160.996 66.5482Z" fill="#0F8BFF"/>
<path d="M15.2856 90.213H21.8383V91.3177H19.2508V100H17.8773V91.3177H15.2856V90.213ZM29.0959 90.2508V91.3051H26.5673C26.2788 91.3051 26.0464 91.3149 25.87 91.3345C25.4891 91.3681 25.2091 91.4661 25.0299 91.6286C24.9487 91.7042 24.8815 91.8106 24.8283 91.9478C24.7415 92.169 24.6981 92.5233 24.6981 93.0105V94.4722H28.9027V95.5602H24.6981V97.2067C24.6981 97.4559 24.7065 97.6618 24.7233 97.8242C24.7597 98.1798 24.8619 98.4346 25.0299 98.5887C25.1139 98.6615 25.2287 98.7245 25.3743 98.7777C25.6236 98.8645 26.0212 98.9079 26.5673 98.9079H29.0959V99.9664C28.1942 100.006 27.3653 100.025 26.6093 100.025C25.8364 100.025 25.2609 99.9832 24.8829 99.8992C24.2276 99.7508 23.7838 99.4301 23.5514 98.9373C23.4057 98.6349 23.3329 98.254 23.3329 97.7948V92.4224C23.3329 91.9716 23.4043 91.5894 23.5472 91.2757C23.662 91.0209 23.858 90.7983 24.1352 90.6079C24.334 90.4734 24.6225 90.3684 25.0005 90.2928C25.1573 90.2592 25.3281 90.2368 25.5129 90.2256C25.6922 90.2116 25.87 90.2018 26.0464 90.1962C26.2536 90.1906 26.4412 90.1878 26.6093 90.1878C27.3177 90.1878 28.1466 90.2088 29.0959 90.2508ZM36.9096 98.7987L37.0314 99.8572C36.3034 100.02 35.5249 100.101 34.696 100.101C33.3351 100.101 32.3676 99.8096 31.7935 99.2271C31.3931 98.8211 31.1131 98.2834 30.9534 97.6142C30.8022 96.9589 30.7266 96.123 30.7266 95.1065C30.7266 94.3112 30.7714 93.635 30.861 93.0777C30.9534 92.5037 31.1103 92.0094 31.3315 91.595C31.6115 91.0853 32.0217 90.7115 32.5622 90.4734C33.1027 90.2326 33.8139 90.1122 34.696 90.1122C35.5333 90.1122 36.3118 90.192 37.0314 90.3516L36.9054 91.4143C36.2474 91.3107 35.6439 91.2589 35.0951 91.2589C34.0393 91.2589 33.2875 91.4787 32.8394 91.9184C32.5034 92.2488 32.2892 92.7599 32.1968 93.4515C32.1492 93.838 32.1254 94.3896 32.1254 95.1065C32.1254 96.0166 32.1716 96.6859 32.264 97.1143C32.3984 97.7444 32.6728 98.2022 33.0873 98.4878C33.5353 98.7987 34.2046 98.9541 35.0951 98.9541C35.6579 98.9541 36.2628 98.9023 36.9096 98.7987ZM40.6762 90.9943L44.9018 98.2526V90.213H46.141V99.1137C46.141 99.4413 46.0682 99.6878 45.9225 99.853C45.7797 100.018 45.5725 100.101 45.3009 100.101C45.0488 100.101 44.829 100.032 44.6414 99.895C44.4538 99.7578 44.2676 99.5296 44.0828 99.2103L39.8613 91.9436V100H38.6222V91.0993C38.6222 90.7689 38.695 90.5225 38.8406 90.36C38.9862 90.1948 39.1949 90.1122 39.4665 90.1122C39.7101 90.1122 39.9285 90.1822 40.1218 90.3222C40.315 90.4594 40.4998 90.6835 40.6762 90.9943ZM53.3458 99.979C52.9565 100.06 52.5169 100.101 52.0268 100.101C51.0299 100.101 50.2571 99.9314 49.7082 99.5926C49.4226 99.4105 49.1832 99.1921 48.9899 98.9373C48.6175 98.4304 48.3781 97.6884 48.2717 96.7111C48.2213 96.249 48.1961 95.7142 48.1961 95.1065C48.1961 93.9024 48.3053 92.9475 48.5237 92.2418C48.6469 91.8554 48.8023 91.5348 48.9899 91.2799C49.3876 90.7451 49.9602 90.3964 50.7079 90.234C51.0971 90.1528 51.5368 90.1122 52.0268 90.1122C53.0265 90.1122 53.7994 90.283 54.3455 90.6247C54.6339 90.8039 54.8719 91.0223 55.0595 91.2799C55.432 91.7812 55.6714 92.5233 55.7778 93.5062C55.8282 93.9654 55.8534 94.4989 55.8534 95.1065C55.8534 95.7142 55.8282 96.249 55.7778 96.7111C55.7274 97.1787 55.642 97.6002 55.5216 97.9754C55.348 98.5355 55.0861 98.9765 54.7361 99.2985C54.3889 99.6178 53.9254 99.8446 53.3458 99.979ZM52.0268 98.9709C52.9201 98.9709 53.5488 98.7301 53.9128 98.2484C54.1901 97.8872 54.3609 97.3201 54.4253 96.5473C54.4505 96.2168 54.4631 95.7366 54.4631 95.1065C54.4631 94.188 54.4267 93.5174 54.3539 93.0945C54.2419 92.4252 53.9898 91.945 53.5978 91.6538C53.2254 91.3793 52.7017 91.2421 52.0268 91.2421C51.1392 91.2421 50.5105 91.4801 50.1409 91.9562C49.8664 92.3146 49.697 92.8761 49.6326 93.6406C49.6046 93.957 49.5906 94.4456 49.5906 95.1065C49.5906 96.0306 49.6256 96.6943 49.6956 97.0975C49.8104 97.7752 50.0568 98.2582 50.4349 98.5467C50.8073 98.8295 51.338 98.9709 52.0268 98.9709ZM61.1139 98.9079H63.4704V99.9748C62.6051 100.008 61.8322 100.025 61.1517 100.025C60.3705 100.025 59.7936 99.9818 59.4212 99.895C58.7659 99.7466 58.3221 99.4259 58.0896 98.9331C57.9468 98.6251 57.8754 98.2456 57.8754 97.7948V90.213H59.249V97.2067C59.249 97.4503 59.2574 97.6548 59.2742 97.82C59.3106 98.1784 59.4114 98.4332 59.5766 98.5845C59.6578 98.6573 59.7726 98.7217 59.921 98.7777C60.1702 98.8645 60.5679 98.9079 61.1139 98.9079ZM69.6563 99.979C69.2671 100.06 68.8274 100.101 68.3374 100.101C67.3405 100.101 66.5676 99.9314 66.0188 99.5926C65.7331 99.4105 65.4937 99.1921 65.3005 98.9373C64.928 98.4304 64.6886 97.6884 64.5822 96.7111C64.5318 96.249 64.5066 95.7142 64.5066 95.1065C64.5066 93.9024 64.6158 92.9475 64.8342 92.2418C64.9575 91.8554 65.1129 91.5348 65.3005 91.2799C65.6981 90.7451 66.2708 90.3964 67.0185 90.234C67.4077 90.1528 67.8473 90.1122 68.3374 90.1122C69.3371 90.1122 70.11 90.283 70.656 90.6247C70.9444 90.8039 71.1825 91.0223 71.3701 91.2799C71.7425 91.7812 71.982 92.5233 72.0884 93.5062C72.1388 93.9654 72.164 94.4989 72.164 95.1065C72.164 95.7142 72.1388 96.249 72.0884 96.7111C72.038 97.1787 71.9526 97.6002 71.8321 97.9754C71.6585 98.5355 71.3967 98.9765 71.0467 99.2985C70.6994 99.6178 70.236 99.8446 69.6563 99.979ZM68.3374 98.9709C69.2307 98.9709 69.8593 98.7301 70.2234 98.2484C70.5006 97.8872 70.6714 97.3201 70.7358 96.5473C70.761 96.2168 70.7736 95.7366 70.7736 95.1065C70.7736 94.188 70.7372 93.5174 70.6644 93.0945C70.5524 92.4252 70.3004 91.945 69.9083 91.6538C69.5359 91.3793 69.0123 91.2421 68.3374 91.2421C67.4497 91.2421 66.821 91.4801 66.4514 91.9562C66.177 92.3146 66.0076 92.8761 65.9431 93.6406C65.9151 93.957 65.9011 94.4456 65.9011 95.1065C65.9011 96.0306 65.9361 96.6943 66.0062 97.0975C66.121 97.7752 66.3674 98.2582 66.7454 98.5467C67.1179 98.8295 67.6485 98.9709 68.3374 98.9709ZM79.7935 95.8332H78.0588V94.7621H81.1461V98.3996C81.1461 99.0521 80.9052 99.5058 80.4236 99.7606C80.0624 99.951 79.4785 100.062 78.672 100.092C78.4032 100.098 78.1526 100.101 77.9201 100.101C76.562 100.101 75.5959 99.8096 75.0218 99.2271C74.6158 98.8183 74.3344 98.2806 74.1776 97.6142C74.0263 96.9589 73.9507 96.123 73.9507 95.1065C73.9507 94.5129 73.9745 93.9822 74.0221 93.5146C74.1314 92.5233 74.3708 91.7812 74.7404 91.2883C75.0457 90.8879 75.4559 90.5897 75.9711 90.3936C76.4864 90.1976 77.1361 90.1038 77.9201 90.1122C79.0346 90.1122 80.0189 90.1934 80.873 90.3558L80.7554 91.4227C79.9517 91.3135 79.1411 91.2589 78.3234 91.2589C77.2705 91.2589 76.5186 91.4773 76.0678 91.9142C75.7317 92.2418 75.5175 92.7487 75.4251 93.4347C75.3747 93.81 75.3495 94.3672 75.3495 95.1065C75.3495 96.0054 75.3915 96.6649 75.4755 97.0849C75.6043 97.7178 75.8731 98.1798 76.282 98.471C76.73 98.7931 77.4105 98.9541 78.3234 98.9541C78.8974 98.9541 79.2839 98.8827 79.4827 98.7399C79.6255 98.6391 79.7123 98.5215 79.7431 98.387C79.7767 98.2666 79.7935 98.107 79.7935 97.9082V95.8332ZM84.5493 100H83.1757V90.213H84.5493V100ZM84.3644 89.3141H83.2723L84.6333 87.613H86.2042L84.3644 89.3141ZM88.475 97.2865L87.5593 100H86.1521L89.3445 91.0489C89.5657 90.4244 89.9465 90.1122 90.487 90.1122C91.0274 90.1122 91.4069 90.4244 91.6253 91.0489L94.7714 100H93.3181L92.394 97.2865H88.475ZM90.4282 91.5068L88.832 96.228H92.0327L90.4282 91.5068ZM101.402 96.1062V100H100.037V90.3558C100.978 90.1934 101.995 90.1122 103.087 90.1122C103.428 90.1122 103.723 90.122 103.969 90.1416C104.582 90.1864 105.09 90.2998 105.494 90.4818C105.967 90.6919 106.317 90.9943 106.544 91.3891C106.804 91.8428 106.934 92.4154 106.934 93.1071C106.923 94.146 106.663 94.8993 106.153 95.3669C105.817 95.6694 105.398 95.8794 104.897 95.997C104.418 96.109 103.853 96.165 103.2 96.165C102.755 96.165 102.156 96.1454 101.402 96.1062ZM101.402 91.3093V95.0015C101.865 95.0547 102.426 95.0813 103.087 95.0813C103.753 95.0813 104.273 95.0015 104.645 94.8419C104.956 94.7103 105.188 94.5045 105.342 94.2244C105.496 93.9416 105.573 93.5692 105.573 93.1071C105.568 92.7543 105.524 92.4602 105.443 92.225C105.362 91.9898 105.225 91.7952 105.032 91.6412C104.838 91.4871 104.589 91.3765 104.284 91.3093C103.982 91.2393 103.599 91.2015 103.137 91.1959C102.546 91.1959 101.968 91.2337 101.402 91.3093ZM109.53 97.2865L108.614 100H107.207L110.399 91.0489C110.62 90.4244 111.001 90.1122 111.542 90.1122C112.082 90.1122 112.462 90.4244 112.68 91.0489L115.826 100H114.373L113.449 97.2865H109.53ZM111.483 91.5068L109.887 96.228H113.087L111.483 91.5068ZM118.674 96.0222V100H117.305V90.3558C118.251 90.1934 119.268 90.1122 120.354 90.1122C120.696 90.1122 120.989 90.122 121.232 90.1416C121.493 90.1612 121.76 90.199 122.035 90.255C122.317 90.311 122.558 90.3838 122.757 90.4734C122.975 90.5687 123.177 90.6933 123.362 90.8473C123.547 90.9985 123.697 91.1721 123.811 91.3681C124.072 91.8078 124.202 92.3748 124.202 93.0693C124.202 93.9738 123.998 94.6543 123.589 95.1107C123.208 95.5392 122.669 95.822 121.972 95.9592L124.315 100H122.719L120.539 96.0852H120.468C120.048 96.0852 119.45 96.0642 118.674 96.0222ZM118.674 91.3051V94.9175C119.122 94.9679 119.682 94.9931 120.354 94.9931C121.007 94.9931 121.525 94.9147 121.909 94.7579C122.53 94.5003 122.841 93.936 122.841 93.0651C122.841 92.3846 122.658 91.9016 122.291 91.616C121.924 91.3303 121.295 91.1875 120.405 91.1875C119.825 91.1875 119.248 91.2267 118.674 91.3051ZM128.069 97.2865L127.153 100H125.746L128.938 91.0489C129.159 90.4244 129.54 90.1122 130.081 90.1122C130.621 90.1122 131.001 90.4244 131.219 91.0489L134.365 100H132.912L131.988 97.2865H128.069ZM130.022 91.5068L128.426 96.228H131.626L130.022 91.5068ZM138.77 90.213H145.323V91.3177H142.735V100H141.362V91.3177H138.77V90.213ZM152.679 90.213H154.032V96.7993C154.032 97.799 153.82 98.5635 153.397 99.0927C153.201 99.3391 152.951 99.538 152.646 99.6892C152.349 99.8376 152.025 99.9426 151.675 100.004C151.328 100.069 150.922 100.101 150.457 100.101C149.992 100.101 149.585 100.069 149.235 100.004C148.888 99.9426 148.566 99.8376 148.269 99.6892C147.961 99.538 147.709 99.3391 147.513 99.0927C147.093 98.5551 146.883 97.7906 146.883 96.7993V90.213H148.235V96.9085C148.235 97.6226 148.406 98.142 148.748 98.4668C149.089 98.7889 149.659 98.9499 150.457 98.9499C151.258 98.9499 151.828 98.7889 152.167 98.4668C152.508 98.142 152.679 97.6226 152.679 96.9085V90.213ZM165.801 90.2508V91.3051H163.272C162.984 91.3051 162.751 91.3149 162.575 91.3345C162.194 91.3681 161.914 91.4661 161.735 91.6286C161.654 91.7042 161.587 91.8106 161.533 91.9478C161.447 92.169 161.403 92.5233 161.403 93.0105V94.4722H165.608V95.5602H161.403V97.2067C161.403 97.4559 161.412 97.6618 161.428 97.8242C161.465 98.1798 161.567 98.4346 161.735 98.5887C161.819 98.6615 161.934 98.7245 162.079 98.7777C162.329 98.8645 162.726 98.9079 163.272 98.9079H165.801V99.9664C164.899 100.006 164.07 100.025 163.314 100.025C162.541 100.025 161.966 99.9832 161.588 99.8992C160.933 99.7508 160.489 99.4301 160.256 98.9373C160.111 98.6349 160.038 98.254 160.038 97.7948V92.4224C160.038 91.9716 160.109 91.5894 160.252 91.2757C160.367 91.0209 160.563 90.7983 160.84 90.6079C161.039 90.4734 161.328 90.3684 161.706 90.2928C161.862 90.2592 162.033 90.2368 162.218 90.2256C162.397 90.2116 162.575 90.2018 162.751 90.1962C162.959 90.1906 163.146 90.1878 163.314 90.1878C164.023 90.1878 164.852 90.2088 165.801 90.2508ZM169.955 90.9607L172.522 96.9631L175.117 90.9775C175.241 90.6947 175.391 90.4804 175.567 90.3348C175.746 90.1864 175.941 90.1122 176.151 90.1122C176.445 90.1122 176.663 90.1906 176.806 90.3474C176.949 90.5015 177.029 90.7465 177.045 91.0825L177.508 100H176.176L175.781 92.12L173.303 98.0594C173.129 98.471 172.87 98.6769 172.526 98.6769C172.17 98.6769 171.907 98.471 171.736 98.0594L169.245 92.1326L168.842 100H167.565L168.044 91.0741C168.061 90.7409 168.141 90.4972 168.283 90.3432C168.426 90.1892 168.643 90.1122 168.934 90.1122C169.371 90.1122 169.712 90.395 169.955 90.9607ZM180.986 96.1062V100H179.621V90.3558C180.562 90.1934 181.579 90.1122 182.671 90.1122C183.012 90.1122 183.306 90.122 183.553 90.1416C184.166 90.1864 184.674 90.2998 185.078 90.4818C185.551 90.6919 185.901 90.9943 186.128 91.3891C186.388 91.8428 186.518 92.4154 186.518 93.1071C186.507 94.146 186.247 94.8993 185.737 95.3669C185.401 95.6694 184.982 95.8794 184.481 95.997C184.002 96.109 183.437 96.165 182.784 96.165C182.339 96.165 181.74 96.1454 180.986 96.1062ZM180.986 91.3093V95.0015C181.449 95.0547 182.01 95.0813 182.671 95.0813C183.337 95.0813 183.857 95.0015 184.229 94.8419C184.54 94.7103 184.772 94.5045 184.926 94.2244C185.08 93.9416 185.157 93.5692 185.157 93.1071C185.152 92.7543 185.108 92.4602 185.027 92.225C184.946 91.9898 184.809 91.7952 184.616 91.6412C184.422 91.4871 184.173 91.3765 183.868 91.3093C183.566 91.2393 183.183 91.2015 182.721 91.1959C182.13 91.1959 181.552 91.2337 180.986 91.3093ZM189.618 96.0222V100H188.248V90.3558C189.195 90.1934 190.211 90.1122 191.298 90.1122C191.639 90.1122 191.932 90.122 192.176 90.1416C192.436 90.1612 192.704 90.199 192.978 90.255C193.261 90.311 193.502 90.3838 193.7 90.4734C193.919 90.5687 194.12 90.6933 194.305 90.8473C194.49 90.9985 194.64 91.1721 194.755 91.3681C195.015 91.8078 195.145 92.3748 195.145 93.0693C195.145 93.9738 194.941 94.6543 194.532 95.1107C194.151 95.5392 193.612 95.822 192.915 95.9592L195.259 100H193.663L191.483 96.0852H191.411C190.991 96.0852 190.393 96.0642 189.618 96.0222ZM189.618 91.3051V94.9175C190.066 94.9679 190.626 94.9931 191.298 94.9931C191.95 94.9931 192.468 94.9147 192.852 94.7579C193.474 94.5003 193.784 93.936 193.784 93.0651C193.784 92.3846 193.601 91.9016 193.234 91.616C192.867 91.3303 192.239 91.1875 191.348 91.1875C190.769 91.1875 190.192 91.2267 189.618 91.3051ZM202.77 90.2508V91.3051H200.241C199.953 91.3051 199.72 91.3149 199.544 91.3345C199.163 91.3681 198.883 91.4661 198.704 91.6286C198.623 91.7042 198.555 91.8106 198.502 91.9478C198.415 92.169 198.372 92.5233 198.372 93.0105V94.4722H202.577V95.5602H198.372V97.2067C198.372 97.4559 198.38 97.6618 198.397 97.8242C198.434 98.1798 198.536 98.4346 198.704 98.5887C198.788 98.6615 198.903 98.7245 199.048 98.7777C199.297 98.8645 199.695 98.9079 200.241 98.9079H202.77V99.9664C201.868 100.006 201.039 100.025 200.283 100.025C199.51 100.025 198.935 99.9832 198.557 99.8992C197.901 99.7508 197.458 99.4301 197.225 98.9373C197.08 98.6349 197.007 98.254 197.007 97.7948V92.4224C197.007 91.9716 197.078 91.5894 197.221 91.2757C197.336 91.0209 197.532 90.7983 197.809 90.6079C198.008 90.4734 198.296 90.3684 198.674 90.2928C198.831 90.2592 199.002 90.2368 199.187 90.2256C199.366 90.2116 199.544 90.2018 199.72 90.1962C199.927 90.1906 200.115 90.1878 200.283 90.1878C200.992 90.1878 201.82 90.2088 202.77 90.2508ZM208.202 91.2547C208.062 91.2547 207.894 91.2575 207.698 91.2631C207.586 91.2659 207.424 91.2799 207.211 91.3051C207.051 91.3247 206.896 91.3555 206.745 91.3975C206.422 91.4843 206.182 91.616 206.022 91.7924C205.832 92.0024 205.736 92.2698 205.736 92.5947C205.717 93.1379 205.885 93.5426 206.24 93.8086C206.333 93.8814 206.47 93.9556 206.652 94.0312C206.795 94.09 206.967 94.1516 207.169 94.216C207.27 94.2496 207.489 94.314 207.828 94.4092C207.834 94.412 207.841 94.4134 207.849 94.4134C208.222 94.5171 208.537 94.6235 208.794 94.7327C209.055 94.8391 209.296 94.9693 209.517 95.1233C209.861 95.3557 210.116 95.6456 210.281 95.9928C210.449 96.3372 210.538 96.7699 210.546 97.2907C210.546 98.3072 210.239 99.0339 209.626 99.4707C209.041 99.8908 208.173 100.101 207.022 100.101C206.1 100.101 205.231 100.017 204.413 99.8488L204.548 98.7483C205.43 98.8771 206.24 98.9415 206.98 98.9415C207.523 98.9415 207.956 98.8813 208.278 98.7609C208.561 98.6545 208.772 98.4878 208.912 98.261C209.052 98.0342 209.125 97.7276 209.13 97.3411C209.13 96.8315 208.951 96.4422 208.593 96.1734C208.369 96.0054 207.988 95.836 207.45 95.6652L207.135 95.5686C206.858 95.4845 206.623 95.4089 206.429 95.3417C206.236 95.2745 206.035 95.1947 205.825 95.1023C205.617 95.0071 205.445 94.9105 205.308 94.8125C204.969 94.5689 204.735 94.3056 204.607 94.0228C204.447 93.6756 204.367 93.2611 204.367 92.7795C204.367 91.9926 204.555 91.3905 204.93 90.9733C205.112 90.7661 205.343 90.5995 205.623 90.4734C206.155 90.2326 206.866 90.1122 207.757 90.1122C208.614 90.1122 209.475 90.1948 210.34 90.36L210.214 91.4311C209.408 91.3135 208.737 91.2547 208.202 91.2547ZM213.928 97.2865L213.012 100H211.605L214.798 91.0489C215.019 90.4244 215.4 90.1122 215.94 90.1122C216.481 90.1122 216.86 90.4244 217.078 91.0489L220.225 100H218.771L217.847 97.2865H213.928ZM215.881 91.5068L214.285 96.228H217.486L215.881 91.5068Z" fill="#3C3F43"/>
</svg>
