<svg width="240" height="76" viewBox="0 0 240 76" fill="none" xmlns="http://www.w3.org/2000/svg">
<path d="M28.25 20H53C54.6569 20 56 21.3431 56 23V53C56 54.6569 54.6569 56 53 56H23C21.3431 56 20 54.6569 20 53V28.25H28.25V20Z" fill="#F2133B"/>
<path d="M31.9104 38.5713V44H28.8501V34.1609C28.8501 32.8408 29.2495 31.9332 30.0484 31.4381C30.5622 31.1156 31.3423 30.9281 32.3886 30.8756C32.6661 30.8643 33.0281 30.8587 33.4743 30.8587C34.2282 30.8587 35.4545 30.8924 37.1535 30.9599V33.3733H33.4181C33.0693 33.3733 32.803 33.3939 32.6193 33.4352C32.4392 33.4764 32.293 33.5552 32.1805 33.6715C32.0717 33.7877 31.9986 33.9321 31.9611 34.1046C31.9273 34.2772 31.9104 34.5341 31.9104 34.8753V36.1073H36.9172V38.5713H31.9104Z" fill="white"/>
<path d="M44.2124 33.2439C43.9949 33.2439 43.8448 33.2458 43.7623 33.2495C43.5598 33.2608 43.4117 33.2702 43.3179 33.2777C43.1416 33.2964 42.9916 33.3189 42.8679 33.3452C42.5378 33.4314 42.3016 33.5421 42.1591 33.6771C41.9715 33.8646 41.8778 34.1028 41.8778 34.3915C41.8778 34.8341 42.024 35.1641 42.3166 35.3816C42.5378 35.5467 42.9448 35.7098 43.5373 35.8711L43.9311 35.9779H43.9367L43.9424 35.9836H43.9592L43.9649 35.9892H43.9761L43.9817 35.9948H43.9986L44.0042 36.0005H44.0211L44.0267 36.0061H44.0436L44.0549 36.0117C44.955 36.2555 45.6582 36.5443 46.1645 36.878C46.682 37.2156 47.0589 37.6431 47.2952 38.1607C47.5352 38.6745 47.6552 39.3252 47.6552 40.1127C47.6552 41.2679 47.3777 42.1661 46.8226 42.8074C46.0426 43.7 44.6737 44.1425 42.716 44.135C41.4071 44.135 40.0982 43.9887 38.7893 43.6962L39.0875 41.2885C40.4414 41.4947 41.6059 41.5979 42.581 41.5979C43.241 41.5979 43.7267 41.4985 44.038 41.2997C44.3493 41.0972 44.5049 40.7428 44.5049 40.2365C44.5049 39.8277 44.3774 39.5183 44.1224 39.3083C43.9461 39.1583 43.7342 39.0345 43.4867 38.937C43.2879 38.8545 43.1492 38.802 43.0704 38.7795C42.8866 38.7157 42.7235 38.6613 42.581 38.6163C42.2397 38.5113 41.9209 38.4044 41.6246 38.2957C40.9683 38.0444 40.462 37.7838 40.1057 37.5137C39.6557 37.1724 39.335 36.7899 39.1437 36.3661C38.9262 35.8636 38.8175 35.2766 38.8175 34.6053C38.8175 33.4689 39.0819 32.5989 39.6107 31.9951C39.8582 31.7063 40.1826 31.4662 40.5839 31.275C41.334 30.9299 42.3334 30.7574 43.5823 30.7574C44.8574 30.7574 46.1551 30.9074 47.4752 31.2075L47.1996 33.5533C45.9882 33.3471 44.9925 33.2439 44.2124 33.2439Z" fill="white"/>
<path d="M20 23C20 21.3431 21.3431 20 23 20H26V26H20V23Z" fill="white"/>
<path d="M69.4611 31.7139V36.5H67.1905V28.0128C67.1905 26.9182 67.5314 26.1662 68.213 25.7565C68.6579 25.4909 69.3235 25.3389 70.21 25.3005C70.4372 25.2909 70.7269 25.2861 71.0789 25.2861C71.815 25.2861 72.8279 25.3133 74.1176 25.3677V27.1295H71.0309C70.6661 27.1295 70.3876 27.1503 70.1956 27.1919C70.0068 27.2303 69.8564 27.3087 69.7444 27.4271C69.626 27.5455 69.5492 27.6975 69.514 27.8831C69.4787 28.0688 69.4611 28.3216 69.4611 28.6416V29.9089H73.9064V31.7139H69.4611ZM78.5567 36.6152C77.395 36.6152 76.5565 36.3928 76.0412 35.9479C75.5228 35.5031 75.2635 34.8166 75.2635 33.8885C75.2635 33.1013 75.4524 32.4852 75.83 32.0404C76.2108 31.5923 76.8109 31.3027 77.6302 31.1715C78.2062 31.0819 79.1183 31.0099 80.3665 30.9554C80.3665 30.4562 80.2432 30.093 79.9968 29.8657C79.7504 29.6385 79.3504 29.5249 78.7967 29.5249C77.923 29.5249 76.9165 29.5985 75.7772 29.7457L75.6044 28.1616C76.8845 27.9439 78.003 27.8351 78.9599 27.8351C79.7824 27.8351 80.4641 27.9455 81.0049 28.1664C81.3089 28.2912 81.565 28.4544 81.773 28.656C81.9842 28.864 82.149 29.1329 82.2674 29.4625C82.3891 29.7921 82.4499 30.1666 82.4499 30.5858V34.2006C82.4499 34.735 82.4259 35.2759 82.3779 35.8231C81.469 36.3512 80.1952 36.6152 78.5567 36.6152ZM80.3665 33.6197V32.3476L80.0496 32.3668L79.6944 32.3812C79.528 32.394 79.4192 32.402 79.368 32.4052C79.2079 32.4148 79.0911 32.426 79.0175 32.4388C78.7903 32.4644 78.5823 32.498 78.3935 32.5396C78.1278 32.6036 77.9246 32.6788 77.7838 32.7652C77.499 32.938 77.3566 33.3029 77.3566 33.8597C77.3566 34.2886 77.4734 34.5862 77.707 34.7526C77.9438 34.9158 78.3102 34.9974 78.8063 34.9974C79.4528 34.9974 79.9552 34.9206 80.3136 34.767C80.3489 34.4342 80.3665 34.0518 80.3665 33.6197ZM90.3784 34.6806L90.5656 36.2888C89.6951 36.5064 88.7622 36.6152 87.7669 36.6152C86.6212 36.6152 85.7859 36.268 85.2611 35.5735C84.9443 35.1447 84.7282 34.631 84.613 34.0326C84.5554 33.7413 84.5138 33.4373 84.4882 33.1205C84.469 32.8292 84.4594 32.5044 84.4594 32.146C84.4594 31.7267 84.4738 31.3523 84.5026 31.0227C84.573 30.2802 84.7266 29.6977 84.9635 29.2753C85.2387 28.792 85.6371 28.432 86.1588 28.1952C86.6804 27.9551 87.3813 27.8351 88.2614 27.8351C89.0711 27.8351 89.8343 27.9439 90.5512 28.1616L90.3784 29.7265C89.6935 29.5953 89.1767 29.5297 88.8278 29.5297C88.3062 29.5297 87.9094 29.5713 87.6373 29.6545C87.4741 29.7057 87.3413 29.7633 87.2389 29.8273C87.1365 29.8881 87.0469 29.9729 86.9701 30.0818C86.826 30.2834 86.7284 30.5522 86.6772 30.8882C86.6516 31.0963 86.634 31.2835 86.6244 31.4499C86.618 31.6995 86.6148 31.9315 86.6148 32.146C86.6148 32.9044 86.65 33.4309 86.7204 33.7253C86.8228 34.151 87.0325 34.4486 87.3493 34.6182C87.6725 34.7942 88.1718 34.8822 88.847 34.8822C89.2023 34.8822 89.7127 34.815 90.3784 34.6806ZM90.9976 25.3149H98.7648V27.1487H96.0141V36.5H93.7339V27.1487H90.9976V25.3149ZM107.422 25.3677V27.1295H104.336C103.971 27.1295 103.692 27.1503 103.5 27.1919C103.312 27.2303 103.161 27.3087 103.049 27.4271C102.931 27.5455 102.854 27.6975 102.819 27.8831C102.783 28.0688 102.766 28.3216 102.766 28.6416V29.9089H107.211V31.7139H102.766V33.1637C102.756 33.7621 102.849 34.1718 103.044 34.3926C103.156 34.5014 103.312 34.5782 103.51 34.623C103.712 34.6646 103.987 34.6854 104.336 34.6854H107.422V36.4424C106.241 36.5 105.229 36.5288 104.384 36.5288C103.475 36.5288 102.803 36.4792 102.367 36.38C101.596 36.2072 101.07 35.8359 100.788 35.2663C100.596 34.8822 100.5 34.3926 100.5 33.7973V28.0128C100.5 26.9182 100.839 26.1662 101.518 25.7565C101.963 25.4909 102.627 25.3389 103.51 25.3005C103.734 25.2909 104.025 25.2861 104.384 25.2861C105.283 25.2861 106.296 25.3133 107.422 25.3677ZM113.159 27.0575C112.823 27.0575 112.469 27.0831 112.098 27.1343V34.6806C112.469 34.735 112.823 34.7622 113.159 34.7622C114.301 34.7622 115.095 34.4966 115.54 33.9653C115.844 33.5973 116.028 33.0389 116.092 32.29C116.117 31.9763 116.13 31.5155 116.13 30.9074C116.13 30.0434 116.1 29.4305 116.039 29.0689C115.93 28.3872 115.664 27.8895 115.242 27.5759C114.784 27.2303 114.09 27.0575 113.159 27.0575ZM109.827 36.308V25.5165C110.925 25.3053 112.139 25.1997 113.471 25.1997C114.386 25.1965 115.151 25.2893 115.765 25.4781C116.383 25.6669 116.879 25.9501 117.253 26.3278C117.593 26.6638 117.86 27.1343 118.055 27.7391C118.141 27.9855 118.212 28.2912 118.266 28.656C118.359 29.2929 118.405 30.0434 118.405 30.9074C118.405 31.7715 118.359 32.522 118.266 33.1589C118.173 33.7893 117.993 34.3526 117.724 34.8486C117.481 35.3063 117.109 35.6823 116.61 35.9767C115.909 36.4024 114.863 36.6152 113.471 36.6152C112.142 36.6152 110.928 36.5128 109.827 36.308ZM124.771 27.0479C124.569 27.0479 124.43 27.0495 124.353 27.0527C124.238 27.0591 124.095 27.0687 123.926 27.0815C123.756 27.0943 123.612 27.1183 123.494 27.1535C123.174 27.2303 122.938 27.3407 122.788 27.4847C122.596 27.6671 122.5 27.9071 122.5 28.2048C122.5 28.6784 122.665 29.0369 122.994 29.2801C123.081 29.3409 123.207 29.4065 123.374 29.4769C123.588 29.5569 123.926 29.6593 124.387 29.7841L124.555 29.8273C125.099 29.9745 125.559 30.141 125.937 30.3266C126.308 30.5058 126.624 30.7298 126.883 30.9987C127.139 31.2643 127.324 31.5795 127.44 31.9443C127.558 32.3092 127.617 32.7476 127.617 33.2597C127.617 34.4758 127.256 35.3447 126.532 35.8663C125.835 36.3656 124.812 36.6152 123.465 36.6152C122.38 36.6152 121.303 36.5 120.234 36.2696L120.455 34.479C121.581 34.6454 122.558 34.7286 123.383 34.7286C123.991 34.7286 124.452 34.639 124.766 34.4598C125.108 34.255 125.279 33.8821 125.279 33.3413C125.279 32.8676 125.097 32.5092 124.732 32.266C124.521 32.1252 124.15 31.9715 123.618 31.8051C123.59 31.7987 123.524 31.7795 123.422 31.7475C123.118 31.6547 122.847 31.5651 122.61 31.4787C122.399 31.4019 122.167 31.3043 121.914 31.1859C121.684 31.0771 121.485 30.9618 121.319 30.8402C120.938 30.5522 120.669 30.2322 120.513 29.8801C120.327 29.4673 120.234 28.9744 120.234 28.4016C120.234 27.2111 120.581 26.3742 121.276 25.8909C121.625 25.6477 122.036 25.4717 122.51 25.3629C122.986 25.2541 123.562 25.1997 124.238 25.1997C125.3 25.1997 126.368 25.3165 127.44 25.5501L127.233 27.2927C126.206 27.1295 125.385 27.0479 124.771 27.0479ZM135.428 36.476C134.98 36.5688 134.468 36.6152 133.892 36.6152C132.727 36.6152 131.825 36.4216 131.184 36.0344C130.855 35.8263 130.576 35.5767 130.349 35.2855C129.914 34.703 129.632 33.8549 129.504 32.7412C129.447 32.2132 129.418 31.6019 129.418 30.9074C129.418 29.5377 129.546 28.4464 129.802 27.6335C129.943 27.1919 130.125 26.8254 130.349 26.5342C130.81 25.9229 131.477 25.5245 132.351 25.3389C132.805 25.2461 133.319 25.1997 133.892 25.1997C135.054 25.1997 135.955 25.3949 136.595 25.7853C136.927 25.9869 137.206 26.2366 137.43 26.5342C137.868 27.1135 138.148 27.9599 138.27 29.0737C138.331 29.5889 138.361 30.2002 138.361 30.9074C138.361 32.2996 138.232 33.3925 137.972 34.1862C137.771 34.8262 137.465 35.3303 137.055 35.6983C136.646 36.0632 136.103 36.3224 135.428 36.476ZM133.892 34.743C134.702 34.743 135.268 34.4998 135.591 34.0134C135.844 33.6421 135.991 33.0485 136.033 32.2324C136.049 31.9059 136.057 31.4643 136.057 30.9074C136.057 29.9313 136.023 29.2369 135.956 28.824C135.841 28.1424 135.591 27.6671 135.207 27.3983C134.884 27.1775 134.446 27.0671 133.892 27.0671C133.082 27.0671 132.514 27.3103 132.188 27.7967C131.935 28.168 131.788 28.7616 131.746 29.5777C131.73 29.9041 131.722 30.3474 131.722 30.9074C131.722 31.8835 131.756 32.5748 131.823 32.9812C131.932 33.6629 132.181 34.1382 132.572 34.407C132.892 34.631 133.332 34.743 133.892 34.743ZM144.452 34.6854H147.356V36.452C146.188 36.5032 145.234 36.5288 144.495 36.5288C143.586 36.5288 142.914 36.4792 142.479 36.38C141.707 36.2072 141.181 35.8359 140.899 35.2663C140.707 34.8822 140.611 34.3926 140.611 33.7973V25.3149H142.887V33.1637C142.887 33.4837 142.904 33.7397 142.939 33.9317C142.975 34.1174 143.051 34.2694 143.17 34.3878C143.291 34.5094 143.448 34.5894 143.64 34.6278C143.835 34.6662 144.106 34.6854 144.452 34.6854Z" fill="white"/>
<path d="M71.0885 43.5093H72.0846L69.9214 49.8999C69.8414 50.134 69.7404 50.305 69.6184 50.413C69.4963 50.519 69.3423 50.572 69.1563 50.572C68.9703 50.572 68.8153 50.519 68.6913 50.413C68.5673 50.305 68.4662 50.134 68.3882 49.8999L66.228 43.5093H67.2691L69.1683 49.4079L71.0885 43.5093ZM75.2749 50.5H74.3328V44.6914C73.8207 44.8354 73.2797 44.9464 72.7096 45.0245L72.6676 44.2624C73.3437 44.1564 73.9587 43.9753 74.5128 43.7193H75.2749V50.5ZM77.5175 50.572C77.3035 50.572 77.1575 50.529 77.0795 50.443C77.0015 50.355 76.9625 50.197 76.9625 49.9689C76.9625 49.7389 77.0015 49.5809 77.0795 49.4949C77.1595 49.4049 77.3055 49.3599 77.5175 49.3599C77.7295 49.3599 77.8756 49.4049 77.9556 49.4949C78.0356 49.5809 78.0756 49.7389 78.0756 49.9689C78.0756 50.199 78.0366 50.357 77.9586 50.443C77.8806 50.529 77.7335 50.572 77.5175 50.572ZM79.6677 44.5864L79.5777 43.8543C80.3378 43.7163 81.0368 43.6473 81.6749 43.6473C82.255 43.6473 82.726 43.7193 83.088 43.8633C83.7021 44.0974 84.0131 44.5714 84.0211 45.2855C84.0211 45.8975 83.8491 46.4056 83.5051 46.8096C83.1691 47.1977 82.685 47.5197 82.0529 47.7757C81.6229 47.9497 81.2989 48.1458 81.0808 48.3638C80.9768 48.4678 80.8908 48.5898 80.8228 48.7298C80.7568 48.8658 80.7048 49.0069 80.6668 49.1529C80.6288 49.2989 80.5968 49.4739 80.5708 49.6779H84.0181V50.5H79.4757C79.6157 49.7119 79.7397 49.1559 79.8477 48.8318C79.9937 48.3838 80.2018 48.0268 80.4718 47.7607C80.7298 47.5087 81.0918 47.2847 81.5579 47.0887C81.8019 46.9866 82.0129 46.8836 82.191 46.7796C82.365 46.6796 82.52 46.5656 82.656 46.4376C82.928 46.1856 83.064 45.8645 83.064 45.4745C83.064 45.1565 82.979 44.9184 82.809 44.7604C82.729 44.6824 82.613 44.6204 82.461 44.5744C82.187 44.4884 81.7789 44.4454 81.2369 44.4454C80.7828 44.4454 80.2598 44.4924 79.6677 44.5864ZM86.0523 50.572C85.8383 50.572 85.6923 50.529 85.6142 50.443C85.5362 50.355 85.4972 50.197 85.4972 49.9689C85.4972 49.7389 85.5362 49.5809 85.6142 49.4949C85.6943 49.4049 85.8403 49.3599 86.0523 49.3599C86.2643 49.3599 86.4103 49.4049 86.4903 49.4949C86.5703 49.5809 86.6103 49.7389 86.6103 49.9689C86.6103 50.199 86.5713 50.357 86.4933 50.443C86.4153 50.529 86.2683 50.572 86.0523 50.572ZM90.3877 50.572C89.9457 50.566 89.5777 50.513 89.2836 50.413C88.9896 50.313 88.7486 50.155 88.5606 49.9389C88.3125 49.6429 88.1445 49.2669 88.0565 48.8108C88.0105 48.5708 87.9765 48.3128 87.9545 48.0368C87.9365 47.7667 87.9275 47.4577 87.9275 47.1097C87.9275 46.7616 87.9365 46.4536 87.9545 46.1856C87.9985 45.5735 88.0975 45.1015 88.2515 44.7694C88.4356 44.3714 88.6876 44.0904 89.0076 43.9263C89.3636 43.7403 89.8237 43.6473 90.3877 43.6473C90.8958 43.6473 91.3098 43.7183 91.6299 43.8603C91.9499 44.0004 92.2019 44.2164 92.3859 44.5084C92.566 44.8084 92.688 45.1695 92.752 45.5915C92.818 46.0076 92.851 46.5136 92.851 47.1097C92.851 47.7057 92.818 48.2128 92.752 48.6308C92.688 49.0509 92.566 49.4109 92.3859 49.7109C92.2019 50.003 91.9499 50.22 91.6299 50.362C91.3098 50.502 90.8958 50.572 90.3877 50.572ZM90.3877 49.8009C90.9378 49.8009 91.3268 49.6369 91.5549 49.3089C91.7289 49.0569 91.8359 48.6498 91.8759 48.0878C91.8899 47.8777 91.8969 47.5517 91.8969 47.1097C91.8969 46.4296 91.8719 45.9435 91.8219 45.6515C91.7399 45.1775 91.5689 44.8464 91.3088 44.6584C91.0848 44.4964 90.7778 44.4154 90.3877 44.4154C89.8397 44.4154 89.4517 44.5794 89.2236 44.9074C89.0476 45.1615 88.9416 45.5675 88.9056 46.1256C88.8916 46.3356 88.8846 46.6636 88.8846 47.1097C88.8846 47.7817 88.9086 48.2658 88.9566 48.5618C89.0346 49.0319 89.2036 49.3629 89.4637 49.5549C89.6837 49.7189 89.9917 49.8009 90.3877 49.8009ZM96.8182 50.572C96.3762 50.566 96.0081 50.513 95.7141 50.413C95.4201 50.313 95.1791 50.155 94.991 49.9389C94.743 49.6429 94.575 49.2669 94.487 48.8108C94.441 48.5708 94.407 48.3128 94.385 48.0368C94.367 47.7667 94.358 47.4577 94.358 47.1097C94.358 46.7616 94.367 46.4536 94.385 46.1856C94.429 45.5735 94.528 45.1015 94.682 44.7694C94.866 44.3714 95.118 44.0904 95.4381 43.9263C95.7941 43.7403 96.2542 43.6473 96.8182 43.6473C97.3263 43.6473 97.7403 43.7183 98.0603 43.8603C98.3804 44.0004 98.6324 44.2164 98.8164 44.5084C98.9964 44.8084 99.1184 45.1695 99.1825 45.5915C99.2485 46.0076 99.2815 46.5136 99.2815 47.1097C99.2815 47.7057 99.2485 48.2128 99.1825 48.6308C99.1184 49.0509 98.9964 49.4109 98.8164 49.7109C98.6324 50.003 98.3804 50.22 98.0603 50.362C97.7403 50.502 97.3263 50.572 96.8182 50.572ZM96.8182 49.8009C97.3683 49.8009 97.7573 49.6369 97.9853 49.3089C98.1594 49.0569 98.2664 48.6498 98.3064 48.0878C98.3204 47.8777 98.3274 47.5517 98.3274 47.1097C98.3274 46.4296 98.3024 45.9435 98.2524 45.6515C98.1704 45.1775 97.9993 44.8464 97.7393 44.6584C97.5153 44.4964 97.2083 44.4154 96.8182 44.4154C96.2702 44.4154 95.8821 44.5794 95.6541 44.9074C95.4781 45.1615 95.3721 45.5675 95.3361 46.1256C95.3221 46.3356 95.3151 46.6636 95.3151 47.1097C95.3151 47.7817 95.3391 48.2658 95.3871 48.5618C95.4651 49.0319 95.6341 49.3629 95.8941 49.5549C96.1141 49.7189 96.4222 49.8009 96.8182 49.8009ZM104.911 50.5H103.978V48.8918H101.281C101.019 48.8918 100.835 48.8438 100.729 48.7478C100.625 48.6518 100.573 48.5168 100.573 48.3428C100.573 48.1248 100.711 47.8367 100.987 47.4787L103.552 44.1694C103.696 43.9833 103.834 43.8503 103.966 43.7703C104.1 43.6883 104.246 43.6473 104.404 43.6473C104.558 43.6473 104.681 43.7003 104.773 43.8063C104.865 43.9123 104.911 44.0624 104.911 44.2564V48.1538H105.808V48.8918H104.911V50.5ZM103.981 48.1538V44.9044L101.506 48.1538H103.981Z" fill="white"/>
</svg>
