<svg width="288" height="60" viewBox="0 0 288 60" fill="none" xmlns="http://www.w3.org/2000/svg">
<path fill-rule="evenodd" clip-rule="evenodd" d="M138.372 10.4125C138.154 10.865 138.019 11.2792 138.073 11.333C138.347 11.6071 139.375 11.1434 140.111 10.4132L140.941 9.58984H139.856C138.797 9.58984 138.76 9.61067 138.372 10.4125ZM88.2967 11.9086C87.7554 11.9884 87.0361 12.2507 86.6979 12.4913C85.6446 13.2413 85.5927 15.0319 86.6015 15.8255C87.1244 16.2367 87.49 16.3753 89.623 16.9692C91.1746 17.4015 91.4792 18.1915 90.3013 18.7284C89.1838 19.2375 87.8938 18.8286 87.5207 17.8467C87.3719 17.4559 87.2194 17.4059 86.3807 17.4726C85.5019 17.5426 85.4246 17.5911 85.5454 17.9967C86.0348 19.6394 87.1898 20.4363 89.1209 20.4636C91.5405 20.498 92.9267 19.5392 92.9267 17.8311C92.9267 16.2803 92.2644 15.7719 89.1148 14.9048C87.8023 14.5436 87.4119 14.0792 88.0369 13.6221C88.7244 13.1194 89.7784 13.2707 90.4271 13.9653C90.9046 14.4765 91.1386 14.5742 91.7086 14.5002C92.0921 14.4505 92.4863 14.4034 92.5846 14.3955C92.8486 14.3748 92.5319 13.2959 92.1315 12.8517C91.3677 12.0044 89.9734 11.6615 88.2967 11.9086ZM138.323 11.9028C136.387 12.1926 135.159 13.3105 134.827 15.0836C134.617 16.2107 134.616 16.0911 134.838 17.2782C135.2 19.2155 136.894 20.4648 139.159 20.4648C140.381 20.4648 141.677 20.0461 142.376 19.4257C143.523 18.4065 143.909 15.7092 143.147 14.0307C142.438 12.4696 140.436 11.5865 138.323 11.9028ZM73.3325 12.0378C73.3267 12.1236 73.3211 14.0221 73.3202 16.2565L73.3186 20.319L75.2184 20.4461V11.8815H74.2809C73.7652 11.8815 73.3386 11.9519 73.3325 12.0378ZM76.885 20.4232H78.7471L78.8642 15.3763L82.1975 20.319L84.1767 20.4461V11.8815H82.3142L82.1975 17.1609L78.7017 11.8815H76.885V20.4232ZM93.76 13.5482H96.4684V20.4232H98.3434V13.5482H101.052V11.8815H93.76V13.5482ZM102.093 20.4232H103.968V11.8815H102.093V20.4232ZM105.01 13.5482L107.614 13.5475L107.546 16.4898C107.456 20.3503 107.477 20.4232 108.66 20.4232H109.593V13.5482H112.302V11.8815H105.01V13.5482ZM113.344 15.0586C113.344 17.6659 113.409 18.3665 113.708 18.9648C114.208 19.9646 115.317 20.4753 116.989 20.4753C118.661 20.4753 119.771 19.9646 120.27 18.9648C120.569 18.3661 120.634 17.6655 120.635 15.0471L120.635 11.8586L118.656 11.9857L118.637 15.0701C118.615 18.6482 118.523 18.8607 116.989 18.8607C115.398 18.8607 115.256 18.4948 115.232 14.3294L115.218 11.8815H113.343L113.344 15.0586ZM124.485 12.1719C121.694 13.388 121.289 18.0834 123.829 19.7646C124.563 20.25 124.877 20.319 126.349 20.319C127.778 20.319 128.134 20.2457 128.713 19.8328C129.527 19.2519 130.378 17.7515 129.964 17.6248C129.818 17.5801 129.403 17.4496 129.043 17.3353C128.429 17.14 128.359 17.1734 127.897 17.8832C127.253 18.8738 126.379 19.1398 125.359 18.6557C124.442 18.2207 124.09 17.3078 124.222 15.7107C124.331 14.3942 124.917 13.6236 125.955 13.4288C126.762 13.2776 127.837 13.77 128.03 14.3796C128.135 14.7094 128.283 14.7726 128.722 14.6751C129.843 14.4263 130.01 14.3482 130.01 14.0709C130.01 13.6586 129.012 12.5398 128.329 12.1865C127.596 11.8075 125.341 11.799 124.485 12.1719ZM131.468 20.4461L133.448 20.319V11.9857L131.468 11.8586V20.4461ZM144.999 12.0259C144.993 12.1184 144.988 14.0221 144.987 16.2565L144.985 20.319L146.664 20.4465L146.781 15.1438L150.277 20.4232H152.302V11.8815H150.427V17.3867L148.604 14.6861C146.783 11.9882 146.78 11.9857 145.895 11.9217C145.409 11.8863 145.005 11.9332 144.999 12.0259ZM157.51 20.4332L164.489 20.319L164.619 18.7565H159.489V16.6732H163.968V15.2148H159.489V13.5482H164.385V11.8815H157.51V20.4332ZM165.971 12.209C165.831 12.574 165.862 19.7523 166.005 20.1628C166.119 20.4884 169.47 20.5128 170.843 20.1982C171.956 19.943 173.025 18.9925 173.368 17.9515C173.691 16.974 173.646 15.0078 173.28 14.1434C172.556 12.4292 171.263 11.8815 167.939 11.8815C166.455 11.8815 166.072 11.9455 165.971 12.209ZM175.01 14.909C175.01 18.753 175.3 19.5786 176.885 20.2373C177.726 20.5867 179.949 20.514 180.85 20.1075C182.095 19.5461 182.284 18.9286 182.349 15.1925L182.406 11.9857L180.427 11.8586V14.9005C180.427 17.8903 180.418 17.9513 179.891 18.4782C179.449 18.9198 179.224 18.9932 178.615 18.8944C177.178 18.6611 177.093 18.4444 177.093 14.9742V11.8815H175.01V14.909ZM186.156 12.2271C184.565 13.0644 183.916 14.2011 183.916 16.1523C183.916 17.6155 184.259 18.5571 185.066 19.3117C186.036 20.2184 186.876 20.4855 188.443 20.3857C189.866 20.2952 190.579 19.9355 191.287 18.9519C191.955 18.0238 191.871 17.6915 190.895 17.399L190.009 17.1334L189.682 17.8215C189.068 19.1163 187.277 19.2567 186.398 18.0788C185.812 17.2942 185.71 15.5323 186.197 14.59C186.928 13.1725 188.854 12.9423 189.558 14.1884C189.859 14.7205 189.99 14.7855 190.531 14.6696C191.91 14.3742 191.929 14.353 191.498 13.5438C190.915 12.4488 189.771 11.8873 188.135 11.8932C187.313 11.8963 186.535 12.0274 186.156 12.2271ZM194.213 15.8955C193.276 18.1032 192.51 20.025 192.51 20.1663C192.51 20.3321 192.845 20.4232 193.455 20.4232C194.376 20.4232 194.41 20.3998 194.802 19.4857L195.204 18.5482H198.726L199.084 19.4857C199.44 20.4192 199.446 20.4232 200.455 20.4232C201.012 20.4232 201.468 20.335 201.468 20.2271C201.468 20.1194 200.821 18.549 200.03 16.7375C199.239 14.9261 198.447 13.0926 198.27 12.6628C197.96 11.9109 197.91 11.8815 196.932 11.8815H195.916L194.213 15.8955ZM200.843 13.5482H203.552V20.4232H205.427V13.5482H208.135V11.8815H200.843V13.5482ZM209.177 20.4232H211.052V11.8815H209.177V20.4232ZM211.885 12.1284C211.885 12.2642 212.6 14.1907 213.475 16.4092L215.064 20.4432L217.123 20.319L218.671 16.3607C219.522 14.1836 220.218 12.28 220.218 12.1305C220.218 11.9363 219.936 11.8767 219.229 11.9221L218.239 11.9857L217.219 14.8609C216.657 16.4423 216.132 17.6611 216.052 17.5692C215.971 17.4776 215.446 16.1615 214.885 14.6451L213.864 11.8878L212.875 11.8846C212.249 11.8828 211.885 11.9724 211.885 12.1284ZM221.099 15.933C220.156 18.1713 219.385 20.0973 219.385 20.213C219.385 20.3286 219.81 20.4232 220.33 20.4232C221.253 20.4232 221.284 20.4009 221.68 19.4776L222.086 18.5319L225.701 18.6523L226.024 19.5378C226.342 20.4115 226.359 20.4232 227.345 20.4232C228.009 20.4232 228.34 20.3361 228.334 20.1628C228.33 20.0196 227.543 18.1211 226.587 15.944L224.848 11.9857L222.812 11.863L221.099 15.933ZM232.302 20.4232H234.385V17.2982L235.375 17.2842C237.718 17.2509 238.505 16.9373 239.091 15.8034C239.547 14.9217 239.382 13.4811 238.748 12.8057C238.091 12.1067 237.318 11.9363 234.622 11.8963L232.302 11.8617V20.4232ZM240.792 12.0378C240.75 12.1236 240.721 14.0221 240.728 16.2565L240.739 20.319L242.718 20.4461V18.6638C242.718 17.0405 242.754 16.8815 243.121 16.8815C243.989 16.8815 244.538 17.3113 245.618 18.8367L246.741 20.4232H247.855C248.467 20.4232 248.968 20.3711 248.968 20.3075C248.968 20.0382 247.211 17.573 246.723 17.159L246.192 16.7073L246.963 16.3853C247.513 16.1553 247.825 15.843 248.055 15.2928C248.694 13.7646 247.916 12.4011 246.219 12.073C245.092 11.855 240.894 11.828 240.792 12.0378ZM249.802 20.4461L251.781 20.319L251.842 16.7773C251.876 14.8294 251.848 12.9309 251.781 12.5586C251.664 11.9144 251.613 11.8815 250.73 11.8815H249.802V20.4461ZM252.51 12.0294C252.51 12.1109 253.234 14.0369 254.119 16.3096L255.728 20.4417L257.807 20.319L259.428 16.1523C260.32 13.8607 261.05 11.9573 261.051 11.9228C261.051 11.888 260.57 11.888 259.982 11.9228L258.911 11.9857L256.803 17.9236L254.543 11.8815H253.527C252.968 11.8815 252.51 11.9482 252.51 12.0294ZM263.46 12.0694C263.239 12.4265 260.01 20.0982 260.01 20.2652C260.01 20.3521 260.459 20.4232 261.009 20.4232C261.994 20.4232 262.011 20.4115 262.33 19.5378L262.652 18.6523L266.268 18.5319L266.673 19.4776C267.078 20.4207 267.081 20.4232 268.128 20.4232C268.705 20.4232 269.169 20.3528 269.16 20.2669C269.151 20.1811 268.329 18.2826 267.333 16.0482L265.523 11.9857L264.556 11.923C264.024 11.8884 263.531 11.9544 263.46 12.0694ZM270.01 20.4734L272.572 20.3882C275.433 20.293 276.196 20.0199 277.021 18.7951C277.89 17.5065 277.887 14.7942 277.016 13.5019C276.206 12.2998 275.464 12.0353 272.591 11.9246L270.01 11.8253V20.4734ZM280.041 15.8919C279.104 18.0978 278.339 20.0246 278.341 20.1742C278.343 20.3678 278.623 20.4278 279.315 20.3826C280.25 20.3213 280.298 20.2857 280.608 19.4336L280.929 18.5482H284.559L284.917 19.4857C285.273 20.4192 285.279 20.4232 286.288 20.4232C286.846 20.4232 287.302 20.3434 287.302 20.2457C287.302 20.148 286.544 18.3434 285.617 16.2352C284.69 14.1271 283.883 12.2853 283.824 12.1419C283.759 11.9855 283.321 11.8815 282.729 11.8815H281.743L280.041 15.8919ZM138.051 13.658C137.231 14.0855 136.929 14.534 136.769 15.5638C136.411 17.8701 138.339 19.624 140.184 18.67C141.131 18.1807 141.501 17.4921 141.513 16.1998C141.524 14.8669 141.254 14.2905 140.361 13.7461C139.564 13.26 138.865 13.2334 138.051 13.658ZM167.927 18.7565H169.149C170.781 18.7565 171.377 18.3015 171.569 16.91C171.742 15.6475 171.396 14.2919 170.791 13.8684C170.508 13.67 169.876 13.5482 169.13 13.5482H167.927V18.7565ZM234.385 15.6315H235.44C236.821 15.6315 237.302 15.3626 237.302 14.5898C237.302 13.8171 236.821 13.5482 235.44 13.5482H234.385V15.6315ZM242.718 15.4232H244.086C245.674 15.4232 246.26 15.1799 246.26 14.5201C246.26 13.7386 245.864 13.5482 244.239 13.5482H242.718V15.4232ZM272.031 13.7044C271.984 13.7903 271.955 14.9388 271.967 16.2565L271.989 18.6523L273.257 18.7134C275.026 18.7988 275.468 18.4221 275.591 16.7263C275.704 15.1611 275.377 14.104 274.682 13.7871C274.098 13.5211 272.166 13.4607 272.031 13.7044ZM263.924 15.5111L263.38 16.8815H265.62L265.19 15.8919C264.954 15.3478 264.695 14.7309 264.614 14.5215C264.503 14.2317 264.338 14.4682 263.924 15.5111ZM196.353 15.4694C196.13 16.0678 195.916 16.6303 195.878 16.7194C195.84 16.8086 196.285 16.8815 196.868 16.8815C197.45 16.8815 197.927 16.843 197.927 16.7959C197.927 16.5257 197.013 14.3815 196.897 14.3815C196.821 14.3815 196.576 14.8711 196.353 15.4694ZM223.706 14.5084C223.636 14.6223 223.386 15.2028 223.151 15.7986L222.724 16.8815H223.777C224.773 16.8815 224.822 16.8565 224.681 16.4136C224.329 15.3021 223.824 14.3171 223.706 14.5084ZM282.198 15.4753C281.973 16.0769 281.755 16.6394 281.715 16.7253C281.675 16.8111 282.119 16.8815 282.701 16.8815C283.284 16.8815 283.76 16.843 283.76 16.7959C283.76 16.5365 282.848 14.3815 282.738 14.3815C282.666 14.3815 282.423 14.8736 282.198 15.4753ZM258.281 21.985C257.755 22.1186 257.203 22.3192 257.053 22.4311C255.474 23.6105 252.718 25.9328 252.718 26.084C252.718 26.4625 253.358 27.5065 253.59 27.5065C254.267 27.5065 259.57 26.3738 260.056 26.1251C261.052 25.6161 261.468 25.0032 261.468 24.0457C261.468 23.3465 261.341 23.0361 260.854 22.5488C260.101 21.7963 259.523 21.6698 258.281 21.985ZM119.177 28.8619C113.091 30.5375 109.689 35.8228 110.93 41.6738C112.191 47.6257 117.99 51.2857 124.342 50.1403C125.293 49.9688 126.671 49.5478 127.404 49.2046L128.738 48.5805L129.579 50.0065H133.135V46.1777C133.135 41.8588 133.12 41.9025 134.698 41.7246L135.635 41.619V40.2103C135.635 38.9013 135.6 38.793 135.14 38.6775C134.868 38.6092 132.338 38.5546 129.518 38.5561L124.39 38.559L124.27 39.0361C124.205 39.2986 124.18 39.9759 124.216 40.5411L124.281 41.569L125.546 41.6903C126.242 41.7569 126.922 41.8796 127.056 41.963C127.206 42.055 127.302 42.6696 127.302 43.5323C127.302 44.6373 127.209 45.0678 126.883 45.483C125.964 46.6505 122.944 47.144 121.22 46.4082C119.168 45.5315 117.619 43.1425 117.326 40.3984C116.917 36.5719 118.244 33.6446 120.905 32.4996C122.661 31.7446 125.063 32.0448 126.653 33.218C127.269 33.6728 129.13 35.8371 129.55 36.5884C129.713 36.8796 129.898 36.865 131.278 36.4519C132.127 36.1973 132.843 35.9746 132.867 35.9569C132.991 35.8663 130.831 29.0863 130.64 28.9682C130.463 28.8582 129.325 28.8498 128.305 28.9507C128.227 28.9586 128.108 29.1398 128.04 29.3538C127.921 29.7259 127.856 29.7207 126.515 29.2307C124.698 28.5665 120.936 28.3775 119.177 28.8619ZM72.3023 28.9301C72.1875 28.9684 72.0934 29.648 72.0934 30.4405V31.8815H73.0952C74.9415 31.8815 74.8963 31.743 74.9738 37.6457C75.0111 40.4911 74.9788 43.6867 74.9021 44.7469C74.7471 46.8894 74.7519 46.884 72.9865 46.9542L72.1975 46.9857L72.075 50.0065H83.57L83.4475 46.9857L82.6586 46.9542C81.0346 46.8896 80.8923 46.7846 80.7965 45.5805C80.7486 44.9784 80.7217 41.7788 80.7367 38.4703C80.7675 31.6157 80.694 31.8815 82.559 31.8815H83.57L83.4475 28.9367L77.9794 28.8986C74.9721 28.8778 72.4173 28.8919 72.3023 28.9301ZM85.9302 28.9475C85.8823 28.9953 85.8434 29.6748 85.8434 30.458V31.8815H86.7344C87.2246 31.8815 87.834 32.0276 88.0886 32.2059C88.5515 32.5298 88.5517 32.5346 88.5517 39.4719C88.5517 44.9796 88.4946 46.4611 88.2757 46.6428C88.124 46.7688 87.5379 46.9017 86.9736 46.9382L85.9475 47.0044L85.825 50.0065H95.4267V46.9215L94.3686 46.9134C93.7865 46.9088 93.1771 46.7946 93.0144 46.6594C92.7717 46.458 92.7186 45.3782 92.7192 40.6582C92.7198 35.0059 92.7267 34.9136 93.0984 35.5273C93.4261 36.0688 96.31 41.3086 99.9213 47.9232L101.002 49.9023L106.052 50.0194V41.1661C106.052 31.1249 105.908 31.8815 107.818 31.8815H108.778L108.656 28.9557L99.1398 28.9259L99.0454 31.8815H100.12C101.883 31.8815 101.904 31.9419 101.838 36.6877L101.781 40.7217L95.3155 28.9484L90.6661 28.9046C88.109 28.8805 85.9779 28.8998 85.9302 28.9475ZM161.555 28.9475C161.507 28.9953 161.468 29.6748 161.468 30.458V31.8815H162.495C164.26 31.8815 164.19 31.5542 164.127 39.5328C164.066 47.3505 164.197 46.764 162.458 46.988L161.468 47.1155V50.0065H171.052V47.1155L170.062 46.988C168.336 46.7657 168.454 47.2096 168.392 40.7271C168.361 37.5388 168.393 34.9871 168.463 35.0565C168.532 35.1261 170.401 38.4946 172.616 42.5425L176.643 49.9023L181.677 50.0194V32.5301L182.14 32.2059C182.394 32.0276 183.008 31.8815 183.503 31.8815H184.403L184.281 28.9217L174.802 28.8607V31.8815H175.716C176.278 31.8815 176.803 32.0219 177.077 32.2461C177.509 32.5992 177.521 32.7386 177.464 36.6538L177.406 40.6967L176.503 39.0496C176.006 38.1436 174.625 35.6211 173.433 33.444C172.241 31.2669 171.185 29.363 171.087 29.213C170.95 29.004 169.827 28.9311 166.275 28.9005C163.727 28.8786 161.603 28.8998 161.555 28.9475ZM186.347 28.9475C186.299 28.9953 186.26 29.6748 186.26 30.458V31.8815H187.262C189.07 31.8815 188.987 31.5517 188.986 38.7607C188.985 42.2532 188.98 45.4586 188.976 45.8838C188.969 46.6011 188.912 46.6715 188.187 46.8553C187.758 46.964 187.171 47.038 186.885 47.0194C186.379 46.9867 186.362 47.0298 186.303 48.4961L186.242 50.0065H197.737L197.614 47.0136L196.468 46.9311C195.838 46.8857 195.229 46.7575 195.114 46.6465C194.984 46.5196 194.906 43.8424 194.906 39.4592C194.906 31.4951 194.813 31.8815 196.726 31.8815H197.737L197.614 28.9361L192.024 28.8984C188.949 28.8776 186.394 28.8998 186.347 28.9475ZM199.987 28.9648C199.974 29.0221 199.951 29.7017 199.935 30.4749L199.906 31.8807L200.988 31.8811C202.76 31.8817 202.718 31.7005 202.718 39.4921C202.718 44.5126 202.654 46.2648 202.458 46.5303C202.279 46.7734 201.845 46.8996 201.066 46.9346L199.935 46.9857L199.871 50.0065H219.945L221.459 46.1336C222.291 44.0036 222.892 42.1844 222.793 42.0913C222.695 41.9982 221.999 41.7394 221.246 41.5167L219.878 41.1115L219.195 42.4269C218.386 43.9876 217.263 45.0613 215.66 45.8075C214.575 46.3128 214.276 46.353 211.573 46.3567L208.656 46.3607L208.54 40.6315H209.86C211.609 40.6315 211.924 40.8819 212.047 42.3711L212.145 43.5482H215.226L215.114 34.5082L213.76 34.5386C213.015 34.5555 212.335 34.5738 212.25 34.5794C212.164 34.5852 212.092 34.9415 212.09 35.3711C212.084 37.0844 211.584 37.5065 209.562 37.5065H208.552V32.2982L210.375 32.3023C215.218 32.3132 216.606 32.9909 218.656 36.3459C218.846 36.658 218.979 36.6488 220.218 36.2361C220.963 35.9882 221.642 35.7236 221.727 35.6482C221.848 35.54 219.55 29.2686 219.296 29.0146C219.186 28.9046 200.011 28.8551 199.987 28.9648ZM255.791 28.9109L250.427 28.9719V31.8815H251.429C253.311 31.8815 253.232 31.5911 253.288 38.7917C253.315 42.2671 253.279 45.4596 253.209 45.8863C253.069 46.7403 252.809 46.8953 251.395 46.9669L250.531 47.0109L250.408 50.0065H261.903L261.781 46.9857L260.646 46.9342C260.022 46.9057 259.412 46.784 259.292 46.6634C259.147 46.5188 259.073 44.0707 259.073 39.459C259.073 31.4948 258.98 31.8815 260.892 31.8815H261.903L261.842 30.3734C261.795 29.203 261.711 28.8634 261.468 28.8575C261.296 28.8534 258.742 28.8773 255.791 28.9109ZM271.981 29.9023C271.728 30.4753 270.093 34.2967 268.346 38.3944C266.599 42.4921 264.987 46.0782 264.763 46.3632C264.511 46.6823 264.14 46.8828 263.797 46.8846C262.897 46.8898 262.777 47.0969 262.8 48.5996L262.823 50.0055L271.885 50.0065V46.949L271.128 46.9207C269.8 46.8707 269.534 46.7075 269.671 46.0246C269.738 45.6911 269.994 44.9484 270.241 44.374L270.691 43.33L277.576 43.444L278.065 44.8938C278.638 46.5946 278.52 46.8555 277.138 46.9353L276.262 46.9857L276.26 50.0065H287.302V48.5521C287.302 47.1342 287.287 47.0946 286.729 46.9752C285.172 46.6423 285.651 47.5213 280.776 36.0482L277.811 29.069L272.44 28.8607L271.981 29.9023ZM137.093 31.8815H138.095C139.995 31.8815 139.906 31.5113 139.906 39.3576C139.906 47.158 139.979 46.8246 138.238 46.9373L137.198 47.0044L137.075 50.0105L157.183 49.9023L158.596 46.2565C159.374 44.2513 160.033 42.4863 160.062 42.334C160.095 42.1575 159.566 41.8823 158.597 41.573L157.079 41.0884L156.483 42.2663C155.73 43.7549 154.401 45.0744 152.93 45.7942C151.891 46.3026 151.518 46.3619 148.922 46.4334C145.487 46.5275 145.687 46.7346 145.673 43.0761L145.663 40.6315H147.075C148.977 40.6315 149.191 40.8894 149.373 43.4011C149.38 43.4919 150.048 43.5388 150.858 43.5052L152.331 43.444L152.333 39.1273C152.333 36.753 152.282 34.7261 152.218 34.623C152.092 34.419 149.789 34.4442 149.451 34.6532C149.336 34.724 149.236 35.2192 149.228 35.7538C149.208 37.1269 148.86 37.4023 147.147 37.4023H145.757L145.68 35.5434C145.637 34.5211 145.663 33.3588 145.738 32.9607L145.874 32.2371L148.666 32.354C151.029 32.4532 151.626 32.549 152.557 32.9788C153.835 33.5692 154.626 34.3111 155.379 35.6269C155.675 36.1451 155.94 36.6003 155.968 36.6386C155.995 36.6769 156.681 36.4944 157.493 36.233C158.498 35.9092 158.965 35.6546 158.958 35.4342C158.953 35.2563 158.4 33.7513 157.73 32.0898L156.513 29.069L137.093 28.9607V31.8815ZM224.177 32.0898H225.297C226.012 32.0898 226.506 32.1971 226.664 32.3865C227.038 32.8371 227.01 46.2207 226.634 46.5965C226.484 46.7469 225.893 46.9002 225.321 46.9373L224.281 47.0044L224.158 50.0065L235.531 50.0055L235.527 46.9857L234.407 46.9476C233.792 46.9265 233.183 46.8048 233.055 46.6769C232.916 46.538 232.793 45.3586 232.75 43.7463L232.676 41.0482H234.698L236.052 42.748C237.359 44.3886 238.113 45.3257 240.696 48.5159L241.903 50.0065H249.385L249.382 46.9857L248.309 46.9332C247.719 46.9042 246.987 46.7167 246.683 46.5165C246.379 46.3161 244.991 44.9336 243.6 43.444C241.573 41.274 241.141 40.7084 241.425 40.5982C241.621 40.5225 242.297 40.2615 242.927 40.018C244.771 39.3051 246.01 38.274 246.618 36.9442C247.641 34.7094 247.189 32.5815 245.328 30.8807C243.369 29.0909 243.317 29.083 233.083 29.0107L224.177 28.948V32.0898ZM232.718 37.7148H235.285C239.25 37.7148 240.761 37.0701 240.973 35.2873C241.102 34.1996 240.707 33.5334 239.601 32.9753C238.766 32.5544 238.368 32.5065 235.695 32.5065H232.718V37.7148ZM272.967 37.6107L271.918 40.2148H276.241L275.704 38.8086C275.409 38.035 274.968 36.8634 274.724 36.2046C274.48 35.5459 274.221 35.0067 274.149 35.0067C274.076 35.0065 273.544 36.1784 272.967 37.6107Z" fill="#1C3761"/>
<path fill-rule="evenodd" clip-rule="evenodd" d="M23.596 4.58861L23.3002 4.66608C21.6728 5.09241 20.4749 5.51269 18.9369 6.1967L17.7928 6.70559L17.5181 6.398C17.367 6.22886 16.713 5.46404 16.0647 4.69838C15.4164 3.93271 14.8586 3.30626 14.825 3.30626C14.7915 3.30626 14.363 3.65269 13.8727 4.0761C13.3825 4.49951 12.5428 5.21694 12.0069 5.67035C11.4709 6.12376 10.8758 6.6284 10.6844 6.79176C8.16033 8.94578 7.083 9.8661 6.46429 10.397L5.72433 11.0319L5.87265 11.2152C5.95416 11.3161 6.5847 12.0629 7.27378 12.8747C7.96287 13.6866 8.55645 14.393 8.59285 14.4444C8.63998 14.511 8.57511 14.6545 8.36775 14.9429C7.68069 15.8984 6.96961 17.1139 6.30976 18.4604C5.71374 19.6768 5.57941 19.9027 5.45071 19.9048C5.30969 19.907 2.39954 19.4439 1.53721 19.2819C1.32986 19.243 1.15077 19.2206 1.13921 19.2322C1.12766 19.2437 0.913695 20.4888 0.663746 21.999C0.413797 23.5091 0.162178 25.011 0.104546 25.3364C0.0469829 25.6618 -6.95271e-05 25.9674 7.71245e-08 26.0155C0.000139286 26.0851 1.07706 26.0993 5.27009 26.0851L10.54 26.0673L10.6014 25.7889C10.7484 25.1218 11.2148 23.5733 11.4512 22.9677C13.2414 18.3804 16.6136 14.6842 21.004 12.497C24.9733 10.5196 29.5669 9.97211 33.8933 10.961C40.9872 12.5823 46.6293 18.1009 48.4126 25.1624L48.6411 26.0673L53.9024 26.0851C57.5285 26.0974 59.1638 26.0804 59.1638 26.0302C59.1638 25.9138 58.0483 19.2558 58.0249 19.2323C58.0132 19.2207 57.834 19.243 57.6267 19.2819C56.7719 19.4424 53.8537 19.9072 53.7005 19.9072C53.5897 19.9072 53.5194 19.8555 53.4873 19.7506C53.3936 19.4446 52.4861 17.6332 52.0487 16.8793C51.5918 16.0918 51.05 15.2516 50.6228 14.668C50.4891 14.4854 50.3954 14.2975 50.4146 14.2503C50.4337 14.2033 50.7422 13.8164 51.1001 13.3906C53.0234 11.1025 53.2696 10.781 53.1698 10.6882C52.8757 10.4148 44.1614 3.18313 44.0956 3.15786C44.0522 3.14123 43.3692 3.90856 42.5778 4.86306L41.1388 6.59861L40.2501 6.19455C38.934 5.59622 37.4519 5.07968 35.8637 4.66573L35.5679 4.58861V0H23.596V4.58861ZM27.7026 12.0688C27.2624 12.1114 26.91 12.1696 26.9196 12.1984C26.9292 12.2271 26.937 12.3489 26.937 12.4691V12.6876L27.3546 12.6497C27.7462 12.6142 27.7727 12.6212 27.7788 12.7618C27.7823 12.8443 27.8215 13.3973 27.8658 13.9907L27.9463 15.0696H28.2595C28.5512 15.0696 28.5716 15.0576 28.5577 14.8956C28.4063 13.1321 28.3896 12.6471 28.4788 12.5906C28.5304 12.5579 28.7215 12.5307 28.9033 12.53C29.2546 12.5289 29.2856 12.4855 29.1901 12.1288C29.1412 11.9464 29.0191 11.9415 27.7026 12.0688ZM29.9057 12.7139C29.8385 13.8132 29.8503 14.4495 29.9419 14.6504C30.0668 14.9245 30.4194 15.1039 30.916 15.1458C31.463 15.1921 31.7862 15.0487 31.9667 14.6797C32.0809 14.4463 32.1857 13.6359 32.2404 12.5638L32.2617 12.1462L31.9659 12.1067C31.8032 12.085 31.6689 12.085 31.6674 12.1067C31.5725 13.4955 31.4605 14.3693 31.3651 14.4647C31.202 14.6278 30.7925 14.6058 30.6108 14.4241C30.4462 14.2595 30.4343 13.9438 30.545 12.6917C30.5726 12.3792 30.5839 12.0894 30.5701 12.0478C30.5561 12.0062 30.4112 11.9722 30.248 11.9722H29.9511L29.9057 12.7139ZM25.7885 12.3832C25.6179 12.4213 25.5831 12.4611 25.5985 12.6012C25.6174 12.773 26.1518 15.2073 26.2041 15.3592C26.2354 15.4506 26.7978 15.3391 26.7978 15.2415C26.7978 15.2113 26.6568 14.5652 26.4846 13.8056C26.3124 13.046 26.1714 12.4011 26.1714 12.3724C26.1713 12.3136 26.0906 12.3159 25.7885 12.3832ZM23.7755 12.9505C23.2426 13.1401 22.7971 13.3047 22.7855 13.3162C22.774 13.3278 22.7959 13.451 22.8342 13.5899L22.904 13.8426L23.2957 13.7078C23.5111 13.6337 23.6955 13.5731 23.7055 13.5731C23.7155 13.5731 23.9015 14.1067 24.1189 14.759C24.5501 16.0529 24.486 15.9741 24.9627 15.7959C25.1089 15.7413 25.1047 15.721 24.7067 14.5562L24.3019 13.372L24.6276 13.256C24.8068 13.1923 24.9901 13.1298 25.0351 13.1172C25.1622 13.0815 24.9927 12.5977 24.8546 12.6022C24.794 12.6042 24.3085 12.7609 23.7755 12.9505ZM33.718 12.6973C32.9951 13.0121 32.5919 14.3746 33.003 15.1137C33.4004 15.8284 34.5211 15.9551 35.005 15.34C35.1993 15.0929 35.1882 15.0258 34.9249 14.8551L34.7013 14.7101L34.4826 14.9421C34.2088 15.2323 33.9023 15.2548 33.6507 15.0031C33.4856 14.8382 33.4491 14.6745 33.4793 14.2359C33.5142 13.7298 33.9262 13.1555 34.2542 13.1555C34.5172 13.1555 34.7966 13.3575 34.8568 13.5914C34.9093 13.7951 34.9427 13.8187 35.2065 13.8381C35.4963 13.8594 35.4983 13.8579 35.4983 13.6222C35.4983 12.9088 34.465 12.372 33.718 12.6973ZM36.4084 13.7297C36.3374 13.8924 36.0852 14.464 35.848 15C35.2885 16.2639 35.3055 16.1868 35.5578 16.3172C35.6743 16.3776 35.7982 16.4269 35.8329 16.4269C35.8981 16.4269 37.1369 13.7243 37.0904 13.6834C37.0407 13.6394 36.6187 13.4339 36.5782 13.4339C36.5557 13.4339 36.4794 13.567 36.4084 13.7297ZM21.0548 14.1205C20.9014 14.1903 20.6743 14.3629 20.5502 14.5043C20.3691 14.7105 20.3246 14.8215 20.3246 15.0667C20.3246 15.4409 20.5669 15.7648 20.9196 15.8621C21.1358 15.9218 21.7392 15.8435 22.2063 15.6953C22.3437 15.6517 22.5519 15.8257 22.5519 15.984C22.5519 16.3148 22.0816 16.622 21.7616 16.5003C21.6677 16.4647 21.5704 16.4023 21.5453 16.3616C21.4742 16.2466 21.352 16.2739 21.1254 16.4552L20.917 16.6219L21.0556 16.7751C21.5286 17.2978 22.3459 17.2213 22.8881 16.6038C23.0084 16.4668 23.127 16.2742 23.1517 16.1757C23.2528 15.7728 22.8892 15.1568 22.4914 15.0569C22.3936 15.0324 22.1401 15.0511 21.9281 15.0985C21.1832 15.2651 20.9583 15.2739 20.9064 15.1387C20.8422 14.9715 20.951 14.8143 21.229 14.6724C21.4439 14.5627 21.4763 14.5622 21.6511 14.6654C21.8294 14.7708 21.8548 14.7684 22.0882 14.6241C22.3759 14.4464 22.3634 14.336 22.0322 14.1313C21.7515 13.9579 21.4209 13.9542 21.0548 14.1205ZM37.7229 14.6383C37.362 14.829 36.9384 15.4102 36.8099 15.8907C36.5159 16.9898 37.7518 17.9903 38.765 17.4734C39.6382 17.028 40.0293 15.7215 39.4893 15.0542C39.0371 14.4954 38.3146 14.3253 37.7229 14.6383ZM38.1693 15.1105C37.9328 15.179 37.4909 15.7514 37.4084 16.0963C37.2688 16.6792 37.8442 17.1802 38.3908 16.9518C38.5179 16.8987 38.7175 16.7232 38.8344 16.5619C39.2952 15.9257 39.2429 15.4199 38.6863 15.1321C38.4755 15.023 38.4713 15.0229 38.1693 15.1105ZM18.7764 15.7034L19.3398 16.4266C19.6498 16.8244 19.8942 17.159 19.8829 17.1702C19.8717 17.1815 19.4343 17.0188 18.9109 16.8088C18.3876 16.5988 17.9175 16.4269 17.8664 16.4269C17.8153 16.4269 17.6987 16.5065 17.6072 16.6039C17.4696 16.7504 17.4549 16.8032 17.5222 16.911C17.7327 17.2479 19.2312 19.109 19.3062 19.1265C19.3528 19.1374 19.4655 19.067 19.5565 18.9702L19.7219 18.7941L19.5165 18.5328C19.4035 18.389 19.1449 18.06 18.9418 17.8016C18.7387 17.5432 18.583 17.3319 18.5959 17.3321C18.6088 17.3322 19.0568 17.5044 19.5916 17.7148C20.1264 17.925 20.6148 18.081 20.6769 18.0613C20.739 18.0416 20.856 17.955 20.9369 17.8689L21.084 17.7123L20.304 16.7011C19.8751 16.1449 19.4558 15.6036 19.3723 15.4982L19.2205 15.3066L18.7764 15.7034ZM28.3468 16.1504C23.098 16.6584 18.61 20.0396 16.7086 24.9184C16.555 25.3128 16.4093 25.7414 16.3851 25.8707L16.3409 26.1058L18.46 26.0673L18.6171 25.6496C19.2548 23.9537 20.6091 22.0615 21.9951 20.9297C24.28 19.0639 26.7415 18.1679 29.5819 18.1679C33.589 18.1679 37.1345 20.0706 39.4092 23.4416C39.777 23.9866 40.4997 25.3896 40.6453 25.8411L40.7294 26.1021H41.8029C42.3933 26.1021 42.8759 26.0943 42.8755 26.0847C42.8709 25.997 42.5601 25.1119 42.3667 24.636C41.2505 21.8902 39.0156 19.3636 36.4032 17.8941C35.372 17.3142 34.4126 16.9233 33.0622 16.5331C31.9192 16.2029 29.6812 16.0213 28.3468 16.1504ZM40.4054 16.8253C40.0609 17.1918 39.5948 17.692 39.3696 17.9369L38.9603 18.3823L39.1207 18.5531C39.209 18.647 39.3194 18.7239 39.3662 18.7239C39.413 18.7239 39.7122 18.4397 40.0311 18.0924C40.3499 17.745 40.6189 17.4866 40.6287 17.5181C40.6385 17.5497 40.5416 18.0139 40.4134 18.5499L40.1802 19.5244L40.4183 19.768C40.6306 19.9852 40.6656 19.9993 40.7411 19.8984C40.7878 19.8361 41.2325 19.3552 41.7294 18.8296C42.2262 18.3042 42.6417 17.8369 42.6525 17.7913C42.6634 17.7458 42.5894 17.6316 42.4881 17.5375L42.304 17.3666L41.6506 18.0563C41.2911 18.4357 40.9971 18.7129 40.9971 18.6724C40.9971 18.6319 41.1051 18.1492 41.2372 17.5998L41.4773 16.6009L41.0319 16.1591L40.4054 16.8253ZM16.3484 17.9234L18.547 20.0465L18.9657 19.6277L16.795 17.4569L16.3484 17.9234ZM12.9813 26.9984C12.4172 27.2021 12.1756 27.3512 11.7979 27.729C11.0014 28.5256 10.6815 29.7632 10.9634 30.9584C11.1109 31.5843 11.3746 32.0588 11.8235 32.5065C12.7513 33.4317 14.1132 33.6506 15.3475 33.073L15.7887 32.8666L15.8726 33.069C15.9187 33.1803 15.9839 33.2733 16.0175 33.2756C16.0512 33.2778 16.2711 33.2815 16.5062 33.2837L16.9337 33.2878L16.9413 32.1347C16.9463 31.3522 16.9751 30.9553 17.0308 30.8996C17.0758 30.8544 17.2245 30.8137 17.3613 30.809L17.6098 30.8005L17.61 29.8608H14.5474V30.7476L14.8606 30.7829C15.0329 30.8023 15.2208 30.8572 15.2782 30.9049C15.3994 31.0054 15.4203 31.5624 15.3136 31.8432C15.2206 32.0879 14.7523 32.2935 14.2836 32.2955C13.2933 32.2996 12.6681 31.4138 12.6681 30.0065C12.6681 28.6839 13.2402 27.9093 14.214 27.9134C14.8691 27.9161 15.3731 28.2743 15.8443 29.072L16.0157 29.3622L16.43 29.2223C16.7006 29.1309 16.8444 29.0445 16.8444 28.9731C16.8444 28.913 16.7279 28.4304 16.5854 27.9006L16.3266 26.9374H16.0167C15.8346 26.9374 15.6578 26.9818 15.5877 27.0452C15.4797 27.143 15.4286 27.1397 15.045 27.0104C14.4881 26.8229 13.4839 26.817 12.9813 26.9984ZM0.417765 27.8422H0.692214C1.16803 27.8422 1.17457 27.8719 1.18125 30.07C1.18473 31.206 1.15842 32.0751 1.11736 32.1832C1.05624 32.344 1.00891 32.3666 0.732724 32.3666H0.417765V33.3063H3.48035V32.3742L3.15252 32.353C2.87048 32.3348 2.818 32.3075 2.77665 32.1578C2.7502 32.0621 2.72591 31.138 2.72264 30.1044C2.71582 27.9356 2.72542 27.8891 3.18613 27.8557L3.48035 27.8342V26.9374H0.417765V27.8422ZM4.10679 27.8422H4.38027C4.87981 27.8422 4.87244 27.8079 4.87244 30.1302C4.87244 31.6469 4.85016 32.2218 4.78891 32.2831C4.74297 32.329 4.56924 32.3666 4.40289 32.3666H4.10046L4.14159 33.2787L6.71695 33.2783V32.4014L6.42656 32.3802C6.26682 32.3686 6.10186 32.3177 6.05989 32.2672C6.00803 32.2047 5.98959 31.6356 6.00225 30.4899L6.02091 28.8044L8.24449 33.2715H9.60553V30.6289C9.60553 28.0875 9.61068 27.9836 9.74014 27.9143C9.8142 27.8747 9.97081 27.8422 10.0882 27.8422H10.3016V26.9374H7.72621V27.8422L7.98723 27.8433C8.45629 27.8452 8.45469 27.8407 8.47878 29.2143C8.49304 30.0298 8.47696 30.4287 8.43172 30.3828C8.39386 30.3445 7.98521 29.5536 7.52359 28.6253L6.68424 26.9374H4.10679V27.8422ZM18.0276 27.8422H18.3011C18.8001 27.8422 18.7933 27.8108 18.7933 30.1044C18.7933 32.4002 18.8007 32.3666 18.2979 32.3666H18.0213L18.0624 33.2783L20.7403 33.2733C22.2132 33.2706 23.4389 33.2455 23.4642 33.2177C23.4991 33.1793 24.0078 31.7543 24.2574 30.9956C24.2804 30.9257 23.6412 30.6258 23.4715 30.6267C23.4443 30.6269 23.361 30.7756 23.2865 30.9574C23.212 31.139 22.9896 31.4495 22.7922 31.6474C22.342 32.0986 21.953 32.2274 21.0407 32.2274H20.39L20.429 30.4524L20.7744 30.465C21.1816 30.4797 21.2684 30.5683 21.3325 31.0339L21.3774 31.361L22.1691 31.3407V28.6427L21.7782 28.6221C21.3892 28.6016 21.3871 28.6025 21.3432 28.8222C21.3189 28.9436 21.299 29.1162 21.299 29.2058C21.299 29.4147 21.1115 29.5128 20.712 29.5128H20.3942V27.9639L21.1832 27.9941C21.8749 28.0206 22.0099 28.0465 22.2795 28.2044C22.649 28.4211 22.7679 28.548 22.9733 28.9451C23.1456 29.2784 23.2167 29.2895 23.7479 29.0659L24.0041 28.958L23.849 28.5567C23.7637 28.336 23.6018 27.8814 23.4893 27.5464L23.2846 26.9374H18.0276V27.8422ZM24.6401 27.8422H24.9169C25.4082 27.8422 25.4148 27.8751 25.3914 30.2039C25.3687 32.4521 25.3888 32.3635 24.9011 32.3655L24.6401 32.3666V32.819C24.6401 33.174 24.6625 33.2719 24.7445 33.2733C24.8019 33.2742 25.3892 33.2758 26.0495 33.2768L27.2502 33.2786V32.4014L26.9727 32.3788C26.8201 32.3664 26.6556 32.3234 26.6073 32.2833C26.5406 32.2279 26.5204 31.796 26.5235 30.4961L26.5278 28.7819L28.7891 33.2939L30.0751 33.2883L30.0895 30.6803C30.1057 27.7759 30.0945 27.8422 30.5649 27.8422H30.8348V26.9374H28.2595V27.8422H28.524C28.6694 27.8422 28.826 27.8798 28.872 27.9258C28.9311 27.9848 28.9538 28.3669 28.9499 29.2309L28.9442 30.4524L27.2086 26.9374H24.6401V27.8422ZM31.3917 27.8422H31.6616C32.1256 27.8422 32.1225 27.8267 32.1225 30.1442C32.1225 31.2836 32.0977 32.2407 32.0674 32.2709C32.037 32.3012 31.8659 32.343 31.6869 32.3637L31.3617 32.4014L31.3697 32.7842C31.3741 32.9948 31.3809 33.1984 31.3847 33.2367C31.3891 33.2813 31.9356 33.3006 32.9055 33.2904L34.4194 33.2746L34.4606 32.3666H34.184C33.6703 32.3666 33.6784 32.4053 33.7022 30.0583C33.7257 27.7512 33.7048 27.8453 34.1932 27.8433L34.4543 27.8422V26.9374H31.3917V27.8422ZM35.0807 27.8422H35.3575C35.8468 27.8422 35.8531 27.8733 35.8309 30.2022C35.8094 32.4523 35.8295 32.3635 35.3417 32.3655L35.0807 32.3666V33.3063L37.7705 33.2904C39.2499 33.2817 40.4752 33.2596 40.4935 33.2415C40.5486 33.1863 41.2755 31.1051 41.2755 31.0024C41.2755 30.9498 41.1599 30.8584 41.0185 30.7993C40.4995 30.5825 40.4935 30.5845 40.2734 31.0454C40.0237 31.5687 39.5723 31.9815 39.0949 32.1233C38.6001 32.2703 37.477 32.2662 37.4199 32.1173C37.3966 32.0567 37.3776 31.6673 37.3776 31.2519C37.3776 30.3968 37.4017 30.3624 37.937 30.4529C38.2654 30.5083 38.3039 30.5593 38.3508 30.9997L38.3869 31.3381L39.1938 31.3507V28.6427H38.3869L38.3498 29.0121C38.3058 29.45 38.2326 29.5103 37.7431 29.5117L37.3776 29.5128V27.9814L37.9867 27.9845C39.1449 27.9902 39.5968 28.1962 39.9819 28.8938L40.1973 29.2841L40.5972 29.1413C40.8585 29.048 40.9952 28.961 40.9918 28.8902C40.9888 28.8306 40.8397 28.3747 40.6602 27.877L40.3341 26.9722L35.0807 26.9357V27.8422ZM41.6583 27.8687L41.9497 27.8834C42.11 27.8915 42.2744 27.9188 42.3151 27.9439C42.43 28.0149 42.4166 32.1875 42.3012 32.2833C42.2529 32.3234 42.0884 32.3664 41.9358 32.3788L41.6583 32.4014V32.8364C41.6583 33.0757 41.6818 33.2715 41.7105 33.2715C41.7392 33.2715 42.4376 33.2715 43.2625 33.2715H44.7623L44.7209 32.4014L44.4434 32.3788C44.0066 32.3433 43.99 32.3069 43.99 31.3836V30.5568L44.2162 30.5572C44.4285 30.5575 44.4981 30.6329 45.3473 31.7838C45.845 32.4583 46.2992 33.0705 46.3566 33.1444C46.4511 33.2658 46.557 33.2787 47.4702 33.2799L48.4795 33.2812V32.8413C48.4795 32.4031 48.4787 32.4013 48.2707 32.3823C47.8271 32.3417 47.7389 32.2736 46.9815 31.3872C46.2565 30.5387 46.2153 30.4748 46.3674 30.4351C46.4572 30.4117 46.7185 30.294 46.9482 30.1735C48.157 29.5396 48.2097 27.987 47.0468 27.2681C46.5862 26.9834 46.1372 26.9382 43.7606 26.9378L41.6172 26.9374L41.6583 27.8687ZM48.7927 27.8422H49.0627C49.5268 27.8422 49.5236 27.8258 49.5236 30.1524C49.5236 32.4607 49.5442 32.3635 49.0537 32.3655L48.7927 32.3666L48.7926 33.3063L51.8553 33.2663V32.3666L51.5943 32.3655C51.1066 32.3635 51.1267 32.4521 51.104 30.2039C51.0806 27.8751 51.0872 27.8422 51.5785 27.8422H51.8553V26.9374H48.7927V27.8422ZM54.6769 27.0569C54.6501 27.1251 54.3471 27.9171 54.0036 28.8167C52.6393 32.3896 52.6505 32.3666 52.2775 32.3666C52.147 32.3666 52.1337 32.4082 52.1337 32.819V33.2715L53.1082 33.2772C53.6441 33.2804 54.198 33.2857 54.3389 33.2889C54.5828 33.2944 54.5949 33.284 54.5889 33.0743C54.5854 32.953 54.5797 32.7442 54.5762 32.6102C54.5702 32.3811 54.5559 32.3666 54.3348 32.3666C53.961 32.3666 53.9162 32.2458 54.0996 31.7316L54.2579 31.2877L56.0934 31.2637L56.243 31.7132C56.4141 32.2274 56.373 32.3447 56.009 32.3799L55.788 32.4014V33.2772L58.7461 33.3063V32.8364C58.7461 32.3911 58.7377 32.3666 58.5842 32.3666C58.4952 32.3666 58.3579 32.2961 58.2792 32.21C58.2004 32.1239 57.6964 30.9101 57.1592 29.5128L56.1824 26.9722L55.4541 26.9525C54.8092 26.9351 54.7202 26.947 54.6769 27.0569ZM44.0422 28.0194C44.0135 28.0496 43.99 28.4135 43.99 28.8283V29.5824H44.7195C45.2117 29.5824 45.5354 29.5478 45.7149 29.4759C46.3056 29.2396 46.3936 28.4762 45.866 28.1646C45.6492 28.0365 44.1404 27.9164 44.0422 28.0194ZM54.8961 29.5302C54.7533 29.9226 54.6371 30.2671 54.638 30.2958C54.6388 30.3246 54.8934 30.348 55.2038 30.348C55.6254 30.348 55.7602 30.326 55.7368 30.261C55.7197 30.2132 55.5988 29.8687 55.4683 29.4955C55.3379 29.1223 55.2141 28.8169 55.1934 28.8168C55.1727 28.8168 55.0389 29.1377 54.8961 29.5302ZM0.000139209 33.9939C0.000139209 34.1582 1.10469 40.8029 1.13747 40.8357C1.15439 40.8527 2.1285 40.7061 3.30217 40.51C4.47576 40.3139 5.48572 40.1633 5.54642 40.1754C5.6092 40.1878 5.79539 40.4972 5.97838 40.8933C6.67435 42.3996 7.41759 43.6911 8.36128 45.0338L8.82526 45.6939L8.53675 46.0522C8.37805 46.2491 7.82477 46.9231 7.30726 47.5497C6.09337 49.0195 5.96536 49.1908 6.0175 49.2752C6.09114 49.3944 15.0397 56.8321 15.1267 56.8465C15.1979 56.8583 16.0128 55.8981 17.5939 53.9397L18.0302 53.3993L18.8543 53.7693C20.2429 54.3925 21.831 54.9516 23.3002 55.3343L23.596 55.4114V60H35.5679V55.4114L35.8289 55.3433C35.9725 55.3059 36.2851 55.2257 36.5234 55.1651C37.3474 54.9558 39.0172 54.3456 40.0922 53.8611C40.6856 53.5936 41.2337 53.36 41.3103 53.3421C41.4124 53.3181 41.5144 53.3918 41.6931 53.619C41.8271 53.7894 42.4535 54.5331 43.0852 55.2718C43.7168 56.0105 44.2542 56.6454 44.2793 56.6827C44.3266 56.7528 44.4873 56.6257 46.078 55.261C46.5949 54.8175 48.0045 53.6153 49.2104 52.5894C53.8054 48.6801 53.4625 48.9938 53.3296 48.8206C53.2653 48.7367 52.6645 48.0159 51.9945 47.219C51.3246 46.422 50.721 45.7006 50.6533 45.6158C50.5323 45.4646 50.5376 45.4508 50.9348 44.8829C51.7724 43.685 52.6766 42.0832 53.2476 40.7857L53.5401 40.1211L55.7704 40.4913C56.9971 40.6949 58.0134 40.8487 58.029 40.8332C58.0601 40.8021 59.1638 34.1501 59.1638 33.9939C59.1638 33.9118 58.3578 33.8998 53.8983 33.9149L48.6328 33.9327L48.5027 34.4896C47.6473 38.1501 45.8114 41.3692 43.0405 44.0671C37.9226 49.0501 30.4862 50.7772 23.6197 48.5776C17.5422 46.6308 12.6611 41.5747 10.9284 35.4314C10.7823 34.9134 10.6351 34.3643 10.6014 34.2111L10.54 33.9327L5.27009 33.9149C0.806782 33.8998 0.000139209 33.9118 0.000139209 33.9939ZM16.3854 34.1312C16.4459 34.4534 16.9198 35.654 17.2284 36.267C18.0813 37.9605 19.4022 39.5922 20.951 40.8655C24.3462 43.6566 29.2502 44.6168 33.5215 43.3268C37.1988 42.2162 40.2209 39.6884 41.9439 36.282C42.2281 35.72 42.8764 34.0837 42.8764 33.9282C42.8764 33.9116 42.3933 33.8979 41.8029 33.8979H40.7294L40.6453 34.1589C40.4997 34.6104 39.777 36.0134 39.4092 36.5584C38.3192 38.1737 37.1371 39.2815 35.4199 40.2967C32.8704 41.8041 29.5051 42.2408 26.5333 41.4498C23.5383 40.6526 20.8328 38.5515 19.3464 35.8684C19.0352 35.3066 18.6291 34.4291 18.4908 34.0197C18.454 33.9109 18.3374 33.8979 17.3956 33.8979H16.3416L16.3854 34.1312ZM15.4523 35.0348C15.3566 35.0764 14.9651 35.2554 14.5822 35.4326C14.1994 35.6099 13.6826 35.8437 13.4338 35.9522C13.1849 36.0608 12.9576 36.1694 12.9285 36.1937C12.8995 36.218 13.0514 36.6276 13.2659 37.1039C13.4806 37.5801 13.6841 38.0413 13.7182 38.1287C13.7786 38.2838 13.7854 38.2848 14.0071 38.172C14.132 38.1085 14.2436 38.0485 14.2551 38.0387C14.2666 38.0289 14.134 37.6982 13.9605 37.3039C13.7869 36.9096 13.6522 36.5809 13.6612 36.5735C13.7938 36.4634 14.2994 36.2679 14.3399 36.3111C14.3698 36.3429 14.4932 36.6038 14.614 36.8909C14.7349 37.1781 14.8616 37.441 14.8956 37.4752C14.9319 37.5118 15.0473 37.5002 15.1753 37.4472C15.4258 37.3435 15.4277 37.3614 15.0844 36.57L14.8394 36.0054L15.0786 35.8913C15.2101 35.8286 15.3332 35.7773 15.352 35.7773C15.3834 35.7773 15.7992 36.645 15.9438 37.0121C15.9991 37.1526 16.0245 37.16 16.1986 37.0859C16.5033 36.9564 16.5238 36.9155 16.4079 36.6688C16.3483 36.5422 16.155 36.1113 15.9783 35.7113C15.8016 35.3115 15.65 34.9786 15.6416 34.9718C15.6332 34.9649 15.548 34.9933 15.4523 35.0348ZM43.0757 36.0309L43.6199 36.5545C44.699 37.593 45.3984 38.2116 45.4542 38.1771C45.4855 38.1578 45.5482 38.0297 45.5934 37.8926C45.6724 37.6532 45.6656 37.6329 45.4221 37.3835L45.1684 37.1237L45.5532 36.1313L45.9349 36.1109C46.306 36.091 46.3194 36.0832 46.4162 35.8279C46.471 35.6835 46.5035 35.5545 46.4884 35.5414C46.4733 35.5282 45.7509 35.4979 44.8829 35.4742L43.3048 35.431L43.0757 36.0309ZM44.711 36.7657L44.8302 36.4629C44.8957 36.2964 44.9352 36.1366 44.918 36.1079C44.9007 36.0791 44.6771 36.0569 44.4209 36.0583L43.9552 36.061L44.711 36.7657ZM15.333 38.0104L14.068 38.8473L14.3447 39.2786C14.8048 39.9957 15.0623 40.267 15.3702 40.3593C16.2233 40.6148 17.4708 39.7107 17.4708 38.8369C17.4708 38.5645 17.4093 38.4149 17.0829 37.8935C16.8696 37.5526 16.6731 37.2512 16.6465 37.2237C16.6198 37.1961 16.0287 37.5501 15.333 38.0104ZM42.5597 37.4726C42.4429 37.5253 42.2705 37.66 42.1764 37.7719C41.9628 38.0257 41.3863 38.974 41.4232 39.0109C41.4979 39.0855 43.8751 40.58 43.9192 40.58C44.0363 40.58 44.6543 39.5413 44.7634 39.1611C45.0166 38.2781 43.4436 37.0728 42.5597 37.4726ZM15.6802 38.5409L14.8989 39.0679L15.019 39.2741C15.2724 39.7092 15.4404 39.8346 15.7113 39.7906C16.0667 39.7329 16.6867 39.3009 16.8224 39.0164C16.9319 38.7869 16.9293 38.7678 16.7393 38.3921C16.6314 38.179 16.5248 38.0067 16.5023 38.0092C16.4799 38.0117 16.11 38.251 15.6802 38.5409ZM42.6207 38.1716C42.5125 38.2634 42.3702 38.4308 42.3045 38.5437L42.185 38.7491L43.8134 39.8036L44.0049 39.4784C44.1103 39.2995 44.197 39.071 44.1977 38.9706C44.1998 38.6477 43.3643 38.0046 42.9428 38.0046C42.8739 38.0046 42.7289 38.0797 42.6207 38.1716ZM17.2761 40.0336C16.3462 40.9464 16.2103 41.1285 16.2056 41.4677C16.2011 41.7942 16.3372 42.0759 16.6479 42.3834C17.0721 42.803 17.571 42.8642 17.9718 42.5457C18.3997 42.2057 19.5589 41.0931 19.5589 41.0225C19.5589 40.9849 19.4719 40.8708 19.3656 40.769L19.1724 40.5837L18.3514 41.3475C17.7657 41.8927 17.4812 42.1114 17.3583 42.1114C17.116 42.1114 16.8444 41.8183 16.8444 41.557C16.8444 41.3772 16.9693 41.2224 17.6515 40.5578L18.4586 39.7713L18.2717 39.5493C18.1689 39.4271 18.0642 39.3278 18.0389 39.3285C18.0135 39.3293 17.6703 39.6466 17.2761 40.0336ZM40.4763 40.0219C40.3071 40.1985 40.2887 40.2529 40.3529 40.3873C41.289 42.3466 41.6036 42.9977 41.6509 43.0741C41.6953 43.1458 41.7539 43.1232 41.9096 42.9741C42.1469 42.7467 42.1541 42.6781 41.9769 42.3308L41.8431 42.0684L42.5711 41.2609L43.2936 41.5174L43.5164 41.2946C43.639 41.172 43.7253 41.0612 43.7081 41.0484C43.622 40.9842 40.8127 39.8107 40.7491 39.8124C40.7083 39.8135 40.5856 39.9078 40.4763 40.0219ZM41.1363 40.6207C41.1363 40.6388 41.2326 40.8445 41.3504 41.0778L41.5645 41.502L41.8029 41.2708C41.9341 41.1437 42.0179 41.0188 41.9891 40.9934C41.907 40.9207 41.1363 40.5839 41.1363 40.6207ZM39.5881 40.9612L39.3973 41.1292L39.7795 42.1128C39.9898 42.6539 40.1618 43.1248 40.1618 43.1593C40.1618 43.1939 39.7536 42.953 39.2546 42.624L38.3476 42.026L38.0714 42.2174C37.9195 42.3226 37.7953 42.4166 37.7953 42.4263C37.7953 42.4591 40.4326 44.1299 40.4844 44.1299C40.5732 44.1299 40.9961 43.8198 40.9966 43.7543C40.9969 43.7078 40.2819 41.7013 39.9709 40.8759C39.9221 40.7465 39.8017 40.7733 39.5881 40.9612ZM19.6834 41.7072C19.336 41.7996 18.8669 42.2256 18.6268 42.6667C18.4532 42.9857 18.4334 43.0841 18.4573 43.5077C18.4819 43.9433 18.5067 44.0106 18.7258 44.2387C19.043 44.5685 19.2808 44.6868 19.6273 44.6868C19.9258 44.6868 20.3447 44.5448 20.4238 44.4167C20.4495 44.3751 20.3963 44.232 20.3056 44.0985C20.1561 43.8786 20.1279 43.8647 20.0047 43.951C19.6892 44.172 19.2646 44.0875 19.101 43.7712C18.9584 43.4954 19.0078 43.2386 19.2796 42.8435C19.6874 42.2509 20.1366 42.0956 20.5111 42.4177C20.6691 42.5536 20.704 42.6388 20.6979 42.8729C20.6913 43.1253 20.7158 43.1742 20.8965 43.2677C21.1628 43.4053 21.2687 43.3595 21.3241 43.0824C21.4335 42.5353 21.0034 41.8845 20.4161 41.7086C20.0954 41.6124 20.0402 41.6124 19.6834 41.7072ZM37.482 42.5708C37.4055 42.6296 37.3013 42.7017 37.2505 42.7309C37.182 42.7704 37.368 43.1103 37.9713 44.0486C38.4185 44.7442 38.8202 45.3131 38.864 45.3129C38.9079 45.3127 39.0318 45.242 39.1395 45.1558L39.3352 44.9992L38.513 43.7316C38.0609 43.0344 37.6752 42.4639 37.656 42.4639C37.6369 42.4638 37.5586 42.5119 37.482 42.5708ZM21.4035 44.2133C20.7909 44.7931 20.28 45.2916 20.2679 45.3212C20.2559 45.3507 20.3655 45.4369 20.5115 45.5127L20.777 45.6505L21.2981 45.1467L22.2845 45.6239L22.2387 46.3896L22.5072 46.5168C22.6549 46.5867 22.7884 46.6312 22.804 46.6157C22.8352 46.5844 23.1084 43.8521 23.1086 43.5686C23.1088 43.4327 23.05 43.362 22.8628 43.2727C22.7275 43.2082 22.5944 43.1563 22.567 43.1573C22.5395 43.1584 22.016 43.6336 21.4035 44.2133ZM35.6743 43.568C35.2543 43.7557 34.9012 43.9377 34.8896 43.9724C34.8674 44.039 35.9603 46.5583 36.0556 46.6602C36.1228 46.7321 36.612 46.5655 36.612 46.4707C36.612 46.4336 36.514 46.1908 36.3944 45.9312C36.2747 45.6716 36.1955 45.4107 36.2182 45.3514C36.3012 45.1352 36.6828 45.2268 37.25 45.5992L37.7918 45.9549L38.1065 45.8255C38.2796 45.7543 38.4213 45.6735 38.4214 45.6459C38.4218 45.5763 37.4487 44.927 37.2498 44.8642L37.0873 44.8128L37.2352 44.6554C37.6856 44.176 37.2704 43.2239 36.612 43.2262C36.5163 43.2265 36.0943 43.3803 35.6743 43.568ZM23.6826 44.0293C23.6006 44.2965 23.6335 44.3277 24.1267 44.4516C24.2238 44.4759 24.3174 44.5328 24.3348 44.578C24.3521 44.6232 24.193 45.1647 23.9812 45.7813C23.7693 46.398 23.596 46.9158 23.596 46.9321C23.596 46.9696 24.1599 47.1404 24.1849 47.1104C24.1951 47.0982 24.3685 46.587 24.5703 45.9745C24.7721 45.3619 24.9493 44.8392 24.9641 44.8128C24.979 44.7864 25.1678 44.8257 25.3838 44.9C25.5998 44.9744 25.7825 45.0273 25.7896 45.0176C25.8599 44.9228 25.9412 44.5426 25.897 44.5153C25.802 44.4565 23.8955 43.7819 23.8246 43.7819C23.7882 43.7819 23.7244 43.8932 23.6826 44.0293ZM36.0008 44.0266L35.6331 44.1935L35.7434 44.4576C35.804 44.6028 35.8795 44.7476 35.9113 44.7794C35.943 44.8112 36.1528 44.7468 36.3775 44.6362C36.699 44.478 36.7905 44.3972 36.8072 44.2565C36.8308 44.0572 36.664 43.8493 36.4852 43.8555C36.4209 43.8577 36.2029 43.9347 36.0008 44.0266ZM22.0806 44.3635L21.7233 44.7345L22.003 44.8917C22.1568 44.9781 22.3019 45.0296 22.3254 45.0061C22.3714 44.96 22.494 44.0488 22.4589 44.0137C22.4473 44.0021 22.2771 44.1595 22.0806 44.3635ZM33.3796 44.4104C32.9701 44.5166 32.6179 44.6206 32.597 44.6415C32.5628 44.6757 33.3001 47.5233 33.3582 47.5815C33.3716 47.5948 33.4983 47.5701 33.6399 47.5267C33.9311 47.4373 33.9406 47.3946 33.793 46.8445C33.7365 46.634 33.6899 46.4272 33.6894 46.385C33.689 46.3429 33.8893 46.2541 34.1345 46.1877C34.6023 46.061 34.8122 45.8986 34.9384 45.5657C35.0738 45.2082 34.885 44.5923 34.5796 44.3953C34.2953 44.2119 34.1371 44.2139 33.3796 44.4104ZM26.1356 44.6419C26.1165 44.724 25.9619 45.3863 25.792 46.1137C25.6221 46.8411 25.5048 47.4572 25.5314 47.483C25.558 47.5087 25.6941 47.5508 25.8339 47.5764L26.0881 47.6232L26.2757 46.7988C26.3788 46.3454 26.5228 45.7274 26.5957 45.4255C26.7794 44.6641 26.7764 44.6463 26.4493 44.5633C26.1924 44.4981 26.1676 44.5043 26.1356 44.6419ZM26.8679 44.7677C26.8691 44.9744 27.4831 47.7662 27.5386 47.8167C27.5714 47.8466 27.7235 47.8866 27.8766 47.9057L28.1551 47.9403L28.7956 46.5745C29.1478 45.8234 29.4566 45.154 29.4817 45.087C29.5212 44.9813 29.4823 44.9654 29.1892 44.9665L28.8511 44.9678L28.4396 45.909C28.2133 46.4267 28.0056 46.8642 27.9781 46.8812C27.9504 46.8983 27.8392 46.4573 27.7308 45.9014C27.6225 45.3455 27.5169 44.8642 27.4964 44.832C27.4759 44.7998 27.3259 44.7512 27.1632 44.724C26.9378 44.6863 26.8675 44.6967 26.8679 44.7677ZM33.5842 44.9206C33.4311 44.9667 33.3086 45.0191 33.312 45.037C33.3155 45.0549 33.3581 45.2351 33.4066 45.4373C33.5039 45.8432 33.5191 45.8472 34.0366 45.6024C34.3494 45.4545 34.415 45.1127 34.1643 44.9371C33.9812 44.8089 33.9573 44.8082 33.5842 44.9206ZM29.5307 46.4426C29.2572 47.2935 29.0457 48.0021 29.0608 48.0172C29.0759 48.0322 29.2293 48.0235 29.4017 47.9976C29.7042 47.9522 29.7184 47.9391 29.8073 47.6238L29.8994 47.297L31.0227 47.2569L31.1433 47.5728C31.2638 47.8881 31.2645 47.8886 31.6052 47.8886H31.9465L31.8149 47.558C31.6628 47.176 30.8936 45.3706 30.762 45.087C30.6839 44.9185 30.6347 44.8956 30.3506 44.8956H30.028L29.5307 46.4426ZM30.0886 46.7053H30.4316C30.8203 46.7053 30.8185 46.7177 30.5284 46.0531L30.3805 45.7141L30.0886 46.7053Z" fill="#1C3761"/>
</svg>
