<svg width="70" height="68" viewBox="0 0 70 68" fill="none" xmlns="http://www.w3.org/2000/svg">
<path fill-rule="evenodd" clip-rule="evenodd" d="M39.1749 0.128689C34.3162 0.64115 29.9067 2.57041 26.0949 5.85154C25.6123 6.26709 25.4958 6.2856 25.228 5.98982C24.8955 5.62244 23.639 5.12861 22.6892 4.99197C21.8253 4.86775 21.7687 4.83939 21.0471 4.17107C19.875 3.08556 18.0294 2.34787 16.4856 2.34787C14.0676 2.34787 11.5056 3.95064 10.4649 6.11427C10.2322 6.59802 10.0077 7.17377 9.96596 7.39349C9.86928 7.90256 9.72326 8.08525 9.41073 8.08853C8.97748 8.09299 8.18987 8.52224 7.59666 9.07724C5.71592 10.8363 6.00174 13.9011 8.17662 15.2959C9.12057 15.9013 9.48174 15.9375 14.5733 15.9375C17.1719 15.9375 19.2981 15.9561 19.2981 15.9789C19.2981 16.0016 19.1415 16.6213 18.9501 17.3558C18.3343 19.7197 18.2 20.8089 18.2 23.4375C18.2 26.0543 18.335 27.1581 18.9381 29.4727C19.4778 31.5437 20.4205 33.7624 21.5334 35.5808L22.0079 36.3562L21.737 36.6478C21.588 36.8083 18.0119 40.2522 13.7903 44.3008C8.32006 49.5469 6.00631 51.8414 5.73795 52.2861C4.68678 54.0286 4.80526 56.3364 6.02858 57.9464C7.61119 60.0293 10.4986 60.5978 12.7168 59.2633C13.1656 58.9933 15.4084 56.7317 20.6437 51.2696C24.6593 47.0801 28.1054 43.5006 28.3017 43.3151L28.6587 42.9777L29.4034 43.448C33.3953 45.9692 38.9385 47.2526 43.7317 46.7654C46.3773 46.4966 49.1293 45.7738 51.0538 44.8424L51.8176 44.4727L56.9739 44.4141C62.0447 44.3564 62.1399 44.351 62.7268 44.0854C63.4747 43.7467 64.3227 42.8938 64.6717 42.1289C65.0774 41.2401 65.0542 39.8952 64.618 39.0068C64.2419 38.2412 63.4472 37.4598 62.715 37.1359C62.2885 36.9472 62.1552 36.8032 61.9092 36.266L61.6145 35.6222L62.3055 34.3053C66.5357 26.244 65.7153 16.5556 60.1824 9.23205C59.2416 7.98658 57.0146 5.75967 55.7692 4.81877C50.9848 1.20412 45.0042 -0.486194 39.1749 0.128689ZM39.2199 2.47361C34.0892 3.05427 29.1171 5.65631 25.7317 9.53217C21.8482 13.9783 19.9632 19.8891 20.595 25.6394C20.8747 28.1861 21.502 30.3423 22.6303 32.6367C24.7946 37.0375 27.9665 40.2096 32.3645 42.3713C34.7087 43.5236 36.8304 44.1322 39.5129 44.4222C40.7942 44.5607 44.0079 44.5106 44.2708 44.3482C44.3477 44.3006 44.1654 44.1476 43.8327 43.9803C43.1878 43.6558 42.5973 43.1291 42.2495 42.5684C42.0305 42.2152 41.9675 42.1875 41.383 42.1875C38.1955 42.1875 34.5808 41.1266 31.6614 39.3344C25.5272 35.5685 22.0329 28.2232 22.9824 21.0912C23.3135 18.6048 24.4114 15.2947 25.1853 14.4495C25.6842 13.9047 26.6475 14.0173 26.9794 14.6591C27.229 15.1417 27.1902 15.5124 26.8114 16.2632C26.3146 17.2484 25.7799 18.8359 25.4881 20.1928C25.1205 21.902 25.1205 24.973 25.4881 26.6822C25.967 28.9091 26.7537 30.7658 28.0495 32.7274C28.7765 33.8282 31.185 36.2318 32.3059 36.9755C34.2041 38.2349 36.3885 39.1404 38.4882 39.5385C39.8381 39.7944 41.6809 39.9155 41.6809 39.7483C41.6809 39.6768 41.7868 39.3352 41.9162 38.9892C42.3442 37.8453 43.3837 36.9233 44.5916 36.6167C45.0977 36.4882 45.1221 36.4614 45.275 35.8636C45.5113 34.9405 46.2007 33.7169 46.8868 33.0027C49.0107 30.7923 52.1839 30.2579 54.9362 31.6472L55.606 31.9854L56.1317 30.9634C56.7894 29.6849 57.2879 28.2747 57.6374 26.7048C58.0277 24.951 58.0277 21.924 57.6374 20.1702C56.8776 16.757 55.5542 14.3372 53.1095 11.8908C50.6579 9.43771 48.2655 8.12931 44.831 7.36326C43.1307 6.98404 40.0843 6.98369 38.319 7.36256C36.9632 7.65342 35.3756 8.18779 34.3894 8.68525C34.0206 8.87123 33.5829 9.02345 33.4167 9.02345C32.6638 9.02345 32.0876 8.34447 32.2424 7.6397C32.3783 7.02084 32.9202 6.6742 34.9159 5.92935C41.9068 3.32064 49.5574 4.96595 54.7964 10.2048C60.3547 15.7631 61.8507 24.136 58.5718 31.335C58.3694 31.7793 58.0417 32.4065 57.8434 32.7287C57.4416 33.3817 57.4958 33.5106 58.1737 33.5139C58.3826 33.5148 58.8289 33.6203 59.1657 33.7483C59.5025 33.8762 59.8166 33.9422 59.8637 33.8947C60.0429 33.7146 61.028 31.6265 61.365 30.7123C62.9808 26.3302 63.06 21.3515 61.5862 16.8191C61.1124 15.3622 60.0102 13.1189 59.0953 11.7498C55.1442 5.83689 48.4171 2.27416 41.3632 2.359C40.6678 2.36732 39.7033 2.41888 39.2199 2.47361ZM15.5033 4.81056C13.7375 5.25353 12.4486 6.67361 12.1449 8.51029C12.0717 8.95361 11.9886 9.43666 11.9604 9.58373C11.8835 9.98334 11.2561 10.3116 10.5676 10.3123C9.88182 10.313 9.27713 10.5876 8.9353 11.0535C8.58866 11.526 8.60623 12.3594 8.97373 12.8746C9.48491 13.5913 9.50612 13.5938 15.1635 13.5932L20.2942 13.5927L20.7917 12.6184C21.3837 11.4595 22.4419 9.84025 23.2887 8.7981C24.0007 7.92166 23.9806 7.78326 23.0967 7.4747C22.6598 7.32213 22.3159 7.29072 21.6723 7.34427L20.824 7.41494L20.5004 7.02658C19.569 5.90838 18.8551 5.29994 18.1767 5.04611C17.384 4.74951 16.172 4.64275 15.5033 4.81056ZM28.5688 10.0074C27.5283 10.584 27.9933 12.1875 29.2009 12.1875C29.6164 12.1875 30.3137 11.5007 30.3137 11.0915C30.3137 10.1489 29.3706 9.56287 28.5688 10.0074ZM35.1313 22.4292C34.1154 22.9923 34.5404 24.6094 35.7043 24.6094C36.2981 24.6094 36.8762 24.0369 36.8762 23.4489C36.8762 22.569 35.9039 22.0009 35.1313 22.4292ZM40.9906 22.4292C39.9747 22.9923 40.3998 24.6094 41.5637 24.6094C42.1575 24.6094 42.7356 24.0369 42.7356 23.4489C42.7356 22.569 41.7633 22.0009 40.9906 22.4292ZM46.85 22.4292C45.8341 22.9923 46.2592 24.6094 47.4231 24.6094C48.0169 24.6094 48.5949 24.0369 48.5949 23.4489C48.5949 22.569 47.6226 22.0009 46.85 22.4292ZM50.7071 33.3453C49.8326 33.5895 49.2185 33.9703 48.5533 34.6815C47.8658 35.4165 47.5806 36.0376 47.4241 37.1411C47.2324 38.4931 46.9588 38.7891 45.901 38.7891C45.1152 38.7891 44.5239 39.0741 44.2138 39.6022C43.755 40.3834 44.0591 41.4666 44.8489 41.865C45.224 42.0543 45.8784 42.07 53.3996 42.0697C61.271 42.0695 61.5567 42.0618 61.9193 41.8406C62.3439 41.5819 62.6574 41.0571 62.6574 40.6055C62.6574 39.8701 61.9178 39.1419 61.1699 39.1411C60.5893 39.1404 60.2269 38.7365 59.9716 37.8059C59.5854 36.3978 58.4987 35.6458 57.1466 35.851C56.3365 35.9739 55.9217 35.8147 55.5162 35.2253C54.4174 33.6283 52.4492 32.8588 50.7071 33.3453ZM21.9418 39.7392L20.4587 41.1914L22.1414 42.8671L23.8242 44.5426L25.2696 43.0574L26.715 41.572L25.8812 40.8187C25.4226 40.4043 24.6824 39.6651 24.2362 39.1762L23.4251 38.287L21.9418 39.7392ZM13.3799 47.9378C10.3974 50.7938 7.85858 53.3192 7.69651 53.5909C7.45791 53.991 7.40354 54.2358 7.40354 54.9115C7.40354 55.6303 7.45088 55.8176 7.75815 56.3147C7.97799 56.6703 8.33096 57.0232 8.68651 57.2431C9.18362 57.5503 9.37088 57.5977 10.0897 57.5977C10.7651 57.5977 11.0107 57.5433 11.4115 57.3047C11.6845 57.1423 14.0005 54.819 16.61 52.0899C19.1985 49.3828 21.5206 46.9558 21.7705 46.6963L22.2248 46.2246L20.4976 44.5002L18.7703 42.7758L13.3799 47.9378Z" fill="#ccd2db"/>
<ellipse opacity="0.15" cx="35" cy="60" rx="35" ry="8" fill="#c6c8cc"/>
</svg>
