<svg width="18" height="18" viewBox="0 0 18 18" fill="none" xmlns="http://www.w3.org/2000/svg">
<g clip-path="url(#clip0_73_20929)">
<path d="M15.6686 15.9387H2.33176C2.14975 15.9387 1.9752 15.8664 1.84651 15.7377C1.71781 15.609 1.64551 15.4344 1.64551 15.2524V5.91068C1.64551 4.88834 2.44004 4.06006 3.4202 4.06006H14.5816C15.5618 4.06006 16.3563 4.88834 16.3563 5.91068V15.2524C16.3563 15.6321 16.0483 15.9387 15.6686 15.9387Z" fill="#FAFAFA" stroke="#BECCD7" stroke-width="3" stroke-miterlimit="10"/>
<path d="M15.7653 0.5625H15.0903C14.9496 0.5625 14.8357 0.676407 14.8357 0.817032V1.39219C14.8357 1.48641 14.8892 1.56797 14.9693 1.61719C15.252 1.78594 15.4249 2.11922 15.3504 2.48484C15.2871 2.79422 15.0396 3.04453 14.7303 3.10922C14.6114 3.13533 14.4882 3.13446 14.3698 3.10668C14.2513 3.07889 14.1406 3.0249 14.0457 2.94867C13.9509 2.87245 13.8743 2.77592 13.8217 2.66621C13.7691 2.55649 13.7417 2.43637 13.7417 2.31469C13.7417 2.01656 13.902 1.75641 14.1424 1.61578C14.2226 1.56797 14.2746 1.48641 14.2746 1.39359V0.817032C14.2746 0.676407 14.1607 0.5625 14.0201 0.5625H3.97525C3.83744 0.5625 3.72635 0.673594 3.72635 0.811407V1.39641C3.72635 1.48781 3.77838 1.56797 3.85713 1.61438C4.00414 1.70071 4.1203 1.83107 4.18919 1.98701C4.25808 2.14296 4.27622 2.31662 4.24104 2.48344C4.17775 2.79281 3.93025 3.04313 3.62088 3.10781C3.50203 3.13392 3.37884 3.13305 3.26037 3.10527C3.14191 3.07749 3.03118 3.02349 2.93633 2.94727C2.84148 2.87104 2.76494 2.77452 2.71232 2.6648C2.6597 2.55508 2.63235 2.43496 2.63229 2.31328C2.63229 2.01375 2.79541 1.75359 3.03588 1.61156C3.11322 1.56656 3.16385 1.485 3.16385 1.395V0.811407C3.16385 0.673594 3.05275 0.5625 2.91494 0.5625H2.23291C2.01846 0.5625 1.81279 0.647691 1.66115 0.799332C1.50951 0.950973 1.42432 1.15664 1.42432 1.37109V6.64734H16.5513L16.5738 1.37531C16.5745 1.26875 16.5541 1.1631 16.5137 1.06447C16.4734 0.965839 16.4139 0.876165 16.3387 0.800614C16.2636 0.725063 16.1742 0.665128 16.0758 0.624262C15.9774 0.583396 15.8718 0.562406 15.7653 0.5625Z" fill="#F44336"/>
<path d="M6.34064 2.17428H6.92002V4.12053C6.92002 4.29912 6.88064 4.45803 6.80189 4.59443C6.72314 4.73084 6.61064 4.83772 6.46721 4.91225C6.32236 4.98678 6.16064 5.02475 5.97924 5.02475C5.68252 5.02475 5.45049 4.94881 5.28455 4.79834C5.11861 4.64787 5.03564 4.43271 5.03564 4.15709H5.61924C5.61924 4.2949 5.64877 4.39615 5.70643 4.46225C5.76408 4.52834 5.85549 4.56068 5.98064 4.56068C6.09174 4.56068 6.17893 4.52271 6.24502 4.44678C6.31111 4.37084 6.34346 4.26256 6.34346 4.12193V2.17428H6.34064ZM8.63002 4.77303C8.49221 4.94037 8.30236 5.02334 8.05908 5.02334C7.83549 5.02334 7.66393 4.95865 7.54721 4.83068C7.42908 4.70271 7.36861 4.51287 7.36721 4.26537V2.89709H7.92549V4.2485C7.92549 4.46646 8.02393 4.57475 8.22221 4.57475C8.41205 4.57475 8.54143 4.50865 8.61174 4.37787V2.89709H9.17143V4.98537H8.64689L8.63002 4.77303ZM10.1797 4.98537H9.62002V2.021H10.1797V4.98537ZM11.4186 4.19506L11.8053 2.89568H12.4044L11.5649 5.30881L11.5185 5.4185C11.3933 5.69131 11.188 5.82771 10.9011 5.82771C10.8196 5.82771 10.738 5.81506 10.6536 5.79115V5.36787L10.738 5.36928C10.8435 5.36928 10.9222 5.35381 10.9742 5.32147C11.0263 5.28912 11.0671 5.23568 11.0966 5.16115L11.1627 4.98959L10.4314 2.89568H11.0319L11.4186 4.19506Z" fill="white"/>
<path d="M7.48402 14.3871H6.27887V9.73949L4.83887 10.1853V9.20512L7.35465 8.30371H7.48402V14.3871ZM13.1611 8.98574L10.8126 14.3871H9.53996L11.8926 9.28527H8.87199V8.31355H13.1611V8.98574Z" fill="black"/>
</g>
<defs>
<clipPath id="clip0_73_20929">
<rect width="18" height="18" fill="white"/>
</clipPath>
</defs>
</svg>
