<svg width="60" height="60" viewBox="0 0 60 60" fill="none" xmlns="http://www.w3.org/2000/svg">
<g clip-path="url(#clip0_752_2918)">
<path fill-rule="evenodd" clip-rule="evenodd" d="M26.5377 1.2252L26.25 1.51277V5.31809V9.1234L25.6065 9.41801C23.9996 10.1537 22.4965 11.4552 21.4545 13.0131C18.6956 17.1375 19.249 22.5954 22.7791 26.0773C23.78 27.0646 24.2127 27.2831 24.7364 27.0662C24.9352 26.9839 25.1461 26.7895 25.2052 26.6343C25.2642 26.479 25.3125 25.1695 25.3125 23.7244V21.0969L26.8754 19.9234L28.4382 18.75H30.0161H31.594L33.1352 19.8926L34.6765 21.0352L34.682 23.8236L34.6875 26.6122L34.9752 26.8998C35.4187 27.3435 35.8139 27.2745 36.6356 26.6095C39.3424 24.4194 40.7646 20.5358 40.1493 17.0147C39.5694 13.697 37.3546 10.7736 34.3935 9.41801L33.75 9.1234V5.31809V1.51277L33.4623 1.2252L33.1747 0.9375H30H26.8253L26.5377 1.2252ZM28.125 6.4323C28.125 9.70594 28.1054 10.0763 27.9199 10.3036C27.8071 10.4418 27.2933 10.7378 26.778 10.9613C25.5308 11.5023 24.7624 12.0484 23.8031 13.0757C22.9158 14.0257 22.3069 15.0891 21.8955 16.4062C21.5025 17.6651 21.5017 19.8301 21.8939 21.0938C22.1643 21.9649 22.788 23.2294 23.2155 23.7728C23.4359 24.053 23.4375 24.0415 23.4375 22.1866C23.4375 20.8737 23.4811 20.2604 23.584 20.1239C23.6646 20.0169 24.6491 19.2422 25.7719 18.4022L27.8133 16.875H30H32.1867L34.2281 18.4022C35.3509 19.2422 36.3355 20.0169 36.416 20.1239C36.519 20.2605 36.5626 20.877 36.5629 22.2001L36.5632 24.082L37.0328 23.3789C39.1566 20.1984 38.8054 15.8687 36.1969 13.0757C35.2376 12.0484 34.4692 11.5023 33.222 10.9613C32.7067 10.7378 32.1928 10.4418 32.0801 10.3036C31.8946 10.0763 31.875 9.70594 31.875 6.4323V2.8125H30H28.125V6.4323ZM16.2252 29.3502L15.9375 29.6378V32.8874V36.1369L14.84 35.0606C13.9718 34.2093 13.6723 33.9844 13.4066 33.9844C13.1222 33.9844 12.5174 34.5376 9.465 37.59C6.39949 40.6555 5.85938 41.2464 5.85938 41.5342C5.85938 41.809 6.1152 42.1318 7.21582 43.2462L8.57215 44.6195L7.97215 45.6749C6.93809 47.4936 5.88363 50.121 5.50359 51.8262L5.35336 52.5H3.43301C1.55051 52.5 1.50715 52.5056 1.2252 52.7877L0.9375 53.0753V55.7812V58.4872L1.2252 58.7748L1.51277 59.0625H6.09375H10.6747L10.9431 58.7941C11.1809 58.5564 11.2204 58.3696 11.2897 57.1556C11.4825 53.781 12.5794 50.4763 14.4148 47.7404C14.799 47.1677 15.2968 46.4883 15.521 46.2305L15.9287 45.7617L15.933 49.5996L15.9375 53.4375H15.2877C14.7539 53.4375 14.5863 53.4889 14.3502 53.7252C14.0648 54.0104 14.0625 54.0309 14.0625 56.25C14.0625 58.4691 14.0648 58.4896 14.3502 58.7748L14.6378 59.0625H30H45.3622L45.6498 58.7748C45.9352 58.4896 45.9375 58.4691 45.9375 56.25C45.9375 54.0309 45.9352 54.0104 45.6498 53.7252C45.4137 53.4889 45.2461 53.4375 44.7123 53.4375H44.0625V49.9752V46.5128L43.7748 46.2252L43.4872 45.9375H40.3125H37.1378L36.8502 46.2252L36.5625 46.5128V49.9752V53.4375H35.1562H33.75V46.5905V39.7434L34.7779 40.0186C38.0494 40.8941 40.7012 42.4446 43.1865 44.9352C45.2775 47.0305 46.4923 48.8857 47.5243 51.5593C48.2345 53.3991 48.7421 55.9679 48.7477 57.7494C48.7496 58.3747 48.7938 58.5311 49.0377 58.7748L49.3253 59.0625H53.9062H58.4872L58.7748 58.7748L59.0625 58.4872V55.7812V53.0753L58.7748 52.7877C58.4929 52.5056 58.4495 52.5 56.567 52.5H54.6466L54.4964 51.8262C54.1164 50.121 53.0619 47.4936 52.0279 45.6749L51.4279 44.6195L52.7842 43.2462C53.8848 42.1318 54.1406 41.809 54.1406 41.5342C54.1406 41.2464 53.6005 40.6555 50.535 37.59C47.4695 34.5245 46.8786 33.9844 46.5908 33.9844C46.316 33.9844 45.9932 34.2402 44.8788 35.3408L43.5055 36.6971L42.4501 36.0971C40.6314 35.0631 38.004 34.0086 36.2988 33.6286L35.625 33.4784V31.558C35.625 29.6755 35.6194 29.6321 35.3373 29.3502L35.0497 29.0625H30H24.9503L24.6627 29.3502C24.3806 29.6321 24.375 29.6753 24.375 31.5621V33.4863L24.0088 33.5596C23.8073 33.5999 23.5964 33.6328 23.54 33.6328C23.4837 33.6328 23.4375 32.734 23.4375 31.6353C23.4375 29.6707 23.4328 29.6331 23.1498 29.3502L22.8622 29.0625H19.6875H16.5128L16.2252 29.3502ZM17.8125 42.1875V53.4375H19.6875H21.5625V42.1875V30.9375H19.6875H17.8125V42.1875ZM26.25 32.7318C26.25 34.3622 26.2287 34.549 26.0164 34.7769C25.8172 34.9905 25.1323 35.2706 24.8032 35.2727C24.7487 35.2731 24.4191 35.3563 24.0708 35.4575L23.4375 35.6416V37.1107C23.4375 38.4009 23.46 38.5711 23.6225 38.5088C23.7913 38.4441 25.1415 38.0994 25.9277 37.9205L26.25 37.8471V36.5549C26.25 35.3393 26.267 35.2458 26.5377 34.9752L26.8253 34.6875H30H33.1747L33.4623 34.9752C33.733 35.2458 33.75 35.3393 33.75 36.5549V37.8471L34.0723 37.9185C41.1763 39.4918 46.8006 44.3006 49.2762 50.918C49.9757 52.7877 50.2439 53.9769 50.578 56.6895L50.6394 57.1875H53.9134H57.1875V55.7812V54.375H55.3932C53.7527 54.375 53.5771 54.3546 53.3439 54.1373C53.2036 54.0067 53.0548 53.7562 53.0133 53.5807C52.2478 50.3473 51.497 48.4461 49.9678 45.8687C49.5894 45.231 49.3359 44.666 49.3359 44.4604C49.3359 44.1802 49.5627 43.8909 50.5664 42.8906C51.2432 42.2162 51.7969 41.6102 51.7969 41.544C51.7969 41.3883 46.7348 36.3281 46.579 36.3281C46.5139 36.3281 45.9088 36.8818 45.2344 37.5586C43.7706 39.0273 43.7046 39.0442 42.4528 38.2651C40.1175 36.8118 37.7675 35.8748 34.5443 35.1117C34.3688 35.0702 34.1183 34.9214 33.9877 34.7811C33.7704 34.5479 33.75 34.3723 33.75 32.7318V30.9375H30H26.25V32.7318ZM10.7509 38.8779C9.34969 40.2803 8.20312 41.481 8.20312 41.546C8.20312 41.6111 8.75684 42.2162 9.43359 42.8906C10.4373 43.8909 10.6641 44.1802 10.6641 44.4604C10.6641 44.666 10.4106 45.231 10.0322 45.8687C8.50301 48.4461 7.75219 50.3473 6.98672 53.5807C6.94523 53.7562 6.79641 54.0067 6.65613 54.1373C6.42293 54.3546 6.24727 54.375 4.60676 54.375H2.8125V55.7812V57.1875H6.0866H9.36059L9.42199 56.6895C9.65836 54.77 9.77742 54.0612 10.0369 53.0284C10.8568 49.7639 12.5739 46.635 14.9359 44.1014L15.9375 43.0269V40.8807V38.7345L14.7384 37.5313C14.0789 36.8695 13.4852 36.3281 13.419 36.3281C13.3529 36.3281 12.1522 37.4755 10.7509 38.8779ZM28.125 45V53.4375H30H31.875V45V36.5625H30H28.125V45ZM25.957 39.806C25.8281 39.8348 25.2086 40.0148 24.5801 40.2061L23.4375 40.5537V46.9956V53.4375H24.8438H26.25V46.582C26.25 42.8115 26.2368 39.7327 26.2207 39.7402C26.2046 39.7477 26.0859 39.7773 25.957 39.806ZM38.4375 50.625V53.4375H40.3125H42.1875V50.625V47.8125H40.3125H38.4375V50.625ZM15.9375 56.25V57.1875H30H44.0625V56.25V55.3125H30H15.9375V56.25Z" fill="#0F8BFF"/>
</g>
<defs>
<clipPath id="clip0_752_2918">
<rect width="60" height="60" fill="white"/>
</clipPath>
</defs>
</svg>
