<svg width="21" height="22" viewBox="0 0 21 22" fill="none" xmlns="http://www.w3.org/2000/svg">
<path d="M10.5 13.625C12.3122 13.625 13.7812 12.1559 13.7812 10.3438C13.7812 8.53157 12.3122 7.0625 10.5 7.0625C8.68782 7.0625 7.21875 8.53157 7.21875 10.3438C7.21875 12.1559 8.68782 13.625 10.5 13.625Z" stroke="white" stroke-width="1.4" stroke-miterlimit="10"/>
<path d="M5.2334 16.8549C5.72773 15.883 6.48136 15.0669 7.41086 14.4968C8.34036 13.9267 9.40948 13.625 10.4999 13.625C11.5903 13.625 12.6594 13.9267 13.5889 14.4968C14.5184 15.0668 15.272 15.883 15.7664 16.8549" stroke="white" stroke-width="1.4" stroke-linecap="round" stroke-linejoin="round"/>
<path d="M16.4062 6.40625C17.1311 6.40625 17.7188 5.81862 17.7188 5.09375C17.7188 4.36888 17.1311 3.78125 16.4062 3.78125C15.6814 3.78125 15.0938 4.36888 15.0938 5.09375C15.0938 5.81862 15.6814 6.40625 16.4062 6.40625Z" stroke="white" stroke-width="1.4" stroke-linecap="round" stroke-linejoin="round"/>
<path d="M16.4062 3.78125V2.79688" stroke="white" stroke-width="1.4" stroke-linecap="round" stroke-linejoin="round"/>
<path d="M15.2695 4.4375L14.417 3.94531" stroke="white" stroke-width="1.4" stroke-linecap="round" stroke-linejoin="round"/>
<path d="M15.2695 5.75L14.417 6.24219" stroke="white" stroke-width="1.4" stroke-linecap="round" stroke-linejoin="round"/>
<path d="M16.4062 6.40625V7.39062" stroke="white" stroke-width="1.4" stroke-linecap="round" stroke-linejoin="round"/>
<path d="M17.542 5.75L18.3945 6.24219" stroke="white" stroke-width="1.4" stroke-linecap="round" stroke-linejoin="round"/>
<path d="M17.542 4.4375L18.3945 3.94531" stroke="white" stroke-width="1.4" stroke-linecap="round" stroke-linejoin="round"/>
<path d="M18.3191 10.0566C18.3564 10.3697 18.3751 10.6847 18.375 11C18.375 12.5575 17.9131 14.0801 17.0478 15.3751C16.1825 16.6702 14.9526 17.6795 13.5136 18.2756C12.0747 18.8716 10.4913 19.0275 8.96367 18.7237C7.43607 18.4198 6.03288 17.6698 4.93154 16.5685C3.8302 15.4671 3.08018 14.0639 2.77632 12.5363C2.47246 11.0087 2.62841 9.42534 3.22445 7.98637C3.82049 6.5474 4.82985 5.31749 6.12489 4.45218C7.41993 3.58686 8.94248 3.125 10.5 3.125C10.7464 3.125 10.99 3.13615 11.2308 3.15846" stroke="white" stroke-width="1.4" stroke-linecap="round" stroke-linejoin="round"/>
</svg>
