<svg width="22" height="22" viewBox="0 0 22 22" fill="none" xmlns="http://www.w3.org/2000/svg">
<path d="M19.25 15.2325V6.75537C19.25 6.63338 19.2175 6.51359 19.156 6.40829C19.0944 6.30299 19.0059 6.21597 18.8996 6.15616L11.3371 1.90226C11.2341 1.84437 11.1181 1.81396 11 1.81396C10.8819 1.81396 10.7659 1.84437 10.6629 1.90226L3.10045 6.15616C2.99412 6.21597 2.90563 6.30299 2.84404 6.40829C2.78246 6.51359 2.75 6.63338 2.75 6.75537V15.2325C2.75 15.3544 2.78246 15.4742 2.84404 15.5795C2.90563 15.6848 2.99412 15.7719 3.10045 15.8317L10.6629 20.0856C10.7659 20.1435 10.8819 20.1739 11 20.1739C11.1181 20.1739 11.2341 20.1435 11.3371 20.0856L18.8996 15.8317C19.0059 15.7719 19.0944 15.6848 19.156 15.5795C19.2175 15.4742 19.25 15.3544 19.25 15.2325Z" stroke="currentColor" stroke-width="1.4" stroke-linecap="round" stroke-linejoin="round"/>
<path d="M15.2128 8.62985L6.875 4.03125" stroke="currentColor" stroke-width="1.4" stroke-linecap="round" stroke-linejoin="round"/>
<path d="M19.1537 6.40809L11.0801 10.9948L2.84375 6.40723" stroke="currentColor" stroke-width="1.4" stroke-linecap="round" stroke-linejoin="round"/>
<path d="M11.0807 10.9922L11 20.1721" stroke="currentColor" stroke-width="1.4" stroke-linecap="round" stroke-linejoin="round"/>
</svg>
