<svg width="60" height="60" viewBox="0 0 60 60" fill="none" xmlns="http://www.w3.org/2000/svg">
<path fill-rule="evenodd" clip-rule="evenodd" d="M20.1476 4.07227C19.7318 4.28309 19.3902 4.57008 19.1597 4.90219C18.8197 5.39215 18.8062 5.46199 18.7691 6.90984L18.7308 8.40984L17.3043 8.4607C15.4317 8.52738 14.83 8.82035 14.2215 9.96094C14.0324 10.3155 13.9976 10.6999 13.965 12.7965L13.9273 15.222L10.3322 15.2575C6.92756 15.2911 6.70783 15.3064 6.18494 15.5481C5.41537 15.9036 4.86412 16.3658 4.39291 17.0508C3.58642 18.2228 3.62427 17.2785 3.65896 35.4013L3.69025 51.7383L3.94127 52.3499C4.4672 53.6311 5.50349 54.6524 6.79572 55.1628C7.2899 55.358 8.27228 55.3731 22.4179 55.4025L37.5126 55.434L37.8573 55.0893C38.2759 54.6705 38.2919 54.3755 37.9192 53.9421L37.6364 53.6133L22.5969 53.5547C8.20994 53.4987 7.53963 53.4866 7.14728 53.2777C6.57318 52.9719 6.11416 52.5211 5.81814 51.9727L5.56525 51.5039L5.53431 35.3505C5.51345 24.4385 5.54299 19.0504 5.62525 18.7446C5.78029 18.1691 6.23158 17.6316 6.8058 17.3386C7.23072 17.1218 7.52322 17.1094 12.1863 17.1094C16.8631 17.1094 17.1409 17.1213 17.5705 17.3405C17.8197 17.4676 18.1391 17.718 18.2803 17.8971C18.5515 18.2412 21.5613 23.2651 21.5613 23.3739C21.5613 23.4089 20.0715 23.4383 18.2508 23.4393C14.6685 23.4411 14.4826 23.4698 14.1973 24.0649C14.0132 24.4487 14.1817 25.0089 14.5384 25.1998C14.7707 25.3241 32.3095 25.3628 32.6303 25.2397C32.9107 25.1321 33.179 24.5386 33.0962 24.2088C33.0569 24.0519 32.9185 23.8274 32.7886 23.7098C32.5717 23.5133 32.1982 23.4914 28.151 23.4375L23.7492 23.3789L21.8909 20.2148C20.3815 17.6449 19.9028 16.9264 19.3418 16.389C18.5196 15.6013 17.6462 15.2279 16.5547 15.1977L15.8192 15.1772V12.9878V10.7982L16.1279 10.5554C16.4278 10.3195 16.5629 10.3125 20.8207 10.3125H25.2048L25.4924 10.0248C25.8795 9.63785 25.8603 9.20273 25.4376 8.78004L25.095 8.4375H22.7898H20.4847L20.5249 7.2777C20.5576 6.33879 20.6078 6.0709 20.7885 5.87145L21.0117 5.625H33.3387C45.132 5.625 45.6741 5.63426 45.8596 5.83934C46.0364 6.03469 46.0535 6.82207 46.0535 14.7456V23.4375H44.6473H43.241L43.238 19.3652C43.2353 15.7607 43.2117 15.2432 43.0329 14.8589C42.8189 14.3992 38.7938 9.61019 38.1356 9.03234C37.4984 8.47277 36.9401 8.41723 32.3751 8.45859C28.2869 8.49574 28.2448 8.49855 27.9864 8.75719C27.6251 9.11859 27.6301 9.79676 27.9962 10.0932C28.2496 10.2984 28.5389 10.3125 32.509 10.3125C35.7272 10.3125 36.7949 10.3479 36.9332 10.459C37.0335 10.5396 38.0719 11.7266 39.2407 13.097L41.366 15.5884V19.513V23.4375H38.6063C36.4135 23.4375 35.7785 23.4728 35.5151 23.6089C34.9736 23.8889 34.8734 24.4857 35.2808 25.0037L35.5236 25.3125H41.7914C46.2208 25.3125 48.2203 25.353 48.6086 25.4509C49.0116 25.5523 49.3165 25.7477 49.7526 26.1838C50.5097 26.9409 50.6238 27.3773 50.6238 29.516C50.6238 31.1469 50.6254 31.1561 50.9326 31.3977C51.4506 31.8052 52.0474 31.705 52.3274 31.1634C52.5321 30.7676 52.5665 28.2792 52.3807 27.3C52.2134 26.4171 51.7791 25.5335 51.2083 24.9143C50.6797 24.3409 49.5728 23.7198 48.8823 23.6094C48.6478 23.5719 48.3382 23.5171 48.1943 23.4877L47.9328 23.4341L47.9013 14.4224L47.8699 5.41066L47.5177 4.90266C47.2869 4.56984 46.946 4.28332 46.5298 4.07227L45.8943 3.75H33.3387H20.7831L20.1476 4.07227ZM35.7779 11.2482C35.3245 11.4354 35.2723 11.7263 35.2723 14.0602C35.2723 17.0511 35.1109 16.875 37.8504 16.875C39.8207 16.875 39.8579 16.8703 40.1408 16.5873C40.5441 16.1841 40.5345 15.5691 40.1197 15.2429C39.8488 15.0298 39.649 15 38.488 15H37.165L37.1269 13.3623C37.093 11.9087 37.0623 11.6987 36.8543 11.4947C36.565 11.2109 36.117 11.1083 35.7779 11.2482ZM43.6512 30.9792C42.8865 31.3366 35.1587 35.6518 34.376 36.1586C33.9144 36.4574 33.6969 36.7038 33.4505 37.2075C33.1457 37.8306 33.1321 37.9275 33.1982 39.0118C33.4261 42.7539 35.0242 46.9241 37.5137 50.2734C39.295 52.67 42.7954 55.8033 44.0732 56.145C45.2355 56.4559 46.1308 56.0331 48.3596 54.1203C50.5507 52.24 53.202 48.9354 53.202 48.0846C53.202 47.5653 52.8529 47.2266 52.3178 47.2266C51.8146 47.2266 51.6523 47.3838 50.6238 48.867C49.3969 50.6366 46.3829 53.5972 45.1531 54.2411C44.588 54.5368 44.3077 54.3778 42.1996 52.5664C38.1927 49.1234 35.404 43.8414 35.0803 39.082C35.0165 38.143 35.0326 38.0067 35.2283 37.839C35.5839 37.5342 44.52 32.5781 44.714 32.5781C44.9585 32.5781 45.2381 32.7271 49.9984 35.3943C52.3083 36.6884 54.2673 37.8366 54.3519 37.9458C54.6426 38.321 54.1893 41.3026 53.5535 43.1986C53.1375 44.4388 53.1319 44.5279 53.4449 44.9256C53.7879 45.3616 54.491 45.3618 54.8339 44.9258C55.5102 44.066 56.5519 39.0956 56.3002 37.929C56.1831 37.3864 55.8478 36.7814 55.4686 36.4282C55.1024 36.0872 46.2431 31.0966 45.5848 30.8605C44.9595 30.6362 44.2983 30.6768 43.6512 30.9792ZM47.8184 41.6023L44.7707 44.1812L44.2695 43.6254C42.7817 41.9752 42.5012 41.7188 42.1844 41.7188C41.6923 41.7188 41.2488 42.1316 41.2488 42.5897C41.2488 43.0181 41.4022 43.2308 43.0653 45.1077C44.1161 46.2936 44.4104 46.4938 44.911 46.3625C45.1649 46.296 51.7019 40.8543 52.0008 40.4606C52.2399 40.1459 52.1782 39.5621 51.8761 39.2782C51.2793 38.7176 51.1192 38.8092 47.8184 41.6023Z" fill="#0F8BFF"/>
</svg>
