<svg width="226" height="200" viewBox="0 0 226 200" fill="none" xmlns="http://www.w3.org/2000/svg">
<path d="M221.06 184.395H203.28V184.529H221.06V184.395Z" fill="#EBEBEB"/>
<path d="M157.35 185.854H152.685V185.988H157.35V185.854Z" fill="#EBEBEB"/>
<path d="M202.742 179.412H192.44V179.546H202.742V179.412Z" fill="#EBEBEB"/>
<path d="M30.8905 180.314H7.70508V180.449H30.8905V180.314Z" fill="#EBEBEB"/>
<path d="M39.071 180.314H35.6729V180.449H39.071V180.314Z" fill="#EBEBEB"/>
<path d="M100.409 182.58H50.1191V182.714H100.409V182.58Z" fill="#EBEBEB"/>
<path d="M106.77 151.814H3.11459C2.30256 151.813 1.52428 151.489 0.950586 150.914C0.376897 150.34 0.0546863 149.561 0.0546875 148.749V3.03843C0.0617564 2.23106 0.387086 1.45908 0.960012 0.890173C1.53294 0.321267 2.30719 0.00138307 3.11459 0H106.77C107.583 0 108.363 0.322947 108.938 0.897797C109.512 1.47265 109.835 2.25231 109.835 3.06527V148.749C109.835 149.562 109.512 150.341 108.938 150.916C108.363 151.491 107.583 151.814 106.77 151.814ZM3.11459 0.107365C2.33815 0.108787 1.594 0.418222 1.04548 0.967748C0.496964 1.51728 0.188892 2.26199 0.188894 3.03843V148.749C0.188892 149.525 0.496964 150.27 1.04548 150.819C1.594 151.369 2.33815 151.678 3.11459 151.68H106.77C107.547 151.678 108.292 151.369 108.841 150.82C109.39 150.27 109.7 149.526 109.701 148.749V3.03843C109.7 2.2615 109.39 1.51679 108.841 0.967421C108.292 0.418047 107.547 0.108784 106.77 0.107365H3.11459Z" fill="#EBEBEB"/>
<path d="M222.89 151.814H119.229C118.417 151.813 117.638 151.489 117.063 150.915C116.489 150.34 116.165 149.561 116.164 148.749V3.03843C116.173 2.23057 116.499 1.45859 117.073 0.889837C117.647 0.32108 118.421 0.00136799 119.229 0H222.89C223.697 0.0027939 224.47 0.323302 225.041 0.892057C225.613 1.46081 225.938 2.23198 225.945 3.03843V148.749C225.945 149.56 225.623 150.338 225.051 150.912C224.478 151.487 223.701 151.811 222.89 151.814ZM119.229 0.107365C118.452 0.108784 117.708 0.418047 117.158 0.967421C116.609 1.51679 116.3 2.2615 116.298 3.03843V148.749C116.3 149.526 116.609 150.27 117.158 150.82C117.708 151.369 118.452 151.678 119.229 151.68H222.89C223.667 151.678 224.412 151.369 224.961 150.82C225.511 150.27 225.82 149.526 225.821 148.749V3.03843C225.82 2.2615 225.511 1.51679 224.961 0.967421C224.412 0.418047 223.667 0.108784 222.89 0.107365H119.229Z" fill="#EBEBEB"/>
<path d="M63.326 133.862L55.891 140.079L66.5094 155.475L74.9697 150.751C79.5048 155.107 84.8211 158.567 90.6396 160.951L89.7807 170.571L108.156 173.969L110.792 164.671C117.068 164.525 123.261 163.195 129.044 160.752L135.261 168.187L150.657 157.596L145.933 149.13C150.289 144.598 153.75 139.283 156.132 133.465L165.752 134.319L169.14 115.954L159.842 113.313C159.696 107.036 158.366 100.844 155.923 95.0608L163.358 88.8443L152.766 73.4536L144.301 78.1723C139.767 73.8172 134.453 70.3567 128.636 67.9726L129.495 58.3473L111.12 54.9492L108.478 64.247C102.202 64.3961 96.0104 65.7256 90.2263 68.1658L83.9884 60.7147L68.5976 71.3063L73.3163 79.7666C68.9612 84.302 65.5008 89.6183 63.1166 95.4366L53.4914 94.5776L50.0986 112.948L59.3911 115.589C59.5395 121.874 60.8746 128.074 63.326 133.862ZM84.7614 109.85C85.6698 104.93 88.0169 100.39 91.5057 96.8041C94.9945 93.218 99.4685 90.7471 104.362 89.7038C109.255 88.6606 114.348 89.0918 118.996 90.9431C123.644 92.7943 127.638 95.9823 130.475 100.104C133.311 104.226 134.861 109.096 134.929 114.099C134.997 119.101 133.58 124.012 130.857 128.209C128.134 132.407 124.228 135.702 119.632 137.679C115.036 139.656 109.957 140.226 105.037 139.317C98.4415 138.097 92.6001 134.308 88.7978 128.782C84.9954 123.256 83.5436 116.446 84.7614 109.85Z" fill="#F0F0F0"/>
<path d="M186.161 141.631L191.964 142.704L192.802 139.762C194.788 139.718 196.747 139.299 198.578 138.528L200.543 140.874L205.406 137.529L203.914 134.845C205.288 133.411 206.38 131.732 207.135 129.896L210.173 130.164L211.247 124.355L208.311 123.523C208.265 121.537 207.844 119.577 207.071 117.747L209.422 115.782L206.083 110.919L203.399 112.411C201.962 111.039 200.281 109.946 198.444 109.19L198.718 106.152L192.909 105.078L192.072 108.015C190.085 108.061 188.126 108.482 186.296 109.255L184.331 106.903L179.467 110.253L180.959 112.937C179.582 114.371 178.489 116.052 177.739 117.892L174.695 117.618L173.621 123.427L176.558 124.264C176.607 126.25 177.027 128.209 177.798 130.04L175.484 131.995L178.828 136.858L181.512 135.366C182.947 136.742 184.628 137.835 186.467 138.587L186.161 141.631ZM184.578 122.439C184.865 120.885 185.607 119.45 186.71 118.317C187.812 117.185 189.226 116.404 190.772 116.075C192.318 115.745 193.927 115.881 195.396 116.466C196.864 117.051 198.126 118.059 199.023 119.361C199.919 120.663 200.409 122.202 200.43 123.782C200.452 125.363 200.005 126.915 199.145 128.241C198.285 129.567 197.051 130.609 195.599 131.234C194.147 131.859 192.542 132.04 190.987 131.753C189.955 131.563 188.969 131.171 188.088 130.6C187.207 130.029 186.447 129.29 185.851 128.425C185.256 127.56 184.837 126.586 184.618 125.559C184.4 124.532 184.386 123.472 184.578 122.439Z" fill="#F0F0F0"/>
<path d="M24.2318 140.907L28.6552 141.723L29.294 139.484C30.8056 139.446 32.2967 139.125 33.6906 138.539L35.1884 140.327L38.8978 137.777L37.7597 135.737C38.8072 134.65 39.6396 133.375 40.213 131.979L42.5321 132.183L43.3481 127.76L41.1095 127.126C41.0762 125.612 40.7556 124.119 40.1647 122.724L41.9577 121.227L39.4024 117.523L37.3679 118.639C36.278 117.596 35.0038 116.764 33.6101 116.186L33.8195 113.872L29.3906 113.051L28.7572 115.289C27.2439 115.328 25.7511 115.648 24.3552 116.234L22.8629 114.447L19.1373 117.029L20.2754 119.069C19.2268 120.154 18.3943 121.43 17.8221 122.826L15.5084 122.612L14.6924 127.035L16.9309 127.669C16.9639 129.178 17.2827 130.668 17.8704 132.06L16.0774 133.557L18.6273 137.262L20.6672 136.124C21.7545 137.172 23.0293 138.006 24.425 138.582L24.2318 140.907ZM23.0239 126.289C23.2435 125.105 23.8091 124.013 24.6492 123.151C25.4892 122.289 26.5661 121.695 27.7436 121.445C28.9211 121.195 30.1464 121.299 31.2645 121.745C32.3827 122.191 33.3435 122.958 34.0256 123.95C34.7076 124.942 35.0803 126.114 35.0964 127.318C35.1125 128.521 34.7714 129.703 34.1162 130.713C33.461 131.723 32.5211 132.516 31.4153 132.991C30.3095 133.467 29.0874 133.604 27.9036 133.386C26.3158 133.091 24.91 132.178 23.995 130.847C23.08 129.517 22.7307 127.877 23.0239 126.289Z" fill="#F0F0F0"/>
<path d="M103.227 42.3345L106.576 42.9519L107.054 41.2555C108.201 41.2326 109.332 40.9902 110.388 40.5415L111.521 41.8997L114.323 39.9671L113.464 38.4264C114.257 37.5995 114.887 36.6307 115.321 35.5705L117.071 35.7262L117.689 32.3818L115.998 31.8987C115.97 30.7544 115.727 29.6255 115.284 28.5703L116.637 27.4376L114.709 24.6354L113.169 25.4943C112.343 24.6957 111.374 24.06 110.313 23.6208L110.468 21.8654L107.119 21.248L106.641 22.9444C105.496 22.9669 104.366 23.2093 103.313 23.6584L102.18 22.3002L99.3723 24.2328L100.237 25.7735C99.4421 26.5992 98.8118 27.5684 98.3791 28.6294L96.6237 28.4737L96.0332 31.8342L97.7242 32.3174C97.7524 33.4617 97.9945 34.5905 98.4382 35.6457L97.0854 36.7784L99.0179 39.5806L100.559 38.7217C101.383 39.5154 102.35 40.1456 103.409 40.5791L103.227 42.3345ZM102.319 31.2706C102.485 30.375 102.913 29.5486 103.548 28.8961C104.184 28.2435 104.998 27.7939 105.889 27.6043C106.78 27.4146 107.707 27.4934 108.553 27.8305C109.4 28.1677 110.127 28.7482 110.643 29.4986C111.159 30.249 111.441 31.1356 111.454 32.0464C111.466 32.9571 111.208 33.8511 110.713 34.6153C110.217 35.3795 109.506 35.9797 108.67 36.3398C107.833 36.7 106.908 36.8041 106.013 36.6388C105.418 36.529 104.85 36.3031 104.342 35.9738C103.835 35.6446 103.397 35.2185 103.054 34.72C102.711 34.2214 102.469 33.6602 102.343 33.0683C102.217 32.4765 102.209 31.8656 102.319 31.2706Z" fill="#F0F0F0"/>
<path d="M185.727 76.4921L187.961 76.9054L188.283 75.7781C189.045 75.7599 189.797 75.5978 190.5 75.3003L191.257 76.2022L193.13 74.9192L192.556 73.8885C193.085 73.3399 193.504 72.6948 193.791 71.9881L194.961 72.0901L195.374 69.8569L194.247 69.5348C194.228 68.7723 194.066 68.0202 193.769 67.3177L194.671 66.5608L193.383 64.6926L192.357 65.2617C191.805 64.7339 191.159 64.315 190.451 64.027L190.559 62.8567L188.326 62.4434L188.004 63.5761C187.241 63.5924 186.489 63.7527 185.786 64.0485L185.03 63.1466L183.156 64.435L183.73 65.4603C183.201 66.0109 182.782 66.6578 182.496 67.366L181.325 67.264L180.912 69.4919L182.039 69.814C182.058 70.5782 182.22 71.3322 182.517 72.0364L181.615 72.788L182.904 74.6615L183.929 74.0871C184.481 74.6165 185.127 75.0372 185.835 75.3272L185.727 76.4921ZM185.148 69.1161C185.258 68.5175 185.543 67.9651 185.967 67.5286C186.391 67.0922 186.935 66.7913 187.53 66.6642C188.126 66.5371 188.745 66.5893 189.31 66.8144C189.876 67.0395 190.362 67.4272 190.707 67.9286C191.052 68.4299 191.24 69.0223 191.249 69.6309C191.257 70.2394 191.084 70.8367 190.753 71.3472C190.422 71.8577 189.946 72.2584 189.387 72.4986C188.828 72.7388 188.21 72.8078 187.612 72.6967C186.81 72.548 186.101 72.0874 185.639 71.4161C185.177 70.7448 185 69.9176 185.148 69.1161Z" fill="#F0F0F0"/>
<path d="M158.492 150.499C158.523 151.832 158.806 153.147 159.324 154.375L157.767 155.679L160.017 158.943L161.81 157.939C162.773 158.857 163.9 159.586 165.133 160.087L164.95 162.127L168.847 162.846L169.384 160.876C170.717 160.844 172.032 160.561 173.26 160.044L174.575 161.617L177.839 159.373L176.841 157.58C177.759 156.617 178.488 155.49 178.988 154.257L181.028 154.439L181.747 150.542L179.777 150.005C179.749 148.672 179.466 147.357 178.945 146.129L180.523 144.814L178.279 141.55L176.481 142.549C175.521 141.629 174.396 140.9 173.164 140.401L173.341 138.356L169.449 137.637L168.912 139.612C167.579 139.641 166.264 139.922 165.036 140.439L163.715 138.866L160.452 141.11L161.455 142.903C160.539 143.867 159.811 144.994 159.308 146.226L157.268 146.043L156.549 149.941L158.492 150.499ZM163.86 149.286C164.052 148.241 164.549 147.276 165.289 146.513C166.029 145.751 166.979 145.225 168.018 145.003C169.057 144.78 170.139 144.871 171.126 145.264C172.113 145.657 172.962 146.334 173.564 147.21C174.166 148.085 174.495 149.12 174.509 150.182C174.523 151.245 174.221 152.287 173.642 153.178C173.062 154.069 172.232 154.768 171.255 155.187C170.278 155.605 169.199 155.724 168.155 155.529C166.76 155.267 165.525 154.463 164.721 153.293C163.918 152.123 163.61 150.682 163.866 149.286H163.86Z" fill="#F0F0F0"/>
<path d="M61.2002 79.2942C61.6887 81.7099 58.763 84.3457 54.667 85.1724C50.5711 85.9991 46.8562 84.7053 46.3677 82.2896C45.8792 79.8739 48.8049 77.2327 52.9009 76.3846C56.9969 75.5364 60.7117 76.8731 61.2002 79.2942Z" fill="#E0E0E0"/>
<path d="M62.7837 70.6134C63.11 70.1545 63.2431 69.5858 63.1541 69.0298C62.6763 66.6516 57.249 65.7498 51.0004 67.0059C44.7518 68.2621 40.1029 71.2146 40.5806 73.5874C40.7205 74.1328 41.0645 74.6036 41.5416 74.9026C41.4678 75.161 41.455 75.433 41.504 75.6971C41.6425 76.2377 41.9901 76.7012 42.4703 76.9855C42.3879 77.2513 42.3713 77.5332 42.4219 77.8069C42.4925 78.0745 42.6163 78.3251 42.7861 78.5437C42.9558 78.7624 43.1679 78.9445 43.4097 79.0791C43.3172 79.3464 43.295 79.6329 43.3453 79.9112C43.4169 80.1792 43.5431 80.4295 43.7158 80.6466C43.8885 80.8636 44.1041 81.0427 44.3491 81.1728C44.2437 81.4424 44.2158 81.7362 44.2686 82.0209C44.6659 83.9964 49.1913 84.748 54.3717 83.7012C59.552 82.6544 63.4333 80.2065 63.036 78.2309C62.9702 77.9482 62.8293 77.6886 62.628 77.4794C62.8044 77.2663 62.9343 77.0187 63.0092 76.7524C63.0841 76.4861 63.1023 76.2071 63.0629 75.9333C63.0039 75.6553 62.8724 75.3979 62.6817 75.1871C62.851 74.9684 62.9749 74.7179 63.0458 74.4506C63.1168 74.1832 63.1336 73.9043 63.0951 73.6304C63.0364 73.3597 62.913 73.1074 62.7354 72.8949C63.0675 72.4465 63.2084 71.8848 63.1273 71.3328C63.0685 71.0701 62.9511 70.8242 62.7837 70.6134Z" fill="#EBEBEB"/>
<path d="M67.8773 47.6271C67.2076 44.248 65.6931 41.0934 63.475 38.4577C61.2568 35.8219 58.4073 33.7909 55.1922 32.5539C51.977 31.3169 48.501 30.9142 45.0882 31.3835C41.6754 31.8528 38.4371 33.1787 35.6751 35.2376C32.9132 37.2965 30.7177 40.0213 29.2933 43.1579C27.8689 46.2945 27.262 49.7408 27.5293 53.1753C27.7965 56.6098 28.9292 59.9207 30.8217 62.7992C32.7141 65.6777 35.3048 68.0301 38.3519 69.6369C38.8402 69.8887 39.2588 70.2571 39.5707 70.7094C39.8825 71.1617 40.0779 71.6839 40.1396 72.2298C40.1396 72.2835 40.1396 72.3372 40.1396 72.3909C40.6281 74.8066 46.1574 75.7245 52.4865 74.4469C58.8157 73.1692 63.5505 70.1523 63.062 67.7634C63.062 67.7097 63.062 67.6614 63.0244 67.6077C62.8705 67.0753 62.8502 66.5131 62.9654 65.971C63.0806 65.4288 63.3276 64.9234 63.6847 64.4995C65.5856 62.171 66.9474 59.4505 67.6723 56.5333C68.3972 53.6161 68.4672 50.5746 67.8773 47.6271Z" fill="#F5F5F5"/>
<path d="M55.3387 70.5005H55.2903C55.2257 70.5035 55.1625 70.481 55.1143 70.4378C55.0661 70.3946 55.0368 70.3343 55.0327 70.2697C55.0327 69.8724 54.5334 60.8967 58.3986 56.5968L55.4353 57.1926C55.3886 57.2042 55.3395 57.2005 55.2951 57.1822C55.2507 57.1638 55.2133 57.1318 55.1883 57.0907L53.7174 54.9434L52.4183 60.1237C52.4062 60.1682 52.3824 60.2085 52.3493 60.2406C52.3163 60.2727 52.2752 60.2954 52.2304 60.3062C52.1849 60.3159 52.1375 60.3124 52.0938 60.2963C52.0501 60.2801 52.0119 60.2519 51.9835 60.215L48.7626 55.9204L47.3453 60.5317C47.3354 60.5756 47.312 60.6154 47.2782 60.6452C47.2445 60.6751 47.2023 60.6936 47.1574 60.6981C47.1145 60.7053 47.0704 60.7017 47.0292 60.6877C46.988 60.6736 46.9509 60.6495 46.9212 60.6176L43.8291 56.9028L43.2923 59.4795C43.2849 59.5267 43.2627 59.5703 43.229 59.6041C43.1952 59.6379 43.1516 59.66 43.1044 59.6674L39.8835 60.3116C41.4939 61.4658 46.6528 65.551 47.8983 71.7245C47.9046 71.7559 47.9047 71.7882 47.8986 71.8196C47.8924 71.851 47.8802 71.8809 47.8625 71.9076C47.8448 71.9342 47.822 71.9572 47.7954 71.975C47.7689 71.9929 47.7391 72.0054 47.7077 72.0117C47.6763 72.018 47.644 72.0181 47.6126 72.012C47.5812 72.0059 47.5513 71.9936 47.5246 71.9759C47.498 71.9582 47.475 71.9354 47.4572 71.9089C47.4393 71.8823 47.4268 71.8525 47.4205 71.8211C45.9818 64.7136 39.2071 60.4351 39.1373 60.3975C39.0956 60.3713 39.0626 60.3333 39.0427 60.2883C39.0227 60.2433 39.0167 60.1933 39.0253 60.1448C39.034 60.0964 39.0569 60.0516 39.0912 60.0163C39.1255 59.9809 39.1696 59.9567 39.2178 59.9466L42.8199 59.2219L43.4211 56.3123C43.4292 56.2671 43.4503 56.2253 43.4818 56.192C43.5132 56.1586 43.5537 56.1351 43.5983 56.1244C43.6428 56.1115 43.6901 56.1122 43.7342 56.1266C43.7782 56.141 43.8169 56.1682 43.8452 56.2049L46.9588 59.9251L48.419 55.2923C48.4312 55.2484 48.4557 55.2088 48.4895 55.1782C48.5233 55.1476 48.5651 55.1271 48.61 55.1193C48.6549 55.1114 48.7012 55.1164 48.7434 55.1338C48.7856 55.1511 48.822 55.18 48.8484 55.2171L52.0694 59.5117L53.3792 54.3206C53.391 54.2756 53.4155 54.235 53.4498 54.2036C53.484 54.1721 53.5267 54.1513 53.5725 54.1435C53.6184 54.134 53.666 54.1386 53.7092 54.1569C53.7523 54.1751 53.7889 54.206 53.8141 54.2455L55.4997 56.6934L59.0964 55.9687C59.1492 55.9561 59.2046 55.962 59.2535 55.9855C59.3024 56.009 59.3417 56.0485 59.3648 56.0975C59.3883 56.1452 59.3957 56.1991 59.386 56.2514C59.3763 56.3036 59.3501 56.3513 59.3112 56.3874C54.9897 60.2364 55.5158 70.1516 55.5212 70.2536C55.5231 70.3093 55.5061 70.364 55.473 70.4089C55.4398 70.4537 55.3925 70.486 55.3387 70.5005Z" fill="#E0E0E0"/>
<path d="M113.748 199.999C171.233 199.999 217.833 197.279 217.833 193.923C217.833 190.566 171.233 187.846 113.748 187.846C56.2635 187.846 9.66309 190.566 9.66309 193.923C9.66309 197.279 56.2635 199.999 113.748 199.999Z" fill="#F5F5F5"/>
<path d="M177.835 51.2935C177.835 48.153 176.192 45.3132 173.54 43.2733C173.628 42.8585 173.673 42.4358 173.675 42.0118C173.675 37.8245 169.418 34.4211 164.119 34.3244C162.509 30.2714 157.72 27.3457 152.041 27.3457C147.52 27.3457 143.553 29.2139 141.304 32.0214C140.737 31.9438 140.164 31.9043 139.592 31.9033C134.191 31.9033 129.811 35.3498 129.811 39.6014C129.81 40.3213 129.937 41.0356 130.186 41.7111C126.745 43.5202 124.475 46.6016 124.475 50.1017C124.475 53.473 126.579 56.4523 129.811 58.2829V58.3903C129.811 62.5185 133.933 65.9058 139.119 66.0776C141.975 68.8691 146.356 70.6567 151.268 70.6567C154.493 70.6846 157.669 69.8665 160.479 68.284C160.921 68.3335 161.366 68.3586 161.811 68.3591C167.211 68.3591 171.592 64.9127 171.592 60.661V60.5859C175.371 58.546 177.835 55.1479 177.835 51.2935Z" fill="#F2133B"/>
<path d="M124.051 73.8992C124.051 74.6025 123.235 75.1715 122.231 75.1715C121.227 75.1715 120.411 74.6025 120.411 73.8992C120.411 73.196 121.227 72.627 122.231 72.627C123.235 72.627 124.051 73.196 124.051 73.8992Z" fill="#F2133B"/>
<path d="M136.655 70.8604C136.655 72.8949 134.288 74.543 131.367 74.543C128.447 74.543 126.096 72.9057 126.096 70.8604C126.096 68.8151 128.463 67.1777 131.383 67.1777C134.304 67.1777 136.655 68.8419 136.655 70.8604Z" fill="#F2133B"/>
<path opacity="0.7" d="M177.835 51.2935C177.835 48.153 176.192 45.3132 173.54 43.2733C173.628 42.8585 173.673 42.4358 173.675 42.0118C173.675 37.8245 169.418 34.4211 164.119 34.3244C162.509 30.2714 157.72 27.3457 152.041 27.3457C147.52 27.3457 143.553 29.2139 141.304 32.0214C140.737 31.9438 140.164 31.9043 139.592 31.9033C134.191 31.9033 129.811 35.3498 129.811 39.6014C129.81 40.3213 129.937 41.0356 130.186 41.7111C126.745 43.5202 124.475 46.6016 124.475 50.1017C124.475 53.473 126.579 56.4523 129.811 58.2829V58.3903C129.811 62.5185 133.933 65.9058 139.119 66.0776C141.975 68.8691 146.356 70.6567 151.268 70.6567C154.493 70.6846 157.669 69.8665 160.479 68.284C160.921 68.3335 161.366 68.3586 161.811 68.3591C167.211 68.3591 171.592 64.9127 171.592 60.661V60.5859C175.371 58.546 177.835 55.1479 177.835 51.2935Z" fill="white"/>
<path opacity="0.7" d="M124.051 73.8992C124.051 74.6025 123.235 75.1715 122.231 75.1715C121.227 75.1715 120.411 74.6025 120.411 73.8992C120.411 73.196 121.227 72.627 122.231 72.627C123.235 72.627 124.051 73.196 124.051 73.8992Z" fill="white"/>
<path opacity="0.7" d="M136.655 70.8604C136.655 72.8949 134.288 74.543 131.367 74.543C128.447 74.543 126.096 72.9057 126.096 70.8604C126.096 68.8151 128.463 67.1777 131.383 67.1777C134.304 67.1777 136.655 68.8419 136.655 70.8604Z" fill="white"/>
<path d="M151.422 35.1191C156.646 35.1191 159.877 37.5724 159.877 41.9368C159.877 47.8419 153.876 48.5988 153.876 53.1565H148.695C148.695 47.1601 153.489 46.8058 153.489 43.0695C153.489 41.459 152.475 40.6914 150.762 40.6914C148.851 40.6914 147.837 41.8187 147.799 44.1593H142.463C142.5 38.4313 145.85 35.1191 151.422 35.1191ZM154.547 59.4749C154.547 60.359 154.196 61.207 153.57 61.8322C152.945 62.4573 152.097 62.8086 151.213 62.8086C150.329 62.8086 149.481 62.4573 148.856 61.8322C148.231 61.207 147.879 60.359 147.879 59.4749C147.879 58.5907 148.231 57.7428 148.856 57.1176C149.481 56.4924 150.329 56.1412 151.213 56.1412C152.097 56.1412 152.945 56.4924 153.57 57.1176C154.196 57.7428 154.547 58.5907 154.547 59.4749Z" fill="#F2133B"/>
<path d="M123.919 115.31C128.676 121.489 133.749 127.979 139.89 132.676C140.981 133.531 142.21 134.194 143.524 134.636C143.615 134.662 143.524 134.711 143.417 134.786C143.309 134.861 143.352 134.85 143.352 134.893C143.352 134.936 143.186 135.044 143.143 135.081C142.59 135.599 142.248 136.302 142.182 137.057C142.182 137.207 142.214 137.196 142.214 137.1C141.887 134.63 140.389 132.198 139.122 129.895C133.996 121.236 127.548 113.147 121.359 105.094L126.19 100.359C131.629 104.985 136.758 109.963 141.543 115.262C145.237 119.395 148.844 123.733 151.646 128.72C154.432 133.492 156.097 140.262 151.136 144.465C148.94 146.304 146.168 147.313 143.304 147.315C133.91 147.187 125.32 138.329 119.56 131.962C117.105 129.164 114.812 126.226 112.694 123.164L123.903 115.31H123.919Z" fill="#FAB1A5"/>
<path d="M110.26 94.6849L115.923 94.4111C116.553 94.3834 117.176 94.5523 117.706 94.8943L126.477 100.579L125.023 106.694C119.558 110.14 114.893 106.973 113.465 105.797C113.135 105.523 112.748 105.325 112.332 105.217L109.229 104.385C108.536 104.2 107.932 103.774 107.525 103.184C107.118 102.594 106.934 101.878 107.007 101.164L107.393 97.4066C107.464 96.6839 107.792 96.0109 108.319 95.5109C108.845 95.011 109.535 94.7177 110.26 94.6849Z" fill="#F8AA9E"/>
<path d="M140.548 132.665L134.869 150.761C134.869 150.761 134.23 150.423 133.189 149.838C130.445 148.297 124.895 145.065 120.793 141.861C118.41 140.003 116.499 138.156 115.962 136.653C114.056 131.607 125.399 113.715 125.399 113.715C128.964 114.606 133.291 121.069 133.291 121.069C133.291 121.069 139.18 129.374 140.548 132.665Z" fill="#F2133B"/>
<path opacity="0.2" d="M133.189 149.837C130.446 148.297 124.895 145.065 120.794 141.86C120.689 139.309 120.885 136.754 121.379 134.248C121.379 134.248 130.494 139.412 133.189 149.837Z" fill="black"/>
<path d="M125.394 113.722C125.394 113.722 136.388 142.045 125.753 194.724L75.6355 194.6C75.308 186.907 78.792 150.886 71.459 114.613C71.459 114.613 73.515 112.101 89.6842 111.033C96.0831 110.609 105.365 110.56 110.991 111.086C115.853 111.587 120.669 112.469 125.394 113.722Z" fill="#263238"/>
<path opacity="0.6" d="M130.279 157.613C130.209 159.529 130.112 161.5 129.984 163.518C129.871 165.166 129.747 166.857 129.597 168.586C129.409 170.647 129.194 172.768 128.926 174.942C128.722 176.731 128.489 178.542 128.228 180.374C127.91 182.604 127.552 184.884 127.155 187.213C126.736 189.651 126.274 192.152 125.753 194.729L75.6355 194.606C75.5603 192.931 75.6677 189.914 75.8073 185.85C75.8663 184.239 75.9254 182.425 75.9844 180.482C76.022 179.07 76.0596 177.567 76.0918 176.005C76.124 174.265 76.1562 172.435 76.1669 170.518C76.1669 169.033 76.1669 167.498 76.1669 165.912C76.1669 164.082 76.1401 162.192 76.0971 160.254C76.0971 158.815 76.0327 157.355 75.9844 155.868C75.8073 150.581 75.4905 144.981 74.9644 139.189C74.2382 130.94 73.0644 122.736 71.4482 114.613C71.4482 114.613 73.5096 112.101 89.7003 111.033C96.0992 110.609 105.376 110.555 111.012 111.086C115.874 111.591 120.69 112.472 125.415 113.722C125.415 113.722 131.277 128.866 130.279 157.613Z" fill="#FAFAFA"/>
<path opacity="0.2" d="M81.2071 136.891C81.2071 136.891 80.7616 148.852 75.9838 155.879C75.8067 150.591 75.49 144.992 74.9639 139.199C76.9233 137.702 79.0545 136.816 81.2071 136.891Z" fill="black"/>
<g opacity="0.6">
<path opacity="0.6" d="M130.278 157.613C130.208 159.529 130.112 161.499 129.983 163.518L124.722 169.713L117.163 160.823L109.616 169.729L102.062 160.839L94.5093 169.729L86.9562 160.839L79.3923 169.729L76.1714 165.912C76.1714 164.081 76.1445 162.192 76.1016 160.254L79.4138 164.151L86.9615 155.256L94.5147 164.151L102.068 155.256L109.621 164.151L117.169 155.256L124.727 164.151L130.278 157.613Z" fill="#FAFAFA"/>
</g>
<g opacity="0.6">
<path opacity="0.6" d="M129.597 168.602C129.409 170.663 129.194 172.784 128.926 174.958L124.723 179.918L117.164 171.023L109.617 179.918L102.063 171.023L94.5103 179.918L86.9571 171.023L79.3933 179.918L76.0703 176.005C76.1025 174.265 76.1347 172.435 76.1455 170.518L79.3933 174.335L86.941 165.445L94.4941 174.335L102.047 165.445L109.6 174.335L117.148 165.445L124.707 174.335L129.597 168.602Z" fill="#FAFAFA"/>
</g>
<g opacity="0.6">
<path opacity="0.6" d="M128.244 180.372C127.925 182.602 127.567 184.882 127.17 187.212L124.738 190.078L117.18 181.194L109.616 190.094L102.063 181.21L94.5096 190.094L86.9565 181.21L79.3926 190.094L75.7852 185.848C75.8442 184.238 75.9033 182.423 75.9623 180.48L79.3926 184.522L86.9404 175.627L94.4935 184.522L102.047 175.627L109.6 184.522L117.148 175.627L124.706 184.522L128.244 180.372Z" fill="#FAFAFA"/>
</g>
<path d="M89.0557 88.9199C91.0312 95.6249 93.5382 108.004 89.1899 113.007C95.9914 115.155 100.887 116.604 106.905 121.06C108.483 116.685 110.411 111.01 110.411 111.01C102.627 109.904 102.294 104.241 103.126 98.8136L89.0557 88.9199Z" fill="#F8AA9E"/>
<path opacity="0.2" d="M94.7673 92.9629L103.093 98.8197C102.878 100.082 102.777 101.361 102.793 102.642C99.8457 102.497 95.5511 99.6786 94.9552 96.6616C94.6686 95.4503 94.6049 94.197 94.7673 92.9629Z" fill="black"/>
<path d="M83.3398 111.542L88.1444 107.027L101.017 111.445L106.643 120.094L108.742 111.327L111.652 108.702L116.746 111.821L115.957 117.377L112.275 115.574L107.824 122.858L97.8771 117.018L95.1017 119.68L83.3398 111.542Z" fill="#F2133B"/>
<path opacity="0.2" d="M107.823 122.858L110.421 113.754L115.956 117.377L112.274 115.574L107.823 122.858Z" fill="black"/>
<path opacity="0.2" d="M107.823 122.857L99.057 114.268L95.1006 119.679L97.876 117.016L107.823 122.857Z" fill="black"/>
<path d="M86.6198 129.107C89.8407 132.989 94.2427 138.378 97.5066 142.082C101.399 146.409 105.269 151.005 109.977 154.322C110.16 154.435 109.95 154.322 109.859 154.322C109.809 154.304 109.756 154.293 109.703 154.29C109.66 154.29 109.703 154.29 109.703 154.317C111.818 154.784 114.196 154.29 116.456 153.984C123.344 152.824 130.119 150.876 137.017 149.099L139.728 155.31C137.114 156.92 134.51 158.289 131.804 159.604C125.024 162.782 112.677 168.521 105.194 165.708C102.429 164.424 99.8518 162.77 97.5334 160.791C93.9685 157.825 90.5975 154.633 87.4411 151.235C84.3436 147.945 81.4126 144.579 78.5889 141.068C77.6387 139.898 76.7475 138.749 75.8027 137.493L86.6198 129.107Z" fill="#FAB1A5"/>
<path d="M67.0142 120.817C61.5225 138.221 86.195 155.26 86.195 155.26L99.3794 140.272C99.3794 140.272 93.5709 129.535 86.9895 119.991C80.102 110.006 69.9077 111.659 67.0142 120.817Z" fill="#F2133B"/>
<path d="M135.937 149.902L145.213 140.271L152.224 149.623C152.224 149.623 146.689 157.289 139.157 155.292L135.937 149.902Z" fill="#F8AA9E"/>
<path d="M154.259 137.32L157.819 145.544L152.225 149.624L145.214 140.273L154.259 137.32Z" fill="#F8AA9E"/>
<path d="M106.958 64.0166C111.731 65.8902 115.011 78.9028 109.208 82.0379C103.404 85.1729 97.9128 60.4736 106.958 64.0166Z" fill="#263238"/>
<path d="M86.371 79.3321C88.8404 88.4581 89.8281 93.8747 95.497 97.7989C104 103.704 114.554 97.5305 114.86 87.9696C115.139 79.3804 111.049 65.9115 101.225 63.8125C91.5513 61.735 83.9123 70.2276 86.371 79.3321Z" fill="#F8AA9E"/>
<path d="M94.5216 67.5973L93.5123 59.5879C91.5375 60.663 89.2738 61.0875 87.0436 60.8011C77.3807 59.1423 70.4825 65.6862 75.2334 70.7538C70.8637 72.9709 73.7196 78.9726 76.962 82.7089C81.466 87.9108 86.088 90.2245 88.9869 87.5404C91.671 86.0319 91.5207 76.4979 90.3987 73.0461C88.7024 67.8174 94.5216 67.5973 94.5216 67.5973Z" fill="#263238"/>
<path d="M84.7603 89.0496C86.3406 90.773 88.4689 91.8959 90.7835 92.2276C93.7092 92.5765 94.2246 89.8494 92.6195 87.3264C91.17 85.0556 87.9008 82.1406 85.3455 82.9566C82.7902 83.7726 82.758 86.8862 84.7603 89.0496Z" fill="#F8AA9E"/>
<path d="M100.358 79.5042C100.514 80.2504 101.04 80.7926 101.534 80.7067C102.028 80.6208 102.301 79.9444 102.146 79.1982C101.99 78.452 101.464 77.9098 100.97 77.9903C100.476 78.0709 100.208 78.7526 100.358 79.5042Z" fill="#263238"/>
<path d="M108.88 78.0448C109.036 78.7964 109.557 79.3332 110.05 79.2473C110.544 79.1614 110.818 78.4904 110.662 77.7389C110.507 76.9873 109.981 76.4505 109.492 76.5364C109.004 76.6223 108.724 77.304 108.88 78.0448Z" fill="#263238"/>
<path d="M106.851 78.8809C106.851 78.8809 109.46 82.907 111.779 84.6732C110.705 86.1387 108.316 85.9616 108.316 85.9616L106.851 78.8809Z" fill="#EB9492"/>
<path d="M103.09 75.5749C103.161 75.6027 103.224 75.649 103.272 75.7091C103.308 75.756 103.335 75.8095 103.351 75.8668C103.367 75.924 103.371 75.9837 103.363 76.0426C103.356 76.1014 103.337 76.1582 103.307 76.2097C103.278 76.2612 103.239 76.3063 103.192 76.3426C102.644 76.7898 101.994 77.0948 101.3 77.2306C100.606 77.3664 99.8896 77.3287 99.2137 77.121C99.1577 77.1018 99.1062 77.0716 99.0621 77.032C99.0181 76.9925 98.9825 76.9445 98.9574 76.8908C98.9324 76.8372 98.9184 76.7791 98.9163 76.7199C98.9142 76.6608 98.9241 76.6018 98.9453 76.5466C98.9865 76.4352 99.0698 76.3446 99.1774 76.2944C99.2849 76.2441 99.4079 76.2383 99.5197 76.2782C100.053 76.4333 100.616 76.4557 101.159 76.3434C101.703 76.2311 102.211 75.9876 102.639 75.634C102.701 75.5835 102.776 75.5512 102.856 75.5408C102.935 75.5304 103.016 75.5422 103.09 75.5749Z" fill="#263238"/>
<path d="M111.339 73.9587C111.268 73.9778 111.194 73.9789 111.123 73.9621C111.051 73.9452 110.986 73.9108 110.931 73.862C110.51 73.4701 110.006 73.1789 109.457 73.0106C108.907 72.8422 108.326 72.8011 107.758 72.8904C107.699 72.9121 107.636 72.9211 107.573 72.9169C107.51 72.9126 107.448 72.8952 107.393 72.8657C107.337 72.8362 107.288 72.7953 107.249 72.7457C107.21 72.6961 107.182 72.6388 107.166 72.5776C107.151 72.5164 107.148 72.4526 107.159 72.3904C107.17 72.3282 107.193 72.2689 107.228 72.2164C107.263 72.1639 107.309 72.1194 107.363 72.0857C107.416 72.052 107.476 72.0298 107.538 72.0207C108.247 71.893 108.975 71.9322 109.666 72.1354C110.356 72.3385 110.99 72.7 111.516 73.191C111.605 73.2696 111.66 73.3803 111.668 73.4989C111.676 73.6175 111.637 73.7346 111.559 73.8245C111.5 73.8887 111.423 73.9352 111.339 73.9587Z" fill="#263238"/>
<path d="M86.5332 61.8477C86.5332 61.8477 93.2006 48.9639 105.612 51.5997C105.612 51.5997 103.239 52.1365 102.23 53.033C102.23 53.033 113.063 52.0882 116.44 59.7004L114.368 58.4818C114.368 58.4818 117.127 64.7895 113.895 68.9445L113.289 66.8563C113.289 66.8563 108.854 72.3587 102.235 70.7966L104.522 69.637C104.522 69.637 93.12 69.2881 90.2963 66.3785C87.4726 63.4689 86.5332 61.8477 86.5332 61.8477Z" fill="#263238"/>
<path d="M109.455 89.896C109.405 89.8961 109.355 89.8861 109.309 89.8667C109.263 89.8474 109.221 89.819 109.186 89.7833C107.506 87.9635 104.559 88.6613 104.532 88.6667C104.443 88.6784 104.353 88.6571 104.279 88.6068C104.205 88.5565 104.152 88.4808 104.13 88.394C104.108 88.3072 104.119 88.2154 104.161 88.136C104.202 88.0566 104.271 87.9952 104.355 87.9635C104.494 87.9313 107.742 87.1582 109.723 89.2894C109.79 89.3576 109.827 89.4491 109.827 89.5444C109.827 89.6397 109.79 89.7312 109.723 89.7994C109.687 89.8325 109.645 89.858 109.598 89.8746C109.552 89.8912 109.504 89.8985 109.455 89.896Z" fill="#263238"/>
<path d="M202.745 186.24H20.7725V194.722H202.745V186.24Z" fill="#F2133B"/>
<path opacity="0.2" d="M202.745 186.24H20.7725V194.722H202.745V186.24Z" fill="#FAFAFA"/>
<path d="M205.466 186.24H18.5702C18.0053 186.24 17.4631 186.463 17.0612 186.86C16.6593 187.257 16.4299 187.796 16.4229 188.361C16.4299 188.926 16.6593 189.465 17.0612 189.862C17.4631 190.259 18.0053 190.481 18.5702 190.481H205.466C206.026 190.474 206.561 190.249 206.957 189.852C207.354 189.456 207.579 188.921 207.586 188.361C207.579 187.8 207.354 187.265 206.957 186.869C206.561 186.473 206.026 186.247 205.466 186.24Z" fill="#F2133B"/>
<path opacity="0.4" d="M205.466 186.24H18.5702C18.0053 186.24 17.4631 186.463 17.0612 186.86C16.6593 187.257 16.4299 187.796 16.4229 188.361C16.4299 188.926 16.6593 189.465 17.0612 189.862C17.4631 190.259 18.0053 190.481 18.5702 190.481H205.466C206.026 190.474 206.561 190.249 206.957 189.852C207.354 189.456 207.579 188.921 207.586 188.361C207.579 187.8 207.354 187.265 206.957 186.869C206.561 186.473 206.026 186.247 205.466 186.24Z" fill="#FAFAFA"/>
</svg>
