<svg width="101" height="100" viewBox="0 0 101 100" fill="none" xmlns="http://www.w3.org/2000/svg">
<path fill-rule="evenodd" clip-rule="evenodd" d="M63.012 10.1016C62.5818 10.2005 53.5624 14.3244 42.9688 19.2656L23.7078 28.2501L22.0457 28.37C21.1315 28.4359 20.0699 28.5804 19.6864 28.6908C18.6725 28.9829 17.3685 30.1931 16.8391 31.333L16.3788 32.3242L16.3769 42.2561L16.3749 52.1879L14.9572 52.9691C11.6031 54.8177 8.84921 58.3064 7.57603 62.32C6.89339 64.4724 6.80559 68.1056 7.37638 70.5823C8.83631 76.9171 14.0313 81.7586 20.4813 82.7959C21.3259 82.9318 32.4787 83.0002 53.7237 83L85.6951 82.9994L86.6728 82.5395C87.8155 82.0017 88.5995 81.2604 89.1857 80.1631C89.5873 79.4111 89.6087 79.0905 89.6667 72.8804L89.7274 66.3845L90.8963 66.2996C91.7665 66.2365 92.1759 66.1039 92.4978 65.7814C92.93 65.3482 92.9302 65.3458 92.9863 56.0901C93.0172 50.998 92.9941 46.6359 92.935 46.3963C92.727 45.5523 92.0715 45.1655 90.8498 45.1655H89.7232L89.6646 38.6468C89.6061 32.1493 89.6044 32.125 89.1212 31.1765C88.0983 29.1686 86.6743 28.4763 83.2975 28.3451L80.8997 28.252L80.6183 27.2494C80.4637 26.6979 80.0245 25.0742 79.6424 23.6411C79.2601 22.2082 78.8291 20.7525 78.6844 20.4063C77.6942 18.037 75.1034 17.0138 72.114 17.8115C71.5273 17.968 71.035 18.0772 71.0199 18.0542C71.0047 18.0313 70.3343 16.645 69.5303 14.9737C68.0128 11.8198 67.3126 10.9166 65.9594 10.3679C65.0648 10.005 63.8927 9.89912 63.012 10.1016ZM47.4663 20.6837C38.7011 24.7866 31.4928 28.1801 31.448 28.2244C31.4032 28.2689 41.7486 28.3052 54.4376 28.3052H77.5088L76.8887 25.9035C75.7528 21.503 75.6701 21.281 75.043 20.9558C74.7282 20.7927 74.341 20.6592 74.1824 20.6592C74.0238 20.6592 69.2897 21.8943 63.6622 23.4039C58.0346 24.9133 53.2395 26.1484 53.0064 26.1486C52.3132 26.1486 51.9665 25.9384 51.6509 25.3264C51.2735 24.5949 51.4523 23.6882 52.0512 23.2947C52.2956 23.1341 55.9017 22.0872 60.0644 20.9685C64.2271 19.8497 67.6718 18.8953 67.7191 18.8479C67.8607 18.7059 65.6495 14.1277 65.2087 13.6504C64.9289 13.3473 64.5828 13.2114 64.1024 13.2163C63.6014 13.2214 58.8841 15.3389 47.4663 20.6837ZM20.6745 31.8494C19.5977 32.2489 19.6061 32.1752 19.5449 41.8152C19.5138 46.7118 19.5578 50.7871 19.6426 50.8714C19.7275 50.9559 20.4907 50.9316 21.3388 50.8177C23.9974 50.4603 27.41 51.0843 30.0911 52.418C34.7399 54.7305 37.8724 58.9777 38.7822 64.2028C39.1444 66.2818 39.0609 68.8583 38.5734 70.6521C38.4123 71.2452 38.2793 71.7439 38.2781 71.7604C38.2767 71.7771 39.1027 71.8212 40.1133 71.8584C41.5513 71.9118 42.0365 72.0041 42.3444 72.2841C43.1818 73.0443 43.0294 74.5 42.0664 74.9398C41.7897 75.0662 40.5443 75.1613 39.1637 75.1613H36.7458L35.8522 76.4168C35.3606 77.1073 34.4554 78.1219 33.8404 78.6714L32.7225 79.6705H59.0354H85.3484L85.864 79.1537C86.3435 78.673 86.3795 78.5151 86.3795 76.8991V75.1613H70.9425H55.5055L54.9666 74.6967C54.2697 74.0956 54.2214 73.0067 54.8631 72.3633L55.2988 71.9265L70.839 71.8729L86.3795 71.8192V68.9882V66.1571L76.8467 66.101L67.314 66.0449L66.266 65.4631C64.9547 64.7347 64.012 63.6445 63.4944 62.2574C63.118 61.2491 63.0971 60.829 63.1507 55.3802C63.2056 49.7704 63.2226 49.5459 63.6598 48.6562C64.2369 47.4815 65.4197 46.2956 66.5914 45.717C67.5074 45.2647 67.5322 45.2634 76.9445 45.209L86.3795 45.1547V38.9954V32.8363L85.9076 32.2862L85.4356 31.736L53.3007 31.7015C33.8888 31.6808 20.9711 31.7394 20.6745 31.8494ZM67.6667 48.8819C66.3509 49.6863 66.3363 49.7612 66.3363 55.6803C66.3363 60.7645 66.3554 61.0425 66.7395 61.5583C66.9612 61.8561 67.3855 62.2815 67.6824 62.5039C68.2101 62.8991 68.4628 62.9093 78.9631 62.962L89.7037 63.0159V55.7572V48.4984L78.9977 48.4992C68.7309 48.4998 68.2661 48.5154 67.6667 48.8819ZM20.8724 54.126C16.4334 54.8953 12.5466 58.148 10.9484 62.4307C8.01229 70.2981 13.6119 79.0115 21.9802 79.5971C27.9892 80.0179 33.2511 76.3986 35.2697 70.4561C35.555 69.6162 35.635 68.8143 35.6316 66.8291C35.6273 64.2746 35.4814 63.4763 34.6733 61.5838C33.2032 58.1415 29.4106 55.0679 25.6632 54.2817C24.3804 54.0127 21.977 53.9345 20.8724 54.126ZM70.9843 54.1145C70.384 54.2462 69.7583 55.1 69.7583 55.7876C69.7583 56.132 69.9485 56.549 70.2383 56.8394C70.681 57.2834 70.8631 57.3207 72.5936 57.3207C74.3242 57.3207 74.5063 57.2834 74.949 56.8394C75.5999 56.1869 75.5968 55.1945 74.9421 54.5779C74.5311 54.1905 74.2192 54.1115 72.9378 54.069C72.1032 54.0413 71.2241 54.0619 70.9843 54.1145ZM19.2126 58.3341C18.7138 58.7273 18.6815 58.8371 18.7807 59.7993C18.8777 60.7424 18.8366 60.8945 18.3411 61.4262C16.4883 63.4147 16.836 66.6982 19.0482 68.1046C20.2924 68.8957 21.3792 69.0239 22.9907 68.5693C23.7078 68.367 24.4704 68.2252 24.6855 68.2542C25.5148 68.3662 25.8597 69.5525 25.2232 70.1032C25.0349 70.2661 24.4272 70.559 23.8726 70.7539L22.8642 71.1085L22.3826 70.547C21.7146 69.7683 20.625 69.7589 19.967 70.5259C19.3908 71.1977 19.3869 71.7085 19.9508 72.7067C20.5374 73.7454 21.6581 74.3696 22.943 74.374C23.8185 74.3767 23.9657 74.4373 24.1653 74.8768C24.2903 75.1515 24.6722 75.4944 25.0142 75.6385C26.339 76.197 27.4917 75.0958 27.094 73.6515C26.9284 73.0504 26.9679 72.9345 27.5109 72.426C29.2147 70.8301 29.3203 68.2342 27.7522 66.4906C26.4378 65.0286 24.8576 64.6491 22.7021 65.2772C21.7263 65.5617 21.5959 65.5613 21.1565 65.2727C20.8264 65.0559 20.6769 64.7769 20.6769 64.3785C20.6769 63.7206 21.1069 63.3681 22.3572 63.0012C23.1108 62.7801 23.1874 62.7964 23.6683 63.2785C24.6863 64.2991 26.3476 63.617 26.3476 62.1784C26.3476 60.6624 24.7526 59.3869 23.0087 59.5086C22.1194 59.5706 22.0365 59.5368 21.8265 59.0283C21.3587 57.8953 20.1694 57.5795 19.2126 58.3341ZM46.4886 71.9668C45.2983 72.4032 44.9364 73.8189 45.7954 74.68C46.2287 75.1146 46.4344 75.1613 47.92 75.1613C49.2622 75.1613 49.6548 75.0899 50.0561 74.7737C51.0252 74.0095 50.77 72.4568 49.6087 72.0508C48.9605 71.8243 47.0201 71.7722 46.4886 71.9668Z" fill="#556EE6"/>
<g clip-path="url(#clip0_1093_6338)">
<path fill-rule="evenodd" clip-rule="evenodd" d="M63.012 10.1016C62.5818 10.2005 53.5624 14.3244 42.9688 19.2656L23.7078 28.2501L22.0457 28.3701C21.1315 28.4359 20.0699 28.5804 19.6864 28.6908C18.6725 28.9829 17.3685 30.1931 16.8391 31.333L16.3788 32.3242L16.3769 42.2561L16.3749 52.1879L14.9572 52.9691C11.6031 54.8177 8.84921 58.3064 7.57603 62.32C6.89339 64.4724 6.80559 68.1056 7.37638 70.5823C8.83631 76.9171 14.0313 81.7586 20.4813 82.7959C21.3259 82.9318 32.4787 83.0002 53.7237 83L85.6951 82.9994L86.6728 82.5395C87.8155 82.0017 88.5995 81.2604 89.1857 80.1631C89.5873 79.4111 89.6087 79.0905 89.6667 72.8804L89.7273 66.3845L90.8963 66.2996C91.7665 66.2365 92.1759 66.104 92.4978 65.7814C92.93 65.3482 92.9302 65.3458 92.9863 56.0901C93.0172 50.998 92.9941 46.6359 92.935 46.3963C92.727 45.5523 92.0715 45.1655 90.8498 45.1655H89.7232L89.6646 38.6468C89.6061 32.1493 89.6044 32.125 89.1212 31.1765C88.0983 29.1686 86.6743 28.4763 83.2975 28.3452L80.8997 28.252L80.6183 27.2494C80.4637 26.6979 80.0245 25.0742 79.6424 23.6411C79.2601 22.2082 78.8291 20.7525 78.6844 20.4063C77.6942 18.037 75.1034 17.0138 72.114 17.8115C71.5273 17.968 71.035 18.0772 71.0199 18.0542C71.0046 18.0313 70.3343 16.645 69.5303 14.9737C68.0128 11.8198 67.3126 10.9166 65.9594 10.3679C65.0648 10.005 63.8927 9.89912 63.012 10.1016ZM47.4663 20.6837C38.7011 24.7866 31.4928 28.1801 31.448 28.2244C31.4032 28.2689 41.7486 28.3052 54.4376 28.3052H77.5088L76.8887 25.9035C75.7528 21.503 75.6701 21.281 75.043 20.9558C74.7282 20.7927 74.341 20.6592 74.1824 20.6592C74.0238 20.6592 69.2897 21.8943 63.6622 23.4039C58.0346 24.9133 53.2395 26.1484 53.0064 26.1486C52.3132 26.1486 51.9665 25.9384 51.6509 25.3264C51.2735 24.5949 51.4523 23.6882 52.0512 23.2947C52.2956 23.1341 55.9017 22.0872 60.0644 20.9685C64.2271 19.8497 67.6718 18.8953 67.7191 18.8479C67.8607 18.7059 65.6495 14.1277 65.2087 13.6504C64.9289 13.3473 64.5828 13.2114 64.1024 13.2163C63.6014 13.2214 58.8841 15.3389 47.4663 20.6837ZM20.6745 31.8494C19.5977 32.2489 19.6061 32.1752 19.5449 41.8152C19.5138 46.7118 19.5578 50.7871 19.6426 50.8714C19.7275 50.9559 20.4907 50.9316 21.3388 50.8177C23.9974 50.4603 27.41 51.0843 30.0911 52.418C34.7399 54.7305 37.8724 58.9777 38.7822 64.2028C39.1444 66.2818 39.0609 68.8583 38.5734 70.6521C38.4123 71.2452 38.2793 71.7439 38.2781 71.7604C38.2767 71.7771 39.1027 71.8212 40.1133 71.8584C41.5513 71.9118 42.0365 72.0041 42.3444 72.2841C43.1818 73.0443 43.0294 74.5 42.0664 74.9398C41.7897 75.0662 40.5443 75.1613 39.1637 75.1613H36.7458L35.8522 76.4168C35.3606 77.1073 34.4554 78.1219 33.8404 78.6714L32.7225 79.6705H59.0354H85.3484L85.864 79.1537C86.3435 78.673 86.3794 78.5151 86.3794 76.8991V75.1613H70.9425H55.5055L54.9666 74.6967C54.2697 74.0956 54.2214 73.0067 54.8631 72.3633L55.2988 71.9265L70.839 71.8729L86.3794 71.8192V68.9882V66.1571L76.8467 66.101L67.314 66.0449L66.266 65.4631C64.9547 64.7347 64.012 63.6445 63.4944 62.2574C63.118 61.2491 63.0971 60.829 63.1507 55.3802C63.2056 49.7704 63.2226 49.5459 63.6598 48.6562C64.2369 47.4815 65.4197 46.2956 66.5914 45.717C67.5074 45.2647 67.5322 45.2634 76.9445 45.2091L86.3794 45.1547V38.9954V32.8363L85.9076 32.2862L85.4356 31.736L53.3007 31.7015C33.8887 31.6808 20.9711 31.7394 20.6745 31.8494ZM67.6667 48.8819C66.3509 49.6863 66.3362 49.7612 66.3362 55.6803C66.3362 60.7645 66.3554 61.0425 66.7395 61.5583C66.9612 61.8561 67.3855 62.2815 67.6824 62.5039C68.2101 62.8991 68.4628 62.9093 78.9631 62.962L89.7037 63.0159V55.7572V48.4984L78.9977 48.4992C68.7309 48.4998 68.2661 48.5154 67.6667 48.8819ZM20.8724 54.126C16.4334 54.8953 12.5465 58.148 10.9484 62.4307C8.01229 70.2981 13.6119 79.0115 21.9802 79.5971C27.9892 80.0179 33.2511 76.3986 35.2697 70.4561C35.555 69.6162 35.635 68.8144 35.6316 66.8291C35.6273 64.2746 35.4814 63.4763 34.6733 61.5838C33.2032 58.1415 29.4106 55.0679 25.6632 54.2817C24.3804 54.0127 21.977 53.9345 20.8724 54.126ZM70.9843 54.1145C70.384 54.2462 69.7583 55.1 69.7583 55.7876C69.7583 56.132 69.9485 56.549 70.2383 56.8394C70.681 57.2834 70.8631 57.3207 72.5936 57.3207C74.3242 57.3207 74.5063 57.2834 74.949 56.8394C75.5999 56.1869 75.5968 55.1945 74.9421 54.5779C74.5311 54.1905 74.2192 54.1115 72.9378 54.069C72.1032 54.0413 71.2241 54.0619 70.9843 54.1145ZM19.2126 58.3341C18.7138 58.7273 18.6815 58.8371 18.7807 59.7994C18.8777 60.7424 18.8366 60.8945 18.3411 61.4262C16.4883 63.4147 16.836 66.6982 19.0482 68.1046C20.2924 68.8957 21.3792 69.0239 22.9907 68.5693C23.7078 68.367 24.4704 68.2252 24.6855 68.2542C25.5148 68.3662 25.8597 69.5525 25.2232 70.1032C25.0349 70.2661 24.4272 70.559 23.8726 70.7539L22.8642 71.1085L22.3826 70.547C21.7146 69.7683 20.625 69.7589 19.967 70.5259C19.3908 71.1977 19.3869 71.7085 19.9508 72.7067C20.5374 73.7454 21.6581 74.3697 22.943 74.374C23.8185 74.3767 23.9657 74.4373 24.1653 74.8768C24.2903 75.1515 24.6722 75.4944 25.0142 75.6385C26.339 76.197 27.4917 75.0958 27.094 73.6515C26.9284 73.0504 26.9679 72.9346 27.5109 72.426C29.2147 70.8301 29.3203 68.2342 27.7522 66.4906C26.4378 65.0286 24.8576 64.6491 22.7021 65.2772C21.7263 65.5617 21.5959 65.5613 21.1565 65.2727C20.8264 65.0559 20.6769 64.7769 20.6769 64.3785C20.6769 63.7206 21.1069 63.3681 22.3572 63.0013C23.1108 62.7801 23.1874 62.7964 23.6683 63.2785C24.6863 64.2991 26.3476 63.617 26.3476 62.1784C26.3476 60.6624 24.7526 59.3869 23.0087 59.5086C22.1194 59.5706 22.0365 59.5368 21.8265 59.0283C21.3587 57.8953 20.1694 57.5795 19.2126 58.3341ZM46.4886 71.9668C45.2983 72.4033 44.9364 73.8189 45.7954 74.68C46.2287 75.1146 46.4344 75.1613 47.92 75.1613C49.2622 75.1613 49.6548 75.0899 50.0561 74.7737C51.0252 74.0095 50.77 72.4568 49.6087 72.0508C48.9605 71.8243 47.0201 71.7722 46.4886 71.9668Z" fill="#FD6161"/>
</g>
<defs>
<clipPath id="clip0_1093_6338">
<rect x="5.45117" y="50" width="34" height="33" rx="16.5" fill="white"/>
</clipPath>
</defs>
</svg>
