<svg width="206" height="201" viewBox="0 0 206 201" fill="none" xmlns="http://www.w3.org/2000/svg">
<path d="M145.105 0.926758H144.298V43.9578H145.105V0.926758Z" fill="#EBEBEB"/>
<path d="M146.939 40.3701H142.463V43.3966H146.939V40.3701Z" fill="#DBDBDB"/>
<path d="M146.939 41.3794H142.463V43.3985H146.939V41.3794Z" fill="#C7C7C7"/>
<path d="M145.486 66.7756C147.339 66.3397 148.487 64.4847 148.051 62.6322C147.615 60.7798 145.76 59.6314 143.908 60.0673C142.055 60.5031 140.907 62.3582 141.343 64.2106C141.779 66.0631 143.634 67.2115 145.486 66.7756Z" fill="#EBEBEB"/>
<path d="M155.915 63.425H133.485L137.546 56.2281L140.86 42.8599H148.54L151.854 56.2281L155.915 63.425Z" fill="#DBDBDB"/>
<path d="M103.4 0.926758H102.594V36.8794H103.4V0.926758Z" fill="#EBEBEB"/>
<path d="M105.239 33.292H100.763V36.3184H105.239V33.292Z" fill="#DBDBDB"/>
<path d="M105.239 34.2979H100.763V36.317H105.239V34.2979Z" fill="#C7C7C7"/>
<path d="M106.446 56.3462C106.443 57.0271 106.239 57.6919 105.859 58.2568C105.479 58.8216 104.939 59.2612 104.31 59.5199C103.68 59.7786 102.987 59.8449 102.32 59.7104C101.652 59.5759 101.04 59.2466 100.559 58.7642C100.079 58.2817 99.7518 57.6677 99.6199 56.9997C99.4881 56.3317 99.5571 55.6395 99.8183 55.0107C100.079 54.3819 100.521 53.8445 101.087 53.4665C101.654 53.0885 102.319 52.8867 103 52.8867C103.454 52.8861 103.904 52.9753 104.323 53.1491C104.742 53.3229 105.123 53.5779 105.443 53.8994C105.763 54.221 106.017 54.6027 106.189 55.0226C106.361 55.4425 106.449 55.8923 106.446 56.3462Z" fill="#EBEBEB"/>
<path d="M114.21 56.3469H91.7852L95.8462 49.15L99.1598 35.7817H106.835L110.149 49.15L114.21 56.3469Z" fill="#DBDBDB"/>
<path d="M63.3995 0.926758H62.5928V29.4865H63.3995V0.926758Z" fill="#EBEBEB"/>
<path d="M65.2317 25.8989H60.7559V28.9254H65.2317V25.8989Z" fill="#DBDBDB"/>
<path d="M65.2317 26.9087H60.7559V28.9278H65.2317V26.9087Z" fill="#C7C7C7"/>
<path d="M66.4423 48.9546C66.4423 49.6361 66.2402 50.3023 65.8616 50.8689C65.483 51.4356 64.9448 51.8772 64.3152 52.138C63.6856 52.3988 62.9927 52.4671 62.3243 52.3341C61.6559 52.2011 61.0419 51.873 60.56 51.3911C60.0781 50.9092 59.7499 50.2952 59.617 49.6268C59.484 48.9584 59.5523 48.2655 59.8131 47.6359C60.0739 47.0063 60.5155 46.4681 61.0822 46.0895C61.6488 45.7109 62.315 45.5088 62.9965 45.5088C63.9104 45.5088 64.7869 45.8718 65.4331 46.518C66.0793 47.1642 66.4423 48.0407 66.4423 48.9546Z" fill="#EBEBEB"/>
<path d="M74.2096 48.9538H51.7803L55.8413 41.7524L59.1549 28.3887H66.835L70.1485 41.7524L74.2096 48.9538Z" fill="#DBDBDB"/>
<path d="M189.703 153.499C183.268 162.209 176.563 172.305 174.927 183.244C174.927 183.412 175.173 183.467 175.214 183.303C175.952 180.322 176.903 177.397 178.058 174.552C182.288 173.389 186.435 172.432 188.66 168.234C190.939 163.923 190.633 158.294 190.205 153.595C190.173 153.344 189.831 153.33 189.703 153.499Z" fill="#EBEBEB"/>
<path d="M178.123 174.469C181.013 167.988 184.723 161.474 189.436 156.142C189.468 156.105 189.518 156.142 189.491 156.196C186.4 159.993 184.058 164.127 181.765 168.339C183.893 166.174 186.227 164.236 188.246 161.957C188.287 161.912 188.346 161.98 188.31 162.021C186.309 164.428 184.117 167.035 181.51 168.817C180.808 170.112 180.106 171.406 179.39 172.7C179.563 172.6 179.746 172.514 179.924 172.427C179.955 172.427 179.983 172.459 179.951 172.473C179.755 172.573 179.554 172.678 179.349 172.769C179.012 173.38 178.675 173.995 178.328 174.592C178.251 174.729 178.059 174.606 178.123 174.469Z" fill="#A6A6A6"/>
<path d="M180.268 172.209C181.998 171.24 183.65 170.138 185.209 168.913C185.25 168.877 185.309 168.936 185.268 168.973C183.759 170.276 182.106 171.403 180.341 172.332C180.259 172.373 180.191 172.254 180.268 172.209Z" fill="#A6A6A6"/>
<path d="M174.183 181.619C174.183 181.751 174.42 181.751 174.42 181.619C174.452 178.018 174.42 174.403 174.474 170.794C175.386 168.929 177.378 167.904 178.75 166.413C179.739 165.325 180.6 164.126 181.316 162.84C182.975 159.769 183.988 156.391 184.292 152.913C184.675 149.066 183.212 136.368 181.589 136.805C180.751 137.038 178.029 143.328 177.305 145.406C176.135 148.836 175.278 152.364 174.743 155.949C173.431 164.403 173.54 173.1 174.183 181.619Z" fill="#EBEBEB"/>
<path d="M174.157 166.1C174.353 161.542 175.379 156.952 176.34 152.536C177.375 147.777 178.583 143.302 181.031 139.058C181.04 139.042 181.055 139.03 181.073 139.025C181.091 139.02 181.11 139.022 181.126 139.031C181.143 139.04 181.155 139.055 181.16 139.073C181.165 139.091 181.163 139.11 181.154 139.127C179.52 142.426 178.256 145.896 177.384 149.473C177.548 149.218 177.749 148.976 177.917 148.73C177.986 148.634 178.141 148.73 178.077 148.826C177.857 149.209 177.601 149.571 177.311 149.906C177.311 149.906 177.288 149.906 177.279 149.906C176.436 153.306 175.83 156.784 175.315 160.252L175.429 160.116C175.435 160.112 175.442 160.11 175.45 160.11C175.457 160.11 175.465 160.113 175.47 160.117C175.476 160.122 175.481 160.128 175.483 160.135C175.486 160.142 175.486 160.149 175.484 160.157C175.42 160.275 175.347 160.389 175.278 160.503C175.014 162.262 174.773 164.022 174.531 165.763C177.667 163.083 180.342 159.924 181.851 156.032C181.851 156.032 181.887 156.032 181.883 156.032C180.402 160.07 178.072 163.657 174.481 166.105C174.417 166.56 174.349 167.044 174.285 167.513C174.285 167.609 174.116 167.581 174.116 167.49C174.116 167.075 174.116 166.656 174.153 166.241C174.143 166.232 174.136 166.221 174.131 166.209C174.126 166.196 174.123 166.183 174.124 166.17C174.124 166.156 174.127 166.143 174.133 166.131C174.139 166.119 174.147 166.109 174.157 166.1Z" fill="#A6A6A6"/>
<path d="M175.634 159.503C178.031 155.925 180.269 152.452 182.015 148.501C182.015 148.459 182.111 148.501 182.092 148.537C180.616 152.461 178.546 156.44 175.748 159.594C175.698 159.658 175.588 159.576 175.634 159.503Z" fill="#A6A6A6"/>
<path d="M178.82 147.623C179.813 145.864 180.857 144.154 181.791 142.368C181.819 142.318 181.887 142.368 181.869 142.409C181.101 144.271 180.13 146.042 178.974 147.691C178.906 147.801 178.76 147.723 178.82 147.623Z" fill="#A6A6A6"/>
<path d="M178.432 148.385V148.417C178.432 148.417 178.414 148.385 178.432 148.385Z" fill="#A6A6A6"/>
<path d="M171.75 171.215C171.702 173.601 171.421 175.976 170.911 178.307C170.952 178.562 170.989 178.817 171.025 179.082C171.755 176.506 172.176 173.853 172.279 171.178C172.3 171.142 172.312 171.1 172.312 171.058C172.312 171.015 172.3 170.973 172.279 170.937C172.384 167.35 172.118 163.762 171.486 160.23C170.374 153.621 167.94 147.272 163.327 142.318C163.289 142.286 163.244 142.263 163.195 142.25C163.146 142.238 163.096 142.237 163.047 142.247C162.997 142.257 162.951 142.278 162.912 142.309C162.872 142.339 162.839 142.378 162.817 142.423C160.957 147.154 161.604 152.801 163.19 157.518C164.049 160.075 165.277 162.492 166.837 164.693C168.45 166.908 170.456 168.785 171.75 171.215Z" fill="#EBEBEB"/>
<path d="M163.893 144.523C168.259 151.615 171.304 160.02 171.673 168.402C171.673 168.552 171.432 168.589 171.409 168.438C171.309 167.686 171.19 166.939 171.072 166.196C169.249 164.464 167.425 162.636 166.113 160.471C166.11 160.463 166.11 160.454 166.113 160.446C166.115 160.437 166.121 160.43 166.128 160.425C166.135 160.42 166.143 160.417 166.152 160.417C166.161 160.417 166.17 160.42 166.176 160.426C167.749 162.222 169.217 164.072 170.994 165.667C170.68 163.812 170.31 161.989 169.868 160.198L169.522 159.792C169.449 159.706 169.577 159.573 169.654 159.665L169.759 159.778C169.144 157.318 168.383 154.897 167.48 152.527C166.368 151.196 165.124 150.052 164.312 148.452C164.29 148.411 164.344 148.384 164.372 148.42C165.023 149.332 165.652 150.243 166.391 151.1C166.687 151.438 167.011 151.757 167.302 152.085C166.293 149.515 165.097 147.023 163.724 144.628C163.715 144.606 163.713 144.581 163.72 144.558C163.727 144.535 163.743 144.515 163.763 144.502C163.784 144.49 163.808 144.485 163.832 144.489C163.856 144.492 163.877 144.505 163.893 144.523Z" fill="#A6A6A6"/>
<path d="M164.771 153.273C166.184 155.174 167.798 156.988 169.111 158.952C169.147 159.007 169.065 159.066 169.019 159.02C167.328 157.439 165.902 155.278 164.68 153.328C164.639 153.264 164.73 153.214 164.771 153.273Z" fill="#A6A6A6"/>
<path d="M169.306 159.392L169.366 159.452C169.407 159.497 169.343 159.561 169.302 159.52L169.243 159.456C169.236 159.447 169.233 159.437 169.234 159.426C169.234 159.415 169.239 159.404 169.247 159.397C169.255 159.389 169.265 159.384 169.276 159.383C169.287 159.383 169.298 159.386 169.306 159.392Z" fill="#A6A6A6"/>
<path d="M157.042 158.175C157.393 161.821 159.321 166.183 161.654 168.995C162.684 170.218 163.959 171.212 165.396 171.912C167.014 172.714 168.71 173.64 170.41 174.296C171.206 176.324 171.797 178.426 172.174 180.572L172.338 180.016C171.262 170.777 165.282 162.883 157.639 157.815C157.579 157.768 157.507 157.741 157.432 157.737C157.356 157.733 157.281 157.751 157.217 157.79C157.152 157.829 157.101 157.887 157.07 157.955C157.038 158.024 157.029 158.1 157.042 158.175Z" fill="#EBEBEB"/>
<path d="M159.686 160.909C159.631 160.864 159.686 160.768 159.764 160.809C163.965 163.935 167.315 168.064 169.508 172.819C169.563 172.946 169.39 173.056 169.317 172.928C168.961 172.321 168.6 171.713 168.232 171.105C166.487 170.777 164.832 169.551 163.538 168.37C163.501 168.338 163.538 168.288 163.588 168.316C164.257 168.924 164.999 169.446 165.798 169.87C166.509 170.23 167.275 170.458 168.013 170.75C167.366 169.719 166.696 168.735 165.99 167.782C164.106 167.062 162.338 166.068 160.744 164.833C160.693 164.797 160.744 164.715 160.794 164.747C162.371 165.703 163.999 166.573 165.671 167.354C164.606 165.948 163.457 164.609 162.229 163.343C161.632 163.029 161.031 162.714 160.456 162.377C160.449 162.369 160.443 162.36 160.441 162.349C160.439 162.339 160.44 162.328 160.445 162.318C160.45 162.309 160.457 162.301 160.467 162.296C160.476 162.29 160.487 162.289 160.497 162.29C160.978 162.456 161.438 162.68 161.865 162.956C161.158 162.249 160.429 161.561 159.686 160.909Z" fill="#A6A6A6"/>
<path d="M159.847 164.098C159.949 164.161 160.047 164.231 160.139 164.308C160.143 164.314 160.146 164.32 160.146 164.328C160.146 164.335 160.144 164.342 160.14 164.348C160.136 164.353 160.13 164.358 160.123 164.359C160.116 164.361 160.109 164.361 160.102 164.358C159.996 164.308 159.894 164.25 159.797 164.185C159.786 164.178 159.779 164.167 159.776 164.155C159.773 164.142 159.775 164.129 159.781 164.118C159.788 164.107 159.798 164.099 159.81 164.095C159.822 164.092 159.835 164.093 159.847 164.098Z" fill="#A6A6A6"/>
<path d="M184.247 200.561H163.294L164.985 181.477L165.354 177.27H182.186L182.556 181.477L184.247 200.561Z" fill="#C7C7C7"/>
<path d="M182.556 181.477H164.985L165.355 177.27H182.187L182.556 181.477Z" fill="#A6A6A6"/>
<path d="M183.191 174.329H164.357V178.495H183.191V174.329Z" fill="#C7C7C7"/>
<path d="M79.9086 145.106H22.1875V105.617H79.9086V145.106ZM22.6433 144.65H79.4528V106.072H22.6433V144.65Z" fill="#EBEBEB"/>
<path d="M26.6995 108.158C26.6995 108.386 26.6322 108.608 26.5059 108.796C26.3797 108.985 26.2004 109.133 25.9905 109.22C25.7806 109.306 25.5497 109.329 25.3269 109.285C25.104 109.241 24.8994 109.131 24.7388 108.971C24.5781 108.81 24.4687 108.605 24.4244 108.382C24.3801 108.16 24.4028 107.929 24.4898 107.719C24.5767 107.509 24.7239 107.33 24.9128 107.203C25.1017 107.077 25.3238 107.01 25.5509 107.01C25.8556 107.01 26.1477 107.131 26.3631 107.346C26.5785 107.562 26.6995 107.854 26.6995 108.158Z" fill="#A6A6A6"/>
<path d="M31.3919 108.158C31.3919 108.386 31.3245 108.608 31.1983 108.796C31.0721 108.985 30.8927 109.133 30.6829 109.22C30.473 109.306 30.242 109.329 30.0192 109.285C29.7964 109.241 29.5918 109.131 29.4311 108.971C29.2705 108.81 29.1611 108.605 29.1168 108.382C29.0725 108.16 29.0952 107.929 29.1822 107.719C29.2691 107.509 29.4163 107.33 29.6052 107.203C29.7941 107.077 30.0161 107.01 30.2433 107.01C30.5479 107.01 30.8401 107.131 31.0555 107.346C31.2709 107.562 31.3919 107.854 31.3919 108.158Z" fill="#EBEBEB"/>
<path d="M36.0823 108.158C36.0823 108.386 36.015 108.608 35.8888 108.796C35.7625 108.985 35.5832 109.133 35.3733 109.22C35.1634 109.306 34.9325 109.329 34.7097 109.285C34.4869 109.241 34.2822 109.131 34.1216 108.971C33.9609 108.81 33.8515 108.605 33.8072 108.382C33.7629 108.16 33.7857 107.929 33.8726 107.719C33.9595 107.509 34.1067 107.33 34.2956 107.203C34.4845 107.077 34.7066 107.01 34.9337 107.01C35.0847 107.009 35.2344 107.038 35.374 107.096C35.5136 107.153 35.6405 107.238 35.7473 107.345C35.854 107.452 35.9386 107.578 35.9961 107.718C36.0536 107.858 36.0829 108.007 36.0823 108.158Z" fill="#FFC727"/>
<path d="M79.6823 110.183H22.417V110.638H79.6823V110.183Z" fill="#EBEBEB"/>
<path d="M166.484 125.561C165.58 126.124 164.592 126.538 163.557 126.787C161.077 127.393 158.46 127.042 156.227 125.804C153.994 124.566 152.311 122.531 151.512 120.106C150.713 117.682 150.857 115.045 151.917 112.722C152.976 110.399 154.872 108.561 157.227 107.574C159.582 106.587 162.222 106.525 164.621 107.399C167.02 108.273 169.001 110.019 170.169 112.289C171.337 114.559 171.607 117.186 170.924 119.646C170.241 122.106 168.655 124.218 166.484 125.561Z" fill="#EBEBEB"/>
<path d="M164.238 115.784C164.238 116.395 164.057 116.991 163.718 117.499C163.379 118.006 162.897 118.402 162.333 118.635C161.769 118.869 161.149 118.93 160.55 118.811C159.952 118.692 159.402 118.398 158.97 117.966C158.539 117.535 158.245 116.985 158.126 116.386C158.007 115.788 158.068 115.167 158.301 114.604C158.535 114.04 158.93 113.558 159.438 113.219C159.945 112.88 160.542 112.699 161.152 112.699C161.97 112.7 162.754 113.025 163.333 113.604C163.911 114.182 164.237 114.966 164.238 115.784Z" fill="white"/>
<path d="M166.483 124.29V125.561C165.58 126.125 164.592 126.539 163.557 126.787C162.249 127.11 160.889 127.168 159.558 126.956C158.227 126.745 156.952 126.269 155.809 125.557V124.29C155.809 122.875 156.37 121.519 157.371 120.519C158.371 119.519 159.727 118.957 161.141 118.957C162.556 118.957 163.912 119.519 164.912 120.519C165.912 121.519 166.474 122.875 166.474 124.29H166.483Z" fill="white"/>
<path d="M0.985352 200.698L26.4913 200.589L51.9926 200.548L103 200.47L154.007 200.548L179.513 200.589L205.015 200.698L179.513 200.812L154.007 200.849L103 200.926L51.9926 200.849L26.4913 200.812L0.985352 200.698Z" fill="#263238"/>
<path d="M81.1329 195.884H23.0654V200.692H81.1329V195.884Z" fill="#455A64"/>
<path d="M191.695 195.884H81.1299V200.692H191.695V195.884Z" fill="#37474F"/>
<path d="M133.642 195.886H23.068L7.99512 124.979H118.569L133.642 195.886Z" fill="#263238"/>
<path d="M57.9928 191.404H26.5935L13.4258 129.453H44.8251L57.9928 191.404Z" fill="white"/>
<path d="M25.9398 152.706C25.7204 152.862 25.4728 152.975 25.2106 153.038C24.4685 153.209 23.6891 153.09 23.0319 152.706C22.3332 152.325 21.7743 151.731 21.4366 151.01C20.7621 149.524 21.35 148.029 22.7584 147.669C24.1668 147.309 25.8532 148.216 26.5323 149.697C27.0793 150.91 26.8013 152.113 25.9398 152.706Z" fill="#C7C7C7"/>
<path d="M24.7545 150.057C24.781 150.156 24.7838 150.26 24.7626 150.361C24.7415 150.462 24.6969 150.556 24.6326 150.636C24.5683 150.716 24.486 150.78 24.3924 150.823C24.2988 150.866 24.1964 150.886 24.0936 150.882C23.8551 150.873 23.6259 150.786 23.4415 150.635C23.257 150.483 23.1274 150.275 23.0727 150.043C23.0437 149.942 23.0391 149.836 23.0591 149.734C23.079 149.631 23.1231 149.535 23.1876 149.452C23.2521 149.37 23.3353 149.304 23.4302 149.26C23.5251 149.216 23.6291 149.196 23.7336 149.2C23.9741 149.211 24.2044 149.301 24.3889 149.456C24.5733 149.61 24.7018 149.822 24.7545 150.057Z" fill="white"/>
<path d="M25.8587 152.377L25.9317 152.724C25.7122 152.881 25.4646 152.994 25.2024 153.057C24.4603 153.228 23.6809 153.109 23.0237 152.724L22.9508 152.377C22.9008 152.204 22.8927 152.021 22.9274 151.843C22.9621 151.666 23.0385 151.499 23.1502 151.357C23.262 151.215 23.4059 151.102 23.5702 151.026C23.7344 150.951 23.9143 150.916 24.0948 150.923C24.5068 150.942 24.9016 151.093 25.2198 151.356C25.538 151.618 25.7622 151.976 25.8587 152.377Z" fill="white"/>
<path d="M40.9528 148.69H28.3594L28.127 147.605H40.7204L40.9528 148.69Z" fill="#C7C7C7"/>
<path d="M45.9873 150.682H28.7813L28.6445 150.057H45.8551L45.9873 150.682Z" fill="#C7C7C7"/>
<path d="M46.2773 152.029H29.0667L28.9346 151.404H46.1406L46.2773 152.029Z" fill="#C7C7C7"/>
<path d="M27.7955 161.362C27.5773 161.518 27.3313 161.631 27.0708 161.695C26.3273 161.866 25.5464 161.747 24.8876 161.362C24.1892 160.982 23.6315 160.388 23.2969 159.667C22.6178 158.181 23.2058 156.686 24.6141 156.326C26.0225 155.966 27.7089 156.873 28.3881 158.354C28.9122 159.539 28.6342 160.756 27.7955 161.362Z" fill="#FFC727"/>
<path d="M26.5914 158.704C26.6206 158.804 26.6253 158.91 26.6054 159.012C26.5854 159.115 26.5413 159.211 26.4766 159.293C26.412 159.375 26.3288 159.44 26.2338 159.484C26.1388 159.527 26.0348 159.547 25.9305 159.542C25.6922 159.533 25.4635 159.446 25.2791 159.294C25.0948 159.143 24.9651 158.936 24.9096 158.704C24.8806 158.603 24.876 158.497 24.896 158.394C24.9159 158.292 24.96 158.195 25.0245 158.113C25.089 158.031 25.1722 157.965 25.2671 157.921C25.362 157.877 25.466 157.856 25.5705 157.86C25.8092 157.871 26.038 157.959 26.2223 158.111C26.4065 158.263 26.5361 158.471 26.5914 158.704Z" fill="white"/>
<path d="M27.6992 161.024L27.795 161.365C27.5767 161.521 27.3307 161.634 27.0702 161.698C26.3267 161.869 25.5458 161.75 24.887 161.365L24.8141 161.019C24.764 160.845 24.756 160.662 24.7907 160.485C24.8254 160.307 24.9017 160.141 25.0135 159.999C25.1253 159.857 25.2692 159.743 25.4335 159.668C25.5977 159.593 25.7776 159.557 25.9581 159.565C26.3667 159.588 26.7568 159.743 27.0705 160.006C27.3842 160.268 27.6047 160.625 27.6992 161.024Z" fill="white"/>
<path d="M42.7898 157.34H30.1963L29.9639 156.251H42.5619L42.7898 157.34Z" fill="#C7C7C7"/>
<path d="M47.8294 159.327H30.6234L30.4912 158.703H47.6972L47.8294 159.327Z" fill="#C7C7C7"/>
<path d="M48.1133 160.674H30.9072L30.7705 160.05H47.9811L48.1133 160.674Z" fill="#C7C7C7"/>
<path d="M29.6164 170.023C29.3981 170.179 29.1522 170.292 28.8917 170.356C28.1452 170.529 27.3606 170.41 26.6993 170.023C26.0009 169.643 25.4432 169.049 25.1086 168.327C24.4295 166.846 25.022 165.347 26.4259 164.987C27.8297 164.626 29.5252 165.534 30.2043 167.015C30.7467 168.2 30.4687 169.403 29.6164 170.023Z" fill="#455A64"/>
<path d="M28.4304 167.347C28.4622 167.448 28.469 167.555 28.4503 167.66C28.4316 167.764 28.3879 167.862 28.3229 167.946C28.258 168.03 28.1737 168.096 28.0773 168.141C27.9809 168.185 27.8753 168.205 27.7695 168.199C27.5311 168.19 27.3024 168.103 27.1181 167.951C26.9338 167.8 26.804 167.592 26.7485 167.361C26.7194 167.26 26.7148 167.153 26.735 167.05C26.7552 166.947 26.7997 166.85 26.8648 166.768C26.9298 166.686 27.0135 166.62 27.109 166.576C27.2046 166.533 27.3091 166.512 27.414 166.517C27.6503 166.527 27.8771 166.613 28.0603 166.763C28.2436 166.912 28.3734 167.117 28.4304 167.347Z" fill="white"/>
<path d="M29.5343 169.668L29.6163 170.024C29.398 170.18 29.1521 170.293 28.8916 170.356C28.1452 170.53 27.3605 170.411 26.6993 170.024L26.6263 169.677C26.5721 169.5 26.5617 169.313 26.5958 169.131C26.63 168.949 26.7078 168.778 26.8226 168.633C26.9373 168.488 27.0855 168.373 27.2546 168.297C27.4237 168.222 27.6085 168.189 27.7932 168.201C28.2032 168.224 28.5946 168.379 28.9086 168.644C29.2226 168.909 29.4421 169.268 29.5343 169.668Z" fill="white"/>
<path d="M44.6316 165.986H32.0336L31.8057 164.896H44.3991L44.6316 165.986Z" fill="#C7C7C7"/>
<path d="M49.6644 167.973H32.4584L32.3262 167.348H49.5322L49.6644 167.973Z" fill="#C7C7C7"/>
<path d="M49.9485 169.324H32.7425L32.6104 168.699H49.8164L49.9485 169.324Z" fill="#C7C7C7"/>
<path d="M31.4407 178.684C31.2222 178.84 30.9764 178.954 30.716 179.021C29.9718 179.188 29.1919 179.067 28.5328 178.684C27.8364 178.301 27.2794 177.707 26.9421 176.988C26.2675 175.493 26.8828 173.984 28.2502 173.624C29.6176 173.264 31.345 174.171 32.0241 175.653C32.5847 176.86 32.3113 178.05 31.4407 178.684Z" fill="#263238"/>
<path d="M30.2713 175.995C30.3033 176.096 30.3106 176.203 30.2928 176.308C30.2749 176.412 30.2323 176.511 30.1685 176.596C30.1047 176.68 30.0216 176.749 29.9261 176.795C29.8306 176.841 29.7255 176.863 29.6195 176.861C29.3808 176.85 29.1519 176.762 28.9677 176.61C28.7834 176.458 28.6538 176.25 28.5985 176.017C28.5705 175.917 28.5666 175.811 28.5873 175.708C28.6079 175.605 28.6525 175.509 28.7173 175.427C28.7821 175.345 28.8654 175.279 28.9604 175.235C29.0554 175.191 29.1594 175.17 29.264 175.174C29.4973 175.186 29.7208 175.272 29.9019 175.42C30.083 175.567 30.2124 175.769 30.2713 175.995Z" fill="white"/>
<path d="M31.3717 178.315L31.44 178.684C31.2215 178.84 30.9757 178.955 30.7153 179.021C29.9711 179.188 29.1912 179.068 28.5321 178.684L28.4592 178.337C28.4053 178.161 28.3948 177.975 28.4285 177.794C28.4622 177.612 28.5392 177.442 28.6529 177.297C28.7665 177.152 28.9135 177.037 29.0814 176.961C29.2492 176.885 29.4329 176.85 29.6169 176.861C30.0277 176.879 30.4212 177.031 30.7378 177.294C31.0544 177.556 31.277 177.914 31.3717 178.315Z" fill="white"/>
<path d="M46.4665 174.631H33.8685L33.6406 173.542H46.2341L46.4665 174.631Z" fill="#C7C7C7"/>
<path d="M51.5013 176.618H34.2953L34.1631 175.993H51.3691L51.5013 176.618Z" fill="#C7C7C7"/>
<path d="M51.7855 177.969H34.5794L34.4473 177.345H51.6533L51.7855 177.969Z" fill="#C7C7C7"/>
<path d="M33.2845 187.306C33.0644 187.463 32.8171 187.577 32.5553 187.644C31.8125 187.811 31.034 187.69 30.3766 187.306C29.6779 186.925 29.119 186.331 28.7813 185.611C28.1068 184.129 28.6948 182.63 30.1031 182.27C31.5115 181.91 33.1979 182.817 33.8771 184.303C34.424 185.52 34.146 186.695 33.2845 187.306Z" fill="#C7C7C7"/>
<path d="M32.1061 184.64C32.1352 184.741 32.1398 184.847 32.1196 184.95C32.0993 185.053 32.0549 185.15 31.9898 185.233C31.9248 185.315 31.841 185.381 31.7455 185.424C31.65 185.468 31.5455 185.488 31.4406 185.483C31.2025 185.473 30.9743 185.385 30.7908 185.232C30.6073 185.08 30.4786 184.872 30.4242 184.64C30.3953 184.54 30.3906 184.434 30.4106 184.331C30.4306 184.228 30.4747 184.132 30.5392 184.05C30.6037 183.967 30.6868 183.901 30.7817 183.858C30.8766 183.814 30.9806 183.793 31.0851 183.797C31.3239 183.807 31.5527 183.895 31.7369 184.047C31.9212 184.2 32.0508 184.408 32.1061 184.64Z" fill="white"/>
<path d="M33.2114 186.96L33.2843 187.307C33.0642 187.463 32.8169 187.578 32.5551 187.644C31.8123 187.811 31.0338 187.691 30.3764 187.307L30.2989 186.96C30.2526 186.788 30.2473 186.607 30.2834 186.432C30.3194 186.258 30.3959 186.094 30.5066 185.954C30.6173 185.814 30.7593 185.702 30.9211 185.626C31.0829 185.551 31.26 185.515 31.4384 185.52C31.8499 185.536 32.2451 185.685 32.5647 185.945C32.8843 186.205 33.1112 186.561 33.2114 186.96Z" fill="white"/>
<path d="M48.3054 183.28H35.7119L35.4795 182.191H48.0775L48.3054 183.28Z" fill="#C7C7C7"/>
<path d="M53.3408 185.267H36.1348L35.998 184.643H53.2041L53.3408 185.267Z" fill="#C7C7C7"/>
<path d="M53.6289 186.614H36.4183L36.2861 185.99H53.4921L53.6289 186.614Z" fill="#C7C7C7"/>
<path d="M21.2078 137.975C21.0701 138.072 20.9156 138.143 20.752 138.185C20.2862 138.292 19.7968 138.217 19.3846 137.975C18.9509 137.739 18.6043 137.37 18.3956 136.922C17.9717 136.01 18.3409 135.067 19.216 134.839C19.6932 134.758 20.1839 134.838 20.6101 135.068C21.0363 135.297 21.3734 135.663 21.5679 136.106C21.7378 136.41 21.7949 136.764 21.729 137.106C21.6631 137.448 21.4785 137.756 21.2078 137.975Z" fill="#C7C7C7"/>
<path d="M20.4711 136.296C20.4892 136.359 20.4922 136.425 20.4799 136.489C20.4676 136.552 20.4403 136.612 20.4002 136.664C20.3601 136.715 20.3085 136.756 20.2495 136.783C20.1905 136.81 20.1259 136.823 20.0609 136.821C19.9125 136.815 19.7702 136.76 19.6558 136.665C19.5414 136.571 19.4611 136.441 19.4274 136.296C19.4093 136.234 19.4063 136.168 19.4186 136.104C19.4309 136.041 19.4582 135.981 19.4983 135.929C19.5384 135.878 19.59 135.837 19.649 135.81C19.708 135.783 19.7726 135.77 19.8376 135.772C19.9857 135.779 20.1277 135.834 20.242 135.928C20.3562 136.023 20.4367 136.152 20.4711 136.296Z" fill="white"/>
<path d="M21.1586 137.758L21.2087 137.973C21.0711 138.07 20.9165 138.141 20.753 138.182C20.2871 138.29 19.7978 138.215 19.3856 137.973L19.34 137.758C19.309 137.65 19.3041 137.535 19.3259 137.424C19.3476 137.313 19.3954 137.209 19.4652 137.12C19.535 137.031 19.6249 136.96 19.7276 136.912C19.8302 136.865 19.9426 136.842 20.0556 136.847C20.3139 136.857 20.5617 136.952 20.761 137.116C20.9602 137.281 21.0999 137.507 21.1586 137.758Z" fill="white"/>
<path d="M42.7656 136.889C42.7603 136.872 42.7593 136.854 42.7627 136.836C42.7661 136.819 42.7737 136.802 42.785 136.788C42.7962 136.774 42.8108 136.763 42.8272 136.756C42.8437 136.749 42.8617 136.746 42.8796 136.748C42.9204 136.749 42.9597 136.764 42.9917 136.789C43.0236 136.815 43.0467 136.85 43.0573 136.889C43.0615 136.907 43.0616 136.925 43.0576 136.943C43.0535 136.961 43.0455 136.977 43.034 136.991C43.0226 137.005 43.008 137.017 42.9915 137.024C42.975 137.032 42.957 137.036 42.9388 137.035C42.8977 137.034 42.8583 137.019 42.8268 136.992C42.7954 136.966 42.7738 136.93 42.7656 136.889Z" fill="#C7C7C7"/>
<path d="M42.6462 136.297C42.6411 136.28 42.6402 136.262 42.6436 136.244C42.647 136.226 42.6546 136.209 42.6658 136.195C42.6769 136.181 42.6913 136.17 42.7077 136.162C42.7241 136.154 42.7421 136.151 42.7601 136.151C42.8018 136.152 42.8419 136.167 42.8741 136.194C42.9063 136.22 42.9288 136.257 42.9379 136.297C42.943 136.315 42.9438 136.333 42.9404 136.351C42.937 136.369 42.9295 136.385 42.9183 136.399C42.9072 136.414 42.8928 136.425 42.8764 136.433C42.86 136.44 42.842 136.444 42.8239 136.443C42.7823 136.442 42.7422 136.427 42.71 136.401C42.6778 136.374 42.6553 136.338 42.6462 136.297Z" fill="#C7C7C7"/>
<path d="M42.5212 135.74C42.5161 135.722 42.5152 135.704 42.5186 135.686C42.522 135.668 42.5296 135.652 42.5408 135.638C42.5519 135.623 42.5663 135.612 42.5827 135.604C42.5991 135.597 42.6171 135.593 42.6351 135.594C42.6768 135.595 42.7169 135.61 42.7491 135.636C42.7813 135.663 42.8038 135.699 42.8129 135.74C42.818 135.757 42.8188 135.775 42.8154 135.793C42.812 135.811 42.8045 135.828 42.7933 135.842C42.7822 135.856 42.7678 135.867 42.7514 135.875C42.735 135.883 42.717 135.886 42.6989 135.886C42.6577 135.883 42.6183 135.868 42.5864 135.841C42.5545 135.815 42.5317 135.78 42.5212 135.74Z" fill="#C7C7C7"/>
<path d="M40.649 136.683H38.9854L38.7529 135.594H40.4166L40.649 136.683Z" fill="#C7C7C7"/>
<path d="M38.9844 136.683L39.0573 137.034L39.3444 136.683H38.9844Z" fill="#C7C7C7"/>
<path d="M40.1593 135.885H39.1292L39.1064 135.78H40.1365L40.1593 135.885Z" fill="white"/>
<path d="M40.2062 136.1H39.1761L39.1533 136H40.188L40.2062 136.1Z" fill="white"/>
<path d="M40.2514 136.313H39.2214L39.2031 136.212H40.2332L40.2514 136.313Z" fill="white"/>
<path d="M115.759 132.803H14.1368L13.4258 129.453H115.048L115.759 132.803Z" fill="#37474F"/>
<path d="M16.4378 131.125C16.4668 131.225 16.4718 131.329 16.4523 131.431C16.4328 131.533 16.3895 131.628 16.3258 131.71C16.2621 131.791 16.1799 131.856 16.0861 131.9C15.9922 131.943 15.8894 131.964 15.786 131.96C15.55 131.95 15.3238 131.863 15.1418 131.712C14.9599 131.562 14.8324 131.355 14.7787 131.125C14.7506 131.026 14.7463 130.922 14.7662 130.821C14.7861 130.72 14.8296 130.625 14.8932 130.545C14.9568 130.464 15.0386 130.399 15.132 130.356C15.2254 130.312 15.3277 130.292 15.4305 130.296C15.6659 130.305 15.8917 130.392 16.0736 130.541C16.2554 130.691 16.3833 130.896 16.4378 131.125Z" fill="#C7C7C7"/>
<path d="M19.8399 131.126C19.868 131.225 19.8721 131.33 19.852 131.432C19.8319 131.533 19.788 131.628 19.724 131.71C19.66 131.791 19.5777 131.856 19.4838 131.9C19.3898 131.943 19.287 131.964 19.1836 131.96C18.948 131.948 18.7225 131.861 18.5408 131.711C18.3592 131.56 18.2313 131.355 18.1763 131.126C18.148 131.026 18.1437 130.922 18.1639 130.82C18.184 130.719 18.2279 130.624 18.292 130.543C18.3561 130.462 18.4386 130.397 18.5326 130.354C18.6265 130.311 18.7294 130.291 18.8326 130.296C19.068 130.306 19.2938 130.392 19.4757 130.542C19.6575 130.691 19.7854 130.896 19.8399 131.126Z" fill="white"/>
<path d="M23.2357 131.125C23.2647 131.225 23.2697 131.329 23.2502 131.431C23.2307 131.533 23.1873 131.628 23.1236 131.71C23.06 131.791 22.9778 131.856 22.8839 131.9C22.7901 131.943 22.6872 131.964 22.5839 131.96C22.3479 131.95 22.1216 131.863 21.9397 131.712C21.7578 131.562 21.6302 131.355 21.5766 131.125C21.5485 131.026 21.5442 130.922 21.564 130.821C21.5839 130.72 21.6275 130.625 21.691 130.545C21.7546 130.464 21.8364 130.399 21.9298 130.356C22.0232 130.312 22.1255 130.292 22.2284 130.296C22.4638 130.305 22.6896 130.392 22.8714 130.541C23.0533 130.691 23.1812 130.896 23.2357 131.125Z" fill="#FFC727"/>
<path d="M115.758 132.804H45.5352L57.9919 191.405H128.215L115.758 132.804Z" fill="#EBEBEB"/>
<path d="M122.149 188.58H63.8357L63.1064 185.167H121.425L122.149 188.58Z" fill="white"/>
<path d="M120.978 186.916C121.007 187.017 121.011 187.123 120.991 187.226C120.972 187.328 120.927 187.425 120.863 187.507C120.798 187.589 120.715 187.655 120.62 187.699C120.525 187.743 120.421 187.764 120.317 187.76C120.078 187.749 119.85 187.66 119.666 187.508C119.482 187.356 119.352 187.149 119.296 186.916C119.268 186.816 119.264 186.71 119.284 186.608C119.305 186.505 119.35 186.409 119.415 186.327C119.48 186.245 119.563 186.18 119.658 186.137C119.753 186.093 119.857 186.073 119.961 186.078C120.199 186.088 120.427 186.176 120.61 186.327C120.794 186.478 120.923 186.685 120.978 186.916Z" fill="#FFC727"/>
<path d="M119.88 186.434L120.504 186.917L120.09 187.405L119.957 187.291L120.272 186.917L119.798 186.548L119.88 186.434Z" fill="white"/>
<path d="M64.6456 187.891H64.4223L63.9893 185.854H64.2126L64.6456 187.891Z" fill="#263238"/>
<path d="M124.419 188.606C124.399 188.606 124.38 188.599 124.364 188.587C124.349 188.574 124.338 188.557 124.333 188.538L124.159 187.718C124.156 187.709 124.156 187.7 124.157 187.691C124.158 187.682 124.162 187.674 124.167 187.666C124.173 187.659 124.18 187.653 124.188 187.65C124.196 187.646 124.205 187.644 124.214 187.645C124.234 187.646 124.254 187.654 124.269 187.667C124.285 187.68 124.296 187.698 124.301 187.718L124.474 188.538C124.476 188.546 124.476 188.555 124.474 188.563C124.473 188.571 124.469 188.579 124.464 188.586C124.458 188.592 124.452 188.598 124.444 188.601C124.436 188.605 124.428 188.607 124.419 188.606Z" fill="#A6A6A6"/>
<path d="M124.877 188.606H123.965C123.945 188.605 123.926 188.598 123.91 188.586C123.895 188.574 123.884 188.557 123.879 188.537C123.877 188.529 123.876 188.52 123.878 188.511C123.88 188.503 123.884 188.495 123.889 188.488C123.894 188.481 123.901 188.475 123.908 188.471C123.916 188.467 123.925 188.465 123.933 188.464H124.845C124.865 188.465 124.885 188.473 124.901 188.486C124.917 188.499 124.927 188.517 124.931 188.537C124.934 188.546 124.934 188.554 124.932 188.562C124.93 188.571 124.927 188.579 124.921 188.585C124.916 188.592 124.909 188.597 124.901 188.601C124.894 188.604 124.885 188.606 124.877 188.606Z" fill="#A6A6A6"/>
<path d="M124.422 185.746L124.672 186.935C124.692 187.004 124.695 187.077 124.681 187.148C124.667 187.218 124.636 187.284 124.592 187.341C124.547 187.397 124.49 187.442 124.425 187.472C124.36 187.502 124.288 187.517 124.217 187.514C124.101 187.51 123.988 187.478 123.886 187.422C123.785 187.366 123.698 187.286 123.633 187.191C123.578 187.114 123.539 187.027 123.519 186.935L123.264 185.746C123.245 185.677 123.242 185.604 123.256 185.533C123.27 185.463 123.3 185.397 123.345 185.34C123.389 185.284 123.446 185.239 123.512 185.209C123.577 185.178 123.648 185.164 123.72 185.167C123.887 185.166 124.049 185.226 124.176 185.335C124.299 185.432 124.387 185.567 124.426 185.718C124.426 185.718 124.422 185.737 124.422 185.746Z" fill="#A6A6A6"/>
<path d="M124.258 187.801C124.028 187.797 123.807 187.715 123.629 187.569C123.434 187.417 123.297 187.203 123.242 186.963L123.137 186.461C123.134 186.453 123.133 186.444 123.134 186.435C123.136 186.426 123.139 186.417 123.145 186.41C123.15 186.403 123.157 186.397 123.165 186.393C123.174 186.389 123.183 186.388 123.192 186.388C123.212 186.389 123.231 186.397 123.246 186.41C123.261 186.423 123.271 186.441 123.274 186.461L123.383 186.963C123.431 187.163 123.545 187.341 123.707 187.468C123.863 187.598 124.06 187.666 124.263 187.66C124.348 187.656 124.431 187.633 124.505 187.592C124.58 187.551 124.644 187.494 124.693 187.424C124.743 187.355 124.775 187.275 124.789 187.191C124.803 187.107 124.798 187.021 124.773 186.94L124.673 186.461C124.67 186.453 124.669 186.444 124.67 186.435C124.672 186.426 124.675 186.417 124.681 186.41C124.686 186.403 124.693 186.397 124.701 186.393C124.71 186.389 124.719 186.388 124.728 186.388C124.748 186.389 124.767 186.397 124.782 186.41C124.797 186.423 124.807 186.441 124.81 186.461L124.915 186.94C124.944 187.038 124.95 187.142 124.933 187.243C124.916 187.344 124.876 187.44 124.816 187.523C124.757 187.606 124.678 187.674 124.588 187.723C124.497 187.771 124.397 187.798 124.295 187.801H124.258Z" fill="#A6A6A6"/>
<path d="M62.2295 186.889C62.2836 187.093 62.2899 187.306 62.248 187.513C62.206 187.719 62.1169 187.913 61.9876 188.079C61.8584 188.246 61.6924 188.38 61.5027 188.471C61.313 188.563 61.1047 188.61 60.8941 188.607C60.4109 188.587 59.9476 188.41 59.5736 188.103C59.1996 187.797 58.9353 187.377 58.8202 186.907C58.7662 186.704 58.7599 186.49 58.8018 186.284C58.8438 186.078 58.9329 185.884 59.0621 185.717C59.1914 185.551 59.3574 185.417 59.5471 185.325C59.7368 185.233 59.945 185.187 60.1557 185.189C60.6393 185.208 61.1034 185.385 61.4776 185.691C61.8519 185.998 62.1159 186.419 62.2295 186.889Z" fill="white"/>
<path d="M59.8756 186.538C59.8844 186.567 59.8862 186.597 59.8808 186.627C59.8754 186.656 59.8631 186.684 59.8448 186.708C59.8265 186.731 59.8027 186.75 59.7756 186.763C59.7484 186.775 59.7186 186.781 59.6887 186.78C59.6203 186.778 59.5543 186.754 59.5008 186.711C59.4473 186.668 59.4093 186.609 59.3925 186.543C59.3846 186.514 59.3836 186.484 59.3896 186.454C59.3957 186.425 59.4085 186.397 59.4271 186.374C59.4458 186.35 59.4697 186.332 59.4969 186.319C59.5241 186.306 59.5539 186.3 59.5839 186.301C59.6518 186.303 59.7171 186.328 59.7698 186.371C59.8225 186.413 59.8596 186.472 59.8756 186.538Z" fill="#A6A6A6"/>
<path d="M61.5249 186.531C61.5337 186.56 61.5355 186.59 61.5301 186.62C61.5248 186.649 61.5124 186.677 61.4941 186.701C61.4758 186.724 61.452 186.743 61.4249 186.756C61.3977 186.768 61.3679 186.774 61.338 186.773C61.2698 186.77 61.2044 186.744 61.1517 186.701C61.0991 186.657 61.0621 186.598 61.0463 186.531C61.0375 186.503 61.0357 186.472 61.0411 186.443C61.0465 186.413 61.0588 186.386 61.0771 186.362C61.0955 186.338 61.1192 186.319 61.1464 186.307C61.1735 186.294 61.2033 186.288 61.2332 186.29C61.3015 186.293 61.3669 186.318 61.4195 186.362C61.4721 186.405 61.5091 186.465 61.5249 186.531Z" fill="#A6A6A6"/>
<path d="M60.797 186.46C60.8155 186.538 60.8041 186.619 60.7651 186.688C60.7392 186.731 60.7023 186.767 60.6583 186.791C60.6142 186.815 60.5645 186.827 60.5144 186.825C60.3964 186.823 60.2837 186.776 60.1999 186.693C60.136 186.631 60.0917 186.552 60.0723 186.465L60.797 186.46Z" fill="#A6A6A6"/>
<path d="M60.7673 186.686C60.7414 186.729 60.7046 186.765 60.6605 186.789C60.6165 186.813 60.5668 186.825 60.5166 186.823C60.3986 186.821 60.2859 186.774 60.2021 186.691C60.2359 186.657 60.2764 186.629 60.3211 186.611C60.3658 186.593 60.4138 186.585 60.4619 186.586C60.5718 186.586 60.6787 186.621 60.7673 186.686Z" fill="#DBDBDB"/>
<path d="M21.5649 143.836L21.3507 144.032L20.7491 143.408L20.5303 143.18C20.5626 143.168 20.5921 143.149 20.6169 143.125C20.6657 143.08 20.6992 143.021 20.7126 142.957L20.945 143.198L21.5649 143.836Z" fill="#A6A6A6"/>
<path d="M20.7549 142.377C20.6368 142.231 20.4676 142.137 20.2821 142.112C20.0965 142.088 19.9086 142.135 19.7568 142.244C19.6968 142.313 19.6511 142.393 19.6225 142.48C19.5938 142.566 19.5828 142.658 19.59 142.748C19.5973 142.839 19.6226 142.928 19.6645 143.009C19.7065 143.09 19.7642 143.161 19.8342 143.22C19.9446 143.347 20.0936 143.434 20.2584 143.468C20.4231 143.501 20.5944 143.48 20.7458 143.407C20.7757 143.391 20.8033 143.371 20.8279 143.347C20.8749 143.305 20.9136 143.254 20.9418 143.197C20.9979 143.058 21.0101 142.904 20.9767 142.758C20.9433 142.611 20.8659 142.478 20.7549 142.377ZM20.6182 143.124C20.5934 143.148 20.5639 143.167 20.5316 143.179C20.4433 143.212 20.3468 143.218 20.2553 143.194C20.1638 143.17 20.082 143.119 20.0211 143.047C19.9792 143.012 19.9446 142.97 19.9193 142.922C19.8941 142.874 19.8786 142.822 19.874 142.768C19.8693 142.714 19.8755 142.659 19.8921 142.608C19.9088 142.556 19.9356 142.509 19.971 142.468C20.0633 142.405 20.1756 142.378 20.2866 142.392C20.3975 142.406 20.4993 142.461 20.5726 142.545C20.6265 142.598 20.6674 142.662 20.6919 142.734C20.7164 142.805 20.724 142.881 20.7139 142.955C20.7024 143.024 20.6688 143.086 20.6182 143.133V143.124Z" fill="#A6A6A6"/>
<path d="M24.2934 143.371C24.2968 143.367 24.301 143.364 24.3057 143.361C24.3104 143.359 24.3155 143.358 24.3207 143.358C24.3259 143.358 24.331 143.359 24.3357 143.361C24.3404 143.364 24.3446 143.367 24.3481 143.371C24.4798 143.47 24.6391 143.525 24.8038 143.53C24.8961 143.535 24.9869 143.506 25.0591 143.448C25.087 143.428 25.1083 143.399 25.1204 143.367C25.1326 143.335 25.135 143.299 25.1274 143.266C25.1191 143.229 25.1024 143.195 25.0787 143.166C25.055 143.136 25.0249 143.113 24.9907 143.097C24.8943 143.044 24.7894 143.009 24.6808 142.992C24.5699 142.979 24.4629 142.943 24.3663 142.887C24.3238 142.866 24.2863 142.836 24.2565 142.799C24.2266 142.762 24.205 142.719 24.1931 142.673C24.1836 142.631 24.1862 142.586 24.2008 142.545C24.2153 142.504 24.241 142.468 24.2751 142.441C24.3534 142.377 24.4524 142.345 24.5532 142.35C24.7011 142.361 24.8438 142.41 24.9679 142.491C24.9742 142.499 24.9776 142.51 24.9776 142.521C24.9776 142.531 24.9742 142.542 24.9679 142.55C24.9649 142.554 24.9611 142.557 24.9568 142.559C24.9524 142.561 24.9477 142.562 24.9429 142.562C24.938 142.562 24.9333 142.561 24.9289 142.559C24.9246 142.557 24.9208 142.554 24.9178 142.55C24.8082 142.475 24.681 142.429 24.5486 142.418C24.4637 142.416 24.3805 142.441 24.3116 142.491C24.2861 142.511 24.2667 142.538 24.2554 142.569C24.2442 142.599 24.2415 142.632 24.2478 142.664C24.2578 142.696 24.2742 142.727 24.2962 142.752C24.3181 142.778 24.3451 142.799 24.3754 142.814C24.4637 142.862 24.5592 142.894 24.658 142.91C24.778 142.927 24.8939 142.965 24.9998 143.024C25.0456 143.048 25.0859 143.08 25.1181 143.12C25.1503 143.16 25.1737 143.207 25.1867 143.257C25.1956 143.303 25.1918 143.35 25.1757 143.395C25.1597 143.439 25.132 143.478 25.0955 143.507C25.0111 143.573 24.9062 143.607 24.7993 143.603C24.6201 143.592 24.4478 143.531 24.3025 143.425C24.2951 143.418 24.2903 143.409 24.2886 143.399C24.287 143.39 24.2886 143.379 24.2934 143.371Z" fill="#A6A6A6"/>
<path d="M25.4084 143.166C25.3933 143.114 25.3905 143.061 25.4002 143.008C25.4099 142.956 25.4319 142.906 25.4644 142.864C25.4968 142.822 25.5388 142.788 25.5869 142.765C25.6351 142.742 25.6879 142.731 25.7412 142.733C25.8567 142.739 25.9673 142.782 26.0573 142.854C26.1473 142.927 26.2121 143.027 26.2425 143.138C26.2432 143.143 26.2427 143.149 26.2412 143.154C26.2396 143.159 26.2371 143.163 26.2336 143.167C26.2302 143.171 26.2259 143.174 26.2212 143.176C26.2164 143.178 26.2113 143.179 26.2061 143.179H25.5133C25.5384 143.27 25.5908 143.35 25.6634 143.41C25.736 143.469 25.8253 143.505 25.9189 143.512C25.9716 143.515 26.024 143.502 26.0683 143.473C26.1127 143.444 26.1466 143.402 26.165 143.352C26.1726 143.346 26.1823 143.342 26.1924 143.342C26.2025 143.342 26.2122 143.346 26.2197 143.352C26.2306 143.357 26.2394 143.366 26.2444 143.377C26.2494 143.388 26.2504 143.4 26.2471 143.412C26.2215 143.472 26.1783 143.524 26.123 143.56C26.0677 143.595 26.003 143.614 25.9372 143.612C25.8117 143.608 25.6915 143.561 25.5956 143.48C25.4998 143.399 25.4339 143.288 25.4084 143.166ZM25.4859 143.097H26.1423C26.1107 143.019 26.0582 142.952 25.9906 142.902C25.9231 142.852 25.843 142.822 25.7594 142.815C25.7223 142.813 25.6854 142.82 25.651 142.834C25.6166 142.847 25.5855 142.868 25.5597 142.895C25.5339 142.922 25.514 142.953 25.5013 142.988C25.4886 143.023 25.4833 143.06 25.4859 143.097Z" fill="#A6A6A6"/>
<path d="M27.2028 142.773L27.3669 143.557C27.3683 143.562 27.3685 143.567 27.3676 143.573C27.3666 143.578 27.3646 143.583 27.3615 143.587C27.3585 143.591 27.3546 143.595 27.35 143.598C27.3454 143.6 27.3403 143.602 27.335 143.602C27.323 143.601 27.3118 143.596 27.3028 143.588C27.2938 143.579 27.2876 143.569 27.2849 143.557L27.2575 143.429C27.2293 143.482 27.1872 143.526 27.1358 143.556C27.0844 143.587 27.0256 143.603 26.9658 143.602C26.8437 143.592 26.7284 143.542 26.6377 143.46C26.547 143.377 26.4861 143.267 26.4645 143.147C26.4477 143.097 26.4431 143.044 26.451 142.992C26.4589 142.941 26.4791 142.891 26.5099 142.849C26.5407 142.807 26.5812 142.772 26.628 142.749C26.6748 142.725 26.7266 142.713 26.779 142.714C26.8479 142.716 26.9156 142.732 26.9782 142.761C27.0408 142.79 27.097 142.831 27.1436 142.882L27.1162 142.755C27.1162 142.727 27.1162 142.714 27.1481 142.714C27.1559 142.713 27.1638 142.714 27.1712 142.717C27.1785 142.719 27.1851 142.724 27.1904 142.73C27.1958 142.735 27.1997 142.742 27.2018 142.75C27.204 142.757 27.2043 142.765 27.2028 142.773ZM27.2028 143.165C27.1813 143.072 27.1309 142.988 27.0589 142.925C26.987 142.862 26.897 142.823 26.8017 142.814C26.7599 142.815 26.7188 142.825 26.6817 142.845C26.6446 142.864 26.6127 142.892 26.5883 142.927C26.564 142.961 26.5479 143 26.5415 143.041C26.535 143.083 26.5383 143.125 26.5511 143.165C26.5726 143.258 26.623 143.342 26.695 143.405C26.767 143.468 26.8569 143.507 26.9522 143.516C26.9937 143.514 27.0342 143.503 27.0707 143.483C27.1072 143.464 27.1386 143.436 27.1624 143.402C27.1863 143.368 27.2019 143.328 27.2081 143.287C27.2144 143.246 27.211 143.204 27.1983 143.165H27.2028Z" fill="#A6A6A6"/>
<path d="M27.5699 142.774C27.5682 142.769 27.5679 142.763 27.5691 142.758C27.5702 142.752 27.5727 142.747 27.5764 142.743C27.5801 142.739 27.5848 142.736 27.59 142.734C27.5953 142.732 27.6009 142.732 27.6063 142.733C27.6178 142.734 27.6286 142.739 27.6375 142.746C27.6464 142.753 27.653 142.763 27.6565 142.774L27.6975 142.965C27.7201 142.903 27.7615 142.848 27.8162 142.81C27.8709 142.772 27.9361 142.751 28.0029 142.751C28.0145 142.752 28.0256 142.756 28.0347 142.764C28.0437 142.771 28.0501 142.781 28.053 142.792C28.053 142.82 28.053 142.838 28.0211 142.838C27.9743 142.838 27.9284 142.851 27.8889 142.876C27.8493 142.901 27.8177 142.937 27.7978 142.979C27.7672 143.042 27.7472 143.11 27.7385 143.18L27.8206 143.563C27.8206 143.59 27.8206 143.608 27.7886 143.608C27.776 143.607 27.7641 143.602 27.7544 143.594C27.7446 143.586 27.7375 143.575 27.734 143.563L27.5699 142.774Z" fill="#A6A6A6"/>
<path d="M28.3291 143.163C28.3142 143.11 28.3124 143.054 28.3237 143C28.335 142.946 28.3592 142.896 28.394 142.853C28.4289 142.811 28.4736 142.777 28.5241 142.756C28.5747 142.734 28.6298 142.725 28.6846 142.73C28.7908 142.73 28.8942 142.764 28.9808 142.825C28.9871 142.834 28.9905 142.844 28.9905 142.855C28.9905 142.866 28.9871 142.876 28.9808 142.884C28.9726 142.892 28.9621 142.895 28.9512 142.895C28.9404 142.895 28.9298 142.892 28.9216 142.884C28.8509 142.835 28.7666 142.808 28.68 142.807C28.6357 142.804 28.5914 142.812 28.5506 142.829C28.5099 142.847 28.4739 142.874 28.4458 142.908C28.4177 142.943 28.3982 142.983 28.389 143.027C28.3798 143.07 28.3811 143.115 28.3929 143.158C28.4169 143.26 28.4754 143.351 28.5584 143.414C28.6414 143.478 28.7439 143.512 28.8487 143.509C28.9258 143.511 29.0007 143.483 29.0583 143.431C29.0666 143.424 29.0771 143.421 29.088 143.421C29.0988 143.421 29.1093 143.424 29.1176 143.431C29.1176 143.431 29.1176 143.477 29.1176 143.491C29.0481 143.554 28.9566 143.589 28.8623 143.586C28.7397 143.583 28.6215 143.539 28.5254 143.463C28.4293 143.387 28.3604 143.281 28.3291 143.163Z" fill="#A6A6A6"/>
<path d="M30.0219 143.074C30.0027 143.001 29.9596 142.936 29.8993 142.889C29.8391 142.843 29.7652 142.818 29.6892 142.819C29.6561 142.814 29.6224 142.818 29.5913 142.83C29.5601 142.842 29.5323 142.862 29.5106 142.887C29.4889 142.912 29.4738 142.943 29.4668 142.975C29.4598 143.008 29.461 143.042 29.4704 143.074L29.5707 143.557C29.5634 143.56 29.5553 143.56 29.5479 143.557H29.5115L29.4112 143.074L29.2699 142.413C29.2684 142.408 29.2682 142.403 29.2691 142.398C29.27 142.393 29.2722 142.388 29.2753 142.384C29.2784 142.38 29.2824 142.377 29.287 142.375C29.2917 142.373 29.2967 142.372 29.3018 142.372C29.3142 142.372 29.3264 142.376 29.3363 142.383C29.3463 142.39 29.3534 142.401 29.3565 142.413L29.4568 142.869C29.483 142.828 29.5196 142.795 29.5628 142.772C29.606 142.75 29.6543 142.739 29.7029 142.741C29.8064 142.738 29.9079 142.77 29.9908 142.832C30.0736 142.894 30.1328 142.983 30.1587 143.083L30.259 143.566C30.2603 143.571 30.2605 143.577 30.2596 143.582C30.2587 143.587 30.2566 143.592 30.2536 143.596C30.2505 143.601 30.2466 143.604 30.242 143.607C30.2374 143.61 30.2323 143.611 30.227 143.612C30.2142 143.611 30.202 143.606 30.1921 143.598C30.1822 143.59 30.1753 143.579 30.1724 143.566L30.0219 143.074Z" fill="#A6A6A6"/>
<path d="M30.9853 143.163C30.9705 143.11 30.9687 143.054 30.98 143C30.9913 142.946 31.0154 142.896 31.0503 142.853C31.0852 142.811 31.1298 142.777 31.1804 142.756C31.231 142.734 31.286 142.725 31.3408 142.73C31.447 142.73 31.5504 142.764 31.6371 142.825C31.6434 142.834 31.6468 142.844 31.6468 142.855C31.6468 142.866 31.6434 142.876 31.6371 142.884C31.6288 142.892 31.6183 142.895 31.6075 142.895C31.5966 142.895 31.5861 142.892 31.5778 142.884C31.5071 142.835 31.4228 142.808 31.3363 142.807C31.292 142.804 31.2476 142.812 31.2069 142.829C31.1661 142.847 31.1302 142.874 31.1021 142.908C31.0739 142.943 31.0545 142.983 31.0453 143.027C31.0361 143.07 31.0374 143.115 31.0491 143.158C31.0732 143.26 31.1316 143.351 31.2147 143.414C31.2977 143.478 31.4002 143.512 31.5049 143.509C31.5821 143.511 31.657 143.483 31.7146 143.431C31.7228 143.424 31.7333 143.421 31.7442 143.421C31.7551 143.421 31.7656 143.424 31.7738 143.431C31.7738 143.431 31.7738 143.477 31.7738 143.491C31.7043 143.554 31.6128 143.589 31.5186 143.586C31.3959 143.583 31.2777 143.539 31.1816 143.463C31.0855 143.387 31.0167 143.281 30.9853 143.163Z" fill="#A6A6A6"/>
<path d="M32.66 143.072C32.6407 142.999 32.5976 142.934 32.5373 142.887C32.4771 142.841 32.4032 142.816 32.3272 142.817C32.2941 142.812 32.2605 142.816 32.2293 142.828C32.1981 142.84 32.1704 142.86 32.1486 142.885C32.1269 142.91 32.1119 142.941 32.1048 142.974C32.0978 143.006 32.0991 143.04 32.1085 143.072L32.2087 143.555C32.2014 143.558 32.1933 143.558 32.1859 143.555H32.1495L32.0447 143.072L31.8988 142.398C31.8973 142.393 31.8971 142.387 31.898 142.382C31.8989 142.377 31.9011 142.373 31.9042 142.369C31.9073 142.365 31.9113 142.362 31.916 142.359C31.9206 142.357 31.9256 142.356 31.9307 142.356C31.9431 142.356 31.9553 142.36 31.9653 142.367C31.9752 142.375 31.9823 142.385 31.9854 142.398L32.0811 142.853C32.1088 142.813 32.1462 142.78 32.1901 142.757C32.2339 142.735 32.2826 142.724 32.3318 142.726C32.4353 142.722 32.5368 142.754 32.6197 142.817C32.7025 142.879 32.7617 142.967 32.7876 143.068L32.8879 143.551C32.8893 143.556 32.8894 143.562 32.8882 143.567C32.887 143.573 32.8846 143.578 32.881 143.583C32.8775 143.587 32.873 143.591 32.8678 143.593C32.8627 143.595 32.8571 143.596 32.8514 143.596C32.8394 143.595 32.8281 143.589 32.8192 143.581C32.8102 143.573 32.804 143.562 32.8013 143.551L32.66 143.072Z" fill="#A6A6A6"/>
<path d="M33.8434 142.773L34.0074 143.557C34.0088 143.562 34.009 143.567 34.0081 143.572C34.0071 143.577 34.0051 143.582 34.0021 143.587C33.999 143.591 33.9951 143.595 33.9905 143.597C33.9859 143.6 33.9808 143.602 33.9755 143.602C33.9635 143.601 33.9523 143.595 33.9433 143.587C33.9344 143.579 33.9281 143.568 33.9254 143.557L33.8981 143.429C33.8698 143.482 33.8277 143.526 33.7763 143.556C33.7249 143.587 33.6661 143.603 33.6064 143.602C33.4839 143.592 33.3683 143.541 33.277 143.459C33.1858 143.377 33.1238 143.267 33.1004 143.146C33.0846 143.096 33.0809 143.043 33.0894 142.992C33.098 142.94 33.1187 142.891 33.1498 142.849C33.1809 142.807 33.2216 142.772 33.2684 142.749C33.3153 142.725 33.367 142.713 33.4195 142.713C33.4884 142.716 33.5562 142.732 33.6188 142.761C33.6814 142.79 33.7376 142.831 33.7841 142.882L33.7568 142.754C33.7568 142.727 33.7568 142.713 33.7887 142.713C33.8036 142.715 33.8175 142.721 33.8277 142.732C33.8378 142.743 33.8434 142.758 33.8434 142.773ZM33.8434 143.165C33.8218 143.071 33.7714 142.987 33.6995 142.924C33.6275 142.861 33.5375 142.823 33.4423 142.814C33.4004 142.814 33.3593 142.825 33.3222 142.845C33.2852 142.864 33.2532 142.892 33.2288 142.926C33.2045 142.96 33.1884 143 33.182 143.041C33.1755 143.082 33.1788 143.125 33.1916 143.165C33.2132 143.258 33.2635 143.342 33.3355 143.405C33.4075 143.468 33.4975 143.507 33.5927 143.516C33.6342 143.514 33.6748 143.503 33.7112 143.483C33.7477 143.463 33.7791 143.435 33.8029 143.401C33.8268 143.367 33.8424 143.328 33.8487 143.287C33.8549 143.246 33.8515 143.204 33.8388 143.165H33.8434Z" fill="#A6A6A6"/>
<path d="M34.512 142.771C34.5134 142.775 34.5137 142.781 34.5128 142.786C34.5118 142.791 34.5097 142.795 34.5066 142.799C34.5035 142.803 34.4994 142.807 34.4948 142.809C34.4902 142.811 34.4851 142.812 34.4801 142.812H34.3707L34.5028 143.445C34.5069 143.463 34.5167 143.479 34.5307 143.49C34.5447 143.502 34.5622 143.508 34.5803 143.509C34.5928 143.511 34.6044 143.516 34.6141 143.524C34.6237 143.532 34.631 143.543 34.635 143.555C34.6364 143.56 34.6366 143.566 34.6354 143.571C34.6342 143.577 34.6317 143.582 34.6282 143.586C34.6247 143.591 34.6201 143.594 34.615 143.597C34.6099 143.599 34.6042 143.6 34.5986 143.6C34.5548 143.6 34.5127 143.584 34.4794 143.556C34.446 143.527 34.4237 143.488 34.4162 143.445L34.2795 142.812H34.1747C34.1337 142.812 34.1291 142.812 34.1245 142.771C34.12 142.73 34.1245 142.73 34.1564 142.73H34.2658L34.1975 142.406C34.1961 142.401 34.1959 142.395 34.1968 142.39C34.1978 142.385 34.1998 142.38 34.2029 142.376C34.2059 142.371 34.2098 142.368 34.2144 142.365C34.219 142.362 34.2241 142.361 34.2294 142.36C34.2294 142.36 34.2841 142.383 34.2841 142.406L34.357 142.73H34.4664C34.4772 142.731 34.4873 142.736 34.4955 142.743C34.5036 142.75 34.5093 142.76 34.512 142.771Z" fill="#A6A6A6"/>
<path d="M48.2752 145.636H16.876V145.75H48.2752V145.636Z" fill="#A6A6A6"/>
<path d="M47.1385 140.285H15.7393V140.399H47.1385V140.285Z" fill="#A6A6A6"/>
<path d="M29.6554 198.994H18.7666V200.694H29.6554V198.994Z" fill="#FFC727"/>
<path opacity="0.1" d="M29.6554 198.994H18.7666V200.115H29.6554V198.994Z" fill="black"/>
<path d="M5.83976 194.425C6.59982 195.58 7.73482 196.437 9.05334 196.852C10.3719 197.267 11.7932 197.215 13.0777 196.704C13.6187 196.491 14.1352 196.221 14.6182 195.897L13.2509 193.846C12.9942 194.024 12.721 194.177 12.435 194.302C9.84158 195.478 8.20074 193.436 7.87713 192.966C6.38215 190.87 5.84888 186.079 7.36209 184.238C7.46237 184.101 7.89992 183.883 9.64103 184.238C9.96464 184.311 10.3293 184.393 10.744 184.507C11.0671 184.618 11.4022 184.69 11.7422 184.721L11.7832 183.491L11.9063 182.26C11.7924 182.26 11.6146 182.192 11.3867 182.128C10.5751 181.891 9.74602 181.719 8.90722 181.613C7.61734 181.481 6.2682 181.613 5.43867 182.652C2.97741 185.706 3.97103 191.795 5.83976 194.425Z" fill="#FFC727"/>
<path opacity="0.1" d="M13.2329 193.871C12.9762 194.048 12.703 194.201 12.417 194.326L13.0779 196.724C13.6189 196.511 14.1354 196.241 14.6185 195.917L13.2329 193.871Z" fill="black"/>
<path opacity="0.1" d="M8.90039 181.661L9.63421 184.286C9.95782 184.359 10.3225 184.441 10.7372 184.555C11.0602 184.666 11.3953 184.738 11.7354 184.77L11.7764 183.539L11.8995 182.308C11.7855 182.308 11.6078 182.24 11.3799 182.176C10.5683 181.939 9.7392 181.767 8.90039 181.661Z" fill="black"/>
<path d="M38.6958 178.447C38.6958 178.447 37.3923 189.545 35.1361 194.222C32.88 198.898 29.7305 199.408 27.7706 199.408H20.6557C18.6958 199.408 15.5463 198.889 13.2902 194.222C11.034 189.554 9.73047 178.447 9.73047 178.447H38.6958Z" fill="#FFC727"/>
<path d="M97.8369 151.387H161.032V124.974H97.8369V151.387Z" fill="#455A64"/>
<path d="M161.032 132.764V124.974H169.141L161.032 132.764Z" fill="#455A64"/>
<path d="M156.208 129.54H102.653V130.041H156.208V129.54Z" fill="white"/>
<path d="M140.748 132.246H102.653V132.747H140.748V132.246Z" fill="white"/>
<path d="M150.087 137.673H102.653V138.174H150.087V137.673Z" fill="white"/>
<path d="M156.208 140.379H102.653V140.88H156.208V140.379Z" fill="white"/>
<path d="M156.208 143.092H102.653V143.594H156.208V143.092Z" fill="white"/>
<path d="M135.579 145.802H102.653V146.304H135.579V145.802Z" fill="white"/>
<path d="M152.388 76.2856H89.1934V98.5737H152.388V76.2856Z" fill="#FFC727"/>
<path d="M89.2 84.0796V76.2856H81.0869L89.2 84.0796Z" fill="#FFC727"/>
<path d="M135.216 80.3994H94.1084V80.9008H135.216V80.3994Z" fill="white"/>
<path d="M147.664 83.1133H94.1084V83.6147H147.664V83.1133Z" fill="white"/>
<path d="M147.664 85.8267H94.1084V86.328H147.664V85.8267Z" fill="white"/>
<path d="M141.766 88.5327H94.1084V89.0341H141.766V88.5327Z" fill="white"/>
<path d="M147.664 91.2461H94.1084V91.7475H147.664V91.2461Z" fill="white"/>
<path d="M128.215 93.9561H94.1084V94.4574H128.215V93.9561Z" fill="white"/>
<path d="M152.388 102.18H89.1934V118.707H152.388V102.18Z" fill="#FFC727"/>
<path d="M89.2 109.97V102.18H81.0869L89.2 109.97Z" fill="#FFC727"/>
<path d="M147.531 106.294H94.1084V106.795H147.531V106.294Z" fill="white"/>
<path d="M134.377 109.008H94.1084V109.509H134.377V109.008Z" fill="white"/>
<path d="M140.526 111.714H94.1084V112.215H140.526V111.714Z" fill="white"/>
<path d="M125.129 114.427H94.1084V114.929H125.129V114.427Z" fill="white"/>
<path d="M152.388 156.523H89.1934V171.77H152.388V156.523Z" fill="#FFC727"/>
<path d="M89.1941 164.313V156.523H81.0811L89.1941 164.313Z" fill="#FFC727"/>
<path d="M143.525 160.637H94.1084V161.139H143.525V160.637Z" fill="white"/>
<path d="M130.726 163.347H94.1084V163.849H130.726V163.347Z" fill="white"/>
<path d="M140.088 166.057H94.1084V166.558H140.088V166.057Z" fill="white"/>
<path d="M186.261 140.202C194.322 140.202 200.856 133.668 200.856 125.608C200.856 117.548 194.322 111.014 186.261 111.014C178.201 111.014 171.667 117.548 171.667 125.608C171.667 133.668 178.201 140.202 186.261 140.202Z" fill="#A6A6A6"/>
<mask id="mask0_73_22773" style="mask-type:luminance" maskUnits="userSpaceOnUse" x="171" y="105" width="30" height="36">
<path d="M200.864 125.609C200.868 127.738 200.405 129.841 199.506 131.771C198.607 133.7 197.296 135.409 195.664 136.776C194.585 137.683 193.382 138.431 192.09 138.996C191.94 139.064 191.785 139.128 191.635 139.187L191.384 139.283C190.558 139.597 189.703 139.827 188.832 139.971C187.99 140.129 187.135 140.207 186.279 140.203C185.771 140.204 185.262 140.176 184.757 140.121C184.54 140.105 184.324 140.078 184.11 140.039C183.854 140.003 183.599 139.962 183.344 139.903C183.265 139.893 183.187 139.876 183.111 139.852C182.729 139.775 182.346 139.675 181.972 139.561C181.598 139.447 181.17 139.292 180.778 139.132L180.682 139.087C180.607 139.063 180.533 139.033 180.463 138.996C179.981 138.79 179.512 138.554 179.059 138.289C176.99 137.114 175.239 135.449 173.96 133.442C172.681 131.434 171.914 129.144 171.723 126.772C171.533 124.399 171.927 122.016 172.869 119.83C173.812 117.644 175.275 115.723 177.131 114.233C177.282 113.672 177.437 113.134 177.587 112.642C175.067 110.933 176.183 107.697 176.63 107.013C177.077 106.329 178.654 107.988 178.654 107.988C178.654 107.988 179.16 105.974 179.739 105.846C180.317 105.718 180.728 107.045 180.728 107.045C180.728 107.045 185.044 106.27 188.772 106.931C192.501 107.592 193.786 111.635 193.786 111.635C193.786 111.635 195.723 112.35 196.156 113.845C196.225 114.18 196.225 114.526 196.156 114.862C197.642 116.229 198.828 117.891 199.639 119.741C200.449 121.591 200.867 123.589 200.864 125.609Z" fill="white"/>
</mask>
<g mask="url(#mask0_73_22773)">
<path d="M182.093 135.283L183.383 141.135L192.827 134.157L196.213 137.274C196.213 137.274 188.629 146.121 182.476 146.121C179.249 146.121 178.615 138.715 178.615 138.715L182.093 135.283Z" fill="#FFC727"/>
<path d="M183.57 141.935C185.944 142.674 190.343 139.274 192.184 136.397C192.307 136.201 192.143 134.018 192.07 131.361C192.029 129.748 192.024 127.947 192.138 126.306C192.166 125.969 181.655 128.093 181.655 128.093C182.102 130.189 182.289 132.332 182.211 134.474C182.194 134.701 182.154 134.925 182.093 135.144C182.093 135.171 182.093 135.212 182.093 135.253C181.792 136.507 181.277 141.22 183.57 141.935Z" fill="#FFC1B7"/>
<path d="M191.537 126.297C190.821 129.159 188.565 135.668 183.146 135.413C182.792 135.398 182.44 135.353 182.093 135.28C182.093 135.239 182.093 135.198 182.093 135.171C182.157 134.953 182.197 134.728 182.211 134.501V134.474C182.276 133.41 182.251 132.343 182.138 131.283C182.031 130.229 181.87 129.181 181.655 128.143L181.724 128.097C182.549 127.919 189.431 126.534 191.537 126.297Z" fill="#F1B1A7"/>
<path d="M193.029 113.24C194.296 116.85 192.814 127.488 190.317 129.954C186.693 133.527 180.535 134.115 177.445 129.708C174.446 125.437 176.62 111.604 179.432 109.339C183.58 106.007 191.151 107.912 193.029 113.24Z" fill="#FFC1B7"/>
<path d="M192.091 122.168C189.598 121.79 189.784 117.191 189.784 117.191C189.784 117.191 185.605 115.851 185.459 112.537C185.459 112.537 181.01 114.529 177.989 112.897C174.967 111.266 176.165 107.752 176.621 107.031C177.077 106.311 178.645 108.007 178.645 108.007C178.645 108.007 179.151 105.992 179.73 105.865C180.309 105.737 180.719 107.063 180.719 107.063C180.719 107.063 185.04 106.293 188.759 106.949C192.478 107.606 193.773 111.653 193.773 111.653C193.773 111.653 195.705 112.373 196.147 113.868C196.589 115.363 193.677 122.392 192.091 122.168Z" fill="#263238"/>
<path d="M182.77 120.614C182.77 120.587 182.82 120.655 182.815 120.683C182.697 121.398 182.679 122.237 183.299 122.56C183.299 122.56 183.299 122.606 183.299 122.601C182.528 122.383 182.56 121.257 182.77 120.614Z" fill="#263238"/>
<path d="M183.525 119.948C184.692 120.017 184.473 122.341 183.393 122.282C182.312 122.223 182.549 119.889 183.525 119.948Z" fill="#263238"/>
<path d="M178.605 120.346C178.605 120.318 178.545 120.373 178.545 120.405C178.5 121.125 178.327 121.946 177.634 122.123V122.164C178.459 122.119 178.668 121.029 178.605 120.346Z" fill="#263238"/>
<path d="M178.035 119.519C176.882 119.323 176.572 121.638 177.638 121.821C178.705 122.003 178.997 119.688 178.035 119.519Z" fill="#263238"/>
<path d="M184.545 118.978C184.249 118.859 183.958 118.725 183.675 118.577C183.347 118.477 183.062 118.272 182.863 117.993C182.818 117.894 182.806 117.782 182.831 117.676C182.856 117.569 182.915 117.474 183 117.405C183.188 117.296 183.402 117.238 183.62 117.238C183.838 117.238 184.052 117.296 184.24 117.405C184.657 117.569 185 117.88 185.202 118.28C185.239 118.374 185.248 118.476 185.23 118.575C185.211 118.673 185.164 118.765 185.095 118.838C185.026 118.911 184.938 118.963 184.841 118.988C184.743 119.013 184.641 119.009 184.545 118.978Z" fill="#263238"/>
<path d="M177.247 118.268C177.566 118.234 177.883 118.183 178.195 118.113C178.536 118.107 178.864 117.989 179.13 117.776C179.201 117.693 179.242 117.589 179.247 117.48C179.252 117.37 179.221 117.263 179.157 117.174C179.008 117.015 178.819 116.9 178.609 116.839C178.4 116.778 178.179 116.774 177.967 116.828C177.521 116.873 177.108 117.08 176.805 117.411C176.742 117.491 176.703 117.587 176.693 117.688C176.683 117.79 176.703 117.892 176.749 117.982C176.796 118.073 176.868 118.148 176.956 118.199C177.045 118.249 177.146 118.273 177.247 118.268Z" fill="#263238"/>
<path d="M182.82 127.365C182.633 127.516 182.437 127.73 182.173 127.73C181.906 127.697 181.649 127.61 181.416 127.475C181.416 127.475 181.371 127.475 181.384 127.507C181.473 127.659 181.601 127.783 181.755 127.868C181.91 127.952 182.084 127.993 182.26 127.985C182.41 127.961 182.551 127.893 182.663 127.789C182.775 127.685 182.853 127.551 182.889 127.402C182.902 127.361 182.847 127.343 182.82 127.365Z" fill="#263238"/>
<path d="M182.273 125.175C182.06 125.44 181.793 125.658 181.491 125.814C181.189 125.971 180.858 126.064 180.518 126.086C180.221 126.111 179.922 126.094 179.63 126.036L179.461 126L179.306 125.959C179.269 125.946 179.236 125.922 179.213 125.89C179.19 125.859 179.178 125.82 179.178 125.781C179.176 125.757 179.176 125.732 179.178 125.708V125.649C179.219 125.088 179.365 124.249 179.365 124.249C179.151 124.332 178.066 124.705 178.112 124.4C178.513 122.012 178.955 119.359 179.853 117.071C179.859 117.055 179.87 117.042 179.885 117.034C179.9 117.026 179.917 117.023 179.933 117.027C179.95 117.031 179.964 117.041 179.974 117.055C179.983 117.069 179.987 117.086 179.985 117.103C179.693 119.409 178.996 121.661 178.668 123.967C179.053 123.833 179.455 123.755 179.862 123.734C179.939 123.766 179.557 125.352 179.557 125.603V125.631C180.468 125.849 181.211 125.631 182.182 125.111C182.269 125.065 182.314 125.12 182.273 125.175Z" fill="#263238"/>
<path d="M179.992 125.881C180.273 126.299 180.658 126.637 181.109 126.861C181.356 126.978 181.634 127.013 181.902 126.962C182.49 126.843 182.535 126.314 182.458 125.854C182.414 125.61 182.342 125.371 182.244 125.143C181.591 125.623 180.802 125.882 179.992 125.881Z" fill="#263238"/>
<path d="M181.114 126.864C181.361 126.98 181.639 127.015 181.907 126.964C182.495 126.846 182.541 126.317 182.463 125.857C182.158 125.85 181.86 125.946 181.615 126.128C181.371 126.311 181.195 126.57 181.114 126.864Z" fill="#FF99BA"/>
<path d="M191.139 121.939C191.139 121.939 193.45 118.471 195.018 119.286C196.586 120.102 194.904 125.098 193.099 125.818C192.873 125.925 192.629 125.986 192.379 125.996C192.13 126.007 191.881 125.967 191.647 125.879C191.413 125.791 191.2 125.656 191.019 125.484C190.839 125.311 190.695 125.104 190.597 124.874L191.139 121.939Z" fill="#FFC1B7"/>
<path d="M194.5 120.745C194.528 120.745 194.532 120.781 194.5 120.795C193.233 121.337 192.59 122.536 192.148 123.776C192.518 123.292 193.028 123.024 193.671 123.461C193.703 123.484 193.671 123.539 193.639 123.529C193.413 123.463 193.171 123.468 192.948 123.545C192.725 123.622 192.532 123.766 192.394 123.958C192.163 124.277 191.969 124.621 191.816 124.983C191.756 125.097 191.551 125.043 191.592 124.911C191.59 124.9 191.59 124.889 191.592 124.879C191.542 123.251 192.755 120.95 194.5 120.745Z" fill="#263238"/>
<path d="M182.209 134.544L183.476 140.597L192.186 132.817L194.356 135.26C194.356 135.26 185.86 147.566 185.805 147.015L183.225 141.805L179.647 145.488L181.083 136.336L182.209 134.544Z" fill="white"/>
<path d="M181.026 136.419C181.026 136.365 181.131 136.337 181.131 136.419C181.049 138.288 179.86 143.648 179.882 145.034C180.033 144.874 183.196 141.788 183.232 141.843C183.784 142.668 185.666 146.46 185.794 146.807C186.997 145.034 192.585 137.746 193.948 135.895C193.955 135.883 193.966 135.874 193.979 135.87C193.992 135.866 194.007 135.868 194.019 135.875C194.031 135.881 194.04 135.892 194.044 135.906C194.047 135.919 194.046 135.933 194.039 135.945C193.027 138.005 185.967 147.577 185.876 147.55C184.896 145.749 184.012 143.897 183.228 142.003C182.695 142.673 179.504 146.15 179.49 145.927C179.376 144.414 180.516 138.293 181.026 136.419Z" fill="#263238"/>
</g>
<path d="M74.6697 165.091C80.4688 159.291 80.4688 149.889 74.6697 144.09C68.8706 138.291 59.4683 138.291 53.6692 144.09C47.8701 149.889 47.8701 159.291 53.6692 165.091C59.4683 170.89 68.8706 170.89 74.6697 165.091Z" fill="#A6A6A6"/>
<mask id="mask1_73_22773" style="mask-type:luminance" maskUnits="userSpaceOnUse" x="49" y="136" width="31" height="34">
<path d="M79.0208 154.59C79.0249 157.192 78.3455 159.749 77.0506 162.006C75.7558 164.263 73.8909 166.14 71.6426 167.449C69.3943 168.759 66.8415 169.455 64.2397 169.468C61.6379 169.48 59.0784 168.81 56.8173 167.522C54.5562 166.235 52.673 164.376 51.356 162.133C50.039 159.889 49.3345 157.338 49.313 154.736C49.2915 152.135 49.9538 149.573 51.2335 147.308C52.5133 145.042 54.3656 143.153 56.6051 141.828C57.2933 139.613 59.0846 137.503 63.0682 136.505C70.8713 134.554 72.6033 140.183 72.7674 140.794C72.7674 140.794 72.7674 140.794 72.7674 140.816C72.7691 140.824 72.7691 140.832 72.7674 140.839C73.0394 141.56 73.2722 142.295 73.4647 143.041C75.197 144.426 76.5957 146.184 77.5574 148.183C78.5191 150.182 79.0192 152.372 79.0208 154.59Z" fill="white"/>
</mask>
<g mask="url(#mask1_73_22773)">
<path d="M68.4186 164.433L67.1014 170.358L58.1224 164.196L55.8936 167.487C55.8936 167.487 61.7687 175.436 68.0266 175.436C71.3129 175.436 71.9555 167.901 71.9555 167.901L68.4186 164.433Z" fill="#FFC727"/>
<path d="M66.9136 171.198C64.4979 171.95 60.0221 168.491 58.1488 165.565C58.0212 165.364 58.1898 163.144 58.2673 160.437C58.3038 158.796 58.3129 156.969 58.1944 155.3C58.1716 154.954 59.3794 155.505 59.3794 155.505L61.5763 155.875L68.8416 157.119C68.8416 157.119 68.0577 160.688 68.2764 163.596C68.2932 163.827 68.3329 164.056 68.3949 164.279C68.3949 164.311 68.3949 164.348 68.3949 164.389C68.7185 165.679 69.2655 170.478 66.9136 171.198Z" fill="#FFC8BC"/>
<path d="M68.3961 164.319C68.3961 164.351 68.3961 164.387 68.3961 164.433C68.0432 164.505 67.685 164.55 67.325 164.565C60.2603 164.897 58.7607 155.991 58.7607 155.991L61.5547 155.918L68.82 157.158C68.82 157.158 68.036 160.732 68.2548 163.64C68.2786 163.87 68.326 164.098 68.3961 164.319Z" fill="#EBAD9F"/>
<path d="M57.2922 142.008C56.0024 145.677 57.5065 156.502 60.0498 159.013C63.7371 162.66 69.9996 163.248 73.1491 158.763C76.1984 154.414 73.9832 140.34 71.1209 138.038C66.9048 134.647 59.202 136.584 57.2922 142.008Z" fill="#FFC8BC"/>
<path d="M67.7068 149.515C67.7068 149.488 67.6566 149.556 67.6612 149.583C67.7797 150.313 67.7979 151.165 67.1689 151.493C67.1689 151.493 67.1689 151.543 67.1689 151.534C67.9711 151.311 67.9392 150.176 67.7068 149.515Z" fill="#263238"/>
<path d="M66.9544 148.834C65.7693 148.902 65.9927 151.268 67.0911 151.204C68.1896 151.14 67.948 148.775 66.9544 148.834Z" fill="#263238"/>
<path d="M71.9622 149.225C71.9622 149.194 72.026 149.253 72.026 149.285C72.0715 150.019 72.2493 150.853 72.9375 151.035V151.076C72.1126 151.039 71.8892 149.927 71.9622 149.225Z" fill="#263238"/>
<path d="M72.5427 148.397C73.7141 148.197 74.0286 150.553 72.9438 150.74C71.859 150.927 71.5446 148.566 72.5427 148.397Z" fill="#263238"/>
<path d="M65.9167 147.841C66.2312 147.727 66.5047 147.573 66.8055 147.431C67.1368 147.33 67.4252 147.121 67.6259 146.839C67.6723 146.738 67.6841 146.625 67.6593 146.517C67.6346 146.409 67.5747 146.312 67.4892 146.242C67.2977 146.129 67.0798 146.07 66.8579 146.07C66.636 146.07 66.4181 146.129 66.2266 146.242C65.8019 146.406 65.454 146.723 65.2512 147.13C65.2134 147.225 65.2033 147.329 65.2222 147.429C65.2411 147.53 65.2882 147.623 65.358 147.697C65.4279 147.772 65.5175 147.825 65.6164 147.851C65.7154 147.876 65.8195 147.873 65.9167 147.841Z" fill="#263238"/>
<path d="M73.3694 147.122C73.0464 147.086 72.7254 147.035 72.4077 146.967C72.0607 146.959 71.726 146.837 71.4551 146.62C71.3828 146.536 71.3404 146.429 71.3347 146.318C71.3289 146.207 71.36 146.097 71.4232 146.005C71.5768 145.844 71.7706 145.727 71.9845 145.666C72.1985 145.605 72.4248 145.603 72.6401 145.659C73.0923 145.699 73.5125 145.909 73.8161 146.247C73.8814 146.328 73.9219 146.426 73.9327 146.529C73.9435 146.632 73.924 146.737 73.8768 146.829C73.8295 146.922 73.7565 146.999 73.6664 147.051C73.5764 147.103 73.4732 147.127 73.3694 147.122Z" fill="#263238"/>
<path d="M67.6764 156.372C67.8679 156.527 68.0639 156.746 68.3328 156.746C68.6049 156.714 68.8673 156.625 69.1031 156.486C69.1052 156.483 69.1077 156.481 69.1105 156.48C69.1134 156.479 69.1165 156.478 69.1197 156.478C69.1229 156.477 69.126 156.478 69.129 156.479C69.1321 156.48 69.1348 156.481 69.1372 156.484C69.1396 156.486 69.1416 156.488 69.143 156.491C69.1444 156.494 69.1452 156.497 69.1455 156.5C69.1457 156.503 69.1453 156.506 69.1442 156.509C69.1432 156.512 69.1416 156.515 69.1395 156.518C69.0473 156.675 68.9134 156.804 68.7525 156.89C68.5916 156.976 68.4101 157.016 68.2279 157.005C68.0749 156.981 67.9326 156.911 67.8191 156.806C67.7055 156.7 67.6257 156.564 67.5898 156.413C67.5944 156.372 67.6491 156.349 67.6764 156.372Z" fill="#263238"/>
<path d="M68.1262 154.423C68.8737 155.03 71.3714 155.03 71.3805 154.947L71.1754 153.193C71.3942 153.279 72.4881 153.648 72.4425 153.357C72.0688 150.932 71.6495 148.234 70.7607 145.896C70.755 145.88 70.7436 145.866 70.7288 145.858C70.7139 145.85 70.6966 145.848 70.6802 145.852C70.6638 145.856 70.6494 145.866 70.6399 145.88C70.6303 145.894 70.6263 145.911 70.6285 145.927C70.8974 148.275 71.5765 150.558 71.8865 152.91C71.4958 152.772 71.0877 152.689 70.6741 152.664C70.5966 152.696 70.9658 154.309 70.9658 154.565C70.0551 154.605 69.1445 154.483 68.2766 154.205C67.9895 154.113 67.9257 154.264 68.1262 154.423Z" fill="#263238"/>
<path d="M58.6055 150.749C59.5171 150.516 60.4013 147.485 60.4287 144.541C60.4287 142.649 61.2035 140.261 63.3138 139.55C64.7176 139.094 67.1607 140.234 68.5554 139.892C69.9501 139.55 70.2099 138.752 71.0349 138.775C71.8598 138.798 72.7805 140.826 72.7805 140.826C72.7805 140.826 71.3083 134.418 63.0677 136.478C54.4077 138.652 56.1306 146.086 56.9647 148.47C57.6119 150.311 58.6055 150.749 58.6055 150.749Z" fill="#263238"/>
<path d="M59.2396 150.88C59.2396 150.88 56.8832 147.352 55.2879 148.181C53.6927 149.011 55.4064 154.107 57.2433 154.822C57.4719 154.933 57.7205 154.996 57.974 155.007C58.2276 155.019 58.4809 154.979 58.7186 154.89C58.9564 154.801 59.1736 154.665 59.3571 154.489C59.5407 154.314 59.6868 154.103 59.7866 153.87L59.2396 150.88Z" fill="#FFC8BC"/>
<path d="M55.7918 149.642C55.7869 149.644 55.7828 149.647 55.7799 149.652C55.7769 149.656 55.7754 149.661 55.7754 149.667C55.7754 149.672 55.7769 149.677 55.7799 149.682C55.7828 149.686 55.7869 149.69 55.7918 149.692C57.0817 150.248 57.738 151.469 58.1893 152.727C57.811 152.24 57.2777 151.962 56.6396 152.408C56.6031 152.408 56.6396 152.486 56.6715 152.477C56.9016 152.41 57.1466 152.416 57.3733 152.493C57.6 152.571 57.7974 152.716 57.9386 152.91C58.1688 153.237 58.3658 153.587 58.5265 153.953C58.5812 154.072 58.7955 154.017 58.7544 153.88C58.7517 153.87 58.7517 153.859 58.7544 153.849C58.7818 152.194 57.5648 149.851 55.7918 149.642Z" fill="#263238"/>
</g>
<path d="M61.8725 94.8372C70.4034 94.8372 77.3191 87.9215 77.3191 79.3905C77.3191 70.8596 70.4034 63.9438 61.8725 63.9438C53.3415 63.9438 46.4258 70.8596 46.4258 79.3905C46.4258 87.9215 53.3415 94.8372 61.8725 94.8372Z" fill="#A6A6A6"/>
<path d="M78.0444 91.1734H76.7271C76.5904 89.4915 75.5239 86.9209 75.8156 88.2153C75.9854 89.1916 76.042 90.1842 75.9842 91.1734H53.6688C53.409 88.6438 54.5394 84.4824 54.5394 84.4824C53.2495 86.5745 52.7527 89.5417 52.5658 91.1734H50.4601C50.2413 89.6602 50.7791 87.0713 50.7791 87.0713C50.2003 88.0877 49.8675 89.9975 49.6989 91.1734H47.3014C47.2103 88.6438 48.0717 85.3165 50.0909 82.2992C51.7089 79.879 49.7034 78.4706 49.7445 73.7577C49.7855 67.4861 54.0881 65.0977 54.8037 64.4232C64.5348 55.4077 73.368 63.7759 74.316 69.7331C75.2276 75.5581 73.5549 76.3284 76.2622 81.6201C78.3087 85.5717 78.0444 91.1734 78.0444 91.1734Z" fill="#263238"/>
<path d="M51.8135 94.4209C51.8135 94.4209 51.8591 94.4483 51.8773 94.4665C55.1134 96.6725 61.5035 100.551 64.922 99.3207C67.5519 98.3726 69.0924 95.6743 69.2702 94.8038C67.9028 93.5732 65.9201 92.4519 65.045 91.8685C59.9994 88.5139 55.4552 90.5239 51.8135 94.4209Z" fill="#455A64"/>
<path d="M56.6861 92.5113C56.914 93.2588 60.8657 97.9398 64.3206 97.5478C65.4464 97.4156 65.0088 91.2397 65.0088 91.2397L65.0818 90.7839L66.0845 84.298L58.2586 79.9817L57.1282 79.4165C57.1282 79.4165 56.9733 81.2077 56.8001 83.4411L56.7727 83.7602C56.7727 83.8878 56.7454 84.0063 56.7408 84.1248C56.7089 84.4575 56.6816 84.7994 56.6588 85.1366C56.6588 85.3964 56.6223 85.6471 56.6132 85.9206C56.6041 86.1941 56.5859 86.4584 56.5722 86.7319C56.4789 88.6587 56.5169 90.5897 56.6861 92.5113Z" fill="#F3B7AE"/>
<path d="M56.7979 83.426C57.5632 85.1773 58.7003 86.7411 60.1304 88.009C61.5604 89.277 63.2492 90.2186 65.0795 90.7687L66.0823 84.2829L58.2564 79.9665L57.126 79.4014C57.126 79.4014 56.9619 81.2063 56.7979 83.426Z" fill="#D5958B"/>
<path d="M74.1013 73.4978C75.9245 84.8925 69.3019 87.2398 66.8452 87.6272C64.6209 87.9782 56.991 88.8943 54.0193 77.7639C51.0476 66.6336 55.765 62.2033 60.8151 61.1277C65.8652 60.052 72.2964 62.1258 74.1013 73.4978Z" fill="#F3B7AE"/>
<path d="M54.9475 78.5656C57.7962 78.2238 57.901 69.3724 57.901 68.283C57.9329 68.9713 58.1335 72.5948 58.4252 72.7179C58.7298 72.6837 59.0268 72.6006 59.3049 72.4717C59.2729 72.0378 59.2729 71.6021 59.3049 71.1682C59.3049 70.9676 59.4188 71.5966 59.592 72.3715C59.7515 72.3122 59.9202 72.2438 60.107 72.18C59.9984 71.2569 60.0137 70.3234 60.1526 69.4043C60.2073 69.0579 60.4261 70.5893 60.8637 71.902C63.2437 70.9886 65.7167 70.339 68.2383 69.9649C68.9448 69.8783 69.5647 69.8373 70.1116 69.819C70.025 68.7479 69.8062 67.6221 69.9065 67.8592C70.1729 68.4865 70.3774 69.1383 70.5173 69.8054C70.8135 69.8054 71.087 69.8054 71.3331 69.8054C71.283 68.2921 70.3668 65.9448 70.6358 66.2912C71.4461 67.3664 72.0461 68.585 72.4042 69.8828C73.448 69.9968 73.7716 70.1746 73.7716 69.9056C73.7716 69.4225 72.86 65.252 69.3003 62.4261C65.4489 59.3632 58.252 59.108 54.6649 64.6231C54.6649 64.6231 51.5382 67.057 51.3058 70.5802C51.0733 74.1035 53.3158 78.7571 54.9475 78.5656Z" fill="#263238"/>
<path d="M69.3532 80.1246C69.1103 80.6189 68.7447 81.0426 68.2912 81.3552C68.0371 81.5165 67.7396 81.5961 67.4389 81.5831C66.7825 81.5421 66.6503 80.9769 66.6686 80.4619C66.6806 80.1905 66.7235 79.9214 66.7962 79.6597C67.5767 80.0846 68.473 80.2475 69.3532 80.1246Z" fill="white"/>
<path d="M71.7298 72.1014C71.4609 72.1014 71.2102 72.0375 70.9413 72.0056C70.6596 72.0099 70.3842 71.9219 70.1573 71.7549C70.0951 71.6883 70.0568 71.6029 70.0486 71.5121C70.0403 71.4213 70.0625 71.3303 70.1117 71.2536C70.2309 71.1178 70.3841 71.0163 70.5555 70.9594C70.7269 70.9025 70.9104 70.8924 71.0871 70.93C71.4594 70.9535 71.8092 71.1162 72.0671 71.3858C72.1131 71.4516 72.1409 71.5283 72.1477 71.6083C72.1545 71.6883 72.1401 71.7687 72.1059 71.8413C72.0716 71.914 72.0188 71.9762 71.9528 72.0219C71.8867 72.0676 71.8098 72.095 71.7298 72.1014Z" fill="#263238"/>
<path d="M64.3439 73.0408C64.6082 72.9861 64.8452 72.8903 65.1005 72.8129C65.3805 72.7665 65.638 72.6305 65.8343 72.4254C65.8824 72.3491 65.9039 72.2591 65.8957 72.1693C65.8875 72.0795 65.8499 71.9949 65.7887 71.9286C65.6479 71.8155 65.4796 71.742 65.3009 71.7155C65.1223 71.6891 64.9398 71.7107 64.7723 71.7782C64.4104 71.8641 64.0935 72.0819 63.8835 72.389C63.848 72.4623 63.8328 72.5438 63.8394 72.625C63.8461 72.7062 63.8744 72.7841 63.9214 72.8507C63.9684 72.9172 64.0324 72.97 64.1067 73.0034C64.181 73.0368 64.2629 73.0497 64.3439 73.0408Z" fill="#263238"/>
<path d="M66.1251 75.8019C66.1251 75.7746 66.0659 75.8475 66.0704 75.8794C66.1844 76.6542 66.1798 77.5613 65.5052 77.8985C65.4825 77.8985 65.5052 77.9487 65.5052 77.9441C66.3621 77.7253 66.353 76.5175 66.1251 75.8019Z" fill="#263238"/>
<path d="M65.3378 75.0639C64.0752 75.1094 64.2576 77.6345 65.4289 77.5935C66.6003 77.5525 66.3998 75.0274 65.3378 75.0639Z" fill="#263238"/>
<path d="M64.8485 75.2213C64.6388 75.3763 64.4428 75.6452 64.1785 75.6771C63.9141 75.709 63.6224 75.4811 63.4037 75.2441C63.4037 75.2168 63.3581 75.2441 63.3626 75.276C63.39 75.7591 63.6088 76.2423 64.1329 76.2787C64.6571 76.3152 64.9214 75.8549 65.008 75.3672C65.0217 75.2988 64.9351 75.1757 64.8485 75.2213Z" fill="#263238"/>
<path d="M70.4704 75.0931C70.4704 75.0657 70.5342 75.1295 70.5342 75.1614C70.5342 75.9454 70.7211 76.8387 71.4458 77.053C71.4458 77.053 71.4458 77.0985 71.4458 77.094C70.5707 77.0438 70.3655 75.8406 70.4704 75.0931Z" fill="#263238"/>
<path d="M71.0951 74.2302C72.3486 74.0524 72.6129 76.5729 71.4506 76.737C70.2884 76.9011 70.0651 74.3806 71.0951 74.2302Z" fill="#263238"/>
<path d="M71.6556 74.344C71.8698 74.4534 72.1114 74.6767 72.3302 74.6676C72.549 74.6585 72.786 74.3622 72.9318 74.0842C72.9318 74.0569 72.9729 74.0842 72.9774 74.107C73.0367 74.5856 72.9318 75.1052 72.4806 75.2465C72.0294 75.3878 71.7149 74.9912 71.569 74.5263C71.5189 74.4397 71.5736 74.3075 71.6556 74.344Z" fill="#263238"/>
<path d="M66.4145 81.7751C66.6059 81.9574 66.7973 82.2036 67.0845 82.2309C67.3765 82.2154 67.6621 82.1393 67.9231 82.0076C67.9285 82.0056 67.9344 82.0054 67.94 82.0071C67.9455 82.0087 67.9504 82.012 67.9539 82.0165C67.9575 82.0211 67.9595 82.0266 67.9597 82.0324C67.9599 82.0381 67.9582 82.0438 67.955 82.0486C67.8488 82.2068 67.7014 82.3329 67.5286 82.4132C67.3559 82.4935 67.1645 82.5251 66.9751 82.5044C66.8138 82.4678 66.6671 82.3842 66.5535 82.2641C66.4399 82.144 66.3645 81.9928 66.337 81.8298C66.3233 81.7706 66.3826 81.7523 66.4145 81.7751Z" fill="#263238"/>
<path d="M69.4384 78.6801C69.4384 78.6801 69.6982 79.8333 69.7438 80.3802C69.7438 80.4349 69.6207 80.4714 69.4338 80.4941C69.4338 80.4941 69.4338 80.4941 69.4111 80.4941C68.9453 80.6201 68.4539 80.6152 67.9908 80.4801C67.5277 80.345 67.1107 80.0849 66.7857 79.7284C66.7447 79.6783 66.7857 79.6145 66.8632 79.6464C67.6051 80.0684 68.4641 80.238 69.3108 80.1295C69.3381 79.9745 68.8003 78.1696 68.8869 78.156C69.3182 78.1591 69.7473 78.2189 70.1631 78.3337C69.7073 75.9135 68.8368 73.5935 68.4038 71.1778C68.4023 71.1608 68.4065 71.1437 68.4158 71.1293C68.4251 71.1149 68.4389 71.1039 68.4551 71.0982C68.4712 71.0925 68.4888 71.0923 68.5051 71.0976C68.5214 71.1029 68.5354 71.1135 68.5451 71.1277C69.6116 73.5024 70.2132 76.2735 70.7647 78.7576C70.8377 79.0721 69.6663 78.753 69.4384 78.6801Z" fill="#263238"/>
<path d="M64.8122 79.7152C64.1699 79.7108 63.5416 79.5263 62.999 79.1826C62.4563 78.8389 62.021 78.3497 61.7425 77.7708C61.4641 77.192 61.3537 76.5465 61.4239 75.908C61.4941 75.2695 61.7421 74.6635 62.1397 74.1589C62.5373 73.6544 63.0685 73.2715 63.6729 73.054C64.2773 72.8364 64.9306 72.7928 65.5586 72.9281C66.1866 73.0635 66.7639 73.3724 67.225 73.8196C67.6861 74.2669 68.0124 74.8346 68.1669 75.4581C68.3845 76.3417 68.2428 77.2755 67.7728 78.0548C67.3029 78.834 66.5431 79.3951 65.66 79.6149C65.3824 79.6819 65.0978 79.7156 64.8122 79.7152ZM64.8533 73.3113C64.606 73.3089 64.3594 73.338 64.1194 73.3979C63.3842 73.5794 62.7457 74.0343 62.3341 74.67C61.9225 75.3057 61.7688 76.0744 61.9041 76.8195C62.0395 77.5647 62.4538 78.2302 63.0627 78.6805C63.6715 79.1308 64.4292 79.3321 65.1813 79.2434C65.9334 79.1546 66.6234 78.7825 67.1107 78.2028C67.598 77.6231 67.8461 76.8794 67.8042 76.1232C67.7624 75.3671 67.4339 74.6553 66.8857 74.1328C66.3374 73.6104 65.6106 73.3166 64.8533 73.3113Z" fill="#B6218C"/>
<path d="M72.6335 78.8022C71.3209 78.8022 70.1404 77.4348 69.9444 75.6618C69.8337 74.8139 69.9932 73.9526 70.4002 73.2005C70.5547 72.8653 70.7932 72.5757 71.0925 72.3598C71.3919 72.1439 71.7419 72.009 72.1088 71.9682C72.4756 71.9274 72.8468 71.9821 73.1863 72.1269C73.5258 72.2717 73.8221 72.5018 74.0465 72.7949C74.6073 73.442 74.9516 74.2485 75.031 75.1012C75.2361 76.979 74.2698 78.6381 72.8705 78.7931C72.792 78.8035 72.7126 78.8065 72.6335 78.8022ZM72.3281 72.4211C72.2705 72.4165 72.2126 72.4165 72.1549 72.4211C71.8633 72.4645 71.5865 72.578 71.3484 72.7519C71.1102 72.9258 70.9178 73.1548 70.7876 73.4193C70.4302 74.0877 70.29 74.8508 70.3865 75.6025C70.5688 77.2343 71.649 78.4558 72.7976 78.3373C73.9462 78.2188 74.7347 76.7785 74.557 75.1468C74.4852 74.391 74.1811 73.6761 73.6864 73.1003C73.5194 72.8992 73.3124 72.7349 73.0786 72.618C72.8448 72.5011 72.5892 72.4341 72.3281 72.4211Z" fill="#B6218C"/>
<path d="M68.0948 75.8613L67.7666 75.5468C68.2224 75.0546 69.3664 74.339 70.2962 75.1366L69.9954 75.483C69.1659 74.7629 68.1403 75.8203 68.0948 75.8613Z" fill="#B6218C"/>
<path d="M52.9988 78.4107L52.5703 78.2466C52.6478 78.0506 53.3497 76.2913 54.3479 76.0132C55.3461 75.7352 61.4582 75.6486 61.7225 75.644V76.0998C59.9541 76.1272 55.1911 76.2502 54.4664 76.4508C53.7417 76.6513 53.1856 77.9549 52.9988 78.4107Z" fill="#B6218C"/>
<path d="M55.9703 78.3507C55.9703 78.3507 53.2082 74.9415 51.6449 75.9533C50.0815 76.9652 52.3377 82.029 54.2975 82.6033C54.5441 82.694 54.8064 82.7339 55.0688 82.7208C55.3312 82.7076 55.5882 82.6416 55.8244 82.5266C56.0607 82.4117 56.2712 82.2503 56.4436 82.052C56.6159 81.8537 56.7463 81.6226 56.8272 81.3726L55.9703 78.3507Z" fill="#F3B7AE"/>
<path d="M52.3231 77.3901C52.3182 77.3923 52.314 77.3958 52.3111 77.4002C52.3082 77.4047 52.3066 77.4099 52.3066 77.4152C52.3066 77.4205 52.3082 77.4257 52.3111 77.4302C52.314 77.4346 52.3182 77.4381 52.3231 77.4403C53.6904 77.8961 54.4972 79.0811 55.0578 80.3345C54.6248 79.8787 54.0642 79.6326 53.4352 80.1522C53.4255 80.1577 53.4184 80.1667 53.4154 80.1774C53.4124 80.1881 53.4138 80.1995 53.4192 80.2092C53.4247 80.2189 53.4337 80.226 53.4444 80.229C53.4551 80.232 53.4665 80.2306 53.4762 80.2251C53.7091 80.1276 53.9668 80.1064 54.2125 80.1646C54.4582 80.2227 54.6791 80.3572 54.8436 80.5488C55.1143 80.8606 55.3497 81.2015 55.5455 81.5652C55.6184 81.6791 55.8281 81.6016 55.7734 81.4694V81.4375C55.664 79.7283 54.169 77.4312 52.3231 77.3901Z" fill="#263238"/>
<mask id="mask2_73_22773" style="mask-type:luminance" maskUnits="userSpaceOnUse" x="46" y="60" width="33" height="35">
<path d="M78.0452 91.1735H76.728C76.5958 89.4917 75.5293 86.921 75.8164 88.22C75.9875 89.1946 76.0457 90.1857 75.9896 91.1735H71.8875C70.6607 92.2199 69.2763 93.0659 67.7854 93.6804C66.912 94.045 66.0053 94.3244 65.0781 94.5145C64.0211 94.7457 62.9422 94.8618 61.8602 94.8609C60.602 94.861 59.3485 94.708 58.1273 94.4051C56.6009 94.026 55.143 93.4108 53.8064 92.5819C53.1132 92.1672 52.4574 91.6929 51.8465 91.1644H50.4791C50.4216 90.711 50.4079 90.2531 50.4381 89.7971C50.3014 89.6375 50.1692 89.4871 50.037 89.3413C49.8912 90.0067 49.7863 90.6722 49.7134 91.1644H47.3023C47.2746 89.5299 47.5369 87.9034 48.0771 86.3604C46.5946 83.4202 46.0903 80.0832 46.6381 76.8363C47.1858 73.5893 48.7568 70.6023 51.1218 68.3112C52.4573 65.9502 54.3534 64.829 54.8 64.4142H54.8228C57.7171 60.2164 62.7718 59.5509 66.6277 60.9821L66.728 61.014C70.8757 62.4452 73.7927 66.4607 74.3169 69.7424C74.3488 69.9748 74.3807 70.1982 74.4126 70.4169C75.7123 72.2213 76.6057 74.2858 77.0314 76.4685C77.457 78.6511 77.4049 80.9 76.8784 83.0605C78.2503 86.7797 78.0452 91.1735 78.0452 91.1735Z" fill="white"/>
</mask>
<g mask="url(#mask2_73_22773)">
<path d="M69.2712 94.8196C69.0934 95.6765 67.5528 98.3839 64.9229 99.3274C61.5045 100.563 55.1098 96.6838 51.8737 94.4823L51.8145 94.4368C52.4336 93.7674 53.1025 93.1457 53.8154 92.5771C55.152 93.406 56.6098 94.0212 58.1362 94.4003C59.3574 94.7032 60.611 94.8563 61.8691 94.8561C62.9511 94.857 64.03 94.7409 65.087 94.5097C66.0143 94.3196 66.9209 94.0403 67.7944 93.6756C68.3089 94.0274 68.802 94.4094 69.2712 94.8196Z" fill="#455A64"/>
<path d="M65.0885 94.4932C65.0566 96.0064 64.8697 97.4877 64.3227 97.547C62.0894 97.8022 59.6509 95.938 58.1377 94.3838C59.3589 94.6867 60.6124 94.8397 61.8706 94.8396C62.9526 94.8405 64.0315 94.7244 65.0885 94.4932Z" fill="#DD6A57"/>
</g>
</svg>
