<svg width="16" height="16" viewBox="0 0 20 20" fill="none" xmlns="http://www.w3.org/2000/svg">
<path fill-rule="evenodd" clip-rule="evenodd" d="M3.27004 0.472333C1.89656 0.673271 0.761758 1.70085 0.383594 3.08597L0.292969 3.418V7.96878V12.5196L0.381094 12.8516C0.477266 13.2139 0.707813 13.7269 0.900195 14.0065C1.22742 14.4821 1.79699 14.9591 2.32172 15.1971C2.78348 15.4064 3.09828 15.4746 3.73047 15.502L4.31641 15.5274L4.33594 17.0117L4.35547 18.4961L4.46551 18.7203C4.68223 19.1617 5.07762 19.4522 5.57875 19.5381C5.80824 19.5775 5.88773 19.5746 6.11473 19.5185C6.26133 19.4824 6.44688 19.4133 6.52711 19.3651C6.60734 19.3168 7.52773 18.429 8.57242 17.392L10.4718 15.5066L11.5882 15.517L12.7046 15.5274L12.8074 15.842C12.9481 16.2728 13.1327 16.5626 13.4646 16.8736C13.9725 17.3496 14.5495 17.5611 15.2539 17.5293C16.2864 17.4828 17.072 16.8814 17.4723 15.8311L17.5583 15.6055L17.5694 12.0456L17.5805 8.48561L17.8685 8.26503C18.7718 7.57315 19.3776 6.60249 19.6347 5.43507C19.7253 5.02366 19.7247 4.0755 19.6336 3.66147C19.3739 2.48112 18.7502 1.49296 17.8344 0.810966C17.3193 0.427373 17.1762 0.37581 16.9391 0.48831C16.6958 0.603779 16.7011 0.565537 16.6797 2.36253L16.6602 4.00237L15.9375 4.42155C15.54 4.65214 15.1765 4.86136 15.1297 4.88647C15.0542 4.92698 14.9535 4.87968 14.241 4.46905L13.4375 4.00597V2.43143C13.4375 0.689599 13.433 0.653505 13.1957 0.508857C13.0678 0.430849 13.0161 0.430068 8.28125 0.434638C5.64941 0.437177 3.39438 0.45413 3.27004 0.472333ZM3.41797 1.39448C2.66328 1.49456 1.88641 2.04026 1.53539 2.71686C1.20621 3.35136 1.23047 2.93319 1.23047 7.96878V12.4414L1.32156 12.7344C1.45938 13.1778 1.65512 13.4989 1.98848 13.8286C2.33301 14.1692 2.69688 14.3777 3.14879 14.4933C3.39363 14.5559 3.58117 14.5703 4.15074 14.5703C4.91816 14.5703 5.04793 14.599 5.18324 14.7983C5.24793 14.8936 5.25555 15.046 5.27344 16.6034C5.29531 18.5074 5.28457 18.4383 5.57922 18.5712C5.90906 18.7199 5.8227 18.7889 8.01281 16.6282C9.10551 15.5501 10.048 14.6468 10.1072 14.6209C10.1834 14.5876 10.5768 14.5733 11.4551 14.5721L12.6953 14.5703V11.5853V8.60026L12.373 8.37655C11.3763 7.68464 10.657 6.55636 10.4478 5.35663C10.3744 4.93597 10.3745 4.16499 10.448 3.74362C10.5646 3.07526 10.8962 2.3103 11.2988 1.78108C11.4116 1.63276 11.528 1.47894 11.5575 1.43929C11.6095 1.36933 11.4922 1.36737 7.57313 1.37308C5.35223 1.37628 3.48242 1.38593 3.41797 1.39448ZM12.2724 2.05304C11.8376 2.53804 11.5154 3.18132 11.385 3.82495C11.2938 4.27495 11.3228 5.1294 11.4433 5.54429C11.5522 5.91901 11.7439 6.33198 11.9546 6.64542C12.1795 6.97987 12.6533 7.44171 12.9883 7.65288C13.4817 7.96397 13.5108 7.98589 13.5623 8.08526C13.6027 8.16331 13.6173 8.94214 13.6328 11.8555L13.6523 15.5274L13.7664 15.7526C13.9086 16.0335 14.227 16.3388 14.5214 16.4767C14.7185 16.5691 14.7941 16.5821 15.1367 16.5821C15.4788 16.5821 15.5551 16.5691 15.7507 16.4774C16.0626 16.3312 16.342 16.0569 16.4945 15.7472L16.6211 15.49L16.6406 11.7549C16.6574 8.54519 16.6682 8.01007 16.7176 7.95061C16.7492 7.91253 16.9074 7.79249 17.0692 7.68382C17.434 7.4387 17.845 7.04858 18.0714 6.73253C18.3122 6.3962 18.5761 5.82003 18.678 5.40784C18.7873 4.96604 18.7962 4.1937 18.6972 3.75577C18.5597 3.14796 18.237 2.51917 17.8393 2.08374L17.6367 1.8621L17.6172 3.1353C17.5986 4.3489 17.5938 4.4137 17.5161 4.51874C17.4223 4.6455 17.2988 4.72311 16.0761 5.42378C15.4036 5.80913 15.146 5.93753 15.0453 5.93753C14.9429 5.93753 14.6508 5.78702 13.8136 5.30276C13.21 4.95366 12.6719 4.62999 12.6178 4.58354L12.5195 4.49909L12.5 3.15999L12.4805 1.82093L12.2724 2.05304ZM3.25859 5.30804C3.03887 5.44206 2.98348 5.79679 3.15262 5.98683C3.31082 6.16456 3.38504 6.1719 5.01953 6.1719C6.69684 6.1719 6.74215 6.16675 6.9075 5.95651C7.06481 5.75659 6.98762 5.41183 6.7591 5.29366C6.66203 5.24347 6.395 5.23444 5.01172 5.23456C3.48316 5.23468 3.37121 5.23936 3.25859 5.30804ZM3.2791 7.58823C3.05246 7.74097 2.98703 7.97409 3.10613 8.20444C3.22977 8.44351 3.16082 8.43753 5.80078 8.43753C8.44074 8.43753 8.3718 8.44351 8.49543 8.20444C8.59672 8.00858 8.57207 7.83038 8.42098 7.66546L8.28727 7.51956L5.84992 7.50893L3.41254 7.49831L3.2791 7.58823ZM3.25859 9.87835C3.03887 10.0124 2.98348 10.3671 3.15262 10.5571C3.32031 10.7455 3.25348 10.7422 6.89453 10.7422C9.71297 10.7422 10.3377 10.7327 10.4439 10.6883C10.7122 10.5762 10.8157 10.2946 10.6829 10.0378C10.5566 9.79362 10.7373 9.80472 6.88672 9.80487C3.52375 9.80499 3.37395 9.80804 3.25859 9.87835Z" fill="#1F69AF"/>
</svg>
