<svg width="733" height="540" viewBox="0 0 733 540" fill="none" xmlns="http://www.w3.org/2000/svg">
<path d="M658.911 503.061H610.404V503.427H658.911V503.061Z" fill="#EBEBEB"/>
<path d="M485.093 507.044H472.366V507.411H485.093V507.044Z" fill="#EBEBEB"/>
<path d="M608.942 489.472H580.837V489.838H608.942V489.472Z" fill="#EBEBEB"/>
<path d="M140.076 491.929H76.8218V492.295H140.076V491.929Z" fill="#EBEBEB"/>
<path d="M162.403 491.929H153.132V492.295H162.403V491.929Z" fill="#EBEBEB"/>
<path d="M329.745 498.111H192.545V498.477H329.745V498.111Z" fill="#EBEBEB"/>
<path d="M349.153 414.178H66.346C64.1281 414.178 62.0011 413.297 60.4328 411.728C58.8645 410.16 57.9834 408.033 57.9834 405.815V8.28941C58.0027 6.08422 58.8923 3.97591 60.4585 2.42342C62.0247 0.870919 64.1408 -8.45431e-05 66.346 6.15489e-09H349.153C350.251 6.1549e-09 351.338 0.216304 352.353 0.636566C353.368 1.05683 354.289 1.67282 355.066 2.44936C355.842 3.2259 356.458 4.1478 356.879 5.1624C357.299 6.177 357.515 7.26444 357.515 8.36264V405.815C357.515 406.913 357.299 408.001 356.879 409.015C356.458 410.03 355.842 410.952 355.066 411.728C354.289 412.505 353.368 413.121 352.353 413.541C351.338 413.961 350.251 414.178 349.153 414.178ZM66.346 0.292913C64.2264 0.296785 62.1947 1.14051 60.6959 2.63931C59.1971 4.13811 58.3534 6.1698 58.3495 8.28941V405.815C58.3534 407.935 59.1971 409.966 60.6959 411.465C62.1947 412.964 64.2264 413.808 66.346 413.812H349.153C351.272 413.808 353.304 412.964 354.803 411.465C356.302 409.966 357.145 407.935 357.149 405.815V8.28941C357.145 6.1698 356.302 4.13811 354.803 2.63931C353.304 1.14051 351.272 0.296785 349.153 0.292913H66.346Z" fill="#EBEBEB"/>
<path d="M665.94 414.178H383.134C380.916 414.178 378.789 413.297 377.22 411.728C375.652 410.16 374.771 408.033 374.771 405.815V8.28941C374.79 6.08422 375.68 3.97591 377.246 2.42342C378.812 0.870919 380.928 -8.45431e-05 383.134 6.15489e-09H665.94C668.158 6.15491e-09 670.285 0.881062 671.854 2.44936C673.422 4.01766 674.303 6.14473 674.303 8.36264V405.815C674.303 408.033 673.422 410.16 671.854 411.728C670.285 413.297 668.158 414.178 665.94 414.178ZM383.134 0.292913C381.014 0.296785 378.982 1.14051 377.484 2.63931C375.985 4.13811 375.141 6.1698 375.137 8.28941V405.815C375.141 407.935 375.985 409.966 377.484 411.465C378.982 412.964 381.014 413.808 383.134 413.812H665.94C668.06 413.808 670.092 412.964 671.59 411.465C673.089 409.966 673.933 407.935 673.937 405.815V8.28941C673.933 6.1698 673.089 4.13811 671.59 2.63931C670.092 1.14051 668.06 0.296785 665.94 0.292913H383.134Z" fill="#EBEBEB"/>
<path d="M732.28 479.499H0V479.865H732.28V479.499Z" fill="#EBEBEB"/>
<path d="M592.283 53.207H552.901C540.413 53.207 530.289 63.3311 530.289 75.8198V115.202C530.289 127.691 540.413 137.815 552.901 137.815H592.283C604.772 137.815 614.896 127.691 614.896 115.202V75.8198C614.896 63.3311 604.772 53.207 592.283 53.207Z" fill="#F0F0F0"/>
<path d="M583.108 83.5531C583.108 90.7588 579.446 96.5877 572.241 96.5877C565.035 96.5877 561.374 90.7295 561.374 83.5531C561.374 76.3768 565.035 70.5039 572.241 70.5039C579.446 70.5039 583.108 76.3475 583.108 83.5531Z" fill="#FAFAFA"/>
<path d="M572.253 120.505H592.362V108.555C592.362 101.949 583.355 96.5891 572.253 96.5891C561.152 96.5891 552.145 101.949 552.145 108.555V120.505H572.253Z" fill="#FAFAFA"/>
<path d="M221.875 81.575H194.371C185.652 81.575 178.583 88.6435 178.583 97.3629V124.867C178.583 133.587 185.652 140.655 194.371 140.655H221.875C230.595 140.655 237.663 133.587 237.663 124.867V97.3629C237.663 88.6435 230.595 81.575 221.875 81.575Z" fill="#E6E6E6"/>
<path d="M206.917 114.309C207.804 113.076 208.831 111.951 209.978 110.955C210.76 110.263 211.485 109.509 212.145 108.7C212.597 108.101 212.839 107.37 212.834 106.62C212.85 106.108 212.738 105.6 212.507 105.142C212.277 104.684 211.936 104.291 211.516 103.998C210.479 103.319 209.253 102.985 208.015 103.046C206.718 103.016 205.433 103.313 204.281 103.91C203.188 104.499 202.246 105.331 201.527 106.342L196.123 103.178C197.381 101.28 199.133 99.7604 201.19 98.7845C203.564 97.6833 206.161 97.147 208.777 97.2174C211.684 97.0802 214.563 97.8422 217.022 99.3996C218.008 100.064 218.81 100.967 219.353 102.025C219.896 103.082 220.162 104.26 220.127 105.448C220.151 106.554 219.942 107.652 219.512 108.67C219.156 109.527 218.662 110.319 218.048 111.014C217.462 111.658 216.715 112.39 215.792 113.225C214.909 113.976 214.1 114.81 213.376 115.715C212.855 116.416 212.587 117.273 212.614 118.146H205.862C205.808 116.789 206.177 115.448 206.917 114.309ZM206.199 128.178C205.797 127.806 205.479 127.352 205.267 126.847C205.055 126.342 204.953 125.797 204.969 125.249C204.957 124.718 205.06 124.191 205.27 123.704C205.479 123.216 205.791 122.779 206.185 122.422C207.043 121.685 208.136 121.28 209.267 121.28C210.399 121.28 211.492 121.685 212.35 122.422C212.741 122.78 213.05 123.218 213.257 123.706C213.465 124.193 213.565 124.719 213.551 125.249C213.567 125.797 213.466 126.342 213.254 126.847C213.041 127.352 212.723 127.806 212.321 128.178C211.485 128.942 210.393 129.365 209.26 129.365C208.128 129.365 207.036 128.942 206.199 128.178Z" fill="#FAFAFA"/>
<path d="M588.224 283.819H609.504C612.747 283.819 615.858 285.108 618.151 287.401C620.444 289.695 621.733 292.805 621.733 296.048V317.329C621.733 320.568 620.446 323.675 618.155 325.965C615.865 328.256 612.758 329.543 609.518 329.543H588.224C584.984 329.543 581.877 328.256 579.587 325.965C577.296 323.675 576.009 320.568 576.009 317.329V296.048C576.009 292.809 577.296 289.702 579.587 287.412C581.877 285.121 584.984 283.834 588.224 283.834V283.819Z" fill="#EBEBEB"/>
<path d="M597.914 309.152C598.603 308.199 599.399 307.329 600.287 306.559C600.896 306.022 601.46 305.434 601.971 304.802C602.32 304.344 602.506 303.782 602.499 303.205C602.514 302.809 602.428 302.415 602.248 302.062C602.069 301.708 601.802 301.406 601.473 301.184C600.674 300.65 599.724 300.388 598.764 300.437C597.782 300.408 596.809 300.626 595.934 301.072C595.059 301.517 594.309 302.175 593.755 302.986L589.566 300.54C590.534 299.058 591.892 297.872 593.491 297.113C595.325 296.264 597.33 295.848 599.35 295.897C601.603 295.788 603.834 296.382 605.735 297.596C606.501 298.112 607.123 298.814 607.544 299.636C607.964 300.459 608.168 301.374 608.137 302.297C608.154 303.151 607.994 303.998 607.668 304.787C607.393 305.452 607.006 306.066 606.526 306.603C605.978 307.207 605.396 307.779 604.783 308.317C604.105 308.901 603.477 309.543 602.909 310.235C602.515 310.786 602.31 311.448 602.323 312.125H597.109C597.063 311.074 597.345 310.035 597.914 309.152ZM597.358 319.887C597.052 319.604 596.811 319.259 596.649 318.875C596.487 318.491 596.41 318.077 596.421 317.661C596.412 317.25 596.489 316.843 596.648 316.464C596.807 316.086 597.044 315.745 597.343 315.464C598.009 314.895 598.855 314.583 599.73 314.583C600.606 314.583 601.452 314.895 602.118 315.464C602.419 315.744 602.659 316.084 602.82 316.462C602.982 316.841 603.062 317.249 603.055 317.661C603.064 318.078 602.984 318.493 602.82 318.877C602.656 319.261 602.411 319.605 602.103 319.887C601.79 320.192 601.418 320.431 601.011 320.59C600.603 320.749 600.168 320.823 599.73 320.809C599.294 320.82 598.859 320.744 598.452 320.585C598.045 320.427 597.673 320.19 597.358 319.887Z" fill="#FAFAFA"/>
<path d="M171.518 170.182H144.014C135.294 170.182 128.226 177.25 128.226 185.97V213.474C128.226 222.194 135.294 229.262 144.014 229.262H171.518C180.237 229.262 187.306 222.194 187.306 213.474V185.97C187.306 177.25 180.237 170.182 171.518 170.182Z" fill="#EBEBEB"/>
<path d="M157.76 183.073C156.004 183.073 154.266 183.418 152.645 184.091C151.023 184.763 149.55 185.748 148.31 186.99C147.069 188.232 146.086 189.706 145.415 191.328C144.745 192.95 144.401 194.689 144.403 196.444C144.403 203.767 150.378 221.517 157.76 221.517C165.141 221.517 171.116 203.811 171.116 196.444C171.118 194.689 170.774 192.95 170.104 191.328C169.434 189.706 168.45 188.232 167.21 186.99C165.969 185.748 164.496 184.763 162.874 184.091C161.253 183.418 159.515 183.073 157.76 183.073ZM157.76 200.471C156.963 200.471 156.184 200.235 155.522 199.793C154.86 199.35 154.344 198.721 154.039 197.985C153.734 197.249 153.654 196.439 153.809 195.658C153.965 194.877 154.348 194.159 154.912 193.596C155.475 193.033 156.193 192.649 156.974 192.494C157.755 192.338 158.565 192.418 159.301 192.723C160.037 193.028 160.666 193.544 161.108 194.206C161.551 194.869 161.787 195.647 161.787 196.444C161.772 197.502 161.341 198.511 160.587 199.254C159.833 199.997 158.818 200.413 157.76 200.413V200.471Z" fill="#FAFAFA"/>
<path d="M163.665 280.377C164.095 277.665 164.095 274.902 163.665 272.19L159.55 271.648C159.218 270.136 158.727 268.664 158.085 267.255L161.102 264.399C159.848 261.957 158.222 259.723 156.284 257.779L152.622 259.771C151.491 258.745 150.253 257.842 148.932 257.076L149.693 252.99C147.261 251.738 144.646 250.878 141.946 250.442L140.174 254.176C139.427 254.103 138.709 254.059 137.889 254.059C137.069 254.059 136.337 254.059 135.59 254.176L133.817 250.442C131.103 250.869 128.473 251.724 126.026 252.975L126.788 257.061C125.466 257.827 124.229 258.73 123.097 259.756L119.435 257.764C117.497 259.709 115.871 261.942 114.617 264.384L117.634 267.24C116.992 268.649 116.502 270.122 116.17 271.634L112.069 272.176C111.62 274.886 111.62 277.652 112.069 280.363L116.17 280.905C116.502 282.417 116.992 283.889 117.634 285.298L114.617 288.154C115.869 290.598 117.494 292.832 119.435 294.774L123.097 292.782C124.229 293.808 125.466 294.711 126.788 295.477L126.026 299.563C128.473 300.814 131.103 301.669 133.817 302.097L135.59 298.362C136.337 298.435 137.054 298.479 137.889 298.479C138.724 298.479 139.354 298.479 140.174 298.362L141.946 302.097C144.66 301.669 147.29 300.814 149.737 299.563L148.976 295.477C150.297 294.711 151.535 293.808 152.666 292.782L156.328 294.774C158.266 292.83 159.892 290.596 161.146 288.154L158.173 285.269C158.813 283.859 159.304 282.387 159.638 280.875L163.665 280.377ZM137.889 285.401C136.083 285.404 134.317 284.871 132.814 283.869C131.312 282.868 130.14 281.443 129.447 279.775C128.755 278.107 128.573 276.271 128.925 274.5C129.276 272.729 130.146 271.102 131.423 269.825C132.699 268.548 134.327 267.679 136.098 267.327C137.869 266.975 139.705 267.157 141.373 267.85C143.041 268.542 144.465 269.714 145.467 271.217C146.468 272.719 147.001 274.485 146.999 276.291C146.995 278.706 146.034 281.021 144.326 282.728C142.619 284.436 140.304 285.397 137.889 285.401Z" fill="#EBEBEB"/>
<path d="M176.878 309.843C176.983 309.165 177.037 308.479 177.039 307.793C177.038 307.106 176.985 306.421 176.878 305.742L174.813 305.479C174.657 304.728 174.421 303.997 174.11 303.296L175.575 301.832C174.948 300.604 174.133 299.482 173.158 298.507L171.328 299.503C170.759 298.994 170.141 298.542 169.482 298.156L169.863 296.12C168.64 295.491 167.325 295.061 165.967 294.846L165.089 296.721C164.708 296.721 164.327 296.721 163.946 296.721C163.565 296.721 163.17 296.721 162.789 296.721L161.911 294.846C160.553 295.061 159.237 295.491 158.015 296.12L158.396 298.156C157.737 298.542 157.119 298.994 156.55 299.503L154.72 298.507C153.745 299.482 152.93 300.604 152.303 301.832L153.768 303.296C153.457 303.997 153.221 304.728 153.065 305.479L151.014 305.742C150.9 306.42 150.847 307.106 150.853 307.793C150.848 308.479 150.902 309.165 151.014 309.843L153.065 310.107C153.221 310.852 153.457 311.579 153.768 312.274L152.303 313.739C152.931 314.961 153.746 316.078 154.72 317.049L156.55 316.053C157.112 316.571 157.731 317.023 158.396 317.4L158.015 319.436C159.237 320.065 160.553 320.495 161.911 320.71L162.789 318.835C163.554 318.914 164.324 318.914 165.089 318.835L165.967 320.71C167.325 320.495 168.64 320.065 169.863 319.436L169.482 317.4C170.147 317.023 170.766 316.571 171.328 316.053L173.158 317.049C174.131 316.078 174.947 314.961 175.575 313.739L174.11 312.274C174.421 311.579 174.657 310.852 174.813 310.107L176.878 309.843ZM163.99 312.347C163.089 312.347 162.209 312.08 161.46 311.58C160.711 311.079 160.127 310.368 159.782 309.536C159.437 308.703 159.347 307.788 159.523 306.904C159.699 306.021 160.132 305.209 160.769 304.572C161.406 303.935 162.218 303.501 163.102 303.325C163.985 303.15 164.901 303.24 165.733 303.585C166.565 303.929 167.277 304.513 167.777 305.262C168.278 306.011 168.545 306.892 168.545 307.793C168.541 308.992 168.066 310.142 167.222 310.994C166.378 311.846 165.233 312.332 164.034 312.347H163.99Z" fill="#E0E0E0"/>
<path d="M629.378 280.289C629.931 279.881 630.455 279.436 630.945 278.956C631.43 278.469 631.875 277.945 632.278 277.389L631.019 275.749C631.435 275.11 631.779 274.427 632.044 273.713H634.123C634.55 272.408 634.767 271.044 634.768 269.671L632.761 269.085C632.732 268.322 632.614 267.565 632.41 266.829L634.123 265.658C633.709 264.348 633.08 263.116 632.263 262.011L630.316 262.699C630.077 262.403 629.823 262.119 629.554 261.85C629.276 261.572 628.998 261.323 628.705 261.074L629.393 259.126C628.28 258.323 627.05 257.696 625.746 257.266L624.575 258.979C623.831 258.79 623.071 258.672 622.304 258.628L621.719 256.636C620.345 256.632 618.98 256.849 617.676 257.28V259.345C616.964 259.621 616.282 259.97 615.641 260.385L613.986 259.126C612.864 259.945 611.876 260.933 611.057 262.055L612.316 263.695C611.903 264.343 611.555 265.03 611.276 265.746H609.211C608.787 267.051 608.57 268.415 608.567 269.788L610.559 270.374C610.602 271.135 610.72 271.89 610.91 272.629L609.197 273.815C609.626 275.119 610.254 276.349 611.057 277.462L613.005 276.759C613.253 277.052 613.502 277.345 613.781 277.623C614.059 277.901 614.337 278.15 614.63 278.385L613.942 280.333C615.046 281.15 616.279 281.778 617.589 282.193L618.76 280.479C619.496 280.683 620.253 280.801 621.016 280.831L621.601 282.837C622.979 282.836 624.348 282.618 625.658 282.193V280.113C626.37 279.842 627.053 279.499 627.694 279.088L629.378 280.289ZM618.497 272.966C617.86 272.329 617.427 271.517 617.251 270.634C617.076 269.75 617.166 268.835 617.511 268.003C617.856 267.171 618.44 266.459 619.189 265.959C619.937 265.459 620.818 265.192 621.719 265.192C622.619 265.192 623.5 265.459 624.249 265.959C624.998 266.459 625.582 267.171 625.926 268.003C626.271 268.835 626.362 269.75 626.186 270.634C626.011 271.517 625.577 272.329 624.941 272.966C624.518 273.39 624.015 273.726 623.461 273.955C622.908 274.184 622.315 274.301 621.716 274.3C621.117 274.299 620.524 274.179 619.971 273.947C619.419 273.716 618.918 273.377 618.497 272.951V272.966Z" fill="#F0F0F0"/>
<path d="M366.14 540C522.969 540 650.104 532.577 650.104 523.421C650.104 514.265 522.969 506.842 366.14 506.842C209.312 506.842 82.1768 514.265 82.1768 523.421C82.1768 532.577 209.312 540 366.14 540Z" fill="#F5F5F5"/>
<path d="M418.218 86.0575V63.2397L429.437 61.658V84.4758L418.218 86.0575Z" fill="#263238"/>
<path d="M380.908 98.7691L372.501 85.383L379.663 80.2571L388.055 93.6285L380.908 98.7691Z" fill="#263238"/>
<path d="M459.578 83.5675L467.985 67.8381L475.132 70.9576L466.74 86.7017L459.578 83.5675Z" fill="#263238"/>
<g opacity="0.5">
<path d="M418.21 86.058V63.2402L429.429 61.6584V84.4763L418.21 86.058Z" fill="white"/>
<path d="M380.916 98.7706L372.51 85.3845L379.671 80.2585L388.063 93.63L380.916 98.7706Z" fill="white"/>
<path d="M459.578 83.569L467.985 67.8396L475.132 70.9591L466.74 86.7031L459.578 83.569Z" fill="white"/>
</g>
<path d="M431.034 65.3356L416.623 67.3713C416.1 67.4679 415.561 67.446 415.048 67.3072C414.534 67.1683 414.058 66.9161 413.655 66.5691C413.252 66.222 412.931 65.7889 412.717 65.3017C412.504 64.8145 412.402 64.2856 412.419 63.7538C412.453 62.591 412.891 61.4762 413.658 60.6018C414.425 59.7275 415.474 59.1485 416.623 58.9647L431.034 56.9436C431.556 56.8473 432.093 56.8689 432.605 57.007C433.118 57.145 433.593 57.3959 433.996 57.7413C434.399 58.0867 434.72 58.5179 434.934 59.0033C435.149 59.4886 435.253 60.0159 435.237 60.5464C435.201 61.7085 434.762 62.8218 433.995 63.6956C433.228 64.5694 432.182 65.1492 431.034 65.3356Z" fill="#263238"/>
<path d="M382.008 79.8918L371.331 87.5661C371.109 87.7517 370.852 87.8896 370.574 87.9713C370.297 88.0531 370.005 88.0768 369.718 88.0411C369.431 88.0054 369.154 87.911 368.905 87.7637C368.656 87.6165 368.44 87.4196 368.27 87.1853C367.989 86.6482 367.917 86.0255 368.068 85.4383C368.22 84.851 368.584 84.341 369.091 84.0072L379.782 76.3475C380.002 76.1602 380.258 76.0207 380.535 75.9379C380.812 75.8551 381.102 75.8308 381.389 75.8666C381.676 75.9025 381.952 75.9976 382.199 76.1459C382.447 76.2943 382.661 76.4926 382.828 76.7283C383.109 77.2633 383.181 77.8836 383.029 78.4684C382.877 79.0532 382.513 79.5607 382.008 79.8918Z" fill="#263238"/>
<path d="M476.34 72.804L465.649 68.1467C465.394 68.0172 465.169 67.8362 464.987 67.6151C464.806 67.394 464.673 67.1376 464.596 66.8623C464.518 66.5869 464.499 66.2985 464.54 66.0154C464.58 65.7323 464.678 65.4606 464.829 65.2175C465.096 64.6694 465.556 64.2392 466.121 64.0095C466.686 63.7798 467.316 63.7667 467.89 63.9727L478.566 68.6446C478.825 68.7707 479.053 68.9499 479.237 69.1706C479.421 69.3913 479.556 69.6485 479.634 69.9251C479.711 70.2018 479.729 70.4918 479.687 70.7759C479.644 71.06 479.542 71.332 479.387 71.5737C479.12 72.1181 478.661 72.5447 478.099 72.7718C477.537 72.9988 476.91 73.0103 476.34 72.804Z" fill="#263238"/>
<path opacity="0.7" d="M431.034 65.3356L416.623 67.3713C416.1 67.4679 415.561 67.446 415.048 67.3072C414.534 67.1683 414.058 66.9161 413.655 66.5691C413.252 66.222 412.931 65.7889 412.717 65.3017C412.504 64.8145 412.402 64.2856 412.419 63.7538C412.453 62.591 412.891 61.4762 413.658 60.6018C414.425 59.7275 415.474 59.1485 416.623 58.9647L431.034 56.9436C431.556 56.8473 432.093 56.8689 432.605 57.007C433.118 57.145 433.593 57.3959 433.996 57.7413C434.399 58.0867 434.72 58.5179 434.934 59.0033C435.149 59.4886 435.253 60.0159 435.237 60.5464C435.201 61.7085 434.762 62.8218 433.995 63.6956C433.228 64.5694 432.182 65.1492 431.034 65.3356Z" fill="white"/>
<path opacity="0.7" d="M382.008 79.8918L371.331 87.5661C371.109 87.7517 370.852 87.8896 370.574 87.9713C370.297 88.0531 370.005 88.0768 369.718 88.0411C369.431 88.0054 369.154 87.911 368.905 87.7637C368.656 87.6165 368.44 87.4196 368.27 87.1853C367.989 86.6482 367.917 86.0255 368.068 85.4383C368.22 84.851 368.584 84.341 369.091 84.0072L379.782 76.3475C380.002 76.1602 380.258 76.0207 380.535 75.9379C380.812 75.8551 381.102 75.8308 381.389 75.8666C381.676 75.9025 381.952 75.9976 382.199 76.1459C382.447 76.2943 382.661 76.4926 382.828 76.7283C383.109 77.2633 383.181 77.8836 383.029 78.4684C382.877 79.0532 382.513 79.5607 382.008 79.8918Z" fill="white"/>
<path opacity="0.7" d="M476.34 72.804L465.649 68.1467C465.394 68.0172 465.169 67.8362 464.987 67.6151C464.806 67.394 464.673 67.1376 464.596 66.8623C464.518 66.5869 464.499 66.2985 464.54 66.0154C464.58 65.7323 464.678 65.4606 464.829 65.2175C465.096 64.6694 465.556 64.2392 466.121 64.0095C466.686 63.7798 467.316 63.7667 467.89 63.9727L478.566 68.6446C478.825 68.7707 479.053 68.9499 479.237 69.1706C479.421 69.3913 479.556 69.6485 479.634 69.9251C479.711 70.2018 479.729 70.4918 479.687 70.7759C479.644 71.06 479.542 71.332 479.387 71.5737C479.12 72.1181 478.661 72.5447 478.099 72.7718C477.537 72.9988 476.91 73.0103 476.34 72.804Z" fill="white"/>
<path d="M423.829 228.912C384.828 234.389 353.208 207.222 353.208 168.22C353.208 129.219 384.828 93.1469 423.829 87.6695C462.83 82.192 494.45 109.36 494.45 148.361L504.087 147.013C504.087 102.681 468.146 71.8083 423.829 78.0327C379.511 84.2571 343.571 125.25 343.571 169.568C343.571 213.885 379.497 244.773 423.829 238.549V228.912Z" fill="#335CEE"/>
<path d="M395.775 208.315L390.504 218.186L392.571 219.29L397.842 209.419L395.775 208.315Z" fill="#263238"/>
<path d="M455.073 97.2803L449.802 107.151L451.869 108.254L457.14 98.384L455.073 97.2803Z" fill="#263238"/>
<path d="M368.361 132.766L367.423 134.913L376.55 138.899L377.487 136.751L368.361 132.766Z" fill="#263238"/>
<path d="M393.445 107.704L391.454 108.946L396.709 117.373L398.7 116.131L393.445 107.704Z" fill="#263238"/>
<path d="M376.359 190.958L367.22 197.515L368.586 199.419L377.725 192.862L376.359 190.958Z" fill="#263238"/>
<path d="M479.065 117.205L469.926 123.762L471.292 125.666L480.431 119.109L479.065 117.205Z" fill="#263238"/>
<path d="M372.99 163.072L358.937 165.047L359.589 169.688L373.643 167.713L372.99 163.072Z" fill="#263238"/>
<path d="M426.174 93.7356H421.488V107.795H426.174V93.7356Z" fill="#263238"/>
<path d="M426.174 208.789H421.488V222.849H426.174V208.789Z" fill="#263238"/>
<path d="M405.692 143.059C405.146 143.608 404.84 144.35 404.84 145.124C404.84 145.898 405.146 146.64 405.692 147.189L421.421 160.692L425.536 155.991L409.822 142.473C409.513 142.238 409.161 142.066 408.785 141.968C408.41 141.87 408.018 141.848 407.634 141.902C407.25 141.957 406.88 142.087 406.547 142.285C406.213 142.484 405.923 142.747 405.692 143.059Z" fill="#335CEE"/>
<path opacity="0.4" d="M405.692 143.059C405.146 143.608 404.84 144.35 404.84 145.124C404.84 145.898 405.146 146.64 405.692 147.189L421.421 160.692L425.536 155.991L409.822 142.473C409.513 142.238 409.161 142.066 408.785 141.968C408.41 141.87 408.018 141.848 407.634 141.902C407.25 141.957 406.88 142.087 406.547 142.285C406.213 142.484 405.923 142.747 405.692 143.059Z" fill="white"/>
<path d="M510.951 144.876L499.22 160.591L487.503 148.171L510.951 144.876Z" fill="#335CEE"/>
<path d="M450.591 127.331C450.283 127.096 449.93 126.924 449.555 126.826C449.179 126.728 448.788 126.706 448.404 126.76C448.019 126.815 447.65 126.945 447.316 127.144C446.983 127.342 446.692 127.605 446.461 127.917L425.166 152.199C424.026 152.056 422.867 152.199 421.796 152.616C420.724 153.032 419.774 153.71 419.03 154.587C416.628 157.34 416.628 161.25 419.03 163.374C421.432 165.498 425.357 164.839 427.817 162.144C428.576 161.299 429.108 160.275 429.364 159.169C429.62 158.063 429.592 156.909 429.282 155.817L450.577 131.52C450.857 131.248 451.079 130.923 451.232 130.564C451.385 130.205 451.464 129.819 451.465 129.429C451.467 129.038 451.39 128.652 451.24 128.292C451.09 127.932 450.869 127.605 450.591 127.331Z" fill="#335CEE"/>
<path d="M454.441 215.67L472.748 213.092L471.122 221.543L438.125 226.185L439.444 219.463L459.303 201.112C461.17 199.423 462.85 197.538 464.312 195.488C465.221 194.199 465.731 192.671 465.776 191.094C465.815 190.456 465.683 189.818 465.395 189.247C465.107 188.676 464.673 188.192 464.136 187.843C462.676 187.071 460.987 186.848 459.376 187.213C457.575 187.469 455.851 188.114 454.324 189.103C452.676 190.142 451.24 191.484 450.091 193.057L443.31 189.088C445.206 186.283 447.709 183.941 450.633 182.234C453.771 180.356 457.259 179.14 460.885 178.66C463.546 178.214 466.272 178.339 468.881 179.026C470.979 179.57 472.85 180.765 474.227 182.439C475.513 184.088 476.186 186.133 476.131 188.224C476.105 191.013 475.331 193.744 473.89 196.132C471.74 199.468 469.121 202.477 466.113 205.066L454.441 215.67Z" fill="#263238"/>
<path d="M516.381 206.032L509.234 207.043L507.418 216.445L497.591 217.822L499.422 208.405L475.989 211.714L477.292 204.743L502.937 173.489L513.965 171.952L490.049 201.521L501.516 199.91L503.127 191.518L512.53 190.2L510.904 198.577L518.066 197.581L516.381 206.032Z" fill="#263238"/>
<path d="M545.147 158.726L554.242 157.438L522.241 220.589L513.219 221.849L545.147 158.726Z" fill="#263238"/>
<path d="M586.666 161.729L585.363 168.452L562.076 208.756L550.872 210.338L573.221 171.835L559.088 173.827L557.624 181.149L548.661 182.409L551.707 166.665L586.666 161.729Z" fill="#263238"/>
<path d="M443.126 269.476C441.738 269.322 440.394 268.894 439.172 268.217L441.31 263.823C442.394 264.456 443.586 264.883 444.825 265.083C446.149 265.295 447.499 265.295 448.823 265.083C450.049 264.96 451.229 264.548 452.265 263.882C452.636 263.661 452.946 263.351 453.166 262.98C453.386 262.609 453.509 262.189 453.525 261.758C453.54 261.437 453.45 261.119 453.267 260.855C453.085 260.59 452.82 260.393 452.514 260.293C451.473 259.944 450.398 259.708 449.307 259.59C448.092 259.412 446.889 259.163 445.704 258.844C444.78 258.574 443.942 258.07 443.273 257.379C442.548 256.536 442.184 255.442 442.262 254.333C442.256 252.826 442.699 251.352 443.536 250.1C444.467 248.745 445.72 247.643 447.183 246.893C448.887 246 450.737 245.42 452.646 245.179C454.1 244.96 455.576 244.926 457.04 245.077C458.259 245.177 459.451 245.5 460.554 246.029L458.577 250.334C457.69 249.854 456.722 249.541 455.721 249.412C454.618 249.266 453.5 249.266 452.397 249.412C451.132 249.543 449.919 249.986 448.867 250.701C448.485 250.927 448.166 251.245 447.939 251.626C447.711 252.007 447.582 252.439 447.564 252.883C447.552 253.109 447.596 253.335 447.694 253.539C447.791 253.744 447.938 253.921 448.12 254.054C448.53 254.367 449.006 254.583 449.512 254.684C450.068 254.801 450.859 254.933 451.884 255.08C453.091 255.214 454.285 255.439 455.458 255.753C456.366 256.028 457.189 256.532 457.845 257.218C458.196 257.616 458.464 258.08 458.632 258.583C458.801 259.086 458.867 259.618 458.826 260.147C458.841 261.666 458.391 263.153 457.537 264.409C456.588 265.758 455.327 266.859 453.861 267.616C452.133 268.565 450.248 269.196 448.296 269.476C446.582 269.725 444.84 269.725 443.126 269.476Z" fill="#263238"/>
<path d="M470.047 247.507L469.065 252.589L479.625 251.124L478.819 255.342L468.231 256.807L467.191 262.226L479.596 260.483L478.717 264.877L461.142 267.352L465.682 243.919L482.876 241.502L481.997 245.896L470.047 247.507Z" fill="#263238"/>
<path d="M503.888 251.095C502.693 252.812 501.039 254.158 499.114 254.976L503.068 261.435L497.517 262.226L493.944 256.368L489.462 256.997L488.188 263.544L482.901 264.291L487.441 240.858L496.712 239.555C498.935 239.061 501.262 239.394 503.258 240.492C504.044 241.023 504.675 241.752 505.087 242.607C505.498 243.461 505.676 244.409 505.602 245.354C505.64 247.399 505.041 249.406 503.888 251.095ZM498.835 250.275C499.318 249.802 499.698 249.233 499.95 248.605C500.202 247.978 500.321 247.304 500.3 246.628C500.344 246.186 500.264 245.739 500.07 245.339C499.876 244.938 499.576 244.599 499.201 244.358C498.225 243.881 497.115 243.747 496.053 243.978L491.893 244.563L490.297 252.692L494.778 252.062C496.286 251.912 497.707 251.287 498.835 250.275Z" fill="#263238"/>
<path d="M533.165 234.474L518.783 259.225L513.613 259.943L508.311 237.975L513.745 237.213L517.406 252.899L527.658 235.236L533.165 234.474Z" fill="#263238"/>
<path d="M535.04 234.208L540.342 233.461L535.802 256.894L530.5 257.641L535.04 234.208Z" fill="#263238"/>
<path d="M547.161 254.406C545.564 253.892 544.183 252.862 543.236 251.477C542.294 249.991 541.82 248.256 541.874 246.497C541.863 243.986 542.471 241.511 543.647 239.292C544.832 237.049 546.546 235.128 548.641 233.697C550.824 232.19 553.334 231.222 555.963 230.87C557.76 230.573 559.6 230.673 561.353 231.163C562.792 231.547 564.048 232.429 564.897 233.653L561.089 237.3C560.455 236.492 559.6 235.884 558.629 235.549C557.657 235.214 556.61 235.166 555.612 235.411C554.02 235.624 552.508 236.239 551.218 237.197C549.972 238.151 548.969 239.386 548.289 240.8C547.586 242.241 547.225 243.825 547.235 245.428C547.18 246.17 547.303 246.915 547.594 247.6C547.884 248.285 548.333 248.891 548.904 249.368C549.585 249.83 550.354 250.147 551.163 250.298C551.972 250.449 552.804 250.432 553.606 250.247C555.991 249.917 558.155 248.672 559.64 246.776L562.759 249.514C561.595 250.996 560.145 252.228 558.494 253.136C556.843 254.045 555.026 254.611 553.152 254.801C551.152 255.15 549.098 255.014 547.161 254.406Z" fill="#263238"/>
<path d="M573.901 232.981L572.919 238.048L583.479 236.584L582.673 240.787L572.085 242.251L571.045 247.656L583.45 245.913L582.571 250.307L564.996 252.782L569.551 229.349L586.701 227.005L585.822 231.399L573.901 232.981Z" fill="#263238"/>
<path d="M287.746 131.033C272.09 131.033 259.407 140.275 259.407 151.669C259.407 159.944 266.129 167.076 275.81 170.357C274.772 175.109 272.988 179.667 270.523 183.86C274.036 183.337 277.384 182.023 280.315 180.016C283.245 178.009 285.681 175.362 287.438 172.275H287.746C303.402 172.275 316.085 163.049 316.085 151.654C316.085 140.26 303.402 131.033 287.746 131.033Z" fill="#335CEE"/>
<path opacity="0.7" d="M287.746 131.033C272.09 131.033 259.407 140.275 259.407 151.669C259.407 159.944 266.129 167.076 275.81 170.357C274.772 175.109 272.988 179.667 270.523 183.86C274.036 183.337 277.384 182.023 280.315 180.016C283.245 178.009 285.681 175.362 287.438 172.275H287.746C303.402 172.275 316.085 163.049 316.085 151.654C316.085 140.26 303.402 131.033 287.746 131.033Z" fill="white"/>
<path d="M275.256 155.638C276.85 155.638 278.141 154.346 278.141 152.753C278.141 151.159 276.85 149.868 275.256 149.868C273.663 149.868 272.371 151.159 272.371 152.753C272.371 154.346 273.663 155.638 275.256 155.638Z" fill="#263238"/>
<path d="M290.44 152.753C290.44 153.333 290.268 153.899 289.946 154.381C289.624 154.862 289.167 155.238 288.632 155.46C288.096 155.681 287.507 155.739 286.939 155.626C286.371 155.513 285.849 155.234 285.439 154.825C285.03 154.415 284.751 153.893 284.638 153.325C284.525 152.757 284.583 152.168 284.804 151.632C285.026 151.097 285.402 150.64 285.883 150.318C286.365 149.996 286.931 149.824 287.511 149.824C288.288 149.824 289.033 150.133 289.582 150.682C290.131 151.231 290.44 151.976 290.44 152.753Z" fill="#263238"/>
<path d="M299.867 155.638C301.461 155.638 302.752 154.346 302.752 152.753C302.752 151.159 301.461 149.868 299.867 149.868C298.274 149.868 296.982 151.159 296.982 152.753C296.982 154.346 298.274 155.638 299.867 155.638Z" fill="#263238"/>
<path d="M544.825 446.769C544.825 446.769 545.016 427.217 537.898 429.795C530.78 432.372 544.825 446.769 544.825 446.769Z" fill="#335CEE"/>
<path d="M552.455 428.665C552.455 428.665 561.887 413.024 553.363 410.783C544.839 408.542 552.455 428.665 552.455 428.665Z" fill="#335CEE"/>
<path d="M589.743 417.622C589.743 417.622 609.324 416.612 604.901 409.274C600.478 401.937 589.743 417.622 589.743 417.622Z" fill="#335CEE"/>
<path d="M558.755 422.82C558.755 422.82 579.259 418.192 575.422 429.704C571.585 441.215 558.755 422.82 558.755 422.82Z" fill="#335CEE"/>
<path d="M543.868 464.442C543.868 464.442 536.032 446.691 531.639 453.003C527.245 459.316 543.868 464.442 543.868 464.442Z" fill="#335CEE"/>
<path d="M566.207 419.13C566.207 419.13 587.092 413.652 580.589 405.949C574.086 398.245 566.207 419.13 566.207 419.13Z" fill="#335CEE"/>
<path d="M582.011 416.98C582.011 416.98 598.531 425.094 590.916 430.396C583.3 435.698 582.011 416.98 582.011 416.98Z" fill="#335CEE"/>
<path d="M546.89 438.904C546.89 438.904 558.328 425.137 561.858 435.14C565.388 445.143 546.89 438.904 546.89 438.904Z" fill="#335CEE"/>
<g opacity="0.4">
<path d="M543.867 464.443C543.867 464.443 536.032 446.693 531.638 453.005C527.244 459.317 543.867 464.443 543.867 464.443Z" fill="white"/>
<path d="M566.206 419.129C566.206 419.129 587.091 413.652 580.588 405.948C574.085 398.245 566.206 419.129 566.206 419.129Z" fill="white"/>
<path d="M582.014 416.976C582.014 416.976 598.534 425.089 590.919 430.391C583.303 435.693 582.014 416.976 582.014 416.976Z" fill="white"/>
<path d="M546.873 438.9C546.873 438.9 558.311 425.133 561.841 435.136C565.37 445.139 546.873 438.9 546.873 438.9Z" fill="white"/>
</g>
<path d="M543.742 456.768C543.742 456.768 551.944 439.194 558.549 448.054C565.154 456.915 543.742 456.768 543.742 456.768Z" fill="#335CEE"/>
<path d="M543.882 475.251C541.397 463.799 541.754 451.912 544.922 440.629C551.63 418.661 572.207 413.491 593.004 416.815C594.658 417.079 593.926 419.569 592.286 419.305C581.243 417.548 568.853 417.372 559.231 424.05C552.347 428.869 548.452 436.528 546.577 444.554C544.378 454.45 544.323 464.703 546.416 474.622C546.753 476.262 544.234 476.906 543.882 475.266V475.251Z" fill="#335CEE"/>
<g opacity="0.3">
<path d="M543.875 475.253C541.39 463.8 541.747 451.913 544.915 440.63C551.623 418.662 572.2 413.492 592.997 416.817C594.652 417.08 593.919 419.57 592.279 419.306C581.236 417.549 568.846 417.373 559.224 424.052C552.34 428.87 548.445 436.53 546.57 444.555C544.371 454.452 544.317 464.704 546.409 474.623C546.746 476.263 544.227 476.908 543.875 475.267V475.253Z" fill="black"/>
</g>
<path d="M527.585 440.834C527.585 440.834 517.333 416.932 510.684 423.171C504.035 429.41 527.585 440.834 527.585 440.834Z" fill="#335CEE"/>
<path d="M526.693 415.409C526.693 415.409 529.124 392.254 518.227 393.25C507.331 394.246 526.693 415.409 526.693 415.409Z" fill="#335CEE"/>
<path d="M563.303 385.71C563.303 385.71 585.051 375.941 576.118 368.941C567.184 361.94 563.303 385.71 563.303 385.71Z" fill="#335CEE"/>
<path d="M530.77 405.555C530.77 405.555 551.698 390.91 553.412 406.669C555.125 422.427 530.77 405.555 530.77 405.555Z" fill="#335CEE"/>
<path d="M535.924 462.715C535.924 462.715 517.485 444.584 515.83 454.162C514.175 463.74 535.924 462.715 535.924 462.715Z" fill="#335CEE"/>
<path d="M537.287 397.806C537.287 397.806 558.172 382.018 546.66 375.472C535.149 368.925 537.287 397.806 537.287 397.806Z" fill="#335CEE"/>
<path d="M554.155 388.302C554.155 388.302 577.281 390.982 571.408 400.751C565.535 410.519 554.155 388.302 554.155 388.302Z" fill="#335CEE"/>
<path d="M525.784 430.306C525.784 430.306 531.496 408.557 540.84 419.204C550.184 429.852 525.784 430.306 525.784 430.306Z" fill="#335CEE"/>
<g opacity="0.4">
<path d="M535.928 462.716C535.928 462.716 517.489 444.584 515.835 454.163C514.18 463.741 535.928 462.716 535.928 462.716Z" fill="white"/>
<path d="M537.287 397.807C537.287 397.807 558.172 382.019 546.66 375.472C535.149 368.925 537.287 397.807 537.287 397.807Z" fill="white"/>
<path d="M554.139 388.302C554.139 388.302 577.265 390.983 571.392 400.751C565.519 410.52 554.139 388.302 554.139 388.302Z" fill="white"/>
<path d="M525.789 430.306C525.789 430.306 531.5 408.557 540.844 419.205C550.188 429.852 525.789 430.306 525.789 430.306Z" fill="white"/>
</g>
<path d="M531.719 453.431C531.719 453.431 531.719 428.431 543.933 436.354C556.148 444.277 531.719 453.431 531.719 453.431Z" fill="#335CEE"/>
<path d="M541.666 475.868C533.084 463.317 526.464 448.042 524.472 433.279C520.459 403.636 541.11 388.331 566.578 383.293C568.599 382.898 569.083 386.222 567.091 386.662C553.573 389.327 539.264 394.556 531.941 406.858C526.654 415.719 526.274 426.747 528.397 437.321C531.223 450.438 536.586 462.876 544.185 473.935C544.308 474.102 544.397 474.292 544.447 474.494C544.497 474.696 544.506 474.905 544.475 475.111C544.443 475.316 544.372 475.513 544.265 475.691C544.157 475.869 544.016 476.023 543.848 476.146C543.681 476.27 543.491 476.359 543.289 476.408C543.088 476.458 542.878 476.467 542.673 476.436C542.467 476.405 542.27 476.333 542.092 476.226C541.915 476.118 541.76 475.977 541.637 475.81L541.666 475.868Z" fill="#335CEE"/>
<g opacity="0.3">
<path d="M541.671 475.868C533.088 463.316 526.468 448.041 524.477 433.278C520.464 403.636 541.114 388.331 566.583 383.293C568.604 382.897 569.087 386.222 567.095 386.661C553.577 389.327 539.269 394.555 531.946 406.858C526.659 415.718 526.278 426.746 528.402 437.321C531.227 450.438 536.59 462.876 544.19 473.935C544.313 474.102 544.402 474.292 544.451 474.493C544.501 474.695 544.51 474.905 544.479 475.11C544.448 475.315 544.376 475.513 544.269 475.69C544.161 475.868 544.02 476.023 543.853 476.146C543.685 476.269 543.495 476.358 543.294 476.408C543.092 476.457 542.883 476.467 542.677 476.436C542.472 476.404 542.275 476.333 542.097 476.225C541.919 476.118 541.764 475.976 541.641 475.809L541.671 475.868Z" fill="black"/>
</g>
<path d="M525.151 447.12C525.151 447.12 530.014 430.907 535.228 434.862C540.441 438.816 525.151 447.12 525.151 447.12Z" fill="#335CEE"/>
<path d="M523.457 430.19C523.457 430.19 519.693 414.827 527.309 415.178C534.924 415.53 523.457 430.19 523.457 430.19Z" fill="#335CEE"/>
<path d="M495.494 411.544C495.494 411.544 479.574 405.686 485.125 400.751C490.675 395.815 495.494 411.544 495.494 411.544Z" fill="#335CEE"/>
<path d="M519.766 423.731C519.766 423.731 503.978 414.636 504.227 425.196C504.476 435.755 519.766 423.731 519.766 423.731Z" fill="#335CEE"/>
<path d="M521.391 461.954C521.391 461.954 532.493 449.344 534.499 455.671C536.505 461.998 521.391 461.954 521.391 461.954Z" fill="#335CEE"/>
<path d="M514.551 418.764C514.551 418.764 498.704 408.864 506.057 404.119C513.409 399.373 514.551 418.764 514.551 418.764Z" fill="#335CEE"/>
<path d="M502.046 413.009C502.046 413.009 486.317 415.469 491.253 421.796C496.188 428.123 502.046 413.009 502.046 413.009Z" fill="#335CEE"/>
<path d="M525.446 440.076C525.446 440.076 519.588 425.752 514.037 433.119C508.487 440.486 525.446 440.076 525.446 440.076Z" fill="#335CEE"/>
<g opacity="0.4">
<path d="M521.398 461.955C521.398 461.955 532.499 449.345 534.506 455.672C536.512 461.999 521.398 461.955 521.398 461.955Z" fill="white"/>
<path d="M514.55 418.764C514.55 418.764 498.704 408.864 506.056 404.119C513.408 399.374 514.55 418.764 514.55 418.764Z" fill="white"/>
<path d="M502.045 413.011C502.045 413.011 486.316 415.472 491.252 421.799C496.187 428.125 502.045 413.011 502.045 413.011Z" fill="white"/>
<path d="M525.445 440.072C525.445 440.072 519.587 425.749 514.036 433.115C508.485 440.482 525.445 440.072 525.445 440.072Z" fill="white"/>
</g>
<path d="M523.428 455.644C523.428 455.644 521.187 438.992 513.44 444.63C505.692 450.269 523.428 455.644 523.428 455.644Z" fill="#335CEE"/>
<path d="M518.574 470.875C523.574 462.055 526.33 452.142 526.6 442.008C526.702 422.149 511.046 412.571 493.003 409.964C491.538 409.759 491.538 412.014 493.003 412.219C502.581 413.596 512.906 416.613 519.087 424.638C523.48 430.38 524.798 437.717 524.286 444.82C523.557 453.567 520.966 462.056 516.685 469.718C515.982 470.977 517.9 472.163 518.618 470.889L518.574 470.875Z" fill="#335CEE"/>
<g opacity="0.3">
<path d="M518.578 470.876C523.578 462.056 526.334 452.143 526.604 442.009C526.707 422.15 511.051 412.571 493.007 409.965C491.543 409.76 491.543 412.015 493.007 412.22C502.585 413.597 512.91 416.614 519.091 424.639C523.485 430.381 524.803 437.718 524.29 444.821C523.562 453.568 520.97 462.057 516.689 469.719C515.986 470.978 517.905 472.164 518.622 470.89L518.578 470.876Z" fill="black"/>
</g>
<path d="M564.147 466.757L558.479 509.508C558.124 512.166 556.817 514.605 554.799 516.372C552.782 518.139 550.191 519.114 547.509 519.115H512.258C509.576 519.114 506.985 518.139 504.968 516.372C502.95 514.605 501.643 512.166 501.288 509.508L495.62 466.757H564.147Z" fill="#335CEE"/>
<path opacity="0.3" d="M564.147 466.757L558.479 509.508C558.124 512.166 556.817 514.605 554.799 516.372C552.782 518.139 550.191 519.114 547.509 519.115H512.258C509.576 519.114 506.985 518.139 504.968 516.372C502.95 514.605 501.643 512.166 501.288 509.508L495.62 466.757H564.147Z" fill="white"/>
<path d="M245.85 384.638H236.228V447.878H245.85V384.638Z" fill="#263238"/>
<path opacity="0.5" d="M245.85 384.638H236.228V447.878H245.85V384.638Z" fill="white"/>
<path d="M270.28 495.24L247.74 491.169V445.914C247.742 445.58 247.678 445.25 247.551 444.942C247.424 444.633 247.238 444.353 247.002 444.118C246.767 443.882 246.486 443.695 246.178 443.569C245.87 443.442 245.54 443.378 245.206 443.38H236.873C236.539 443.378 236.208 443.442 235.899 443.569C235.59 443.695 235.309 443.881 235.072 444.117C234.835 444.352 234.647 444.632 234.519 444.941C234.391 445.249 234.325 445.58 234.325 445.914V491.169L211.8 495.24C210.218 495.522 208.787 496.352 207.756 497.584C206.725 498.815 206.16 500.371 206.161 501.977L241.032 498.828L275.918 501.977C275.916 500.371 275.351 498.818 274.32 497.586C273.29 496.355 271.86 495.525 270.28 495.24Z" fill="#263238"/>
<path d="M213.481 508.818C213.481 510.266 213.051 511.682 212.246 512.886C211.442 514.09 210.298 515.029 208.96 515.583C207.622 516.137 206.15 516.282 204.729 516C203.309 515.717 202.004 515.02 200.98 513.996C199.956 512.972 199.258 511.667 198.976 510.246C198.693 508.826 198.838 507.353 199.392 506.015C199.947 504.677 200.885 503.534 202.089 502.729C203.294 501.924 204.709 501.495 206.158 501.495C208.1 501.495 209.962 502.266 211.336 503.64C212.709 505.013 213.481 506.876 213.481 508.818Z" fill="#335CEE"/>
<path d="M283.236 508.818C283.236 510.266 282.806 511.682 282.002 512.886C281.197 514.09 280.054 515.029 278.715 515.583C277.377 516.137 275.905 516.282 274.485 516C273.064 515.717 271.759 515.02 270.735 513.996C269.711 512.972 269.014 511.667 268.731 510.246C268.448 508.826 268.594 507.353 269.148 506.015C269.702 504.677 270.641 503.534 271.845 502.729C273.049 501.924 274.465 501.495 275.913 501.495C276.875 501.495 277.827 501.684 278.715 502.052C279.604 502.42 280.411 502.96 281.091 503.64C281.771 504.32 282.311 505.127 282.679 506.015C283.047 506.904 283.236 507.856 283.236 508.818Z" fill="#335CEE"/>
<path d="M246.765 508.818C246.765 512.86 245.096 516.14 241.039 516.14C236.982 516.14 235.327 512.86 235.327 508.818C235.327 504.775 236.997 501.495 241.039 501.495C245.081 501.495 246.765 504.775 246.765 508.818Z" fill="#335CEE"/>
<g opacity="0.5">
<path d="M247.957 491.196V499.456L250.681 499.705V491.694L247.957 491.196Z" fill="black"/>
<path d="M231.447 491.68V499.691L234.171 499.456V491.196L231.447 491.68Z" fill="black"/>
</g>
<path d="M178.214 327.037C177.606 327.038 177.007 327.172 176.457 327.43C175.908 327.688 175.422 328.064 175.033 328.531C174.645 328.997 174.364 329.543 174.21 330.131C174.056 330.718 174.033 331.332 174.142 331.929L183.076 380.069C183.48 382.257 184.637 384.234 186.346 385.657C188.056 387.08 190.21 387.86 192.434 387.861H333.223C334.053 387.861 334.875 387.697 335.642 387.379C336.408 387.061 337.105 386.594 337.691 386.007C338.278 385.419 338.742 384.721 339.059 383.954C339.375 383.186 339.537 382.364 339.535 381.534C339.535 379.153 338.589 376.869 336.905 375.185C335.222 373.502 332.938 372.556 330.557 372.556H250.226C248.097 372.557 246.029 371.845 244.351 370.533C242.674 369.222 241.483 367.387 240.97 365.321L233.779 336.293C233.125 333.653 231.606 331.307 229.464 329.629C227.322 327.952 224.681 327.039 221.96 327.037H178.214Z" fill="#263238"/>
<path d="M197.224 365.321L190.033 336.293C189.379 333.653 187.86 331.307 185.718 329.629C183.576 327.952 180.934 327.039 178.214 327.037C177.606 327.038 177.007 327.172 176.457 327.43C175.908 327.688 175.422 328.064 175.033 328.531C174.645 328.997 174.364 329.543 174.21 330.131C174.056 330.718 174.033 331.332 174.142 331.929L183.076 380.069C183.48 382.257 184.637 384.234 186.346 385.657C188.056 387.08 190.21 387.86 192.434 387.861H289.462C290.293 387.862 291.117 387.7 291.885 387.383C292.654 387.066 293.352 386.6 293.94 386.012C294.528 385.424 294.994 384.726 295.311 383.957C295.628 383.189 295.79 382.365 295.788 381.534C295.785 379.154 294.838 376.873 293.155 375.19C291.472 373.507 289.191 372.56 286.811 372.556H206.494C204.362 372.562 202.289 371.853 200.608 370.541C198.927 369.229 197.735 367.391 197.224 365.321Z" fill="#263238"/>
<path opacity="0.2" d="M197.224 365.321L190.033 336.293C189.379 333.653 187.86 331.307 185.718 329.629C183.576 327.952 180.934 327.039 178.214 327.037C177.606 327.038 177.007 327.172 176.457 327.43C175.908 327.688 175.422 328.064 175.033 328.531C174.645 328.997 174.364 329.543 174.21 330.131C174.056 330.718 174.033 331.332 174.142 331.929L183.076 380.069C183.48 382.257 184.637 384.234 186.346 385.657C188.056 387.08 190.21 387.86 192.434 387.861H289.462C290.293 387.862 291.117 387.7 291.885 387.383C292.654 387.066 293.352 386.6 293.94 386.012C294.528 385.424 294.994 384.726 295.311 383.957C295.628 383.189 295.79 382.365 295.788 381.534C295.785 379.154 294.838 376.873 293.155 375.19C291.472 373.507 289.191 372.56 286.811 372.556H206.494C204.362 372.562 202.289 371.853 200.608 370.541C198.927 369.229 197.735 367.391 197.224 365.321Z" fill="white"/>
<path d="M256.705 189.294C256.705 189.294 272.727 194.069 265.243 205.917L258.287 195.782L256.705 189.294Z" fill="#263238"/>
<path d="M314.421 250.368L321.407 240.116L328.32 242.313L329.579 245.095L320.967 257.412L314.421 250.368Z" fill="#DBB178"/>
<path d="M324.77 253.044C317.77 264.028 306.727 280.05 302.509 279.098C290.119 276.33 273.086 264.599 264.343 251.711C263.023 249.767 262.481 247.397 262.826 245.073C263.17 242.748 264.376 240.638 266.203 239.16V239.072C267.156 238.294 268.253 237.711 269.432 237.357C270.611 237.004 271.848 236.886 273.073 237.011C274.297 237.137 275.485 237.502 276.567 238.087C277.65 238.672 278.607 239.464 279.384 240.419C279.545 240.61 279.691 240.815 279.838 241.02C287.585 252.136 297.412 262.681 299.023 263.574C300.913 264.658 305.819 260.015 316.203 246.893L324.77 253.044Z" fill="#335CEE"/>
<path opacity="0.6" d="M324.77 253.044C317.77 264.028 306.727 280.05 302.509 279.098C290.119 276.33 273.086 264.599 264.343 251.711C263.023 249.767 262.481 247.397 262.826 245.073C263.17 242.748 264.376 240.638 266.203 239.16V239.072C267.156 238.294 268.253 237.711 269.432 237.357C270.611 237.004 271.848 236.886 273.073 237.011C274.297 237.137 275.485 237.502 276.567 238.087C277.65 238.672 278.607 239.464 279.384 240.419C279.545 240.61 279.691 240.815 279.838 241.02C287.585 252.136 297.412 262.681 299.023 263.574C300.913 264.658 305.819 260.015 316.203 246.893L324.77 253.044Z" fill="white"/>
<path d="M324.935 244.186L338.775 246.895L332.331 235.296C332.331 235.296 323.954 235.296 321.406 240.114L324.935 244.186Z" fill="#DBB178"/>
<path opacity="0.2" d="M284.857 271.089C274.825 264.235 273.492 248.154 273.492 248.154L267.81 245.562L265.085 252.797C270.529 260.028 277.225 266.223 284.857 271.089Z" fill="black"/>
<path d="M348.547 241.929L342.63 232.497L332.334 235.294L338.763 246.893L348.547 241.929Z" fill="#DBB178"/>
<path d="M271.695 306.297L222.603 309.519C222.603 309.519 222.252 296.338 220.538 284.197C220.007 279.971 219.165 275.791 218.019 271.689C216.745 267.501 215.09 262.799 213.186 257.336C212.937 256.663 212.688 255.989 212.41 255.286C211.765 253.587 211.106 251.815 210.359 249.97V249.882C209.696 248.079 209.768 246.087 210.56 244.336C211.352 242.585 212.8 241.216 214.592 240.523C214.929 240.392 215.277 240.289 215.632 240.216C218.751 239.557 221.9 238.956 225.093 238.458L227.846 238.048C235.197 236.953 242.606 236.288 250.034 236.056C253.886 236.056 258.002 236.174 261.517 236.335L264.446 236.481C268.166 236.701 270.743 236.935 270.743 236.935C270.743 236.935 272.354 237.257 273.306 245.884C273.328 246.374 273.377 246.863 273.453 247.348C273.57 249.135 273.672 251.39 273.716 254.1C273.863 265.172 273.204 283.757 271.695 306.297Z" fill="#335CEE"/>
<path opacity="0.6" d="M271.695 306.297L222.603 309.519C222.603 309.519 222.252 296.338 220.538 284.197C220.007 279.971 219.165 275.791 218.019 271.689C216.745 267.501 215.09 262.799 213.186 257.336C212.937 256.663 212.688 255.989 212.41 255.286C211.765 253.587 211.106 251.815 210.359 249.97V249.882C209.696 248.079 209.768 246.087 210.56 244.336C211.352 242.585 212.8 241.216 214.592 240.523C214.929 240.392 215.277 240.289 215.632 240.216C218.751 239.557 221.9 238.956 225.093 238.458L227.846 238.048C235.197 236.953 242.606 236.288 250.034 236.056C253.886 236.056 258.002 236.174 261.517 236.335L264.446 236.481C268.166 236.701 270.743 236.935 270.743 236.935C270.743 236.935 272.354 237.257 273.306 245.884C273.328 246.374 273.377 246.863 273.453 247.348C273.57 249.135 273.672 251.39 273.716 254.1C273.863 265.172 273.204 283.757 271.695 306.297Z" fill="white"/>
<path d="M229.567 237.813L241.811 254.128L250.598 246.6L262.022 252.107L255.841 236.128C253.937 236.128 251.975 236.128 250.085 236.128C243.22 236.314 236.37 236.876 229.567 237.813Z" fill="#335CEE"/>
<path opacity="0.9" d="M229.567 237.813L241.811 254.128L250.598 246.6L262.022 252.107L255.841 236.128C253.937 236.128 251.975 236.128 250.085 236.128C243.22 236.314 236.37 236.876 229.567 237.813Z" fill="white"/>
<path d="M337.925 503.178H327.482L332.242 424.355H351.779L337.925 503.178Z" fill="#DBB178"/>
<path d="M326.315 502.181C326.198 501.185 338.662 500.248 338.662 500.248C338.662 500.248 347.332 506.926 354.947 507.571C362.563 508.215 359.063 513.268 350.817 514.41L330.416 517.339C324.558 518.204 327.516 512.594 326.315 502.181Z" fill="#263238"/>
<path d="M344.917 502.607C343.327 502.513 341.757 502.213 340.245 501.713C340.184 501.699 340.129 501.668 340.084 501.625C340.054 501.525 340.054 501.418 340.084 501.318C340.084 501.186 340.772 498.096 342.369 497.188C342.608 497.042 342.875 496.95 343.153 496.917C343.431 496.884 343.713 496.911 343.98 496.997C344.756 497.232 344.961 497.671 344.975 497.979C344.975 498.608 344.375 499.311 343.511 499.956C344.344 499.721 345.226 499.721 346.059 499.956C346.24 500.024 346.406 500.128 346.547 500.262C346.688 500.395 346.801 500.555 346.879 500.732C347.002 500.963 347.054 501.224 347.031 501.484C347.007 501.744 346.909 501.991 346.748 502.196C346.215 502.568 345.557 502.715 344.917 502.607ZM341.563 501.288C343.438 501.772 345.634 502.094 346.118 501.567C346.235 501.464 346.206 501.245 346.118 500.981C346.082 500.895 346.028 500.818 345.96 500.754C345.892 500.691 345.811 500.644 345.722 500.615C344.3 500.446 342.859 500.679 341.563 501.288ZM343.262 497.627C343.044 497.627 342.831 497.688 342.647 497.803C341.813 498.529 341.224 499.496 340.963 500.571C342.574 499.648 344.185 498.491 344.185 497.993C344.185 497.905 344.009 497.788 343.731 497.686C343.578 497.644 343.42 497.624 343.262 497.627Z" fill="#335CEE"/>
<path opacity="0.2" d="M331.405 438.137L349.258 438.679L351.777 424.355H332.24L331.405 438.137Z" fill="black"/>
<path d="M287.802 504.51L277.799 503.177L293.631 415.904L313.373 421.542L287.802 504.51Z" fill="#DBB178"/>
<path d="M276.504 501.785C276.504 500.76 288.982 501.785 288.982 501.785C288.982 501.785 296.554 509.679 303.979 511.451C311.405 513.223 307.201 517.719 298.883 517.602L278.262 517.353C272.301 517.294 276.109 512.3 276.504 501.785Z" fill="#263238"/>
<path d="M295.539 505.038C293.715 504.813 291.945 504.267 290.311 503.427L290.208 503.339C290.201 503.323 290.198 503.305 290.198 503.288C290.198 503.27 290.201 503.253 290.208 503.236C290.186 503.191 290.175 503.141 290.175 503.09C290.175 503.039 290.186 502.989 290.208 502.943C290.208 502.826 291.351 499.897 293.137 499.209C293.39 499.093 293.665 499.033 293.943 499.033C294.221 499.033 294.496 499.093 294.748 499.209C295.481 499.575 295.613 500.014 295.583 500.322C295.583 500.952 294.792 501.552 293.87 502.05C294.73 501.945 295.602 502.082 296.389 502.445C296.557 502.535 296.705 502.66 296.821 502.812C296.937 502.963 297.02 503.138 297.062 503.324C297.156 503.563 297.174 503.824 297.114 504.073C297.054 504.322 296.918 504.546 296.726 504.716C296.382 504.962 295.961 505.077 295.539 505.038ZM291.629 503.163C293.416 503.925 295.539 504.628 296.023 504.13C296.14 504.042 296.169 503.837 296.023 503.544C296 503.457 295.96 503.375 295.905 503.305C295.849 503.234 295.78 503.176 295.7 503.134C294.364 502.787 292.96 502.797 291.629 503.163ZM293.679 499.795C293.518 499.8 293.359 499.835 293.211 499.897C292.288 500.482 291.567 501.335 291.146 502.343C292.932 501.684 294.617 500.732 294.646 500.263C294.646 500.175 294.499 500.029 294.25 499.912C294.095 499.834 293.926 499.784 293.753 499.765L293.679 499.795Z" fill="#335CEE"/>
<path opacity="0.2" d="M313.377 421.542L293.635 415.904L290.516 433.112L308.793 436.408L313.377 421.542Z" fill="black"/>
<path d="M327.062 431.124L352.179 432.442C358.609 402.829 365.024 370.184 363.749 363.022C361.333 349.299 342.689 335.327 270.31 323.479L236.625 374.094C236.625 374.094 285.893 371.795 330.797 371.795C330.782 371.824 328.278 400.002 327.062 431.124Z" fill="#335CEE"/>
<path opacity="0.1" d="M327.062 431.124L352.179 432.442C358.609 402.829 365.024 370.184 363.749 363.022C361.333 349.299 342.689 335.327 270.31 323.479L236.625 374.094C236.625 374.094 285.893 371.795 330.797 371.795C330.782 371.824 328.278 400.002 327.062 431.124Z" fill="black"/>
<path d="M325.381 427.18L326.128 433.756L353.647 434.693L354.995 428.644L325.381 427.18Z" fill="#335CEE"/>
<path d="M254.281 236.1H250.034C243.941 236.29 237.863 236.788 231.814 237.564C234.451 240.713 242.667 245.619 248.174 245.619C255.863 245.561 254.149 239.849 254.281 236.1Z" fill="#DBB178"/>
<path d="M288.029 426.024L313.703 430.197C324.13 401.009 334.558 369.945 334.382 362.945C334.031 349.002 330.97 341.767 280.545 330.519C280.545 330.519 277.865 326.609 271.758 306.354L222.607 309.576C222.607 309.576 200.185 350.877 217.54 368.51C221.377 372.435 228.919 374.193 236.579 374.119C236.579 374.119 254.3 374.207 298.091 372.157C298.105 372.157 292.906 397.142 288.029 426.024Z" fill="#335CEE"/>
<path d="M287.001 421.545L316.746 426.569L313.92 432.823L286.869 428.385L287.001 421.545Z" fill="#335CEE"/>
<path opacity="0.1" d="M325.381 427.18L326.128 433.756L353.647 434.693L354.995 428.644L325.381 427.18Z" fill="black"/>
<path d="M250.565 231.871C250 235.487 250.15 239.179 251.005 242.738L237.545 240.761C237.256 240.718 236.979 240.609 236.738 240.442C236.498 240.275 236.299 240.054 236.157 239.798C236.015 239.541 235.935 239.255 235.921 238.963C235.908 238.67 235.963 238.378 236.081 238.11C237.926 233.921 238.659 225.485 239.113 221.604C239.362 219.261 239.464 217.123 239.479 215.629C239.493 214.135 239.479 213.578 239.479 213.578L245.498 216.332L255.325 220.828C253.06 224.178 251.445 227.924 250.565 231.871Z" fill="#DBB178"/>
<path opacity="0.2" d="M255.355 220.823C253.067 224.17 251.428 227.915 250.522 231.866C245.611 229.919 241.555 226.284 239.083 221.614C239.347 219.271 239.45 217.133 239.464 215.639C241.603 215.859 243.594 216.078 245.498 216.342L255.355 220.823Z" fill="black"/>
<path d="M256.072 211.218C255.676 215.714 257.976 219.346 261.198 219.346C264.42 219.346 267.363 215.714 267.759 211.218C268.154 206.722 265.855 203.075 262.633 203.075C259.411 203.075 256.467 206.722 256.072 211.218Z" fill="#335CEE"/>
<path opacity="0.5" d="M255.492 211.218C255.096 215.714 257.395 219.346 260.617 219.346C263.84 219.346 266.769 215.714 267.164 211.218C267.559 206.722 265.26 203.075 262.038 203.075C258.816 203.075 255.872 206.722 255.492 211.218Z" fill="black"/>
<path d="M232.963 203.308C235.365 214.321 236.2 220.883 242.703 225.906C244.799 227.571 247.311 228.629 249.967 228.967C252.623 229.304 255.32 228.906 257.766 227.818C260.212 226.729 262.312 224.991 263.84 222.792C265.367 220.594 266.262 218.018 266.428 215.347C267.293 205.095 263.221 188.794 251.622 185.675C249.129 184.93 246.483 184.855 243.952 185.457C241.421 186.06 239.093 187.317 237.202 189.104C235.311 190.892 233.923 193.145 233.179 195.638C232.435 198.132 232.361 200.777 232.963 203.308Z" fill="#DBB178"/>
<path d="M230.417 214.803C232.2 216.956 234.674 218.426 237.417 218.963C240.888 219.549 241.679 216.341 239.907 213.222C238.325 210.424 234.591 206.748 231.486 207.569C228.381 208.389 228.176 212.094 230.417 214.803Z" fill="#DBB178"/>
<path d="M250.347 204.393C250.494 205.301 251.08 205.975 251.68 205.858C252.281 205.741 252.632 204.994 252.5 204.1C252.369 203.207 251.768 202.519 251.168 202.636C250.567 202.753 250.216 203.485 250.347 204.393Z" fill="#263238"/>
<path d="M260.684 203.179C260.816 204.087 261.416 204.761 262.002 204.644C262.588 204.527 262.969 203.78 262.837 202.872C262.705 201.964 262.09 201.305 261.504 201.407C260.918 201.51 260.464 202.271 260.684 203.179Z" fill="#263238"/>
<path d="M257.419 204.01C258.934 206.649 260.791 209.076 262.94 211.23C262.38 211.746 261.713 212.132 260.986 212.359C260.259 212.587 259.491 212.652 258.737 212.548L257.419 204.01Z" fill="#C0854B"/>
<path d="M246.659 201.48C246.573 201.5 246.482 201.5 246.396 201.48C246.333 201.447 246.278 201.401 246.234 201.346C246.189 201.29 246.156 201.226 246.137 201.158C246.118 201.09 246.113 201.018 246.122 200.948C246.131 200.877 246.155 200.809 246.191 200.748C246.585 200.001 247.157 199.362 247.857 198.89C248.557 198.417 249.363 198.125 250.204 198.039C250.273 198.033 250.343 198.041 250.41 198.063C250.476 198.085 250.537 198.121 250.589 198.167C250.642 198.214 250.684 198.271 250.713 198.334C250.742 198.398 250.758 198.467 250.76 198.537C250.766 198.607 250.758 198.678 250.736 198.745C250.714 198.812 250.679 198.875 250.632 198.928C250.586 198.981 250.529 199.025 250.465 199.055C250.402 199.086 250.333 199.104 250.262 199.108C249.601 199.182 248.969 199.419 248.423 199.798C247.876 200.176 247.431 200.683 247.128 201.275C247.073 201.346 247.001 201.401 246.919 201.437C246.838 201.473 246.748 201.488 246.659 201.48Z" fill="#263238"/>
<path d="M264.484 199.178C264.396 199.181 264.31 199.161 264.233 199.12C264.155 199.078 264.09 199.018 264.044 198.943C263.672 198.365 263.173 197.879 262.584 197.523C261.995 197.168 261.332 196.952 260.646 196.893C260.52 196.872 260.405 196.807 260.322 196.709C260.239 196.611 260.193 196.487 260.193 196.359C260.193 196.23 260.239 196.106 260.322 196.008C260.405 195.91 260.52 195.845 260.646 195.824C261.506 195.881 262.341 196.138 263.084 196.576C263.826 197.013 264.456 197.618 264.923 198.343C265.003 198.46 265.034 198.604 265.01 198.743C264.985 198.883 264.906 199.007 264.791 199.09C264.698 199.146 264.592 199.176 264.484 199.178Z" fill="#263238"/>
<path d="M235.104 217.794C235.104 217.794 242.105 210.632 238.678 193.057C238.678 193.057 244.316 197.846 257.409 194.302C257.409 194.302 249.662 195.064 246.118 191.373C246.118 191.373 253.338 194.727 265.01 191.373C265.01 191.373 262.931 179.554 250.365 178.954C250.365 178.954 254.422 175.541 258.332 176.2C258.332 176.2 254.334 172.758 244.184 179.451L240.171 181.092C240.171 181.092 228.865 177.02 222.597 186.599C217.603 194.17 220.107 218.013 235.104 217.794Z" fill="#263238"/>
<path d="M260.778 214.56C260.778 214.56 257.233 213.666 247.245 213.447C248.358 216.478 250.482 218.983 255.608 219.041C256.246 219.112 256.893 219.05 257.507 218.859C258.12 218.668 258.688 218.352 259.173 217.932C259.659 217.511 260.052 216.994 260.328 216.413C260.604 215.833 260.757 215.202 260.778 214.56Z" fill="#263238"/>
<path d="M253.359 216.621C255.327 216.549 257.269 217.097 258.909 218.188C257.951 218.801 256.823 219.094 255.687 219.023C253.727 219.105 251.791 218.556 250.166 217.456C251.116 216.849 252.233 216.557 253.359 216.621Z" fill="#A02724"/>
<path d="M260.33 214.47C260.225 214.838 260.021 215.17 259.739 215.429C259.457 215.687 259.109 215.863 258.733 215.935C255.783 215.867 252.844 215.553 249.946 214.998C249.483 214.957 249.037 214.801 248.648 214.546C248.26 214.29 247.941 213.942 247.72 213.533C251.941 213.519 256.157 213.833 260.33 214.47Z" fill="white"/>
<path d="M229.672 207.101V195.282C229.672 191.784 230.8 188.379 232.89 185.574C234.98 182.769 237.92 180.714 241.272 179.714L245.226 179.011C241.789 180.036 238.775 182.144 236.632 185.02C234.489 187.897 233.332 191.388 233.334 194.975V207.101H229.672Z" fill="#335CEE"/>
<path d="M238.855 212.826C239.251 217.323 236.951 220.955 233.729 220.955C230.507 220.955 227.563 217.323 227.183 212.826C226.802 208.33 229.086 204.683 232.309 204.683C235.531 204.683 238.46 208.33 238.855 212.826Z" fill="#335CEE"/>
<path opacity="0.5" d="M238.855 212.826C239.251 217.323 236.951 220.955 233.729 220.955C230.507 220.955 227.563 217.323 227.183 212.826C226.802 208.33 229.086 204.683 232.309 204.683C235.531 204.683 238.46 208.33 238.855 212.826Z" fill="black"/>
<path d="M236.921 212.826C237.302 217.323 235.017 220.955 231.781 220.955C228.544 220.955 225.63 217.323 225.234 212.826C224.839 208.33 227.138 204.683 230.36 204.683C233.582 204.683 236.526 208.33 236.921 212.826Z" fill="#335CEE"/>
<path opacity="0.3" d="M232.852 214.015L232.589 211.642H233.043C232.457 209.313 230.816 207.571 229.015 207.571C227.214 207.571 225.895 209.313 225.705 211.642H226.013L226.276 214.015H225.925C226.511 216.343 228.151 218.071 229.938 218.071C231.724 218.071 233.072 216.343 233.248 214.015H232.852Z" fill="white"/>
<path d="M211.808 213.828L218.208 201.232L223.378 213.447C223.378 213.447 218.193 220.037 212.847 219.085L211.808 213.828Z" fill="#DBB178"/>
<path d="M228.161 196.587L231.925 207.058L223.372 213.444L218.217 201.229L228.161 196.587Z" fill="#DBB178"/>
<path d="M213.495 227.384L219.646 217.029L219.002 212.811L213.583 210.893L205.865 222.902L213.495 227.384Z" fill="#DBB178"/>
<path d="M217.936 220.943L206.703 245.665C206.703 245.665 212.166 240.758 215.183 240.055C219.987 238.928 234.486 243.307 219.796 259.256C219.796 259.256 190.71 277.431 184.779 270.386C180.165 264.909 199.761 231.619 208.739 217.032L217.936 220.943Z" fill="#335CEE"/>
<path opacity="0.6" d="M217.936 220.943L206.703 245.665C206.703 245.665 212.166 240.758 215.183 240.055C219.987 238.928 234.486 243.307 219.796 259.256C219.796 259.256 190.71 277.431 184.779 270.386C180.165 264.909 199.761 231.619 208.739 217.032L217.936 220.943Z" fill="white"/>
<path opacity="0.2" d="M206.699 245.663L203.565 255.314L212.762 241.167C210.617 242.49 208.589 243.995 206.699 245.663Z" fill="black"/>
<path d="M248.77 223.737C247.541 223.768 246.31 223.69 245.094 223.503C241.96 222.376 238.927 220.984 236.029 219.343L236.615 218.289C239.429 219.868 242.368 221.215 245.402 222.316C248.521 222.575 251.656 222.575 254.775 222.316L254.863 223.532C254.629 223.532 251.553 223.737 248.77 223.737Z" fill="#335CEE"/>
<path d="M250.093 223.989L255.951 223.55C255.951 223.55 255.79 221.734 253.022 221.807C250.254 221.88 250.093 223.989 250.093 223.989Z" fill="#335CEE"/>
<g opacity="0.5">
<path d="M248.775 223.739C247.545 223.77 246.315 223.692 245.099 223.505C241.965 222.378 238.932 220.986 236.033 219.346L236.619 218.291C239.434 219.87 242.373 221.217 245.406 222.319C248.525 222.577 251.661 222.577 254.78 222.319L254.867 223.534C254.633 223.534 251.558 223.739 248.775 223.739Z" fill="black"/>
<path d="M250.089 223.991L255.947 223.552C255.947 223.552 255.786 221.736 253.018 221.809C250.25 221.882 250.089 223.991 250.089 223.991Z" fill="black"/>
</g>
<path d="M483.394 517.778C483.087 517.79 482.779 517.741 482.491 517.634C482.202 517.527 481.937 517.364 481.711 517.154C481.485 516.945 481.303 516.693 481.175 516.413C481.046 516.133 480.975 515.831 480.963 515.523L466.318 345.956C466.292 344.493 465.721 343.093 464.715 342.031C463.71 340.968 462.343 340.321 460.884 340.215H391.698C390.239 340.321 388.873 340.968 387.867 342.031C386.862 343.093 386.29 344.493 386.265 345.956L371.619 515.523C371.617 515.837 371.553 516.147 371.428 516.436C371.304 516.724 371.124 516.985 370.897 517.202C370.67 517.419 370.402 517.589 370.108 517.7C369.815 517.812 369.502 517.863 369.188 517.851C368.555 517.723 367.995 517.357 367.625 516.828C367.254 516.3 367.101 515.649 367.196 515.01L381.842 345.429C382.354 339.497 386.587 335.03 391.698 335.03H460.884C465.995 335.03 470.228 339.497 470.741 345.429L485.386 515.01C485.482 515.649 485.328 516.3 484.957 516.828C484.587 517.357 484.027 517.723 483.394 517.851V517.778Z" fill="#335CEE"/>
<g opacity="0.4">
<path d="M483.4 517.781C483.092 517.792 482.785 517.743 482.496 517.636C482.207 517.529 481.942 517.366 481.717 517.157C481.491 516.947 481.308 516.695 481.18 516.415C481.052 516.135 480.98 515.833 480.969 515.525L466.323 345.958C466.298 344.496 465.726 343.096 464.72 342.033C463.715 340.971 462.348 340.323 460.889 340.217H391.704C390.245 340.323 388.878 340.971 387.873 342.033C386.867 343.096 386.295 344.496 386.27 345.958L371.624 515.525C371.623 515.839 371.558 516.15 371.434 516.438C371.31 516.727 371.129 516.987 370.902 517.204C370.675 517.422 370.407 517.591 370.114 517.703C369.82 517.814 369.507 517.866 369.193 517.854C368.56 517.726 368.001 517.36 367.63 516.831C367.26 516.302 367.106 515.651 367.201 515.013L381.847 345.431C382.36 339.5 386.592 335.033 391.704 335.033H460.889C466.001 335.033 470.233 339.5 470.746 345.431L485.392 515.013C485.487 515.651 485.334 516.302 484.963 516.831C484.592 517.36 484.033 517.726 483.4 517.854V517.781Z" fill="black"/>
</g>
<path d="M482.435 327.694H294.371C292.729 327.694 291.397 329.025 291.397 330.667V340.304C291.397 341.946 292.729 343.277 294.371 343.277H482.435C484.077 343.277 485.408 341.946 485.408 340.304V330.667C485.408 329.025 484.077 327.694 482.435 327.694Z" fill="#263238"/>
<path opacity="0.2" d="M400.27 327.694H482.431C483.208 327.694 483.953 328.003 484.503 328.552C485.052 329.101 485.361 329.846 485.361 330.623V340.26C485.361 341.037 485.052 341.782 484.503 342.331C483.953 342.881 483.208 343.189 482.431 343.189H400.27V327.694Z" fill="white"/>
<path d="M407.623 517.778C407.308 517.792 406.993 517.742 406.698 517.632C406.403 517.521 406.133 517.352 405.905 517.134C405.676 516.917 405.494 516.656 405.369 516.366C405.244 516.077 405.179 515.765 405.177 515.45L390.531 345.883C390.506 344.42 389.934 343.02 388.929 341.958C387.923 340.895 386.557 340.248 385.098 340.142H315.912C314.456 340.251 313.093 340.9 312.09 341.963C311.088 343.025 310.518 344.423 310.493 345.883L295.848 515.523C295.846 515.837 295.781 516.147 295.657 516.436C295.533 516.724 295.352 516.985 295.125 517.202C294.898 517.419 294.63 517.589 294.337 517.7C294.043 517.812 293.73 517.863 293.416 517.852C292.774 517.717 292.21 517.337 291.843 516.793C291.477 516.249 291.337 515.583 291.454 514.937L306.1 345.356C306.612 339.424 310.859 334.957 315.956 334.957H385.142C390.253 334.957 394.486 339.424 394.998 345.356L409.644 514.937C409.74 515.574 409.588 516.223 409.221 516.751C408.853 517.28 408.297 517.647 407.667 517.778H407.623Z" fill="#335CEE"/>
<g opacity="0.4">
<path d="M407.627 517.78C407.312 517.794 406.998 517.744 406.702 517.633C406.407 517.523 406.137 517.354 405.909 517.136C405.681 516.919 405.498 516.657 405.373 516.368C405.248 516.078 405.183 515.767 405.181 515.451L390.536 345.885C390.51 344.422 389.939 343.022 388.933 341.96C387.928 340.897 386.561 340.249 385.102 340.144H315.916C314.46 340.253 313.097 340.902 312.095 341.964C311.092 343.026 310.523 344.424 310.498 345.885L295.852 515.525C295.85 515.839 295.785 516.149 295.661 516.438C295.537 516.726 295.356 516.987 295.13 517.204C294.903 517.421 294.635 517.591 294.341 517.702C294.048 517.814 293.735 517.865 293.421 517.853C292.779 517.719 292.214 517.339 291.848 516.795C291.481 516.25 291.341 515.585 291.458 514.939L306.104 345.357C306.617 339.426 310.864 334.959 315.96 334.959H385.146C390.258 334.959 394.49 339.426 395.003 345.357L409.648 514.939C409.744 515.575 409.593 516.224 409.225 516.753C408.857 517.281 408.301 517.649 407.671 517.78H407.627Z" fill="black"/>
</g>
<path d="M353.454 320.021H407.73V325.133C407.73 325.812 407.46 326.464 406.98 326.945C406.499 327.425 405.847 327.696 405.167 327.696H356.017C355.337 327.696 354.685 327.425 354.204 326.945C353.724 326.464 353.454 325.812 353.454 325.133V320.051V320.021Z" fill="#263238"/>
<path opacity="0.2" d="M353.454 320.021H407.73V325.133C407.73 325.812 407.46 326.464 406.98 326.945C406.499 327.425 405.847 327.696 405.167 327.696H356.017C355.337 327.696 354.685 327.425 354.204 326.945C353.724 326.464 353.454 325.812 353.454 325.133V320.051V320.021Z" fill="white"/>
<path d="M315.055 320.021H369.331V325.133C369.331 325.812 369.061 326.464 368.581 326.945C368.1 327.425 367.448 327.696 366.768 327.696H317.618C316.938 327.696 316.286 327.425 315.805 326.945C315.325 326.464 315.055 325.812 315.055 325.133V320.051V320.021Z" fill="#263238"/>
<path opacity="0.6" d="M315.055 320.021H369.331V325.133C369.331 325.812 369.061 326.464 368.581 326.945C368.1 327.425 367.448 327.696 366.768 327.696H317.618C316.938 327.696 316.286 327.425 315.805 326.945C315.325 326.464 315.055 325.812 315.055 325.133V320.051V320.021Z" fill="white"/>
<path d="M363.06 322.934H358.021V324.75H363.06V322.934Z" fill="#263238"/>
<path d="M354.987 322.934H349.949V324.75H354.987V322.934Z" fill="#263238"/>
<path d="M411.546 327.695H414.138C414.847 327.68 415.529 327.417 416.064 326.951C416.599 326.486 416.954 325.847 417.067 325.147L425.854 271.119C425.923 270.69 425.9 270.251 425.786 269.832C425.671 269.413 425.468 269.024 425.191 268.689C424.914 268.355 424.568 268.084 424.177 267.894C423.786 267.704 423.359 267.601 422.925 267.589L380.79 267.516L369.396 327.563H371.988L411.546 327.695Z" fill="#263238"/>
<path opacity="0.6" d="M411.546 327.695H414.138C414.847 327.68 415.529 327.417 416.064 326.951C416.599 326.486 416.954 325.847 417.067 325.147L425.854 271.119C425.923 270.69 425.9 270.251 425.786 269.832C425.671 269.413 425.468 269.024 425.191 268.689C424.914 268.355 424.568 268.084 424.177 267.894C423.786 267.704 423.359 267.601 422.925 267.589L380.79 267.516L369.396 327.563H371.988L411.546 327.695Z" fill="white"/>
<path opacity="0.2" d="M370.063 323.788L369.331 327.625H371.923L411.466 327.698H414.058C414.767 327.683 415.449 327.42 415.984 326.954C416.519 326.489 416.874 325.85 416.987 325.15L417.192 323.876L370.063 323.788Z" fill="black"/>
<path d="M369.379 327.664H372.001C372.71 327.649 373.392 327.386 373.927 326.92C374.462 326.454 374.817 325.816 374.93 325.115L383.717 271.058C383.787 270.63 383.763 270.192 383.649 269.774C383.534 269.356 383.331 268.967 383.054 268.634C382.776 268.3 382.43 268.031 382.039 267.843C381.649 267.655 381.222 267.553 380.788 267.543L369.379 327.664Z" fill="#263238"/>
<path opacity="0.3" d="M369.379 327.664H372.001C372.71 327.649 373.392 327.386 373.927 326.92C374.462 326.454 374.817 325.816 374.93 325.115L383.717 271.058C383.787 270.63 383.763 270.192 383.649 269.774C383.534 269.356 383.331 268.967 383.054 268.634C382.776 268.3 382.43 268.031 382.039 267.843C381.649 267.655 381.222 267.553 380.788 267.543L369.379 327.664Z" fill="white"/>
</svg>
