<svg width="16" height="16" viewBox="0 0 16 16" fill="none" xmlns="http://www.w3.org/2000/svg">
<path d="M8.74064 1.65341C8.58485 1.64191 8.42868 1.63615 8.27246 1.63614V0.727051C8.45113 0.727138 8.62974 0.733809 8.80792 0.747051L8.74064 1.65341ZM10.5625 2.06251C10.271 1.95005 9.97176 1.8592 9.66701 1.79069L9.8661 0.903414C10.2143 0.981596 10.557 1.08523 10.8897 1.21432L10.5625 2.06251ZM11.8079 2.70796C11.6779 2.62128 11.5448 2.5394 11.4088 2.46251L11.857 1.6716C12.1678 1.84772 12.4653 2.04644 12.747 2.26614L12.1879 2.98341C12.0647 2.88726 11.9379 2.79568 11.8079 2.70887V2.70796ZM13.4752 4.33523C13.2954 4.07976 13.097 3.83789 12.8816 3.6116L13.5397 2.98432C13.7852 3.24341 14.0125 3.52069 14.2188 3.8116L13.4752 4.33523ZM14.1516 5.56432C14.0919 5.4202 14.027 5.27828 13.957 5.13887L14.7688 4.72978C14.9294 5.04895 15.0661 5.37954 15.1779 5.71887L14.3143 6.00341C14.2654 5.85511 14.2111 5.70865 14.1516 5.56432ZM14.6334 7.84341C14.626 7.531 14.5956 7.21954 14.5425 6.9116L15.4379 6.75705C15.4988 7.10796 15.5343 7.46432 15.5434 7.82069L14.6343 7.84341H14.6334ZM14.5143 9.2416C14.5443 9.08705 14.5688 8.93341 14.5879 8.77796L15.4906 8.88978C15.447 9.24446 15.3771 9.59542 15.2816 9.93978L14.4052 9.69705C14.447 9.54705 14.4834 9.39523 14.5143 9.2416ZM13.6488 11.4043C13.8161 11.1407 13.9634 10.8643 14.0906 10.5789L14.9216 10.9471C14.7761 11.2743 14.6079 11.5889 14.417 11.8907L13.6488 11.4043ZM12.7725 12.4998C12.8834 12.3889 12.9897 12.2743 13.0906 12.1561L13.7797 12.7498C13.663 12.8851 13.5414 13.0161 13.4152 13.1425L12.7725 12.4998Z" fill="#1F69AF" stroke="#1F69AF" stroke-width="0.4"/>
<path d="M8.27264 1.63614C7.22616 1.63622 6.19586 1.89437 5.27298 2.38772C4.3501 2.88108 3.56313 3.59442 2.98178 4.46455C2.40043 5.33468 2.04263 6.33476 1.94009 7.3762C1.83754 8.41763 1.99341 9.46829 2.39389 10.4351C2.79437 11.4019 3.42709 12.255 4.23602 12.9189C5.04496 13.5828 6.00513 14.0369 7.03149 14.2411C8.05785 14.4453 9.11872 14.3932 10.1201 14.0895C11.1216 13.7857 12.0326 13.2397 12.7726 12.4998L13.4154 13.1425C12.5697 13.9887 11.5283 14.6132 10.3836 14.9607C9.23885 15.3082 8.02606 15.368 6.8527 15.1348C5.67933 14.9015 4.5816 14.3825 3.65677 13.6236C2.73195 12.8647 2.00858 11.8895 1.55076 10.7842C1.09294 9.67897 0.914807 8.47785 1.03214 7.2873C1.14948 6.09674 1.55866 4.95351 2.22343 3.95889C2.8882 2.96427 3.78803 2.14897 4.84321 1.58524C5.89838 1.0215 7.07631 0.726734 8.27264 0.727051V1.63614Z" fill="#1F69AF" stroke="#1F69AF" stroke-width="0.4"/>
<path d="M7.81783 3.4541C7.93838 3.4541 8.054 3.50199 8.13924 3.58723C8.22448 3.67248 8.27237 3.78809 8.27237 3.90865V8.64501L11.2251 10.3323C11.3267 10.3936 11.4003 10.4922 11.4302 10.6071C11.4601 10.722 11.4438 10.844 11.385 10.947C11.3261 11.0501 11.2292 11.126 11.1151 11.1586C11.001 11.1912 10.8786 11.1778 10.7742 11.1214L7.59237 9.30319C7.5228 9.26345 7.46497 9.20603 7.42474 9.13674C7.38451 9.06746 7.36331 8.98877 7.36328 8.90865V3.90865C7.36328 3.78809 7.41117 3.67248 7.49641 3.58723C7.58166 3.50199 7.69727 3.4541 7.81783 3.4541Z" fill="#1F69AF" stroke="#1F69AF" stroke-width="0.4"/>
</svg>
