<svg width="60" height="64" viewBox="0 0 70 64" fill="none" xmlns="http://www.w3.org/2000/svg">
<path fill-rule="evenodd" clip-rule="evenodd" d="M43.775 4.8635V5.70942H45.2554C46.0696 5.70942 46.7357 5.78132 46.7357 5.86888C46.7357 5.95664 42.739 10.0245 37.854 14.9084L28.9722 23.7882L24.5819 19.4015L20.1916 15.015L14.636 20.5735L9.08019 26.1323L9.72647 26.7517L10.373 27.3709L15.2859 22.4614L20.1986 17.5521L24.5307 21.8881L28.8629 26.2241L38.3816 16.707C43.617 11.4725 47.9716 7.18978 48.0583 7.18978C48.1451 7.18978 48.2161 7.85595 48.2161 8.67015V10.1505H49.062H49.908V7.08404V4.01758H46.8415H43.775V4.8635ZM47.1587 35.5408V54.7985L46.3657 54.7327L45.5726 54.6671L45.5185 38.1188L45.4643 21.5704H41.1302H36.7962V38.1717V54.7729H35.9502H35.1043V44.3046V33.8363H30.6632H26.2221V44.3046V54.7729H25.3762H24.5303V41.6611V28.5493H20.1967H15.8628L15.8084 41.6082L15.7539 54.6671L14.9608 54.7327L14.1678 54.7985V48.6526V42.507H9.72668H5.28559V48.6399V54.7729H4.43967H3.59375V55.6188V56.4647H30.6632H57.7327V55.6188V54.7729H56.8868H56.0409V35.5282V16.2834H51.5998H47.1587V35.5408ZM49.062 36.3741V54.786L51.6527 54.7266L54.2433 54.6671V36.3741V18.081L51.6527 18.0216L49.062 17.9622V36.3741ZM38.488 39.0176V54.7729H41.1315H43.775V39.0176V23.2623H41.1315H38.488V39.0176ZM17.5515 42.507V54.7729H20.195H22.8385V42.507V30.2411H20.195H17.5515V42.507ZM28.1255 45.1505V54.7729H30.6632H33.201V45.1505V35.5282H30.6632H28.1255V45.1505ZM7.18892 49.4859V54.7729H9.72668H12.2644V49.4859V44.1988H9.72668H7.18892V49.4859Z" fill="#0F8BFF"/>
</svg>
