<svg width="355" height="355" viewBox="0 0 355 355" fill="none" xmlns="http://www.w3.org/2000/svg">
<path fill-rule="evenodd" clip-rule="evenodd" d="M0.335217 226.653C0.850116 227.754 1.72847 228.272 3.08196 228.272C6.15503 228.272 7.30862 225.001 4.91927 223.064C2.5697 221.158 -0.94637 223.911 0.335217 226.653ZM0.363661 210.785C1.52357 212.842 4.82393 212.771 5.85979 210.667C6.39102 209.588 6.39839 209.157 5.90061 208.229C4.66907 205.934 1.49407 205.834 0.400007 208.056C-0.12174 209.116 -0.132276 209.906 0.363661 210.785ZM0.363661 194.793C1.53832 196.876 4.82525 196.777 5.88428 194.626C6.51401 193.347 6.248 192.214 5.08783 191.232C3.52865 189.913 1.26125 190.315 0.400007 192.065C-0.12174 193.124 -0.132276 193.914 0.363661 194.793ZM0.35497 178.695C1.32577 180.847 4.81392 180.808 5.88428 178.635C6.51401 177.356 6.248 176.222 5.08783 175.241C3.52865 173.921 1.26125 174.324 0.400007 176.073C-0.117526 177.124 -0.126218 177.629 0.35497 178.695ZM0.35497 162.703C1.12376 164.407 3.54814 164.829 5.08783 163.526C7.8912 161.153 4.88135 157.188 1.54095 158.853C0.128466 159.557 -0.355618 161.129 0.35497 162.703ZM0.35497 146.712C1.12376 148.416 3.54814 148.837 5.08783 147.534C7.8912 145.162 4.88135 141.197 1.54095 142.862C0.128466 143.566 -0.355618 145.137 0.35497 146.712ZM0.377884 130.687C1.2702 132.429 3.54577 132.847 5.07756 131.551C7.31942 129.654 6.05679 126.485 3.05879 126.485C1.59363 126.485 0.615449 127.173 0.243299 128.464C-0.103041 129.666 -0.0972464 129.758 0.377884 130.687ZM5.16737 240.819C5.76971 242.352 5.8906 242.509 6.1071 242.041C6.45633 241.287 6.14713 240.337 5.23901 239.375C4.29138 238.371 4.28164 238.566 5.16737 240.819ZM5.22558 115.454C6.06548 114.679 6.49452 113.339 6.11315 112.682C5.94538 112.393 5.69386 112.803 5.15789 114.239L4.43045 116.188L5.22558 115.454ZM17.1415 258.986C18.7433 261.263 22.2407 260.556 22.7677 257.849C22.9487 256.92 22.4936 255.86 21.5654 255.051C21.1517 254.69 20.6141 254.544 19.6999 254.544C18.6156 254.544 18.289 254.666 17.6011 255.329C16.472 256.417 16.2997 257.789 17.1415 258.986ZM16.9337 242.658C17.4341 243.729 18.4497 244.333 19.7518 244.333C21.0758 244.333 22.0993 243.637 22.5852 242.407C23.054 241.22 22.8051 240.33 21.7087 239.274C20.4793 238.089 19.0491 238.08 17.7343 239.251C16.6508 240.215 16.3637 241.437 16.9337 242.658ZM16.9279 226.653C17.4525 227.775 18.3175 228.272 19.7458 228.272C21.2251 228.272 22.1862 227.634 22.6213 226.364C23.0445 225.128 22.7377 224.109 21.6702 223.206C20.3797 222.114 19.0001 222.133 17.7343 223.259C16.6545 224.22 16.3635 225.445 16.9279 226.653ZM16.9197 210.643C17.9595 212.864 21.5562 212.819 22.5302 210.573C23.0854 209.292 22.8014 208.172 21.6805 207.223C20.3792 206.122 19.0041 206.138 17.7343 207.268C16.6598 208.224 16.363 209.454 16.9197 210.643ZM16.9324 194.652C17.9311 196.861 21.3842 196.845 22.477 194.626C23.1067 193.347 22.8407 192.214 21.6805 191.232C20.1213 189.913 17.8539 190.315 16.9927 192.065C16.4788 193.109 16.4667 193.622 16.9324 194.652ZM16.9476 178.695C17.5932 180.126 19.6878 180.722 21.2804 179.928C22.0226 179.558 22.8831 178.19 22.8831 177.379C22.8831 176.568 22.0226 175.199 21.2804 174.829C19.6675 174.025 17.7233 174.59 16.9927 176.073C16.4751 177.124 16.4665 177.629 16.9476 178.695ZM17.0027 162.733C18.0831 164.846 21.4042 164.822 22.4525 162.693C22.9797 161.622 22.9882 161.233 22.5088 160.127C21.5657 157.952 18.0557 157.923 16.9927 160.082C16.457 161.17 16.4588 161.67 17.0027 162.733ZM16.9706 146.678C17.8658 148.426 20.1384 148.839 21.6805 147.534C22.8014 146.586 23.0854 145.465 22.5302 144.185C21.5623 141.952 17.8969 141.92 16.9363 144.135C16.4659 145.22 16.4725 145.705 16.9706 146.678ZM16.8173 130.441C17.2289 131.421 18.6261 132.324 19.7336 132.324C20.9797 132.324 22.4928 131.174 22.7535 130.029C22.9924 128.981 22.4559 127.603 21.5725 126.997C20.647 126.362 18.9061 126.324 17.9653 126.918C16.8431 127.627 16.3155 129.245 16.8173 130.441ZM16.8173 114.449C16.9392 114.739 17.4149 115.282 17.8742 115.655C19.0623 116.618 20.4611 116.583 21.6702 115.56C23.9016 113.672 22.65 110.494 19.6746 110.494C18.293 110.494 17.4262 111.023 16.9292 112.169C16.5183 113.117 16.491 113.672 16.8173 114.449ZM16.8173 98.4576C17.2289 99.4384 18.6261 100.341 19.7336 100.341C21.0371 100.341 22.5283 99.1648 22.7646 97.9507C22.9687 96.9014 22.3555 95.4416 21.478 94.8872C20.6117 94.3402 18.8447 94.3331 17.9898 94.873C16.8652 95.5833 16.3158 97.2628 16.8173 98.4576ZM21.6402 272.439C22.5346 273.776 22.7603 273.984 22.8296 273.535C22.9308 272.88 22.3627 271.738 21.6083 271.08C20.5419 270.15 20.5577 270.822 21.6402 272.439ZM20.9902 84.0953C21.4501 84.0953 22.6192 82.6383 22.7796 81.8651C22.8728 81.4163 22.8786 81.0493 22.7925 81.0493C22.635 81.0493 20.7761 83.7453 20.7761 83.9732C20.7761 84.0405 20.8725 84.0953 20.9902 84.0953ZM33.6162 274.724C34.2796 276.004 35.7682 276.663 37.117 276.273C38.1831 275.965 39.1186 275.045 39.3783 274.048C39.7747 272.526 38.4007 270.704 36.7103 270.51C35.4177 270.361 34.5506 270.772 33.7552 271.909C33.0346 272.94 33.0049 273.545 33.6162 274.724ZM33.4487 258.473C34.4045 260.782 37.5834 261.05 38.9572 258.938C39.7623 257.699 39.5192 256.31 38.3106 255.242C36.8138 253.92 34.9597 254.195 33.7552 255.918C33.1113 256.839 33.0349 257.474 33.4487 258.473ZM33.5264 242.658C34.0239 243.723 34.9762 244.292 36.2926 244.309C39.2687 244.349 40.504 241.094 38.2397 239.178C37.3927 238.461 37.1488 238.383 36.1088 238.496C33.9275 238.733 32.653 240.787 33.5264 242.658ZM33.5124 226.635C34.011 227.699 35.0221 228.272 36.4022 228.272C39.3056 228.272 40.4845 225.086 38.2732 223.215C36.9718 222.114 35.5968 222.129 34.327 223.259C33.2525 224.215 32.9556 225.445 33.5124 226.635ZM33.5124 210.643C34.6036 212.973 38.3849 212.794 39.2142 210.372C39.6372 209.137 39.3301 208.118 38.2629 207.215C36.9724 206.123 35.5928 206.141 34.327 207.268C33.2525 208.224 32.9556 209.454 33.5124 210.643ZM33.5277 194.686C34.5238 196.82 38.1678 196.784 39.1015 194.631C39.5756 193.537 39.5714 193.134 39.0765 192.128C38.5769 191.114 37.4425 190.451 36.2049 190.451C35.4977 190.451 35.0163 190.663 34.327 191.276C33.2424 192.241 32.9562 193.462 33.5277 194.686ZM33.5954 178.725C34.7616 181.005 38.477 180.733 39.2295 178.312C39.4689 177.542 39.466 177.104 39.2169 176.376C38.4004 173.992 34.7076 173.794 33.5854 176.073C33.0497 177.161 33.0515 177.661 33.5954 178.725ZM33.5632 162.669C34.6655 164.822 37.9901 164.836 39.0451 162.693C39.5724 161.622 39.5808 161.233 39.1015 160.127C38.1584 157.952 34.6483 157.923 33.5854 160.082C33.0565 161.156 33.0523 161.671 33.5632 162.669ZM33.41 146.432C33.8 147.361 35.2217 148.315 36.2168 148.315C39.1213 148.315 40.4798 145.091 38.3741 143.195C36.9373 141.902 34.4324 142.37 33.5854 144.09C33.1142 145.047 33.071 145.624 33.41 146.432ZM33.41 130.441C33.8216 131.421 35.2188 132.324 36.3263 132.324C37.5723 132.324 39.0854 131.174 39.3462 130.029C39.751 128.254 38.3103 126.485 36.4591 126.485C34.1458 126.485 32.5945 128.498 33.41 130.441ZM33.6599 114.716C34.8111 116.535 36.7048 116.878 38.2732 115.551C40.5137 113.655 39.304 110.494 36.3384 110.494C34.8814 110.494 34.0281 111.002 33.5219 112.169C33.0339 113.294 33.0597 113.767 33.6599 114.716ZM33.6465 98.7244C34.8488 100.575 36.7467 100.897 38.3106 99.5154C40.1276 97.9106 39.5909 95.3025 37.2932 94.5725C34.6557 93.7343 32.2119 96.5168 33.6465 98.7244ZM33.7339 82.8223C34.5459 83.9778 35.4124 84.3971 36.6858 84.2509C38.0541 84.094 39.2055 82.9893 39.3862 81.6603C39.5653 80.3434 38.663 79.0161 37.2932 78.581C34.5706 77.716 32.1618 80.5863 33.7339 82.8223ZM35.0474 290.311C36.039 291.489 36.8649 292.238 37.1712 292.238C37.8254 292.238 39.1376 290.964 39.3591 290.113C39.9904 287.689 37 285.561 34.8177 286.881C33.2201 287.847 33.2417 288.167 35.0474 290.311ZM34.3613 67.6155C35.3921 68.5488 37.3187 68.4881 38.4017 67.4883C39.3522 66.6105 39.6675 65.3553 39.2069 64.2834C38.8616 63.4798 37.7891 62.5195 37.2371 62.5195C36.8246 62.5195 33.6815 66.1643 33.6815 66.6422C33.6815 66.839 33.9873 67.2769 34.3613 67.6155ZM51.2932 307.035C52.9653 308.572 53.141 308.646 54.0447 308.198C55.7071 307.373 56.4216 305.856 55.814 304.443C54.5777 301.566 50.6576 301.895 49.882 304.941C49.7422 305.49 49.9534 305.803 51.2932 307.035ZM50.1981 290.715C50.4867 291.26 51.0685 291.791 51.7006 292.089C52.6374 292.529 52.8302 292.541 53.7992 292.216C56.0403 291.463 56.7166 288.995 55.1216 287.39C52.7294 284.984 48.6273 287.754 50.1981 290.715ZM50.1981 274.724C50.4867 275.268 51.0685 275.8 51.7006 276.097C52.6374 276.538 52.8302 276.55 53.7992 276.224C56.0403 275.471 56.7166 273.003 55.1216 271.399C52.7294 268.992 48.6273 271.762 50.1981 274.724ZM50.0413 258.473C50.9971 260.782 54.1761 261.05 55.5499 258.938C56.3642 257.685 56.1132 256.311 54.8696 255.212C54.002 254.446 53.781 254.371 52.7357 254.484C51.4106 254.628 50.6258 255.193 50.1061 256.376C49.6921 257.319 49.6832 257.608 50.0413 258.473ZM50.1177 242.626C50.581 243.651 51.65 244.293 52.9229 244.31C55.8638 244.349 57.0801 241.08 54.8324 239.178C53.9904 238.466 53.7381 238.384 52.7228 238.494C51.4101 238.637 50.6245 239.204 50.1061 240.385C49.6695 241.379 49.6708 241.637 50.1177 242.626ZM50.1088 226.635C50.6015 227.698 51.6137 228.272 52.9948 228.272C55.8983 228.272 57.0772 225.086 54.8659 223.215C53.5629 222.112 52.1831 222.128 50.94 223.259C49.8804 224.223 49.572 225.476 50.1088 226.635ZM50.1051 210.643C50.6002 211.701 51.6161 212.281 52.9717 212.281C54.272 212.281 55.11 211.808 55.675 210.755C56.7422 208.766 55.1922 206.443 52.7976 206.443C50.7691 206.443 49.2488 208.814 50.1051 210.643ZM50.1751 194.716C51.2552 196.767 54.5812 196.802 55.6689 194.775C56.7714 192.72 55.2583 190.451 52.7855 190.451C52.092 190.451 51.6042 190.667 50.9197 191.276C49.7914 192.28 49.5293 193.49 50.1751 194.716ZM50.143 178.661C51.2481 180.751 54.5735 180.825 55.6689 178.783C56.7877 176.698 55.2946 174.46 52.7855 174.46C52.092 174.46 51.6042 174.675 50.9197 175.285C49.8138 176.269 49.5301 177.502 50.143 178.661ZM50.0026 162.423C50.6703 164.014 52.8518 164.741 54.4969 163.921C57.2549 162.547 56.0663 158.468 52.9079 158.468C50.7656 158.468 49.2236 160.567 50.0026 162.423ZM50.2526 146.699C50.935 147.777 51.7983 148.315 52.8479 148.315C54.0987 148.315 55.1398 147.713 55.6378 146.701C56.1688 145.623 56.1812 144.946 55.6868 144.025C54.5569 141.919 51.2276 141.959 50.178 144.09C49.6221 145.22 49.6365 145.725 50.2526 146.699ZM50.2526 130.707C51.2455 132.277 52.86 132.754 54.4658 131.954C55.2501 131.563 56.0684 130.203 56.0684 129.29C56.0684 128.534 55.396 127.355 54.6944 126.882C53.9572 126.384 52.3217 126.371 51.3501 126.855C50.5926 127.232 49.7466 128.599 49.7485 129.443C49.749 129.701 49.9758 130.27 50.2526 130.707ZM50.2526 114.716C51.4038 116.535 53.2975 116.878 54.8659 115.551C57.1154 113.648 55.8962 110.494 52.9108 110.494C51.5368 110.494 50.4899 111.183 50.0082 112.404C49.6342 113.352 49.6834 113.816 50.2526 114.716ZM50.2391 98.7244C51.4415 100.575 53.3393 100.897 54.9033 99.5154C56.7203 97.9106 56.1835 95.3025 53.8858 94.5725C51.2484 93.7343 48.8045 96.5168 50.2391 98.7244ZM50.1067 82.4454C50.7116 83.7285 51.4962 84.2222 52.9306 84.2222C54.0149 84.2222 54.3415 84.1001 55.0294 83.4371C56.6982 81.8288 56.099 79.2841 53.8858 78.581C51.3977 77.7903 49.0458 80.1954 50.1067 82.4454ZM50.1067 66.4539C50.7116 67.737 51.4962 68.2307 52.9306 68.2307C54.0149 68.2307 54.3415 68.1086 55.0294 67.4456C56.7211 65.815 56.1037 63.3138 53.8211 62.551C52.9148 62.2482 52.648 62.2538 51.8091 62.5934C50.1836 63.2513 49.4166 64.9906 50.1067 66.4539ZM50.138 50.5208C50.9958 52.4228 53.5479 52.882 55.0758 51.4095C56.6376 49.904 56.0987 47.4208 54.0346 46.6113C53.1945 46.2818 53.1684 46.294 51.4667 47.8285C50.521 48.6808 49.7522 49.4509 49.7577 49.5398C49.7635 49.6284 49.9344 50.07 50.138 50.5208ZM66.7141 306.624C67.4853 308.286 69.572 308.908 71.0769 307.925C72.2716 307.145 72.7106 306.307 72.5608 305.092C72.3161 303.106 70.1232 301.89 68.2991 302.728C66.7291 303.45 66.0341 305.158 66.7141 306.624ZM66.7907 290.715C67.461 291.979 68.9607 292.652 70.2665 292.275C71.7922 291.834 72.5294 290.912 72.5294 289.442C72.5294 288.426 72.3943 288.074 71.759 287.435C69.3278 284.989 65.1994 287.715 66.7907 290.715ZM66.7907 274.724C67.0794 275.268 67.6612 275.8 68.2933 276.097C69.2301 276.538 69.4229 276.55 70.3919 276.224C72.6329 275.471 73.3093 273.003 71.7143 271.399C69.322 268.992 65.22 271.762 66.7907 274.724ZM66.634 258.473C67.5898 260.782 70.7688 261.05 72.1425 258.938C72.9569 257.685 72.7059 256.311 71.4622 255.212C70.5947 254.446 70.3737 254.371 69.3284 254.484C68.0033 254.628 67.2185 255.193 66.6988 256.376C66.2848 257.319 66.2758 257.608 66.634 258.473ZM66.7104 242.626C67.1737 243.651 68.2427 244.293 69.5156 244.31C72.4565 244.349 73.6727 241.08 71.4251 239.178C70.5831 238.466 70.3308 238.384 69.3154 238.494C68.0028 238.637 67.2171 239.204 66.6988 240.385C66.2621 241.379 66.2635 241.637 66.7104 242.626ZM66.7499 226.622C67.3715 227.786 68.1663 228.26 69.5077 228.267C70.8623 228.273 71.6945 227.815 72.2676 226.746C73.0367 225.313 72.5363 223.684 71.0703 222.849C69.4495 221.926 67.4631 222.619 66.7033 224.372C66.2445 225.431 66.2498 225.685 66.7499 226.622ZM66.7807 210.708C67.2988 211.721 68.3357 212.281 69.6923 212.281C72.7254 212.281 73.7791 208.168 71.0895 206.828C69.3581 205.965 67.4592 206.637 66.7033 208.381C66.2455 209.437 66.2534 209.676 66.7807 210.708ZM66.7396 194.652C67.5198 196.142 69.9404 196.802 71.2871 195.893C73.8479 194.165 72.5455 190.451 69.3781 190.451C67.3704 190.451 65.8265 192.91 66.7396 194.652ZM66.7112 178.416C67.7615 180.72 71.1038 180.941 72.2616 178.783C73.3804 176.698 71.8873 174.46 69.3781 174.46C68.6791 174.46 68.2098 174.67 67.54 175.285C66.4921 176.246 66.2095 177.314 66.7112 178.416ZM66.7112 162.424C67.7615 164.728 71.1038 164.95 72.2616 162.792C73.3667 160.732 71.9239 158.468 69.5059 158.468C68.6625 158.468 68.2511 158.641 67.54 159.293C66.4921 160.255 66.2095 161.323 66.7112 162.424ZM66.7112 146.433C67.7615 148.737 71.1038 148.958 72.2616 146.8C73.6614 144.191 70.8923 141.529 68.0681 142.77C66.7578 143.345 66.1059 145.105 66.7112 146.433ZM66.7112 130.441C67.7542 132.729 70.7287 132.986 72.1486 130.91C73.0248 129.629 72.6316 127.789 71.2871 126.882C70.596 126.415 69.0113 126.364 68.0681 126.778C66.7578 127.354 66.1059 129.113 66.7112 130.441ZM66.7143 114.45C67.7478 116.737 70.7287 116.994 72.1486 114.919C73.4425 113.027 72.0366 110.494 69.6923 110.494C68.3159 110.494 67.2848 111.063 66.7707 112.107C66.2574 113.15 66.2508 113.424 66.7143 114.45ZM66.7143 98.4584C67.2385 99.6184 68.3331 100.341 69.5672 100.341C70.4345 100.341 70.7933 100.17 71.6387 99.3552C72.8265 98.2104 72.9782 97.1644 72.1475 95.8513C71.5041 94.8344 70.7487 94.44 69.4772 94.457C68.2251 94.4735 67.2959 95.0494 66.7578 96.1422C66.2579 97.1575 66.2527 97.4362 66.7143 98.4584ZM66.6993 82.4454C67.2372 83.5864 68.0312 84.141 69.3284 84.2821C70.3737 84.3956 70.5947 84.3202 71.4622 83.5539C73.2521 81.973 72.8449 79.491 70.6508 78.6074C68.2077 77.6236 65.6137 80.1431 66.6993 82.4454ZM66.7204 66.5123C67.6032 68.4171 70.1411 68.8727 71.6684 67.401C73.3135 65.8153 72.6637 63.3029 70.4137 62.551C69.5075 62.2482 69.2406 62.2538 68.4018 62.5934C66.7525 63.261 66.0125 64.9855 66.7204 66.5123ZM66.7204 50.5208C67.6032 52.4256 70.1411 52.8812 71.6684 51.4095C73.3135 49.8238 72.6637 47.3114 70.4137 46.5595C69.5075 46.2567 69.2406 46.2623 68.4018 46.6019C66.7525 47.2695 66.0125 48.994 66.7204 50.5208ZM69.5483 321.548C70.9763 322.532 72.0632 323.122 72.2028 322.987C72.6127 322.592 72.6977 320.823 72.3385 320.167C71.7714 319.132 70.2994 318.32 69.2752 318.478C68.313 318.626 67.1302 319.269 67.1302 319.645C67.1302 319.775 68.2185 320.631 69.5483 321.548ZM67.9282 35.8358C68.431 36.1313 69.1506 36.3732 69.5275 36.3737C70.3816 36.375 71.8826 35.4226 72.3385 34.5903C72.6619 33.9994 72.6277 32.1967 72.2866 31.868C72.1351 31.722 69.3639 33.4623 67.7966 34.6875L67.0146 35.299L67.9282 35.8358ZM83.3202 322.629C83.7482 323.571 85.1175 324.473 86.1201 324.474C86.9743 324.475 88.4753 323.523 88.9312 322.69C89.4434 321.755 89.1561 320.227 88.307 319.373C85.9835 317.036 81.9683 319.658 83.3202 322.629ZM83.2296 306.373C83.6892 307.947 85.8423 308.884 87.313 308.151C88.6464 307.487 89.1221 306.77 89.1221 305.427C89.1221 304.418 88.9859 304.065 88.3517 303.427C86.0609 301.122 82.3236 303.272 83.2296 306.373ZM83.2101 290.298C83.8888 292.546 86.7559 293.102 88.4908 291.322C89.4521 290.336 89.3855 288.475 88.3517 287.435C86.1014 285.171 82.3009 287.288 83.2101 290.298ZM83.1982 274.307C84.1917 277.428 88.7989 276.913 89.1822 273.638C89.2972 272.654 89.2132 272.412 88.4729 271.6C87.4365 270.462 86.1675 270.159 84.8918 270.746C83.4464 271.41 82.7452 272.884 83.1982 274.307ZM83.2235 258.4C83.6679 259.881 85.7024 260.783 87.2105 260.168C88.4547 259.66 89.0347 258.908 89.1872 257.603C89.313 256.527 89.2543 256.389 88.2651 255.435C87.4497 254.649 87.0067 254.417 86.3219 254.418C85.1085 254.419 83.7685 255.265 83.312 256.318C82.8869 257.298 82.8877 257.282 83.2235 258.4ZM83.1184 242.168C83.2836 242.994 84.6281 244.185 85.5405 244.314C86.7565 244.486 87.9862 243.975 88.652 243.02C89.6965 241.523 89.3249 239.838 87.7425 238.896C86.6848 238.266 85.0569 238.361 84.1928 239.102C83.6657 239.554 82.8962 240.999 82.9686 241.4C82.9883 241.509 83.0558 241.855 83.1184 242.168ZM83.1184 226.176C83.1809 226.489 83.5888 227.089 84.0245 227.509C84.6808 228.141 85.0298 228.272 86.0548 228.272C87.4565 228.272 88.2827 227.823 88.8603 226.746C90.0252 224.575 88.2801 222.187 85.7667 222.512C85.1994 222.585 84.4914 222.854 84.1928 223.111C83.6657 223.563 82.8962 225.007 82.9686 225.409C82.9883 225.518 83.0558 225.863 83.1184 226.176ZM83.4253 210.636C83.9665 211.784 84.8378 212.281 86.3106 212.281C89.3204 212.281 90.3568 208.161 87.6822 206.828C85.9508 205.965 84.0518 206.637 83.296 208.381C82.8443 209.423 82.843 209.4 83.4253 210.636ZM83.307 194.407C84.0742 196.105 86.4309 196.871 87.8798 195.893C89.7289 194.645 89.6178 191.801 87.6822 190.836C85.9508 189.973 84.0518 190.646 83.296 192.389C82.8598 193.395 82.8601 193.417 83.307 194.407ZM83.307 178.416C84.3479 180.719 87.6964 180.941 88.8542 178.783C89.9641 176.715 88.4808 174.46 86.0103 174.46C84.9094 174.46 83.7895 175.259 83.296 176.398C82.8598 177.404 82.8601 177.426 83.307 178.416ZM83.3039 162.424C84.3542 164.728 87.6964 164.95 88.8542 162.792C89.9594 160.732 88.5166 158.468 86.0985 158.468C85.2552 158.468 84.8438 158.641 84.1327 159.293C83.0847 160.255 82.8021 161.323 83.3039 162.424ZM83.3039 146.433C83.8035 147.528 84.9342 148.315 86.0103 148.315C88.4742 148.315 89.9644 146.06 88.8603 144.003C88.2959 142.951 87.4576 142.477 86.1625 142.477C84.0521 142.477 82.4877 144.642 83.3039 146.433ZM83.3039 130.441C84.0777 132.139 85.9771 132.788 87.6822 131.938C89.6178 130.974 89.7289 128.13 87.8798 126.882C87.1887 126.415 85.6039 126.364 84.6608 126.778C83.3505 127.354 82.6986 129.113 83.3039 130.441ZM83.3039 114.45C84.0777 116.147 85.9771 116.797 87.6822 115.947C89.6178 114.982 89.7289 112.138 87.8798 110.89C87.1887 110.424 85.6039 110.373 84.6608 110.787C83.3505 111.362 82.6986 113.122 83.3039 114.45ZM83.2991 98.4368C84.0266 100.011 85.8057 100.727 87.4036 100.09C88.3557 99.7093 89.2541 98.3988 89.2527 97.3915C89.2517 96.4978 88.4342 95.1484 87.648 94.7431C86.8568 94.3351 85.1649 94.3892 84.4912 94.8441C83.2359 95.6914 82.7321 97.2098 83.2991 98.4368ZM83.2991 82.4454C83.8275 83.5886 84.6226 84.141 85.9479 84.2849C87.0649 84.4062 87.2082 84.3496 88.1974 83.3962C89.0131 82.6104 89.2535 82.1834 89.2527 81.5235C89.2514 80.3475 88.372 79.0618 87.2632 78.6153C84.8183 77.6309 82.2298 80.132 83.2991 82.4454ZM83.3202 66.5123C84.2439 68.543 86.8226 68.8912 88.4286 67.2022C89.2251 66.3648 89.302 66.1541 89.1835 65.1401C89.026 63.7932 88.2337 62.8795 86.8866 62.4903C84.4901 61.7984 82.2996 64.2689 83.3202 66.5123ZM83.3202 50.5208C84.2439 52.5515 86.8226 52.8997 88.4286 51.2108C89.2251 50.3734 89.302 50.1627 89.1835 49.1486C89.026 47.8018 88.2337 46.888 86.8866 46.4989C84.4901 45.8069 82.2996 48.2775 83.3202 50.5208ZM83.3202 34.5294C84.2439 36.56 86.8226 36.9083 88.4286 35.2193C89.2332 34.373 89.3028 34.1783 89.179 33.1178C88.9441 31.1097 86.9927 29.884 85.1225 30.5699C83.4377 31.1879 82.6186 32.9873 83.3202 34.5294ZM99.7359 338.138C99.8081 338.587 100.242 338.906 101.546 339.471C102.49 339.879 103.476 340.212 103.737 340.212C103.998 340.212 104.593 339.794 105.058 339.283C105.806 338.462 105.89 338.223 105.775 337.237C105.63 335.997 104.92 335.1 103.7 334.612C102.759 334.237 101.183 334.606 100.467 335.369C99.9453 335.924 99.5939 337.255 99.7359 338.138ZM99.8926 322.44C100.306 323.638 101.409 324.348 102.857 324.348C103.89 324.348 104.16 324.226 104.945 323.4C106.161 322.121 106.195 320.814 105.045 319.552C104.114 318.53 103.052 318.227 101.797 318.626C100.133 319.156 99.3208 320.782 99.8926 322.44ZM99.8223 306.373C100.289 307.97 102.435 308.884 103.948 308.13C105.978 307.118 106.456 305.109 105.036 303.55C102.779 301.073 98.8891 303.179 99.8223 306.373ZM99.8223 290.382C100.289 291.978 102.435 292.892 103.948 292.139C105.978 291.127 106.456 289.117 105.036 287.559C102.779 285.081 98.8891 287.187 99.8223 290.382ZM99.7369 273.944C99.8934 274.9 100.522 275.655 101.554 276.127C103.47 277.003 105.846 275.496 105.846 273.405C105.846 272.552 105.674 272.213 104.824 271.394C103.693 270.304 102.703 270.124 101.403 270.772C100.144 271.4 99.5162 272.595 99.7369 273.944ZM99.7332 258.031C99.8504 258.936 101.117 260.143 102.16 260.344C103.793 260.659 105.487 259.499 105.76 257.88C105.964 256.663 105.454 255.554 104.402 254.927C103.392 254.326 102.412 254.278 101.403 254.781C100.129 255.416 99.5428 256.557 99.7332 258.031ZM99.94 242.37C100.51 243.966 101.888 244.655 103.638 244.218C106.187 243.581 106.575 239.957 104.219 238.783C101.732 237.543 99.0271 239.81 99.94 242.37ZM99.94 226.378C100.419 227.72 101.221 228.26 102.748 228.267C104.401 228.274 105.55 227.348 105.76 225.839C106.045 223.788 104.453 222.241 102.34 222.514C100.384 222.767 99.2839 224.539 99.94 226.378ZM99.8339 210.166C100.166 211.369 101.436 212.281 102.779 212.281C104.052 212.281 104.891 211.802 105.453 210.755C106.564 208.684 105.066 206.443 102.571 206.443C100.786 206.443 99.3463 208.401 99.8339 210.166ZM99.8339 194.174C100.166 195.378 101.436 196.289 102.779 196.289C104.052 196.289 104.891 195.81 105.453 194.764C106.564 192.693 105.066 190.451 102.571 190.451C100.786 190.451 99.3463 192.409 99.8339 194.174ZM99.8339 178.183C100.166 179.386 101.436 180.298 102.779 180.298C104.052 180.298 104.891 179.819 105.453 178.772C106.564 176.701 105.066 174.46 102.571 174.46C100.786 174.46 99.3463 176.418 99.8339 178.183ZM99.8339 162.191C100.142 163.307 101.444 164.306 102.587 164.306C105.066 164.306 106.56 162.058 105.453 159.994C104.89 158.944 104.051 158.468 102.763 158.468C100.782 158.468 99.3192 160.328 99.8339 162.191ZM99.8339 146.2C100.142 147.315 101.444 148.315 102.587 148.315C105.066 148.315 106.56 146.066 105.453 144.003C104.89 142.952 104.051 142.477 102.763 142.477C100.782 142.477 99.3192 144.336 99.8339 146.2ZM99.8439 130.223C100.139 131.322 101.447 132.324 102.587 132.324C105.066 132.324 106.56 130.075 105.453 128.011C104.527 126.287 102.311 125.927 100.75 127.248C99.7762 128.072 99.5049 128.963 99.8439 130.223ZM99.8362 114.217C100.141 115.331 101.443 116.332 102.587 116.332C105.066 116.332 106.56 114.084 105.453 112.02C104.903 110.995 104.057 110.494 102.878 110.494C100.607 110.494 99.2668 112.134 99.8362 114.217ZM99.836 98.2117C100.497 100.669 104.258 101.043 105.476 98.7719C106.762 96.3749 104.409 93.7683 101.754 94.6481C100.097 95.1972 99.3827 96.5252 99.836 98.2117ZM99.9023 82.3588C100.235 83.3391 101.661 84.3491 102.713 84.3491C104.59 84.3491 106.017 82.7918 105.769 81.0127C105.421 78.5094 102.438 77.52 100.595 79.2963C99.7383 80.1218 99.5007 81.1734 99.9023 82.3588ZM99.8971 66.3516C100.063 66.841 100.573 67.4518 101.106 67.7995C102.431 68.6646 103.834 68.4506 105.021 67.2022C105.818 66.3648 105.895 66.1541 105.776 65.1401C105.696 64.4522 105.411 63.7719 105.048 63.3996C102.701 60.9915 98.832 63.2084 99.8971 66.3516ZM99.8971 50.3602C100.063 50.8496 100.573 51.4603 101.106 51.808C102.431 52.6731 103.834 52.4591 105.021 51.2108C105.818 50.3734 105.895 50.1627 105.776 49.1486C105.696 48.4607 105.411 47.7805 105.048 47.4081C102.701 45 98.832 47.217 99.8971 50.3602ZM99.8926 34.3552C100.063 34.8581 100.566 35.4648 101.106 35.8166C102.431 36.6816 103.834 36.4677 105.021 35.2193C105.819 34.3809 105.895 34.172 105.776 33.1539C105.538 31.1214 103.714 29.9165 101.797 30.5262C100.13 31.0564 99.324 32.6766 99.8926 34.3552ZM99.8186 18.2732C100.293 19.8716 102.436 20.7833 103.948 20.03C106.019 18.9979 106.469 16.9695 104.976 15.399L104.105 14.4835L102.145 15.3038C101.066 15.7549 100.108 16.1971 100.016 16.2864C99.6721 16.619 99.5858 17.4888 99.8186 18.2732ZM116.899 339.256C118.136 340.771 120.274 340.794 121.629 339.307C122.745 338.082 122.748 336.762 121.638 335.543C119.669 333.383 116.382 334.599 116.382 337.489C116.382 338.23 116.56 338.84 116.899 339.256ZM116.912 323.28C117.563 324.077 119.015 324.571 120.059 324.35C121.252 324.097 122.439 322.641 122.439 321.429C122.439 320.217 121.252 318.76 120.059 318.508C118.971 318.278 117.542 318.795 116.913 319.646C116.199 320.612 116.199 322.406 116.912 323.28ZM116.922 307.301C117.674 308.221 119.263 308.656 120.324 308.233C122.476 307.374 123.093 305.158 121.629 303.55C120.274 302.063 118.136 302.087 116.899 303.602C116.183 304.48 116.195 306.41 116.922 307.301ZM117.182 291.447C118.634 292.847 120.564 292.69 121.889 291.067C123.659 288.899 120.896 285.588 118.212 286.659C116.975 287.153 116.382 288.062 116.382 289.461C116.382 290.476 116.513 290.803 117.182 291.447ZM116.777 275.008C116.984 275.373 117.588 275.872 118.122 276.116C118.93 276.485 119.257 276.511 120.087 276.271C122.759 275.5 123.276 272.366 120.973 270.902C119.643 270.058 117.734 270.437 116.793 271.733C116.284 272.432 116.276 274.119 116.777 275.008ZM116.73 258.925C117.786 260.755 120.447 260.851 121.868 259.109C123.332 257.316 121.813 254.417 119.41 254.417C118.519 254.417 117.311 255.028 116.793 255.741C116.302 256.416 116.269 258.124 116.73 258.925ZM116.73 242.933C117.344 243.998 118.254 244.372 120.029 244.292C120.37 244.276 121.051 243.875 121.544 243.401C122.56 242.421 122.731 241.229 122.04 239.94C121.039 238.075 118.088 237.968 116.793 239.75C116.302 240.424 116.269 242.132 116.73 242.933ZM117.277 227.409C118.041 228.146 118.354 228.272 119.41 228.272C120.467 228.272 120.779 228.146 121.544 227.409C122.56 226.429 122.731 225.237 122.04 223.949C120.624 221.31 116.382 222.385 116.382 225.383C116.382 226.367 116.519 226.679 117.277 227.409ZM117.277 211.418C118.035 212.148 118.358 212.281 119.38 212.281C122.49 212.281 123.605 208.192 120.868 206.828C119.53 206.161 118.294 206.326 117.277 207.306C116.513 208.042 116.382 208.343 116.382 209.362C116.382 210.38 116.513 210.681 117.277 211.418ZM117.277 195.426C118.023 196.145 118.366 196.289 119.325 196.289C120.642 196.289 121.479 195.82 122.046 194.764C123.163 192.68 121.658 190.451 119.134 190.451C118.392 190.451 117.968 190.648 117.277 191.314C116.513 192.051 116.382 192.352 116.382 193.37C116.382 194.389 116.513 194.69 117.277 195.426ZM117.277 179.435C118.023 180.153 118.366 180.298 119.325 180.298C120.642 180.298 121.479 179.829 122.046 178.772C123.15 176.714 121.695 174.46 119.262 174.46C118.374 174.46 118.007 174.62 117.277 175.323C116.513 176.059 116.382 176.36 116.382 177.379C116.382 178.397 116.513 178.698 117.277 179.435ZM117.277 163.443C117.968 164.11 118.392 164.306 119.134 164.306C121.658 164.306 123.163 162.077 122.046 159.994C121.479 158.938 120.642 158.468 119.325 158.468C118.366 158.468 118.023 158.613 117.277 159.331C116.513 160.068 116.382 160.369 116.382 161.387C116.382 162.406 116.513 162.707 117.277 163.443ZM117.277 147.452C117.968 148.118 118.392 148.315 119.134 148.315C121.658 148.315 123.163 146.086 122.046 144.003C121.479 142.946 120.642 142.477 119.325 142.477C118.366 142.477 118.023 142.621 117.277 143.34C116.513 144.076 116.382 144.378 116.382 145.396C116.382 146.414 116.513 146.715 117.277 147.452ZM117.277 131.46C118.294 132.44 119.53 132.605 120.868 131.938C123.605 130.574 122.49 126.485 119.38 126.485C118.358 126.485 118.035 126.618 117.277 127.348C116.513 128.085 116.382 128.386 116.382 129.404C116.382 130.423 116.513 130.724 117.277 131.46ZM117.277 115.469C118.294 116.449 119.53 116.614 120.868 115.947C123.605 114.582 122.49 110.494 119.38 110.494C118.358 110.494 118.035 110.626 117.277 111.357C116.513 112.094 116.382 112.395 116.382 113.413C116.382 114.431 116.513 114.732 117.277 115.469ZM117.106 99.3369C119.115 101.504 122.759 99.8555 122.356 96.9608C122.094 95.0758 120.255 94.0158 118.347 94.6481C116.954 95.1096 116.394 95.8823 116.387 97.354C116.383 98.3112 116.529 98.7148 117.106 99.3369ZM116.793 83.0249C118.653 85.5855 122.788 84.0727 122.359 80.9884C122.01 78.4858 119.019 77.5307 117.156 79.3268C116.519 79.9408 116.382 80.2842 116.382 81.2661C116.382 81.9364 116.562 82.7071 116.793 83.0249ZM116.793 67.0334C117.699 68.2802 119.533 68.6915 120.848 67.9424C123.197 66.6052 122.819 63.3523 120.218 62.5251C119.061 62.157 118.122 62.4045 117.161 63.3308C116.518 63.9496 116.382 64.2913 116.382 65.2746C116.382 65.945 116.562 66.7156 116.793 67.0334ZM116.899 51.1554C118.136 52.6708 120.274 52.6944 121.629 51.2072C122.741 49.9863 122.748 48.6613 121.647 47.4533C120.289 45.9622 117.904 46.0483 116.83 47.6266C116.21 48.5392 116.246 50.3543 116.899 51.1554ZM116.899 35.164C118.136 36.6794 120.274 36.7029 121.629 35.2157C122.745 33.9908 122.748 32.67 121.638 31.4517C119.669 29.291 116.382 30.5079 116.382 33.3973C116.382 34.1385 116.56 34.7484 116.899 35.164ZM116.912 19.1885C117.563 19.9858 119.015 20.4795 120.059 20.2584C121.252 20.0059 122.439 18.5491 122.439 17.3373C122.439 16.5877 122.24 16.1209 121.638 15.4602C120.701 14.4314 119.644 14.1357 118.362 14.5436C117.035 14.9655 116.382 15.8879 116.382 17.3373C116.382 18.1567 116.55 18.7445 116.912 19.1885ZM133.385 339.142C133.877 339.818 135.1 340.466 135.884 340.466C137.543 340.466 139.032 338.981 139.032 337.327C139.032 336.211 137.794 334.741 136.651 334.499C135.564 334.269 134.134 334.786 133.505 335.637C132.859 336.512 132.797 338.332 133.385 339.142ZM133.519 323.252C134.155 324.074 135.587 324.575 136.651 324.35C137.845 324.097 139.032 322.641 139.032 321.429C139.032 320.217 137.845 318.76 136.651 318.508C135.564 318.278 134.134 318.795 133.505 319.646C132.802 320.598 132.809 322.336 133.519 323.252ZM133.481 307.125C134.067 308.05 135.491 308.604 136.651 308.358C137.845 308.106 139.032 306.649 139.032 305.437C139.032 304.688 138.833 304.221 138.231 303.56C137.294 302.532 136.237 302.236 134.955 302.643C133.125 303.225 132.404 305.421 133.481 307.125ZM133.37 290.999C133.749 291.671 135.19 292.492 135.99 292.492C136.676 292.492 137.881 291.802 138.482 291.067C139.126 290.277 139.196 288.966 138.648 287.945C138.243 287.189 136.831 286.4 135.884 286.4C135.1 286.4 133.877 287.048 133.385 287.724C132.877 288.423 132.869 290.111 133.37 290.999ZM133.323 274.916C134.038 276.156 135.656 276.7 137.01 276.155C139.446 275.174 139.751 272.291 137.566 270.902C136.236 270.058 134.327 270.437 133.385 271.733C132.895 272.407 132.862 274.115 133.323 274.916ZM133.323 258.925C134.378 260.755 137.039 260.851 138.461 259.109C139.924 257.316 138.406 254.417 136.003 254.417C135.112 254.417 133.903 255.028 133.385 255.741C132.895 256.416 132.862 258.124 133.323 258.925ZM133.83 243.366C135.108 244.667 136.808 244.681 138.136 243.401C138.828 242.734 139.032 242.326 139.032 241.611C139.032 239.178 136.719 237.728 134.557 238.805C133.466 239.349 132.974 240.157 132.974 241.405C132.974 242.286 133.138 242.661 133.83 243.366ZM133.87 227.409C134.634 228.146 134.946 228.272 136.003 228.272C137.06 228.272 137.372 228.146 138.136 227.409C139.153 226.429 139.324 225.237 138.632 223.949C137.216 221.31 132.974 222.385 132.974 225.383C132.974 226.367 133.112 226.679 133.87 227.409ZM133.87 211.418C134.634 212.154 134.946 212.281 136.003 212.281C137.06 212.281 137.372 212.154 138.136 211.418C139.153 210.438 139.324 209.246 138.632 207.957C137.216 205.319 132.974 206.394 132.974 209.391C132.974 210.376 133.112 210.687 133.87 211.418ZM133.87 195.426C134.634 196.163 134.946 196.289 136.003 196.289C137.06 196.289 137.372 196.163 138.136 195.426C139.153 194.447 139.324 193.255 138.632 191.966C138.139 191.047 136.996 190.451 135.726 190.451C134.984 190.451 134.561 190.648 133.87 191.314C133.105 192.051 132.974 192.352 132.974 193.37C132.974 194.389 133.105 194.69 133.87 195.426ZM133.87 179.435C134.624 180.162 134.953 180.298 135.956 180.298C138.823 180.298 140.058 177.187 137.985 175.189C137.368 174.594 137.002 174.46 135.997 174.46C134.947 174.46 134.633 174.587 133.87 175.323C133.105 176.059 132.974 176.36 132.974 177.379C132.974 178.397 133.105 178.698 133.87 179.435ZM133.87 163.443C135.958 165.457 139.245 163.883 138.94 161.015C138.772 159.427 137.655 158.468 135.972 158.468C134.951 158.468 134.628 158.601 133.87 159.331C133.105 160.068 132.974 160.369 132.974 161.387C132.974 162.406 133.105 162.707 133.87 163.443ZM133.87 147.452C134.886 148.432 136.123 148.596 137.46 147.93C140.198 146.565 139.083 142.477 135.972 142.477C134.951 142.477 134.628 142.609 133.87 143.34C133.105 144.076 132.974 144.378 132.974 145.396C132.974 146.414 133.105 146.715 133.87 147.452ZM133.87 131.46C134.886 132.44 136.123 132.605 137.46 131.938C140.198 130.574 139.083 126.485 135.972 126.485C134.951 126.485 134.628 126.618 133.87 127.348C133.105 128.085 132.974 128.386 132.974 129.404C132.974 130.423 133.105 130.724 133.87 131.46ZM133.698 115.328C135.069 116.806 137.712 116.533 138.632 114.817C139.324 113.529 139.153 112.337 138.136 111.357C137.372 110.62 137.06 110.494 136.003 110.494C134.946 110.494 134.634 110.62 133.87 111.357C133.112 112.087 132.974 112.399 132.974 113.384C132.974 114.294 133.131 114.717 133.698 115.328ZM133.385 99.0163C133.903 99.7294 135.112 100.341 136.003 100.341C138.501 100.341 139.952 97.3725 138.352 95.5391C137.086 94.0892 135.05 94.0796 133.698 95.517C132.854 96.4148 132.705 98.0807 133.385 99.0163ZM133.385 83.0249C134.68 84.807 137.631 84.6999 138.632 82.8345C139.557 81.1112 138.721 79.124 136.816 78.5181C135.634 78.1422 133.904 78.7831 133.359 79.7989C132.855 80.7376 132.868 82.3136 133.385 83.0249ZM133.385 67.0334C134.68 68.8156 137.631 68.7084 138.632 66.843C139.558 65.118 138.72 63.1325 136.811 62.5251C135.654 62.157 134.714 62.4045 133.753 63.3308C133.111 63.9496 132.974 64.2913 132.974 65.2746C132.974 65.945 133.154 66.7156 133.385 67.0334ZM133.385 51.042C133.877 51.7182 135.1 52.3662 135.884 52.3662C137.543 52.3662 139.032 50.881 139.032 49.2265C139.032 48.111 137.794 46.641 136.651 46.3991C135.564 46.1689 134.134 46.6859 133.505 47.5373C132.859 48.412 132.797 50.2322 133.385 51.042ZM133.519 35.1523C134.155 35.9734 135.587 36.4753 136.651 36.2499C137.845 35.9973 139.032 34.5406 139.032 33.3288C139.032 32.1169 137.845 30.6602 136.651 30.4076C135.564 30.1774 134.134 30.6945 133.505 31.5458C132.802 32.4974 132.809 34.2359 133.519 35.1523ZM133.481 19.0245C134.067 19.95 135.491 20.5041 136.651 20.2584C137.845 20.0059 139.032 18.5491 139.032 17.3373C139.032 16.5877 138.833 16.1209 138.231 15.4602C137.294 14.4317 136.237 14.1357 134.955 14.5434C133.125 15.1254 132.404 17.3208 133.481 19.0245ZM136.285 350.728C136.671 350.822 137.038 350.849 137.1 350.789C137.162 350.73 136.897 350.604 136.511 350.511C136.125 350.418 135.758 350.39 135.696 350.45C135.634 350.51 135.899 350.635 136.285 350.728ZM150.423 353.277C151.665 353.484 154.91 353.909 155.295 353.914C155.939 353.924 155.649 352.441 154.833 351.545C153.421 349.995 150.876 350.186 149.95 351.91C149.4 352.936 149.463 353.118 150.423 353.277ZM149.979 339.003C150.194 339.386 150.717 339.871 151.141 340.082C154.172 341.593 157.068 338.007 154.814 335.533C152.334 332.81 148.173 335.796 149.979 339.003ZM150.07 323.109C150.531 323.838 151.738 324.475 152.661 324.475C153.421 324.475 154.736 323.689 155.175 322.972C155.886 321.812 155.756 320.575 154.814 319.542C152.276 316.756 148.057 319.928 150.07 323.109ZM149.963 306.991C150.169 307.356 150.768 307.852 151.295 308.093C152.62 308.699 153.796 308.442 154.814 307.324C157.467 304.412 153.057 300.621 150.312 303.453C149.462 304.33 149.313 305.838 149.963 306.991ZM149.963 290.999C150.341 291.671 151.783 292.492 152.583 292.492C153.268 292.492 154.474 291.802 155.075 291.067C156.158 289.739 155.582 287.561 153.95 286.815C152.831 286.303 152.129 286.291 151.173 286.768C149.671 287.517 149.108 289.483 149.963 290.999ZM149.916 274.916C150.971 276.747 153.632 276.843 155.053 275.101C156.995 272.722 153.99 269.373 151.173 270.776C149.708 271.507 149.101 273.503 149.916 274.916ZM150.355 259.326C151.693 260.795 153.755 260.7 155.053 259.109C156.517 257.316 154.999 254.417 152.596 254.417C149.941 254.417 148.587 257.385 150.355 259.326ZM150.291 243.249C152.785 245.901 156.931 243.12 155.225 239.94C154.224 238.075 151.273 237.968 149.978 239.75C149.298 240.685 149.447 242.351 150.291 243.249ZM150.462 227.409C151.227 228.146 151.539 228.272 152.596 228.272C153.652 228.272 153.965 228.146 154.729 227.409C155.42 226.743 155.624 226.335 155.624 225.62C155.624 223.187 153.312 221.736 151.15 222.813C150.054 223.36 149.567 224.166 149.567 225.435C149.567 226.36 149.717 226.691 150.462 227.409ZM150.462 211.418C151.227 212.154 151.539 212.281 152.596 212.281C153.652 212.281 153.965 212.154 154.729 211.418C155.746 210.438 155.917 209.246 155.225 207.957C153.809 205.319 149.567 206.394 149.567 209.391C149.567 210.376 149.704 210.687 150.462 211.418ZM150.462 195.426C151.227 196.163 151.539 196.289 152.596 196.289C153.652 196.289 153.965 196.163 154.729 195.426C155.42 194.76 155.624 194.352 155.624 193.637C155.624 191.708 154.396 190.451 152.511 190.451C151.551 190.451 151.208 190.596 150.462 191.314C149.698 192.051 149.567 192.352 149.567 193.37C149.567 194.389 149.698 194.69 150.462 195.426ZM150.462 179.435C151.227 180.171 151.539 180.298 152.596 180.298C153.661 180.298 153.963 180.173 154.762 179.403C155.636 178.56 155.683 178.432 155.559 177.197C155.382 175.42 154.332 174.46 152.565 174.46C151.543 174.46 151.22 174.592 150.462 175.323C149.698 176.059 149.567 176.36 149.567 177.379C149.567 178.397 149.698 178.698 150.462 179.435ZM150.462 163.443C151.227 164.18 151.539 164.306 152.596 164.306C153.652 164.306 153.965 164.18 154.729 163.443C155.493 162.707 155.624 162.406 155.624 161.387C155.624 160.369 155.493 160.068 154.729 159.331C153.965 158.595 153.652 158.468 152.596 158.468C151.539 158.468 151.227 158.595 150.462 159.331C149.698 160.068 149.567 160.369 149.567 161.387C149.567 162.406 149.698 162.707 150.462 163.443ZM150.462 147.452C151.154 148.118 151.577 148.315 152.319 148.315C154.32 148.315 155.624 147.131 155.624 145.314C155.624 144.389 155.475 144.058 154.729 143.34C153.965 142.603 153.652 142.477 152.596 142.477C151.539 142.477 151.227 142.603 150.462 143.34C149.698 144.076 149.567 144.378 149.567 145.396C149.567 146.414 149.698 146.715 150.462 147.452ZM150.462 131.46C151.154 132.127 151.577 132.324 152.319 132.324C153.589 132.324 154.732 131.727 155.225 130.809C155.917 129.52 155.746 128.328 154.729 127.348C153.965 126.612 153.652 126.485 152.596 126.485C151.539 126.485 151.227 126.612 150.462 127.348C149.698 128.085 149.567 128.386 149.567 129.404C149.567 130.423 149.698 130.724 150.462 131.46ZM149.978 115.008C151.273 116.79 154.224 116.683 155.225 114.817C155.917 113.529 155.746 112.337 154.729 111.357C153.965 110.62 153.652 110.494 152.596 110.494C151.539 110.494 151.227 110.62 150.462 111.357C149.717 112.076 149.567 112.406 149.567 113.331C149.567 113.942 149.752 114.697 149.978 115.008ZM149.978 99.0163C150.496 99.7294 151.704 100.341 152.596 100.341C155.093 100.341 156.545 97.3725 154.944 95.5391C153.678 94.0892 151.643 94.0796 150.291 95.517C149.447 96.4148 149.298 98.0807 149.978 99.0163ZM149.978 83.0249C150.496 83.7379 151.704 84.3491 152.596 84.3491C155.081 84.3491 156.545 81.3816 154.957 79.5626C153.588 77.9941 151.461 78.0358 150.138 79.6568C149.452 80.497 149.371 82.1905 149.978 83.0249ZM149.978 67.0334C150.204 67.3446 150.732 67.7698 151.15 67.9784C154.177 69.4867 157.08 65.912 154.833 63.4447C152.876 61.2973 149.567 62.5794 149.567 65.4848C149.567 66.0255 149.752 66.7225 149.978 67.0334ZM149.979 50.9034C150.194 51.2856 150.717 51.7712 151.141 51.9822C154.172 53.493 157.068 49.9068 154.814 47.4332C153.796 46.3151 152.62 46.0587 151.293 46.6656C149.693 47.3972 149.094 49.3306 149.979 50.9034ZM150.07 35.0089C150.531 35.7384 151.738 36.3748 152.661 36.3748C153.421 36.3748 154.736 35.5889 155.175 34.872C155.886 33.7123 155.756 32.4751 154.814 31.4418C152.276 28.6559 148.057 31.8281 150.07 35.0089ZM149.963 18.8905C150.169 19.256 150.768 19.752 151.295 19.9929C152.62 20.5988 153.796 20.3416 154.814 19.2243C157.467 16.3123 153.057 12.5206 150.312 15.3531C149.462 16.2298 149.313 17.7383 149.963 18.8905ZM149.963 2.89905C150.476 3.80954 152.016 4.48169 153.128 4.28064C154.187 4.08902 155.624 2.61371 155.624 1.71768C155.624 1.01102 155.638 1.01282 153.122 1.34686C149.174 1.87076 149.338 1.79031 149.963 2.89905ZM166.361 354.591C166.477 354.765 167.584 354.917 169.132 354.972C172.034 355.073 172.206 354.982 172.213 353.344C172.216 352.612 172.012 352.173 171.34 351.466C170.578 350.665 170.297 350.54 169.213 350.518C168.091 350.495 167.871 350.59 167.061 351.441C166.365 352.173 166.16 352.607 166.163 353.344C166.166 353.87 166.255 354.431 166.361 354.591ZM166.572 339.003C166.787 339.386 167.31 339.871 167.733 340.082C170.764 341.593 173.66 338.007 171.407 335.533C170.388 334.415 169.212 334.159 167.885 334.766C166.286 335.497 165.686 337.431 166.572 339.003ZM166.555 322.982C166.937 323.658 168.377 324.475 169.188 324.475C170.03 324.475 171.45 323.646 171.834 322.93C172.668 321.376 172.082 319.502 170.543 318.798C169.432 318.29 169.028 318.282 167.88 318.744C166.346 319.362 165.693 321.452 166.555 322.982ZM166.555 306.991C166.937 307.667 168.377 308.483 169.188 308.483C170.007 308.483 171.313 307.723 171.768 306.981C172.692 305.474 172.121 303.528 170.543 302.806C169.432 302.298 169.028 302.29 167.88 302.752C166.346 303.37 165.693 305.46 166.555 306.991ZM166.555 290.999C167.069 291.91 168.609 292.582 169.721 292.381C170.946 292.159 172.217 290.718 172.217 289.552C172.217 287.798 170.873 286.4 169.188 286.4C166.899 286.4 165.419 288.984 166.555 290.999ZM166.948 275.317C168.286 276.787 170.348 276.692 171.646 275.101C172.707 273.802 172.186 271.561 170.646 270.794C167.589 269.27 164.681 272.829 166.948 275.317ZM166.948 259.326C168.286 260.795 170.348 260.7 171.646 259.109C172.707 257.81 172.186 255.57 170.646 254.802C167.589 253.279 164.681 256.837 166.948 259.326ZM166.884 243.249C169.377 245.901 173.524 243.12 171.818 239.94C170.817 238.075 167.866 237.968 166.571 239.75C165.891 240.685 166.04 242.351 166.884 243.249ZM167.055 227.409C167.819 228.146 168.132 228.272 169.188 228.272C170.245 228.272 170.557 228.146 171.322 227.409C172.013 226.743 172.217 226.335 172.217 225.62C172.217 223.187 169.904 221.736 167.743 222.813C166.647 223.36 166.16 224.166 166.16 225.435C166.16 226.36 166.309 226.691 167.055 227.409ZM167.055 211.418C167.819 212.154 168.132 212.281 169.188 212.281C170.245 212.281 170.557 212.154 171.322 211.418C173.411 209.405 171.778 206.238 168.802 206.531C167.154 206.693 166.16 207.77 166.16 209.391C166.16 210.376 166.297 210.687 167.055 211.418ZM167.055 195.426C167.819 196.163 168.132 196.289 169.188 196.289C170.245 196.289 170.557 196.163 171.322 195.426C172.086 194.69 172.217 194.389 172.217 193.37C172.217 192.352 172.086 192.051 171.322 191.314C170.557 190.578 170.245 190.451 169.188 190.451C168.132 190.451 167.819 190.578 167.055 191.314C166.291 192.051 166.16 192.352 166.16 193.37C166.16 194.389 166.291 194.69 167.055 195.426ZM167.055 179.435C167.819 180.171 168.132 180.298 169.188 180.298C170.245 180.298 170.557 180.171 171.322 179.435C172.086 178.698 172.217 178.397 172.217 177.379C172.217 176.36 172.086 176.059 171.322 175.323C170.557 174.586 170.245 174.46 169.188 174.46C168.132 174.46 167.819 174.586 167.055 175.323C166.291 176.059 166.16 176.36 166.16 177.379C166.16 178.397 166.291 178.698 167.055 179.435ZM167.055 163.443C167.819 164.18 168.132 164.306 169.188 164.306C170.245 164.306 170.557 164.18 171.322 163.443C172.086 162.707 172.217 162.406 172.217 161.387C172.217 160.369 172.086 160.068 171.322 159.331C170.557 158.595 170.245 158.468 169.188 158.468C168.132 158.468 167.819 158.595 167.055 159.331C166.291 160.068 166.16 160.369 166.16 161.387C166.16 162.406 166.291 162.707 167.055 163.443ZM167.088 147.484C167.962 148.326 168.095 148.371 169.377 148.252C171.221 148.082 172.217 147.069 172.217 145.366C172.217 144.382 172.08 144.07 171.322 143.34C170.557 142.603 170.245 142.477 169.188 142.477C168.132 142.477 167.819 142.603 167.055 143.34C166.291 144.076 166.16 144.378 166.16 145.396C166.16 146.422 166.289 146.714 167.088 147.484ZM166.834 131.28C168.015 132.633 170.077 132.648 171.461 131.315C172.078 130.72 172.217 130.367 172.217 129.399C172.217 128.387 172.085 128.084 171.322 127.348C170.557 126.612 170.245 126.485 169.188 126.485C168.132 126.485 167.819 126.612 167.055 127.348C165.881 128.479 165.791 130.085 166.834 131.28ZM166.571 115.008C166.797 115.319 167.324 115.744 167.743 115.953C169.878 117.017 172.217 115.614 172.217 113.27C172.217 112.414 172.051 112.06 171.322 111.357C170.557 110.62 170.245 110.494 169.188 110.494C168.132 110.494 167.819 110.62 167.055 111.357C166.309 112.076 166.16 112.406 166.16 113.331C166.16 113.942 166.344 114.697 166.571 115.008ZM166.571 99.0163C167.089 99.7294 168.297 100.341 169.188 100.341C171.686 100.341 173.138 97.3725 171.537 95.5391C170.271 94.0892 168.235 94.0796 166.884 95.517C166.04 96.4148 165.891 98.0807 166.571 99.0163ZM166.572 82.8863C167.648 84.7989 170.78 84.7679 171.818 82.8345C173.121 80.4048 170.714 77.5827 168.202 78.5947C166.361 79.3359 165.64 81.2321 166.572 82.8863ZM166.572 66.8948C166.787 67.2771 167.31 67.7627 167.733 67.9736C170.765 69.4844 173.678 65.9176 171.429 63.4488C170.495 62.4238 169.362 62.136 168.163 62.6187C166.36 63.345 165.649 65.2556 166.572 66.8948ZM166.572 50.9034C168.057 53.542 172.217 52.2977 172.217 49.2146C172.217 48.0478 170.946 46.607 169.721 46.3854C167.238 45.9364 165.323 48.6844 166.572 50.9034ZM166.667 35.016C167.737 36.7068 170.636 36.7139 171.702 35.0284C172.704 33.4442 172.168 31.441 170.543 30.6978C169.406 30.1779 168.971 30.1779 167.834 30.6978C166.214 31.4385 165.672 33.444 166.667 35.016ZM166.555 18.8905C166.937 19.5665 168.377 20.3833 169.188 20.3833C170.03 20.3833 171.45 19.554 171.834 18.8387C172.668 17.2842 172.082 15.4105 170.543 14.7063C169.432 14.1982 169.028 14.19 167.88 14.652C166.346 15.2701 165.693 17.3601 166.555 18.8905ZM166.549 2.89905C167.072 3.81107 168.611 4.48145 169.721 4.28064C170.977 4.05347 172.218 2.61929 172.213 1.40039C172.211 0.881836 172.122 0.332794 172.016 0.180756C171.885 -0.00631714 170.923 -0.0474548 169.057 0.053833L166.291 0.203583L166.229 1.21893C166.195 1.77734 166.339 2.53326 166.549 2.89905ZM183.01 354.681C183.212 354.988 183.76 355.044 185.837 354.972C187.386 354.917 188.492 354.765 188.608 354.591C189.094 353.862 188.805 352.409 188 351.525C186.609 349.999 184.676 350.108 183.302 351.791C182.721 352.503 182.569 354.009 183.01 354.681ZM183.148 338.973C183.526 339.643 184.968 340.466 185.763 340.466C186.672 340.466 188.001 339.714 188.397 338.976C189.272 337.346 188.697 335.503 187.084 334.766C185.757 334.159 184.581 334.415 183.562 335.533C182.652 336.532 182.497 337.819 183.148 338.973ZM183.148 322.982C183.526 323.652 184.968 324.475 185.763 324.475C186 324.475 186.596 324.312 187.089 324.114C188.625 323.495 189.266 321.492 188.426 319.927C188.043 319.212 186.622 318.383 185.781 318.383C184.94 318.383 183.519 319.212 183.136 319.927C182.655 320.824 182.66 322.116 183.148 322.982ZM183.148 306.991C183.529 307.667 184.97 308.483 185.781 308.483C186.622 308.483 188.043 307.654 188.426 306.939C189.754 304.464 187.552 301.838 184.813 302.629C183.037 303.141 182.206 305.319 183.148 306.991ZM183.562 291.333C184.562 292.43 185.759 292.706 187.018 292.131C189.272 291.1 189.405 287.865 187.238 286.785C184.184 285.263 181.292 288.841 183.562 291.333ZM183.54 275.317C184.879 276.787 186.941 276.692 188.239 275.101C189.299 273.802 188.779 271.561 187.238 270.794C184.205 269.282 181.29 272.847 183.54 275.317ZM183.323 259.109C184.646 260.73 186.773 260.772 188.143 259.204C189.731 257.385 188.267 254.417 185.781 254.417C183.378 254.417 181.86 257.316 183.323 259.109ZM183.477 243.249C185.425 245.321 188.81 244.136 188.81 241.382C188.81 240.155 188.313 239.346 187.227 238.805C184.272 237.332 181.264 240.896 183.477 243.249ZM183.648 227.409C184.412 228.146 184.724 228.272 185.781 228.272C186.838 228.272 187.15 228.146 187.914 227.409C188.66 226.691 188.81 226.36 188.81 225.435C188.81 224.166 188.323 223.36 187.227 222.813C185.091 221.749 182.752 223.152 182.752 225.497C182.752 226.352 182.918 226.706 183.648 227.409ZM183.648 211.418C184.412 212.154 184.724 212.281 185.781 212.281C186.838 212.281 187.15 212.154 187.914 211.418C188.669 210.691 188.81 210.374 188.81 209.407C188.81 206.644 185.582 205.453 183.509 207.451C182.891 208.046 182.752 208.399 182.752 209.368C182.752 210.379 182.885 210.682 183.648 211.418ZM183.648 195.426C184.412 196.163 184.724 196.289 185.781 196.289C186.838 196.289 187.15 196.163 187.914 195.426C188.679 194.69 188.81 194.389 188.81 193.37C188.81 192.344 188.68 192.052 187.881 191.282C187.007 190.44 186.874 190.395 185.593 190.514C183.749 190.684 182.752 191.697 182.752 193.4C182.752 194.385 182.89 194.696 183.648 195.426ZM183.648 179.435C184.412 180.171 184.724 180.298 185.781 180.298C186.838 180.298 187.15 180.171 187.914 179.435C188.679 178.698 188.81 178.397 188.81 177.379C188.81 176.36 188.679 176.059 187.914 175.323C187.15 174.586 186.838 174.46 185.781 174.46C184.724 174.46 184.412 174.586 183.648 175.323C182.883 176.059 182.752 176.36 182.752 177.379C182.752 178.397 182.883 178.698 183.648 179.435ZM183.648 163.443C184.412 164.18 184.724 164.306 185.781 164.306C186.838 164.306 187.15 164.18 187.914 163.443C188.679 162.707 188.81 162.406 188.81 161.387C188.81 160.369 188.679 160.068 187.914 159.331C187.15 158.595 186.838 158.468 185.781 158.468C184.724 158.468 184.412 158.595 183.648 159.331C182.883 160.068 182.752 160.369 182.752 161.387C182.752 162.406 182.883 162.707 183.648 163.443ZM183.648 147.452C184.412 148.189 184.724 148.315 185.781 148.315C186.838 148.315 187.15 148.189 187.914 147.452C188.679 146.715 188.81 146.414 188.81 145.396C188.81 144.378 188.679 144.076 187.914 143.34C187.15 142.603 186.838 142.477 185.781 142.477C184.724 142.477 184.412 142.603 183.648 143.34C182.883 144.076 182.752 144.378 182.752 145.396C182.752 146.414 182.883 146.715 183.648 147.452ZM183.023 130.736C183.426 131.702 184.822 132.368 186.168 132.235C187.815 132.073 188.81 130.996 188.81 129.375C188.81 128.39 188.672 128.079 187.914 127.348C187.15 126.612 186.838 126.485 185.781 126.485C184.724 126.485 184.412 126.612 183.648 127.348C182.929 128.041 182.755 128.404 182.769 129.189C182.778 129.726 182.893 130.422 183.023 130.736ZM183.164 114.869C183.912 116.197 185.752 116.688 187.227 115.953C188.323 115.407 188.81 114.6 188.81 113.331C188.81 112.406 188.66 112.076 187.914 111.357C187.15 110.62 186.838 110.494 185.781 110.494C184.724 110.494 184.412 110.62 183.648 111.357C182.933 112.046 182.754 112.417 182.763 113.197C182.769 113.735 182.949 114.487 183.164 114.869ZM183.164 98.8777C183.912 100.205 185.752 100.696 187.227 99.9613C188.313 99.4202 188.81 98.6107 188.81 97.3844C188.81 94.6299 185.425 93.4447 183.477 95.517C182.646 96.4003 182.522 97.7363 183.164 98.8777ZM183.164 82.8863C183.38 83.2686 183.902 83.7542 184.326 83.9651C187.38 85.4873 190.288 81.9276 188.022 79.4402C187.088 78.4153 185.955 78.1274 184.755 78.6102C182.952 79.3364 182.242 81.247 183.164 82.8863ZM183.164 66.8948C183.38 67.2771 183.902 67.7627 184.326 67.9736C187.38 69.4958 190.288 65.9361 188.022 63.4488C187.088 62.4238 185.955 62.136 184.755 62.6187C182.952 63.345 182.242 65.2556 183.164 66.8948ZM183.164 50.9034C183.617 51.7078 184.795 52.3662 185.781 52.3662C188.965 52.3662 189.967 47.984 187.084 46.6656C185.757 46.0587 184.581 46.3151 183.562 47.4332C182.645 48.4404 182.498 49.72 183.164 50.9034ZM183.148 34.882C183.526 35.5516 184.968 36.3748 185.763 36.3748C186.672 36.3748 188.001 35.6227 188.397 34.8842C189.26 33.2765 188.698 31.4123 187.136 30.6978C186.012 30.184 185.561 30.1787 184.492 30.6676C182.928 31.3829 182.295 33.3686 183.148 34.882ZM183.148 18.8905C183.526 19.5601 184.968 20.3833 185.763 20.3833C186.672 20.3833 188.001 19.6312 188.397 18.8928C189.26 17.285 188.698 15.4209 187.136 14.7063C185.999 14.1865 185.563 14.1865 184.426 14.7063C182.89 15.4089 182.291 17.3701 183.148 18.8905ZM183.562 3.23282C184.581 4.35095 185.757 4.60733 187.084 4.00043C188.243 3.47015 188.868 2.40353 188.759 1.14023L188.678 0.203583L185.913 0.053833C184.046 -0.0474548 183.084 -0.00631714 182.954 0.180756C182.465 0.879547 182.759 2.35049 183.562 3.23282ZM199.674 353.915C200.505 353.902 205.198 353.186 205.339 353.05C205.426 352.966 205.309 352.517 205.079 352.052C204.67 351.226 203.297 350.366 202.387 350.366C201.701 350.366 200.495 351.055 199.895 351.791C199.291 352.531 199.146 353.922 199.674 353.915ZM199.741 338.973C200.145 339.69 201.576 340.466 202.492 340.466C202.804 340.466 203.39 340.301 203.796 340.098C206.009 338.996 205.937 335.8 203.677 334.766C202.35 334.159 201.174 334.415 200.155 335.533C199.245 336.532 199.09 337.819 199.741 338.973ZM199.741 322.982C200.663 324.618 203.268 324.847 204.657 323.413C206.018 322.009 205.511 319.613 203.677 318.774C202.35 318.167 201.174 318.424 200.155 319.542C199.245 320.541 199.09 321.828 199.741 322.982ZM200.155 307.324C201.139 308.405 202.302 308.678 203.631 308.143C205.947 307.21 205.98 303.678 203.682 302.752C202.547 302.295 202.128 302.299 201.085 302.776C199.237 303.621 198.787 305.822 200.155 307.324ZM200.155 291.333C201.174 292.451 202.35 292.707 203.677 292.101C205.89 291.088 205.984 287.858 203.831 286.785C200.798 285.273 197.901 288.858 200.155 291.333ZM200.137 275.321C202.093 277.469 205.403 276.187 205.403 273.281C205.403 272.134 204.885 271.319 203.819 270.788C200.793 269.279 197.889 272.854 200.137 275.321ZM199.916 259.109C200.761 260.146 202.07 260.603 203.178 260.251C205.833 259.406 206.233 255.999 203.819 254.796C200.982 253.382 197.963 256.717 199.916 259.109ZM200.069 243.249C202.018 245.321 205.403 244.136 205.403 241.382C205.403 240.155 204.905 239.346 203.819 238.805C200.864 237.332 197.857 240.896 200.069 243.249ZM200.24 227.409C201.005 228.146 201.317 228.272 202.374 228.272C203.43 228.272 203.743 228.146 204.507 227.409C205.253 226.691 205.403 226.36 205.403 225.435C205.403 224.166 204.916 223.36 203.819 222.813C201.658 221.736 199.345 223.187 199.345 225.62C199.345 226.335 199.549 226.743 200.24 227.409ZM200.24 211.418C201.005 212.154 201.317 212.281 202.374 212.281C203.43 212.281 203.743 212.154 204.507 211.418C205.271 210.681 205.403 210.38 205.403 209.362C205.403 208.343 205.271 208.042 204.507 207.306C203.816 206.639 203.392 206.443 202.65 206.443C200.677 206.443 199.345 207.726 199.345 209.628C199.345 210.344 199.549 210.751 200.24 211.418ZM200.24 195.426C201.005 196.163 201.317 196.289 202.374 196.289C203.43 196.289 203.743 196.163 204.507 195.426C205.271 194.69 205.403 194.389 205.403 193.37C205.403 192.352 205.271 192.051 204.507 191.314C203.816 190.648 203.392 190.451 202.65 190.451C200.649 190.451 199.345 191.635 199.345 193.452C199.345 194.377 199.495 194.708 200.24 195.426ZM200.24 179.435C201.005 180.171 201.317 180.298 202.374 180.298C203.43 180.298 203.743 180.171 204.507 179.435C205.271 178.698 205.403 178.397 205.403 177.379C205.403 176.36 205.271 176.059 204.507 175.323C203.743 174.586 203.43 174.46 202.374 174.46C201.317 174.46 201.005 174.586 200.24 175.323C199.476 176.059 199.345 176.36 199.345 177.379C199.345 178.397 199.476 178.698 200.24 179.435ZM199.603 162.685C200.005 163.645 201.161 164.306 202.436 164.306C203.422 164.306 203.756 164.167 204.507 163.443C205.271 162.707 205.403 162.406 205.403 161.387C205.403 160.369 205.271 160.068 204.507 159.331C203.743 158.595 203.43 158.468 202.374 158.468C201.317 158.468 201.005 158.595 200.24 159.331C199.521 160.024 199.348 160.387 199.361 161.172C199.371 161.709 199.479 162.39 199.603 162.685ZM199.858 146.966C200.509 147.994 201.141 148.315 202.514 148.315C203.411 148.315 203.775 148.157 204.507 147.452C205.271 146.715 205.403 146.414 205.403 145.396C205.403 144.378 205.271 144.076 204.507 143.34C203.743 142.603 203.43 142.477 202.374 142.477C201.317 142.477 201.005 142.603 200.24 143.34C199.177 144.365 199.039 145.672 199.858 146.966ZM199.841 130.948C201.408 133.424 205.403 132.295 205.403 129.375C205.403 128.39 205.265 128.079 204.507 127.348C203.743 126.612 203.43 126.485 202.374 126.485C201.317 126.485 201.005 126.612 200.24 127.348C199.184 128.367 199.039 129.679 199.841 130.948ZM199.757 114.869C200.505 116.197 202.345 116.688 203.819 115.953C204.916 115.407 205.403 114.6 205.403 113.331C205.403 112.406 205.253 112.076 204.507 111.357C203.743 110.62 203.43 110.494 202.374 110.494C201.317 110.494 201.005 110.62 200.24 111.357C199.525 112.046 199.347 112.417 199.355 113.197C199.361 113.735 199.542 114.487 199.757 114.869ZM199.757 98.8777C200.505 100.205 202.345 100.696 203.819 99.9613C204.905 99.4202 205.403 98.6107 205.403 97.3844C205.403 94.6299 202.018 93.4447 200.069 95.517C199.238 96.4003 199.114 97.7363 199.757 98.8777ZM199.757 82.8863C200.505 84.2138 202.345 84.7047 203.819 83.9699C205.607 83.0789 205.982 80.9414 204.614 79.4402C203.681 78.4153 202.547 78.1274 201.348 78.6102C199.545 79.3364 198.834 81.247 199.757 82.8863ZM199.757 66.8948C201.193 69.4459 205.403 68.3571 205.403 65.435C205.403 62.4451 201.847 61.2986 199.916 63.6653C199.247 64.4847 199.179 65.8681 199.757 66.8948ZM199.741 50.8734C200.145 51.5897 201.576 52.3662 202.492 52.3662C202.804 52.3662 203.39 52.2007 203.796 51.9984C205.981 50.9095 205.94 47.7008 203.728 46.6892C202.609 46.1772 202.161 46.1701 201.199 46.6499C199.498 47.4974 198.867 49.3245 199.741 50.8734ZM199.741 34.882C200.663 36.5182 203.268 36.7466 204.657 35.313C206.018 33.9093 205.511 31.5131 203.677 30.6742C202.35 30.0673 201.174 30.3236 200.155 31.4418C199.245 32.4406 199.09 33.7278 199.741 34.882ZM200.155 19.2243C201.139 20.3046 202.302 20.5782 203.631 20.0432C205.947 19.1103 205.98 15.5777 203.682 14.652C202.547 14.1951 202.128 14.1992 201.085 14.6761C199.237 15.5214 198.787 17.7224 200.155 19.2243ZM200.155 3.23282C201.139 4.31314 202.302 4.58679 203.631 4.0517C204.497 3.7027 205.645 2.25632 205.311 1.93448C205.19 1.81796 200.412 1.108 199.674 1.09683C199.059 1.08771 199.341 2.33957 200.155 3.23282ZM216.333 338.973C216.737 339.69 218.169 340.466 219.085 340.466C219.396 340.466 219.983 340.301 220.389 340.098C222.574 339.01 222.533 335.801 220.321 334.789C219.201 334.277 218.754 334.27 217.791 334.75C216.091 335.598 215.46 337.425 216.333 338.973ZM216.739 323.306C217.676 324.334 218.733 324.63 220.015 324.223C222.543 323.418 222.684 319.714 220.223 318.723C218.894 318.188 217.732 318.462 216.748 319.542C215.632 320.767 215.629 322.088 216.739 323.306ZM216.739 307.314C217.676 308.343 218.733 308.639 220.015 308.231C221.24 307.841 221.995 306.776 221.995 305.437C221.995 303.511 220.232 302.111 218.318 302.516C217.125 302.769 215.938 304.226 215.938 305.437C215.938 306.187 216.137 306.654 216.739 307.314ZM216.739 291.323C218.698 293.473 221.995 292.267 221.995 289.4C221.995 288.132 221.508 287.325 220.412 286.779C219.447 286.298 218.738 286.3 217.678 286.785C215.836 287.627 215.38 289.831 216.739 291.323ZM216.615 275.207C218.605 277.485 221.995 276.264 221.995 273.27C221.995 271.08 219.594 269.755 217.509 270.794C215.892 271.6 215.435 273.855 216.615 275.207ZM216.605 259.204C217.588 260.33 218.768 260.632 220.131 260.107C221.396 259.619 221.995 258.71 221.995 257.278C221.995 255.089 219.594 253.763 217.509 254.802C215.899 255.604 215.435 257.864 216.605 259.204ZM216.662 243.249C218.61 245.321 221.995 244.136 221.995 241.382C221.995 240.155 221.498 239.346 220.412 238.805C217.457 237.332 214.449 240.896 216.662 243.249ZM216.833 227.409C217.597 228.146 217.91 228.272 218.966 228.272C220.023 228.272 220.335 228.146 221.1 227.409C221.858 226.679 221.995 226.367 221.995 225.383C221.995 222.385 217.753 221.31 216.337 223.949C215.645 225.237 215.816 226.429 216.833 227.409ZM216.196 210.659C216.598 211.619 217.754 212.281 219.028 212.281C220.015 212.281 220.349 212.141 221.1 211.418C221.864 210.681 221.995 210.38 221.995 209.362C221.995 208.343 221.864 208.042 221.1 207.306C220.408 206.639 219.985 206.443 219.243 206.443C216.83 206.443 215.31 208.546 216.196 210.659ZM216.196 194.668C216.598 195.628 217.754 196.289 219.028 196.289C220.015 196.289 220.349 196.15 221.1 195.426C221.864 194.69 221.995 194.389 221.995 193.37C221.995 192.352 221.864 192.051 221.1 191.314C220.408 190.648 219.985 190.451 219.243 190.451C216.83 190.451 215.31 192.555 216.196 194.668ZM216.196 178.676C216.598 179.636 217.754 180.298 219.028 180.298C220.015 180.298 220.349 180.159 221.1 179.435C221.864 178.698 221.995 178.397 221.995 177.379C221.995 176.36 221.864 176.059 221.1 175.323C220.145 174.402 219.04 174.204 217.667 174.707C216.338 175.194 215.586 177.223 216.196 178.676ZM216.436 162.958C217.107 163.988 217.737 164.306 219.107 164.306C220.004 164.306 220.368 164.149 221.1 163.443C221.864 162.707 221.995 162.406 221.995 161.387C221.995 160.369 221.864 160.068 221.1 159.331C220.342 158.601 220.019 158.468 218.997 158.468C218.049 158.468 217.614 158.62 216.969 159.174C215.888 160.106 215.655 161.759 216.436 162.958ZM216.35 146.852C216.844 147.729 218.002 148.315 219.243 148.315C219.985 148.315 220.408 148.118 221.1 147.452C221.864 146.715 221.995 146.414 221.995 145.396C221.995 144.378 221.864 144.076 221.1 143.34C220.335 142.603 220.023 142.477 218.966 142.477C217.91 142.477 217.597 142.603 216.833 143.34C216.118 144.029 215.94 144.4 215.948 145.18C215.954 145.718 216.135 146.47 216.35 146.852ZM216.434 130.948C218.001 133.424 221.995 132.295 221.995 129.375C221.995 128.39 221.858 128.079 221.1 127.348C220.335 126.612 220.023 126.485 218.966 126.485C217.91 126.485 217.597 126.612 216.833 127.348C215.777 128.367 215.631 129.679 216.434 130.948ZM216.434 114.956C218.001 117.433 221.995 116.303 221.995 113.384C221.995 112.399 221.858 112.087 221.1 111.357C220.335 110.62 220.023 110.494 218.966 110.494C217.91 110.494 217.597 110.62 216.833 111.357C215.777 112.375 215.631 113.687 216.434 114.956ZM216.35 98.8777C217.097 100.205 218.937 100.696 220.412 99.9613C221.503 99.4174 221.995 98.6094 221.995 97.3614C221.995 96.48 221.832 96.1051 221.139 95.4002C219.861 94.0988 218.162 94.0851 216.833 95.3655C216.118 96.0546 215.94 96.4255 215.948 97.2057C215.954 97.7434 216.135 98.4957 216.35 98.8777ZM216.35 82.8863C217.097 84.2138 218.937 84.7047 220.412 83.9699C221.475 83.4402 221.995 82.6243 221.995 81.4879C221.995 78.4399 218.464 77.2614 216.509 79.6568C215.84 80.4762 215.772 81.8596 216.35 82.8863ZM216.294 66.7864C217.797 69.3966 221.995 68.4468 221.995 65.4965C221.995 62.4485 218.464 61.2699 216.509 63.6653C215.863 64.4565 215.766 65.8688 216.294 66.7864ZM216.333 50.8734C216.737 51.5897 218.169 52.3662 219.085 52.3662C219.87 52.3662 221.093 51.7182 221.584 51.042C222.101 50.3315 222.114 48.7552 221.612 47.8188C221.231 47.1083 219.809 46.2742 218.979 46.2742C218.294 46.2742 217.088 46.9639 216.488 47.6995C215.847 48.4846 215.778 49.8891 216.333 50.8734ZM216.739 35.2058C217.676 36.2344 218.733 36.5303 220.015 36.1227C222.543 35.3183 222.684 31.6139 220.223 30.6229C218.894 30.0878 217.732 30.3615 216.748 31.4418C215.632 32.6668 215.629 33.9875 216.739 35.2058ZM216.739 19.2144C217.676 20.2429 218.733 20.5389 220.015 20.1312C221.24 19.7413 221.995 18.6763 221.995 17.3373C221.995 15.4112 220.232 14.0108 218.318 14.4162C217.125 14.6687 215.938 16.1255 215.938 17.3373C215.938 18.0869 216.137 18.5537 216.739 19.2144ZM218.045 350.838C218.262 350.838 218.677 350.74 218.966 350.62C219.299 350.482 219.347 350.402 219.098 350.402C218.881 350.402 218.466 350.5 218.176 350.62C217.844 350.757 217.796 350.838 218.045 350.838ZM233.34 339.307C235.288 341.446 238.588 340.302 238.588 337.489C238.588 334.505 235.203 333.382 233.183 335.696C232.232 336.786 232.291 338.156 233.34 339.307ZM233.331 323.306C234.269 324.335 235.325 324.63 236.608 324.223C237.934 323.801 238.588 322.878 238.588 321.429C238.588 319.979 237.934 319.057 236.608 318.635C235.325 318.227 234.269 318.523 233.331 319.552C232.729 320.212 232.53 320.679 232.53 321.429C232.53 322.178 232.729 322.645 233.331 323.306ZM233.331 307.314C235.3 309.475 238.588 308.258 238.588 305.369C238.588 302.556 235.288 301.412 233.34 303.55C232.224 304.775 232.221 306.096 233.331 307.314ZM233.322 291.313C235.29 293.473 238.588 292.251 238.588 289.362C238.588 286.564 235.282 285.428 233.34 287.559C232.228 288.78 232.222 290.105 233.322 291.313ZM233.197 275.195C235.175 277.46 238.588 276.329 238.588 273.408C238.588 272.141 238.101 271.334 237.005 270.788C234.122 269.351 231.124 272.821 233.197 275.195ZM232.779 258.605C233.274 259.77 234.915 260.595 236.233 260.341C236.677 260.255 237.388 259.85 237.814 259.439C238.451 258.825 238.588 258.482 238.588 257.5C238.588 256.149 238.122 255.353 237.005 254.796C234.428 253.512 231.672 255.997 232.779 258.605ZM232.779 242.614C233.356 243.973 235.055 244.638 236.623 244.118C238.015 243.657 238.575 242.884 238.582 241.412C238.59 239.819 237.628 238.711 236.063 238.509C233.628 238.194 231.848 240.42 232.779 242.614ZM232.788 226.651C233.191 227.611 234.346 228.272 235.621 228.272C236.607 228.272 236.942 228.133 237.692 227.409C238.457 226.673 238.588 226.372 238.588 225.353C238.588 224.335 238.457 224.034 237.692 223.297C237.001 222.631 236.578 222.434 235.836 222.434C233.423 222.434 231.903 224.538 232.788 226.651ZM232.788 210.659C233.191 211.619 234.346 212.281 235.621 212.281C236.607 212.281 236.942 212.141 237.692 211.418C238.457 210.681 238.588 210.38 238.588 209.362C238.588 208.343 238.457 208.042 237.692 207.306C237.001 206.639 236.578 206.443 235.836 206.443C233.423 206.443 231.903 208.546 232.788 210.659ZM233.044 194.94C233.694 195.968 234.326 196.289 235.7 196.289C236.596 196.289 236.961 196.131 237.692 195.426C238.457 194.69 238.588 194.389 238.588 193.37C238.588 192.352 238.457 192.051 237.692 191.314C235.149 188.863 231.165 191.97 233.044 194.94ZM233.044 178.949C233.694 179.977 234.326 180.298 235.7 180.298C236.596 180.298 236.961 180.14 237.692 179.435C238.457 178.698 238.588 178.397 238.588 177.379C238.588 176.36 238.457 176.059 237.692 175.323C235.149 172.871 231.165 175.979 233.044 178.949ZM232.925 162.811C233.465 163.77 234.464 164.306 235.708 164.306C236.595 164.306 236.963 164.146 237.692 163.443C238.457 162.707 238.588 162.406 238.588 161.387C238.588 160.369 238.457 160.068 237.692 159.331C236.947 158.613 236.604 158.468 235.644 158.468C234.328 158.468 233.491 158.938 232.924 159.994C232.436 160.904 232.436 161.944 232.925 162.811ZM232.942 146.852C233.436 147.729 234.595 148.315 235.836 148.315C236.578 148.315 237.001 148.118 237.692 147.452C238.457 146.715 238.588 146.414 238.588 145.396C238.588 144.378 238.457 144.076 237.692 143.34C236.947 142.621 236.604 142.477 235.644 142.477C234.328 142.477 233.491 142.946 232.924 144.003C232.43 144.923 232.437 145.954 232.942 146.852ZM232.928 130.861C233.442 131.741 234.6 132.324 235.836 132.324C236.578 132.324 237.001 132.127 237.692 131.46C238.457 130.724 238.588 130.423 238.588 129.404C238.588 128.386 238.457 128.085 237.692 127.348C236.934 126.618 236.612 126.485 235.59 126.485C233.901 126.485 232.786 127.446 232.632 129.032C232.561 129.76 232.667 130.415 232.928 130.861ZM233.027 114.956C234.594 117.433 238.588 116.303 238.588 113.384C238.588 112.399 238.45 112.087 237.692 111.357C236.928 110.62 236.616 110.494 235.559 110.494C234.502 110.494 234.19 110.62 233.426 111.357C232.369 112.375 232.224 113.687 233.027 114.956ZM232.942 98.8777C233.69 100.205 235.53 100.696 237.005 99.9613C238.067 99.4316 238.588 98.6158 238.588 97.4794C238.588 95.7881 237.594 94.5989 236.086 94.4841C234.786 94.3852 234.263 94.5585 233.426 95.3655C232.711 96.0546 232.532 96.4255 232.541 97.2057C232.547 97.7434 232.727 98.4957 232.942 98.8777ZM232.942 82.8863C233.69 84.2138 235.53 84.7047 237.005 83.9699C238.067 83.4402 238.588 82.6243 238.588 81.4879C238.588 78.4399 235.056 77.2614 233.101 79.6568C232.433 80.4762 232.365 81.8596 232.942 82.8863ZM232.887 66.7864C234.389 69.3966 238.588 68.4468 238.588 65.4965C238.588 64.1481 237.993 63.1744 236.85 62.6515C234.285 61.4785 231.502 64.3824 232.887 66.7864ZM233.34 51.2072C235.323 53.3831 238.588 52.2 238.588 49.3055C238.588 48.2902 238.456 47.9632 237.787 47.3187C236.784 46.3519 235.509 46.0894 234.429 46.6275C232.398 47.6396 231.921 49.6487 233.34 51.2072ZM233.34 35.2157C235.317 37.385 238.588 36.2087 238.588 33.3288C238.588 31.835 237.903 30.9171 236.48 30.5064C233.549 29.6601 231.322 33.0003 233.34 35.2157ZM233.331 19.2144C235.3 21.375 238.588 20.1581 238.588 17.2688C238.588 15.892 237.909 14.9574 236.608 14.5436C235.325 14.1357 234.269 14.4314 233.331 15.4602C232.729 16.1209 232.53 16.5877 232.53 17.3373C232.53 18.0869 232.729 18.5537 233.331 19.2144ZM249.94 339.315C250.39 339.809 250.966 340.212 251.221 340.212C251.475 340.212 252.456 339.875 253.399 339.463C254.776 338.861 255.141 338.58 255.249 338.035C255.715 335.684 253.142 333.671 251.022 334.728C248.986 335.742 248.513 337.749 249.94 339.315ZM249.933 323.316C250.917 324.395 252.08 324.67 253.406 324.136C254.611 323.65 255.252 322.701 255.252 321.401C255.252 320.125 254.531 319.138 253.254 318.67C252.022 318.218 251.099 318.458 250.003 319.515C248.797 320.676 248.772 322.042 249.933 323.316ZM249.308 306.453C249.597 307.217 250.816 308.227 251.629 308.374C252.69 308.566 254.213 307.965 254.781 307.129C255.346 306.299 255.357 304.593 254.804 303.779C254.562 303.423 253.969 302.951 253.485 302.728C251.109 301.637 248.402 304.051 249.308 306.453ZM249.309 290.461C249.577 291.168 250.512 291.968 251.4 292.251C253.297 292.854 255.199 291.461 255.228 289.449C255.246 288.203 254.647 287.271 253.485 286.737C251.109 285.645 248.399 288.062 249.309 290.461ZM249.309 274.47C249.577 275.176 250.512 275.976 251.4 276.259C253.297 276.862 255.199 275.47 255.228 273.458C255.246 272.211 254.647 271.28 253.485 270.746C251.109 269.654 248.399 272.071 249.309 274.47ZM249.372 258.605C249.867 259.77 251.508 260.595 252.826 260.341C253.873 260.139 255.087 258.957 255.233 257.996C255.602 255.569 252.896 253.614 250.753 254.76C249.428 255.469 248.792 257.239 249.372 258.605ZM249.372 242.614C250.448 245.147 254.827 244.669 255.238 241.973C255.501 240.242 254.358 238.729 252.616 238.504C250.221 238.194 248.449 240.44 249.372 242.614ZM249.637 226.923C250.27 227.924 250.918 228.272 252.148 228.272C253.847 228.272 255.082 227.297 255.2 225.861C255.302 224.608 255.122 224.104 254.285 223.297C251.741 220.846 247.758 223.953 249.637 226.923ZM249.637 210.932C250.284 211.956 250.919 212.281 252.27 212.281C253.121 212.281 253.533 212.109 254.249 211.456C255.599 210.224 255.614 208.586 254.285 207.306C251.741 204.854 247.758 207.962 249.637 210.932ZM249.637 194.94C250.282 195.96 250.919 196.289 252.246 196.289C255.05 196.289 256.252 193.004 254.128 191.149C251.592 188.935 247.841 192.102 249.637 194.94ZM249.637 178.949C250.282 179.969 250.919 180.298 252.246 180.298C255.05 180.298 256.252 177.013 254.128 175.158C251.592 172.943 247.841 176.11 249.637 178.949ZM249.535 162.844C250.389 164.36 252.722 164.772 254.105 163.651C255.609 162.431 255.619 160.469 254.128 159.166C253.196 158.353 251.468 158.209 250.497 158.864C249.218 159.728 248.786 161.513 249.535 162.844ZM249.535 146.852C250.389 148.369 252.722 148.781 254.105 147.659C255.609 146.439 255.619 144.478 254.128 143.175C253.196 142.361 251.468 142.218 250.497 142.873C249.218 143.737 248.786 145.522 249.535 146.852ZM249.535 130.861C250.389 132.377 252.722 132.789 254.105 131.668C255.609 130.448 255.619 128.486 254.128 127.183C253.196 126.37 251.468 126.226 250.497 126.882C249.218 127.745 248.786 129.53 249.535 130.861ZM249.604 114.956C251.519 117.892 256.202 115.675 255.029 112.388C254.551 111.046 253.749 110.506 252.222 110.499C251.225 110.495 250.81 110.636 250.155 111.2C249.084 112.122 248.84 113.786 249.604 114.956ZM249.604 98.9648C251.519 101.9 256.202 99.6837 255.029 96.3963C254.46 94.7999 253.082 94.111 251.332 94.5479C249.476 95.0116 248.557 97.3598 249.604 98.9648ZM249.464 82.7779C249.658 83.1005 250.165 83.5851 250.589 83.8552C252.756 85.2319 255.622 83.3279 255.233 80.7703C255.086 79.8032 253.872 78.6267 252.81 78.4221C251.854 78.2379 250.533 78.7054 249.816 79.4809C249.193 80.1553 248.996 81.9994 249.464 82.7779ZM249.566 66.8669C250.504 68.3224 252.283 68.7427 253.781 67.8627C254.836 67.2426 255.245 66.5146 255.228 65.2891C255.21 64.0628 254.61 63.1855 253.415 62.639C250.811 61.4478 248.038 64.4936 249.566 66.8669ZM249.979 51.2433C251.635 52.9846 254.35 52.4769 255.1 50.2858C255.944 47.8185 253.332 45.4759 251.022 46.6275C248.96 47.6551 248.501 49.6885 249.979 51.2433ZM249.979 35.2518C251.635 36.9931 254.35 36.4854 255.1 34.2943C255.944 31.8271 253.332 29.4844 251.022 30.6361C248.96 31.6636 248.501 33.6971 249.979 35.2518ZM249.924 19.2144C250.855 20.2363 251.917 20.5392 253.173 20.1399C254.293 19.7835 254.908 19.1357 255.164 18.0427C255.486 16.6664 255.153 16.2598 252.936 15.3206L250.891 14.4548L250.007 15.3846C248.809 16.6443 248.781 17.9594 249.924 19.2144ZM265.953 322.571C266.362 323.467 267.479 324.259 268.521 324.391C271.383 324.752 273.082 320.881 270.816 319.163C269.418 318.103 267.662 318.28 266.417 319.606C265.865 320.194 265.611 321.82 265.953 322.571ZM266.052 306.699C266.234 307.044 266.795 307.596 267.3 307.925C268.944 308.999 271.074 308.201 271.723 306.268C272.168 304.942 271.665 303.651 270.406 302.891C267.881 301.366 264.709 304.141 266.052 306.699ZM266.049 290.691C267.33 293.092 270.865 292.834 271.723 290.276C272.168 288.951 271.665 287.66 270.406 286.9C267.891 285.381 264.698 288.158 266.049 290.691ZM266.049 274.699C267.33 277.101 270.865 276.843 271.723 274.285C272.168 272.959 271.665 271.668 270.406 270.908C267.891 269.389 264.698 272.167 266.049 274.699ZM266.249 258.938C266.542 259.4 267.197 259.946 267.706 260.151C270.137 261.13 272.7 258.703 271.682 256.386C271.156 255.187 270.375 254.628 269.021 254.481C267.905 254.36 267.761 254.417 266.772 255.37C265.541 256.557 265.391 257.581 266.249 258.938ZM266.317 243.02C267.399 244.57 269.604 244.792 270.958 243.487C272.754 241.757 271.807 238.9 269.308 238.509C268.046 238.312 266.895 238.804 266.245 239.818C265.551 240.899 265.575 241.957 266.317 243.02ZM266.229 226.923C266.862 227.924 267.51 228.272 268.74 228.272C271.85 228.272 273.044 224.849 270.584 222.984C269.236 221.962 266.912 222.464 266.115 223.949C265.576 224.954 265.614 225.951 266.229 226.923ZM266.229 210.932C266.862 211.933 267.51 212.281 268.74 212.281C271.85 212.281 273.044 208.857 270.584 206.993C269.236 205.971 266.912 206.472 266.115 207.957C265.576 208.963 265.614 209.959 266.229 210.932ZM266.229 194.94C266.875 195.962 267.511 196.289 268.85 196.289C270.153 196.289 271.624 195.17 271.868 193.991C272.212 192.335 270.664 190.451 268.959 190.451C266.394 190.451 264.921 192.873 266.229 194.94ZM266.11 178.802C267.046 180.462 269.3 180.815 270.809 179.538C272.333 178.248 272.235 176.261 270.584 175.01C268.104 173.13 264.59 176.108 266.11 178.802ZM266.128 162.844C266.977 164.351 269.315 164.772 270.682 163.663C272.309 162.344 272.266 160.294 270.584 159.019C268.084 157.123 264.594 160.118 266.128 162.844ZM266.128 146.852C266.977 148.36 269.315 148.781 270.682 147.672C272.309 146.352 272.266 144.302 270.584 143.027C269.713 142.366 267.955 142.288 267.09 142.873C265.81 143.737 265.379 145.522 266.128 146.852ZM266.128 130.861C266.977 132.368 269.315 132.789 270.682 131.681C271.851 130.732 272.165 129.596 271.619 128.282C271.113 127.063 270.17 126.485 268.684 126.485C266.407 126.485 265.011 128.876 266.128 130.861ZM266.212 114.956C266.829 115.932 268.057 116.444 269.308 116.249C271.83 115.854 272.752 112.999 270.927 111.24C270.29 110.626 269.933 110.494 268.915 110.494C267.513 110.494 266.687 110.943 266.109 112.02C265.58 113.006 265.615 114.013 266.212 114.956ZM266.039 98.7587C266.525 99.7311 267.966 100.423 269.177 100.266C271.775 99.9306 272.801 97.0555 270.958 95.2791C268.563 92.9706 264.56 95.8018 266.039 98.7587ZM266.704 83.331C267.52 84.1171 267.963 84.3488 268.647 84.3481C269.868 84.3468 271.202 83.4993 271.665 82.4307C272.681 80.0878 270.163 77.618 267.759 78.5985C266.515 79.1062 265.935 79.8583 265.782 81.163C265.656 82.2395 265.715 82.3776 266.704 83.331ZM266.541 67.2022C268.785 69.5629 272.636 67.637 271.782 64.5811C270.876 61.3402 266.179 61.778 265.786 65.1401C265.667 66.1541 265.744 66.3648 266.541 67.2022ZM265.953 50.4625C266.939 52.6246 270.084 52.9091 271.412 50.9567C271.975 50.1284 271.966 48.4988 271.394 47.6573C269.889 45.4447 266.118 46.3397 265.829 48.978C265.77 49.5151 265.826 50.1833 265.953 50.4625ZM265.953 34.471C266.362 35.3673 267.479 36.159 268.521 36.2905C271.383 36.6519 273.082 32.781 270.816 31.0625C269.418 30.0031 267.662 30.1802 266.417 31.5062C265.865 32.0938 265.611 33.7197 265.953 34.471ZM282.577 322.662C282.834 323.25 282.853 323.253 283.561 322.817C285.156 321.836 287.839 319.845 287.839 319.642C287.839 319.289 286.731 318.65 285.839 318.488C284.924 318.323 283.796 318.768 283.01 319.606C282.436 320.217 282.209 321.822 282.577 322.662ZM282.631 306.699C282.82 307.044 283.388 307.596 283.892 307.925C286.154 309.402 289.178 307.189 288.385 304.638C288.073 303.634 287.11 302.734 286.085 302.485C284.506 302.103 282.615 303.428 282.413 305.057C282.341 305.638 282.434 306.34 282.631 306.699ZM282.887 290.969C283.284 291.534 283.899 291.988 284.578 292.216C285.546 292.541 285.739 292.529 286.676 292.089C287.365 291.764 287.874 291.274 288.211 290.609C288.668 289.707 288.68 289.521 288.343 288.587C287.551 286.397 284.954 285.763 283.301 287.357C282.22 288.398 282.06 289.792 282.887 290.969ZM282.887 274.977C283.284 275.542 283.899 275.996 284.578 276.224C285.546 276.55 285.739 276.538 286.676 276.097C287.365 275.773 287.874 275.282 288.211 274.618C288.668 273.715 288.68 273.529 288.343 272.595C287.551 270.405 284.954 269.772 283.301 271.365C282.22 272.407 282.06 273.801 282.887 274.977ZM282.827 258.938C283.571 260.082 284.911 260.605 286.227 260.264C289.59 259.391 289.135 254.864 285.647 254.485C284.595 254.371 284.376 254.445 283.507 255.212C282.263 256.311 282.013 257.685 282.827 258.938ZM282.822 242.915C283.465 243.932 284.221 244.326 285.492 244.309C286.765 244.292 287.675 243.714 288.242 242.563C289.151 240.716 287.587 238.426 285.418 238.426C284.533 238.426 284.181 238.592 283.331 239.411C282.143 240.556 281.991 241.602 282.822 242.915ZM282.822 226.923C283.455 227.924 284.103 228.272 285.333 228.272C286.678 228.272 287.693 227.685 288.229 226.597C288.613 225.816 288.64 225.502 288.391 224.701C287.591 222.126 284.339 221.627 282.821 223.847C282.172 224.797 282.172 225.896 282.822 226.923ZM282.822 210.932C283.455 211.933 284.103 212.281 285.333 212.281C288.443 212.281 289.637 208.857 287.177 206.993C285.843 205.982 283.83 206.38 282.821 207.856C282.172 208.805 282.172 209.905 282.822 210.932ZM282.703 194.793C283.224 195.718 284.231 196.289 285.341 196.289C288.443 196.289 289.633 192.863 287.177 191.001C284.697 189.121 281.183 192.099 282.703 194.793ZM282.703 178.802C283.639 180.462 285.893 180.815 287.402 179.538C288.926 178.248 288.828 176.261 287.177 175.01C284.697 173.13 281.183 176.108 282.703 178.802ZM282.72 162.844C283.614 164.43 285.944 164.78 287.402 163.547C288.926 162.257 288.828 160.27 287.177 159.019C284.676 157.123 281.186 160.118 282.72 162.844ZM282.72 146.852C283.615 148.441 285.944 148.789 287.406 147.552C289.658 145.646 288.329 142.477 285.277 142.477C283 142.477 281.603 144.867 282.72 146.852ZM282.72 130.861C283.573 132.376 285.908 132.789 287.287 131.67C289.651 129.753 288.384 126.485 285.277 126.485C283 126.485 281.603 128.876 282.72 130.861ZM282.752 114.841C284.182 117.062 287.509 116.676 288.36 114.192C288.742 113.076 288.485 112.171 287.524 111.245C286.882 110.626 286.528 110.494 285.507 110.494C284.106 110.494 283.279 110.943 282.702 112.02C282.194 112.966 282.212 114.003 282.752 114.841ZM282.563 98.4576C282.685 98.748 283.176 99.3029 283.654 99.6905C285.877 101.493 289.294 99.1151 288.367 96.4105C287.811 94.7845 285.506 93.9217 283.914 94.7431C282.667 95.3863 282.021 97.1644 282.563 98.4576ZM282.563 82.4662C282.685 82.7566 283.176 83.3114 283.654 83.699C284.393 84.2979 284.695 84.3849 285.671 84.2788C289.137 83.9021 289.574 79.3712 286.227 78.5026C283.823 77.8789 281.633 80.2492 282.563 82.4662ZM282.56 66.4539C282.939 67.3388 284.066 68.1411 285.114 68.2734C286.493 68.4475 287.835 67.5733 288.343 66.1707C288.68 65.2368 288.668 65.051 288.211 64.1481C287.874 63.4841 287.365 62.9932 286.676 62.6688C285.739 62.2281 285.546 62.2164 284.578 62.5418C282.831 63.1284 281.904 64.9264 282.56 66.4539ZM282.546 50.4625C282.955 51.3587 284.072 52.1505 285.114 52.2819C286.493 52.4561 287.835 51.5819 288.343 50.1792C288.68 49.2453 288.668 49.0595 288.211 48.1566C287.516 46.7852 286.067 46.097 284.703 46.491C284.165 46.6463 283.456 47.0497 283.127 47.3873C282.474 48.0566 282.174 49.6464 282.546 50.4625ZM282.546 34.471C283.301 36.1278 285.475 36.7948 287.041 35.8503L287.955 35.299L287.173 34.6949C285.539 33.4336 282.828 31.7284 282.681 31.87C282.404 32.1368 282.31 33.9524 282.546 34.471ZM299.402 306.884C300.008 307.815 301.346 308.575 302.017 308.37C302.268 308.293 303.105 307.614 303.877 306.861C305.268 305.504 305.278 305.482 304.969 304.58C304.462 303.097 302.837 302.149 301.401 302.496C299.398 302.981 298.354 305.273 299.402 306.884ZM299.48 290.969C299.876 291.534 300.491 291.988 301.17 292.216C302.139 292.541 302.332 292.529 303.269 292.089C303.958 291.764 304.467 291.274 304.804 290.609C305.261 289.707 305.273 289.521 304.935 288.587C304.143 286.397 301.547 285.763 299.894 287.357C298.813 288.398 298.653 289.792 299.48 290.969ZM299.48 274.977C299.876 275.542 300.491 275.996 301.17 276.224C302.139 276.55 302.332 276.538 303.269 276.097C304.692 275.428 305.406 274.031 304.997 272.716C304.539 271.241 303.583 270.535 302.045 270.535C300.954 270.535 300.629 270.656 299.94 271.32C298.811 272.408 298.639 273.78 299.48 274.977ZM299.4 258.906C300.06 259.92 300.83 260.324 302.103 260.324C304.121 260.324 305.556 258.522 304.989 256.698C304.538 255.249 303.575 254.544 302.045 254.544C300.954 254.544 300.629 254.665 299.94 255.329C298.874 256.357 298.66 257.77 299.4 258.906ZM299.48 242.995C301.082 245.272 304.58 244.565 305.107 241.857C305.429 240.203 303.832 238.426 302.022 238.426C301.236 238.426 300.784 238.616 300.066 239.251C298.806 240.364 298.592 241.731 299.48 242.995ZM299.4 226.923C300.08 227.968 300.701 228.272 302.155 228.272C303.121 228.272 303.484 228.131 304.138 227.501C305.59 226.102 305.428 224.241 303.743 222.964C301.284 221.1 297.722 224.346 299.4 226.923ZM299.415 210.932C300.048 211.933 300.696 212.281 301.926 212.281C303.249 212.281 304.284 211.698 304.791 210.667C305.323 209.588 305.33 209.157 304.832 208.229C303.601 205.934 300.426 205.834 299.332 208.056C298.768 209.201 298.789 209.943 299.415 210.932ZM299.295 194.793C300.455 196.85 303.755 196.779 304.791 194.676C305.323 193.597 305.33 193.165 304.832 192.238C303.601 189.942 300.426 189.842 299.332 192.065C298.81 193.124 298.799 193.914 299.295 194.793ZM299.313 178.835C300.454 180.861 303.779 180.74 304.816 178.635C305.446 177.356 305.18 176.222 304.019 175.241C301.422 173.043 297.667 175.911 299.313 178.835ZM299.287 162.703C300.055 164.407 302.48 164.829 304.019 163.526C306.808 161.165 303.796 157.197 300.473 158.853C299.06 159.557 298.576 161.129 299.287 162.703ZM299.287 146.712C300.055 148.416 302.48 148.837 304.019 147.534C306.823 145.162 303.813 141.197 300.473 142.862C299.06 143.566 298.576 145.137 299.287 146.712ZM299.309 130.687C300.202 132.429 302.477 132.847 304.009 131.551C306.24 129.663 304.989 126.485 302.014 126.485C300.698 126.485 299.861 126.955 299.294 128.011C298.8 128.934 298.804 129.699 299.309 130.687ZM299.156 114.449C299.278 114.739 299.754 115.282 300.213 115.655C302.588 117.58 306.081 114.997 304.872 112.209C304.669 111.742 304.195 111.165 303.819 110.926C302.961 110.385 301.052 110.365 300.275 110.89C299.126 111.666 298.638 113.215 299.156 114.449ZM299.156 98.4576C299.278 98.748 299.769 99.3029 300.247 99.6905C302.469 101.493 305.886 99.1151 304.96 96.4105C304.403 94.7845 302.099 93.9217 300.507 94.7431C299.26 95.3863 298.613 97.1644 299.156 98.4576ZM299.156 82.4662C299.278 82.7566 299.769 83.3114 300.247 83.699C300.985 84.2979 301.287 84.3849 302.263 84.2788C305.73 83.9021 306.166 79.3712 302.819 78.5026C300.416 77.8789 298.226 80.2492 299.156 82.4662ZM299.152 66.4539C299.532 67.3388 300.658 68.1411 301.706 68.2734C303.086 68.4475 304.428 67.5733 304.935 66.1707C305.273 65.2368 305.261 65.051 304.804 64.1481C304.467 63.4841 303.958 62.9932 303.269 62.6688C302.332 62.2281 302.139 62.2164 301.17 62.5418C299.424 63.1284 298.497 64.9264 299.152 66.4539ZM299.152 50.4625C299.534 51.3514 300.66 52.1502 301.706 52.2733C303.03 52.4294 304.323 51.6638 304.872 50.3985L305.28 49.4576L303.537 47.866C301.805 46.2849 301.788 46.2767 300.94 46.6093C299.388 47.2177 298.542 49.0415 299.152 50.4625ZM315.992 290.889C316.529 291.714 317.281 292.238 317.926 292.238C318.227 292.238 320.779 289.483 321.373 288.516C321.675 288.024 320.29 286.687 319.292 286.507C316.701 286.038 314.627 288.792 315.992 290.889ZM316.012 274.929C316.769 276.094 318.188 276.64 319.483 276.265C321.262 275.752 322.259 273.75 321.47 272.279C320.778 270.99 320.038 270.535 318.631 270.535C317.547 270.535 317.221 270.657 316.533 271.32C315.454 272.36 315.252 273.76 316.012 274.929ZM316.073 258.986C317.675 261.263 321.172 260.556 321.699 257.849C321.88 256.92 321.425 255.86 320.497 255.051C320.083 254.69 319.546 254.544 318.631 254.544C317.547 254.544 317.221 254.666 316.533 255.329C315.404 256.417 315.231 257.789 316.073 258.986ZM316.073 242.995C317.675 245.272 321.172 244.565 321.699 241.857C322.021 240.203 320.424 238.426 318.615 238.426C317.829 238.426 317.377 238.616 316.659 239.251C315.398 240.364 315.184 241.731 316.073 242.995ZM315.992 226.923C316.671 227.966 317.294 228.272 318.733 228.272C321.715 228.272 322.799 224.973 320.443 223.064C317.963 221.052 314.26 224.263 315.992 226.923ZM315.864 210.643C316.868 212.864 320.488 212.819 321.462 210.573C322.017 209.292 321.733 208.172 320.612 207.223C319.054 205.905 316.77 206.339 315.893 208.12C315.41 209.1 315.404 209.626 315.864 210.643ZM315.864 194.652C316.863 196.861 320.316 196.845 321.409 194.626C322.038 193.347 321.772 192.214 320.612 191.232C319.053 189.913 316.785 190.315 315.924 192.065C315.41 193.109 315.398 193.622 315.864 194.652ZM315.879 178.695C316.837 180.818 320.337 180.812 321.384 178.684C321.917 177.601 321.923 177.167 321.415 176.137C320.338 173.949 316.99 173.91 315.924 176.073C315.407 177.124 315.398 177.629 315.879 178.695ZM315.879 162.703C316.837 164.827 320.337 164.82 321.384 162.693C321.923 161.597 321.923 161.177 321.384 160.082C320.321 157.923 316.811 157.952 315.868 160.127C315.408 161.187 315.41 161.665 315.879 162.703ZM315.902 146.678C316.797 148.426 319.07 148.839 320.612 147.534C321.733 146.586 322.017 145.465 321.462 144.185C320.494 141.952 316.828 141.92 315.868 144.135C315.397 145.22 315.404 145.705 315.902 146.678ZM315.749 130.441C316.16 131.421 317.558 132.324 318.665 132.324C319.911 132.324 321.424 131.174 321.685 130.029C321.924 128.981 321.387 127.603 320.504 126.997C319.579 126.362 317.838 126.324 316.897 126.918C315.775 127.627 315.247 129.245 315.749 130.441ZM315.749 114.449C316.16 115.43 317.558 116.332 318.665 116.332C319.911 116.332 321.424 115.182 321.685 114.038C321.924 112.99 321.387 111.612 320.504 111.006C319.596 110.383 317.708 110.323 316.868 110.89C315.718 111.666 315.231 113.215 315.749 114.449ZM315.749 98.4576C315.871 98.748 316.361 99.3029 316.839 99.6905C317.579 100.29 317.88 100.376 318.86 100.27C321.047 100.032 322.283 98.1053 321.463 96.213C320.966 95.0657 320.041 94.475 318.715 94.4575C317.407 94.44 316.655 94.8266 316.007 95.8513C315.468 96.7042 315.381 97.5807 315.749 98.4576ZM315.749 82.4662C315.871 82.7566 316.361 83.3114 316.839 83.699C317.577 84.2968 317.881 84.3846 318.85 84.2793C322.316 83.9029 322.779 79.3763 319.44 78.5097C317.009 77.8789 314.812 80.234 315.749 82.4662ZM316.094 66.857C316.88 67.981 317.759 68.4046 319.009 68.2614C320.058 68.1414 321.288 67.2677 321.288 66.6422C321.288 66.18 318.151 62.5195 317.755 62.5195C317.232 62.5195 316.295 63.2845 315.887 64.0453C315.337 65.0698 315.396 65.8579 316.094 66.857ZM332.212 273.962C332.503 273.962 334.409 270.781 334.166 270.7C333.809 270.58 332.91 271.387 332.454 272.236C332.101 272.894 331.951 273.962 332.212 273.962ZM332.368 258.473C333.37 260.785 336.536 261.053 337.874 258.938C338.566 257.843 338.547 256.976 337.807 255.918C337.017 254.788 336.143 254.37 334.876 254.515C332.951 254.736 331.643 256.801 332.368 258.473ZM332.458 242.658C332.955 243.723 333.908 244.292 335.224 244.309C336.574 244.327 337.548 243.723 338.055 242.553C338.61 241.275 338.325 240.154 337.205 239.206C335.903 238.105 334.528 238.12 333.259 239.251C332.175 240.215 331.888 241.437 332.458 242.658ZM332.444 226.635C332.943 227.699 333.954 228.272 335.334 228.272C337.3 228.272 338.701 226.586 338.278 224.728C338.014 223.572 336.504 222.434 335.234 222.434C333.107 222.434 331.565 224.756 332.444 226.635ZM332.444 210.643C333.535 212.973 337.316 212.794 338.146 210.372C338.569 209.137 338.262 208.118 337.194 207.215C335.904 206.123 334.524 206.141 333.259 207.268C332.184 208.224 331.887 209.454 332.444 210.643ZM332.459 194.686C333.455 196.82 337.099 196.784 338.033 194.631C338.507 193.537 338.503 193.134 338.008 192.128C337.508 191.114 336.374 190.451 335.136 190.451C334.429 190.451 333.948 190.663 333.259 191.276C332.174 192.241 331.888 193.462 332.459 194.686ZM332.472 178.695C333.117 180.126 335.212 180.722 336.805 179.928C337.547 179.558 338.407 178.19 338.407 177.379C338.407 176.568 337.547 175.199 336.805 174.829C335.192 174.025 333.248 174.59 332.517 176.073C331.999 177.124 331.991 177.629 332.472 178.695ZM332.527 162.733C333.607 164.846 336.928 164.822 337.977 162.693C338.504 161.622 338.512 161.233 338.033 160.127C337.09 157.952 333.58 157.923 332.517 160.082C331.981 161.17 331.983 161.67 332.527 162.733ZM332.342 146.432C332.732 147.361 334.153 148.315 335.148 148.315C338.053 148.315 339.411 145.091 337.306 143.195C335.869 141.902 333.364 142.37 332.517 144.09C332.046 145.047 332.003 145.624 332.342 146.432ZM332.342 130.441C332.753 131.421 334.15 132.324 335.258 132.324C336.504 132.324 338.017 131.174 338.278 130.029C338.683 128.254 337.242 126.485 335.391 126.485C333.077 126.485 331.526 128.498 332.342 130.441ZM332.342 114.449C332.753 115.43 334.15 116.332 335.258 116.332C336.504 116.332 338.017 115.182 338.278 114.038C338.507 113.032 337.995 111.633 337.168 111.006C336.324 110.366 334.314 110.314 333.434 110.908C332.368 111.628 331.855 113.29 332.342 114.449ZM332.578 98.7244C333.797 100.601 335.676 100.899 337.292 99.4717C338.149 98.7148 338.276 98.4554 338.276 97.4596C338.276 93.6727 332.782 93.2993 332.199 97.0466C332.103 97.6631 332.217 98.1688 332.578 98.7244ZM332.571 82.6992C333.122 83.5681 333.876 84.2321 334.083 84.0323C334.225 83.8953 332.438 81.0493 332.21 81.0493C331.918 81.0493 332.126 81.9971 332.571 82.6992ZM348.908 242.189C349.059 242.418 349.352 241.949 349.826 240.715C350.666 238.532 350.671 238.471 349.969 239.084C348.889 240.025 348.409 241.43 348.908 242.189ZM349.037 226.635C349.535 227.699 350.546 228.272 351.926 228.272C353.892 228.272 355.294 226.586 354.87 224.728C354.607 223.572 353.097 222.434 351.827 222.434C349.7 222.434 348.157 224.756 349.037 226.635ZM349.037 210.643C349.532 211.701 350.548 212.281 351.903 212.281C353.203 212.281 354.042 211.808 354.607 210.755C355.674 208.766 354.124 206.443 351.729 206.443C349.701 206.443 348.18 208.814 349.037 210.643ZM349.107 194.716C350.187 196.767 353.513 196.802 354.6 194.775C355.703 192.72 354.19 190.451 351.717 190.451C351.024 190.451 350.536 190.667 349.851 191.276C348.723 192.28 348.461 193.49 349.107 194.716ZM349.107 178.725C350.307 181.004 354.001 180.734 354.754 178.312C355.389 176.27 353.988 174.463 351.77 174.461C351.016 174.46 350.556 174.658 349.851 175.285C348.723 176.289 348.461 177.499 349.107 178.725ZM348.934 162.423C349.596 164 351.782 164.742 353.397 163.937C354.133 163.57 355 162.2 355 161.404C355 159.859 353.504 158.468 351.839 158.468C349.697 158.468 348.155 160.567 348.934 162.423ZM348.934 146.432C349.596 148.009 351.782 148.75 353.397 147.945C354.182 147.554 355 146.194 355 145.281C355 143.815 353.553 142.477 351.967 142.477C349.7 142.477 348.132 144.521 348.934 146.432ZM349.184 130.707C349.867 131.786 350.73 132.324 351.779 132.324C354.641 132.324 355.97 129.069 353.877 127.184C352.462 125.91 349.95 126.392 349.11 128.099C348.554 129.228 348.568 129.734 349.184 130.707ZM349.164 114.682C349.43 115.101 349.85 115.606 350.099 115.804C350.469 116.098 350.429 115.85 349.879 114.441C349.509 113.493 349.206 112.668 349.206 112.606C349.206 112.545 349.087 112.565 348.942 112.651C348.53 112.897 348.634 113.847 349.164 114.682Z" fill="#EFF3F6"/>
</svg>
