<svg width="26" height="26" viewBox="0 0 26 26" fill="none" xmlns="http://www.w3.org/2000/svg">
<g clip-path="url(#clip0_197_10860)">
<path d="M25.6328 13C25.6328 6.09648 20.0363 0.5 13.1328 0.5C6.2293 0.5 0.632812 6.09648 0.632812 13C0.632812 19.2391 5.20391 24.4104 11.1797 25.3481V16.6133H8.00586V13H11.1797V10.2461C11.1797 7.11328 13.0459 5.38281 15.9012 5.38281C17.2688 5.38281 18.6992 5.62695 18.6992 5.62695V8.70312H17.123C15.5702 8.70312 15.0859 9.6667 15.0859 10.6553V13H18.5527L17.9985 16.6133H15.0859V25.3481C21.0617 24.4104 25.6328 19.2392 25.6328 13Z" fill="#1877F2"/>
<path d="M18.0005 16.6133L18.5547 13H15.0879V10.6553C15.0879 9.6666 15.5722 8.70312 17.125 8.70312H18.7012V5.62695C18.7012 5.62695 17.2707 5.38281 15.903 5.38281C13.0479 5.38281 11.1816 7.11328 11.1816 10.2461V13H8.00781V16.6133H11.1816V25.3481C11.8278 25.4494 12.4808 25.5002 13.1348 25.5C13.7888 25.5002 14.4418 25.4494 15.0879 25.3481V16.6133H18.0005Z" fill="#F4F6F9"/>
</g>
<defs>
<clipPath id="clip0_197_10860">
<rect width="25" height="25" fill="white" transform="translate(0.632812 0.5)"/>
</clipPath>
</defs>
</svg>
