<svg width="26" height="26" viewBox="0 0 26 26" fill="none" xmlns="http://www.w3.org/2000/svg">
<path d="M19.7734 0.5H6.49219C3.25614 0.5 0.632812 3.12333 0.632812 6.35938V19.6406C0.632812 22.8767 3.25614 25.5 6.49219 25.5H19.7734C23.0095 25.5 25.6328 22.8767 25.6328 19.6406V6.35938C25.6328 3.12333 23.0095 0.5 19.7734 0.5Z" fill="url(#paint0_radial_197_10864)"/>
<path d="M19.7734 0.5H6.49219C3.25614 0.5 0.632812 3.12333 0.632812 6.35938V19.6406C0.632812 22.8767 3.25614 25.5 6.49219 25.5H19.7734C23.0095 25.5 25.6328 22.8767 25.6328 19.6406V6.35938C25.6328 3.12333 23.0095 0.5 19.7734 0.5Z" fill="url(#paint1_radial_197_10864)"/>
<path d="M13.1337 3.23438C10.4815 3.23438 10.1486 3.246 9.10703 3.29336C8.06738 3.34102 7.35771 3.50557 6.73682 3.74707C6.09443 3.99648 5.54961 4.33018 5.00684 4.87314C4.46357 5.41602 4.12988 5.96084 3.87969 6.60293C3.6375 7.22402 3.47275 7.93398 3.42598 8.97314C3.37939 10.0148 3.36719 10.3479 3.36719 13.0001C3.36719 15.6523 3.37891 15.9842 3.42617 17.0258C3.47402 18.0654 3.63857 18.7751 3.87988 19.396C4.12949 20.0384 4.46318 20.5832 5.00615 21.126C5.54883 21.6692 6.09365 22.0037 6.73555 22.2531C7.35693 22.4946 8.0667 22.6592 9.10615 22.7068C10.1479 22.7542 10.4805 22.7658 13.1325 22.7658C15.785 22.7658 16.1168 22.7542 17.1584 22.7068C18.198 22.6592 18.9085 22.4946 19.5299 22.2531C20.172 22.0037 20.716 21.6692 21.2586 21.126C21.8019 20.5832 22.1354 20.0384 22.3857 19.3963C22.6258 18.7751 22.7906 18.0652 22.8395 17.026C22.8862 15.9844 22.8984 15.6523 22.8984 13.0001C22.8984 10.3479 22.8862 10.015 22.8395 8.97334C22.7906 7.93369 22.6258 7.22412 22.3857 6.60322C22.1354 5.96084 21.8019 5.41602 21.2586 4.87314C20.7154 4.32998 20.1722 3.99629 19.5293 3.74717C18.9067 3.50557 18.1967 3.34092 17.157 3.29336C16.1153 3.246 15.7837 3.23438 13.1307 3.23438H13.1337ZM12.2576 4.99424C12.5177 4.99385 12.8078 4.99424 13.1337 4.99424C15.7412 4.99424 16.0502 5.00361 17.0799 5.05039C18.032 5.09395 18.5488 5.25303 18.8931 5.38672C19.3488 5.56367 19.6737 5.77529 20.0153 6.11719C20.3571 6.45898 20.5687 6.78447 20.7461 7.24023C20.8798 7.58398 21.0391 8.10078 21.0824 9.05293C21.1292 10.0824 21.1394 10.3916 21.1394 12.9979C21.1394 15.6041 21.1292 15.9134 21.0824 16.9428C21.0389 17.8949 20.8798 18.4117 20.7461 18.7556C20.5691 19.2113 20.3571 19.5358 20.0153 19.8774C19.6735 20.2192 19.349 20.4308 18.8931 20.6078C18.5492 20.7421 18.032 20.9008 17.0799 20.9443C16.0504 20.9911 15.7412 21.0013 13.1337 21.0013C10.5261 21.0013 10.217 20.9911 9.1876 20.9443C8.23545 20.9004 7.71865 20.7413 7.37412 20.6076C6.91846 20.4306 6.59287 20.219 6.25107 19.8772C5.90928 19.5354 5.69775 19.2107 5.52031 18.7548C5.38662 18.4109 5.22734 17.8941 5.18398 16.942C5.13721 15.9125 5.12783 15.6033 5.12783 12.9954C5.12783 10.3875 5.13721 10.08 5.18398 9.05049C5.22754 8.09834 5.38662 7.58154 5.52031 7.2373C5.69736 6.78154 5.90928 6.45605 6.25117 6.11426C6.59307 5.77246 6.91846 5.56084 7.37422 5.3835C7.71846 5.24922 8.23545 5.09053 9.1876 5.04678C10.0885 5.00605 10.4376 4.99385 12.2576 4.9918V4.99424ZM18.3466 6.61572C17.6996 6.61572 17.1747 7.14014 17.1747 7.78721C17.1747 8.43418 17.6996 8.95908 18.3466 8.95908C18.9936 8.95908 19.5185 8.43418 19.5185 7.78721C19.5185 7.14023 18.9936 6.61533 18.3466 6.61533V6.61572ZM13.1337 7.98496C10.3642 7.98496 8.11865 10.2305 8.11865 13.0001C8.11865 15.7697 10.3642 18.0142 13.1337 18.0142C15.9033 18.0142 18.148 15.7697 18.148 13.0001C18.148 10.2306 15.9031 7.98496 13.1335 7.98496H13.1337ZM13.1337 9.74482C14.9314 9.74482 16.389 11.2021 16.389 13.0001C16.389 14.7979 14.9314 16.2554 13.1337 16.2554C11.3359 16.2554 9.87852 14.7979 9.87852 13.0001C9.87852 11.2021 11.3358 9.74482 13.1337 9.74482Z" fill="#F4F6F9"/>
<defs>
<radialGradient id="paint0_radial_197_10864" cx="0" cy="0" r="1" gradientUnits="userSpaceOnUse" gradientTransform="translate(7.27344 27.4255) rotate(-90) scale(24.7769 23.0444)">
<stop stop-color="#FFDD55"/>
<stop offset="0.1" stop-color="#FFDD55"/>
<stop offset="0.5" stop-color="#FF543E"/>
<stop offset="1" stop-color="#C837AB"/>
</radialGradient>
<radialGradient id="paint1_radial_197_10864" cx="0" cy="0" r="1" gradientUnits="userSpaceOnUse" gradientTransform="translate(-3.55479 2.30088) rotate(78.681) scale(11.0754 45.6531)">
<stop stop-color="#3771C8"/>
<stop offset="0.128" stop-color="#3771C8"/>
<stop offset="1" stop-color="#6600FF" stop-opacity="0"/>
</radialGradient>
</defs>
</svg>
