<svg width="30" height="20" viewBox="0 0 30 20" fill="none" xmlns="http://www.w3.org/2000/svg">
<g clip-path="url(#clip0_197_10869)">
<path d="M28.4491 3.11944C28.2859 2.51651 27.9677 1.96683 27.526 1.52514C27.0843 1.08346 26.5347 0.765179 25.9317 0.602C23.7244 0 14.8406 0 14.8406 0C14.8406 0 5.95639 0.0182222 3.74906 0.620222C3.14611 0.783411 2.59644 1.10171 2.15477 1.54341C1.71311 1.98512 1.39486 2.53482 1.23172 3.13778C0.564056 7.05978 0.305056 13.036 1.25006 16.8011C1.41321 17.404 1.73146 17.9537 2.17313 18.3954C2.61479 18.8371 3.16446 19.1554 3.76739 19.3186C5.97472 19.9206 14.8587 19.9206 14.8587 19.9206C14.8587 19.9206 23.7426 19.9206 25.9498 19.3186C26.5528 19.1554 27.1025 18.8371 27.5442 18.3954C27.9858 17.9538 28.3041 17.4041 28.4673 16.8011C29.1715 12.8736 29.3885 6.901 28.4491 3.11944Z" fill="#E32721"/>
<path d="M12.0117 14.2326L19.3815 9.96398L12.0117 5.69531V14.2326Z" fill="#F4F6F9"/>
</g>
<defs>
<clipPath id="clip0_197_10869">
<rect width="28.4444" height="20" fill="white" transform="translate(0.632812)"/>
</clipPath>
</defs>
</svg>
