<svg width="60" height="60" viewBox="0 0 60 60" fill="none" xmlns="http://www.w3.org/2000/svg">
<path d="M2 4H22C27.5228 4 32 8.47715 32 14V34H12C6.47715 34 2 29.5228 2 24V4Z" fill="#E32721"/>
<path fill-rule="evenodd" clip-rule="evenodd" d="M29.1778 17.031C28.9455 17.0719 24.1934 17.6422 18.6176 18.2982C11.8122 19.0989 8.31721 19.5939 7.98477 19.8039C7.0749 20.3792 6.59336 21.8555 6.58576 24.0941C6.58026 25.7265 6.66263 26.2678 7.02781 26.9981L7.4764 27.8957L7.04386 28.7699C6.39652 30.0783 6.31098 32.5118 6.85589 34.1186L7.28315 35.3781L6.76655 36.2594C4.81565 39.5884 5.59014 46.7598 8.01983 47.864C8.42154 48.0467 14.5272 48.8497 23.2227 49.8639L37.7542 51.5586L40.5415 51.2304C42.0744 51.0498 43.59 50.8502 43.9093 50.7871L44.4901 50.6722V52.5477C44.4901 53.7245 44.5845 54.5174 44.7436 54.6764C45.2805 55.2133 45.7664 54.9326 46.5889 53.6098C48.0692 51.2293 47.8631 51.2999 49.0046 52.7836C50.5882 54.8416 51.2487 54.5381 51.2487 51.7519V49.9258L55.2062 49.455C57.3829 49.1963 59.2884 48.881 59.4404 48.7547C59.8742 48.3948 59.6489 47.6748 59.0064 47.3679C58.2372 47.0004 57.8868 46.4316 57.4899 44.9061C56.9104 42.6792 57.2164 39.2689 58.1196 37.8884C58.2858 37.6346 58.6849 37.3006 59.0064 37.1465C59.7488 36.7906 59.8147 35.9139 59.1219 35.61C58.434 35.3082 58.1128 34.3315 58.1128 32.5422C58.1128 30.7529 58.434 29.7763 59.1219 29.4745C59.4267 29.3408 59.5912 29.0835 59.5912 28.7405C59.5912 28.3976 59.4267 28.1403 59.1219 28.0066C58.434 27.7048 58.1128 26.7282 58.1128 24.9389C58.1128 23.1496 58.434 22.1729 59.1219 21.8711C59.6639 21.6333 59.8444 20.889 59.4415 20.5547C59.2898 20.4288 53.0838 19.6127 45.6503 18.7413C31.4229 17.0732 29.8588 16.9108 29.1778 17.031ZM23.7921 19.3422C16.3848 20.2592 16.8646 20.1859 17.2448 20.3422C17.419 20.4138 22.1023 21.0003 27.6521 21.6458L37.7426 22.819L44.2844 22.0397C47.8825 21.6111 50.8263 21.2084 50.8263 21.145C50.8263 21.0493 33.2074 18.9318 30.4451 18.6953C29.9804 18.6556 26.9866 18.9466 23.7921 19.3422ZM8.596 21.7157C8.01687 22.9635 8.10748 25.7843 8.75904 26.7913C8.85451 26.939 9.56373 27.1187 10.3348 27.1907L11.7372 27.3217L11.6097 25.5161C11.53 24.3876 11.5769 23.3354 11.7345 22.7094C11.873 22.1588 11.9104 21.6392 11.8173 21.5548C11.7241 21.4705 11.0221 21.341 10.2571 21.2671C8.89063 21.1349 8.8619 21.1427 8.596 21.7157ZM13.4683 22.7092C13.1681 23.9004 13.1662 25.5467 13.4632 26.7265C13.6866 27.614 13.7253 27.6476 14.6014 27.7177L15.5081 27.7901L15.3976 26.1793C15.217 23.546 15.5708 22.6023 16.6141 22.9333C16.9236 23.0315 16.9945 23.4066 17.0754 25.3725C17.1282 26.6501 17.2592 27.7785 17.3665 27.8803C17.4737 27.9819 21.3633 28.5032 26.0098 29.0386C30.6563 29.574 34.7293 30.0583 35.0609 30.1146C35.5693 30.2012 35.6411 30.1594 35.5173 29.8485C35.1921 29.0318 35.165 26.3081 35.4723 25.3228L35.7807 24.334L35.0138 24.2132C33.8309 24.0271 14.4825 21.7708 14.0693 21.7708C13.8138 21.7708 13.6336 22.0521 13.4683 22.7092ZM47.0337 23.3842C40.9936 24.1196 37.5846 24.6197 37.4773 24.786C36.6745 26.0308 36.7457 29.4884 37.5884 30.1877C37.7842 30.3503 40.3112 30.1208 46.6138 29.3676C51.4282 28.7925 55.7122 28.267 56.1342 28.2001L56.9011 28.0782L56.5928 27.0894C56.2852 26.1037 56.3125 23.3804 56.638 22.5628C56.7188 22.3597 56.7036 22.2038 56.6042 22.2169C56.5047 22.23 52.1978 22.7552 47.0337 23.3842ZM8.59494 29.3214C8.02025 30.5597 8.1079 33.3898 8.75165 34.3827C8.89612 34.6057 24.0274 36.5551 25.6129 36.5551C26.1067 36.5551 26.1099 36.5403 25.995 34.7071C25.9314 33.6908 25.9612 32.5811 26.0611 32.2417C26.293 31.4528 26.8309 31.09 27.3148 31.3954C27.608 31.5802 27.673 32.0024 27.6884 33.8232C27.7108 36.4252 27.9267 36.9775 28.9212 36.9775H29.6002L29.6355 34.6015C29.6547 33.2947 29.7023 31.9931 29.7411 31.709L29.8114 31.1928L19.568 29.978C13.9342 29.31 9.22116 28.7583 9.09465 28.752C8.96793 28.7456 8.7432 29.0018 8.59494 29.3214ZM47.0326 30.9873C41.0384 31.7196 37.5821 32.2273 37.4763 32.3912C36.6745 33.6339 36.7463 37.0922 37.5884 37.7911C37.7842 37.9537 40.3112 37.7241 46.6138 36.971C51.4282 36.3958 55.7082 35.8712 56.1249 35.8049L56.8827 35.6847L56.5856 34.5888C56.2933 33.5102 56.3245 30.9679 56.6399 30.1662C56.7197 29.9628 56.7036 29.8063 56.6042 29.8183C56.5047 29.8302 52.1974 30.3563 47.0326 30.9873ZM31.5904 31.9365C31.221 32.6235 31.0867 35.4157 31.3722 36.4721L31.6067 37.3395L33.5603 37.5471C34.6349 37.6612 35.5325 37.7435 35.5551 37.7298C35.5777 37.7161 35.5087 37.3273 35.4018 36.866C35.1192 35.6473 35.1547 34.0179 35.4878 32.9112L35.7782 31.9458L35.1182 31.83C34.7551 31.7665 33.8733 31.6518 33.1586 31.5753C31.94 31.445 31.8428 31.4674 31.5904 31.9365ZM8.51806 36.7241C7.07511 38.3184 6.96782 43.9669 8.34466 45.8426C8.67287 46.2895 10.176 46.8623 10.4092 46.6291C10.4478 46.5905 10.3291 45.8523 10.1452 44.9889C9.7215 43 9.85688 39.7322 10.4388 37.8979L10.8502 36.6009L10.0873 36.4746C8.98165 36.2917 8.89717 36.3052 8.51806 36.7241ZM12.3161 37.6639C11.4348 39.9948 11.3233 43.4218 12.0526 45.7714C12.3535 46.7413 12.4621 46.8676 13.0746 46.9609C13.4516 47.0184 13.7821 47.0462 13.8094 47.0232C13.8366 47 13.7084 46.2747 13.5244 45.4113C13.1006 43.4211 13.2361 40.1546 13.8186 38.3182L14.2307 37.0189L13.5994 36.8926C12.6651 36.7057 12.6826 36.6951 12.3161 37.6639ZM15.7055 38.0652C15.1539 39.5318 14.9323 40.7735 14.9266 42.4272C14.922 43.8651 15.3725 46.4863 15.7201 47.0431C15.8722 47.2864 27.1112 48.7243 27.3097 48.5257C27.3642 48.4712 27.2603 47.7079 27.0789 46.8295C26.557 44.3025 26.6949 41.6876 27.4937 38.9728C27.6166 38.5548 27.4394 38.5182 22.5914 37.9579C19.8251 37.6382 17.2218 37.3249 16.8063 37.2616C16.0754 37.1503 16.0399 37.176 15.7055 38.0652ZM46.0824 38.7005C39.7953 39.4735 37.5483 39.8235 37.2733 40.0725C35.7418 41.4584 35.7524 48.1352 37.2883 49.5251C37.642 49.8453 37.8866 49.8474 40.3949 49.5503C41.8921 49.3729 43.4263 49.1758 43.8037 49.1124L44.4901 48.9969V46.5222C44.4901 44.1582 44.4688 44.0381 44.0149 43.8389C43.3431 43.5441 43.2719 42.7398 43.895 42.4794C44.1642 42.3668 46.0782 42.0747 48.1482 41.8303C51.0712 41.485 51.9794 41.4417 52.2139 41.6362C52.813 42.1336 52.4265 43.1024 51.6288 43.1024C51.2839 43.1024 51.2487 43.3371 51.2487 45.6369C51.2487 48.1265 51.2571 48.1711 51.7239 48.1637C52.525 48.1508 56.3051 47.6205 56.4208 47.5048C56.4808 47.4448 56.3209 46.8338 56.0658 46.1467C55.4607 44.5177 55.4018 40.1696 55.9651 38.6933C56.1589 38.1852 56.3176 37.7336 56.3176 37.6901C56.3176 37.4985 53.9804 37.7292 46.0824 38.7005ZM29.2706 39.1138C28.4726 40.6045 28.2069 44.6577 28.7662 46.8069C29.2068 48.5002 29.5705 49.0161 30.3236 49.0161H30.9317L30.6005 48.0129C30.1126 46.5355 30.1162 41.6924 30.6062 40.1599C30.8079 39.5291 30.9731 38.993 30.9731 38.9687C30.9731 38.9445 30.6339 38.8849 30.2195 38.8365C29.6598 38.7713 29.4156 38.8424 29.2706 39.1138ZM32.6807 39.4784C32.1951 40.3857 31.8179 42.4302 31.8179 44.1546C31.8179 45.9575 32.3693 48.5961 32.8458 49.0725C33.1081 49.3348 35.1971 49.65 35.1971 49.4271C35.1971 49.3465 35.0385 48.8645 34.8446 48.3563C34.2805 46.8779 34.3403 42.532 34.9469 40.8985C35.4666 39.4991 35.3792 39.3096 34.2112 39.3039C33.8431 39.3022 33.399 39.2458 33.2241 39.1787C33.034 39.1058 32.8156 39.226 32.6807 39.4784ZM47.711 43.5732L46.1798 43.7762V47.388V50.9998L46.8087 50.0079C47.5803 48.7912 48.0318 48.7481 48.8977 49.8082L49.5449 50.6002L49.5518 46.9569C49.5559 44.953 49.4876 43.3263 49.4006 43.3419C49.3136 43.3576 48.5533 43.4615 47.711 43.5732Z" fill="white"/>
</svg>
