<svg width="60" height="60" viewBox="0 0 60 60" fill="none" xmlns="http://www.w3.org/2000/svg">
<path d="M0 4H20C25.5228 4 30 8.47715 30 14V34H10C4.47715 34 0 29.5228 0 24V4Z" fill="#E32721"/>
<path fill-rule="evenodd" clip-rule="evenodd" d="M21.3833 10.7305C20.9817 11.1322 20.5896 11.8084 20.5122 12.2329C20.4348 12.6575 20.4035 17.7327 20.443 23.5111L20.5144 34.0173L14.0884 34.088L7.66219 34.1587L6.87685 34.9442L6.09128 35.73L6.02397 46.7161C5.95233 58.4115 5.9706 58.625 7.11772 59.5274C7.69584 59.982 8.14753 60 19.0083 60H30.298L31.0937 59.2043C31.6588 58.6392 31.935 58.0993 32.0466 57.3413C32.1329 56.7543 32.1696 51.7036 32.1283 46.1175L32.0528 35.9613H32.8942H33.7355L33.66 46.1175C33.6187 51.7036 33.6555 56.7543 33.7418 57.3413C33.8533 58.0993 34.1295 58.6392 34.6946 59.2043L35.4903 60H46.78C57.6408 60 58.0925 59.982 58.6706 59.5274C59.8177 58.625 59.836 58.4115 59.7644 46.7161L59.697 35.73L58.9117 34.9442L58.1261 34.1587L52.3011 34.087L46.4759 34.0156L46.5473 23.5101C46.5867 17.7322 46.5514 12.6349 46.4687 12.1825C46.3838 11.7178 46.0019 11.0642 45.5906 10.68L44.8624 10H33.4881H22.1139L21.3833 10.7305ZM22.8516 12.057L22.3172 12.431V22.7697C22.3172 29.4368 22.4057 33.2736 22.566 33.5736C22.8064 34.0226 23.1819 34.0385 33.4951 34.0385C43.8083 34.0385 44.1838 34.0226 44.4242 33.5736C44.5845 33.2736 44.673 29.4368 44.673 22.7697V12.431L44.1386 12.057C43.6757 11.7327 42.2559 11.6827 33.4951 11.6827C24.7343 11.6827 23.3146 11.7327 22.8516 12.057ZM32.816 15.2204C32.748 15.3305 31.3821 18.6476 29.7805 22.5921C27.8961 27.2337 26.9211 29.9291 27.0175 30.2322C27.1297 30.5865 27.3449 30.6825 27.9007 30.6267C28.5915 30.5572 28.6946 30.4055 29.623 28.0923L30.6105 25.632L33.5156 25.6284L36.4206 25.625L37.391 28.0889C38.304 30.4067 38.4047 30.5572 39.0927 30.6267C39.6487 30.6827 39.8605 30.5863 39.9752 30.225C40.0745 29.9123 39.1136 27.251 37.1711 22.4589C34.4011 15.6243 34.1764 15.1637 33.5778 15.0945C33.2269 15.0538 32.8841 15.1106 32.816 15.2204ZM32.5458 20.8784C32.0446 22.1007 31.5821 23.2363 31.5177 23.4014C31.4295 23.6276 31.9119 23.7019 33.4694 23.7019C34.6074 23.7019 35.5384 23.6656 35.5384 23.6214C35.5384 23.4945 33.624 18.8228 33.5357 18.7346C33.4925 18.6911 33.0468 19.6558 32.5458 20.8784ZM8.18262 36.25C7.82205 36.6106 7.77108 57.2697 8.1295 57.8365C8.32637 58.1481 9.79729 58.1971 18.9624 58.1971C29.2583 58.1971 29.5776 58.1832 29.916 57.7207C30.4442 56.9983 30.3045 36.5349 29.7692 36.1966C29.2021 35.8385 8.5432 35.8894 8.18262 36.25ZM36.0192 36.1966C35.4838 36.5349 35.3442 56.9983 35.8723 57.7207C36.2107 58.1832 36.53 58.1971 46.8259 58.1971C55.991 58.1971 57.4619 58.1481 57.6588 57.8365C58.0172 57.2697 57.9663 36.6106 57.6057 36.25C57.2451 35.8894 36.5862 35.8385 36.0192 36.1966ZM14.8052 39.3303C14.4194 39.5697 14.3845 40.2029 14.3845 46.9832C14.3845 52.4118 14.4612 54.4517 14.673 54.6635C14.8624 54.8529 15.8687 54.9519 17.6019 54.9519C19.7499 54.9519 20.4273 54.8623 21.2341 54.4719C23.7269 53.2651 24.4716 49.875 22.6973 47.8123L22.1321 47.1553L22.6915 46.4219C23.5379 45.312 23.8785 43.7519 23.5425 42.5228C23.216 41.3291 22.3146 40.1856 21.267 39.6363C20.3456 39.1531 15.4636 38.9221 14.8052 39.3303ZM46.0475 39.3346C43.9807 39.8536 41.8992 41.5428 40.8845 43.524C39.98 45.2899 39.8591 48.0514 40.6002 50.0166C42.0564 53.8788 46.5175 55.8911 50.6586 54.5536C52.304 54.0224 53.6901 52.8329 53.4704 52.1409C53.2218 51.3579 52.6213 51.2736 51.6665 51.8877C50.2271 52.8135 49.5247 53.0291 47.967 53.0236C44.5297 53.0113 42.0434 50.5445 42.0365 47.1394C42.0264 42.1769 47.2766 39.3887 51.4413 42.1447C52.5783 42.8971 53.2067 42.6988 53.2067 41.5873C53.2067 40.9762 53.0206 40.8007 51.617 40.0861C49.8737 39.1986 47.7374 38.9103 46.0475 39.3346ZM16.3076 43.5337V46.0577H18.2122C19.8985 46.0577 20.1997 45.988 20.8389 45.4502C21.7523 44.6815 21.9728 43.7245 21.4982 42.5885C21.0314 41.4712 19.9728 41.0096 17.8778 41.0096H16.3076V43.5337ZM16.3076 50.5048V53.0288H18.1982C19.7297 53.0288 20.2059 52.9368 20.705 52.5442C22.1978 51.3702 21.9677 49.0334 20.2903 48.3327C19.8271 48.1392 18.7415 47.9808 17.8778 47.9808H16.3076V50.5048Z" fill="white"/>
</svg>
