<svg width="60" height="60" viewBox="0 0 60 60" fill="none" xmlns="http://www.w3.org/2000/svg">
<path d="M5 4H25C30.5228 4 35 8.47715 35 14V34H15C9.47715 34 5 29.5228 5 24V4Z" fill="#E32721"/>
<path fill-rule="evenodd" clip-rule="evenodd" d="M17.0184 10.4689C16.5709 10.7249 16.0083 11.1989 15.7683 11.5225L15.332 12.1108V34.9615V57.8124L15.8183 58.4943C16.0858 58.8693 16.6682 59.3614 17.1121 59.5881C17.8976 59.9888 18.3972 60 35.2833 60C48.5107 60 52.7066 59.9404 52.897 59.75C53.2599 59.387 53.2599 10.6097 52.897 10.2468C52.7066 10.0563 48.5048 9.99758 35.2396 10.0001L17.8322 10.0036L17.0184 10.4689ZM17.4459 12.1744L16.8946 12.6855V33.1255C16.8946 49.4287 16.9473 53.5317 17.1551 53.3973C17.2984 53.3046 18.3999 53.1818 19.6031 53.1245L21.7908 53.0204L21.8439 32.3419L21.897 11.6635H19.9471C18.1662 11.6635 17.9495 11.7077 17.4459 12.1744ZM23.5617 32.394V53.1245H37.521H51.4802V32.394V11.6635H37.521H23.5617V32.394ZM27.1453 15.2471C26.9674 15.425 26.8953 16.7099 26.8953 19.7043C26.8953 23.3484 26.9395 23.9283 27.2249 24.0379C27.4062 24.1075 32.0752 24.1643 37.6006 24.1643C45.1365 24.1643 47.7091 24.1018 47.8967 23.9143C48.2498 23.5612 48.2498 15.6002 47.8967 15.2471C47.5364 14.8869 27.5055 14.8869 27.1453 15.2471ZM28.5621 19.5807V22.4976H37.521H46.4799V19.5807V16.6638H37.521H28.5621V19.5807ZM17.3265 55.3403C16.8992 55.8835 16.7736 56.7335 17.024 57.3863C17.3886 58.3361 17.333 58.3332 34.9062 58.3332H51.4802V56.5623V54.7913H34.6193H17.7582L17.3265 55.3403Z" fill="white"/>
</svg>
