<svg width="80" height="80" viewBox="0 0 80 80" fill="none" xmlns="http://www.w3.org/2000/svg">
<path d="M0 0.289062H38C43.5229 0.289062 48 4.76621 48 10.2891V48.2891H10C4.47715 48.2891 0 43.8119 0 38.2891V0.289062Z" fill="white" fill-opacity="0.1"/>
<path fill-rule="evenodd" clip-rule="evenodd" d="M31.2563 6.8157C28.6828 7.50726 26.693 9.32601 25.7936 11.8087L25.4506 12.7552L24.3425 12.9452C22.7211 13.2234 21.402 13.9149 20.1641 15.1365C18.5922 16.6876 17.8144 18.5577 17.8144 20.7859V21.7096L17.1503 21.8791C14.175 22.639 11.8062 24.8424 10.7686 27.8154C10.487 28.6221 10.412 29.1846 10.4039 30.5498C10.3928 32.4276 10.6617 33.5024 11.5417 35.0985L11.9822 35.8973L11.5372 36.4266C10.7491 37.364 10.0358 38.6466 9.59062 39.9263C9.20547 41.0335 9.15625 41.3959 9.15625 43.1279C9.15625 44.8599 9.20547 45.2223 9.59062 46.3295C10.3011 48.3718 11.61 50.1962 13.2511 51.4313L13.7661 51.8188L13.4669 52.517C12.54 54.6791 12.6283 57.0329 13.7178 59.2116C14.5198 60.8159 16.2344 62.3521 17.8308 62.8971C18.457 63.111 18.5711 63.236 19.1273 64.3182C20.6148 67.2127 23.8806 69.3509 27.2492 69.6357L28.4178 69.7345L29.0078 70.5912C31.3205 73.949 36.1078 74.374 39.0034 71.4784C39.8106 70.6712 40.5239 69.307 40.7758 68.0888L40.9616 67.1904L52.0833 67.187C62.5361 67.1837 63.2427 67.1663 63.83 66.8968C64.6256 66.5318 65.2808 65.8766 65.6458 65.081C65.9136 64.4974 65.9328 63.8429 65.9359 55.1982L65.9394 45.9404H68.1269C71.1086 45.9404 70.9394 46.1473 70.9394 42.5029C70.9394 38.8585 71.1086 39.0654 68.1269 39.0654H65.9394V37.5029V35.9404H68.1269C71.1086 35.9404 70.9394 36.1473 70.9394 32.5029C70.9394 28.8585 71.1086 29.0654 68.1269 29.0654H65.9394V27.5029V25.9404H68.1269C71.1086 25.9404 70.9394 26.1473 70.9394 22.5029C70.9394 18.8601 71.1066 19.0654 68.1397 19.0654H65.9648L65.9131 17.1382C65.8639 15.3109 65.8369 15.1716 65.3902 14.4498C65.0475 13.8962 64.6909 13.5694 64.0831 13.2519L63.2475 12.8154H52.0362H40.825L40.4711 11.8388C39.0856 8.01476 35.027 5.80242 31.2563 6.8157ZM31.7987 8.57632C30.0622 9.0357 28.5458 10.2729 27.7845 11.8516C27.343 12.7671 27.2811 13.0548 27.2748 14.2216C27.2661 15.8005 27.4766 16.5766 28.208 17.6635C29.0403 18.9004 28.9058 19.6904 27.8628 19.6904C27.4303 19.6904 27.262 19.5726 26.8025 18.9482C26.162 18.0779 25.6636 16.8477 25.4397 15.5851L25.2797 14.6827L24.7111 14.7874C21.9861 15.2894 19.9877 17.418 19.7387 20.0838C19.69 20.6063 19.7306 21.4098 19.8292 21.8691C20.0767 23.0234 19.8489 23.3599 18.7233 23.5027C17.0166 23.7191 15.6569 24.3424 14.4741 25.4507C11.8408 27.9179 11.4627 32.0271 13.6062 34.8801C13.9442 35.3296 14.2206 35.8482 14.2206 36.0321C14.2206 36.2229 13.8555 36.7529 13.3714 37.2648C10.3383 40.4724 10.1614 45.1291 12.9417 48.5777C13.8059 49.6498 15.1814 50.5707 16.6173 51.0388C18.3561 51.6057 20.7083 51.6348 22.1112 51.1068C22.6269 50.9129 23.3064 50.7188 23.6213 50.6759C24.1116 50.6088 24.2323 50.6568 24.4636 51.0098C25.0031 51.8332 24.2158 52.5023 21.955 53.1413C20.7292 53.4879 17.6595 53.4202 16.458 53.0201L15.4922 52.6987L15.1381 53.4991C14.638 54.6302 14.6373 56.5954 15.1366 57.854C15.5141 58.8055 16.6744 60.2041 17.4706 60.6671L17.9409 60.9405L17.8578 60.0229C17.7859 59.2301 17.8198 59.0599 18.107 58.7727C18.7852 58.0946 19.6875 58.5948 19.6917 59.6513C19.7025 62.4079 21.7384 65.6374 24.2298 66.8501C25.2813 67.3618 26.8162 67.8154 27.4967 67.8154C27.8717 67.8154 27.8916 67.7754 27.8395 67.1218C27.7297 65.7407 28.5625 63.3615 29.3323 62.8571C29.8045 62.5477 30.4331 62.7184 30.6605 63.2174C30.8153 63.5573 30.7667 63.7534 30.3036 64.6566C29.8308 65.5788 29.768 65.8416 29.7714 66.8809C29.7778 68.806 30.6617 70.2371 32.3891 71.1191C33.298 71.5832 34.8783 71.6835 35.9061 71.3421C36.9123 71.0079 38.0231 70.0318 38.5639 69.0065L38.9862 68.206V40.5498V12.8935L38.4825 11.864C37.8775 10.6276 36.7502 9.5171 35.5352 8.96101C34.6084 8.53663 32.6941 8.3396 31.7987 8.57632ZM40.9394 20.6279V26.5654H46.2519H51.5644V26.1768C51.5644 25.8863 51.4364 25.7348 51.0566 25.5757C50.7772 25.4588 50.2897 25.0762 49.9733 24.7254C48.9905 23.6362 48.8086 22.2963 49.4648 20.9793C49.9092 20.0877 50.9173 19.2985 51.8311 19.1271C54.3087 18.6623 56.4467 20.9759 55.7908 23.4118C55.5777 24.2034 54.6642 25.2755 53.9472 25.5757C53.4483 25.7846 53.4394 25.8062 53.4394 26.8018C53.4394 28.5412 53.843 28.4404 46.8769 28.4404H40.9394V31.2529V34.0654H47.578H54.2164L54.4291 33.5576C54.7292 32.8405 55.8014 31.9271 56.593 31.714C59.0289 31.058 61.3425 33.196 60.8777 35.6737C60.7062 36.5874 59.917 37.5955 59.0255 38.0399C57.7084 38.6962 56.3686 38.5143 55.2794 37.5315C54.9286 37.2151 54.5459 36.7274 54.4291 36.4482L54.2164 35.9404H47.578H40.9394V38.7529V41.5654H43.828H46.7164L46.9291 41.0576C47.2292 40.3405 48.3014 39.4271 49.093 39.214C52.4175 38.3187 54.8505 42.3862 52.4602 44.8432C51.1255 46.2154 49.1781 46.2937 47.7794 45.0315C47.4286 44.7151 47.0459 44.2276 46.9291 43.9482L46.7164 43.4404H43.828H40.9394V46.8779V50.3154H46.953H52.9664L53.1791 49.8076C53.4792 49.0905 54.5514 48.1771 55.343 47.964C57.7789 47.308 60.0925 49.446 59.6277 51.9237C59.4562 52.8374 58.667 53.8456 57.7755 54.2899C56.4584 54.9462 55.1186 54.7643 54.0294 53.7815C53.6786 53.4651 53.2959 52.9776 53.1791 52.6982L52.9664 52.1904H46.953H40.9394V55.0029V57.8154H52.5019H64.0644V36.8701C64.0644 14.1021 64.1105 15.2876 63.2094 14.8771C62.9042 14.738 60.0109 14.6904 51.8695 14.6904H40.9394V20.6279ZM51.7378 21.1585C50.3833 21.9093 50.95 24.0654 52.5019 24.0654C53.2936 24.0654 54.0644 23.3021 54.0644 22.518C54.0644 21.3449 52.768 20.5874 51.7378 21.1585ZM65.9394 22.5029V24.0654H67.5019H69.0644V22.5029V20.9404H67.5019H65.9394V22.5029ZM31.3997 24.8002C29.9408 25.5241 28.6286 27.0976 28.0705 28.792C28.0036 28.9952 27.8088 29.066 27.3114 29.0677C25.0586 29.0755 22.3675 30.4168 20.9711 32.228C19.2569 34.4513 18.7119 37.0627 19.3955 39.7777C19.6034 40.6038 20.105 41.0268 20.6994 40.8776C21.3511 40.7141 21.4647 40.2801 21.1661 39.0949C20.1925 35.2301 22.8817 31.4115 26.8706 30.9944L27.78 30.8995L27.8939 31.584C28.2809 33.9084 29.5294 35.3315 30.3683 34.4046C30.7175 34.0188 30.6963 33.786 30.2169 32.7388C29.1463 30.4004 29.9009 27.8177 32.0056 26.617C33.0313 26.0318 33.2831 25.7879 33.2831 25.3807C33.2831 25.0687 32.6439 24.3779 32.3552 24.3779C32.2978 24.3779 31.8678 24.5679 31.3997 24.8002ZM65.9394 32.5029V34.0654H67.5019H69.0644V32.5029V30.9404H67.5019H65.9394V32.5029ZM56.7378 33.6585C55.3833 34.4093 55.95 36.5654 57.5019 36.5654C58.2936 36.5654 59.0644 35.8021 59.0644 35.018C59.0644 33.8449 57.768 33.0874 56.7378 33.6585ZM49.2378 41.1585C47.8833 41.9093 48.45 44.0654 50.0019 44.0654C50.7936 44.0654 51.5644 43.3021 51.5644 42.518C51.5644 41.3449 50.268 40.5874 49.2378 41.1585ZM65.9394 42.5029V44.0654H67.5019H69.0644V42.5029V40.9404H67.5019H65.9394V42.5029ZM26.9408 43.206C26.6098 43.537 26.5664 43.686 26.6564 44.1826C27.1942 47.1513 29.5234 49.3255 32.4987 49.6366C33.282 49.7185 33.4423 49.6874 33.7317 49.398C34.4703 48.6595 34.0236 47.9785 32.6802 47.7948C30.553 47.5038 29.0681 46.179 28.5883 44.1435C28.4042 43.3629 27.9784 42.8154 27.5556 42.8154C27.4323 42.8154 27.1556 42.9912 26.9408 43.206ZM55.4878 49.9085C54.1333 50.6593 54.7 52.8154 56.2519 52.8154C57.0436 52.8154 57.8144 52.0521 57.8144 51.268C57.8144 50.0949 56.518 49.3374 55.4878 49.9085ZM40.9394 62.5029V65.3154H51.8695C60.0109 65.3154 62.9042 65.2677 63.2094 65.1287C63.9305 64.8002 64.0644 64.292 64.0644 61.8857V59.6904H52.5019H40.9394V62.5029Z" fill="#EC2526"/>
</svg>
