<svg width="60" height="60" viewBox="0 0 60 60" fill="none" xmlns="http://www.w3.org/2000/svg">
<g clip-path="url(#clip0_456_8500)">
<path fill-rule="evenodd" clip-rule="evenodd" d="M39.1939 0.284699C38.9081 0.570519 38.9062 0.586808 38.9062 2.8681C38.9062 5.14939 38.9081 5.16568 39.1939 5.4515C39.5423 5.79989 39.9957 5.82157 40.3125 5.50482C40.5316 5.28568 40.5469 5.11423 40.5469 2.8681C40.5469 0.621964 40.5316 0.450519 40.3125 0.231379C39.9957 -0.0853793 39.5423 -0.0636996 39.1939 0.284699ZM26.0525 5.62388C25.7538 5.74294 25.5469 6.08314 25.5469 6.45486C25.5469 6.63532 26.066 7.24071 27.2115 8.39618C28.6498 9.84673 28.9263 10.0751 29.2441 10.0751C29.7041 10.0751 30.039 9.72486 30.039 9.24403C30.039 8.93794 29.7977 8.64497 28.4082 7.26462C27.5112 6.37364 26.6719 5.61696 26.543 5.58321C26.4141 5.54946 26.1934 5.56775 26.0525 5.62388ZM52.6758 5.72548C52.4824 5.84642 51.6783 6.6024 50.8887 7.40548C49.6635 8.65165 49.4531 8.91978 49.4531 9.23595C49.4531 9.71571 49.8128 10.0751 50.2927 10.0751C50.6103 10.0751 50.8801 9.86126 52.1774 8.58099C53.7519 7.02708 54.0845 6.58482 53.9639 6.20513C53.8852 5.95693 53.3643 5.50458 53.158 5.50529C53.0862 5.50552 52.8691 5.60466 52.6758 5.72548ZM38.3756 8.90818C34.7903 9.37704 31.655 11.6045 30.0021 14.8573C28.9616 16.9051 28.5879 19.3508 28.9932 21.4613C29.3659 23.4016 30.2146 25.2106 32.0114 27.8947L33.2227 29.704L32.959 30.2269C32.648 30.8437 32.6236 31.4535 32.8839 32.104C33.0571 32.5369 33.0571 32.6133 32.8839 33.0462C32.3053 34.492 33.1062 35.8506 34.6684 36.0741C35.1562 36.1438 35.2427 36.2106 35.7345 36.8972C36.0912 37.3953 36.4649 37.7562 36.8555 37.9799L37.4414 38.3154L39.701 38.3164C42.2058 38.3174 42.5256 38.2504 43.2195 37.5789C43.4325 37.3728 43.7677 36.9536 43.9641 36.6474C44.2567 36.1914 44.3834 36.0908 44.6644 36.0908C45.399 36.0908 46.2511 35.5531 46.6099 34.863C46.8484 34.4044 46.8411 33.4278 46.5957 32.9533C46.4132 32.6002 46.4132 32.5501 46.5957 32.197C46.8757 31.6556 46.8499 30.6998 46.5411 30.1764L46.2909 29.7524L47.5576 27.8442C49.5484 24.8449 50.3918 22.8808 50.606 20.7449C50.8041 18.7704 50.4879 16.9679 49.6211 15.1298C47.5835 10.8091 43.0443 8.29763 38.3756 8.90818ZM37.5025 10.7862C34.9664 11.4502 32.8158 13.1474 31.6096 15.437C30.8346 16.9079 30.5643 18.002 30.5599 19.6845C30.5539 22.0158 31.2244 23.6975 33.528 27.1287L34.8243 29.0595H39.7669H44.7095L45.5285 27.8588C47.4715 25.0107 48.3553 23.303 48.7587 21.6173C49.0803 20.273 49.028 18.426 48.6323 17.165C47.6207 13.94 45.1011 11.539 41.9309 10.779C40.6257 10.4661 38.7132 10.4692 37.5025 10.7862ZM2.54859 10.8283C1.99899 11.0243 1.38375 11.4881 1.04883 11.9583C0.488673 12.745 0.468751 13.0002 0.468751 19.3888C0.468751 26.3038 0.462657 26.252 1.39266 27.182C2.36367 28.1532 2.20149 28.1347 9.44637 28.0966C15.6655 28.0639 15.7689 28.0595 16.2305 27.8101C16.8534 27.4733 17.3943 26.8926 17.6861 26.247C17.9162 25.7381 17.9246 25.5013 17.9271 19.4637C17.929 15.001 17.8902 13.0759 17.7919 12.7478C17.6003 12.1082 16.8207 11.2656 16.1177 10.9383L15.5273 10.6634L9.25781 10.6674C4.32516 10.6706 2.89453 10.7048 2.54859 10.8283ZM2.98266 12.4665C2.78625 12.552 2.52258 12.7741 2.39672 12.9599C2.17723 13.2841 2.16797 13.5399 2.16797 19.2743C2.16797 25.7351 2.17289 25.7895 2.79504 26.212C3.08191 26.4068 3.54996 26.4254 8.97246 26.4562C15.4774 26.4931 15.5529 26.4861 16.0211 25.7902L16.2891 25.392L16.2886 19.4035C16.2882 13.6036 16.2807 13.4028 16.0516 13.0271C15.6087 12.3004 15.6166 12.3012 9.17367 12.3063C4.59059 12.3099 3.26332 12.3442 2.98266 12.4665ZM8.14453 14.9204C5.26066 15.6713 3.81738 18.7775 5.11758 21.4348C5.9802 23.1981 8.09004 24.279 9.98238 23.927C11.0141 23.7352 11.8739 23.2585 12.5973 22.477C13.4779 21.526 13.7619 20.7597 13.7629 19.3329C13.7634 18.317 13.7305 18.1516 13.3857 17.4413C12.4346 15.4818 10.1705 14.3928 8.14453 14.9204ZM36.3367 16.2433C36.1001 16.544 36.0937 16.6744 36.0937 21.2665C36.0937 25.8586 36.1001 25.9891 36.3367 26.2898C36.4934 26.489 36.6933 26.5986 36.9002 26.5986C37.1035 26.5986 38.6768 25.7576 41.1983 24.3011C43.386 23.0375 45.2681 21.9218 45.3809 21.822C45.6746 21.5618 45.6438 20.9497 45.3223 20.658C45.1772 20.5265 43.3116 19.4098 41.1763 18.1767C37.0028 15.7663 36.7813 15.6779 36.3367 16.2433ZM8.02477 16.7337C7.06395 17.1824 6.46793 18.0122 6.36082 19.0502C6.27129 19.9172 6.49957 20.6347 7.07156 21.2846C7.68199 21.978 8.2923 22.2568 9.20754 22.2601C12.1421 22.2707 13.226 18.5345 10.7614 16.9035C10.1134 16.4747 8.75918 16.3906 8.02477 16.7337ZM37.8516 21.2665C37.8516 22.9101 37.8703 24.2548 37.8933 24.2548C38.0337 24.2548 42.8918 21.363 42.9034 21.2724C42.9148 21.1842 38.053 18.2783 37.8939 18.2783C37.8705 18.2783 37.8516 19.623 37.8516 21.2665ZM20.625 18.9473C20.262 19.0809 20.0391 19.3802 20.0408 19.732C20.0448 20.538 20.3088 20.622 22.8362 20.622C23.9965 20.622 25.0745 20.573 25.2319 20.5131C25.8548 20.2763 25.8305 19.3373 25.193 19.0147C24.8985 18.8657 21.0033 18.8083 20.625 18.9473ZM54.4053 18.9468C54.0851 19.0086 53.7891 19.4062 53.7891 19.7745C53.7891 19.9243 53.9185 20.1761 54.0768 20.3343C54.3626 20.6201 54.3789 20.622 56.6602 20.622C58.9414 20.622 58.9577 20.6201 59.2436 20.3343C59.7266 19.8514 59.5791 19.2199 58.9303 18.9937C58.5765 18.8704 54.9942 18.8333 54.4053 18.9468ZM18.75 29.4158C16.1396 30.1238 11.4199 31.3938 8.26172 32.2378C5.10352 33.0816 2.36133 33.8515 2.16797 33.9485C1.65809 34.2043 1.0691 34.7924 0.80004 35.3147C0.369493 36.1504 0.391876 36.7813 0.924024 38.8075L1.40625 40.6435V48.9513C1.40625 58.4624 1.37274 58.0996 2.34012 59.067C3.3293 60.0562 2.60707 60.006 15.3602 59.9701L26.543 59.9384L27.0267 59.6797C27.6548 59.3437 28.3986 58.4927 28.5731 57.9103C28.6733 57.5757 28.7109 55.0839 28.7109 48.7694V40.0884L28.4504 39.906C28.2199 39.7444 27.0833 39.7236 18.5286 39.7236C13.2149 39.7236 8.88914 39.7021 8.91598 39.6758C8.94293 39.6495 13.1309 38.5131 18.2227 37.1506C27.9145 34.5569 27.8906 34.5649 27.8906 33.9352C27.8906 33.6731 27.0676 30.5379 26.8507 29.9738C26.6694 29.5021 25.9192 28.7233 25.3826 28.4495C24.3864 27.9413 23.9514 28.0047 18.75 29.4158ZM23.7305 29.8505C22.5435 30.128 20.2621 30.7914 20.2637 30.8586C20.2668 30.9856 23.6745 33.8642 23.8218 33.8642C24.0247 33.8642 25.8314 33.3718 25.9221 33.2917C26.0128 33.2118 25.416 30.8781 25.2033 30.4805C24.9633 30.0323 24.253 29.7284 23.7305 29.8505ZM34.4766 30.8408C34.2819 31.0354 34.3008 31.3513 34.52 31.5707C34.6818 31.7323 35.3132 31.7548 39.684 31.7548C42.8926 31.7548 44.7444 31.7117 44.8905 31.6335C45.1439 31.4979 45.1918 31.056 44.9766 30.8408C44.7743 30.6385 34.6788 30.6385 34.4766 30.8408ZM15.49 32.0438C14.2447 32.388 13.209 32.6879 13.1883 32.7103C13.1382 32.7643 16.3852 35.5341 16.6538 35.6665C16.7977 35.7374 17.5868 35.5764 19.1834 35.1506C20.4596 34.81 21.5464 34.4943 21.5985 34.449C21.7331 34.3315 18.3141 31.4664 18.0079 31.4399C17.8682 31.428 16.7351 31.6996 15.49 32.0438ZM8.45871 33.9213C7.21348 34.264 6.17836 34.5629 6.15844 34.5853C6.10078 34.6499 9.58641 37.5517 9.76863 37.5908C9.95918 37.6317 14.4246 36.4522 14.57 36.3226C14.7143 36.1941 11.2413 33.2763 10.9584 33.2882C10.8287 33.2936 9.70383 33.5785 8.45871 33.9213ZM34.4334 33.6849C34.3323 33.9066 34.3365 34.0167 34.4512 34.1549C34.5827 34.3133 35.2402 34.3317 39.8298 34.3048L45.0586 34.2743L45.0969 34.0042C45.1843 33.3869 45.2596 33.3954 39.7097 33.3954H34.5653L34.4334 33.6849ZM3.22266 35.3294C2.57133 35.5598 2.22656 35.9904 2.22656 36.5737C2.22656 36.9378 2.75707 39.2887 2.8793 39.4666C2.90906 39.5098 7.38246 38.3166 7.57746 38.2135C7.77457 38.1093 4.25531 35.152 3.94195 35.1584C3.80414 35.1612 3.48047 35.2382 3.22266 35.3294ZM37.4769 36.3544C37.7237 36.6016 37.8548 36.6204 39.5677 36.6558C41.4056 36.6938 41.895 36.619 42.1979 36.2539C42.313 36.1154 41.9477 36.0908 39.7734 36.0908H37.2136L37.4769 36.3544ZM33.468 40.2661C33.056 40.394 32.7052 40.6327 32.2289 41.1094C31.1249 42.2146 31.1719 41.8177 31.1719 50.0361C31.1719 58.2548 31.1248 57.8575 32.2294 58.9632C33.3115 60.0465 32.9756 60.0094 41.3798 59.9712L48.5742 59.9384L49.069 59.674C49.845 59.2593 50.3537 58.7479 50.7082 58.0261L51.0352 57.3603V50.0361V42.7119L50.7082 42.046C50.3537 41.3242 49.845 40.8128 49.069 40.3981L48.5742 40.1337L41.3086 40.1109C35.0906 40.0913 33.9601 40.1137 33.468 40.2661ZM3.16406 43.3564V45.3486H4.31871H5.47348L6.00516 44.5576C6.29766 44.1226 6.9109 43.226 7.36816 42.5654L8.19938 41.3642H5.68172H3.16406V43.3564ZM9.89074 41.8622C9.69844 42.1361 9.07828 43.0327 8.51262 43.8544L7.48418 45.3486L10.0996 45.3461L12.7148 45.3438L14.0039 43.4626C14.7129 42.4278 15.3105 41.5325 15.332 41.4727C15.3552 41.4083 14.3299 41.3642 12.8058 41.3642H10.2404L9.89074 41.8622ZM16.1399 43.3271L14.7911 45.29L17.2657 45.3217C18.6267 45.3391 19.8018 45.3298 19.8769 45.301C20.0032 45.2525 22.6172 41.5525 22.6172 41.4222C22.6172 41.3903 21.4632 41.3642 20.0529 41.3642H17.4887L16.1399 43.3271ZM23.4742 43.204C22.7773 44.2161 22.1648 45.1126 22.1133 45.1962C22.0376 45.3194 22.5033 45.3486 24.5449 45.3486H27.0703V43.3564V41.3642H25.9058H24.7412L23.4742 43.204ZM33.8741 41.9765C33.5878 42.1231 33.245 42.3919 33.1124 42.5739C32.8751 42.8994 32.8711 43.0225 32.8711 50.0361C32.8711 57.0496 32.8751 57.1728 33.1124 57.4982C33.245 57.6802 33.5878 57.949 33.8741 58.0956L34.3945 58.3622L41.25 58.33C48.0641 58.298 48.1079 58.2963 48.5156 58.0422C49.3771 57.5054 49.3359 57.9073 49.3359 50.0318C49.3359 43.0701 49.3325 42.9685 49.0902 42.5764C48.5771 41.7461 48.8763 41.778 41.25 41.7421L34.3945 41.7099L33.8741 41.9765ZM40.8346 43.7613L40.5469 44.0488V47.4619V50.875L40.166 50.7778C37.2229 50.0267 35.1184 53.3463 37.1277 55.5704C38.8625 57.4907 41.9787 56.4276 42.2345 53.8281C42.2653 53.515 42.2938 51.5883 42.2977 49.5467L42.3047 45.8348L43.6529 46.6018C44.9109 47.3174 45.0239 47.3593 45.3421 47.2276C45.5296 47.1499 45.7426 46.9423 45.8155 46.7663C46.0777 46.1335 45.8743 45.9367 43.6399 44.6614C42.4953 44.0081 41.4606 43.4736 41.3406 43.4736C41.2205 43.4736 40.9928 43.6031 40.8346 43.7613ZM3.16406 52.1399C3.16406 57.6196 3.17238 57.7062 3.73875 58.0911C4.02305 58.2842 4.75078 58.3001 14.8242 58.3331C22.0031 58.3565 25.7448 58.3278 26.0227 58.247C26.2521 58.1805 26.5685 57.989 26.7258 57.8217L27.0117 57.5174L27.0445 52.2533L27.0772 46.9892H15.1207H3.16406V52.1399ZM12.0907 48.7838C11.8402 49.0506 11.8359 49.1163 11.8359 52.8008C11.8359 56.0013 11.8625 56.5843 12.0184 56.8068C12.383 57.3274 12.7685 57.1847 15.9491 55.3531C17.5863 54.4103 19.0444 53.531 19.1895 53.3991C19.5111 53.1065 19.5421 52.4935 19.248 52.2378C18.7889 51.8384 12.8689 48.5126 12.6172 48.5126C12.4678 48.5126 12.2309 48.6347 12.0907 48.7838ZM13.4766 52.8405V54.8246L15.0879 53.8874C15.9742 53.372 16.7413 52.909 16.7927 52.8587C16.8662 52.7866 13.7161 50.8564 13.5248 50.8564C13.4982 50.8564 13.4766 51.7492 13.4766 52.8405ZM38.5684 52.571C38.1415 52.8699 37.9296 53.4881 38.0886 53.9701C38.5352 55.3233 40.5469 55.0197 40.5469 53.5989C40.5469 53.2137 40.2506 52.652 39.9674 52.5005C39.6265 52.3181 38.8754 52.3558 38.5684 52.571Z" fill="#EC2526"/>
</g>
<defs>
<clipPath id="clip0_456_8500">
<rect width="60" height="60" fill="white"/>
</clipPath>
</defs>
</svg>
