<svg width="296" height="250" viewBox="0 0 296 300" fill="none" xmlns="http://www.w3.org/2000/svg">
<path fill-rule="evenodd" clip-rule="evenodd" d="M117.982 11.4713V22.943L116.503 23.3304C108.366 25.4621 102.376 27.5635 94.6862 30.9835L88.9657 33.528L87.5924 31.99C86.8368 31.1443 83.5667 27.3202 80.3252 23.4919C77.0833 19.6636 74.2942 16.5313 74.1265 16.5313C73.9591 16.5313 71.8163 18.2635 69.3647 20.3805C66.9136 22.4976 62.7153 26.0847 60.0355 28.3517C57.3557 30.6188 54.3801 33.142 53.423 33.9588C40.8024 44.7289 35.4157 49.3305 32.322 51.9849L28.6222 55.1593L29.3638 56.076C29.7713 56.5803 32.9241 60.3143 36.3696 64.3737C39.8151 68.4331 42.7831 71.9649 42.9651 72.222C43.2007 72.5548 42.8763 73.2727 41.8396 74.7146C38.4042 79.492 34.8487 85.5693 31.5494 92.3022C28.5693 98.384 27.8976 99.5133 27.2541 99.5238C26.549 99.5349 11.9979 97.2195 7.68619 96.4096C6.64942 96.2151 5.75395 96.103 5.69618 96.1608C5.6384 96.2186 4.56856 102.444 3.31879 109.995C2.06902 117.546 0.810905 125.055 0.522738 126.682C0.234919 128.309 -0.000347642 129.837 3.8563e-07 130.077C0.000696441 130.426 5.38538 130.497 26.3509 130.426L52.7008 130.336L53.0078 128.944C53.7432 125.609 56.0753 117.867 57.2572 114.838C66.2085 91.902 83.0694 73.421 105.022 62.4849C124.869 52.5978 147.837 49.8606 169.47 54.805C204.94 62.9116 233.151 90.5043 242.068 125.812L243.21 130.336L269.517 130.426C287.648 130.487 295.824 130.402 295.824 130.151C295.824 129.569 290.247 96.2788 290.13 96.1615C290.072 96.1034 289.176 96.2151 288.139 96.4096C283.865 97.2122 269.274 99.536 268.508 99.536C267.954 99.536 267.602 99.2777 267.441 98.7529C266.973 97.223 262.435 88.1662 260.248 84.3968C257.964 80.4592 255.255 76.2581 253.119 73.3399C252.45 72.427 251.982 71.4874 252.078 71.2517C252.173 71.0165 253.716 69.0818 255.505 66.9529C265.122 55.5125 266.353 53.905 265.854 53.4411C264.384 52.074 220.811 15.9157 220.482 15.7893C220.265 15.7061 216.85 19.5428 212.893 24.3153L205.698 32.993L201.254 30.9727C194.674 27.9811 187.263 25.3984 179.322 23.3287L177.843 22.943V11.4713V0H147.913H117.982V11.4713ZM141.737 80.7519C115.492 83.2921 93.0515 100.198 83.5448 124.592C82.7763 126.564 82.0483 128.707 81.9268 129.354L81.7062 130.529L87.0042 130.433L92.3019 130.336L93.087 128.248C96.276 119.769 103.047 110.307 109.978 104.648C121.402 95.3196 133.71 90.8394 147.913 90.8394C167.948 90.8394 185.676 100.353 197.05 117.208C198.889 119.933 202.502 126.948 203.23 129.205L203.651 130.51H209.019C211.971 130.51 214.384 130.471 214.381 130.423C214.359 129.985 212.804 125.559 211.837 123.18C206.257 109.451 195.082 96.8179 182.019 89.4707C176.863 86.5709 172.066 84.6167 165.314 82.6657C159.599 81.0146 148.409 80.1063 141.737 80.7519ZM0.000696059 169.97C0.000696059 170.791 5.52355 204.015 5.68747 204.179C5.77204 204.263 10.6427 203.531 16.5111 202.55C22.3792 201.57 27.4291 200.817 27.7326 200.877C28.0465 200.939 28.9775 202.486 29.8925 204.466C33.3724 211.998 37.0886 218.456 41.8072 225.169L44.1272 228.47L42.6846 230.261C41.8911 231.246 39.1246 234.615 36.537 237.749C30.4674 245.098 29.8274 245.954 30.0881 246.376C30.4563 246.972 75.1998 284.161 75.6352 284.233C75.9908 284.291 80.0656 279.491 87.971 269.699L90.1525 266.997L94.2731 268.846C101.216 271.963 109.157 274.758 116.503 276.672L117.982 277.057V288.529V300H147.913H177.843V288.529V277.057L179.148 276.717C179.866 276.529 181.429 276.128 182.621 275.826C186.74 274.779 195.09 271.728 200.465 269.305C203.432 267.968 206.172 266.8 206.555 266.71C207.066 266.591 207.576 266.959 208.469 268.095C209.139 268.947 212.272 272.666 215.43 276.359C218.588 280.052 221.275 283.227 221.401 283.413C221.637 283.764 222.441 283.128 230.394 276.305C232.979 274.088 240.027 268.076 246.056 262.947C269.032 243.401 267.317 244.969 266.653 244.103C266.331 243.684 263.327 240.08 259.978 236.095C256.628 232.11 253.61 228.503 253.271 228.079C252.667 227.323 252.693 227.254 254.679 224.414C258.867 218.425 263.388 210.416 266.243 203.928L267.706 200.606L278.857 202.456C284.991 203.474 290.073 204.244 290.151 204.166C290.306 204.01 295.824 170.75 295.824 169.97C295.824 169.559 291.795 169.499 269.496 169.574L243.168 169.664L242.518 172.448C238.241 190.751 229.062 206.846 215.207 220.336C189.617 245.25 152.434 253.886 118.101 242.888C87.7128 233.154 63.3066 207.874 54.6428 177.157C53.9123 174.567 53.1766 171.821 53.0078 171.056L52.7008 169.664L26.3509 169.574C4.03399 169.499 0.000696059 169.559 0.000696059 169.97ZM81.9286 170.656C82.231 172.267 84.6004 178.27 86.1439 181.335C90.4082 189.803 97.0128 197.961 104.757 204.328C121.733 218.283 146.254 223.084 167.611 216.634C185.998 211.081 201.108 198.442 209.723 181.41C211.144 178.6 214.386 170.418 214.386 169.641C214.386 169.558 211.971 169.49 209.019 169.49H203.651L203.23 170.795C202.502 173.052 198.889 180.067 197.05 182.792C191.6 190.869 185.689 196.407 177.103 201.484C164.355 209.021 147.528 211.204 132.669 207.249C117.694 203.263 104.166 192.758 96.7337 179.342C95.1776 176.533 93.1472 172.146 92.4557 170.099C92.2719 169.554 91.6887 169.49 86.9798 169.49H81.7096L81.9286 170.656Z" fill="#112749" fill-opacity="0.1"/>
</svg>
