<svg width="219" height="282" viewBox="0 0 319 282" fill="none" xmlns="http://www.w3.org/2000/svg">
<path fill-rule="evenodd" clip-rule="evenodd" d="M179.279 -27.9444L188.838 -11.3864L191.296 -12.0599C204.817 -15.7639 215.214 -17.7224 229.164 -19.1943L239.541 -20.2888L240.241 -23.6531C240.627 -25.5034 242.16 -33.7481 243.649 -41.9751C245.138 -50.2023 246.553 -57.0476 246.796 -57.1874C247.037 -57.3269 251.573 -56.6124 256.876 -55.5996C262.178 -54.5866 271.227 -52.9075 276.984 -51.8685C282.742 -50.8295 289.139 -49.6673 291.201 -49.2858C318.393 -44.2577 330.002 -42.1048 336.68 -40.8515L344.665 -39.3529L344.359 -37.4118C344.191 -36.3443 342.752 -28.3274 341.161 -19.5969C339.571 -10.8665 338.23 -3.29546 338.182 -2.77255C338.119 -2.09597 339.186 -1.32995 341.884 -0.112755C350.823 3.91998 361.02 9.72887 371.393 16.6976C380.762 22.9925 382.673 24.0628 383.61 23.5416C384.637 22.9701 403.71 7.5022 409.259 2.74016C410.593 1.59539 411.792 0.687404 411.924 0.722644C412.056 0.757896 418.788 8.85212 426.884 18.7093C434.98 28.5665 443.054 38.3569 444.826 40.4652C446.597 42.5738 448.21 44.583 448.41 44.9304C448.699 45.4333 440.986 50.023 410.665 67.3918L372.558 89.2215L370.955 87.4679C367.114 83.2664 357.296 74.0349 353.067 70.649C321.033 45.0025 281.296 32.3782 240.496 34.8872C203.61 37.1555 168.177 52.345 141.074 77.5086C96.6326 118.768 78.9077 182.104 95.4606 240.497L97.5817 247.979L59.6849 270.03C33.5671 285.228 21.6942 291.919 21.4851 291.557C21.0002 290.717 1.30875 238.018 1.37979 237.752C1.41575 237.619 2.80187 237.034 4.46045 236.451C11.2984 234.047 34.2953 225.242 35.4009 224.604C36.2006 224.142 36.4928 223.476 36.2875 222.585C35.6887 219.986 34.6909 203.133 34.7063 195.869C34.7223 188.282 35.1316 179.961 35.7826 173.969C35.9869 172.094 35.8799 170.348 35.5454 170.087C35.2112 169.828 31.3727 168.32 27.0156 166.739C3.60142 158.24 0.485051 156.946 0.8188 155.86C1.80194 152.662 34.5613 64.1612 34.9313 63.7045C35.1749 63.4038 43.3015 66.0955 52.9902 69.6865L70.6064 76.216L75.3366 69.597C82.3422 59.7949 90.8862 49.8916 100.623 40.2867L102.437 38.4975L92.877 21.9396L83.3176 5.38211L126.518 -19.5599L169.719 -44.5019L179.279 -27.9444ZM202.726 91.8489C242.723 73.6448 289.202 79.3458 323.252 106.633C326.005 108.84 328.841 111.326 329.555 112.158L330.853 113.67L323.126 117.947L315.399 122.222L312.526 119.863C300.856 110.281 283.199 102.267 268.48 99.8747C244.216 95.9302 222.718 99.72 202.218 111.556C173.299 128.252 155.639 156.756 153.268 190.563C152.885 196.028 153.515 209.165 154.345 213.03L154.826 215.264L147.078 219.737C142.817 222.197 139.302 224.152 139.265 224.081C138.932 223.429 137.488 215.746 136.901 211.506C133.515 187.039 139.117 159.492 151.848 138.002C156.874 129.52 162.17 122.702 170.29 114.259C177.163 107.113 192.557 96.4772 202.726 91.8489ZM481.652 102.51C482.336 103.696 502.051 156.252 501.951 156.626C501.9 156.819 494.259 159.82 484.972 163.295C475.685 166.77 467.768 169.891 467.38 170.231C466.979 170.582 466.925 173.591 467.254 177.212C468.508 190.983 468.525 203.4 467.309 217.022L466.711 223.72L470.286 225.103C472.252 225.863 479.053 228.422 485.399 230.788C500.284 236.337 501.921 237.04 501.897 237.867C501.862 239.033 468.271 329.997 467.702 330.463C467.238 330.845 457.356 327.311 437.785 319.765L432.385 317.683L427.979 323.787C420.554 334.071 411.422 344.723 402.414 353.607L400.6 355.395L410.16 371.953L419.719 388.511L376.518 413.453L333.318 438.395L323.758 421.837L314.198 405.279L312.031 405.876C310.839 406.204 308.249 406.927 306.276 407.484C299.458 409.406 284.864 411.96 275.087 412.942C269.69 413.484 264.761 414.083 264.134 414.272C263.297 414.525 262.868 415.482 262.525 417.866C262.267 419.654 260.845 427.631 259.365 435.595C257.884 443.557 256.651 450.379 256.625 450.752C256.576 451.455 254.887 451.207 237.72 447.987C232.142 446.94 216.96 444.137 203.982 441.758C154.531 432.692 158.313 433.527 158.551 431.723C158.665 430.849 159.998 423.144 161.512 414.601C163.026 406.058 164.377 398.337 164.512 397.443C164.755 395.848 164.659 395.77 159.426 393.326C148.391 388.171 135.191 380.379 125.663 373.394L120.784 369.817L106.23 381.782C98.2253 388.362 91.5311 393.707 91.3539 393.66C91.0002 393.565 55.3181 350.157 54.6673 349.03C54.3253 348.438 60.0917 344.992 92.3392 326.52L130.415 304.708L133.674 308.185C155.099 331.039 181.762 346.621 213.001 354.546C270.699 369.182 331.564 350.661 371.954 306.176C407.704 266.802 421.864 209.975 408.772 158.419C407.668 154.072 406.442 149.496 406.048 148.25L405.331 145.985L443.289 123.898C475.438 105.192 481.31 101.918 481.652 102.51ZM363.971 171.774C364.877 174.351 366.46 184.99 366.786 190.701C367.687 206.476 364.953 223.756 359.081 239.399C346.208 273.688 314.816 301.052 278.615 309.54C247.448 316.847 215.105 311.196 188.477 293.792C184.085 290.921 172.588 281.812 171.94 280.69C171.871 280.57 175.3 278.459 179.561 275.999L187.308 271.526L189.003 273.059C191.935 275.711 202.997 282.825 207.921 285.225C222.518 292.341 235.666 295.41 252.289 295.582C276.969 295.838 303.076 284.967 321.228 266.876C339.522 248.643 350.293 222.206 349.84 196.649C349.745 191.298 349.02 183.273 348.312 179.742C348.124 178.804 348.912 178.224 355.708 174.3L363.315 169.908L363.971 171.774Z"  fill="#0E2243" fill-opacity="0.25"/>
</svg>
