<svg width="54" height="66" viewBox="0 0 54 66" fill="none" xmlns="http://www.w3.org/2000/svg">
<path fill-rule="evenodd" clip-rule="evenodd" d="M32.2374 4.3175L28.0992 8.4475L25.7381 6.11631C23.7516 4.1548 23.27 3.74902 22.7032 3.55844C21.8534 3.27283 21.2142 3.27201 20.3593 3.55529C19.7565 3.75518 19.0919 4.36986 14.0481 9.394L8.41076 15.0095L6.99272 13.6141C5.03736 11.6899 5.20799 11.6676 2.70344 14.1722C0.945645 15.93 0.75 16.1728 0.75 16.5969C0.75 17.0389 1.41363 17.7319 11.4413 27.7627L22.1325 38.4571L21.285 39.3398L20.4375 40.2224V43.4877V46.7531L19.9007 47.2773L19.364 47.8013L18.9936 47.5101C18.1108 46.8156 18.546 46.4493 9.43424 55.5574L1.09234 63.896L1.87875 64.6824L2.66516 65.4688L10.4577 57.6771L18.2503 49.8854L23.4785 55.1137L28.7068 60.342L26.9323 62.1204L25.1577 63.899L25.9445 64.6848L26.7312 65.4707L29.0531 63.1384C31.8573 60.3217 31.8337 60.3876 30.5271 59.0269L29.6791 58.1439L32.7136 55.1095L35.7479 52.075L40.9826 57.3031C45.8357 62.1502 46.2514 62.5312 46.6864 62.5312C47.1078 62.5312 47.3546 62.3323 49.1091 60.5778C50.8636 58.8233 51.0625 58.5765 51.0625 58.1552C51.0625 57.7203 50.6819 57.3049 45.8405 52.4575L40.6186 47.2291L41.4655 46.347C42.8456 44.9098 43.1093 45.3539 37.6109 39.8556C33.0471 35.2918 32.8959 35.1559 32.4497 35.2183C32.1971 35.2537 31.891 35.326 31.7697 35.3792C31.5946 35.4559 31.5318 35.3684 31.4658 34.9558C31.3483 34.2219 30.7413 33.064 30.146 32.4382C29.3808 31.6338 28.9794 31.6894 27.8712 32.7536L26.9887 33.6012L26.1407 32.7532L25.2927 31.9052L28.8766 28.3212L32.4607 24.7373L34.823 27.0713C36.9027 29.1259 37.2733 29.4341 37.9182 29.6463C38.8068 29.9386 39.7096 29.8783 40.5491 29.4709C40.971 29.2659 42.9551 27.372 47.2002 23.1219C52.8456 17.47 53.25 17.0334 53.25 16.5914C53.25 16.1476 52.7482 15.6161 45.2848 8.15273C37.8318 0.699649 37.2893 0.1875 36.8476 0.1875C36.4112 0.1875 36.0639 0.498535 32.2374 4.3175ZM33.2223 6.47492L29.6712 10.0281L34.7429 15.1224C39.2604 19.6602 39.839 20.2903 40.0382 20.8905C40.5386 22.399 40.2269 23.4271 38.8091 24.943C38.0046 25.8033 37.8008 26.1069 37.8008 26.4449C37.8008 27.0363 38.4466 27.668 39.0515 27.668C39.4634 27.668 39.9857 27.1855 45.0433 22.1318L50.584 16.5957L43.7486 9.75877C39.9891 5.99846 36.8818 2.92188 36.8433 2.92188C36.8049 2.92188 35.1754 4.5208 33.2223 6.47492ZM13.8777 12.6966L6.69727 19.8738L13.5666 26.7435L20.4359 33.6133L27.6486 26.4192C31.6156 22.4624 34.9844 19.1583 35.1348 19.0768C35.3822 18.9427 34.7721 18.2922 28.7061 12.2241C22.444 5.95977 21.9729 5.51953 21.5311 5.51953C21.0888 5.51953 20.592 5.98547 13.8777 12.6966ZM4.23482 15.7749L3.42162 16.5966L4.27338 17.4484L5.125 18.3L5.97662 17.4484L6.82838 16.5966L6.01518 15.7749C5.56783 15.3229 5.16725 14.9531 5.125 14.9531C5.08275 14.9531 4.68217 15.3229 4.23482 15.7749ZM35.2183 21.9906L34.041 23.1491L34.9702 24.0755C35.8398 24.9426 35.9093 24.9845 36.0556 24.7285C36.1414 24.5781 36.6307 24.0122 37.143 23.471C38.2373 22.3146 38.3371 21.8942 37.6746 21.2317C36.9709 20.528 36.5826 20.6479 35.2183 21.9906ZM22.8286 34.3687L22.0154 35.1904L22.8671 36.0421L23.7188 36.8938L24.5704 36.0421L25.4221 35.1904L24.6089 34.3687C24.1616 33.9167 23.761 33.5469 23.7188 33.5469C23.6765 33.5469 23.2759 33.9167 22.8286 34.3687ZM25.8026 37.9571L22.625 41.137V44.3947V47.6526L21.7771 48.5356L20.9291 49.4187L24.5114 53.001L28.0938 56.5833L31.1346 53.5423L34.1757 50.5012L32.0576 48.3788L29.9395 46.2565L29.8537 46.9085C29.7352 47.8111 29.4827 48.6897 29.1561 49.3371C28.833 49.9773 27.9748 51.1836 27.8425 51.1836C27.7398 51.1836 26.3164 49.8636 26.3164 49.7683C26.3164 49.7346 26.5319 49.387 26.7952 48.9957C28.0991 47.0581 27.9436 44.5572 26.4057 42.7282C25.5891 41.757 25.652 41.5776 27.4681 39.7041C28.8055 38.3245 29.0609 37.9887 29.2455 37.3673C29.364 36.9683 29.4609 36.4601 29.4609 36.2382C29.4609 35.7814 29.1868 34.7773 29.0623 34.7773C29.0172 34.7773 27.5503 36.2082 25.8026 37.9571ZM30.4855 39.8368L28.5745 41.7515L32.1621 45.3391L35.7497 48.9268L37.6973 46.9792L39.6448 45.0317L36.0919 41.4767C34.138 39.5216 32.507 37.9219 32.4679 37.9219C32.4287 37.9219 31.5367 38.7835 30.4855 39.8368ZM38.1405 49.6817L37.3268 50.5041L42.0067 55.1838L46.6864 59.8636L47.5404 59.0096L48.3943 58.1557L43.7478 53.5075C41.1921 50.951 39.068 48.8594 39.0277 48.8594C38.9874 48.8594 38.5881 49.2295 38.1405 49.6817Z" fill="white"/>
</svg>
