<svg width="60" height="50" viewBox="0 0 60 50" fill="none" xmlns="http://www.w3.org/2000/svg">
<path fill-rule="evenodd" clip-rule="evenodd" d="M24.9024 2.32278C22.1954 3.37817 19.8883 4.29891 19.7755 4.36899C19.5865 4.4863 19.5704 4.81384 19.5708 8.50899C19.5714 13.0287 19.6658 13.9518 20.3301 15.9379C20.5489 16.5922 20.939 17.5473 21.1971 18.0602L21.666 18.9931L20.4717 19.0739C19.2458 19.157 16.7985 19.4509 16.3054 19.5743C16.0665 19.6341 16.0394 19.6102 16.1064 19.3989C16.2932 18.8105 15.6989 17.6864 15.0154 17.3354C14.6055 17.1251 7.92639 15.2749 7.58842 15.2782C7.16936 15.2823 6.40342 15.6797 6.08479 16.0583C5.85674 16.3294 5.23096 18.3553 3.23409 25.2864C0.413734 35.0765 0.455335 34.8725 1.10737 35.7273C1.28455 35.9598 1.5958 36.2258 1.79877 36.3186C2.28862 36.5425 8.88276 38.3623 9.19213 38.359C9.95256 38.3509 10.8964 37.5566 11.1495 36.7118L11.2894 36.2445L11.6799 36.6229C12.0415 36.9734 12.0704 37.0561 12.0704 37.7447C12.0704 38.869 12.5955 39.7058 13.5489 40.1007C13.8782 40.2372 13.8868 40.2627 13.8868 41.1075C13.8868 41.8813 13.9245 42.0279 14.2385 42.4745C14.4318 42.7497 14.8082 43.0839 15.0749 43.217L15.5597 43.4592L15.5053 44.2209C15.4597 44.8575 15.4956 45.069 15.7235 45.5084C16.2871 46.5948 17.4973 47.1281 18.6132 46.7815L19.148 46.6154L19.3975 47.0882C19.9455 48.1262 21.2869 48.5938 22.4467 48.1509L22.9733 47.9499L23.6787 48.6029C24.5135 49.3758 25.3322 49.6786 26.3131 49.5774C27.5777 49.4468 28.8493 48.4391 29.2422 47.2561L29.4345 46.6771L30.0676 47.2555C30.8753 47.9938 31.616 48.2555 32.6818 48.179C33.5825 48.1143 34.2066 47.831 34.8321 47.2031C35.3033 46.73 35.7423 45.9333 35.7423 45.5511C35.7423 45.1952 35.8235 45.1705 36.4116 45.3476C37.6651 45.7248 38.7685 45.4337 39.7231 44.4742C40.7017 43.4904 40.9911 42.329 40.5962 40.969C40.5397 40.7746 40.5681 40.7053 40.7047 40.7053C40.8064 40.7053 41.1778 40.5975 41.5298 40.4658C42.2531 40.1952 43.0025 39.5299 43.3489 38.8511C43.5803 38.3974 43.5918 38.3917 44.6721 38.1945C45.9312 37.9644 47.2014 37.5593 48.1695 37.0791L48.8478 36.7425L48.9833 37.0696C49.2391 37.6872 50.2047 38.3616 50.8332 38.3616C51.2781 38.3616 58.1835 36.3715 58.4633 36.1625C58.9813 35.7758 59.2161 35.3507 59.2687 34.7043C59.3125 34.1648 59.0122 33.0178 56.9582 25.8811C55.6598 21.3694 54.4912 17.3508 54.3612 16.9508C53.9587 15.7116 52.975 15.1013 51.8347 15.3833C50.47 15.7208 45.271 17.1881 45.0587 17.2957C44.3603 17.6491 43.9448 18.3069 43.9102 19.1136L43.8868 19.6594L42.0483 20.449L40.21 21.2385L39.2534 20.6636C38.7273 20.3474 38.1966 20.0569 38.0742 20.018C37.7646 19.9197 37.7873 19.8193 38.3251 18.9142C39.2885 17.2927 39.9489 15.4079 40.2574 13.4006C40.4399 12.212 40.5092 4.7945 40.3401 4.54126C40.2928 4.47036 40.1374 4.35094 39.9949 4.27583C39.5511 4.04227 30.1073 0.392468 29.9619 0.398445C29.8862 0.401609 27.6094 1.26751 24.9024 2.32278ZM26.7774 3.03809C25.0372 3.71532 22.9885 4.51102 22.2248 4.80634L20.8362 5.34341L20.8925 9.22559C20.9412 12.597 20.98 13.2387 21.187 14.1038C21.5225 15.5058 22.0697 16.9553 22.6489 17.9762C23.1396 18.8409 23.1499 18.8502 23.6683 18.8871C24.0282 18.9128 24.3672 18.8425 24.7515 18.6625L25.3108 18.4004L25.0694 18.0393C24.576 17.3006 23.6678 15.3007 23.362 14.2795C23.0601 13.2714 23.044 13.0846 22.9965 10.0413L22.9469 6.85794L23.2215 6.68555C23.3725 6.59087 24.9598 5.94551 26.7487 5.25165L30.0012 3.99001L33.2526 5.24837C35.0409 5.94048 36.6226 6.58255 36.7676 6.67512C37.0287 6.84188 37.0313 6.87012 37.0313 9.58184C37.0313 12.5109 36.919 13.4769 36.4021 14.9956C36.076 15.9536 35.5175 17.0895 34.951 17.9466C34.7255 18.2876 34.5609 18.5818 34.585 18.6005C34.6092 18.6191 35.0448 18.7793 35.5529 18.9566C36.3215 19.2247 36.5028 19.2526 36.6319 19.1229C36.956 18.7976 37.858 17.0721 38.209 16.106C38.9811 13.9819 39.046 13.4854 39.1076 9.22852L39.1639 5.34938L38.7128 5.16938C37.2827 4.59868 30.0296 1.79977 29.9894 1.80305C29.963 1.80516 28.5176 2.36098 26.7774 3.03809ZM29.3555 5.67903C29.0333 5.80677 27.7489 6.31067 26.5012 6.79876L24.2329 7.6861L24.2909 10.2797C24.3392 12.4418 24.3909 13.0293 24.6015 13.8108C24.8878 14.8736 25.8425 16.8948 26.3383 17.4879L26.6692 17.8838L27.2858 17.7516C28.2603 17.5426 30.191 17.5907 31.579 17.8586C32.2606 17.99 32.8842 18.1229 32.9646 18.1538C33.2554 18.2654 34.5417 16.2492 35.0248 14.9241C35.6108 13.3174 35.6717 12.876 35.6778 10.2013L35.6837 7.64637L33.0469 6.61466C31.5967 6.04723 30.3047 5.55235 30.1758 5.51485C30.0469 5.47735 29.6778 5.5513 29.3555 5.67903ZM30.7698 11.6412L28.6424 13.7489L27.8856 12.9843C27.2479 12.3397 27.0741 12.2248 26.7801 12.2534C26.3091 12.2992 26.0828 12.7307 26.3057 13.1582C26.5013 13.5332 28.3983 15.3928 28.5853 15.3928C28.9428 15.3928 29.5212 14.894 31.6114 12.7831C33.1314 11.2479 33.8673 10.4228 33.8673 10.2534C33.8673 9.93048 33.4706 9.53345 33.1478 9.53345C32.9799 9.53345 32.1952 10.229 30.7698 11.6412ZM7.10373 16.9456C6.82237 17.389 1.97373 34.4046 2.04639 34.694C2.0826 34.8383 2.21491 35.0113 2.34041 35.0786C2.69971 35.2707 8.81291 36.9552 9.15182 36.9552C9.31905 36.9553 9.53678 36.863 9.63557 36.7502C9.82389 36.5353 14.769 19.4995 14.7669 19.0731C14.7663 18.9381 14.6735 18.7457 14.5606 18.6455C14.319 18.4308 8.14143 16.6819 7.62498 16.6819C7.38569 16.6819 7.21694 16.7673 7.10373 16.9456ZM48.7501 17.5826C47.0421 18.0658 45.5522 18.5435 45.4395 18.6443C45.3268 18.7451 45.2348 18.9381 45.2351 19.0731C45.2355 19.2081 45.9418 21.7707 46.8045 24.7678C47.6674 27.7649 48.7815 31.6409 49.2805 33.3811C49.7793 35.1213 50.2678 36.6375 50.3658 36.7502C50.4639 36.863 50.676 36.9553 50.8372 36.9553C51.1652 36.9553 57.3182 35.2613 57.6658 35.0753C57.7879 35.0099 57.9175 34.8383 57.9537 34.694C58.0264 34.4046 53.1778 17.389 52.8964 16.9456C52.6396 16.5411 52.1859 16.6109 48.7501 17.5826ZM27.2158 19.1442C26.748 19.2668 26.1415 19.4665 25.8681 19.588C23.8894 20.4674 21.5914 22.7902 20.2975 25.2184C19.8912 25.9809 19.8047 26.2559 19.8047 26.7847C19.8047 28.1131 20.7667 29.1176 22.0488 29.1278C23.095 29.1362 23.3549 28.9505 25.4221 26.7169C27.0919 24.9125 27.4322 24.6026 28.1087 24.2699C28.8089 23.9255 28.9847 23.8889 29.9397 23.8889C31.75 23.8889 31.6195 23.79 37.4254 29.5606C40.1881 32.3064 42.6514 34.8056 42.8995 35.1145C43.1476 35.4233 43.4412 35.9639 43.5522 36.3157C43.7156 36.8343 43.8024 36.9553 44.0103 36.9553C44.5598 36.9553 46.5615 36.3628 47.5037 35.9214L48.4942 35.4572L46.644 29.0285C45.6263 25.4927 44.6814 22.2234 44.5443 21.7634L44.2948 20.9268L42.2978 21.7927C41.1994 22.2688 40.2105 22.6584 40.1001 22.6584C39.9896 22.6584 39.6348 22.4803 39.3114 22.2626C38.7135 21.8599 37.0251 20.9578 36.3868 20.7C34.6525 19.9996 32.6452 19.405 30.954 19.0906C29.6545 18.849 28.2664 18.869 27.2158 19.1442ZM9.08209 19.3577C7.92862 19.9063 7.44862 21.139 7.95475 22.2531C8.98506 24.5215 12.3685 23.67 12.1632 21.194C12.0356 19.6555 10.447 18.7088 9.08209 19.3577ZM49.0294 19.367C47.5028 20.0603 47.3455 22.2702 48.7562 23.2037C50.0526 24.0616 51.7908 23.3718 52.1294 21.8651C52.5339 20.0645 50.7173 18.6005 49.0294 19.367ZM19.8047 20.4513C18.2914 20.5794 15.8194 20.9691 15.701 21.0983C15.6529 21.1507 14.7366 24.2509 13.6646 27.9875L11.7158 34.7815L12.3028 35.3686L12.8899 35.9556L14.0329 34.8196C15.2675 33.5925 15.7337 33.3225 16.6185 33.3225C17.7328 33.3225 18.8065 34.2268 18.9485 35.2848C19.0075 35.7252 19.0458 35.7687 19.438 35.8404C20.4691 36.0287 21.3181 36.8825 21.5083 37.9221C21.5765 38.2952 21.6342 38.3616 21.8902 38.3616C22.3579 38.3616 23.1522 38.8 23.4924 39.246C23.6617 39.4681 23.8625 39.911 23.9383 40.2302C24.0662 40.7684 24.1066 40.8159 24.4915 40.881C25.6371 41.0745 26.4994 42.0592 26.5085 43.1837C26.516 44.1223 26.2451 44.6082 25.0191 45.8562L23.9084 46.9867L24.4054 47.4652C25.0606 48.0959 25.2985 48.2053 26.0138 48.2053C26.7115 48.2053 27.1563 48.0054 27.5807 47.501C28.2172 46.7446 28.2242 45.8156 27.6003 44.901C27.2602 44.4025 27.2271 44.081 27.4888 43.8191C27.9119 43.3962 28.2161 43.5704 29.8146 45.1513C31.3877 46.7071 31.6979 46.9163 32.4316 46.9163C33.9474 46.9163 34.9778 45.1436 34.2029 43.8694C34.0657 43.6438 32.7474 42.2431 31.2735 40.7565C28.5475 38.0071 28.3764 37.7753 28.7779 37.3738C29.2498 36.902 29.4242 37.0342 32.9251 40.5164C34.7646 42.3462 36.3848 43.9018 36.5255 43.9734C36.8573 44.1423 37.9113 44.1414 38.2402 43.9719C38.6306 43.7709 39.0262 43.3795 39.2242 42.9988C39.4593 42.5468 39.4621 41.6733 39.23 41.2294C39.1279 41.0341 37.5635 39.373 35.7536 37.538C32.3947 34.1323 32.2313 33.9204 32.6451 33.5066C33.1083 33.0435 33.3101 33.1913 36.3794 36.2415C38.8842 38.7309 39.389 39.1799 39.8091 39.2915C40.9187 39.5863 42.0564 38.8827 42.299 37.7516C42.5544 36.5607 42.7041 36.7494 36.8654 30.9083C33.3131 27.3547 31.4285 25.552 31.1133 25.406C30.8279 25.2737 30.3687 25.1868 29.939 25.1834C28.8009 25.1747 28.3792 25.4699 26.2659 27.7547C24.0182 30.1846 23.5979 30.4559 22.0979 30.4439C20.9762 30.4349 20.2525 30.143 19.509 29.3995C18.7533 28.6439 18.4647 27.9295 18.4606 26.8045C18.4573 25.9124 18.4884 25.7917 18.9578 24.8709C19.584 23.6427 20.7174 22.0534 21.6694 21.0688L22.3985 20.3147L21.7169 20.331C21.3419 20.3399 20.4815 20.394 19.8047 20.4513ZM9.36604 20.7744C8.9519 21.1886 8.93397 21.4866 9.29795 21.9097C9.49401 22.1377 9.68327 22.2287 9.961 22.2287C10.398 22.2287 10.8985 21.7617 10.8985 21.3538C10.8985 21.0402 10.2799 20.4319 9.961 20.4319C9.82213 20.4319 9.55448 20.586 9.36604 20.7744ZM49.5724 20.5826C48.956 20.8944 48.963 21.817 49.5841 22.1382C50.5 22.6118 51.3062 21.4539 50.5717 20.7196C50.251 20.3987 50.0029 20.3647 49.5724 20.5826ZM16.1133 34.7229C15.9844 34.7759 15.312 35.4016 14.6192 36.1134C13.4845 37.2791 13.3594 37.45 13.3594 37.835C13.3594 38.1511 13.4486 38.3516 13.702 38.605C14.0821 38.9851 14.482 39.0407 14.9766 38.782C15.474 38.522 17.5521 36.3387 17.6415 35.9821C17.8553 35.1301 16.9456 34.3805 16.1133 34.7229ZM16.9797 38.7884C16.0922 39.6676 15.3043 40.5367 15.2285 40.7197C14.9367 41.4243 15.4813 42.2288 16.2502 42.2288C16.6613 42.2288 16.8059 42.1136 18.4235 40.4959C20.089 38.8303 20.1563 38.7445 20.1563 38.2853C20.1563 37.6243 19.7237 37.1897 19.0658 37.1897C18.6155 37.1897 18.5163 37.2659 16.9797 38.7884ZM21.0352 39.8733C20.4974 40.2125 17.0178 43.7713 16.8989 44.1038C16.758 44.4975 16.9344 45.1045 17.2546 45.3289C17.3969 45.4286 17.724 45.51 17.9815 45.51C18.4322 45.51 18.5278 45.432 20.526 43.4299C21.8402 42.1133 22.6313 41.2308 22.6816 41.0254C22.7896 40.5838 22.5387 40.0282 22.1378 39.8209C21.7013 39.5952 21.4578 39.6067 21.0352 39.8733ZM23.7212 42.2877C23.533 42.3694 22.7065 43.119 21.8848 43.9539C20.2898 45.5741 20.201 45.7406 20.561 46.4368C20.7685 46.8382 21.3239 47.0888 21.7654 46.9802C21.9635 46.9315 22.6947 46.2969 23.6426 45.3507C25.1302 43.8662 25.1954 43.781 25.1954 43.3209C25.1954 42.4848 24.4583 41.9682 23.7212 42.2877Z" fill="#EC2526"/>
</svg>
