<svg width="60" height="60" viewBox="0 0 60 60" fill="none" xmlns="http://www.w3.org/2000/svg">
<path fill-rule="evenodd" clip-rule="evenodd" d="M15.5461 2.87354C11.4672 3.53788 8.00867 5.30202 5.21504 8.14311C2.75914 10.6408 1.0441 13.923 0.328668 17.4948C-0.0478554 19.3742 -0.0469179 22.3528 0.33066 24.2386C0.651168 25.8392 1.3325 27.8214 1.92863 28.8873C3.8525 32.3276 8.72093 36.8522 15.862 41.837L17.6028 43.0521L17.5561 44.2906C17.5125 45.4466 17.4751 45.6076 16.997 46.7012C16.6193 47.565 16.484 48.0271 16.4824 48.459C16.4799 49.1519 16.8316 49.9106 17.3148 50.2546C17.495 50.383 20.5304 52.0025 24.0602 53.8536C30.7891 57.3824 30.9779 57.4626 31.94 57.2035C32.6319 57.0173 33.0925 56.4906 33.8378 55.0335C34.3579 54.0166 34.6966 53.5308 35.3971 52.796C36.6427 51.4897 38.2898 48.9402 40.2971 45.2115L40.9098 44.0734L42.5742 42.9369C50.5596 37.4839 55.7637 32.8087 57.9434 29.1299C58.4967 28.196 59.0861 26.6545 59.0861 26.1415C59.0861 25.6028 58.5332 25.0801 57.9634 25.0801C57.4137 25.0801 57.0085 25.4462 56.7278 26.1964C55.8165 28.6324 53.6703 31.2205 49.8049 34.545C48.1284 35.9869 43.4914 39.5478 43.404 39.4605C43.3793 39.4358 43.6624 38.8243 44.0332 38.1017C44.6942 36.8135 44.7071 36.7694 44.7038 35.8267C44.7009 35.019 44.6511 34.7716 44.392 34.2793C44.2224 33.9571 43.9075 33.5277 43.6923 33.3252C43.2762 32.9337 42.4291 32.4629 42.1407 32.4629C41.8332 32.4629 41.8302 32.2646 42.128 31.6247C42.5657 30.6846 42.5419 29.5762 42.0637 28.6192C41.8666 28.2247 41.5371 27.7598 41.3313 27.5862C40.9148 27.2345 39.8888 26.7237 39.5953 26.7219C39.4413 26.721 39.395 26.549 39.3511 25.8125C39.2328 23.8315 37.8595 22.46 35.9873 22.4533C35.0559 22.4499 34.494 22.6296 33.8151 23.1478L33.3044 23.5376L33.0357 23.2516C32.5271 22.7102 31.5938 22.3503 30.6985 22.3503C30.0235 22.3503 29.7603 22.413 29.1277 22.7244C28.7056 22.9322 28.2124 23.2871 28.018 23.523C27.8254 23.7566 26.5448 26.0994 25.1719 28.7293C23.7992 31.3592 22.6484 33.5126 22.6148 33.5143C22.5812 33.5161 22.2788 32.9651 21.9428 32.2896C21.237 30.8705 20.7041 30.2271 19.8709 29.7889C19.3558 29.518 19.1384 29.4767 18.2228 29.4767C17.3095 29.4767 17.0894 29.5182 16.5799 29.7862C15.8248 30.1835 14.9798 31.0883 14.714 31.7842C14.5579 32.1932 14.518 32.5582 14.5544 33.2457C14.5982 34.0755 14.6866 34.3558 15.489 36.2129C16.3766 38.2673 16.8235 39.4677 16.7342 39.5571C16.708 39.5833 15.661 38.8357 14.4078 37.8956C8.1896 33.2318 4.74851 29.7223 3.53457 26.8064C2.52769 24.3875 2.14578 21.5925 2.4657 18.9833C3.2975 12.1998 8.32003 6.76592 15.0893 5.32581C16.5072 5.02417 19.0272 4.97225 20.5666 5.21284C23.5569 5.6803 26.2034 6.90608 28.6396 8.95206C29.8617 9.97827 30.1407 9.99479 31.1947 9.10358C33.7569 6.93678 36.396 5.69085 39.4338 5.21377C40.9803 4.97096 43.4866 5.02393 44.9416 5.33026C49.7948 6.35202 53.9586 9.5987 56.0682 14.0059C56.3458 14.586 56.6603 15.3299 56.767 15.6589C57.0255 16.4566 57.4146 16.8131 58.0266 16.8131C58.4134 16.8131 58.5634 16.743 58.8403 16.433C59.2696 15.9525 59.2691 15.6384 58.8368 14.5158C56.4997 8.44627 51.6228 4.34284 45.1174 2.97198C43.6973 2.67268 39.9758 2.67186 38.5005 2.97045C35.8838 3.49991 32.9922 4.76049 31.0723 6.20858L29.9764 7.03522L29.4317 6.58065C27.5531 5.01338 24.5908 3.63655 21.8157 3.04065C20.3127 2.71792 17.0377 2.63061 15.5461 2.87354ZM58.2131 19.9332C57.9439 20.09 57.6564 20.656 57.6564 21.0295C57.6564 21.1928 57.8093 21.4974 57.9961 21.7064C58.2771 22.0209 58.4205 22.0865 58.8283 22.0865C59.2361 22.0865 59.3796 22.0209 59.6606 21.7064C59.8474 21.4974 60.0002 21.1928 60.0002 21.0295C60.0002 20.6409 59.705 20.0795 59.4207 19.9274C59.1348 19.7743 58.4805 19.7775 58.2131 19.9332ZM30.3956 24.6921C30.2586 24.719 30.0229 24.8727 29.8718 25.0335C29.7207 25.1944 28.2219 27.9453 26.5412 31.1469C23.1152 37.6728 23.1748 37.5885 22.2205 37.2585C21.7452 37.0942 21.7216 37.0582 20.508 34.6472C19.8159 33.2722 19.1499 32.1005 18.9859 31.969C18.7575 31.786 18.5727 31.747 18.135 31.7891C17.5101 31.8491 17.1556 32.1019 16.9218 32.6542C16.7289 33.1097 16.7659 33.2417 17.6712 35.334C18.5088 37.2698 19.1983 39.2386 19.5798 40.7832C19.8123 41.7251 19.8553 42.2032 19.859 43.8887L19.8635 45.8809L19.417 46.9942C19.1714 47.6065 18.9436 48.1905 18.9106 48.2921C18.8642 48.4352 20.2298 49.201 24.97 51.6906C28.3358 53.4581 31.1212 54.9169 31.1601 54.9322C31.1989 54.9476 31.4416 54.5553 31.6994 54.0606C32.4011 52.7139 32.9269 51.9588 33.8966 50.9053C35.1114 49.5852 36.7623 46.7888 40.7698 39.2621C42.5973 35.8302 42.6635 35.6161 42.0795 35.032C41.7002 34.6527 41.1639 34.5831 40.6816 34.8506C40.5027 34.9499 39.9762 35.8212 39.1798 37.3367C38.5054 38.6199 37.8223 39.7885 37.6618 39.9336C37.065 40.4728 36.0854 40.1768 35.8483 39.3855C35.6968 38.8801 35.6271 39.0337 38.3949 33.7788C40.2682 30.2224 40.3505 29.9551 39.7496 29.3794C39.3576 29.0038 38.641 28.9527 38.2459 29.2721C38.108 29.3836 37.0395 31.2996 35.8712 33.5301C34.7029 35.7607 33.638 37.6843 33.5049 37.8049C33.3528 37.9425 33.0874 38.024 32.7914 38.024C32.4077 38.024 32.2568 37.9533 31.9804 37.6439C31.766 37.4039 31.6408 37.1346 31.6408 36.9129C31.6408 36.6821 32.5637 34.8035 34.3361 31.4259C36.2186 27.8388 37.0314 26.1769 37.0314 25.9152C37.0314 25.4051 36.7408 25.0012 36.2594 24.8423C35.925 24.7319 35.7854 24.7455 35.4205 24.9242C35.0103 25.1252 34.8144 25.4601 32.3138 30.2364C30.8461 33.0401 29.5111 35.4526 29.3473 35.5977C28.9251 35.9716 28.342 35.947 27.8818 35.5359C27.2231 34.9473 27.2637 34.8251 29.6097 30.3479C30.7733 28.1274 31.7614 26.1958 31.8055 26.0555C31.9388 25.6308 31.5878 24.9778 31.1214 24.7829C30.8956 24.6886 30.6959 24.6185 30.6778 24.6273C30.6596 24.6361 30.5326 24.6653 30.3956 24.6921Z" fill="#EC2526"/>
</svg>
