<svg width="70" height="70" viewBox="0 0 70 70" fill="none" xmlns="http://www.w3.org/2000/svg">
<path fill-rule="evenodd" clip-rule="evenodd" d="M33.7837 3.56834C31.9935 3.91985 30.228 5.31411 29.383 7.04346L28.9154 8.00049L28.8701 10.5979C28.8176 13.6071 28.9632 14.4077 29.7982 15.6995C31.9255 18.9908 36.5926 19.4891 39.3569 16.7201C40.2971 15.7784 40.9502 14.5173 41.1469 13.2642C41.3267 12.1185 41.3256 9.88707 41.1446 8.75245C40.588 5.26202 37.2238 2.89268 33.7837 3.56834ZM33.8959 5.24793C32.5948 5.59876 31.5221 6.46542 30.8647 7.6967C30.5839 8.2228 30.5526 8.49213 30.5117 10.7361C30.471 12.9713 30.4934 13.2694 30.7552 13.9691C31.6831 16.4492 34.6883 17.6136 37.0506 16.4084C39.0323 15.3975 39.7583 13.6693 39.6131 10.3084C39.5516 8.88288 39.4873 8.51989 39.1768 7.84026C38.5612 6.49317 37.5433 5.63184 36.1326 5.26434C35.2097 5.02399 34.7397 5.02043 33.8959 5.24793ZM18.0524 6.98768C16.4327 7.30528 14.9214 8.51346 14.1762 10.0867L13.7396 11.0083V13.606V16.2036L14.1762 17.1252C15.2509 19.3939 17.6983 20.6865 20.0864 20.2464C21.9139 19.9097 23.4219 18.7265 24.2332 16.993C24.6321 16.1405 24.664 15.9567 24.7203 14.1928C24.8127 11.2975 24.4476 9.99235 23.1599 8.61573C21.8685 7.235 19.935 6.61868 18.0524 6.98768ZM49.5599 7.02788C47.9253 7.42532 46.5264 8.60178 45.7571 10.2259L45.3216 11.145V13.606V16.0669L45.7571 16.9861C47.8299 21.3616 53.7769 21.4439 55.8226 17.1252L56.2591 16.2036V13.606V11.0083L55.8226 10.0867C55.0527 8.46165 53.5665 7.30364 51.8314 6.97702C50.9167 6.80489 50.4325 6.81569 49.5599 7.02788ZM18.1763 8.6577C16.932 9.00825 16.165 9.68774 15.5952 10.9438C15.3584 11.4659 15.3175 11.8423 15.3149 13.5217C15.3115 15.7597 15.4202 16.2539 16.1196 17.1794C17.558 19.0825 20.4247 19.1793 22.0509 17.3794C22.942 16.393 23.0281 16.0602 23.0281 13.606C23.0281 11.1517 22.942 10.819 22.0509 9.83252C21.0855 8.76407 19.5024 8.28405 18.1763 8.6577ZM49.9701 8.59987C48.8252 8.90051 47.7003 9.83868 47.2088 10.9028C47.0144 11.3236 46.9698 11.8208 46.9665 13.606C46.9619 16.0923 47.0421 16.3924 47.9834 17.4137C48.7875 18.286 49.6031 18.6432 50.8075 18.6509C52.084 18.6588 53.1451 18.1505 53.8791 17.1794C54.5785 16.2541 54.6869 15.7613 54.6869 13.5094C54.6869 11.5758 54.6773 11.5113 54.2688 10.6939C53.8113 9.77852 53.2781 9.25284 52.4202 8.87153C51.7667 8.581 50.5539 8.44661 49.9701 8.59987ZM29.2452 19.2039C28.3628 19.4473 27.0994 20.1471 26.4181 20.7699L25.8394 21.2989L25.0041 20.9616C24.5449 20.776 23.8375 20.59 23.4323 20.5481C22.7043 20.4729 22.6873 20.4796 22.009 21.1141C21.0832 21.9803 20.3798 22.2812 19.2767 22.2832C18.1823 22.2853 17.2607 21.8866 16.4804 21.0735C16.015 20.5885 15.86 20.5103 15.3647 20.5103C14.6491 20.5103 13.3232 20.9147 12.5463 21.3699C11.805 21.8043 10.6459 23.0218 10.2678 23.7632C9.67346 24.9282 9.56969 25.7147 9.56969 29.0578C9.56969 31.5689 9.60948 32.2701 9.7637 32.4812C9.95073 32.7372 10.2106 32.748 17.0781 32.7843L24.1986 32.8221V33.8529C24.1986 35.6018 22.8895 35.4126 34.9875 35.4126C44.3261 35.4126 45.5129 35.389 45.6697 35.1999C45.7668 35.083 45.8744 34.5001 45.909 33.9046L45.9716 32.8221L53.0063 32.7843C59.7891 32.748 60.048 32.737 60.2351 32.4812C60.3893 32.2701 60.4291 31.5689 60.4291 29.0578C60.4291 24.8474 60.2076 23.9955 58.7029 22.4179C57.8865 21.5622 56.9326 20.984 55.8695 20.701C54.6656 20.3804 54.3516 20.4379 53.6772 21.1028C52.893 21.8759 52.2131 22.1911 51.1788 22.2609C49.9844 22.3416 49.1338 22.0262 48.2354 21.1694L47.5108 20.4781L46.6873 20.5443C46.2344 20.5807 45.4953 20.7592 45.0447 20.9413L44.2254 21.2722L43.4196 20.6231C42.5215 19.8995 41.6942 19.469 40.6732 19.1938C39.4479 18.8636 39.1575 18.9271 38.2998 19.7121C37.3215 20.6075 36.5515 20.949 35.3412 21.0245C34.0359 21.1058 33.0725 20.7371 32.0028 19.7467C31.2547 19.0542 31.16 19.0072 30.5377 19.0185C30.1718 19.0254 29.5901 19.1086 29.2452 19.2039ZM29.5231 20.8452C28.0233 21.3978 26.9149 22.3845 26.2904 23.7232L25.9076 24.5435L25.8667 29.1577L25.8257 33.772H34.9927H44.1595V29.3535C44.1595 24.369 44.1171 24.0762 43.2134 22.8141C42.5916 21.9458 41.5308 21.1729 40.5167 20.8493L39.8132 20.625L38.9503 21.3203C37.871 22.1901 36.8877 22.569 35.4708 22.6613C33.7842 22.771 32.2757 22.2603 31.1082 21.1841C30.4842 20.609 30.2819 20.5658 29.5231 20.8452ZM14.1227 22.4384C13.1617 22.8078 12.1319 23.7628 11.6615 24.7208C11.2852 25.4872 11.278 25.5488 11.2345 28.3388L11.1905 31.1771L17.6603 31.1415L24.1302 31.106L24.2022 27.688C24.262 24.8425 24.3151 24.1669 24.5187 23.6548C24.9015 22.6917 24.8885 22.6541 24.0823 22.3867L23.3505 22.144L22.7998 22.6417C22.4969 22.9154 21.9032 23.3014 21.4806 23.4996C20.8033 23.8172 20.5421 23.8599 19.2767 23.8599C18.0114 23.8599 17.7501 23.8172 17.0728 23.4996C16.6502 23.3014 16.0582 22.9169 15.7574 22.6451C15.1288 22.0772 15.0785 22.0709 14.1227 22.4384ZM45.9907 22.3449C45.1066 22.6216 45.1121 22.607 45.4927 23.6887C45.8192 24.6167 45.8457 24.8879 45.9073 27.9273L45.9732 31.1743H52.3907H58.8083L58.7641 28.3374C58.7243 25.773 58.6916 25.4391 58.4246 24.8612C57.8719 23.6652 56.6781 22.6234 55.46 22.2741C55.1215 22.177 54.9789 22.2294 54.4896 22.6304C53.4982 23.4427 52.4443 23.8474 51.1701 23.9051C49.712 23.9712 48.7592 23.6772 47.6087 22.8063C47.1323 22.4458 46.6998 22.155 46.6474 22.16C46.595 22.1651 46.2995 22.2482 45.9907 22.3449ZM47.5775 38.943C47.1639 39.0804 45.798 39.7573 44.5421 40.4471L42.2587 41.7017L39.21 41.6993C35.6314 41.6965 34.9016 41.5782 32.9516 40.6843C32.2098 40.3443 31.0597 39.9005 30.3958 39.6982C29.3029 39.365 28.9821 39.3301 27.0013 39.3281C24.4796 39.3255 23.4309 39.5425 21.4972 40.467C20.0704 41.1489 19.3779 41.6251 17.8412 42.9813C16.6813 44.0051 15.0792 44.9624 14.896 44.7413C14.8503 44.6862 14.5818 43.8721 14.2992 42.9321C14.0165 41.9922 13.6863 41.1463 13.5654 41.0522C13.3992 40.923 12.1859 40.8814 8.58969 40.8814H3.83379L3.61873 41.2095C3.41899 41.5145 3.50977 42.4066 4.90006 53.7951C6.13313 63.897 6.43856 66.0993 6.63694 66.3184C6.86936 66.5753 7.116 66.5845 13.808 66.5845C20.3483 66.5845 20.751 66.5704 20.9645 66.3344C21.0889 66.1969 21.1908 65.9584 21.1908 65.8045C21.1908 65.6507 20.8216 64.3097 20.3705 62.8247C19.9193 61.3397 19.5502 60.046 19.5502 59.9498C19.5502 59.7699 24.6708 56.4561 25.3447 56.2C26.0371 55.9367 26.9345 56.0515 32.9985 57.1796C38.7088 58.2419 39.1316 58.3018 40.8783 58.2944C42.9166 58.2859 43.9566 58.103 45.8048 57.4279C46.8234 57.0559 48.119 56.2107 56.6009 50.3856C61.9022 46.7449 66.3234 43.6409 66.4258 43.4879C66.5304 43.3316 66.5761 43.0661 66.5299 42.8822C66.3791 42.2812 65.2476 41.1884 64.2856 40.7147C63.4387 40.2974 63.2784 40.2661 61.9944 40.2661C60.8234 40.2661 60.5073 40.3159 59.913 40.594L59.2123 40.9217L58.7219 40.4912C58.4521 40.2542 57.9107 39.8929 57.5187 39.6881C56.9073 39.3686 56.64 39.3151 55.639 39.3124C54.6366 39.3095 54.3723 39.3608 53.7653 39.6754L53.0584 40.0416L52.7177 39.7737C52.5303 39.6263 52.02 39.3412 51.5836 39.1404C50.5325 38.6565 48.7099 38.5667 47.5775 38.943ZM47.7142 40.6526C47.3006 40.8332 46.6322 41.1668 46.2288 41.3939L45.4953 41.8068L46.0237 41.9744C46.3144 42.0667 46.8091 42.2891 47.1233 42.4688C47.4375 42.6484 47.7488 42.7954 47.815 42.7954C47.8813 42.7954 48.7253 42.371 49.6905 41.8522L51.4455 40.909L50.9813 40.667C50.6977 40.5193 50.1176 40.4054 49.4916 40.3747C48.6372 40.3327 48.3408 40.379 47.7142 40.6526ZM24.6941 41.1053C22.4746 41.5812 21.0858 42.3276 18.9747 44.1791C18.0029 45.0313 17.2411 45.5685 16.5119 45.9157C15.9312 46.1922 15.4543 46.4742 15.4523 46.5426C15.4445 46.8056 18.9301 58.1079 19.0191 58.1079C19.0708 58.1079 20.2421 57.3897 21.6217 56.512C24.5048 54.6776 25.0884 54.4165 26.3027 54.4165C26.8064 54.4165 29.6642 54.8767 33.0829 55.5082C36.3331 56.1087 39.4641 56.6393 40.0406 56.6874C42.5286 56.8948 45.307 56.1438 47.4117 54.6949C48.142 54.1922 51.9081 51.6065 55.7806 48.9493C65.2543 42.4486 64.5742 42.9444 64.364 42.6903C63.766 41.9672 61.8769 41.6224 60.7539 42.0313C60.4624 42.1375 58.0091 43.4232 55.3021 44.8886C50.5597 47.4556 50.3787 47.5684 50.3372 47.9795C50.2556 48.7894 50.1426 48.8046 45.8002 48.5923C42.8141 48.4464 41.4123 48.436 39.8005 48.5484C38.6438 48.6289 37.5527 48.6585 37.3758 48.6142C36.7775 48.464 36.7834 47.4017 37.3838 47.1736C38.1034 46.8998 41.7786 46.7548 44.5056 46.8922C46.0072 46.9679 47.5544 47.0308 47.9439 47.0318L48.6521 47.0337L48.5433 46.6539C48.1989 45.4531 47.1497 44.2556 45.9609 43.7061C45.3539 43.4256 45.0667 43.4065 40.2631 43.3297C34.6019 43.2392 34.5563 43.2326 32.265 42.1913C30.7611 41.5077 29.9207 41.2259 28.7877 41.025C27.6715 40.8273 25.8212 40.8636 24.6941 41.1053ZM54.3313 41.2356C53.963 41.4304 52.6328 42.1422 51.3757 42.8174L49.0899 44.045L49.518 44.8216C49.7535 45.2487 49.9876 45.6464 50.0382 45.7055C50.1484 45.8341 57.558 41.8701 57.558 41.6827C57.558 41.452 56.1405 40.8841 55.5617 40.8827C55.2197 40.8819 54.7398 41.0196 54.3313 41.2356ZM5.24678 43.1007C5.29286 43.4216 5.88471 48.2676 6.56188 53.8696C7.23918 59.4717 7.82666 64.2551 7.86741 64.4995L7.94151 64.9439H13.609C16.7262 64.9439 19.2766 64.9284 19.2765 64.9097C19.2763 64.8909 17.7475 59.8613 15.8793 53.7329L12.4823 42.5903L8.82266 42.5538L5.16297 42.5175L5.24678 43.1007ZM12.2357 59.1266C10.5643 59.7388 10.009 61.8935 11.1861 63.1981C11.4626 63.5045 11.8868 63.8381 12.1288 63.9394C13.4957 64.5115 15.1972 63.6509 15.5912 62.1879C16.1163 60.2373 14.136 58.4306 12.2357 59.1266ZM12.516 60.8914C12.0826 61.3248 12.0707 61.7977 12.4837 62.1857C12.8984 62.5751 13.3312 62.5619 13.7458 62.1473C14.1417 61.7515 14.1721 61.3899 13.8422 60.9999C13.4442 60.5296 12.9205 60.4868 12.516 60.8914Z" fill="white"/>
</svg>
