<svg width="207" height="519" viewBox="0 0 307 619" fill="none" xmlns="http://www.w3.org/2000/svg">
<path opacity="0.1" fill-rule="evenodd" clip-rule="evenodd" d="M402.237 629.206L396.351 613.036L398.267 611.72C408.804 604.482 416.288 598.404 425.526 589.582L432.398 583.02L435.15 584.473C436.664 585.272 443.3 588.961 449.898 592.67C456.496 596.38 462.09 599.344 462.33 599.257C462.569 599.169 464.743 595.613 467.161 591.354C469.579 587.094 473.74 579.854 476.407 575.264C479.075 570.674 482.034 565.57 482.983 563.92C495.498 542.173 500.837 532.885 503.897 527.534L507.558 521.134L506.027 520.228C505.186 519.729 498.764 516.106 491.756 512.177C484.748 508.248 478.694 504.814 478.302 504.546C477.794 504.2 477.889 503.019 478.632 500.447C481.091 491.926 483.056 481.51 484.318 470.303C485.458 460.18 485.838 458.239 486.753 457.889C487.755 457.507 509.743 453.2 516.322 452.098C517.903 451.833 519.241 451.525 519.294 451.413C519.347 451.302 517.682 441.97 515.595 430.677C513.507 419.383 511.453 408.144 511.031 405.701C510.607 403.258 510.16 400.982 510.036 400.643C509.856 400.153 502.123 402.854 472.19 413.862L434.571 427.697L434.846 429.819C435.506 434.903 436.144 447.029 436.009 451.912C434.98 488.899 420.36 523.721 394.591 550.557C371.293 574.819 339.866 590.627 306.407 594.913C251.546 601.94 197.064 577.725 166.204 532.596L162.25 526.813L124.6 540.375C98.6519 549.721 87.0078 554.095 87.1365 554.448C87.435 555.269 112.487 599.291 112.714 599.395C112.827 599.447 114.051 598.823 115.433 598.01C121.131 594.655 140.795 583.788 141.89 583.389C142.682 583.101 143.317 583.282 143.816 583.938C145.271 585.851 156.403 596.256 161.463 600.432C166.749 604.793 172.777 609.305 177.327 612.307C178.751 613.246 179.903 614.327 179.887 614.709C179.871 615.09 178.658 618.62 177.192 622.552C169.315 643.681 168.38 646.587 169.332 646.981C172.135 648.143 252.969 676.44 253.505 676.447C253.857 676.451 256.771 669.267 259.979 660.481L265.811 644.506L273.2 645.042C284.141 645.835 296.059 645.62 308.472 644.406L310.784 644.18L316.67 660.35L322.555 676.519L365.338 660.947L408.122 645.375L402.237 629.206ZM332.738 543.911C368.95 526.676 392.354 491.171 393.428 451.841C393.515 448.661 393.456 445.262 393.298 444.287L393.011 442.516L385.487 445.408L377.963 448.3L377.912 451.652C377.704 465.263 372.879 482.122 365.876 493.704C354.331 512.798 339.037 525.516 318.735 532.905C290.095 543.329 259.874 539.143 234.968 521.302C230.942 518.418 222.177 510.41 219.979 507.607L218.708 505.986L211.035 508.779C206.816 510.315 203.386 511.625 203.414 511.692C203.672 512.298 208.164 517.727 210.767 520.578C225.788 537.026 248.242 549.019 270.684 552.579C279.542 553.984 287.401 554.243 298.054 553.48C307.07 552.834 323.532 548.292 332.738 543.911ZM489.569 344.414C489.148 343.256 464.208 299.299 463.89 299.154C463.725 299.078 457.139 302.645 449.254 307.08C441.369 311.515 434.536 315.204 434.072 315.277C433.591 315.353 431.467 313.656 429.143 311.341C420.304 302.535 411.679 295.367 401.49 288.359L396.481 284.914L397.624 281.638C398.253 279.837 400.479 273.648 402.57 267.885C407.476 254.369 407.951 252.829 407.362 252.369C406.53 251.721 323.493 222.581 322.834 222.706C322.295 222.808 318.934 231.695 312.657 249.61L310.925 254.554L304.086 254.091C292.562 253.31 279.778 253.501 268.295 254.626L265.983 254.852L260.098 238.683L254.213 222.513L211.429 238.085L168.646 253.657L174.531 269.826L180.416 285.996L178.725 287.155C177.795 287.793 175.767 289.171 174.218 290.218C168.866 293.836 158.497 302.481 152.056 308.692C148.502 312.121 145.183 315.193 144.682 315.518C144.013 315.953 143.095 315.698 141.235 314.562C139.841 313.71 133.455 310.098 127.046 306.535C120.636 302.973 115.167 299.896 114.892 299.699C114.374 299.328 113.552 300.641 105.683 314.397C103.126 318.867 96.1355 331.007 90.1482 341.375C67.3338 380.879 68.9801 377.776 70.3741 378.651C71.049 379.075 77.1922 382.592 84.0249 386.466C90.8575 390.34 97.0222 393.854 97.7237 394.276C98.9756 395.027 98.9731 395.138 97.5915 400.174C94.6779 410.795 92.3241 424.436 91.5711 435.066L91.1852 440.51L74.2949 443.703C65.0055 445.46 57.3466 447.019 57.275 447.169C57.1329 447.469 66.3077 497.222 66.7084 498.323C66.9189 498.901 72.7101 496.889 104.545 485.182L142.134 471.358L141.635 467.096C138.359 439.072 143.223 411.609 156.107 385.386C179.904 336.954 228.624 305.437 283.343 303.077C331.775 300.987 379.631 323.923 407.774 362.712C410.147 365.982 412.608 369.47 413.242 370.461L414.395 372.264L452.106 358.68C484.045 347.176 489.78 344.992 489.569 344.414ZM372.106 386.071C370.848 383.958 364.381 376.729 360.602 373.212C350.162 363.495 336.536 355.431 322.2 350.487C290.774 339.648 253.26 345.638 226.041 365.841C202.607 383.235 187.492 408.911 183.915 437.401C183.325 442.101 182.889 455.32 183.288 456.416C183.331 456.533 186.818 455.372 191.038 453.837L198.711 451.044L198.642 448.985C198.525 445.425 200.091 433.657 201.322 428.859C204.969 414.639 210.576 403.757 220.245 392.135C234.601 374.879 257.533 363.047 280.803 360.89C304.254 358.717 328.981 366.487 346.487 381.531C350.153 384.68 355.306 389.808 357.344 392.334C357.886 393.005 358.753 392.793 365.484 390.343L373.018 387.601L372.106 386.071Z" fill="white" fill-opacity="0.2"/>
<g opacity="0.1">
<mask id="path-2-inside-1_738_15975" fill="white">
<path fill-rule="evenodd" clip-rule="evenodd" d="M342.807 260.165L339.537 251.182L340.601 250.451C346.456 246.43 350.613 243.053 355.746 238.152L359.563 234.507L361.092 235.314C361.933 235.758 365.62 237.807 369.285 239.868C372.951 241.929 376.059 243.576 376.192 243.527C376.325 243.479 377.533 241.503 378.876 239.137C380.219 236.77 382.531 232.748 384.013 230.198C385.495 227.648 387.139 224.812 387.666 223.896C394.619 211.814 397.585 206.654 399.285 203.681L401.318 200.126L400.468 199.622C400.001 199.345 396.433 197.333 392.54 195.15C388.647 192.967 385.283 191.059 385.065 190.91C384.783 190.718 384.836 190.062 385.249 188.633C386.615 183.899 387.706 178.112 388.407 171.886C389.041 166.262 389.252 165.184 389.76 164.99C390.317 164.777 402.532 162.384 406.187 161.772C407.066 161.625 407.809 161.454 407.839 161.392C407.868 161.33 406.943 156.146 405.784 149.872C404.624 143.598 403.483 137.353 403.248 135.996C403.013 134.639 402.764 133.374 402.695 133.186C402.596 132.914 398.299 134.415 381.67 140.53L360.77 148.216L360.923 149.395C361.29 152.219 361.644 158.956 361.569 161.669C360.998 182.217 352.875 201.563 338.559 216.472C325.616 229.951 308.156 238.733 289.568 241.114C259.09 245.018 228.822 231.565 211.678 206.494L209.481 203.281L188.564 210.815C174.149 216.007 167.68 218.437 167.751 218.634C167.917 219.089 181.835 243.546 181.961 243.604C182.024 243.633 182.703 243.286 183.471 242.834C186.637 240.97 197.562 234.933 198.17 234.712C198.61 234.552 198.963 234.652 199.24 235.017C200.048 236.08 206.233 241.86 209.044 244.18C211.98 246.603 215.329 249.11 217.857 250.778C218.648 251.299 219.288 251.9 219.279 252.112C219.27 252.324 218.597 254.284 217.782 256.469C213.406 268.207 212.887 269.822 213.415 270.041C214.973 270.686 259.88 286.407 260.178 286.411C260.374 286.413 261.992 282.422 263.775 277.541L267.015 268.666L271.12 268.963C277.198 269.404 283.819 269.284 290.715 268.61L292 268.484L295.27 277.468L298.539 286.451L322.308 277.799L346.076 269.148L342.807 260.165ZM304.196 212.78C324.314 203.205 337.316 183.48 337.913 161.63C337.961 159.863 337.929 157.975 337.841 157.433L337.681 156.449L333.501 158.056L329.322 159.662L329.293 161.524C329.178 169.086 326.497 178.452 322.606 184.887C316.193 195.494 307.696 202.56 296.417 206.665C280.506 212.456 263.716 210.131 249.88 200.219C247.643 198.617 242.774 194.168 241.553 192.611L240.846 191.71L236.584 193.262C234.24 194.115 232.334 194.843 232.35 194.88C232.493 195.217 234.989 198.233 236.435 199.817C244.78 208.955 257.254 215.617 269.722 217.595C274.643 218.376 279.009 218.519 284.928 218.096C289.937 217.737 299.082 215.214 304.196 212.78ZM391.325 101.948C391.091 101.305 377.236 76.8842 377.059 76.8032C376.967 76.7612 373.308 78.7429 368.927 81.2069C364.547 83.6707 360.751 85.7201 360.493 85.7607C360.226 85.8026 359.046 84.8603 357.755 83.574C352.844 78.682 348.053 74.6993 342.392 70.8063L339.609 68.8921L340.244 67.0724C340.594 66.0718 341.83 62.6335 342.992 59.432C345.718 51.9229 345.982 51.0672 345.654 50.8119C345.192 50.4518 299.061 34.2629 298.694 34.3324C298.395 34.3891 296.527 39.3262 293.04 49.2792L292.078 52.0256L288.279 51.7682C281.877 51.3348 274.774 51.4409 268.395 52.0656L267.11 52.1914L263.841 43.2082L260.571 34.2253L236.803 42.8763L213.034 51.5274L216.304 60.5104L219.573 69.4936L218.634 70.1373C218.117 70.4915 216.99 71.2571 216.13 71.8388C213.157 73.849 207.396 78.6516 203.818 82.1023C201.843 84.0072 199.999 85.7137 199.721 85.8947C199.349 86.136 198.839 85.9948 197.806 85.3636C197.031 84.8903 193.484 82.8837 189.923 80.9041C186.362 78.9249 183.324 77.2155 183.171 77.106C182.883 76.8998 182.426 77.6297 178.055 85.272C176.634 87.7553 172.751 94.4996 169.424 100.259C156.75 122.206 157.664 120.483 158.439 120.969C158.814 121.204 162.227 123.158 166.022 125.31C169.818 127.463 173.243 129.415 173.633 129.649C174.328 130.066 174.327 130.128 173.559 132.925C171.941 138.826 170.633 146.405 170.215 152.31L170 155.335L160.617 157.109C155.456 158.084 151.201 158.951 151.161 159.034C151.083 159.201 156.18 186.841 156.402 187.453C156.519 187.774 159.737 186.656 177.423 180.152L198.305 172.473L198.028 170.104C196.208 154.536 198.91 139.278 206.068 124.71C219.289 97.8037 246.355 80.294 276.755 78.9827C303.661 77.8218 330.248 90.564 345.883 112.113C347.202 113.93 348.568 115.868 348.921 116.418L349.561 117.42L370.512 109.873C388.256 103.482 391.442 102.269 391.325 101.948ZM326.068 125.091C325.368 123.917 321.776 119.901 319.677 117.947C313.877 112.548 306.307 108.069 298.342 105.322C280.883 99.3001 260.042 102.628 244.92 113.852C231.902 123.515 223.504 137.78 221.517 153.607C221.189 156.218 220.947 163.562 221.169 164.171C221.192 164.236 223.13 163.591 225.474 162.738L229.737 161.187L229.699 160.043C229.633 158.065 230.504 151.527 231.187 148.862C233.214 140.962 236.329 134.916 241.7 128.459C249.676 118.873 262.416 112.299 275.344 111.101C288.372 109.894 302.109 114.211 311.835 122.568C313.871 124.318 316.734 127.167 317.867 128.57C318.168 128.943 318.649 128.825 322.389 127.464L326.574 125.941L326.068 125.091Z"/>
</mask>
<path fill-rule="evenodd" clip-rule="evenodd" d="M342.807 260.165L339.537 251.182L340.601 250.451C346.456 246.43 350.613 243.053 355.746 238.152L359.563 234.507L361.092 235.314C361.933 235.758 365.62 237.807 369.285 239.868C372.951 241.929 376.059 243.576 376.192 243.527C376.325 243.479 377.533 241.503 378.876 239.137C380.219 236.77 382.531 232.748 384.013 230.198C385.495 227.648 387.139 224.812 387.666 223.896C394.619 211.814 397.585 206.654 399.285 203.681L401.318 200.126L400.468 199.622C400.001 199.345 396.433 197.333 392.54 195.15C388.647 192.967 385.283 191.059 385.065 190.91C384.783 190.718 384.836 190.062 385.249 188.633C386.615 183.899 387.706 178.112 388.407 171.886C389.041 166.262 389.252 165.184 389.76 164.99C390.317 164.777 402.532 162.384 406.187 161.772C407.066 161.625 407.809 161.454 407.839 161.392C407.868 161.33 406.943 156.146 405.784 149.872C404.624 143.598 403.483 137.353 403.248 135.996C403.013 134.639 402.764 133.374 402.695 133.186C402.596 132.914 398.299 134.415 381.67 140.53L360.77 148.216L360.923 149.395C361.29 152.219 361.644 158.956 361.569 161.669C360.998 182.217 352.875 201.563 338.559 216.472C325.616 229.951 308.156 238.733 289.568 241.114C259.09 245.018 228.822 231.565 211.678 206.494L209.481 203.281L188.564 210.815C174.149 216.007 167.68 218.437 167.751 218.634C167.917 219.089 181.835 243.546 181.961 243.604C182.024 243.633 182.703 243.286 183.471 242.834C186.637 240.97 197.562 234.933 198.17 234.712C198.61 234.552 198.963 234.652 199.24 235.017C200.048 236.08 206.233 241.86 209.044 244.18C211.98 246.603 215.329 249.11 217.857 250.778C218.648 251.299 219.288 251.9 219.279 252.112C219.27 252.324 218.597 254.284 217.782 256.469C213.406 268.207 212.887 269.822 213.415 270.041C214.973 270.686 259.88 286.407 260.178 286.411C260.374 286.413 261.992 282.422 263.775 277.541L267.015 268.666L271.12 268.963C277.198 269.404 283.819 269.284 290.715 268.61L292 268.484L295.27 277.468L298.539 286.451L322.308 277.799L346.076 269.148L342.807 260.165ZM304.196 212.78C324.314 203.205 337.316 183.48 337.913 161.63C337.961 159.863 337.929 157.975 337.841 157.433L337.681 156.449L333.501 158.056L329.322 159.662L329.293 161.524C329.178 169.086 326.497 178.452 322.606 184.887C316.193 195.494 307.696 202.56 296.417 206.665C280.506 212.456 263.716 210.131 249.88 200.219C247.643 198.617 242.774 194.168 241.553 192.611L240.846 191.71L236.584 193.262C234.24 194.115 232.334 194.843 232.35 194.88C232.493 195.217 234.989 198.233 236.435 199.817C244.78 208.955 257.254 215.617 269.722 217.595C274.643 218.376 279.009 218.519 284.928 218.096C289.937 217.737 299.082 215.214 304.196 212.78ZM391.325 101.948C391.091 101.305 377.236 76.8842 377.059 76.8032C376.967 76.7612 373.308 78.7429 368.927 81.2069C364.547 83.6707 360.751 85.7201 360.493 85.7607C360.226 85.8026 359.046 84.8603 357.755 83.574C352.844 78.682 348.053 74.6993 342.392 70.8063L339.609 68.8921L340.244 67.0724C340.594 66.0718 341.83 62.6335 342.992 59.432C345.718 51.9229 345.982 51.0672 345.654 50.8119C345.192 50.4518 299.061 34.2629 298.694 34.3324C298.395 34.3891 296.527 39.3262 293.04 49.2792L292.078 52.0256L288.279 51.7682C281.877 51.3348 274.774 51.4409 268.395 52.0656L267.11 52.1914L263.841 43.2082L260.571 34.2253L236.803 42.8763L213.034 51.5274L216.304 60.5104L219.573 69.4936L218.634 70.1373C218.117 70.4915 216.99 71.2571 216.13 71.8388C213.157 73.849 207.396 78.6516 203.818 82.1023C201.843 84.0072 199.999 85.7137 199.721 85.8947C199.349 86.136 198.839 85.9948 197.806 85.3636C197.031 84.8903 193.484 82.8837 189.923 80.9041C186.362 78.9249 183.324 77.2155 183.171 77.106C182.883 76.8998 182.426 77.6297 178.055 85.272C176.634 87.7553 172.751 94.4996 169.424 100.259C156.75 122.206 157.664 120.483 158.439 120.969C158.814 121.204 162.227 123.158 166.022 125.31C169.818 127.463 173.243 129.415 173.633 129.649C174.328 130.066 174.327 130.128 173.559 132.925C171.941 138.826 170.633 146.405 170.215 152.31L170 155.335L160.617 157.109C155.456 158.084 151.201 158.951 151.161 159.034C151.083 159.201 156.18 186.841 156.402 187.453C156.519 187.774 159.737 186.656 177.423 180.152L198.305 172.473L198.028 170.104C196.208 154.536 198.91 139.278 206.068 124.71C219.289 97.8037 246.355 80.294 276.755 78.9827C303.661 77.8218 330.248 90.564 345.883 112.113C347.202 113.93 348.568 115.868 348.921 116.418L349.561 117.42L370.512 109.873C388.256 103.482 391.442 102.269 391.325 101.948ZM326.068 125.091C325.368 123.917 321.776 119.901 319.677 117.947C313.877 112.548 306.307 108.069 298.342 105.322C280.883 99.3001 260.042 102.628 244.92 113.852C231.902 123.515 223.504 137.78 221.517 153.607C221.189 156.218 220.947 163.562 221.169 164.171C221.192 164.236 223.13 163.591 225.474 162.738L229.737 161.187L229.699 160.043C229.633 158.065 230.504 151.527 231.187 148.862C233.214 140.962 236.329 134.916 241.7 128.459C249.676 118.873 262.416 112.299 275.344 111.101C288.372 109.894 302.109 114.211 311.835 122.568C313.871 124.318 316.734 127.167 317.867 128.57C318.168 128.943 318.649 128.825 322.389 127.464L326.574 125.941L326.068 125.091Z" stroke="white" stroke-width="4" mask="url(#path-2-inside-1_738_15975)"/>
</g>
</svg>
