<svg width="367" height="289" viewBox="0 0 467 389" fill="none" xmlns="http://www.w3.org/2000/svg">
<g opacity="0.1">
<mask id="path-1-inside-1_738_15972" fill="white">
<path fill-rule="evenodd" clip-rule="evenodd" d="M64.5329 -240.19L70.4183 -224.02L68.5027 -222.705C57.9651 -215.467 50.481 -209.388 41.2432 -200.567L34.3715 -194.004L31.6194 -195.457C30.1055 -196.256 23.4693 -199.945 16.8717 -203.655C10.2736 -207.364 4.67979 -210.328 4.44001 -210.241C4.20072 -210.154 2.02634 -206.597 -0.391814 -202.338C-2.80947 -198.079 -6.97031 -190.838 -9.63786 -186.248C-12.3054 -181.659 -15.2644 -176.554 -16.2134 -174.905C-28.7283 -153.158 -34.0676 -143.869 -37.1279 -138.518L-40.7881 -132.119L-39.2577 -131.212C-38.4164 -130.714 -31.9941 -127.091 -24.9864 -123.161C-17.9787 -119.232 -11.9243 -115.798 -11.5321 -115.53C-11.0246 -115.184 -11.1199 -114.003 -11.8622 -111.431C-14.3219 -102.91 -16.2864 -92.4942 -17.5483 -81.2873C-18.6881 -71.1643 -19.0689 -69.223 -19.9834 -68.8734C-20.9856 -68.4909 -42.9732 -64.1841 -49.552 -63.0823C-51.1338 -62.8172 -52.4714 -62.5092 -52.5243 -62.3977C-52.5772 -62.2862 -50.9126 -52.9545 -48.8253 -41.6612C-46.738 -30.3678 -44.6838 -19.1284 -44.261 -16.6851C-43.8377 -14.242 -43.3902 -11.9661 -43.2663 -11.6273C-43.0868 -11.1371 -35.3533 -13.8385 -5.42083 -24.8464L32.1989 -38.681L31.9235 -40.803C31.2635 -45.8871 30.6251 -58.0134 30.761 -62.8967C31.7892 -99.8835 46.4094 -134.705 72.1787 -161.542C95.4762 -185.804 126.904 -201.612 160.363 -205.897C215.224 -212.925 269.705 -188.709 300.565 -143.581L304.52 -137.798L342.17 -151.359C368.118 -160.705 379.762 -165.079 379.633 -165.433C379.335 -166.253 354.283 -210.275 354.056 -210.38C353.942 -210.431 352.719 -209.808 351.337 -208.994C345.639 -205.639 325.974 -194.772 324.879 -194.374C324.087 -194.085 323.452 -194.267 322.953 -194.923C321.499 -196.835 310.366 -207.24 305.306 -211.416C300.02 -215.778 293.993 -220.29 289.443 -223.292C288.019 -224.231 286.867 -225.311 286.883 -225.693C286.899 -226.075 288.111 -229.604 289.577 -233.536C297.454 -254.665 298.389 -257.571 297.438 -257.966C294.635 -259.128 213.8 -287.425 213.265 -287.431C212.912 -287.436 209.999 -280.251 206.791 -271.465L200.958 -255.49L193.57 -256.026C182.628 -256.819 170.71 -256.604 158.298 -255.39L155.985 -255.164L150.1 -271.334L144.215 -287.503L101.431 -271.931L58.6478 -256.359L64.5329 -240.19ZM134.032 -154.895C97.8197 -137.66 74.4156 -102.156 73.3412 -62.8254C73.2546 -59.6456 73.3132 -56.2465 73.4713 -55.2718L73.7589 -53.5004L81.2828 -56.3922L88.806 -59.2844L88.857 -62.6362C89.0651 -76.2478 93.8903 -93.1065 100.894 -104.689C112.438 -123.782 127.733 -136.5 148.035 -143.89C176.674 -154.314 206.896 -150.127 231.801 -132.287C235.827 -129.403 244.592 -121.395 246.791 -118.592L248.062 -116.971L255.734 -119.763C259.954 -121.299 263.383 -122.61 263.355 -122.676C263.098 -123.283 258.606 -128.712 256.003 -131.563C240.982 -148.011 218.527 -160.004 196.086 -163.564C187.228 -164.968 179.368 -165.227 168.715 -164.464C159.699 -163.818 143.238 -159.277 134.032 -154.895ZM-22.7995 44.6017C-22.3781 45.7594 2.56121 89.7162 2.87963 89.862C3.04408 89.9377 9.63034 86.3705 17.5159 81.9355C25.401 77.5006 32.2331 73.8116 32.6978 73.7386C33.1785 73.6631 35.3029 75.3593 37.6268 77.6745C46.4651 86.4802 55.0901 93.649 65.279 100.657L70.2887 104.102L69.1456 107.377C68.5166 109.179 66.2908 115.367 64.1995 121.13C59.2936 134.647 58.8182 136.187 59.4074 136.646C60.2394 137.295 143.276 166.434 143.935 166.31C144.474 166.207 147.836 157.321 154.112 139.405L155.844 134.462L162.684 134.925C174.207 135.705 186.992 135.514 198.474 134.39L200.786 134.163L206.672 150.333L212.557 166.502L255.34 150.93L298.124 135.358L292.239 119.189L286.353 103.019L288.044 101.861C288.975 101.223 291.003 99.845 292.551 98.798C297.903 95.1796 308.273 86.5349 314.713 80.3236C318.268 76.8948 321.587 73.8231 322.088 73.4973C322.756 73.0629 323.674 73.3172 325.534 74.4534C326.929 75.3052 333.314 78.9172 339.724 82.4803C346.133 86.043 351.602 89.12 351.878 89.317C352.395 89.6881 353.218 88.3743 361.087 74.6182C363.643 70.1482 370.634 58.0084 376.621 47.6411C399.436 8.13619 397.789 11.2393 396.395 10.3644C395.72 9.94013 389.577 6.42339 382.745 2.54928C375.912 -1.32481 369.747 -4.83875 369.046 -5.26009C367.794 -6.01107 367.796 -6.12194 369.178 -11.1581C372.092 -21.7789 374.445 -35.4204 375.198 -46.0504L375.584 -51.4947L392.475 -54.6879C401.764 -56.4439 409.423 -58.0038 409.495 -58.1537C409.637 -58.4537 400.462 -108.206 400.061 -109.307C399.851 -109.885 394.059 -107.874 362.224 -96.1661L324.636 -82.3428L325.135 -78.0799C328.411 -50.0563 323.547 -22.5931 310.663 3.62937C286.866 52.0611 238.145 83.5786 183.426 85.9389C134.995 88.0285 87.1381 65.0926 58.9952 26.304C56.6222 23.0333 54.162 19.546 53.5279 18.5546L52.3749 16.7521L14.6638 30.3356C-17.2756 41.8401 -23.01 44.0233 -22.7995 44.6017ZM94.6631 2.94434C95.9219 5.05778 102.389 12.2867 106.167 15.804C116.607 25.5207 130.233 33.5842 144.57 38.5288C175.995 49.3676 213.509 43.3774 240.729 23.1744C264.162 5.78097 279.278 -19.8958 282.855 -48.3849C283.444 -53.085 283.88 -66.304 283.482 -67.3999C283.439 -67.5172 279.951 -66.3567 275.732 -64.8209L268.059 -62.0283L268.127 -59.9698C268.245 -56.4094 266.678 -44.641 265.448 -39.8438C261.801 -25.6239 256.193 -14.7413 246.525 -3.11906C232.169 14.1369 209.236 25.9691 185.967 28.1253C162.516 30.2982 137.789 22.5283 120.282 7.48501C116.617 4.33526 111.464 -0.792352 109.425 -3.31805C108.883 -3.98967 108.016 -3.77743 101.285 -1.32757L93.7519 1.41436L94.6631 2.94434Z"/>
</mask>
<path fill-rule="evenodd" clip-rule="evenodd" d="M64.5329 -240.19L70.4183 -224.02L68.5027 -222.705C57.9651 -215.467 50.481 -209.388 41.2432 -200.567L34.3715 -194.004L31.6194 -195.457C30.1055 -196.256 23.4693 -199.945 16.8717 -203.655C10.2736 -207.364 4.67979 -210.328 4.44001 -210.241C4.20072 -210.154 2.02634 -206.597 -0.391814 -202.338C-2.80947 -198.079 -6.97031 -190.838 -9.63786 -186.248C-12.3054 -181.659 -15.2644 -176.554 -16.2134 -174.905C-28.7283 -153.158 -34.0676 -143.869 -37.1279 -138.518L-40.7881 -132.119L-39.2577 -131.212C-38.4164 -130.714 -31.9941 -127.091 -24.9864 -123.161C-17.9787 -119.232 -11.9243 -115.798 -11.5321 -115.53C-11.0246 -115.184 -11.1199 -114.003 -11.8622 -111.431C-14.3219 -102.91 -16.2864 -92.4942 -17.5483 -81.2873C-18.6881 -71.1643 -19.0689 -69.223 -19.9834 -68.8734C-20.9856 -68.4909 -42.9732 -64.1841 -49.552 -63.0823C-51.1338 -62.8172 -52.4714 -62.5092 -52.5243 -62.3977C-52.5772 -62.2862 -50.9126 -52.9545 -48.8253 -41.6612C-46.738 -30.3678 -44.6838 -19.1284 -44.261 -16.6851C-43.8377 -14.242 -43.3902 -11.9661 -43.2663 -11.6273C-43.0868 -11.1371 -35.3533 -13.8385 -5.42083 -24.8464L32.1989 -38.681L31.9235 -40.803C31.2635 -45.8871 30.6251 -58.0134 30.761 -62.8967C31.7892 -99.8835 46.4094 -134.705 72.1787 -161.542C95.4762 -185.804 126.904 -201.612 160.363 -205.897C215.224 -212.925 269.705 -188.709 300.565 -143.581L304.52 -137.798L342.17 -151.359C368.118 -160.705 379.762 -165.079 379.633 -165.433C379.335 -166.253 354.283 -210.275 354.056 -210.38C353.942 -210.431 352.719 -209.808 351.337 -208.994C345.639 -205.639 325.974 -194.772 324.879 -194.374C324.087 -194.085 323.452 -194.267 322.953 -194.923C321.499 -196.835 310.366 -207.24 305.306 -211.416C300.02 -215.778 293.993 -220.29 289.443 -223.292C288.019 -224.231 286.867 -225.311 286.883 -225.693C286.899 -226.075 288.111 -229.604 289.577 -233.536C297.454 -254.665 298.389 -257.571 297.438 -257.966C294.635 -259.128 213.8 -287.425 213.265 -287.431C212.912 -287.436 209.999 -280.251 206.791 -271.465L200.958 -255.49L193.57 -256.026C182.628 -256.819 170.71 -256.604 158.298 -255.39L155.985 -255.164L150.1 -271.334L144.215 -287.503L101.431 -271.931L58.6478 -256.359L64.5329 -240.19ZM134.032 -154.895C97.8197 -137.66 74.4156 -102.156 73.3412 -62.8254C73.2546 -59.6456 73.3132 -56.2465 73.4713 -55.2718L73.7589 -53.5004L81.2828 -56.3922L88.806 -59.2844L88.857 -62.6362C89.0651 -76.2478 93.8903 -93.1065 100.894 -104.689C112.438 -123.782 127.733 -136.5 148.035 -143.89C176.674 -154.314 206.896 -150.127 231.801 -132.287C235.827 -129.403 244.592 -121.395 246.791 -118.592L248.062 -116.971L255.734 -119.763C259.954 -121.299 263.383 -122.61 263.355 -122.676C263.098 -123.283 258.606 -128.712 256.003 -131.563C240.982 -148.011 218.527 -160.004 196.086 -163.564C187.228 -164.968 179.368 -165.227 168.715 -164.464C159.699 -163.818 143.238 -159.277 134.032 -154.895ZM-22.7995 44.6017C-22.3781 45.7594 2.56121 89.7162 2.87963 89.862C3.04408 89.9377 9.63034 86.3705 17.5159 81.9355C25.401 77.5006 32.2331 73.8116 32.6978 73.7386C33.1785 73.6631 35.3029 75.3593 37.6268 77.6745C46.4651 86.4802 55.0901 93.649 65.279 100.657L70.2887 104.102L69.1456 107.377C68.5166 109.179 66.2908 115.367 64.1995 121.13C59.2936 134.647 58.8182 136.187 59.4074 136.646C60.2394 137.295 143.276 166.434 143.935 166.31C144.474 166.207 147.836 157.321 154.112 139.405L155.844 134.462L162.684 134.925C174.207 135.705 186.992 135.514 198.474 134.39L200.786 134.163L206.672 150.333L212.557 166.502L255.34 150.93L298.124 135.358L292.239 119.189L286.353 103.019L288.044 101.861C288.975 101.223 291.003 99.845 292.551 98.798C297.903 95.1796 308.273 86.5349 314.713 80.3236C318.268 76.8948 321.587 73.8231 322.088 73.4973C322.756 73.0629 323.674 73.3172 325.534 74.4534C326.929 75.3052 333.314 78.9172 339.724 82.4803C346.133 86.043 351.602 89.12 351.878 89.317C352.395 89.6881 353.218 88.3743 361.087 74.6182C363.643 70.1482 370.634 58.0084 376.621 47.6411C399.436 8.13619 397.789 11.2393 396.395 10.3644C395.72 9.94013 389.577 6.42339 382.745 2.54928C375.912 -1.32481 369.747 -4.83875 369.046 -5.26009C367.794 -6.01107 367.796 -6.12194 369.178 -11.1581C372.092 -21.7789 374.445 -35.4204 375.198 -46.0504L375.584 -51.4947L392.475 -54.6879C401.764 -56.4439 409.423 -58.0038 409.495 -58.1537C409.637 -58.4537 400.462 -108.206 400.061 -109.307C399.851 -109.885 394.059 -107.874 362.224 -96.1661L324.636 -82.3428L325.135 -78.0799C328.411 -50.0563 323.547 -22.5931 310.663 3.62937C286.866 52.0611 238.145 83.5786 183.426 85.9389C134.995 88.0285 87.1381 65.0926 58.9952 26.304C56.6222 23.0333 54.162 19.546 53.5279 18.5546L52.3749 16.7521L14.6638 30.3356C-17.2756 41.8401 -23.01 44.0233 -22.7995 44.6017ZM94.6631 2.94434C95.9219 5.05778 102.389 12.2867 106.167 15.804C116.607 25.5207 130.233 33.5842 144.57 38.5288C175.995 49.3676 213.509 43.3774 240.729 23.1744C264.162 5.78097 279.278 -19.8958 282.855 -48.3849C283.444 -53.085 283.88 -66.304 283.482 -67.3999C283.439 -67.5172 279.951 -66.3567 275.732 -64.8209L268.059 -62.0283L268.127 -59.9698C268.245 -56.4094 266.678 -44.641 265.448 -39.8438C261.801 -25.6239 256.193 -14.7413 246.525 -3.11906C232.169 14.1369 209.236 25.9691 185.967 28.1253C162.516 30.2982 137.789 22.5283 120.282 7.48501C116.617 4.33526 111.464 -0.792352 109.425 -3.31805C108.883 -3.98967 108.016 -3.77743 101.285 -1.32757L93.7519 1.41436L94.6631 2.94434Z" fill="white" fill-opacity="0.3" stroke="#112749" stroke-width="2" mask="url(#path-1-inside-1_738_15972)"/>
</g>
<g opacity="0.1">
<mask id="path-2-inside-2_738_15972" fill="white">
<path fill-rule="evenodd" clip-rule="evenodd" d="M123.963 128.85L127.232 137.833L126.168 138.564C120.314 142.585 116.156 145.962 111.024 150.863L107.206 154.509L105.677 153.702C104.836 153.258 101.15 151.208 97.4843 149.148C93.8186 147.087 90.711 145.44 90.5778 145.489C90.4448 145.537 89.2369 147.513 87.8934 149.879C86.5503 152.245 84.2387 156.268 82.7567 158.818C81.2748 161.368 79.6309 164.203 79.1036 165.12C72.1509 177.201 69.1847 182.362 67.4845 185.335L65.4511 188.89L66.3013 189.393C66.7687 189.67 70.3366 191.683 74.2298 193.866C78.1229 196.049 81.4865 197.957 81.7044 198.106C81.9863 198.298 81.9334 198.954 81.521 200.383C80.1545 205.117 79.0631 210.903 78.362 217.129C77.7288 222.753 77.5173 223.832 77.0092 224.026C76.4525 224.239 64.2371 226.631 60.5822 227.243C59.7034 227.391 58.9604 227.562 58.9309 227.624C58.9015 227.686 59.8263 232.87 60.9859 239.144C62.1456 245.418 63.2868 251.662 63.5217 253.02C63.7568 254.377 64.0055 255.641 64.0743 255.829C64.174 256.102 68.4704 254.601 85.0995 248.486L105.999 240.8L105.846 239.621C105.48 236.796 105.125 230.059 105.201 227.346C105.772 206.798 113.894 187.453 128.21 172.544C141.153 159.065 158.613 150.283 177.201 147.902C207.68 143.998 237.947 157.451 255.092 182.522L257.289 185.735L278.205 178.201C292.621 173.009 299.09 170.578 299.018 170.382C298.853 169.926 284.935 145.47 284.809 145.411C284.746 145.383 284.066 145.729 283.298 146.181C280.133 148.045 269.208 154.082 268.6 154.304C268.16 154.464 267.807 154.363 267.53 153.999C266.721 152.936 260.537 147.155 257.726 144.836C254.789 142.413 251.44 139.906 248.913 138.238C248.121 137.716 247.482 137.116 247.49 136.904C247.499 136.692 248.173 134.731 248.987 132.547C253.364 120.808 253.883 119.194 253.354 118.975C251.797 118.329 206.889 102.609 206.592 102.605C206.396 102.602 204.777 106.594 202.995 111.475L199.755 120.35L195.65 120.052C189.571 119.612 182.95 119.731 176.054 120.406L174.77 120.531L171.5 111.548L168.23 102.565L144.462 111.216L120.693 119.867L123.963 128.85ZM162.573 176.236C142.455 185.811 129.453 205.536 128.856 227.386C128.808 229.153 128.841 231.041 128.929 231.582L129.088 232.567L133.268 230.96L137.448 229.353L137.476 227.491C137.592 219.929 140.272 210.563 144.163 204.129C150.577 193.521 159.074 186.456 170.353 182.35C186.264 176.559 203.053 178.885 216.89 188.796C219.126 190.399 223.996 194.848 225.217 196.405L225.923 197.305L230.186 195.754C232.53 194.901 234.435 194.173 234.42 194.136C234.277 193.799 231.781 190.782 230.335 189.199C221.99 180.061 209.515 173.398 197.048 171.42C192.127 170.64 187.76 170.496 181.842 170.92C176.833 171.279 167.688 173.802 162.573 176.236ZM75.4447 287.068C75.6788 287.711 89.534 312.131 89.7109 312.212C89.8023 312.254 93.4613 310.273 97.8422 307.809C102.223 305.345 106.018 303.296 106.277 303.255C106.544 303.213 107.724 304.155 109.015 305.442C113.925 310.334 118.717 314.316 124.377 318.209L127.16 320.123L126.525 321.943C126.176 322.944 124.939 326.382 123.777 329.584C121.052 337.093 120.788 337.948 121.115 338.204C121.577 338.564 167.709 354.753 168.075 354.683C168.374 354.626 170.242 349.689 173.729 339.736L174.691 336.99L178.491 337.247C184.893 337.681 191.995 337.575 198.375 336.95L199.659 336.824L202.929 345.807L206.198 354.79L229.967 346.139L253.736 337.488L250.466 328.505L247.196 319.522L248.136 318.878C248.653 318.524 249.779 317.759 250.64 317.177C253.613 315.167 259.374 310.364 262.952 306.913C264.927 305.008 266.77 303.302 267.049 303.121C267.42 302.88 267.93 303.021 268.964 303.652C269.738 304.125 273.286 306.132 276.846 308.111C280.407 310.091 283.446 311.8 283.599 311.91C283.886 312.116 284.343 311.386 288.715 303.744C290.135 301.26 294.019 294.516 297.345 288.756C310.02 266.809 309.105 268.533 308.331 268.047C307.956 267.811 304.543 265.858 300.747 263.705C296.951 261.553 293.526 259.601 293.137 259.367C292.441 258.95 292.442 258.888 293.21 256.09C294.829 250.19 296.136 242.611 296.555 236.705L296.769 233.681L306.153 231.907C311.313 230.931 315.568 230.065 315.608 229.981C315.687 229.815 310.59 202.175 310.367 201.563C310.25 201.242 307.033 202.359 289.347 208.863L268.464 216.543L268.741 218.911C270.562 234.48 267.859 249.737 260.701 264.305C247.481 291.212 220.414 308.722 190.015 310.033C163.108 311.194 136.521 298.452 120.886 276.902C119.568 275.085 118.201 273.148 117.849 272.597L117.208 271.596L96.2577 279.142C78.5136 285.534 75.3278 286.746 75.4447 287.068ZM140.702 263.925C141.401 265.099 144.994 269.115 147.093 271.069C152.893 276.467 160.463 280.947 168.428 283.694C185.886 289.715 206.727 286.388 221.849 275.164C234.868 265.501 243.265 251.236 245.253 235.409C245.58 232.797 245.822 225.453 245.601 224.845C245.577 224.78 243.64 225.424 241.295 226.277L237.033 227.829L237.071 228.973C237.136 230.951 236.266 237.489 235.582 240.154C233.556 248.054 230.441 254.099 225.069 260.556C217.094 270.143 204.353 276.716 191.426 277.914C178.398 279.121 164.66 274.805 154.935 266.447C152.898 264.698 150.035 261.849 148.903 260.446C148.602 260.073 148.12 260.19 144.381 261.552L140.195 263.075L140.702 263.925Z"/>
</mask>
<path fill-rule="evenodd" clip-rule="evenodd" d="M123.963 128.85L127.232 137.833L126.168 138.564C120.314 142.585 116.156 145.962 111.024 150.863L107.206 154.509L105.677 153.702C104.836 153.258 101.15 151.208 97.4843 149.148C93.8186 147.087 90.711 145.44 90.5778 145.489C90.4448 145.537 89.2369 147.513 87.8934 149.879C86.5503 152.245 84.2387 156.268 82.7567 158.818C81.2748 161.368 79.6309 164.203 79.1036 165.12C72.1509 177.201 69.1847 182.362 67.4845 185.335L65.4511 188.89L66.3013 189.393C66.7687 189.67 70.3366 191.683 74.2298 193.866C78.1229 196.049 81.4865 197.957 81.7044 198.106C81.9863 198.298 81.9334 198.954 81.521 200.383C80.1545 205.117 79.0631 210.903 78.362 217.129C77.7288 222.753 77.5173 223.832 77.0092 224.026C76.4525 224.239 64.2371 226.631 60.5822 227.243C59.7034 227.391 58.9604 227.562 58.9309 227.624C58.9015 227.686 59.8263 232.87 60.9859 239.144C62.1456 245.418 63.2868 251.662 63.5217 253.02C63.7568 254.377 64.0055 255.641 64.0743 255.829C64.174 256.102 68.4704 254.601 85.0995 248.486L105.999 240.8L105.846 239.621C105.48 236.796 105.125 230.059 105.201 227.346C105.772 206.798 113.894 187.453 128.21 172.544C141.153 159.065 158.613 150.283 177.201 147.902C207.68 143.998 237.947 157.451 255.092 182.522L257.289 185.735L278.205 178.201C292.621 173.009 299.09 170.578 299.018 170.382C298.853 169.926 284.935 145.47 284.809 145.411C284.746 145.383 284.066 145.729 283.298 146.181C280.133 148.045 269.208 154.082 268.6 154.304C268.16 154.464 267.807 154.363 267.53 153.999C266.721 152.936 260.537 147.155 257.726 144.836C254.789 142.413 251.44 139.906 248.913 138.238C248.121 137.716 247.482 137.116 247.49 136.904C247.499 136.692 248.173 134.731 248.987 132.547C253.364 120.808 253.883 119.194 253.354 118.975C251.797 118.329 206.889 102.609 206.592 102.605C206.396 102.602 204.777 106.594 202.995 111.475L199.755 120.35L195.65 120.052C189.571 119.612 182.95 119.731 176.054 120.406L174.77 120.531L171.5 111.548L168.23 102.565L144.462 111.216L120.693 119.867L123.963 128.85ZM162.573 176.236C142.455 185.811 129.453 205.536 128.856 227.386C128.808 229.153 128.841 231.041 128.929 231.582L129.088 232.567L133.268 230.96L137.448 229.353L137.476 227.491C137.592 219.929 140.272 210.563 144.163 204.129C150.577 193.521 159.074 186.456 170.353 182.35C186.264 176.559 203.053 178.885 216.89 188.796C219.126 190.399 223.996 194.848 225.217 196.405L225.923 197.305L230.186 195.754C232.53 194.901 234.435 194.173 234.42 194.136C234.277 193.799 231.781 190.782 230.335 189.199C221.99 180.061 209.515 173.398 197.048 171.42C192.127 170.64 187.76 170.496 181.842 170.92C176.833 171.279 167.688 173.802 162.573 176.236ZM75.4447 287.068C75.6788 287.711 89.534 312.131 89.7109 312.212C89.8023 312.254 93.4613 310.273 97.8422 307.809C102.223 305.345 106.018 303.296 106.277 303.255C106.544 303.213 107.724 304.155 109.015 305.442C113.925 310.334 118.717 314.316 124.377 318.209L127.16 320.123L126.525 321.943C126.176 322.944 124.939 326.382 123.777 329.584C121.052 337.093 120.788 337.948 121.115 338.204C121.577 338.564 167.709 354.753 168.075 354.683C168.374 354.626 170.242 349.689 173.729 339.736L174.691 336.99L178.491 337.247C184.893 337.681 191.995 337.575 198.375 336.95L199.659 336.824L202.929 345.807L206.198 354.79L229.967 346.139L253.736 337.488L250.466 328.505L247.196 319.522L248.136 318.878C248.653 318.524 249.779 317.759 250.64 317.177C253.613 315.167 259.374 310.364 262.952 306.913C264.927 305.008 266.77 303.302 267.049 303.121C267.42 302.88 267.93 303.021 268.964 303.652C269.738 304.125 273.286 306.132 276.846 308.111C280.407 310.091 283.446 311.8 283.599 311.91C283.886 312.116 284.343 311.386 288.715 303.744C290.135 301.26 294.019 294.516 297.345 288.756C310.02 266.809 309.105 268.533 308.331 268.047C307.956 267.811 304.543 265.858 300.747 263.705C296.951 261.553 293.526 259.601 293.137 259.367C292.441 258.95 292.442 258.888 293.21 256.09C294.829 250.19 296.136 242.611 296.555 236.705L296.769 233.681L306.153 231.907C311.313 230.931 315.568 230.065 315.608 229.981C315.687 229.815 310.59 202.175 310.367 201.563C310.25 201.242 307.033 202.359 289.347 208.863L268.464 216.543L268.741 218.911C270.562 234.48 267.859 249.737 260.701 264.305C247.481 291.212 220.414 308.722 190.015 310.033C163.108 311.194 136.521 298.452 120.886 276.902C119.568 275.085 118.201 273.148 117.849 272.597L117.208 271.596L96.2577 279.142C78.5136 285.534 75.3278 286.746 75.4447 287.068ZM140.702 263.925C141.401 265.099 144.994 269.115 147.093 271.069C152.893 276.467 160.463 280.947 168.428 283.694C185.886 289.715 206.727 286.388 221.849 275.164C234.868 265.501 243.265 251.236 245.253 235.409C245.58 232.797 245.822 225.453 245.601 224.845C245.577 224.78 243.64 225.424 241.295 226.277L237.033 227.829L237.071 228.973C237.136 230.951 236.266 237.489 235.582 240.154C233.556 248.054 230.441 254.099 225.069 260.556C217.094 270.143 204.353 276.716 191.426 277.914C178.398 279.121 164.66 274.805 154.935 266.447C152.898 264.698 150.035 261.849 148.903 260.446C148.602 260.073 148.12 260.19 144.381 261.552L140.195 263.075L140.702 263.925Z" stroke="white" stroke-width="4" mask="url(#path-2-inside-2_738_15972)"/>
</g>
</svg>
