<svg width="70" height="70" viewBox="0 0 70 70" fill="none" xmlns="http://www.w3.org/2000/svg">
<path fill-rule="evenodd" clip-rule="evenodd" d="M8.13477 0.19609C7.13822 0.638922 6.83594 1.32552 6.83594 3.14607V4.49384L4.19357 4.53855C1.6368 4.58162 1.53508 4.59419 1.04713 4.92492C0.185117 5.50912 -0.000273172 6.09304 0.00205105 8.21519C0.00410183 10.1753 0.090508 10.5226 0.685508 10.9642C0.87459 11.1045 2.4742 11.5901 4.2402 12.0433C6.00619 12.4965 7.7741 12.9585 8.16895 13.0699L8.88672 13.2724V14.4913C8.88672 16.168 8.82902 16.1359 11.8415 16.1359C14.8025 16.1359 14.7459 16.1683 14.7976 14.4404L14.834 13.2235L18.6988 12.2328C20.8245 11.688 22.7214 11.1388 22.9143 11.0123C23.4985 10.6295 23.6523 10.0333 23.6523 8.15107C23.6523 7.21359 23.587 6.27337 23.5073 6.06173C23.2914 5.48929 22.5675 4.80365 22.0177 4.65093C21.7513 4.57683 20.4772 4.51599 19.1866 4.51558L16.8399 4.51476L16.794 2.97668C16.7413 1.21628 16.5374 0.761832 15.5799 0.273336C15.095 0.0260114 14.774 0.0034528 11.7975 0.00837467C9.39299 0.0123395 8.43801 0.0612848 8.13477 0.19609ZM58.839 0.207164C56.9129 0.62607 55.3745 1.50558 53.9772 2.98666C52.9918 4.03146 52.0986 5.62546 51.7422 6.9757C51.4313 8.15312 51.4239 10.3145 51.7266 11.4874C52.2171 13.3879 53.4501 15.3117 54.9279 16.4818C56.5942 17.8012 58.5617 18.4988 60.6348 18.5051C62.2844 18.51 63.255 18.286 64.8047 17.5424C67.0562 16.4621 68.8458 14.3751 69.5864 11.9659C70.4469 9.1673 69.86 6.01129 68.0302 3.59656C65.9779 0.888433 62.1677 -0.516762 58.839 0.207164ZM8.55463 1.72173C8.38975 1.88675 8.33984 2.23607 8.33984 3.22564V4.51476H11.8262H15.3125V3.22564C15.3125 2.23607 15.2626 1.88675 15.0977 1.72173C14.7764 1.40058 8.87592 1.40058 8.55463 1.72173ZM59.1309 1.66595C58.7549 1.73664 57.9322 2.04275 57.3027 2.34627C55.3461 3.28949 53.8763 5.03703 53.2365 7.18078C52.8579 8.44898 52.9137 10.4566 53.3631 11.7444C54.168 14.0503 55.8065 15.7055 58.1489 16.5788C59.1119 16.9378 59.4579 16.9969 60.6348 17.0036C61.5721 17.0089 62.2599 16.9344 62.8223 16.7665C66.1957 15.7597 68.5033 12.6698 68.494 9.17222C68.4849 5.73142 65.895 2.52523 62.4732 1.71873C61.5003 1.48945 60.1811 1.46867 59.1309 1.66595ZM60.4297 3.42101C60.2793 3.5714 60.1562 3.86931 60.1562 4.083C60.1562 4.42193 60.0823 4.4933 59.5752 4.643C58.6904 4.90427 58.1377 5.29966 57.7624 5.94005C56.8833 7.44013 57.7087 9.11166 59.5752 9.61123L60.1562 9.76681V11.2328V12.6987L59.7723 12.5887C59.2692 12.4444 58.5553 12.0724 58.4478 11.8985C58.33 11.7077 57.6484 11.7257 57.4492 11.9249C57.1908 12.1833 57.2569 12.68 57.5928 13.0032C57.9778 13.3735 59.106 13.9002 59.773 14.0212C60.2507 14.1078 60.2809 14.144 60.3199 14.6799C60.3548 15.1578 60.4123 15.2544 60.6847 15.293C61.1043 15.3523 61.272 15.1717 61.3729 14.5514C61.4485 14.0874 61.5051 14.0342 62.0787 13.8886C63.4073 13.5513 64.1211 12.64 64.1211 11.281C64.1211 10.0262 63.589 9.34203 62.1487 8.74511L61.3867 8.42929V7.22398C61.3867 5.85091 61.3978 5.84148 62.386 6.36744C62.7825 6.57853 63.1464 6.68285 63.3079 6.63171C63.64 6.52617 63.8872 6.08457 63.7879 5.77421C63.6949 5.48396 62.6903 4.84029 62.1387 4.71738C61.2526 4.52009 61.25 4.51804 61.25 3.98607C61.25 3.50755 61.0621 3.14757 60.8125 3.14757C60.7523 3.14757 60.5801 3.27062 60.4297 3.42101ZM59.519 6.1465C58.7679 6.60451 58.7416 7.48634 59.4679 7.86191C60.2376 8.2599 60.3088 8.1847 60.2645 7.02082C60.2425 6.44414 60.1631 5.95222 60.0879 5.92761C60.0127 5.90314 59.7568 6.00158 59.519 6.1465ZM1.80783 6.23154C1.52182 6.43183 1.50391 6.54326 1.50391 8.12591V9.80742L4.75098 10.6441C6.53693 11.1043 8.19793 11.5208 8.44238 11.5696L8.88672 11.6583V11.0308C8.88672 10.5503 8.94865 10.3702 9.15113 10.2617C9.30535 10.1793 10.4413 10.1202 11.8758 10.1202C14.6598 10.1202 14.7656 10.1556 14.7656 11.087C14.7656 11.399 14.8312 11.6241 14.922 11.6241C15.008 11.6241 16.6692 11.2149 18.6134 10.7148L22.1484 9.80537V8.18552C22.1484 6.74779 22.1177 6.53478 21.875 6.29211C21.6066 6.02373 21.4193 6.01867 11.8567 6.01867C3.25787 6.01867 2.07594 6.04369 1.80783 6.23154ZM61.3867 11.4163C61.3867 12.1322 61.4205 12.7179 61.4619 12.7179C61.6818 12.7179 62.3545 12.2696 62.4764 12.0418C62.8303 11.3805 62.6143 10.7409 61.9168 10.3851L61.3867 10.1146V11.4163ZM10.2834 13.0939L10.3223 14.5636L11.792 14.6024L13.2617 14.6412V13.1327V11.6241H11.7532H10.2446L10.2834 13.0939ZM44.4087 12.7862C44.1257 13.4074 44.4273 13.7698 45.3839 13.9579C45.8388 14.0475 46.21 14.1588 46.2088 14.2054C46.2075 14.252 37.3994 19.212 26.6351 25.2277C15.8709 31.2433 7.00342 36.2633 6.92973 36.3832C6.85604 36.5033 6.83648 36.7637 6.88625 36.9622C7.0268 37.5219 7.53539 37.5731 8.38277 37.1126C8.7727 36.9007 17.6043 31.9712 28.0083 26.1582C38.4125 20.3452 46.9487 15.589 46.9775 15.589C47.0065 15.589 46.9074 15.9119 46.7573 16.3068C46.32 17.4572 46.4383 17.9132 47.1741 17.9132C47.6913 17.9132 47.8637 17.6452 48.5979 15.7C49.2756 13.9046 49.3263 13.3888 48.844 13.2016C48.4277 13.0401 45.3713 12.4444 44.9587 12.4444C44.6708 12.4444 44.5225 12.5367 44.4087 12.7862ZM0.984375 14.2491C0.867754 14.3658 0.820313 15.198 0.820313 17.1246C0.820313 20.1911 0.89209 20.5122 1.71801 21.1422L2.23439 21.5362L11.6446 21.5732C20.8193 21.6091 21.0682 21.6032 21.5901 21.337C21.8846 21.1868 22.269 20.8626 22.4446 20.6165C22.7497 20.1887 22.7654 20.0478 22.8056 17.406C22.8519 14.3602 22.7979 14.0851 22.1534 14.0851C21.3752 14.0851 21.3281 14.256 21.3281 17.0814C21.3281 19.3944 21.3034 19.6706 21.0781 19.8744C20.8507 20.0802 20.0082 20.1007 11.791 20.1007C3.75771 20.1007 2.73 20.0768 2.539 19.8859C2.35949 19.7063 2.32422 19.2625 2.32422 17.1819C2.32422 15.1504 2.28512 14.6369 2.11135 14.389C1.87688 14.0542 1.25631 13.9772 0.984375 14.2491ZM43.2031 22.872L42.8613 23.0482L42.8255 28.4062L42.7898 33.7642L43.124 33.9831C43.5341 34.2519 43.9685 34.0714 44.1667 33.5503C44.2396 33.3586 44.2969 31.2241 44.2969 28.7024V24.1968L47.2021 24.2337L50.1074 24.2706L50.1439 27.8171C50.1755 30.8765 50.2113 31.3976 50.4044 31.6111C50.697 31.9344 51.0665 31.9248 51.4062 31.5851C51.6671 31.3242 51.6797 31.1294 51.6797 27.362C51.6797 23.6778 51.6622 23.3906 51.4186 23.0895L51.1573 22.7667L47.3512 22.7313C44.4556 22.7042 43.4632 22.738 43.2031 22.872ZM67.5351 27.5619L66.0682 29.0075L65.3975 28.3366C64.6166 27.5558 63.7634 27.2101 62.6172 27.2101C61.4012 27.2101 60.6126 27.5497 59.7219 28.4569C57.9171 30.2951 56.9788 33.5222 57.4216 36.3686L57.5962 37.4912L55.6422 39.4487L53.6881 41.4064L52.7864 40.6931C50.5563 38.9291 48.0486 37.804 45.2539 37.314C43.1625 36.9472 39.9611 37.1606 37.7781 37.8121L37.4799 37.9011L37.4363 34.8002C37.3956 31.9163 37.374 31.6858 37.1272 31.5055C36.7366 31.2202 29.1617 31.2202 28.7712 31.5056C28.5164 31.6919 28.5031 31.9683 28.4375 38.5125L28.3691 45.3253L27.9065 46.2122C26.6867 48.5505 26.2002 50.6342 26.1985 53.5284C26.197 55.7553 26.3357 56.6985 26.9425 58.587C29.3851 66.1906 37.1064 70.9926 44.981 69.8055C48.4496 69.2827 51.7107 67.6378 54.1795 65.1659C59.9982 59.3398 60.6311 50.2082 55.6723 43.6267L54.8045 42.4751L56.7697 40.5098L58.7351 38.5445L59.4115 38.7065C60.3966 38.9423 62.6579 38.9107 63.7546 38.6458C64.9264 38.3628 66.4401 37.6603 67.3529 36.976C69.5539 35.3261 69.7635 32.4534 67.8089 30.7268L67.1554 30.1495L68.5777 28.7002C69.4924 27.7683 70 27.1461 70 26.957C70 26.6091 69.5473 26.1163 69.2277 26.1163C69.1035 26.1163 68.342 26.7668 67.5351 27.5619ZM61.2977 29.0567C60.3444 29.6282 59.3575 31.3483 58.9843 33.089C58.7759 34.0611 58.723 35.9032 58.9004 36.0127C58.9616 36.0506 60.346 34.7461 61.9769 33.114L64.9421 30.1467L64.6341 29.7108C63.9136 28.6907 62.4024 28.3946 61.2977 29.0567ZM62.9789 34.2995L59.9934 37.2872L60.5192 37.3742C61.8533 37.5945 63.6832 37.2778 65.1465 36.5728C67.3881 35.4932 68.1563 34.0981 67.3682 32.538C67.1091 32.025 66.341 31.3116 66.048 31.3116C66.0021 31.3116 64.6209 32.6561 62.9789 34.2995ZM29.9414 37.8942V42.9729L31.2061 41.753C32.5187 40.4868 33.8216 39.5442 35.1709 38.8849L35.957 38.5007V35.6582V32.8155H32.9492H29.9414V37.8942ZM50.238 34.7918C49.828 35.2017 49.8136 35.5369 50.1858 36.01C50.7303 36.7025 51.8164 36.3086 51.8164 35.4185C51.8164 34.9363 51.3572 34.4562 50.8957 34.4562C50.7186 34.4562 50.4226 34.6072 50.238 34.7918ZM2.74436 38.6446C2.41965 39.0573 2.41322 39.0979 2.5952 39.5767C2.99291 40.6229 4.61057 40.0745 4.391 38.9679C4.2458 38.236 3.22355 38.0353 2.74436 38.6446ZM14.4922 38.6945C14.2226 38.9641 14.2188 39.1501 14.2188 51.9562C14.2188 64.7622 14.2226 64.9483 14.4922 65.2179C14.8328 65.5585 15.2016 65.5671 15.4964 65.2413C15.7035 65.0125 15.7227 63.9285 15.7227 52.4581V39.9249H18.6621H21.6016V42.0136C21.6016 44.3427 21.7107 44.7101 22.4023 44.7101C23.0781 44.7101 23.1055 44.5899 23.1055 41.6144C23.1055 38.9092 23.0986 38.8418 22.8015 38.6339C22.544 38.4534 21.9095 38.421 18.6316 38.421C14.9479 38.421 14.7528 38.4339 14.4922 38.6945ZM40.6738 38.7139C36.8089 39.2048 33.0963 41.3532 30.7124 44.4783C26.7617 49.6572 26.6137 56.7219 30.3428 62.1161C31.1738 63.3182 32.9587 65.0838 34.1629 65.8949C35.4359 66.7523 37.3998 67.6415 38.927 68.0518C40.1226 68.3731 40.5091 68.4111 42.5879 68.4111C44.6667 68.4111 45.0532 68.3731 46.2488 68.0518C50.3642 66.9462 53.7697 64.2644 55.7704 60.554C57.9335 56.5427 58.0956 51.5539 56.1992 47.3712C55.805 46.5022 54.5721 44.5518 54.0045 43.8996L53.7156 43.5675L52.2303 45.0482L50.7451 46.5288L51.2713 47.2258C51.9247 48.0914 52.6885 49.6899 53.009 50.8624C53.1899 51.5239 53.2505 52.2405 53.2459 53.6652C53.2403 55.4619 53.2126 55.6588 52.7935 56.878C51.7274 59.9799 49.4084 62.4372 46.4771 63.5707C45.0151 64.1362 43.8397 64.3082 41.9848 64.2285C39.241 64.1105 37.024 63.1357 35.0623 61.1847C32.8733 59.0077 31.8529 56.5561 31.8575 53.4854C31.8608 51.3509 32.42 49.4725 33.5913 47.662C35.0037 45.4786 37.3189 43.8137 39.9219 43.1099C41.2945 42.7387 44.0368 42.7744 45.459 43.182C46.6372 43.5195 48.255 44.3285 49.1165 45.0109L49.6516 45.4347L51.1427 43.9483L52.6336 42.462L52.2592 42.1429C51.5162 41.5099 49.6379 40.3277 48.7203 39.9155C46.2122 38.7889 43.3949 38.3682 40.6738 38.7139ZM41.0156 44.3858C39.1154 44.7451 37.4518 45.6461 36.0233 47.0893C34.1902 48.9414 33.3594 50.9689 33.3594 53.59C33.3594 55.1104 33.5895 56.1389 34.2327 57.4933C35.1623 59.4508 36.5645 60.8787 38.5212 61.8608C39.8014 62.5033 40.9363 62.7524 42.5934 62.7549C44.2504 62.7574 45.2088 62.5326 46.7578 61.778C47.6915 61.3232 48.1508 60.9808 49.0945 60.0362C51.1029 58.0255 51.9248 55.8896 51.7777 53.0632C51.675 51.0903 51.2127 49.7223 50.146 48.2352L49.6835 47.5905L48.1474 49.1309L46.6114 50.6714L46.9921 51.4846C47.3253 52.196 47.3729 52.4608 47.3724 53.5968C47.3718 54.7549 47.3301 54.9746 46.9879 55.6257C46.4507 56.6473 45.6725 57.4435 44.7597 57.9053C43.6718 58.4558 41.9922 58.5444 40.8451 58.1119C39.8132 57.7228 38.682 56.6861 38.1847 55.6736C37.8439 54.9794 37.8027 54.7484 37.8027 53.5284C37.8027 52.2329 37.8271 52.1164 38.2674 51.3043C38.8235 50.2789 39.5489 49.5913 40.5891 49.1035C41.2416 48.7976 41.5436 48.7433 42.5929 48.7433C43.696 48.7433 43.919 48.7881 44.672 49.1614L45.5157 49.5796L47.0549 48.0359C48.7996 46.2863 48.7754 46.5227 47.3033 45.6083C45.9977 44.7972 44.5862 44.3999 42.8613 44.3577C42.0342 44.3377 41.2036 44.3502 41.0156 44.3858ZM0.546875 45.6223C-0.00273411 45.8269 2.65415e-07 45.7763 2.65415e-07 55.5975V65.0657L0.303926 65.2785C0.705469 65.5598 0.901387 65.547 1.23047 65.2179C1.4983 64.9501 1.50391 64.7622 1.50391 55.9894V47.0343H4.44336H7.38281V55.9894C7.38281 64.7622 7.38842 64.9501 7.65625 65.2179C7.99682 65.5585 8.36568 65.5671 8.66045 65.2413C8.86648 65.0136 8.88672 64.1386 8.88672 55.4827C8.88672 46.809 8.86689 45.9575 8.66086 45.7863C8.48299 45.6387 7.61838 45.5931 4.59348 45.5722C2.48063 45.5577 0.659668 45.5802 0.546875 45.6223ZM21.7641 48.2701C21.1466 48.8454 21.5664 49.9054 22.4119 49.9054C22.8546 49.9054 23.3789 49.3731 23.3789 48.9237C23.3789 48.5598 22.7731 47.9913 22.3855 47.9913C22.2083 47.9913 21.9286 48.1168 21.7641 48.2701ZM41.4055 50.369C40.7401 50.6068 40.2062 51.04 39.7543 51.7093C38.7398 53.2112 39.2298 55.4231 40.7909 56.3882C42.3883 57.3758 44.4778 56.8942 45.4554 55.3129C45.8224 54.7191 45.8686 54.5266 45.8644 53.6075C45.8618 53.0376 45.7829 52.3928 45.6889 52.1746L45.5183 51.7779L44.2425 53.0291C43.3006 53.9528 42.8742 54.2804 42.614 54.2804C42.2558 54.2804 41.8359 53.8482 41.8359 53.4796C41.8359 53.3734 42.4014 52.7099 43.0927 52.005C43.8409 51.2419 44.2973 50.6762 44.2206 50.6066C43.7586 50.187 42.2673 50.0611 41.4055 50.369ZM21.8144 53.4906C21.6304 53.7531 21.6016 54.531 21.6016 59.2237C21.6016 62.3797 21.6568 64.7984 21.7335 65.0001C21.9084 65.4603 22.4792 65.6056 22.8375 65.2813C23.0956 65.0478 23.1055 64.8256 23.1055 59.2768C23.1055 54.9775 23.0638 53.4731 22.9414 53.3507C22.6695 53.0788 22.0489 53.1557 21.8144 53.4906Z" fill="white"/>
</svg>
