<svg width="41" height="50" viewBox="0 0 41 50" fill="none" xmlns="http://www.w3.org/2000/svg">
<path  fill-rule="evenodd" clip-rule="evenodd" d="M12.5407 2.47277C8.35122 3.81056 4.81812 4.98341 4.68921 5.07902C4.35649 5.32609 4.09341 5.86476 4.09341 6.29884C4.09341 6.66154 4.38237 7.36964 4.58032 7.49191C4.64204 7.53009 4.67935 8.30509 4.67935 9.54933V11.5455H4.44966C4.16655 11.5455 3.64312 11.8921 3.36997 12.2605C3.1898 12.5035 3.15845 12.7223 3.10474 14.1159C3.05669 15.3619 2.94829 16.239 2.59204 18.265C2.3436 19.6779 2.14097 20.9743 2.14185 21.1458C2.14448 21.6432 2.52105 22.2088 3.01587 22.4586C3.42466 22.665 3.57046 22.6782 5.40806 22.6762C7.60474 22.6737 7.96528 22.5916 8.38853 21.9972C8.75122 21.4879 8.73403 21.0588 8.23794 18.235C7.87505 16.1693 7.76206 15.2666 7.71626 14.0672C7.66489 12.7209 7.63315 12.5027 7.45356 12.2606C7.18042 11.8921 6.65708 11.5455 6.37388 11.5455H6.14419V9.78771C6.14419 8.23517 6.16255 8.0299 6.30181 8.0299C6.49536 8.0299 9.34956 8.50548 9.58657 8.57726C9.73979 8.62365 9.75757 8.78703 9.75806 10.1605C9.75864 11.8532 9.83462 12.2794 10.1967 12.6196L10.4411 12.8491V16.0728C10.4411 19.1153 10.4522 19.3194 10.6398 19.7069C10.8348 20.1097 11.3493 20.5443 11.7836 20.6732C11.9043 20.7089 12.0218 20.8342 12.0448 20.9515C12.5003 23.2809 13.2751 24.7706 14.7333 26.1206C15.3895 26.7282 15.4215 26.7783 15.4215 27.1974V27.6368L12.2079 29.7364L8.99419 31.836L7.25181 32.3443C5.35005 32.899 4.36392 33.3508 3.45366 34.084C2.29663 35.0162 1.35103 36.4952 0.95171 37.9977C0.790968 38.6023 0.750831 39.0782 0.738917 40.5214C0.724855 42.2289 0.732765 42.3085 0.937355 42.514C1.20903 42.7868 1.73394 42.7874 1.95444 42.5152C2.08101 42.3589 2.12232 41.9789 2.16509 40.5806C2.21138 39.0673 2.25132 38.7376 2.47124 38.0516C2.9065 36.6937 3.77212 35.5711 4.99165 34.7829C5.55718 34.4173 6.8313 33.9563 8.63911 33.463L9.22974 33.3018L12.5942 35.2999C14.4447 36.3988 16.9303 37.8758 18.1179 38.5819C19.3055 39.2881 20.3788 39.8658 20.5028 39.8658C20.6269 39.8658 23.214 38.3875 26.2521 36.5808L31.7756 33.2956L33.2421 33.7139C34.0487 33.9439 34.9723 34.2511 35.2946 34.3966C36.1249 34.7713 37.0167 35.4786 37.5452 36.1816C38.0978 36.9167 38.2827 37.2721 38.5731 38.1569C38.7893 38.8156 38.7989 38.986 38.8365 42.8521C38.8785 47.1623 38.855 47.4361 38.3971 47.9802C37.9612 48.4983 37.6894 48.5572 35.7372 48.5572H33.9762V46.9505C33.9762 45.2343 33.9149 44.9387 33.5214 44.7594C33.1868 44.6069 33.0623 44.6225 32.7687 44.8534L32.5114 45.0558V46.8066V48.5572H20.4997H8.48794V46.8066V45.0558L8.23062 44.8534C7.93706 44.6225 7.81255 44.6069 7.47788 44.7594C7.08442 44.9387 7.0231 45.2343 7.0231 46.9505V48.5572H5.26216C3.31089 48.5572 3.03804 48.4982 2.60337 47.9816C2.24946 47.561 2.14146 47.1083 2.14087 46.0426C2.14019 44.9996 2.00103 44.7486 1.423 44.7486C0.832179 44.7486 0.723878 44.9894 0.726612 46.2975C0.72837 47.1351 0.775538 47.5694 0.905714 47.9481C1.14068 48.6309 1.88169 49.4371 2.55337 49.7406L3.06802 49.9733H20.4997H37.9313L38.4459 49.7406C39.1152 49.4382 39.8577 48.6315 40.0959 47.9481C40.259 47.4801 40.275 47.0543 40.275 43.1861C40.275 38.3301 40.2433 38.0617 39.4913 36.5639C38.7314 35.0501 37.7041 34.0019 36.2296 33.2352C35.7954 33.0094 34.7687 32.6402 33.7436 32.3412L31.9973 31.8319L28.7875 29.7309L25.5778 27.6299V27.1939C25.5778 26.7792 25.6114 26.7268 26.2661 26.1206C27.7238 24.771 28.5 23.2787 28.9542 20.9526C28.9807 20.8168 29.1122 20.702 29.3192 20.6336C29.7 20.5079 30.3078 19.9133 30.4547 19.5226C30.52 19.3494 30.5583 18.0624 30.5583 16.0465C30.5583 12.9221 30.5631 12.8409 30.7626 12.6604C31.1514 12.3085 31.1914 12.114 31.2415 10.3282L31.2907 8.57374L33.5368 8.20031C34.8093 7.98869 35.9293 7.75119 36.1208 7.65226C37.1113 7.14054 37.1241 5.46593 36.1414 4.96408C35.6405 4.70822 20.729 0.0221812 20.4447 0.0312632C20.2869 0.0362437 16.7301 1.13497 12.5407 2.47277ZM12.957 3.86232C8.88911 5.16085 5.57466 6.2672 5.59155 6.32091C5.60855 6.37462 5.72876 6.43312 5.85884 6.45089C5.98892 6.46857 7.09741 6.65509 8.32212 6.86525L10.549 7.24738L14.8496 6.71085C18.1691 6.29679 19.4543 6.17443 20.484 6.17443C21.839 6.17443 24.9235 6.48859 25.3985 6.67501C25.7431 6.81027 25.9373 7.26915 25.7882 7.5963C25.578 8.05773 25.3433 8.08253 23.4286 7.84523C20.828 7.52287 19.9091 7.55451 15.3109 8.12423C13.1285 8.39455 11.3157 8.61583 11.2826 8.61583C11.2495 8.61583 11.2223 9.29699 11.2223 10.1295V11.6432H20.4997H29.777V10.1295C29.777 8.98468 29.7472 8.61535 29.6549 8.61388C29.5878 8.61281 29.2252 8.56857 28.8493 8.51544C28.3532 8.44542 28.1188 8.36271 27.9948 8.21359C27.7669 7.93976 27.7783 7.48956 28.0192 7.24865C28.2432 7.02462 28.5797 7.00529 29.7371 7.14982C30.4487 7.23869 30.7009 7.21339 32.944 6.82853C34.283 6.59874 35.3923 6.36857 35.4091 6.31701C35.4362 6.23361 21.0332 1.59132 20.5485 1.52716C20.4411 1.513 17.0249 2.56378 12.957 3.86232ZM4.58169 13.694V14.3776H5.41177H6.24185V13.694V13.0104H5.41177H4.58169V13.694ZM11.8083 14.2799V15.4518H12.3867C12.8666 15.4518 13.0164 15.4087 13.2656 15.1989C13.562 14.9496 13.5661 14.9334 13.5661 14.0271V13.108H12.6872H11.8083V14.2799ZM15.0309 14.1143C15.0309 15.0025 15.0011 15.1803 14.7767 15.6307C14.3489 16.4892 13.5691 16.9166 12.4307 16.9166H11.8083L11.8097 17.8199C11.8115 18.9372 11.9093 19.1512 12.4966 19.3214C13.1789 19.5192 13.3521 19.7698 13.5189 20.8011C13.8026 22.5554 14.3627 23.6688 15.5685 24.8748C17.8687 27.176 21.2719 27.5938 24.1439 25.9275C24.8803 25.5002 26.095 24.285 26.5423 23.5278C26.9992 22.7547 27.3112 21.8479 27.4804 20.8011C27.6472 19.7698 27.8205 19.5192 28.5027 19.3214C29.09 19.1512 29.1878 18.9372 29.1896 17.8199L29.1911 16.9166H28.5686C27.4302 16.9166 26.6504 16.4892 26.2226 15.6307C25.9982 15.1803 25.9684 15.0025 25.9684 14.1143V13.108H20.4997H15.0309V14.1143ZM27.4364 14.0113C27.4405 15.2076 27.6374 15.4518 28.5987 15.4518H29.0934V14.2799V13.108H28.2633H27.4333L27.4364 14.0113ZM4.43843 16.0621C4.35337 16.441 3.60513 20.9524 3.60513 21.0861C3.60513 21.1862 3.99175 21.2135 5.41177 21.2135C7.06733 21.2135 7.21841 21.1992 7.21831 21.0426C7.21821 20.8751 6.48667 16.4944 6.38667 16.0621C6.33833 15.8533 6.2898 15.8424 5.41177 15.8424C4.53325 15.8424 4.4853 15.8532 4.43843 16.0621ZM16.9104 28.8394C16.9585 29.9694 17.2042 31.5225 17.3607 31.6851C17.5083 31.8385 19.0588 31.9881 20.4997 31.9881C21.9405 31.9881 23.4911 31.8385 23.6386 31.6851C23.7951 31.5225 24.0408 29.9694 24.0889 28.8394C24.1383 27.6796 24.1326 27.6305 23.9558 27.6995C21.5651 28.6344 19.4342 28.6344 17.0435 27.6995C16.8667 27.6305 16.861 27.6796 16.9104 28.8394ZM13.1754 30.8443C11.9669 31.6282 10.9241 32.3206 10.858 32.3829C10.7651 32.4703 11.5664 32.9887 14.3736 34.6572C16.3733 35.8458 18.0229 36.8058 18.0394 36.7903C18.0558 36.7749 17.8838 36.4609 17.6572 36.0924C16.7009 34.5378 15.9188 32.461 15.654 30.7728C15.5664 30.2149 15.4673 29.682 15.4337 29.5887C15.3827 29.4467 15.0125 29.6526 13.1754 30.8443ZM25.5408 29.6323C25.5173 29.7554 25.4282 30.284 25.3426 30.807C25.0619 32.5245 24.3014 34.5337 23.3422 36.0924C23.1156 36.4609 22.9435 36.7758 22.96 36.7923C22.9764 36.8088 24.627 35.8498 26.6279 34.6612C29.4806 32.9666 30.2394 32.4752 30.1434 32.3841C30.0446 32.2902 26.1337 29.7314 25.7027 29.4785C25.6264 29.4338 25.5681 29.4891 25.5408 29.6323ZM18.111 33.8365C18.2487 34.118 18.4544 34.524 18.5681 34.7389C18.8946 35.3561 20.4259 37.7174 20.4997 37.7174C20.6161 37.7174 22.2135 35.1652 22.6844 34.2273L23.1373 33.3249L22.2335 33.3972C21.0847 33.4889 19.9144 33.4889 18.7651 33.3971L17.8607 33.3248L18.111 33.8365Z" fill="white"/>
</svg>
