<svg width="49" height="50" viewBox="0 0 49 50" fill="none" xmlns="http://www.w3.org/2000/svg">
<path fill-rule="evenodd" clip-rule="evenodd" d="M27.0975 0.137732C26.2087 0.466833 25.1872 1.93363 24.9881 3.16693C24.9365 3.48597 24.9217 4.19369 24.9551 4.73949C25.0078 5.60101 24.9919 5.7724 24.8342 6.0392C24.7344 6.20814 24.6205 6.34642 24.5809 6.34642C24.5414 6.34642 24.2458 6.03363 23.924 5.65131L23.3388 4.95629L23.5313 4.69593C23.7697 4.37357 23.8626 3.83861 23.737 3.51185C23.5913 3.13285 22.3558 1.66634 22.0482 1.50726C21.5542 1.25179 21.0572 1.32504 20.523 1.73217C19.0352 2.86595 3.56853 15.9894 3.45007 16.2187C3.25837 16.5893 3.27214 17.1801 3.47976 17.4863C3.57331 17.6244 3.91111 18.0524 4.23025 18.4374C4.96491 19.324 5.38806 19.5232 6.04802 19.2933C6.28669 19.2102 6.50622 19.1416 6.53581 19.1409C6.65456 19.1376 7.71023 20.5131 7.65613 20.6006C7.62419 20.6524 7.43738 20.739 7.24099 20.7932C6.9615 20.8704 6.72312 20.8507 6.14275 20.7026C4.53991 20.2933 3.67488 20.351 2.45896 20.9482C1.58982 21.375 1.11472 21.8964 0.958371 22.5951C0.74841 23.5331 0.927317 23.8554 2.94255 26.1706C5.13689 28.6915 6.88347 29.7246 9.16755 29.8529C10.6043 29.9335 11.4834 29.7326 14.8316 28.5578C16.0476 28.1311 16.2259 28.0944 17.1265 28.085C17.8907 28.0772 18.1719 28.1125 18.4196 28.2479C18.8556 28.4862 19.0814 28.8663 19.0708 29.3444C19.0597 29.838 18.8272 30.2076 18.4 30.4103C17.8249 30.6832 17.5921 30.6185 17.0247 30.0281C16.4922 29.4739 16.3373 29.4113 15.9726 29.6033C15.69 29.752 15.6162 29.8758 15.6143 30.2038C15.6107 30.8787 16.4704 31.7503 17.3297 31.9426C18.622 32.2319 20.0261 31.4088 20.4152 30.1339C20.4658 29.9683 20.5078 29.5538 20.5087 29.213L20.5102 28.5932L21.6992 28.6545C22.3532 28.6882 23.2947 28.6801 23.7916 28.6364C24.2885 28.5926 24.6949 28.5678 24.6949 28.5811C24.6949 28.5944 24.574 28.7959 24.4263 29.029C24.2787 29.2621 23.4766 31.1345 22.6441 33.1899L21.1304 36.927L13.4038 42.8713C9.15417 46.1407 5.64948 48.8876 5.6157 48.9757C5.49968 49.2782 5.55466 49.5198 5.79402 49.759L6.03366 49.9988H14.9422H23.8507L24.5657 49.2836C25.3668 48.4826 25.454 48.2099 25.0411 47.7971C24.6711 47.4271 24.3671 47.4869 23.7757 48.0462L23.2587 48.5352L15.8718 48.5101L8.48493 48.4851L15.2634 43.2755C18.9915 40.4103 22.1259 37.9713 22.2288 37.8556C22.3317 37.7399 23.0468 36.0852 23.8177 34.1785C24.5887 32.2717 25.3219 30.4782 25.447 30.1927C25.6217 29.7944 25.9634 29.3914 26.9181 28.4586C28.3486 27.0608 28.9407 26.6922 29.5895 26.7959C30.3282 26.9141 30.4555 27.0286 33.2216 30.0602C34.0716 30.9918 34.0961 31.2505 33.4003 31.9463C32.9963 32.3503 32.8699 32.4206 32.5477 32.4206C32.2008 32.4206 32.1033 32.3518 31.3692 31.589C30.8937 31.095 30.3974 30.6796 30.1465 30.5658C29.3951 30.2248 28.5456 30.3543 27.9693 30.8979C27.6567 31.1927 27.6246 31.2726 27.6246 31.7553C27.6246 32.4314 27.394 33.2229 27.03 33.7964C26.6674 34.3677 26.6585 34.7793 27.003 35.0502C27.1445 35.1616 27.3363 35.2527 27.4293 35.2527C27.6884 35.2527 28.085 34.8955 28.3744 34.4018L28.6357 33.9557L28.8123 34.1737C29.3683 34.8605 34.7535 42.2863 34.7535 42.3663C34.7535 42.5076 33.8684 43.1333 33.3346 43.3695C32.9595 43.5354 32.4226 43.6078 30.4685 43.7562C29.1461 43.8566 28.0049 43.9399 27.9325 43.9413C27.7358 43.9454 26.4459 45.2191 26.3048 45.5486C26.089 46.0521 26.4471 46.5808 27.0039 46.5808C27.0872 46.5808 27.4476 46.3015 27.805 45.9601L28.4547 45.3394L30.359 45.2225C31.4063 45.1582 32.3782 45.0838 32.5186 45.0572C32.7365 45.0157 32.782 45.0488 32.8288 45.2823C32.8776 45.5266 33.9636 47.3995 34.7042 48.5165C35.2338 49.3152 36.3065 49.5682 37.0433 49.0682C37.8549 48.5175 47.7507 40.1084 47.876 39.863C48.1968 39.235 48.1498 38.5391 47.752 38.031C47.4734 37.6752 45.0652 35.5805 44.7432 35.4141C44.3065 35.1882 43.5704 35.2067 43.1653 35.4537C42.9847 35.5637 42.8277 35.6405 42.8165 35.6242C42.8052 35.6078 42.6784 35.389 42.5346 35.1378C42.2383 34.6201 41.6902 34.1292 41.2441 33.982C40.9443 33.883 40.9426 33.8787 40.9849 33.2953C41.0421 32.5045 40.8611 31.9223 40.3926 31.3902C39.9556 30.8937 39.4512 30.6003 38.8763 30.5084C38.4954 30.4475 38.4883 30.4386 38.4314 29.9587C38.3161 28.9855 37.5734 28.1371 36.5961 27.8622C36.0493 27.7084 36.0457 27.7049 35.9864 27.272C35.9008 26.6472 35.616 26.0636 35.1993 25.659C34.6364 25.1123 34.2272 24.9531 33.3863 24.9535C32.6012 24.9538 32.2895 25.0677 31.6089 25.6025L31.2474 25.8866L30.8433 25.6804C30.6211 25.567 30.1879 25.4299 29.8806 25.3758L29.3219 25.2774L29.5833 24.2786C29.727 23.7291 29.9478 22.6081 30.0739 21.7874L30.3031 20.2953L30.5996 20.3741C30.7627 20.4174 31.1817 20.4516 31.5308 20.4499C32.9653 20.4431 34.0286 19.4458 34.1448 17.9982C34.187 17.4723 34.1568 17.3128 33.9258 16.8408C33.6335 16.2431 33.0317 15.7214 32.6348 15.7214C32.3258 15.7214 31.9215 16.1362 31.9215 16.4533C31.9215 16.6189 32.0558 16.8374 32.3121 17.0886C32.6259 17.3962 32.7027 17.5412 32.7027 17.8265C32.7027 19.2078 30.7834 19.4976 30.3491 18.1819C30.0662 17.3245 30.4177 16.1608 31.5791 14.1101C33.1825 11.2787 33.6838 9.75463 33.5463 8.12826C33.3714 6.05902 32.6395 4.64427 30.301 1.85482C29.4774 0.8724 28.9752 0.357361 28.7247 0.23822C28.2358 0.00589572 27.5653 -0.0355105 27.0975 0.137732ZM27.1855 1.86674C26.5098 2.61449 26.4002 2.99301 26.4304 4.47269C26.4594 5.89681 26.3814 6.34271 26.0156 6.84437C25.4939 7.55951 25.4931 7.54193 26.0803 8.22074C27.669 10.0571 28.8846 12.1093 29.4387 13.8904C29.5347 14.1992 29.6383 14.4519 29.6689 14.4519C29.7789 14.4519 31.3465 11.5381 31.6233 10.8193C32.3951 8.81488 32.2351 7.17416 31.0819 5.26654C30.6576 4.56468 28.4963 1.86429 28.1358 1.58568C27.8499 1.36468 27.5623 1.44965 27.1855 1.86674ZM13.0738 9.87084C8.53523 13.6885 4.81325 16.8205 4.8028 16.831C4.79236 16.8414 4.99011 17.0794 5.24226 17.3598L5.70075 17.8697L6.85261 16.8891C7.48611 16.3498 8.11237 15.8675 8.24421 15.8174C8.54177 15.7042 8.92204 15.8358 9.06394 16.1009C9.29714 16.5367 9.19245 16.7595 8.43513 17.44C8.0323 17.802 7.70271 18.1273 7.70271 18.1629C7.70271 18.3168 11.4781 22.6958 12.1587 23.3315C13.9479 25.0025 16.481 26.3036 19.0227 26.8573C20.9573 27.2787 22.8325 27.324 25.3498 27.0099L26.4441 26.8734L27.0347 26.3534C27.3596 26.0674 27.6452 25.7665 27.6693 25.6847C28.5089 22.835 28.6467 22.2094 28.8073 20.5178C29.0613 17.8421 28.4774 14.8311 27.2357 12.4138C26.6237 11.2223 25.9485 10.3042 23.8687 7.83558L22.2124 5.86957L21.7203 6.28558C20.6039 7.22933 12.5871 13.9598 12.0127 14.4357C11.4834 14.8741 11.3396 14.9462 11.0458 14.9209C10.5761 14.8807 10.2769 14.4928 10.4093 14.0958C10.4757 13.8966 12.169 12.4157 16.3534 8.8975C19.5716 6.19164 22.2168 3.94691 22.2316 3.90922C22.2627 3.83041 21.4886 2.92816 21.3907 2.92904C21.355 2.92933 17.6124 6.05316 13.0738 9.87084ZM23.4254 13.9669C23.2911 14.0053 22.6156 14.3892 21.9243 14.8199L20.6674 15.603L19.2475 14.9786C18.4667 14.6352 17.701 14.3542 17.546 14.3542C17.1627 14.3542 16.7847 14.7445 16.7847 15.1404C16.7847 15.309 16.9392 16.0879 17.1281 16.8712L17.4714 18.2954L17.2416 18.5465C15.67 20.2637 15.3199 20.7261 15.3199 21.0848C15.3199 21.3464 15.3883 21.5133 15.5624 21.6769C15.7821 21.8832 15.9578 21.9168 17.4325 22.0341C18.3277 22.1053 19.0682 22.1752 19.078 22.1896C19.0878 22.2038 19.3967 22.7378 19.7643 23.3762C20.6517 24.9169 20.8085 25.0964 21.267 25.0964C21.4668 25.0964 21.7057 25.0411 21.7981 24.9737C21.9452 24.8661 23.1324 22.1953 23.1324 21.972C23.1324 21.8641 23.1868 21.8491 24.8902 21.4861C26.4726 21.1488 26.7457 20.9839 26.7457 20.3655C26.7457 19.9668 26.6641 19.8732 25.3785 18.7949C24.8145 18.3218 24.3187 17.9056 24.2767 17.87C24.2348 17.8343 24.2741 17.0745 24.364 16.1817C24.5138 14.6958 24.5145 14.5381 24.3723 14.3211C24.1833 14.0326 23.7553 13.8725 23.4254 13.9669ZM21.9648 16.5102C21.3416 16.9011 20.9422 17.0886 20.7327 17.0886C20.5622 17.0886 20.0181 16.909 19.5236 16.6896C19.0292 16.4701 18.6014 16.3135 18.5733 16.3417C18.5451 16.37 18.6342 16.8604 18.7713 17.4316C18.9569 18.2051 18.9966 18.5332 18.9264 18.7176C18.8747 18.8537 18.5255 19.305 18.1504 19.7204C17.7753 20.1359 17.4683 20.5004 17.4683 20.5306C17.4683 20.5608 17.9408 20.617 18.5181 20.6556C19.0955 20.6942 19.6778 20.7823 19.8121 20.8514C19.9556 20.9252 20.2774 21.3624 20.5933 21.9129C20.8887 22.4277 21.156 22.8492 21.1872 22.8495C21.2184 22.85 21.4132 22.4229 21.6199 21.9005C21.8266 21.3781 22.0913 20.8552 22.208 20.7385C22.3321 20.6144 22.6591 20.4777 22.996 20.4089C23.3127 20.3443 23.8065 20.2391 24.0932 20.1751L24.6146 20.0588L23.7287 19.3053C23.1998 18.8555 22.8177 18.4522 22.7806 18.3045C22.7466 18.1685 22.7678 17.5904 22.828 17.0198C22.8883 16.4492 22.9261 15.9709 22.9123 15.9571C22.8984 15.9432 22.472 16.1921 21.9648 16.5102ZM8.23982 21.955C7.59724 22.2954 6.60232 22.3587 5.78493 22.1113C5.47009 22.016 4.88259 21.9351 4.47947 21.9316C3.86511 21.9262 3.65515 21.9699 3.18191 22.2014C2.48757 22.5411 2.25437 22.8473 2.41736 23.205C2.5947 23.5943 4.48318 25.7689 5.33991 26.5704C6.19548 27.3709 6.88493 27.8205 7.75818 28.1478C8.51775 28.4325 10.3444 28.4572 11.316 28.1959C12.1769 27.9645 14.8316 27.0263 14.8316 26.9535C14.8316 26.9212 14.6009 26.7815 14.3189 26.6428C12.8715 25.9309 10.9286 24.3199 9.59304 22.724C9.17927 22.2295 8.8153 21.796 8.78435 21.7607C8.75339 21.7253 8.50837 21.8128 8.23982 21.955ZM32.6807 26.6232C32.2525 26.9278 32.241 26.9009 33.2476 27.9437L33.9164 28.6364L34.1878 28.3114C34.5459 27.8825 34.6205 27.4544 34.4132 27.0177C34.1057 26.3698 33.2961 26.1853 32.6807 26.6232ZM35.3883 29.3122C34.8815 29.5934 34.8613 29.6538 35.1096 30.1444C35.3665 30.6518 35.405 31.2454 35.2219 31.8722C35.1414 32.148 34.9039 32.4763 34.4651 32.9182C33.535 33.8551 34.0288 33.616 35.1313 32.5954C36.7107 31.1335 36.9996 30.7953 36.9996 30.4071C36.9996 29.5275 36.1009 28.9169 35.3883 29.3122ZM29.0915 31.9568C29.0934 32.0716 35.5769 40.9977 35.8801 41.303C36.0035 41.4272 36.0638 41.4037 36.3601 41.1166L36.699 40.7881L36.2692 40.4098C35.6802 39.8914 35.3965 39.1446 35.4717 38.3106L35.5262 37.7064L35.2105 37.6022C34.4345 37.3461 33.7165 36.426 33.6134 35.5556C33.5798 35.2714 33.505 35.0574 33.4392 35.0574C33.3759 35.0574 33.0958 34.9896 32.8167 34.9067C32.2874 34.7495 31.7079 34.3138 31.4381 33.8701C31.3512 33.7273 30.9009 33.211 30.4375 32.7226C29.7989 32.0498 29.5335 31.8347 29.3421 31.8347C29.2031 31.8347 29.0904 31.8897 29.0915 31.9568ZM37.8297 32.1133C37.6685 32.2187 36.9756 32.8473 36.2896 33.5103C35.1195 34.6412 35.0427 34.7384 35.0445 35.0867C35.0471 35.5957 35.2671 35.9774 35.6673 36.1672C36.3653 36.4985 36.4988 36.431 38.1524 34.9109C39.376 33.786 39.5386 33.5639 39.5386 33.0174C39.5386 32.1725 38.5438 31.6461 37.8297 32.1133ZM39.8804 35.3716C39.5487 35.5636 37.3542 37.5871 37.1217 37.9155C36.6753 38.5456 37.0093 39.4693 37.7326 39.6049C38.055 39.6655 38.1396 39.6113 39.513 38.4642C41.4437 36.8514 41.3941 36.9058 41.3941 36.4019C41.3941 35.8947 41.1891 35.5724 40.7497 35.3888C40.3582 35.2252 40.1409 35.2209 39.8804 35.3716ZM39.0823 40.7272C36.4597 42.9326 34.2998 44.8004 34.2824 44.8782C34.2467 45.0371 35.9123 47.8167 36.086 47.8881C36.223 47.9443 46.6187 39.2201 46.6187 39.0489C46.6187 38.8764 44.2122 36.726 44.0139 36.7213C43.9241 36.7193 41.7049 38.5219 39.0823 40.7272Z" fill="white"/>
</svg>
