<svg width="50" height="50" viewBox="0 0 50 50" fill="none" xmlns="http://www.w3.org/2000/svg">
<g  clip-path="url(#clip0_580_3230)">
<path fill-rule="evenodd" clip-rule="evenodd" d="M9.61298 0.239746L9.37324 0.479395V5.0249C9.37324 9.39609 9.36621 9.57031 9.19101 9.57031C8.79208 9.57031 7.58125 10.2892 6.98964 10.8772C5.85957 12.0006 5.46972 13.1059 5.47011 15.1855C5.4705 17.0871 5.7623 18.1572 6.55263 19.1551L6.85058 19.5312H6.32324C3.67226 19.5312 1.31044 21.4796 0.877729 24.0234C0.805268 24.4494 0.77939 26.4091 0.799019 29.9805L0.828315 35.3027L1.1374 35.9551C1.55576 36.8382 2.11992 37.4242 2.95253 37.8408C3.32939 38.0293 3.71416 38.1836 3.80751 38.1836C3.92783 38.1836 3.99462 38.2901 4.0371 38.5498C4.13066 39.1223 4.61337 40.0396 5.11084 40.5905C5.36044 40.867 5.56464 41.1118 5.56464 41.1347C5.56464 41.1574 5.33398 41.2787 5.05195 41.4042C2.20712 42.6697 0.252437 45.498 0.0284131 48.6733C-0.0272509 49.4618 -0.0198291 49.5025 0.224116 49.7465C0.54814 50.0705 0.998335 50.0829 1.30507 49.7763C1.49023 49.5911 1.54003 49.4063 1.59394 48.7046C1.72705 46.973 2.39599 45.5344 3.65175 44.2785C4.53173 43.3985 5.36005 42.8855 6.5249 42.4992C7.17851 42.2824 7.44121 42.2509 8.59199 42.2509C9.74277 42.2509 10.0055 42.2824 10.6591 42.4992C11.8239 42.8855 12.6522 43.3985 13.5322 44.2785C14.788 45.5344 15.4569 46.973 15.59 48.7046C15.6648 49.6785 15.867 50 16.4045 50C16.942 50 17.1441 49.6785 17.2189 48.7046C17.352 46.973 18.021 45.5344 19.2768 44.2785C20.1567 43.3985 20.9851 42.8855 22.1499 42.4992C22.8035 42.2824 23.0662 42.2509 24.217 42.2509C25.3678 42.2509 25.6305 42.2824 26.2841 42.4992C27.4489 42.8855 28.2772 43.3985 29.1572 44.2785C30.413 45.5344 31.0819 46.973 31.215 48.7046C31.2898 49.6785 31.492 50 32.0295 50C32.567 50 32.7691 49.6785 32.8439 48.7046C32.977 46.973 33.646 45.5344 34.9018 44.2785C35.7817 43.3985 36.6101 42.8855 37.7749 42.4992C38.4285 42.2824 38.6912 42.2509 39.842 42.2509C40.9928 42.2509 41.2555 42.2824 41.9091 42.4992C43.0739 42.8855 43.9022 43.3985 44.7822 44.2785C46.038 45.5344 46.7069 46.973 46.84 48.7046C46.8939 49.4063 46.9437 49.5911 47.1289 49.7763C47.4356 50.0829 47.8858 50.0705 48.2099 49.7465C48.4538 49.5025 48.4612 49.4618 48.4056 48.6733C48.2545 46.5328 47.3759 44.6204 45.8524 43.1166C45.1252 42.3987 44.0374 41.6521 43.2844 41.354C43.0561 41.2637 42.8693 41.1588 42.8693 41.121C42.8693 41.0831 43.0056 40.923 43.1721 40.7653C43.6292 40.3322 44.0302 39.7087 44.2526 39.0853C44.5061 38.3747 44.6184 35.906 44.4368 35.0329C43.9898 32.8833 42.0061 31.25 39.842 31.25C38.149 31.25 36.452 32.2958 35.6975 33.8039C35.2167 34.7649 35.124 35.3473 35.1796 37.0572C35.2436 39.0261 35.4644 39.6545 36.4575 40.6962C36.6741 40.9233 36.832 41.1254 36.8086 41.1452C36.7851 41.165 36.4362 41.3459 36.0334 41.5471C34.55 42.288 33.2713 43.4784 32.4367 44.8956C32.2395 45.2303 32.0523 45.5049 32.0206 45.506C31.9889 45.5069 31.845 45.2913 31.7011 45.0268C30.9534 43.653 29.503 42.2737 28.0503 41.5548C27.6339 41.3487 27.2739 41.1642 27.2504 41.1446C27.227 41.1251 27.3849 40.9233 27.6015 40.6962C28.5894 39.6601 28.8098 39.0323 28.8781 37.0605C28.9372 35.3531 28.8446 34.7697 28.3615 33.8039C27.607 32.2958 25.91 31.25 24.217 31.25C22.0544 31.25 20.0685 32.8839 19.623 35.0297C19.4401 35.9108 19.5505 38.3815 19.8042 39.0853C20.0296 39.7102 20.4314 40.3338 20.8869 40.7653C21.0534 40.923 21.1896 41.0801 21.1896 41.1142C21.1896 41.1482 20.9589 41.2791 20.6769 41.4049C19.5433 41.9107 18.4383 42.7434 17.6608 43.6775L17.1857 44.2484V36.1867V28.125H33.3522H49.5188L49.7585 27.8853L49.9982 27.6456V14.0625V0.479395L49.7585 0.239746L49.5188 0H29.6857H9.85263L9.61298 0.239746ZM10.9357 5.44834V9.33428L11.6386 9.49922C12.6791 9.74336 13.3373 10.1127 14.1117 10.8868C15.2597 12.0344 15.6205 13.0627 15.6201 15.1855C15.6197 17.0806 15.3924 17.9341 14.5863 19.0674L14.2563 19.5312H18.3457H22.4351L23.8387 17.7991C26.0473 15.0738 26.797 14.3872 27.7616 14.2063L28.1232 14.1384V8.87139V3.60439L28.363 3.36475C28.6801 3.04756 29.1289 3.04756 29.446 3.36475L29.6857 3.60439V8.93115C29.6857 11.8608 29.7235 14.2578 29.7696 14.2578C29.9508 14.2578 30.7797 15.0849 30.9806 15.466C31.1437 15.7756 31.1937 16.0422 31.1962 16.615C31.1993 17.3488 31.1917 17.3724 30.7256 18.0549C30.1298 18.9273 25.7753 24.3698 25.3836 24.7314L25.0928 25H21.1393H17.1857V25.7812V26.5625H32.8107H48.4357V14.0625V1.5625H29.6857H10.9357V5.44834ZM9.61738 11.0686C8.55 11.423 7.80185 12.0731 7.35185 13.0371C7.08701 13.6045 7.07832 13.674 7.07832 15.2344C7.07832 16.7964 7.08671 16.864 7.3541 17.4424C7.69921 18.1892 8.3664 18.8531 9.1291 19.209C9.62636 19.441 9.84062 19.4824 10.5451 19.4824C11.2496 19.4824 11.4639 19.441 11.9611 19.209C12.7238 18.8531 13.391 18.1892 13.7361 17.4424C14.0035 16.864 14.0119 16.7964 14.0119 15.2344C14.0119 13.6724 14.0035 13.6048 13.7361 13.0264C13.1814 11.8262 12.0078 11.0325 10.697 10.9711C10.2961 10.9523 9.84462 10.9932 9.61738 11.0686ZM27.9458 15.7733C27.4934 15.9699 26.8199 16.6871 25.0411 18.8669C24.1951 19.9037 23.4423 20.8179 23.3683 20.8984C23.2511 21.0259 22.0704 21.0513 14.2719 21.0938L5.31015 21.1426L4.57226 21.5073C3.68359 21.9466 3.12998 22.5122 2.6999 23.4199L2.39082 24.0723L2.35937 29.248C2.33779 32.801 2.3621 34.5806 2.43681 34.9238C2.55654 35.4739 3.04912 36.1366 3.51884 36.3795C3.67187 36.4587 3.82128 36.5234 3.85078 36.5234C3.88037 36.5234 3.90449 33.8628 3.90449 30.6108V24.6981L4.14423 24.4585C4.46132 24.1413 4.91015 24.1413 5.22724 24.4585L5.46699 24.6981V28.5534V32.4087L5.9539 32.0811C8.28183 30.5144 11.4997 31.3318 12.7365 33.8039C13.2196 34.7697 13.3122 35.3531 13.2531 37.0605C13.1856 39.0068 12.88 39.8577 11.9221 40.7653C11.7556 40.923 11.6193 41.0779 11.6193 41.1095C11.6193 41.141 11.969 41.3369 12.3966 41.5447C13.3591 42.0128 14.5763 42.9636 15.1449 43.6916L15.5744 44.2416L15.6232 34.0263L15.6721 23.8108L15.9026 23.6241C16.1216 23.4469 16.3433 23.4375 20.3205 23.4375H24.5079L27.0968 20.2033C29.503 17.1974 29.6857 16.9419 29.6857 16.5825C29.6857 16.0214 29.2714 15.6236 28.6923 15.6288C28.4599 15.631 28.1239 15.696 27.9458 15.7733ZM7.85351 32.8979C7.37597 33.0221 6.54599 33.511 6.28359 33.8229C6.15078 33.9808 5.92373 34.3343 5.779 34.6087C5.52402 35.0919 5.51582 35.1575 5.51582 36.7188V38.3301L5.84951 38.9454C6.22128 39.6312 6.52802 39.9271 7.26318 40.3091C7.68847 40.5301 7.88408 40.5683 8.59199 40.5683C9.2999 40.5683 9.4955 40.5301 9.9208 40.3091C10.656 39.9271 10.9627 39.6312 11.3345 38.9454L11.6682 38.3301V36.7188C11.6682 35.1575 11.66 35.0919 11.405 34.6087C11.0167 33.8726 10.7201 33.5646 10.0619 33.2138C9.43095 32.8774 8.46445 32.7392 7.85351 32.8979ZM23.4785 32.8979C23.001 33.0221 22.171 33.511 21.9086 33.8229C21.7758 33.9808 21.5487 34.3343 21.404 34.6087C21.149 35.0919 21.1408 35.1575 21.1408 36.7188V38.3301L21.4745 38.9454C21.8463 39.6312 22.153 39.9271 22.8882 40.3091C23.3135 40.5301 23.5091 40.5683 24.217 40.5683C24.9249 40.5683 25.1205 40.5301 25.5458 40.3091C26.281 39.9271 26.5877 39.6312 26.9595 38.9454L27.2932 38.3301V36.7188C27.2932 35.1575 27.285 35.0919 27.03 34.6087C26.6417 33.8726 26.3451 33.5646 25.6869 33.2138C25.056 32.8774 24.0894 32.7392 23.4785 32.8979ZM39.1035 32.8979C38.626 33.0221 37.796 33.511 37.5336 33.8229C37.4008 33.9808 37.1737 34.3343 37.029 34.6087C36.774 35.0919 36.7658 35.1575 36.7658 36.7188V38.3301L37.0995 38.9454C37.4713 39.6312 37.778 39.9271 38.5132 40.3091C38.9385 40.5301 39.1341 40.5683 39.842 40.5683C40.5499 40.5683 40.7455 40.5301 41.1708 40.3091C41.906 39.9271 42.2127 39.6312 42.5845 38.9454L42.9182 38.3301V36.7188C42.9182 35.1575 42.91 35.0919 42.655 34.6087C42.2667 33.8726 41.9701 33.5646 41.3119 33.2138C40.681 32.8774 39.7144 32.7392 39.1035 32.8979ZM4.14423 47.1147C3.91855 47.3404 3.90449 47.4178 3.90449 48.4375C3.90449 49.4572 3.91855 49.5346 4.14423 49.7603C4.29531 49.9114 4.4955 50 4.68574 50C4.87597 50 5.07617 49.9114 5.22724 49.7603C5.45292 49.5346 5.46699 49.4572 5.46699 48.4375C5.46699 47.4178 5.45292 47.3404 5.22724 47.1147C5.07617 46.9636 4.87597 46.875 4.68574 46.875C4.4955 46.875 4.29531 46.9636 4.14423 47.1147ZM11.9567 47.1147C11.731 47.3404 11.717 47.4178 11.717 48.4375C11.717 49.4572 11.731 49.5346 11.9567 49.7603C12.1078 49.9114 12.308 50 12.4982 50C12.6885 50 12.8887 49.9114 13.0397 49.7603C13.2654 49.5346 13.2795 49.4572 13.2795 48.4375C13.2795 47.4178 13.2654 47.3404 13.0397 47.1147C12.8887 46.9636 12.6885 46.875 12.4982 46.875C12.308 46.875 12.1078 46.9636 11.9567 47.1147ZM19.7692 47.1147C19.5436 47.3404 19.5295 47.4178 19.5295 48.4375C19.5295 49.4572 19.5436 49.5346 19.7692 49.7603C19.9203 49.9114 20.1205 50 20.3107 50C20.501 50 20.7012 49.9114 20.8522 49.7603C21.0779 49.5346 21.092 49.4572 21.092 48.4375C21.092 47.4178 21.0779 47.3404 20.8522 47.1147C20.7012 46.9636 20.501 46.875 20.3107 46.875C20.1205 46.875 19.9203 46.9636 19.7692 47.1147ZM27.5817 47.1147C27.3561 47.3404 27.342 47.4178 27.342 48.4375C27.342 49.4572 27.3561 49.5346 27.5817 49.7603C27.7328 49.9114 27.933 50 28.1232 50C28.3135 50 28.5137 49.9114 28.6647 49.7603C28.8904 49.5346 28.9045 49.4572 28.9045 48.4375C28.9045 47.4178 28.8904 47.3404 28.6647 47.1147C28.5137 46.9636 28.3135 46.875 28.1232 46.875C27.933 46.875 27.7328 46.9636 27.5817 47.1147ZM35.3942 47.1147C35.1685 47.3404 35.1545 47.4178 35.1545 48.4375C35.1545 49.4572 35.1685 49.5346 35.3942 49.7603C35.5453 49.9114 35.7455 50 35.9357 50C36.126 50 36.3262 49.9114 36.4772 49.7603C36.7029 49.5346 36.717 49.4572 36.717 48.4375C36.717 47.4178 36.7029 47.3404 36.4772 47.1147C36.3262 46.9636 36.126 46.875 35.9357 46.875C35.7455 46.875 35.5453 46.9636 35.3942 47.1147ZM43.2067 47.1147C42.981 47.3404 42.967 47.4178 42.967 48.4375C42.967 49.4572 42.981 49.5346 43.2067 49.7603C43.3578 49.9114 43.558 50 43.7482 50C43.9385 50 44.1387 49.9114 44.2897 49.7603C44.5154 49.5346 44.5295 49.4572 44.5295 48.4375C44.5295 47.4178 44.5154 47.3404 44.2897 47.1147C44.1387 46.9636 43.9385 46.875 43.7482 46.875C43.558 46.875 43.3578 46.9636 43.2067 47.1147Z" fill="white"/>
</g>
<defs>
<clipPath id="clip0_580_3230">
<rect width="50" height="50" fill="white"/>
</clipPath>
</defs>
</svg>
